<?xml version="1.0" encoding="utf-8"?>
<!-- Generator: Adobe Illustrator 17.1.0, SVG Export Plug-In . SVG Version: 6.00 Build 0)  -->
<!DOCTYPE svg PUBLIC "-//W3C//DTD SVG 1.1//EN" "http://www.w3.org/Graphics/SVG/1.1/DTD/svg11.dtd">
<svg version="1.1" xmlns="http://www.w3.org/2000/svg" xmlns:xlink="http://www.w3.org/1999/xlink" x="0px" y="0px"
	 viewBox="0 0 217.4 483.2" enable-background="new 0 0 217.4 483.2" xml:space="preserve">
<g id="BG">
</g>
<g id="Layer_1">
</g>
<g id="LAYOUTS">
</g>
<g id="arm">
</g>
<g id="legs">
</g>
<g id="shirt">
</g>
<g id="Head">
</g>
<g id="eyebrow">
</g>
<g id="eyes">
</g>
<g id="tacotruck">
</g>
<g id="mouth">
	<g>
		<g>
			<defs>
				<path id="SVGID_140_" d="M108.7,119.8c-21.5,0-39-17.5-39-39V39c0-21.5,17.5-39,39-39s39,17.5,39,39v41.8
					C147.7,102.4,130.2,119.8,108.7,119.8z"/>
			</defs>
			<clipPath id="SVGID_6_">
				<use xlink:href="#SVGID_140_"  overflow="visible"/>
			</clipPath>
		</g>
		<path fill="#F6C5A6" d="M208.2,212.3c0,77.1,9.2,139.6-99.5,139.6c-99.5,0-99.5-62.5-99.5-139.6S53.7,72.7,108.7,72.7
			S208.2,135.2,208.2,212.3z"/>
		<g>
			<defs>
				<path id="SVGID_142_" d="M108.7,351.9c-99.5,0-99.5-62.5-99.5-139.6S53.7,72.7,108.7,72.7s99.5,62.5,99.5,139.6"/>
			</defs>
			<clipPath id="SVGID_8_">
				<use xlink:href="#SVGID_142_"  overflow="visible"/>
			</clipPath>
			<polygon clip-path="url(#SVGID_8_)" fill="#EDBD9F" points="40.6,359.3 26.6,68.2 190.8,68.2 176.8,359.3 			"/>
		</g>
		<g>
			<defs>
				<path id="SVGID_144_" d="M211.1,212.3c0,79.3-45.8,143.6-102.4,143.6S6.3,291.6,6.3,212.3S52.9,74.1,109.4,74.1
					S211.1,133,211.1,212.3z"/>
			</defs>
			<clipPath id="SVGID_12_">
				<use xlink:href="#SVGID_144_"  overflow="visible"/>
			</clipPath>
			<polygon clip-path="url(#SVGID_12_)" fill="#FFFFFF" points="173.5,355.9 43.9,355.9 30.2,71.7 187.2,71.7 			"/>
		</g>
		<g>
			<g>
				<path fill="#F6C5A6" d="M108.7,119.8c-21.5,0-39-17.5-39-39V39c0-21.5,17.5-39,39-39s39,17.5,39,39v41.8
					C147.7,102.4,130.2,119.8,108.7,119.8z"/>
			</g>
			<circle fill="#744C2C" cx="92.8" cy="29.2" r="1.9"/>
			<circle fill="#744C2C" cx="122.7" cy="29.2" r="1.9"/>
			<path fill="#A47B53" d="M115.4,43.1L115.4,43.1c-4.2,2.4-9.2,2.4-13.3,0l-0.1,0h-9.6c-5.1,0-9.2,4.1-9.2,9.2V68
				c0,7.3,5.9,13.3,13.3,13.3h24.4c7.3,0,13.3-5.9,13.3-13.3V52.3c0-5.1-4.1-9.2-9.2-9.2H115.4z M119.6,69.9h-1
				c-3.3,0-6.5-0.8-9.1-2.2l-0.8-0.4l-0.8,0.4c-2.6,1.4-5.8,2.2-9.1,2.2h-1c-5.6,0-10.2-3.2-10.2-7.1v-0.7c0-4.2,4.8-7.6,10.8-7.6
				H119c6,0,10.8,3.4,10.8,7.6v0.7C129.8,66.7,125.2,69.9,119.6,69.9z"/>
		</g>
		<g>
			<defs>
				<path id="SVGID_146_" d="M212.1,212.3c0,82.1-1.4,148.6-103.4,148.6c-106,0-106-66.5-106-148.6s47.4-148.6,106-148.6
					S212.1,130.3,212.1,212.3z"/>
			</defs>
			<clipPath id="SVGID_14_">
				<use xlink:href="#SVGID_146_"  overflow="visible"/>
			</clipPath>
			<rect x="178.1" y="274.2" clip-path="url(#SVGID_14_)" fill="#FFFFFF" width="39.5" height="11.7"/>
		</g>
		<g>
			<path fill="#414143" d="M185.3,379.6H32.1c0-160,20-237.3,20-237.3h113.2C165.3,142.4,185.3,212.3,185.3,379.6z"/>
		</g>
		<g>
			<polygon fill="#4B655F" points="98.7,454.1 59.7,454.1 53,379.6 98.7,379.6 			"/>
			<polygon fill="#384C47" points="75.9,459.9 59.7,454.1 53,379.6 			"/>
			<polygon fill="#4B655F" points="157.7,454.1 118.6,454.1 118.6,379.6 164.4,379.6 			"/>
			<polygon fill="#384C47" points="141.5,459.9 118.6,454.1 118.6,379.6 			"/>
		</g>
		<polygon fill="#414143" points="56.3,451.5 59.7,461 53,468.6 25.6,468.6 25.6,483.2 59.7,483.2 64.6,483.2 98.7,483.2 
			98.7,454.1 		"/>
		<polygon fill="#414143" points="161.1,451.5 157.7,461 164.4,468.6 191.8,468.6 191.8,483.2 157.7,483.2 152.8,483.2 118.6,483.2 
			118.6,454.1 		"/>
		<g>
			<path fill="none" stroke="#D6D6D6" stroke-width="0.6665" stroke-miterlimit="10" d="M150.9,96.4c-6.4,17.1-22.9,29.4-42.2,29.4
				c-18.9,0-35-11.7-41.7-28.2"/>
		</g>
		<g>
			<defs>
				<ellipse id="SVGID_148_" cx="108.7" cy="212.3" rx="108.7" ry="139.6"/>
			</defs>
			<clipPath id="SVGID_16_">
				<use xlink:href="#SVGID_148_"  overflow="visible"/>
			</clipPath>
			<g clip-path="url(#SVGID_16_)">
				<rect x="59.3" y="72.7" fill="#414143" width="10.4" height="73"/>
				<rect x="147.7" y="72.7" fill="#414143" width="10.4" height="73"/>
			</g>
		</g>
		<linearGradient id="SVGID_18_" gradientUnits="userSpaceOnUse" x1="109.4212" y1="357.1655" x2="109.4212" y2="247.8192">
			<stop  offset="0" style="stop-color:#414143"/>
			<stop  offset="1" style="stop-color:#3A3A3C"/>
		</linearGradient>
		<linearGradient id="SVGID_19_" gradientUnits="userSpaceOnUse" x1="45.7059" y1="302.4923" x2="173.1366" y2="302.4923">
			<stop  offset="0" style="stop-color:#414143"/>
			<stop  offset="1" style="stop-color:#404042"/>
		</linearGradient>
		
			<rect x="46" y="247.8" fill="url(#SVGID_18_)" stroke="url(#SVGID_19_)" stroke-width="0.6665" stroke-miterlimit="10" width="126.8" height="109.3"/>
		<line fill="none" stroke="#808080" stroke-width="3.3324" stroke-miterlimit="10" x1="46" y1="247.8" x2="172.8" y2="247.8"/>
	</g>
</g>
</svg>
