<?xml version="1.0" encoding="utf-8"?>
<!-- Generator: Adobe Illustrator 17.1.0, SVG Export Plug-In . SVG Version: 6.00 Build 0)  -->
<!DOCTYPE svg PUBLIC "-//W3C//DTD SVG 1.1//EN" "http://www.w3.org/Graphics/SVG/1.1/DTD/svg11.dtd">
<svg version="1.1" id="Layer_1" xmlns="http://www.w3.org/2000/svg" xmlns:xlink="http://www.w3.org/1999/xlink" x="0px" y="0px"
	 viewBox="0 0 455.1 586.6" enable-background="new 0 0 455.1 586.6" xml:space="preserve">
<g>
	<g>
		<path fill="#F4F6E9" d="M227.5,581.6c-59.4,0-115.3-23.1-157.4-65.2C28.1,474.4,5,418.5,5,359V227.5c0-59.4,23.1-115.3,65.2-157.4
			c42-42,97.9-65.2,157.4-65.2s115.3,23.1,157.4,65.2c42,42,65.2,97.9,65.2,157.4V359c0,59.4-23.1,115.3-65.2,157.4
			C342.9,558.4,287,581.6,227.5,581.6z"/>
		<path fill="none" stroke="#FA480C" stroke-width="10" d="M227.5,581.6c-59.4,0-115.3-23.1-157.4-65.2C28.1,474.4,5,418.5,5,359
			V227.5c0-59.4,23.1-115.3,65.2-157.4c42-42,97.9-65.2,157.4-65.2s115.3,23.1,157.4,65.2c42,42,65.2,97.9,65.2,157.4V359
			c0,59.4-23.1,115.3-65.2,157.4C342.9,558.4,287,581.6,227.5,581.6z"/>
	</g>
	<g>
		<g>
			<defs>
				<path id="SVGID_13_" d="M227.5,481.6C159.9,481.6,105,426.7,105,359V227.5c0-67.7,54.9-122.5,122.5-122.5
					s122.5,54.9,122.5,122.5V359C350.1,426.7,295.2,481.6,227.5,481.6z"/>
			</defs>
			<clipPath id="SVGID_1_">
				<use xlink:href="#SVGID_13_"  overflow="visible"/>
			</clipPath>
		</g>
		<g>
			<g>
				<path fill="#F6C5A6" d="M227.5,481.6C159.9,481.6,105,426.7,105,359V227.5c0-67.7,54.9-122.5,122.5-122.5
					s122.5,54.9,122.5,122.5V359C350.1,426.7,295.2,481.6,227.5,481.6z"/>
			</g>
			<circle fill="#744C2C" cx="177.7" cy="196.7" r="5.9"/>
			<circle fill="#744C2C" cx="271.5" cy="196.7" r="5.9"/>
			<path fill="#A47B53" d="M248.5,240.4l-0.2,0.1c-12.8,7.4-28.6,7.4-41.5,0l-0.2-0.1h-30.1c-16,0-29,13-29,29v49.5
				c0,23,18.7,41.7,41.7,41.7h76.7c23,0,41.7-18.7,41.7-41.7v-49.5c0-16-13-29-29-29H248.5z M261.9,324.6h-3.2
				c-10.3,0-20.3-2.4-28.5-6.8l-2.6-1.4l-2.6,1.4c-8.2,4.4-18.2,6.8-28.5,6.8h-3.2c-17.6,0-31.9-10-31.9-22.4v-2.1
				c0-13.2,15.2-23.8,34-23.8h64.6c18.8,0,34,10.7,34,23.8v2.1C293.8,314.6,279.5,324.6,261.9,324.6z"/>
		</g>
	</g>
</g>
</svg>
