<?xml version="1.0" encoding="utf-8"?>
<!-- Generator: Adobe Illustrator 17.1.0, SVG Export Plug-In . SVG Version: 6.00 Build 0)  -->
<!DOCTYPE svg PUBLIC "-//W3C//DTD SVG 1.1//EN" "http://www.w3.org/Graphics/SVG/1.1/DTD/svg11.dtd">
<svg version="1.1" xmlns="http://www.w3.org/2000/svg" xmlns:xlink="http://www.w3.org/1999/xlink" x="0px" y="0px"
	 viewBox="0 0 652.6 506.4" enable-background="new 0 0 652.6 506.4" xml:space="preserve">
<g id="BG">
</g>
<g id="Layer_1">
</g>
<g id="LAYOUTS">
</g>
<g id="arm">
</g>
<g id="legs">
</g>
<g id="shirt">
</g>
<g id="Head">
</g>
<g id="eyebrow">
</g>
<g id="eyes">
</g>
<g id="tacotruck">
	<g>
		<g>
			<g>
				<g>
					<rect x="375.2" y="194.4" fill="#CDCFD0" width="95.2" height="151.2"/>
					<rect x="375.2" y="341.1" fill="#1C4A59" width="95.2" height="9"/>
				</g>
				<g>
					<g opacity="0.2">
						<rect x="147.2" y="194.4" fill="#231F20" width="233.1" height="155.6"/>
						<rect x="147.2" y="350" fill="#231F20" width="233.1" height="9"/>
					</g>
					<g>
						<g>
							<rect x="142.1" y="194.4" fill="#CDCFD0" width="233.1" height="155.6"/>
							<rect x="142.1" y="350" fill="#1C4A59" width="233.1" height="9"/>
						</g>
					</g>
				</g>
				<g>
					<g opacity="0.2">
						<g>
							<defs>
								<polygon id="SVGID_24_" points="492.8,182.1 530.7,257.7 617.3,308.7 625.3,419.9 442.8,424 417.7,168.5 								"/>
							</defs>
							<clipPath id="SVGID_4_">
								<use xlink:href="#SVGID_24_"  overflow="visible"/>
							</clipPath>
						</g>
						<g>
							<defs>
								<polygon id="SVGID_26_" points="492.8,182.1 530.7,257.7 617.3,308.7 625.3,419.9 442.8,424 417.7,168.5 								"/>
							</defs>
							<clipPath id="SVGID_6_">
								<use xlink:href="#SVGID_26_"  overflow="visible"/>
							</clipPath>
							<rect x="465.3" y="194.4" clip-path="url(#SVGID_6_)" fill="#231F20" width="144.1" height="155.7"/>
							<rect x="465.3" y="350" clip-path="url(#SVGID_6_)" fill="#231F20" width="144.1" height="9"/>
						</g>
						<g>
							<defs>
								<polygon id="SVGID_28_" points="492.8,182.1 530.7,257.7 617.3,308.7 625.3,419.9 442.8,424 417.7,168.5 								"/>
							</defs>
							<clipPath id="SVGID_10_">
								<use xlink:href="#SVGID_28_"  overflow="visible"/>
							</clipPath>
						</g>
					</g>
					<g>
						<g>
							<defs>
								<polygon id="SVGID_32_" points="498,182.1 535.8,257.7 622.5,308.7 630.4,419.9 447.9,424 422.8,168.5 								"/>
							</defs>
							<clipPath id="SVGID_13_">
								<use xlink:href="#SVGID_32_"  overflow="visible"/>
							</clipPath>
						</g>
						<g>
							<defs>
								<polygon id="SVGID_36_" points="498,182.1 535.8,257.7 622.5,308.7 630.4,419.9 447.9,424 422.8,168.5 								"/>
							</defs>
							<clipPath id="SVGID_15_">
								<use xlink:href="#SVGID_36_"  overflow="visible"/>
							</clipPath>
							<g clip-path="url(#SVGID_15_)">
								<rect x="470.4" y="194.4" fill="#CDCFD0" width="144.1" height="155.7"/>
								<rect x="470.4" y="350" fill="#1C4A59" width="144.1" height="9"/>
							</g>
						</g>
						<g>
							<defs>
								<polygon id="SVGID_40_" points="498,182.1 535.8,257.7 622.5,308.7 630.4,419.9 447.9,424 422.8,168.5 								"/>
							</defs>
							<clipPath id="SVGID_17_">
								<use xlink:href="#SVGID_40_"  overflow="visible"/>
							</clipPath>
						</g>
					</g>
				</g>
				<rect x="168.6" y="210.6" fill="#414143" width="180.2" height="96.5"/>
				<rect x="232.1" y="227.3" opacity="0.56" fill="#FFFFFF" width="83.9" height="79.6"/>
				<rect x="190.1" y="254.6" opacity="0.56" fill="#FFFFFF" width="39.2" height="52.4"/>
				<circle fill="#414143" cx="258.7" cy="411" r="29.3"/>
				<circle fill="#414143" cx="470.4" cy="411" r="29.3"/>
				<path fill="#C96963" d="M470.4,359v-8.9h-95.2v45.1c0,5.9,4.8,10.7,10.7,10.7h46.1c2.1-19.4,18.5-34.4,38.4-34.4
					s36.3,15.1,38.4,34.4l101.9-8.4c3.7-0.3,6.5-3.4,6.5-7V359H470.4z"/>
				<path fill="#C96963" d="M139.4,359v39.2c0,4.2,3.4,7.7,7.7,7.7h72.4c2.5-19.4,19.1-34.4,39.2-34.4s36.7,15,39.2,34.4h66
					c6.3,0,11.4-5.1,20.3-11.4V359H139.4z"/>
				<polygon fill="#CDCFD0" points="142.1,155.3 386.1,155.3 402,173.2 492.6,173.2 505.1,194.4 142.1,194.4 				"/>
				<path fill="#414143" d="M521.9,257.3l-1.9,6.5c-1.5,4.9-6,8.3-11.2,8.3h-20.3c-6.4,0-11.6-5.2-11.6-11.6V206
					c0-6.4,5.2-11.6,11.6-11.6h0.2c4.5,0,8.7,2.6,10.6,6.8l22,48C522.5,251.7,522.7,254.6,521.9,257.3z"/>
				<rect x="517.2" y="277.6" fill="#414143" width="18.8" height="20.6"/>
				<path fill="#CDCFD0" d="M529.1,284.7H524v-10.9c0-3.4-1-6.7-2.9-9.4l-2.4-3.6c-2.8-4.2,0.2-9.8,5.2-9.8h0.1h5.1V284.7z"/>
				<g>
					<circle fill="#EEECED" cx="470.4" cy="411" r="18.8"/>
					<g>
						<defs>
							<circle id="SVGID_29_" cx="470.4" cy="411" r="18.8"/>
						</defs>
						<clipPath id="SVGID_18_">
							<use xlink:href="#SVGID_29_"  overflow="visible"/>
						</clipPath>
						<polygon clip-path="url(#SVGID_18_)" fill="#FFFFFF" points="442.7,449 496.1,370 496.1,449 						"/>
					</g>
				</g>
				<g>
					<circle fill="#EEECED" cx="258.7" cy="411" r="18.8"/>
					<g>
						<defs>
							<circle id="SVGID_31_" cx="258.7" cy="411" r="18.8"/>
						</defs>
						<clipPath id="SVGID_19_">
							<use xlink:href="#SVGID_31_"  overflow="visible"/>
						</clipPath>
						<polygon clip-path="url(#SVGID_19_)" fill="#FFFFFF" points="230.9,449 284.4,370 284.4,449 						"/>
					</g>
				</g>
				<rect x="153.9" y="305.1" fill="#EEEEEF" width="209.6" height="4"/>
				<polygon fill="#EEEEEF" points="150.3,201 365.2,201 350.9,207.3 164.6,207.3 				"/>
				<line fill="none" stroke="#414143" stroke-width="0.8531" stroke-miterlimit="10" x1="364.3" y1="201" x2="354.1" y2="258.8"/>
				<line fill="none" stroke="#414143" stroke-width="0.8531" stroke-miterlimit="10" x1="151.2" y1="201" x2="161.4" y2="258.8"/>
				<rect x="352.4" y="257.1" fill="#414143" width="3.4" height="3.4"/>
				<rect x="159.7" y="257.1" fill="#414143" width="3.4" height="3.4"/>
				<path fill="#EEEEEF" d="M604.2,343.4h-20.7c-0.5,0-0.9-0.4-0.9-0.9v-2.9c0-0.5,0.4-0.9,0.9-0.9h20.7c0.5,0,0.9,0.4,0.9,0.9v2.9
					C605.1,343,604.7,343.4,604.2,343.4z"/>
				<path fill="#EEEEEF" d="M171.8,343.4h-20.7c-0.5,0-0.9-0.4-0.9-0.9v-2.9c0-0.5,0.4-0.9,0.9-0.9h20.7c0.5,0,0.9,0.4,0.9,0.9v2.9
					C172.7,343,172.3,343.4,171.8,343.4z"/>
				<path fill="#414143" d="M445.6,277.6H402c-2,0-3.6-1.6-3.6-3.6v-72.7c0-2,1.6-3.6,3.6-3.6h43.5c2,0,3.6,1.6,3.6,3.6v72.7
					C449.1,276,447.5,277.6,445.6,277.6z"/>
				<rect x="387.5" y="293.7" fill="#414143" width="2.2" height="9.2"/>
				
					<line opacity="0.2" fill="none" stroke="#414143" stroke-width="0.8531" stroke-miterlimit="10" x1="159.7" y1="163.1" x2="359.2" y2="163.1"/>
				
					<line opacity="0.2" fill="none" stroke="#414143" stroke-width="0.8531" stroke-miterlimit="10" x1="159.7" y1="173" x2="377.1" y2="173"/>
				
					<line opacity="0.2" fill="none" stroke="#414143" stroke-width="0.8531" stroke-miterlimit="10" x1="159.7" y1="168.1" x2="368.1" y2="168.1"/>
				<g>
					<g>
						<rect x="288.4" y="211.9" opacity="0.8" fill="#BDE3ED" width="59.1" height="91.9"/>
						<path fill="#FFFFFF" d="M346.1,213.2v89.2h-56.4v-89.2H346.1 M348.7,210.6H287v94.5h61.7V210.6L348.7,210.6z"/>
					</g>
				</g>
				<rect x="297.5" y="224.5" fill="#FFFFFF" width="40.8" height="66.6"/>
				
					<line fill="none" stroke="#414143" stroke-width="2.5593" stroke-miterlimit="10" x1="300.9" y1="231.4" x2="319.4" y2="231.4"/>
				
					<line fill="none" stroke="#414143" stroke-width="2.5593" stroke-miterlimit="10" x1="300.9" y1="244.3" x2="334.9" y2="244.3"/>
				
					<line fill="none" stroke="#414143" stroke-width="2.5593" stroke-miterlimit="10" x1="300.9" y1="257.1" x2="334.9" y2="257.1"/>
				
					<line fill="none" stroke="#414143" stroke-width="2.5593" stroke-miterlimit="10" x1="300.9" y1="262.9" x2="329.8" y2="262.9"/>
				
					<line fill="none" stroke="#414143" stroke-width="2.5593" stroke-miterlimit="10" x1="300.9" y1="249.4" x2="319.4" y2="249.4"/>
				<line fill="none" stroke="#414143" stroke-width="2.5593" stroke-miterlimit="10" x1="300.9" y1="270" x2="329.8" y2="270"/>
				
					<line fill="none" stroke="#C7646B" stroke-width="2.5593" stroke-miterlimit="10" x1="300.9" y1="282.9" x2="334.9" y2="282.9"/>
				<g>
					<path fill="#414143" d="M389.1,332.2v-13.2h-4.8v-4.7h15v4.7h-4.8v13.2H389.1z"/>
					<path fill="#414143" d="M413.6,332.2l-0.6-2.1h-6.4l-0.6,2.1h-6.1l6.6-17.9h6.8l6.6,17.9H413.6z M409.7,319.6l-1.8,5.8h3.5
						L409.7,319.6z"/>
					<path fill="#414143" d="M420.9,323.3c0-5.5,4.2-9.3,9.9-9.3c4.7,0,7.1,2.7,8.1,5.2l-4.7,2.2c-0.5-1.4-1.9-2.6-3.5-2.6
						c-2.6,0-4.4,2-4.4,4.5c0,2.5,1.7,4.5,4.4,4.5c1.6,0,3-1.2,3.5-2.6l4.7,2.1c-1,2.4-3.4,5.2-8.1,5.2
						C425.2,332.6,420.9,328.8,420.9,323.3z"/>
					<path fill="#414143" d="M441.7,323.3c0-5.5,4.3-9.3,9.8-9.3s9.8,3.8,9.8,9.3c0,5.5-4.3,9.3-9.8,9.3S441.7,328.8,441.7,323.3z
						 M455.8,323.3c0-2.5-1.7-4.5-4.3-4.5c-2.6,0-4.3,2-4.3,4.5c0,2.5,1.7,4.5,4.3,4.5C454.1,327.8,455.8,325.8,455.8,323.3z"/>
				</g>
				<polygon opacity="0.1" fill="#808386" points="375.2,341.1 375.2,204.1 375.2,194.4 470.4,194.4 				"/>
				<polygon opacity="0.1" fill="#808386" points="251.2,359 142.1,359 142.1,237.5 164.6,207.3 348.5,207.4 				"/>
			</g>
		</g>
	</g>
</g>
<g id="mouth">
	<path fill="#FFFFFF" d="M303.1,21.7c-53.8,0-99,24-112.5,56.6l-30.1,3.1l26.3,22.4c4.1,40,54.6,71.6,116.3,71.6
		c64.4,0,116.6-34.4,116.6-76.8C419.7,56.1,367.5,21.7,303.1,21.7z"/>
	<g>
		<g>
			<defs>
				<path id="SVGID_147_" d="M108.7,143.1c-21.5,0-39-17.5-39-39V62.3c0-21.5,17.5-39,39-39s39,17.5,39,39v41.8
					C147.7,125.6,130.2,143.1,108.7,143.1z"/>
			</defs>
			<clipPath id="SVGID_21_">
				<use xlink:href="#SVGID_147_"  overflow="visible"/>
			</clipPath>
		</g>
		<path fill="#F6C5A6" d="M208.2,235.6c0,77.1,9.2,139.6-99.5,139.6c-99.5,0-99.5-62.5-99.5-139.6S53.7,96,108.7,96
			S208.2,158.5,208.2,235.6z"/>
		<g>
			<defs>
				<path id="SVGID_149_" d="M108.7,375.2c-99.5,0-99.5-62.5-99.5-139.6S53.7,96,108.7,96s99.5,62.5,99.5,139.6"/>
			</defs>
			<clipPath id="SVGID_23_">
				<use xlink:href="#SVGID_149_"  overflow="visible"/>
			</clipPath>
			<polygon clip-path="url(#SVGID_23_)" fill="#EDBD9F" points="40.6,382.6 26.6,91.5 190.8,91.5 176.8,382.6 			"/>
		</g>
		<g>
			<defs>
				<path id="SVGID_151_" d="M211.1,235.6c0,79.3-45.8,143.6-102.4,143.6S6.3,314.9,6.3,235.6S52.9,97.3,109.4,97.3
					S211.1,156.3,211.1,235.6z"/>
			</defs>
			<clipPath id="SVGID_25_">
				<use xlink:href="#SVGID_151_"  overflow="visible"/>
			</clipPath>
			<polygon clip-path="url(#SVGID_25_)" fill="#FFFFFF" points="173.5,379.2 43.9,379.2 30.2,94.9 187.2,94.9 			"/>
		</g>
		<g>
			<g>
				<path fill="#F6C5A6" d="M108.7,143.1c-21.5,0-39-17.5-39-39V62.3c0-21.5,17.5-39,39-39s39,17.5,39,39v41.8
					C147.7,125.6,130.2,143.1,108.7,143.1z"/>
			</g>
			<circle fill="#744C2C" cx="92.8" cy="52.5" r="1.9"/>
			<circle fill="#744C2C" cx="122.7" cy="52.5" r="1.9"/>
			<path fill="#A47B53" d="M115.4,66.4L115.4,66.4c-4.2,2.4-9.2,2.4-13.3,0l-0.1,0h-9.6c-5.1,0-9.2,4.1-9.2,9.2v15.7
				c0,7.3,5.9,13.3,13.3,13.3h24.4c7.3,0,13.3-5.9,13.3-13.3V75.6c0-5.1-4.1-9.2-9.2-9.2H115.4z M119.6,93.2h-1
				c-3.3,0-6.5-0.8-9.1-2.2l-0.8-0.4l-0.8,0.4c-2.6,1.4-5.8,2.2-9.1,2.2h-1c-5.6,0-10.2-3.2-10.2-7.1v-0.7c0-4.2,4.8-7.6,10.8-7.6
				H119c6,0,10.8,3.4,10.8,7.6V86C129.8,90,125.2,93.2,119.6,93.2z"/>
		</g>
		<g>
			<defs>
				<path id="SVGID_153_" d="M212.1,235.6c0,82.1-1.4,148.6-103.4,148.6c-106,0-106-66.5-106-148.6S50.2,87,108.7,87
					S212.1,153.5,212.1,235.6z"/>
			</defs>
			<clipPath id="SVGID_27_">
				<use xlink:href="#SVGID_153_"  overflow="visible"/>
			</clipPath>
			<rect x="178.1" y="297.4" clip-path="url(#SVGID_27_)" fill="#FFFFFF" width="39.5" height="11.7"/>
		</g>
		<g>
			<path fill="#414143" d="M185.3,402.9H32.1c0-160,20-237.3,20-237.3h113.2C165.3,165.7,185.3,235.6,185.3,402.9z"/>
		</g>
		<g>
			<polygon fill="#4B655F" points="98.7,477.4 59.7,477.4 53,402.9 98.7,402.9 			"/>
			<polygon fill="#384C47" points="75.9,483.2 59.7,477.4 53,402.9 			"/>
			<polygon fill="#4B655F" points="157.7,477.4 118.6,477.4 118.6,402.9 164.4,402.9 			"/>
			<polygon fill="#384C47" points="141.5,483.2 118.6,477.4 118.6,402.9 			"/>
		</g>
		<polygon fill="#414143" points="56.3,474.7 59.7,484.3 53,491.9 25.6,491.9 25.6,506.4 59.7,506.4 64.6,506.4 98.7,506.4 
			98.7,477.4 		"/>
		<polygon fill="#414143" points="161.1,474.7 157.7,484.3 164.4,491.9 191.8,491.9 191.8,506.4 157.7,506.4 152.8,506.4 
			118.6,506.4 118.6,477.4 		"/>
		<g>
			<path fill="none" stroke="#D6D6D6" stroke-width="0.6665" stroke-miterlimit="10" d="M150.9,119.7c-6.4,17.1-22.9,29.4-42.2,29.4
				c-18.9,0-35-11.7-41.7-28.2"/>
		</g>
		<g>
			<defs>
				<ellipse id="SVGID_155_" cx="108.7" cy="235.6" rx="108.7" ry="139.6"/>
			</defs>
			<clipPath id="SVGID_30_">
				<use xlink:href="#SVGID_155_"  overflow="visible"/>
			</clipPath>
			<g clip-path="url(#SVGID_30_)">
				<rect x="59.3" y="96" fill="#414143" width="10.4" height="73"/>
				<rect x="147.7" y="96" fill="#414143" width="10.4" height="73"/>
			</g>
		</g>
		<linearGradient id="SVGID_34_" gradientUnits="userSpaceOnUse" x1="109.4212" y1="380.4491" x2="109.4212" y2="271.1028">
			<stop  offset="0" style="stop-color:#414143"/>
			<stop  offset="1" style="stop-color:#3A3A3C"/>
		</linearGradient>
		<linearGradient id="SVGID_38_" gradientUnits="userSpaceOnUse" x1="45.7058" y1="325.7759" x2="173.1366" y2="325.7759">
			<stop  offset="0" style="stop-color:#414143"/>
			<stop  offset="1" style="stop-color:#404042"/>
		</linearGradient>
		
			<rect x="46" y="271.1" fill="url(#SVGID_34_)" stroke="url(#SVGID_38_)" stroke-width="0.6665" stroke-miterlimit="10" width="126.8" height="109.3"/>
		<line fill="none" stroke="#808080" stroke-width="3.3324" stroke-miterlimit="10" x1="46" y1="271.1" x2="172.8" y2="271.1"/>
	</g>
	<g>
		<polygon fill="#FFE580" points="57.6,148.9 57.6,155.2 60.4,155.2 64,148.9 		"/>
		<polygon fill="#FFE580" points="72,148.9 69.3,148.9 65.6,155.2 72,155.2 		"/>
		<polygon fill="#FFE996" points="64,148.9 60.4,155.2 65.6,155.2 69.3,148.9 		"/>
	</g>
	<g>
		<polygon fill="#FFE580" points="145.4,148.9 145.4,155.2 148.1,155.2 151.8,148.9 		"/>
		<polygon fill="#FFE580" points="159.8,148.9 157,148.9 153.4,155.2 159.8,155.2 		"/>
		<polygon fill="#FFE996" points="151.8,148.9 148.1,155.2 153.4,155.2 157,148.9 		"/>
	</g>
	<g>
		<g>
			<path d="M216.3,96.9h3.9l2.5,7.4c0.2,0.6,0.4,1.4,0.4,2.3h0.1c0.1-0.8,0.3-1.6,0.5-2.3l2.4-7.4h3.8l-5.5,14.8
				c-0.5,1.4-1.2,2.4-2.2,3.1s-2,1-3.3,1c-0.6,0-1.2-0.1-1.8-0.2v-2.8c0.4,0.1,0.9,0.2,1.4,0.2c0.6,0,1.2-0.2,1.7-0.6s0.8-1,1.1-1.8
				l0.2-0.6L216.3,96.9z"/>
			<path d="M243.7,103.4c0,2.1-0.6,3.8-1.7,5s-2.7,1.8-4.7,1.8c-1.3,0-2.4-0.3-3.3-0.8s-1.7-1.3-2.2-2.4s-0.8-2.2-0.8-3.6
				c0-2.1,0.6-3.8,1.7-5s2.7-1.8,4.7-1.8c1.3,0,2.4,0.3,3.3,0.8s1.7,1.3,2.2,2.4S243.7,102,243.7,103.4z M234.6,103.4
				c0,1.3,0.2,2.3,0.6,2.9s1.1,1,2.1,1c1,0,1.6-0.3,2.1-1s0.6-1.6,0.6-2.9c0-1.3-0.2-2.3-0.6-2.9s-1.1-1-2.1-1c-1,0-1.6,0.3-2.1,1
				S234.6,102.1,234.6,103.4z"/>
			<path d="M255.9,110l-0.5-1.7h-0.2c-0.4,0.6-0.9,1.1-1.6,1.4s-1.5,0.5-2.4,0.5c-1.5,0-2.7-0.4-3.5-1.2s-1.2-2-1.2-3.6v-8.5h3.6
				v7.7c0,0.9,0.2,1.7,0.5,2.1s0.9,0.7,1.6,0.7c1,0,1.7-0.3,2.2-1s0.7-1.8,0.7-3.3v-6.2h3.6V110H255.9z"/>
			<path d="M272.2,110h-3.6V91.7h3.6V110z"/>
			<path d="M275.8,93.5c0-1.2,0.6-1.7,1.9-1.7s1.9,0.6,1.9,1.7c0,0.6-0.2,1-0.5,1.3s-0.8,0.5-1.5,0.5
				C276.5,95.3,275.8,94.7,275.8,93.5z M279.6,110H276V96.9h3.6V110z"/>
			<path d="M286.7,102.9l1.6-2l3.7-4h4l-5.2,5.7l5.5,7.4h-4.1l-3.8-5.3l-1.5,1.2v4.1h-3.6V91.7h3.6v8.1L286.7,102.9L286.7,102.9z"/>
			<path d="M304.1,110.2c-2.1,0-3.8-0.6-4.9-1.7s-1.8-2.8-1.8-4.9c0-2.2,0.5-3.9,1.6-5.1s2.6-1.8,4.6-1.8c1.9,0,3.3,0.5,4.3,1.6
				s1.5,2.5,1.5,4.4v1.7H301c0,1,0.3,1.8,0.9,2.4s1.4,0.9,2.4,0.9c0.8,0,1.5-0.1,2.2-0.2s1.4-0.4,2.2-0.8v2.8
				c-0.6,0.3-1.3,0.5-2,0.7S305.2,110.2,304.1,110.2z M303.6,99.2c-0.8,0-1.4,0.2-1.8,0.7s-0.7,1.2-0.7,2h5c0-0.9-0.2-1.6-0.7-2
				S304.4,99.2,303.6,99.2z"/>
			<path d="M324.1,107.4c0.6,0,1.4-0.1,2.2-0.4v2.7c-0.9,0.4-2,0.6-3.3,0.6c-1.4,0-2.5-0.4-3.1-1.1s-1-1.8-1-3.3v-6.3h-1.7v-1.5
				l2-1.2l1-2.8h2.3v2.8h3.7v2.7h-3.7v6.3c0,0.5,0.1,0.9,0.4,1.1S323.7,107.4,324.1,107.4z"/>
			<path d="M337.4,110l-0.7-1.8h-0.1c-0.6,0.8-1.2,1.3-1.9,1.6s-1.5,0.4-2.5,0.4c-1.3,0-2.2-0.4-3-1.1s-1.1-1.7-1.1-3.1
				c0-1.4,0.5-2.4,1.5-3.1s2.4-1,4.4-1.1l2.3-0.1v-0.6c0-1.3-0.7-2-2-2c-1,0-2.3,0.3-3.7,0.9l-1.2-2.4c1.5-0.8,3.2-1.2,5-1.2
				c1.8,0,3.1,0.4,4,1.1s1.4,1.9,1.4,3.5v8.7H337.4z M336.3,103.9l-1.4,0c-1,0-1.8,0.2-2.3,0.6s-0.8,0.9-0.8,1.6
				c0,1,0.6,1.5,1.7,1.5c0.8,0,1.5-0.2,2-0.7s0.7-1.1,0.7-1.9V103.9z"/>
			<path d="M348.8,110.2c-4.1,0-6.1-2.2-6.1-6.7c0-2.2,0.6-3.9,1.7-5.1s2.7-1.8,4.8-1.8c1.5,0,2.9,0.3,4.1,0.9l-1.1,2.8
				c-0.6-0.2-1.1-0.4-1.6-0.6s-1-0.2-1.5-0.2c-1.9,0-2.8,1.3-2.8,4c0,2.6,0.9,3.8,2.8,3.8c0.7,0,1.3-0.1,1.9-0.3s1.2-0.5,1.8-0.9
				v3.1c-0.6,0.4-1.2,0.6-1.8,0.8S349.7,110.2,348.8,110.2z"/>
			<path d="M367.8,103.4c0,2.1-0.6,3.8-1.7,5s-2.7,1.8-4.7,1.8c-1.3,0-2.4-0.3-3.3-0.8s-1.7-1.3-2.2-2.4s-0.8-2.2-0.8-3.6
				c0-2.1,0.6-3.8,1.7-5s2.7-1.8,4.7-1.8c1.3,0,2.4,0.3,3.3,0.8s1.7,1.3,2.2,2.4S367.8,102,367.8,103.4z M358.7,103.4
				c0,1.3,0.2,2.3,0.6,2.9s1.1,1,2.1,1c1,0,1.6-0.3,2.1-1s0.6-1.6,0.6-2.9c0-1.3-0.2-2.3-0.6-2.9s-1.1-1-2.1-1c-1,0-1.6,0.3-2.1,1
				S358.7,102.1,358.7,103.4z"/>
			<path d="M379.9,106.1c0,1.3-0.5,2.4-1.4,3.1s-2.3,1.1-4.2,1.1c-1,0-1.8-0.1-2.4-0.2s-1.3-0.3-1.9-0.6v-3c0.7,0.3,1.4,0.6,2.2,0.8
				s1.6,0.3,2.2,0.3c1.3,0,1.9-0.4,1.9-1.1c0-0.3-0.1-0.5-0.3-0.7s-0.5-0.4-0.9-0.6s-1-0.5-1.7-0.8c-1-0.4-1.7-0.8-2.2-1.2
				s-0.8-0.8-1-1.2s-0.3-1-0.3-1.7c0-1.2,0.5-2.1,1.4-2.7s2.2-1,3.8-1c1.6,0,3.1,0.3,4.6,1l-1.1,2.6c-0.7-0.3-1.3-0.5-1.8-0.7
				s-1.2-0.3-1.7-0.3c-1.1,0-1.6,0.3-1.6,0.9c0,0.3,0.2,0.6,0.5,0.8s1.1,0.6,2.2,1c1,0.4,1.8,0.8,2.2,1.2s0.8,0.8,1.1,1.2
				S379.9,105.4,379.9,106.1z"/>
			<path d="M384,104.3v-0.9c0-0.8,0.2-1.4,0.5-2s0.9-1.1,1.8-1.8c0.8-0.6,1.4-1.1,1.6-1.4s0.4-0.8,0.4-1.2c0-0.5-0.2-0.9-0.6-1.2
				s-0.9-0.4-1.6-0.4c-1.2,0-2.5,0.4-4,1.1l-1.3-2.6c1.7-1,3.6-1.5,5.5-1.5c1.6,0,2.9,0.4,3.8,1.2s1.4,1.8,1.4,3.1
				c0,0.9-0.2,1.6-0.6,2.2s-1.1,1.3-2.2,2.1c-0.8,0.6-1.2,1-1.4,1.3s-0.3,0.7-0.3,1.1v0.7H384z M383.6,108.3c0-0.7,0.2-1.2,0.5-1.5
				s0.9-0.5,1.5-0.5c0.6,0,1.2,0.2,1.5,0.5s0.5,0.8,0.5,1.5c0,0.6-0.2,1.1-0.5,1.5s-0.9,0.5-1.5,0.5c-0.7,0-1.2-0.2-1.5-0.5
				S383.6,108.9,383.6,108.3z"/>
		</g>
	</g>
</g>
</svg>
