<?xml version="1.0" encoding="utf-8"?>
<!-- Generator: Adobe Illustrator 17.1.0, SVG Export Plug-In . SVG Version: 6.00 Build 0)  -->
<!DOCTYPE svg PUBLIC "-//W3C//DTD SVG 1.1//EN" "http://www.w3.org/Graphics/SVG/1.1/DTD/svg11.dtd">
<svg version="1.1" xmlns="http://www.w3.org/2000/svg" xmlns:xlink="http://www.w3.org/1999/xlink" x="0px" y="0px"
	 viewBox="0 0 84.2 104.1" enable-background="new 0 0 84.2 104.1" xml:space="preserve">
<g id="bg">
</g>
<g id="Layer_1">
	<g>
		<g>
			<g>
				<g>
					<g>
						<path fill="#F6C6A7" d="M42.1,104.1C18.8,104.1,0,85.2,0,62V42.1C0,18.8,18.8,0,42.1,0s42.1,18.8,42.1,42.1V62
							C84.2,85.2,65.3,104.1,42.1,104.1z"/>
					</g>
					<circle fill="#754E2C" cx="25" cy="31.5" r="2"/>
					<circle fill="#754E2C" cx="57.2" cy="31.5" r="2"/>
					<path fill="#A47B53" d="M49.3,46.5L49.3,46.5c-4.5,2.6-9.9,2.6-14.3,0l-0.1,0H24.6c-5.5,0-10,4.5-10,10v17
						c0,7.9,6.4,14.3,14.3,14.3h26.3c7.9,0,14.3-6.4,14.3-14.3v-17c0-5.5-4.5-10-10-10H49.3z M53.9,75.4h-1.1c-3.5,0-7-0.8-9.8-2.3
						l-0.9-0.5l-0.9,0.5c-2.8,1.5-6.3,2.3-9.8,2.3h-1.1c-6.1,0-11-3.4-11-7.7V67c0-4.5,5.2-8.2,11.7-8.2h22.2
						c6.4,0,11.7,3.7,11.7,8.2v0.7C64.8,72,59.9,75.4,53.9,75.4z"/>
				</g>
			</g>
		</g>
	</g>
</g>
</svg>
