<?xml version="1.0" encoding="utf-8"?>
<!-- Generator: Adobe Illustrator 17.1.0, SVG Export Plug-In . SVG Version: 6.00 Build 0)  -->
<!DOCTYPE svg PUBLIC "-//W3C//DTD SVG 1.1//EN" "http://www.w3.org/Graphics/SVG/1.1/DTD/svg11.dtd">
<svg version="1.1" xmlns="http://www.w3.org/2000/svg" xmlns:xlink="http://www.w3.org/1999/xlink" x="0px" y="0px"
	 viewBox="0 0 96 163.5" enable-background="new 0 0 96 163.5" xml:space="preserve">
<g id="bg">
</g>
<g id="Layer_1">
	<g>
		<g>
			<g>
				<g>
					<g>
						<g>
							<rect x="11.1" y="105.5" fill="#A47B53" width="78.5" height="46.9"/>
							<path fill="#F6C6A7" d="M79.8,145.4c-15.1,19-43.9,19-59,0c-5.6-7.1-9.8-14-9.8-19.2V99.3c0-21.5,17.1-39.5,38.6-39.9
								c22-0.4,39.9,17.3,39.9,39.3v27.5C89.6,131.4,85.4,138.4,79.8,145.4z"/>
							<g>
								<defs>
									<path id="SVGID_40_" d="M50.3,163.5c-21.7,0-39.3-17.6-39.3-39.3V98.7c0-21.7,17.6-39.3,39.3-39.3S89.6,77,89.6,98.7"/>
								</defs>
								<clipPath id="SVGID_42_">
									<use xlink:href="#SVGID_40_"  overflow="visible"/>
								</clipPath>
								<g clip-path="url(#SVGID_42_)">
									<defs>
										<path id="SVGID_41_" d="M11.1,89.3c15.4,0,61.4-28.2,61.4-56.6s-37.3-9-37.3-9L0,64.3L11.1,89.3z"/>
									</defs>
									<use xlink:href="#SVGID_41_"  overflow="visible" fill="#A47B53"/>
									<clipPath id="SVGID_43_">
										<use xlink:href="#SVGID_41_"  overflow="visible"/>
									</clipPath>
									<path clip-path="url(#SVGID_43_)" fill="#A47B53" d="M50.3,157.8c-21.7,0-39.3-17.6-39.3-39.3V93
										c0-21.7,17.6-39.3,39.3-39.3S89.6,71.3,89.6,93v25.6C89.6,140.2,72,157.8,50.3,157.8z"/>
								</g>
								<g clip-path="url(#SVGID_42_)">
									<g opacity="0.1">
										<path fill="#010101" d="M87,93.1c-24.5,0-63.3-16.6-63.3-71.9S87,36,87,36V93.1z"/>
									</g>
									<g>
										<path fill="#A47B53" d="M89.6,93.1c-24.5,0-63.3-16.6-63.3-71.9S89.6,36,89.6,36V93.1z"/>
									</g>
								</g>
							</g>
							<g>
								<circle fill="#A47B53" cx="34.6" cy="104.2" r="1.7"/>
								<circle fill="#A47B53" cx="66" cy="104.2" r="1.7"/>
							</g>
							<circle fill="#F6C6A7" cx="89.6" cy="103.6" r="6.4"/>
							<circle fill="#F6C6A7" cx="11.1" cy="103.6" r="6.4"/>
						</g>
					</g>
				</g>
				<path fill="#424244" d="M66,92c-6.3,0-11.5,4.8-12.1,11h-7.1c-0.6-6.2-5.8-11-12.1-11c-6.7,0-12.2,5.5-12.2,12.2
					c0,6.7,5.5,12.2,12.2,12.2c6.3,0,11.5-4.8,12.1-11h7.1c0.6,6.2,5.8,11,12.1,11c6.7,0,12.2-5.5,12.2-12.2
					C78.2,97.5,72.8,92,66,92z M34.6,113.9c-5.3,0-9.7-4.3-9.7-9.7c0-5.3,4.3-9.7,9.7-9.7s9.7,4.3,9.7,9.7
					C44.3,109.6,40,113.9,34.6,113.9z M66,113.9c-5.3,0-9.7-4.3-9.7-9.7c0-5.3,4.3-9.7,9.7-9.7c5.3,0,9.7,4.3,9.7,9.7
					C75.7,109.6,71.4,113.9,66,113.9z"/>
			</g>
		</g>
	</g>
</g>
</svg>
