<?xml version="1.0" encoding="utf-8"?>
<!-- Generator: Adobe Illustrator 17.1.0, SVG Export Plug-In . SVG Version: 6.00 Build 0)  -->
<!DOCTYPE svg PUBLIC "-//W3C//DTD SVG 1.1//EN" "http://www.w3.org/Graphics/SVG/1.1/DTD/svg11.dtd">
<svg version="1.1" xmlns="http://www.w3.org/2000/svg" xmlns:xlink="http://www.w3.org/1999/xlink" x="0px" y="0px"
	 viewBox="0 0 107 435.9" enable-background="new 0 0 107 435.9" xml:space="preserve">
<g id="BG">
</g>
<g id="Layer_1">
</g>
<g id="LAYOUTS">
</g>
<g id="arm">
</g>
<g id="legs">
</g>
<g id="shirt">
</g>
<g id="Head">
</g>
<g id="eyebrow">
</g>
<g id="eyes">
</g>
<g id="tacotruck">
</g>
<g id="mouth">
	<g>
		
			<line fill="none" stroke="#F6C5A6" stroke-width="10.8684" stroke-linecap="round" stroke-miterlimit="10" x1="99.5" y1="181.4" x2="99.5" y2="301.9"/>
		
			<line fill="none" stroke="#F6C5A6" stroke-width="10.8684" stroke-linecap="round" stroke-miterlimit="10" x1="9.1" y1="181.4" x2="9.1" y2="301.9"/>
		<g>
			<g>
				<g>
					<path fill="#BA6F63" d="M96.7,105.9H92H15.1h0H9.7c-4,0-7.2,3.2-7.2,7.2v60.8h12.6l6.3,38.1h65.1l5.4-38.1h12.6v-60.2
						C104.6,109.4,101.1,105.9,96.7,105.9z"/>
					<g>
						<g>
							<g opacity="0.1">
								<path fill="#231F20" d="M53.5,107.1l-38.5-2l24.4,33.2c7,9.5,21.2,9.5,28.2,0L92,105.1L53.5,107.1z"/>
							</g>
							<g>
								<path fill="#EEEEEF" d="M53.5,102.2l-38.5-2l24.4,33.2c7,9.5,21.2,9.5,28.2,0L92,100.2L53.5,102.2z"/>
							</g>
						</g>
					</g>
					<g>
						<rect x="11" y="49.9" fill="#A47B53" width="85.1" height="50.8"/>
						<path fill="#F6C5A6" d="M85.4,93.2c-16.4,20.6-47.6,20.6-63.9,0C15.5,85.5,11,78,11,72.4V43.2C11,19.9,29.4,0.4,52.8,0
							C76.6-0.4,96,18.8,96,42.5v29.8C96,78,91.5,85.5,85.4,93.2z"/>
						<g>
							<defs>
								<path id="SVGID_148_" d="M53.5,112.8C30,112.8,11,93.7,11,70.2V42.5C11,19,30,0,53.5,0S96,19,96,42.5"/>
							</defs>
							<clipPath id="SVGID_6_">
								<use xlink:href="#SVGID_148_"  overflow="visible"/>
							</clipPath>
							<g clip-path="url(#SVGID_6_)">
								<defs>
									<path id="SVGID_150_" d="M11,32.4c16.7,0,66.5-30.6,66.5-61.3s-40.4-9.7-40.4-9.7L-1.1,5.3L11,32.4z"/>
								</defs>
								<use xlink:href="#SVGID_150_"  overflow="visible" fill="#A47B53"/>
								<clipPath id="SVGID_8_">
									<use xlink:href="#SVGID_150_"  overflow="visible"/>
								</clipPath>
								<path clip-path="url(#SVGID_8_)" fill="#A47B53" d="M53.5,106.6C30,106.6,11,87.6,11,64.1V36.4C11,12.9,30-6.1,53.5-6.1
									S96,12.9,96,36.4v27.7C96,87.6,77,106.6,53.5,106.6z"/>
							</g>
							<g clip-path="url(#SVGID_6_)">
								<g opacity="0.1">
									<path d="M93.2,36.5c-26.5,0-68.6-18-68.6-77.9s68.6,16,68.6,16V36.5z"/>
								</g>
								<g>
									<path fill="#A47B53" d="M96,36.5c-26.5,0-68.6-18-68.6-77.9s68.6,16,68.6,16V36.5z"/>
								</g>
							</g>
						</g>
						<g>
							<circle fill="#A47B53" cx="36.5" cy="48.6" r="1.9"/>
							<circle fill="#A47B53" cx="70.5" cy="48.6" r="1.9"/>
						</g>
						<circle fill="#F6C5A6" cx="96" cy="47.9" r="6.9"/>
						<circle fill="#F6C5A6" cx="11" cy="47.9" r="6.9"/>
					</g>
					<rect x="92" y="171" fill="#EEEEEF" width="15.1" height="10.3"/>
					<rect x="0" y="171" fill="#EEEEEF" width="15.1" height="10.3"/>
					<polygon fill="#BA6F63" points="105.1,435.9 70.8,435.9 70.8,420 86.2,420 92.7,427.1 105.1,430 					"/>
					<polygon fill="#BA6F63" points="3.8,435.9 38.1,435.9 38.1,420 22.7,420 16.2,427.1 3.8,430 					"/>
					<g>
						<path fill="#4D6291" d="M86.4,212.1h-64v91.7L28.9,420h9.1V260.9c0-10.7,7.2-19.4,16.2-19.4h0.3c8.9,0,16.2,8.7,16.2,19.4V294
							l7.5,126h8.2V212.1z"/>
						<polygon fill="#41537A" points="22.4,420 28.9,420 22.4,303.8 						"/>
						<polygon fill="#41537A" points="70.8,420 78.3,420 70.8,294 						"/>
					</g>
				</g>
			</g>
			<path fill="#414143" d="M70.5,35.3c-6.8,0-12.5,5.2-13.2,11.9h-7.7c-0.7-6.7-6.3-11.9-13.2-11.9c-7.3,0-13.2,5.9-13.2,13.2
				s5.9,13.2,13.2,13.2c6.8,0,12.5-5.2,13.2-11.9h7.7c0.7,6.7,6.3,11.9,13.2,11.9c7.3,0,13.2-5.9,13.2-13.2S77.8,35.3,70.5,35.3z
				 M36.5,59.1c-5.8,0-10.5-4.7-10.5-10.5s4.7-10.5,10.5-10.5S47,42.8,47,48.6S42.3,59.1,36.5,59.1z M70.5,59.1
				c-5.8,0-10.5-4.7-10.5-10.5s4.7-10.5,10.5-10.5S81,42.8,81,48.6S76.3,59.1,70.5,59.1z"/>
		</g>
	</g>
</g>
</svg>
