<?xml version="1.0" encoding="utf-8"?>
<!-- Generator: Adobe Illustrator 17.1.0, SVG Export Plug-In . SVG Version: 6.00 Build 0)  -->
<!DOCTYPE svg PUBLIC "-//W3C//DTD SVG 1.1//EN" "http://www.w3.org/Graphics/SVG/1.1/DTD/svg11.dtd">
<svg version="1.1" xmlns="http://www.w3.org/2000/svg" xmlns:xlink="http://www.w3.org/1999/xlink" x="0px" y="0px"
	 viewBox="0 0 114.3 574.6" enable-background="new 0 0 114.3 574.6" xml:space="preserve">
<pattern  x="130.5" y="-1996.3" width="118" height="118" patternUnits="userSpaceOnUse" id="vertical2" viewBox="118.2 -236.1 118 118" overflow="visible">
	<g>
		<polygon fill="none" points="118.2,-236.1 236.2,-236.1 236.2,-118.1 118.2,-118.1 		"/>
		<g>
			<polygon fill="#FFFFFF" points="354.5,0 236,0 236,-118.5 354.5,-118.5 			"/>
		</g>
		<g>
			<polygon fill="#FFFFFF" points="236.5,0 118,0 118,-118.5 236.5,-118.5 			"/>
			<line fill="none" stroke="#ABDAF3" stroke-miterlimit="10" x1="177.2" y1="-118.5" x2="177.2" y2="0"/>
			<line fill="none" stroke="#ABDAF3" stroke-miterlimit="10" x1="207.6" y1="-118.5" x2="207.6" y2="0"/>
			<line fill="none" stroke="#ABDAF3" stroke-miterlimit="10" x1="236.2" y1="-118.5" x2="236.2" y2="0"/>
			<line fill="none" stroke="#ABDAF3" stroke-miterlimit="10" x1="146.9" y1="-118.5" x2="146.9" y2="0"/>
		</g>
		<g>
			<polygon fill="#FFFFFF" points="118.5,0 0,0 0,-118.5 118.5,-118.5 			"/>
			<line fill="none" stroke="#ABDAF3" stroke-miterlimit="10" x1="118.2" y1="-118.5" x2="118.2" y2="0"/>
		</g>
		<g>
			<polygon fill="#FFFFFF" points="354.5,-118 236,-118 236,-236.5 354.5,-236.5 			"/>
		</g>
		<g>
			<polygon fill="#FFFFFF" points="236.5,-118 118,-118 118,-236.5 236.5,-236.5 			"/>
			<line fill="none" stroke="#ABDAF3" stroke-miterlimit="10" x1="177.2" y1="-236.5" x2="177.2" y2="-118"/>
			<line fill="none" stroke="#ABDAF3" stroke-miterlimit="10" x1="207.6" y1="-236.5" x2="207.6" y2="-118"/>
			<line fill="none" stroke="#ABDAF3" stroke-miterlimit="10" x1="236.2" y1="-236.5" x2="236.2" y2="-118"/>
			<line fill="none" stroke="#ABDAF3" stroke-miterlimit="10" x1="146.9" y1="-236.5" x2="146.9" y2="-118"/>
		</g>
		<g>
			<polygon fill="#FFFFFF" points="118.5,-118 0,-118 0,-236.5 118.5,-236.5 			"/>
			<line fill="none" stroke="#ABDAF3" stroke-miterlimit="10" x1="118.2" y1="-236.5" x2="118.2" y2="-118"/>
		</g>
		<g>
			<polygon fill="#FFFFFF" points="354.5,-236 236,-236 236,-354.5 354.5,-354.5 			"/>
		</g>
		<g>
			<polygon fill="#FFFFFF" points="236.5,-236 118,-236 118,-354.5 236.5,-354.5 			"/>
			<line fill="none" stroke="#ABDAF3" stroke-miterlimit="10" x1="177.2" y1="-354.5" x2="177.2" y2="-236"/>
			<line fill="none" stroke="#ABDAF3" stroke-miterlimit="10" x1="207.6" y1="-354.5" x2="207.6" y2="-236"/>
			<line fill="none" stroke="#ABDAF3" stroke-miterlimit="10" x1="236.2" y1="-354.5" x2="236.2" y2="-236"/>
			<line fill="none" stroke="#ABDAF3" stroke-miterlimit="10" x1="146.9" y1="-354.5" x2="146.9" y2="-236"/>
		</g>
		<g>
			<polygon fill="#FFFFFF" points="118.5,-236 0,-236 0,-354.5 118.5,-354.5 			"/>
			<line fill="none" stroke="#ABDAF3" stroke-miterlimit="10" x1="118.2" y1="-354.5" x2="118.2" y2="-236"/>
		</g>
	</g>
</pattern>
<g id="BG">
</g>
<g id="Layer_1">
</g>
<g id="LAYOUTS">
</g>
<g id="arm">
</g>
<g id="legs">
</g>
<g id="shirt">
</g>
<g id="Head">
</g>
<g id="eyebrow">
</g>
<g id="eyes">
</g>
<g id="tacotruck">
</g>
<g id="mouth">
	<g>
		<g>
			<g>
				<polygon fill="#567087" points="18.4,559.9 30.6,559.9 18.4,426 				"/>
				<polygon fill="#567087" points="74.4,559.9 87.6,559.9 74.4,421 				"/>
				<path fill="#5F7C96" d="M95.9,297.6H18.4V426l12.2,133.9h9.3V360.4c0-9.4,7.6-17.1,17.1-17.1h0.3c9.4,0,17.1,7.6,17.1,17.1V421
					l13.2,138.9h8.3V297.6z"/>
			</g>
			<g>
				<g>
					<defs>
						<path id="SVGID_143_" d="M7.4,63.5l34.8-40c0,0,36.8-19.1,36.8,8.9S33.6,88.2,18.4,88.2L7.4,63.5z"/>
					</defs>
					<use xlink:href="#SVGID_143_"  overflow="visible" fill="#705439"/>
					<clipPath id="SVGID_6_">
						<use xlink:href="#SVGID_143_"  overflow="visible"/>
					</clipPath>
					<g clip-path="url(#SVGID_6_)">
						<path fill="#705439" d="M57.1,155.9c-21.4,0-38.8-17.4-38.8-38.8V91.9c0-21.4,17.4-38.8,38.8-38.8s38.8,17.4,38.8,38.8v25.3
							C95.9,138.5,78.6,155.9,57.1,155.9z"/>
					</g>
				</g>
				<g>
					<g opacity="0.1">
						<path d="M93.3,92c-24.2,0-62.6-16.4-62.6-71s62.6,14.6,62.6,14.6V92z"/>
					</g>
					<g>
						<path fill="#705439" d="M95.9,92c-24.2,0-62.6-16.4-62.6-71s62.6,14.6,62.6,14.6V92z"/>
					</g>
				</g>
			</g>
			<path fill="url(#vertical2)" d="M114.3,312.2H0V194.4c0-24.3,19.7-43.9,43.9-43.9h26.4c24.3,0,43.9,19.7,43.9,43.9V312.2z"/>
			<g>
				<path fill="#F6C5A6" d="M36.7,158.3c0.1,0.2,0.2,0.4,0.3,0.5l10.7,18.5c4.2,7.3,14.8,7.3,19,0l10.7-18.5
					c0.1-0.2,0.2-0.4,0.3-0.5c-5.9,3.7-13,5.8-20.5,5.8C49.6,164.1,42.6,162,36.7,158.3z"/>
				<path fill="#E8B99E" d="M67.8,142.4H46.4c-8.2,0-13.4,8.7-9.8,15.9c5.9,3.7,13,5.8,20.5,5.8c7.5,0,14.5-2.1,20.5-5.8
					C81.3,151.1,76.1,142.4,67.8,142.4z"/>
			</g>
			<g>
				<path fill="#F6C5A6" d="M57.1,161.5c-21.4,0-38.8-17.4-38.8-38.8V97.5c0-21.4,17.4-38.8,38.8-38.8S95.9,76,95.9,97.5v25.3
					C95.9,144.1,78.6,161.5,57.1,161.5z"/>
			</g>
			<g>
				<circle fill="#A47B53" cx="41.6" cy="103" r="1.7"/>
				<circle fill="#A47B53" cx="72.6" cy="103" r="1.7"/>
			</g>
			<circle fill="#F6C5A6" cx="95.9" cy="102.3" r="6.3"/>
			<circle fill="#F6C5A6" cx="18.4" cy="102.3" r="6.3"/>
			<g>
				<path fill="#705439" d="M60.5,130.2c-0.3,4.3-4.1,7.5-8.3,7.2s-18.8-1.3-18.8-1.3c5.3,0.4,10.6-15,19.9-14.2
					C57.6,122.2,60.8,125.9,60.5,130.2z"/>
				<g>
					<g opacity="0.2">
						<path d="M52.7,131.1c0.6,4.3,4.6,7.2,8.8,6.6c4.3-0.6,18.6-2.6,18.6-2.6c-5.3,0.8-11.5-14.2-20.9-12.8
							C55.1,122.9,52.1,126.9,52.7,131.1z"/>
					</g>
					<g>
						<path fill="#705439" d="M53.9,131.1c0.6,4.3,4.6,7.2,8.8,6.6c4.3-0.6,18.6-2.6,18.6-2.6c-5.3,0.8-11.5-14.2-20.9-12.8
							C56.2,122.9,53.3,126.9,53.9,131.1z"/>
					</g>
				</g>
			</g>
			<path fill="#F6C5A6" d="M108.2,403.4h0.1c3.3,0,6-2.7,6-6V268.7h-12v128.7C102.2,400.7,104.9,403.4,108.2,403.4z"/>
			<path fill="#F6C5A6" d="M6,403.4h0.1c3.3,0,6-2.7,6-6V268.7H0v128.7C0,400.7,2.7,403.4,6,403.4z"/>
			<rect x="17.2" y="312.2" fill="#705439" width="79.8" height="6.8"/>
			<polygon fill="#705439" points="114.3,574.6 74.4,574.6 74.4,559.9 95.9,559.9 100.7,564.1 114.3,565.8 			"/>
			<polygon fill="#705439" points="0,574.6 39.9,574.6 39.9,559.9 18.4,559.9 13.6,564.1 0,565.8 			"/>
		</g>
	</g>
</g>
</svg>
