<?xml version="1.0" encoding="utf-8"?>
<!-- Generator: Adobe Illustrator 17.1.0, SVG Export Plug-In . SVG Version: 6.00 Build 0)  -->
<!DOCTYPE svg PUBLIC "-//W3C//DTD SVG 1.1//EN" "http://www.w3.org/Graphics/SVG/1.1/DTD/svg11.dtd">
<svg version="1.1" xmlns="http://www.w3.org/2000/svg" xmlns:xlink="http://www.w3.org/1999/xlink" x="0px" y="0px"
	 viewBox="0 0 482.4 651.5" enable-background="new 0 0 482.4 651.5" xml:space="preserve">
<pattern  x="-327" y="-1923.2" width="118" height="118" patternUnits="userSpaceOnUse" id="vertical2" viewBox="118.2 -236.1 118 118" overflow="visible">
	<g>
		<polygon fill="none" points="118.2,-236.1 236.2,-236.1 236.2,-118.1 118.2,-118.1 		"/>
		<g>
			<polygon fill="#FFFFFF" points="354.5,0 236,0 236,-118.5 354.5,-118.5 			"/>
		</g>
		<g>
			<polygon fill="#FFFFFF" points="236.5,0 118,0 118,-118.5 236.5,-118.5 			"/>
			<line fill="none" stroke="#ABDAF3" stroke-miterlimit="10" x1="177.2" y1="-118.5" x2="177.2" y2="0"/>
			<line fill="none" stroke="#ABDAF3" stroke-miterlimit="10" x1="207.6" y1="-118.5" x2="207.6" y2="0"/>
			<line fill="none" stroke="#ABDAF3" stroke-miterlimit="10" x1="236.2" y1="-118.5" x2="236.2" y2="0"/>
			<line fill="none" stroke="#ABDAF3" stroke-miterlimit="10" x1="146.9" y1="-118.5" x2="146.9" y2="0"/>
		</g>
		<g>
			<polygon fill="#FFFFFF" points="118.5,0 0,0 0,-118.5 118.5,-118.5 			"/>
			<line fill="none" stroke="#ABDAF3" stroke-miterlimit="10" x1="118.2" y1="-118.5" x2="118.2" y2="0"/>
		</g>
		<g>
			<polygon fill="#FFFFFF" points="354.5,-118 236,-118 236,-236.5 354.5,-236.5 			"/>
		</g>
		<g>
			<polygon fill="#FFFFFF" points="236.5,-118 118,-118 118,-236.5 236.5,-236.5 			"/>
			<line fill="none" stroke="#ABDAF3" stroke-miterlimit="10" x1="177.2" y1="-236.5" x2="177.2" y2="-118"/>
			<line fill="none" stroke="#ABDAF3" stroke-miterlimit="10" x1="207.6" y1="-236.5" x2="207.6" y2="-118"/>
			<line fill="none" stroke="#ABDAF3" stroke-miterlimit="10" x1="236.2" y1="-236.5" x2="236.2" y2="-118"/>
			<line fill="none" stroke="#ABDAF3" stroke-miterlimit="10" x1="146.9" y1="-236.5" x2="146.9" y2="-118"/>
		</g>
		<g>
			<polygon fill="#FFFFFF" points="118.5,-118 0,-118 0,-236.5 118.5,-236.5 			"/>
			<line fill="none" stroke="#ABDAF3" stroke-miterlimit="10" x1="118.2" y1="-236.5" x2="118.2" y2="-118"/>
		</g>
		<g>
			<polygon fill="#FFFFFF" points="354.5,-236 236,-236 236,-354.5 354.5,-354.5 			"/>
		</g>
		<g>
			<polygon fill="#FFFFFF" points="236.5,-236 118,-236 118,-354.5 236.5,-354.5 			"/>
			<line fill="none" stroke="#ABDAF3" stroke-miterlimit="10" x1="177.2" y1="-354.5" x2="177.2" y2="-236"/>
			<line fill="none" stroke="#ABDAF3" stroke-miterlimit="10" x1="207.6" y1="-354.5" x2="207.6" y2="-236"/>
			<line fill="none" stroke="#ABDAF3" stroke-miterlimit="10" x1="236.2" y1="-354.5" x2="236.2" y2="-236"/>
			<line fill="none" stroke="#ABDAF3" stroke-miterlimit="10" x1="146.9" y1="-354.5" x2="146.9" y2="-236"/>
		</g>
		<g>
			<polygon fill="#FFFFFF" points="118.5,-236 0,-236 0,-354.5 118.5,-354.5 			"/>
			<line fill="none" stroke="#ABDAF3" stroke-miterlimit="10" x1="118.2" y1="-354.5" x2="118.2" y2="-236"/>
		</g>
	</g>
</pattern>
<g id="BG">
</g>
<g id="Layer_1">
</g>
<g id="LAYOUTS">
</g>
<g id="arm">
</g>
<g id="legs">
</g>
<g id="shirt">
</g>
<g id="Head">
</g>
<g id="eyebrow">
</g>
<g id="eyes">
</g>
<g id="tacotruck">
</g>
<g id="mouth">
	<g>
		<g>
			<defs>
				<path id="SVGID_105_" d="M108.7,288.1c-21.5,0-39-17.5-39-39v-41.8c0-21.5,17.5-39,39-39s39,17.5,39,39v41.8
					C147.7,270.7,130.2,288.1,108.7,288.1z"/>
			</defs>
			<clipPath id="SVGID_3_">
				<use xlink:href="#SVGID_105_"  overflow="visible"/>
			</clipPath>
		</g>
		<path fill="#F6C5A6" d="M208.2,380.6c0,77.1,9.2,139.6-99.5,139.6c-99.5,0-99.5-62.5-99.5-139.6s44.6-139.6,99.5-139.6
			S208.2,303.5,208.2,380.6z"/>
		<g>
			<defs>
				<path id="SVGID_107_" d="M108.7,520.2c-99.5,0-99.5-62.5-99.5-139.6s44.6-139.6,99.5-139.6s99.5,62.5,99.5,139.6"/>
			</defs>
			<clipPath id="SVGID_4_">
				<use xlink:href="#SVGID_107_"  overflow="visible"/>
			</clipPath>
			<polygon clip-path="url(#SVGID_4_)" fill="#EDBD9F" points="40.6,527.6 26.6,236.5 190.8,236.5 176.8,527.6 			"/>
		</g>
		<g>
			<defs>
				<path id="SVGID_109_" d="M211.1,380.6c0,79.3-45.8,143.6-102.4,143.6S6.3,459.9,6.3,380.6s46.6-138.3,103.1-138.3
					S211.1,301.3,211.1,380.6z"/>
			</defs>
			<clipPath id="SVGID_8_">
				<use xlink:href="#SVGID_109_"  overflow="visible"/>
			</clipPath>
			<polygon clip-path="url(#SVGID_8_)" fill="#FFFFFF" points="173.5,524.2 43.9,524.2 30.2,240 187.2,240 			"/>
		</g>
		<g>
			<g>
				<path fill="#F6C5A6" d="M108.7,288.1c-21.5,0-39-17.5-39-39v-41.8c0-21.5,17.5-39,39-39s39,17.5,39,39v41.8
					C147.7,270.7,130.2,288.1,108.7,288.1z"/>
			</g>
			<circle fill="#744C2C" cx="92.8" cy="197.5" r="1.9"/>
			<circle fill="#744C2C" cx="122.7" cy="197.5" r="1.9"/>
			<path fill="#A47B53" d="M115.4,211.4L115.4,211.4c-4.2,2.4-9.2,2.4-13.3,0l-0.1,0h-9.6c-5.1,0-9.2,4.1-9.2,9.2v15.7
				c0,7.3,5.9,13.3,13.3,13.3h24.4c7.3,0,13.3-5.9,13.3-13.3v-15.7c0-5.1-4.1-9.2-9.2-9.2H115.4z M119.6,238.2h-1
				c-3.3,0-6.5-0.8-9.1-2.2l-0.8-0.4l-0.8,0.4c-2.6,1.4-5.8,2.2-9.1,2.2h-1c-5.6,0-10.2-3.2-10.2-7.1v-0.7c0-4.2,4.8-7.6,10.8-7.6
				H119c6,0,10.8,3.4,10.8,7.6v0.7C129.8,235,125.2,238.2,119.6,238.2z"/>
		</g>
		<g>
			<defs>
				<path id="SVGID_111_" d="M212.1,380.6c0,82.1-1.4,148.6-103.4,148.6c-106,0-106-66.5-106-148.6s47.4-148.6,106-148.6
					S212.1,298.6,212.1,380.6z"/>
			</defs>
			<clipPath id="SVGID_10_">
				<use xlink:href="#SVGID_111_"  overflow="visible"/>
			</clipPath>
			<rect x="178.1" y="442.5" clip-path="url(#SVGID_10_)" fill="#FFFFFF" width="39.5" height="11.7"/>
		</g>
		<g>
			<path fill="#414143" d="M185.3,548H32.1c0-160,20-237.3,20-237.3h113.2C165.3,310.7,185.3,380.6,185.3,548z"/>
		</g>
		<g>
			<polygon fill="#4B655F" points="98.7,622.4 59.7,622.4 53,548 98.7,548 			"/>
			<polygon fill="#384C47" points="75.9,628.3 59.7,622.4 53,548 			"/>
			<polygon fill="#4B655F" points="157.7,622.4 118.6,622.4 118.6,548 164.4,548 			"/>
			<polygon fill="#384C47" points="141.5,628.3 118.6,622.4 118.6,548 			"/>
		</g>
		<polygon fill="#414143" points="56.3,619.8 59.7,629.3 53,637 25.6,637 25.6,651.5 59.7,651.5 64.6,651.5 98.7,651.5 98.7,622.4 
					"/>
		<polygon fill="#414143" points="161.1,619.8 157.7,629.3 164.4,637 191.8,637 191.8,651.5 157.7,651.5 152.8,651.5 118.6,651.5 
			118.6,622.4 		"/>
		<g>
			<path fill="none" stroke="#D6D6D6" stroke-width="0.6665" stroke-miterlimit="10" d="M150.9,264.7c-6.4,17.1-22.9,29.4-42.2,29.4
				c-18.9,0-35-11.7-41.7-28.2"/>
		</g>
		<g>
			<defs>
				<ellipse id="SVGID_113_" cx="108.7" cy="380.6" rx="108.7" ry="139.6"/>
			</defs>
			<clipPath id="SVGID_12_">
				<use xlink:href="#SVGID_113_"  overflow="visible"/>
			</clipPath>
			<g clip-path="url(#SVGID_12_)">
				<rect x="59.3" y="241.1" fill="#414143" width="10.4" height="73"/>
				<rect x="147.7" y="241.1" fill="#414143" width="10.4" height="73"/>
			</g>
		</g>
		<linearGradient id="SVGID_14_" gradientUnits="userSpaceOnUse" x1="109.4212" y1="525.4777" x2="109.4212" y2="416.1314">
			<stop  offset="0" style="stop-color:#414143"/>
			<stop  offset="1" style="stop-color:#3A3A3C"/>
		</linearGradient>
		<linearGradient id="SVGID_15_" gradientUnits="userSpaceOnUse" x1="45.7058" y1="470.8045" x2="173.1366" y2="470.8045">
			<stop  offset="0" style="stop-color:#414143"/>
			<stop  offset="1" style="stop-color:#404042"/>
		</linearGradient>
		
			<rect x="46" y="416.1" fill="url(#SVGID_14_)" stroke="url(#SVGID_15_)" stroke-width="0.6665" stroke-miterlimit="10" width="126.8" height="109.3"/>
		<line fill="none" stroke="#808080" stroke-width="3.3324" stroke-miterlimit="10" x1="46" y1="416.1" x2="172.8" y2="416.1"/>
	</g>
	<g>
		<polygon fill="#FFE580" points="57.6,294 57.6,300.3 60.4,300.3 64,294 		"/>
		<polygon fill="#FFE580" points="72,294 69.3,294 65.6,300.3 72,300.3 		"/>
		<polygon fill="#FFE996" points="64,294 60.4,300.3 65.6,300.3 69.3,294 		"/>
	</g>
	<g>
		<polygon fill="#FFE580" points="145.4,294 145.4,300.3 148.1,300.3 151.8,294 		"/>
		<polygon fill="#FFE580" points="159.8,294 157,294 153.4,300.3 159.8,300.3 		"/>
		<polygon fill="#FFE996" points="151.8,294 148.1,300.3 153.4,300.3 157,294 		"/>
	</g>
	<g>
		<path fill="#414143" d="M68.8,131.7h-6v-28.6h16.4v5H68.8v7.4h9.7v4.9h-9.7V131.7z"/>
		<path fill="#414143" d="M90.8,120.8v11h-6.1v-28.6h8.3c3.9,0,6.8,0.7,8.6,2.1s2.8,3.6,2.8,6.4c0,1.7-0.5,3.2-1.4,4.5
			s-2.2,2.3-3.9,3.1c4.3,6.4,7.1,10.6,8.4,12.4h-6.7l-6.8-11H90.8z M90.8,115.9h2c1.9,0,3.3-0.3,4.2-1s1.4-1.6,1.4-3
			c0-1.4-0.5-2.3-1.4-2.9s-2.4-0.9-4.3-0.9h-1.8V115.9z"/>
		<path fill="#414143" d="M127.6,131.7h-16.4v-28.6h16.4v5h-10.4v6.3h9.7v5h-9.7v7.4h10.4V131.7z"/>
		<path fill="#414143" d="M157.3,117.2c0,4.7-1.3,8.3-4,10.8s-6.5,3.8-11.6,3.8h-8.1v-28.6h9c4.7,0,8.3,1.2,10.9,3.7
			S157.3,112.8,157.3,117.2z M151,117.3c0-6.1-2.7-9.2-8.1-9.2h-3.2v18.6h2.6C148.1,126.7,151,123.6,151,117.3z"/>
	</g>
	<g>
		<path fill="#414143" d="M226.6,191.5c-1.4,0-2.6-0.1-3.6-0.4v-5c1,0.3,2,0.4,2.9,0.4c1.3,0,2.3-0.4,2.9-1.2
			c0.6-0.8,0.9-2.1,0.9-3.9v-26.8h6.1v26.7c0,3.3-0.8,5.9-2.3,7.6C231.8,190.7,229.6,191.5,226.6,191.5z"/>
		<path fill="#414143" d="M260.3,183.1l-2.1-6.8h-10.4l-2.1,6.8h-6.5l10.1-28.7h7.4l10.1,28.7H260.3z M256.8,171.3
			c-1.9-6.2-3-9.6-3.2-10.4c-0.2-0.8-0.4-1.4-0.5-1.9c-0.4,1.7-1.7,5.8-3.7,12.4H256.8z"/>
		<path fill="#414143" d="M295.8,183.1h-7.7l-12.4-21.6h-0.2c0.2,3.8,0.4,6.5,0.4,8.2v13.4h-5.4v-28.6h7.6l12.4,21.4h0.1
			c-0.2-3.7-0.3-6.3-0.3-7.9v-13.5h5.4V183.1z"/>
		<path fill="#414143" d="M319.4,183.1H303v-28.6h16.4v5H309v6.3h9.7v5H309v7.4h10.4V183.1z"/>
	</g>
	<g>
		<path fill="#414143" d="M387.7,33.3l-6.9-22.4h-0.2c0.2,4.6,0.4,7.6,0.4,9.1v13.3h-5.4V4.8h8.2l6.8,21.8h0.1l7.2-21.8h8.2v28.6
			h-5.6V19.8c0-0.6,0-1.4,0-2.2s0.1-3,0.3-6.6h-0.2l-7.4,22.4H387.7z"/>
		<path fill="#414143" d="M413.3,33.3V4.8h6.1v28.6H413.3z"/>
		<path fill="#414143" d="M449.5,33.3h-6.9l-7.5-12l-2.6,1.8v10.2h-6.1V4.8h6.1v13.1l2.4-3.4l7.7-9.7h6.7l-10,12.6L449.5,33.3z"/>
		<path fill="#414143" d="M469.6,33.3h-16.4V4.8h16.4v5h-10.4V16h9.7v5h-9.7v7.4h10.4V33.3z"/>
	</g>
	<g>
		<g>
			<g>
				<polygon fill="#567087" points="386.5,633 398.8,633 386.5,499.1 				"/>
				<polygon fill="#567087" points="442.5,633 455.8,633 442.5,494.1 				"/>
				<path fill="#5F7C96" d="M464.1,370.7h-77.6v128.4L398.8,633h9.3V433.5c0-9.4,7.6-17.1,17.1-17.1h0.3c9.4,0,17.1,7.6,17.1,17.1
					v60.6L455.8,633h8.3V370.7z"/>
			</g>
			<g>
				<g>
					<defs>
						<path id="SVGID_117_" d="M375.6,136.6l34.8-40c0,0,36.8-19.1,36.8,8.9s-45.4,55.9-60.6,55.9L375.6,136.6z"/>
					</defs>
					<use xlink:href="#SVGID_117_"  overflow="visible" fill="#705439"/>
					<clipPath id="SVGID_16_">
						<use xlink:href="#SVGID_117_"  overflow="visible"/>
					</clipPath>
					<g clip-path="url(#SVGID_16_)">
						<path fill="#705439" d="M425.3,228.9c-21.4,0-38.8-17.4-38.8-38.8v-25.3c0-21.4,17.4-38.8,38.8-38.8s38.8,17.4,38.8,38.8v25.3
							C464.1,211.6,446.7,228.9,425.3,228.9z"/>
					</g>
				</g>
				<g>
					<g opacity="0.1">
						<path d="M461.5,165c-24.2,0-62.6-16.4-62.6-71s62.6,14.6,62.6,14.6V165z"/>
					</g>
					<g>
						<path fill="#705439" d="M464.1,165c-24.2,0-62.6-16.4-62.6-71s62.6,14.6,62.6,14.6V165z"/>
					</g>
				</g>
			</g>
			<pattern  id="SVGID_18_" xlink:href="#vertical2" patternTransform="matrix(1 0 0 1 354 0)">
			</pattern>
			<path fill="url(#SVGID_18_)" d="M482.4,385.3H368.2V267.4c0-24.3,19.7-43.9,43.9-43.9h26.4c24.3,0,43.9,19.7,43.9,43.9V385.3z"/>
			<g>
				<path fill="#F6C5A6" d="M404.8,231.3c0.1,0.2,0.2,0.4,0.3,0.5l10.7,18.5c4.2,7.3,14.8,7.3,19,0l10.7-18.5
					c0.1-0.2,0.2-0.4,0.3-0.5c-5.9,3.7-13,5.8-20.5,5.8C417.8,237.2,410.8,235,404.8,231.3z"/>
				<path fill="#E8B99E" d="M436,215.5h-21.4c-8.2,0-13.4,8.7-9.8,15.9c5.9,3.7,13,5.8,20.5,5.8c7.5,0,14.5-2.1,20.5-5.8
					C449.4,224.1,444.2,215.5,436,215.5z"/>
			</g>
			<g>
				<path fill="#F6C5A6" d="M425.3,234.5c-21.4,0-38.8-17.4-38.8-38.8v-25.3c0-21.4,17.4-38.8,38.8-38.8s38.8,17.4,38.8,38.8v25.3
					C464.1,217.2,446.7,234.5,425.3,234.5z"/>
			</g>
			<g>
				<circle fill="#A47B53" cx="409.8" cy="176" r="1.7"/>
				<circle fill="#A47B53" cx="440.8" cy="176" r="1.7"/>
			</g>
			<circle fill="#F6C5A6" cx="464.1" cy="175.4" r="6.3"/>
			<circle fill="#F6C5A6" cx="386.5" cy="175.4" r="6.3"/>
			<g>
				<path fill="#705439" d="M428.7,203.3c-0.3,4.3-4.1,7.5-8.3,7.2c-4.3-0.3-18.8-1.3-18.8-1.3c5.3,0.4,10.6-15,19.9-14.2
					C425.8,195.3,429,199,428.7,203.3z"/>
				<g>
					<g opacity="0.2">
						<path d="M420.9,204.2c0.6,4.3,4.6,7.2,8.8,6.6s18.6-2.6,18.6-2.6c-5.3,0.8-11.5-14.2-20.9-12.8
							C423.2,196,420.3,199.9,420.9,204.2z"/>
					</g>
					<g>
						<path fill="#705439" d="M422,204.2c0.6,4.3,4.6,7.2,8.8,6.6s18.6-2.6,18.6-2.6c-5.3,0.8-11.5-14.2-20.9-12.8
							C424.4,196,421.4,199.9,422,204.2z"/>
					</g>
				</g>
			</g>
			<path fill="#F6C5A6" d="M476.4,476.5h0.1c3.3,0,6-2.7,6-6V341.8h-12v128.7C470.4,473.8,473.1,476.5,476.4,476.5z"/>
			<path fill="#F6C5A6" d="M374.1,476.5h0.1c3.3,0,6-2.7,6-6V341.8h-12v128.7C368.2,473.8,370.8,476.5,374.1,476.5z"/>
			<rect x="385.4" y="385.3" fill="#705439" width="79.8" height="6.8"/>
			<polygon fill="#705439" points="482.4,647.6 442.5,647.6 442.5,633 464.1,633 468.9,637.1 482.4,638.8 			"/>
			<polygon fill="#705439" points="368.2,647.6 408.1,647.6 408.1,633 386.5,633 381.7,637.1 368.2,638.8 			"/>
		</g>
	</g>
	<g>
		
			<line fill="none" stroke="#F6C5A6" stroke-width="10.8684" stroke-linecap="round" stroke-miterlimit="10" x1="319.9" y1="396.8" x2="319.9" y2="517.4"/>
		
			<line fill="none" stroke="#F6C5A6" stroke-width="10.8684" stroke-linecap="round" stroke-miterlimit="10" x1="229.5" y1="396.8" x2="229.5" y2="517.4"/>
		<g>
			<g>
				<g>
					<path fill="#BA6F63" d="M317.1,321.4h-4.8h-76.9h0h-5.4c-4,0-7.2,3.2-7.2,7.2v60.8h12.6l6.3,38.1h65.1l5.4-38.1H325v-60.2
						C325,324.9,321.5,321.4,317.1,321.4z"/>
					<g>
						<g>
							<g opacity="0.1">
								<path fill="#231F20" d="M273.9,322.6l-38.5-2l24.4,33.2c7,9.5,21.2,9.5,28.2,0l24.4-33.2L273.9,322.6z"/>
							</g>
							<g>
								<path fill="#EEEEEF" d="M273.9,317.6l-38.5-2l24.4,33.2c7,9.5,21.2,9.5,28.2,0l24.4-33.2L273.9,317.6z"/>
							</g>
						</g>
					</g>
					<g>
						<rect x="231.3" y="265.4" fill="#A47B53" width="85.1" height="50.8"/>
						<path fill="#F6C5A6" d="M305.8,308.7c-16.4,20.6-47.6,20.6-63.9,0c-6.1-7.6-10.6-15.2-10.6-20.8v-29.1
							c0-23.3,18.5-42.8,41.8-43.2c23.8-0.4,43.3,18.8,43.3,42.5v29.8C316.4,293.4,311.9,301,305.8,308.7z"/>
						<g>
							<defs>
								<path id="SVGID_122_" d="M273.9,328.2c-23.5,0-42.5-19-42.5-42.5V258c0-23.5,19-42.5,42.5-42.5s42.5,19,42.5,42.5"/>
							</defs>
							<clipPath id="SVGID_20_">
								<use xlink:href="#SVGID_122_"  overflow="visible"/>
							</clipPath>
							<g clip-path="url(#SVGID_20_)">
								<defs>
									<path id="SVGID_124_" d="M231.3,247.9c16.7,0,66.5-30.6,66.5-61.3s-40.4-9.7-40.4-9.7l-38.1,43.9L231.3,247.9z"/>
								</defs>
								<use xlink:href="#SVGID_124_"  overflow="visible" fill="#A47B53"/>
								<clipPath id="SVGID_22_">
									<use xlink:href="#SVGID_124_"  overflow="visible"/>
								</clipPath>
								<path clip-path="url(#SVGID_22_)" fill="#A47B53" d="M273.9,322.1c-23.5,0-42.5-19-42.5-42.5v-27.7
									c0-23.5,19-42.5,42.5-42.5s42.5,19,42.5,42.5v27.7C316.4,303,297.4,322.1,273.9,322.1z"/>
							</g>
							<g clip-path="url(#SVGID_20_)">
								<g opacity="0.1">
									<path d="M313.6,252c-26.5,0-68.6-18-68.6-77.9s68.6,16,68.6,16V252z"/>
								</g>
								<g>
									<path fill="#A47B53" d="M316.4,252c-26.5,0-68.6-18-68.6-77.9s68.6,16,68.6,16V252z"/>
								</g>
							</g>
						</g>
						<g>
							<circle fill="#A47B53" cx="256.9" cy="264" r="1.9"/>
							<circle fill="#A47B53" cx="290.9" cy="264" r="1.9"/>
						</g>
						<circle fill="#F6C5A6" cx="316.4" cy="263.3" r="6.9"/>
						<circle fill="#F6C5A6" cx="231.3" cy="263.3" r="6.9"/>
					</g>
					<rect x="312.4" y="386.5" fill="#EEEEEF" width="15.1" height="10.3"/>
					<rect x="220.4" y="386.5" fill="#EEEEEF" width="15.1" height="10.3"/>
					<polygon fill="#BA6F63" points="325.5,651.3 291.2,651.3 291.2,635.5 306.6,635.5 313.1,642.6 325.5,645.5 					"/>
					<polygon fill="#BA6F63" points="224.2,651.3 258.5,651.3 258.5,635.5 243.1,635.5 236.6,642.6 224.2,645.5 					"/>
					<g>
						<path fill="#4D6291" d="M306.8,427.5h-64v91.7l6.5,116.3h9.1V476.3c0-10.7,7.2-19.4,16.2-19.4h0.3c8.9,0,16.2,8.7,16.2,19.4
							v33.2l7.5,126h8.2V427.5z"/>
						<polygon fill="#41537A" points="242.8,635.5 249.3,635.5 242.8,519.2 						"/>
						<polygon fill="#41537A" points="291.2,635.5 298.7,635.5 291.2,509.5 						"/>
					</g>
				</g>
			</g>
			<path fill="#414143" d="M290.9,250.8c-6.8,0-12.5,5.2-13.2,11.9H270c-0.7-6.7-6.3-11.9-13.2-11.9c-7.3,0-13.2,5.9-13.2,13.2
				s5.9,13.2,13.2,13.2c6.8,0,12.5-5.2,13.2-11.9h7.7c0.7,6.7,6.3,11.9,13.2,11.9c7.3,0,13.2-5.9,13.2-13.2S298.2,250.8,290.9,250.8
				z M256.9,274.5c-5.8,0-10.5-4.7-10.5-10.5s4.7-10.5,10.5-10.5c5.8,0,10.5,4.7,10.5,10.5S262.7,274.5,256.9,274.5z M290.9,274.5
				c-5.8,0-10.5-4.7-10.5-10.5s4.7-10.5,10.5-10.5s10.5,4.7,10.5,10.5S296.7,274.5,290.9,274.5z"/>
		</g>
	</g>
</g>
</svg>
