<?xml version="1.0" encoding="utf-8"?>
<!-- Generator: Adobe Illustrator 17.1.0, SVG Export Plug-In . SVG Version: 6.00 Build 0)  -->
<!DOCTYPE svg PUBLIC "-//W3C//DTD SVG 1.1//EN" "http://www.w3.org/Graphics/SVG/1.1/DTD/svg11.dtd">
<svg version="1.1" xmlns="http://www.w3.org/2000/svg" xmlns:xlink="http://www.w3.org/1999/xlink" x="0px" y="0px"
	 viewBox="0 0 630.9 417.1" enable-background="new 0 0 630.9 417.1" xml:space="preserve">
<g id="BG">
</g>
<g id="Layer_1">
</g>
<g id="LAYOUTS">
</g>
<g id="arm">
</g>
<g id="legs">
</g>
<g id="shirt">
</g>
<g id="Head">
</g>
<g id="eyebrow">
</g>
<g id="eyes">
</g>
<g id="tacotruck">
	<g>
		<polygon fill="#674D31" points="53.6,309.8 52.8,308.2 53.6,306.7 55.4,306.7 56.3,308.2 55.4,309.8 		"/>
		<g>
			<polygon opacity="0.2" fill="#CCCCCC" points="242.9,174.1 151.6,174.1 7.4,92.8 98.7,92.8 			"/>
			<polygon opacity="0.2" fill="#CCCCCC" points="242.9,297.8 151.6,297.8 7.4,216.5 98.7,216.5 			"/>
			<rect x="220.7" y="241.5" fill="#EEEEEF" width="16.4" height="11.2"/>
			<rect x="120.5" y="241.5" fill="#EEEEEF" width="16.4" height="11.2"/>
			<g>
				<rect x="7.4" y="206.6" fill="#A47B53" width="91.3" height="9.9"/>
				<g>
					<path fill="#414143" d="M68.8,131.4H16.1c-1.1,0-2-0.7-2-1.5v-3.8c0-0.8,0.9-1.5,2-1.5h52.7c1.1,0,2,0.7,2,1.5v3.8
						C70.8,130.7,69.9,131.4,68.8,131.4z"/>
					<path fill="#A47B53" d="M60.3,150.9H24.6c-1.9,0-3.4-1.5-3.4-3.4v-0.1c0-1.9,1.5-3.4,3.4-3.4h35.6c1.9,0,3.4,1.5,3.4,3.4v0.1
						C63.7,149.4,62.1,150.9,60.3,150.9z"/>
					<path fill="#A48567" d="M60.3,143.1H24.6c-1.9,0-3.4-1.5-3.4-3.4v-0.1c0-1.9,1.5-3.4,3.4-3.4h35.6c1.9,0,3.4,1.5,3.4,3.4v0.1
						C63.7,141.6,62.1,143.1,60.3,143.1z"/>
					<path fill="#DEB791" d="M60.3,158.7H24.6c-1.9,0-3.4-1.5-3.4-3.4v-0.1c0-1.9,1.5-3.4,3.4-3.4h35.6c1.9,0,3.4,1.5,3.4,3.4v0.1
						C63.7,157.1,62.1,158.7,60.3,158.7z"/>
					<path fill="#A47B53" d="M60.3,166.4H24.6c-1.9,0-3.4-1.5-3.4-3.4v-0.1c0-1.9,1.5-3.4,3.4-3.4h35.6c1.9,0,3.4,1.5,3.4,3.4v0.1
						C63.7,164.9,62.1,166.4,60.3,166.4z"/>
					<path fill="#A47B53" d="M60.3,174.1H24.6c-1.9,0-3.4-1.5-3.4-3.4v-0.1c0-1.9,1.5-3.4,3.4-3.4h35.6c1.9,0,3.4,1.5,3.4,3.4v0.1
						C63.7,172.6,62.1,174.1,60.3,174.1z"/>
					<path fill="#DEB791" d="M60.3,181.8H24.6c-1.9,0-3.4-1.5-3.4-3.4v-0.1c0-1.9,1.5-3.4,3.4-3.4h35.6c1.9,0,3.4,1.5,3.4,3.4v0.1
						C63.7,180.3,62.1,181.8,60.3,181.8z"/>
					<path fill="#A47B53" d="M60.3,189.6H24.6c-1.9,0-3.4-1.5-3.4-3.4v-0.1c0-1.9,1.5-3.4,3.4-3.4h35.6c1.9,0,3.4,1.5,3.4,3.4v0.1
						C63.7,188,62.1,189.6,60.3,189.6z"/>
					<path fill="#DEB791" d="M60.3,197.3H24.6c-1.9,0-3.4-1.5-3.4-3.4v-0.1c0-1.9,1.5-3.4,3.4-3.4h35.6c1.9,0,3.4,1.5,3.4,3.4v0.1
						C63.7,195.8,62.1,197.3,60.3,197.3z"/>
					<path fill="#A47B53" d="M60.3,205H24.6c-1.9,0-3.4-1.5-3.4-3.4v-0.1c0-1.9,1.5-3.4,3.4-3.4h35.6c1.9,0,3.4,1.5,3.4,3.4v0.1
						C63.7,203.5,62.1,205,60.3,205z"/>
					<rect x="15.6" y="132.8" opacity="0.32" fill="#606060" width="53.7" height="74.7"/>
				</g>
				<g>
					<path fill="#414143" d="M90,131.4H37.3c-1.1,0-2-0.7-2-1.5v-3.8c0-0.8,0.9-1.5,2-1.5H90c1.1,0,2,0.7,2,1.5v3.8
						C92.1,130.7,91.1,131.4,90,131.4z"/>
					<path fill="#A47B53" d="M81.5,150.9H45.9c-1.9,0-3.4-1.5-3.4-3.4v-0.1c0-1.9,1.5-3.4,3.4-3.4h35.6c1.9,0,3.4,1.5,3.4,3.4v0.1
						C84.9,149.4,83.4,150.9,81.5,150.9z"/>
					<path fill="#A48567" d="M81.5,143.1H45.9c-1.9,0-3.4-1.5-3.4-3.4v-0.1c0-1.9,1.5-3.4,3.4-3.4h35.6c1.9,0,3.4,1.5,3.4,3.4v0.1
						C84.9,141.6,83.4,143.1,81.5,143.1z"/>
					<path fill="#DEB791" d="M81.5,158.7H45.9c-1.9,0-3.4-1.5-3.4-3.4v-0.1c0-1.9,1.5-3.4,3.4-3.4h35.6c1.9,0,3.4,1.5,3.4,3.4v0.1
						C84.9,157.1,83.4,158.7,81.5,158.7z"/>
					<path fill="#A47B53" d="M81.5,166.4H45.9c-1.9,0-3.4-1.5-3.4-3.4v-0.1c0-1.9,1.5-3.4,3.4-3.4h35.6c1.9,0,3.4,1.5,3.4,3.4v0.1
						C84.9,164.9,83.4,166.4,81.5,166.4z"/>
					<path fill="#A47B53" d="M81.5,174.1H45.9c-1.9,0-3.4-1.5-3.4-3.4v-0.1c0-1.9,1.5-3.4,3.4-3.4h35.6c1.9,0,3.4,1.5,3.4,3.4v0.1
						C84.9,172.6,83.4,174.1,81.5,174.1z"/>
					<path fill="#DEB791" d="M81.5,181.8H45.9c-1.9,0-3.4-1.5-3.4-3.4v-0.1c0-1.9,1.5-3.4,3.4-3.4h35.6c1.9,0,3.4,1.5,3.4,3.4v0.1
						C84.9,180.3,83.4,181.8,81.5,181.8z"/>
					<path fill="#A47B53" d="M81.5,189.6H45.9c-1.9,0-3.4-1.5-3.4-3.4v-0.1c0-1.9,1.5-3.4,3.4-3.4h35.6c1.9,0,3.4,1.5,3.4,3.4v0.1
						C84.9,188,83.4,189.6,81.5,189.6z"/>
					<path fill="#DEB791" d="M81.5,197.3H45.9c-1.9,0-3.4-1.5-3.4-3.4v-0.1c0-1.9,1.5-3.4,3.4-3.4h35.6c1.9,0,3.4,1.5,3.4,3.4v0.1
						C84.9,195.8,83.4,197.3,81.5,197.3z"/>
					<path fill="#A47B53" d="M81.5,205H45.9c-1.9,0-3.4-1.5-3.4-3.4v-0.1c0-1.9,1.5-3.4,3.4-3.4h35.6c1.9,0,3.4,1.5,3.4,3.4v0.1
						C84.9,203.5,83.4,205,81.5,205z"/>
					<rect x="36.8" y="132.8" opacity="0.32" fill="#606060" width="53.7" height="74.7"/>
				</g>
			</g>
			<g>
				<rect x="7.4" y="82.9" fill="#A47B53" width="91.3" height="9.9"/>
				<g>
					<path fill="#B9BABC" d="M63.9,6.9H11.3c-1.1,0-2-0.7-2-1.5V1.5c0-0.8,0.9-1.5,2-1.5h52.7c1.1,0,2,0.7,2,1.5v3.8
						C66,6.2,65.1,6.9,63.9,6.9z"/>
					<path fill="#A47B53" d="M55.4,26.4H19.8c-1.9,0-3.4-1.5-3.4-3.4v-0.1c0-1.9,1.5-3.4,3.4-3.4h35.6c1.9,0,3.4,1.5,3.4,3.4V23
						C58.8,24.9,57.3,26.4,55.4,26.4z"/>
					<path fill="#A48567" d="M55.4,18.6H19.8c-1.9,0-3.4-1.5-3.4-3.4v-0.1c0-1.9,1.5-3.4,3.4-3.4h35.6c1.9,0,3.4,1.5,3.4,3.4v0.1
						C58.8,17,57.3,18.6,55.4,18.6z"/>
					<path fill="#DEB791" d="M55.4,34.1H19.8c-1.9,0-3.4-1.5-3.4-3.4v-0.1c0-1.9,1.5-3.4,3.4-3.4h35.6c1.9,0,3.4,1.5,3.4,3.4v0.1
						C58.8,32.6,57.3,34.1,55.4,34.1z"/>
					<path fill="#A47B53" d="M55.4,41.9H19.8c-1.9,0-3.4-1.5-3.4-3.4v-0.1c0-1.9,1.5-3.4,3.4-3.4h35.6c1.9,0,3.4,1.5,3.4,3.4v0.1
						C58.8,40.3,57.3,41.9,55.4,41.9z"/>
					<path fill="#A47B53" d="M55.4,49.6H19.8c-1.9,0-3.4-1.5-3.4-3.4v-0.1c0-1.9,1.5-3.4,3.4-3.4h35.6c1.9,0,3.4,1.5,3.4,3.4v0.1
						C58.8,48.1,57.3,49.6,55.4,49.6z"/>
					<path fill="#DEB791" d="M55.4,57.3H19.8c-1.9,0-3.4-1.5-3.4-3.4v-0.1c0-1.9,1.5-3.4,3.4-3.4h35.6c1.9,0,3.4,1.5,3.4,3.4v0.1
						C58.8,55.8,57.3,57.3,55.4,57.3z"/>
					<path fill="#A47B53" d="M55.4,65H19.8c-1.9,0-3.4-1.5-3.4-3.4v-0.1c0-1.9,1.5-3.4,3.4-3.4h35.6c1.9,0,3.4,1.5,3.4,3.4v0.1
						C58.8,63.5,57.3,65,55.4,65z"/>
					<path fill="#DEB791" d="M55.4,72.8H19.8c-1.9,0-3.4-1.5-3.4-3.4v-0.1c0-1.9,1.5-3.4,3.4-3.4h35.6c1.9,0,3.4,1.5,3.4,3.4v0.1
						C58.8,71.2,57.3,72.8,55.4,72.8z"/>
					<path fill="#A47B53" d="M55.4,80.5H19.8c-1.9,0-3.4-1.5-3.4-3.4V77c0-1.9,1.5-3.4,3.4-3.4h35.6c1.9,0,3.4,1.5,3.4,3.4v0.1
						C58.8,79,57.3,80.5,55.4,80.5z"/>
					<rect x="10.7" y="8.2" opacity="0.32" fill="#606060" width="53.7" height="74.7"/>
				</g>
				<g>
					<path fill="#414143" d="M90.8,6.9H38.1c-1.1,0-2-0.7-2-1.5V1.5c0-0.8,0.9-1.5,2-1.5h52.7c1.1,0,2,0.7,2,1.5v3.8
						C92.8,6.2,91.9,6.9,90.8,6.9z"/>
					<path fill="#A47B53" d="M82.3,26.4H46.6c-1.9,0-3.4-1.5-3.4-3.4v-0.1c0-1.9,1.5-3.4,3.4-3.4h35.6c1.9,0,3.4,1.5,3.4,3.4V23
						C85.7,24.9,84.1,26.4,82.3,26.4z"/>
					<path fill="#A48567" d="M82.3,18.6H46.6c-1.9,0-3.4-1.5-3.4-3.4v-0.1c0-1.9,1.5-3.4,3.4-3.4h35.6c1.9,0,3.4,1.5,3.4,3.4v0.1
						C85.7,17,84.1,18.6,82.3,18.6z"/>
					<path fill="#DEB791" d="M82.3,34.1H46.6c-1.9,0-3.4-1.5-3.4-3.4v-0.1c0-1.9,1.5-3.4,3.4-3.4h35.6c1.9,0,3.4,1.5,3.4,3.4v0.1
						C85.7,32.6,84.1,34.1,82.3,34.1z"/>
					<path fill="#A47B53" d="M82.3,41.9H46.6c-1.9,0-3.4-1.5-3.4-3.4v-0.1c0-1.9,1.5-3.4,3.4-3.4h35.6c1.9,0,3.4,1.5,3.4,3.4v0.1
						C85.7,40.3,84.1,41.9,82.3,41.9z"/>
					<path fill="#A47B53" d="M82.3,49.6H46.6c-1.9,0-3.4-1.5-3.4-3.4v-0.1c0-1.9,1.5-3.4,3.4-3.4h35.6c1.9,0,3.4,1.5,3.4,3.4v0.1
						C85.7,48.1,84.1,49.6,82.3,49.6z"/>
					<path fill="#DEB791" d="M82.3,57.3H46.6c-1.9,0-3.4-1.5-3.4-3.4v-0.1c0-1.9,1.5-3.4,3.4-3.4h35.6c1.9,0,3.4,1.5,3.4,3.4v0.1
						C85.7,55.8,84.1,57.3,82.3,57.3z"/>
					<path fill="#A47B53" d="M82.3,65H46.6c-1.9,0-3.4-1.5-3.4-3.4v-0.1c0-1.9,1.5-3.4,3.4-3.4h35.6c1.9,0,3.4,1.5,3.4,3.4v0.1
						C85.7,63.5,84.1,65,82.3,65z"/>
					<path fill="#DEB791" d="M82.3,72.8H46.6c-1.9,0-3.4-1.5-3.4-3.4v-0.1c0-1.9,1.5-3.4,3.4-3.4h35.6c1.9,0,3.4,1.5,3.4,3.4v0.1
						C85.7,71.2,84.1,72.8,82.3,72.8z"/>
					<path fill="#A47B53" d="M82.3,80.5H46.6c-1.9,0-3.4-1.5-3.4-3.4V77c0-1.9,1.5-3.4,3.4-3.4h35.6c1.9,0,3.4,1.5,3.4,3.4v0.1
						C85.7,79,84.1,80.5,82.3,80.5z"/>
					<rect x="37.6" y="8.2" opacity="0.32" fill="#606060" width="53.7" height="74.7"/>
				</g>
			</g>
			<g>
				<g>
					<path fill="#BA6F63" d="M217.9,170.8h-5.1h-81.5h0h-5.7c-4.2,0-7.6,3.4-7.6,7.6v64.5h13.3v40.4h81.5v-40.4h13.3v-63.8
						C226.2,174.5,222.5,170.8,217.9,170.8z"/>
					<g>
						<g>
							<g opacity="0.1">
								<path fill="#231F20" d="M172.1,172.1l-40.8-2.1l25.8,35.2c7.4,10.1,22.5,10.1,29.9,0l25.8-35.2L172.1,172.1z"/>
							</g>
							<g>
								<path fill="#EEEEEF" d="M172.1,166.8l-40.8-2.1l25.8,35.2c7.4,10.1,22.5,10.1,29.9,0l25.8-35.2L172.1,166.8z"/>
							</g>
						</g>
					</g>
					<g>
						<rect x="126.9" y="111.4" fill="#A47B53" width="90.2" height="53.9"/>
						<path fill="#F6C5A6" d="M205.9,157.3c-17.3,21.8-50.4,21.8-67.8,0c-6.4-8.1-11.2-16.1-11.2-22.1v-30.9
							c0-24.7,19.6-45.4,44.3-45.8c25.3-0.4,45.9,19.9,45.9,45.1v31.6C217.1,141.2,212.3,149.2,205.9,157.3z"/>
						<g>
							<defs>
								<path id="SVGID_3_" d="M172,178.1c-24.9,0-45.1-20.2-45.1-45.1v-29.4c0-24.9,20.2-45.1,45.1-45.1s45.1,20.2,45.1,45.1"/>
							</defs>
							<clipPath id="SVGID_4_">
								<use xlink:href="#SVGID_3_"  overflow="visible"/>
							</clipPath>
							<g clip-path="url(#SVGID_4_)">
								<defs>
									<path id="SVGID_9_" d="M126.9,92.9c17.7,0,70.5-32.4,70.5-65s-42.8-10.3-42.8-10.3l-40.4,46.5L126.9,92.9z"/>
								</defs>
								<use xlink:href="#SVGID_9_"  overflow="visible" fill="#A47B53"/>
								<clipPath id="SVGID_6_">
									<use xlink:href="#SVGID_9_"  overflow="visible"/>
								</clipPath>
								<path clip-path="url(#SVGID_6_)" fill="#A47B53" d="M172,171.5c-24.9,0-45.1-20.2-45.1-45.1V97.1
									c0-24.9,20.2-45.1,45.1-45.1s45.1,20.2,45.1,45.1v29.4C217.1,151.4,196.9,171.5,172,171.5z"/>
							</g>
							<g clip-path="url(#SVGID_4_)">
								<g opacity="0.1">
									<path d="M214.1,97.2c-28.1,0-72.8-19-72.8-82.5s72.8,16.9,72.8,16.9V97.2z"/>
								</g>
								<g>
									<path fill="#A47B53" d="M217.1,97.2c-28.1,0-72.8-19-72.8-82.5s72.8,16.9,72.8,16.9V97.2z"/>
								</g>
							</g>
						</g>
						<g>
							<circle fill="#A47B53" cx="154" cy="110" r="2"/>
							<circle fill="#A47B53" cx="190.1" cy="110" r="2"/>
						</g>
						<circle fill="#F6C5A6" cx="217.1" cy="109.2" r="7.4"/>
						<circle fill="#F6C5A6" cx="126.9" cy="109.2" r="7.4"/>
					</g>
					<rect x="212.8" y="239.8" fill="#EEEEEF" width="16" height="10.9"/>
					<rect x="115.3" y="239.8" fill="#EEEEEF" width="16" height="10.9"/>
					<g>
						<polygon fill="#F6C5A6" points="117.9,250.8 117.9,265.2 201.2,265.2 143.5,250.8 						"/>
						<polygon opacity="0.48" fill="#C6A189" points="133,250.8 190.7,265.2 219.6,265.2 219.6,250.8 						"/>
						<polygon fill="#F6C5A6" points="133,250.8 201.2,265.2 226.2,265.2 226.2,250.8 						"/>
					</g>
					<g>
						<g>
							<path d="M187,218.1l0.7-1.4c0.2,0.1,0.5,0.3,0.8,0.3c0.4,0,0.7-0.3,0.7-0.7v-3.9h1.8v3.9c0,1.6-0.9,2.3-2.4,2.3
								C188.1,218.6,187.5,218.5,187,218.1z"/>
							<path d="M195.7,218.5l-0.2-0.7h-2.2l-0.2,0.7H191l2.2-6.1h2.3l2.2,6.1H195.7z M194.4,214.2l-0.6,2h1.2L194.4,214.2z"/>
							<path d="M202.2,218.5l-2.2-3.1v3.1h-1.8v-6.1h1.9l2.1,2.9v-2.9h1.8v6.1H202.2z"/>
							<path d="M205,218.5v-6.1h4.6v1.6h-2.8v0.6h2.7v1.6h-2.7v0.7h2.8v1.6H205z"/>
						</g>
						<g>
							<rect x="184" y="209.5" fill="#EEEEEF" width="28.5" height="12.1"/>
						</g>
						<g>
							<path fill="#414143" d="M187,218.1l0.7-1.4c0.2,0.1,0.5,0.3,0.8,0.3c0.4,0,0.7-0.3,0.7-0.7v-3.9h1.8v3.9
								c0,1.6-0.9,2.3-2.4,2.3C188.1,218.6,187.5,218.5,187,218.1z"/>
							<path fill="#414143" d="M195.7,218.5l-0.2-0.7h-2.2l-0.2,0.7H191l2.2-6.1h2.3l2.2,6.1H195.7z M194.4,214.2l-0.6,2h1.2
								L194.4,214.2z"/>
							<path fill="#414143" d="M202.2,218.5l-2.2-3.1v3.1h-1.8v-6.1h1.9l2.1,2.9v-2.9h1.8v6.1H202.2z"/>
							<path fill="#414143" d="M205,218.5v-6.1h4.6v1.6h-2.8v0.6h2.7v1.6h-2.7v0.7h2.8v1.6H205z"/>
						</g>
					</g>
				</g>
			</g>
			<g>
				<g>
					<rect x="7.4" y="267.6" fill="#EEEEEF" width="342.8" height="149.5"/>
					<rect x="7.4" y="274" fill="#C2C2C2" width="342.8" height="143.1"/>
					<polygon opacity="0.2" fill="#5D5D5D" points="350.2,417.1 186.6,417.1 7.4,280.4 350.2,280.4 					"/>
					<rect x="0" y="267.6" fill="#A47B53" width="357.6" height="12.8"/>
					<rect x="239.5" y="190" fill="#5D5D5D" width="100.8" height="59.2"/>
					<g>
						<g opacity="0.1">
							<rect x="283.9" y="208.3" fill="#231F20" width="21.4" height="58.4"/>
						</g>
						<g>
							<rect x="279.2" y="208.3" fill="#5D5D5D" width="21.4" height="58.4"/>
						</g>
					</g>
					<g opacity="0.3">
						<defs>
							<rect id="SVGID_11_" x="7.4" y="280.4" opacity="0.3" width="342.8" height="136.7"/>
						</defs>
						<clipPath id="SVGID_10_">
							<use xlink:href="#SVGID_11_"  overflow="visible"/>
						</clipPath>
					</g>
				</g>
				<g>
					<path fill="#EEEEEF" d="M38.8,326.6l-5.8-9.2l-1.4,1.9v7.2h-7.9v-26h7.9v9.7l6.8-9.7h9.6l-9.8,12.1l10.2,13.9H38.8z"/>
					<path fill="#A47B53" d="M46.8,313.7c0-8,6.2-13.4,14.2-13.4s14.2,5.5,14.2,13.4S69,327.1,61,327.1S46.8,321.6,46.8,313.7z"/>
					<path fill="#A47B53" d="M76.6,313.7c0-8,6.2-13.4,14.2-13.4s14.2,5.5,14.2,13.4s-6.2,13.4-14.2,13.4S76.6,321.6,76.6,313.7z"/>
					<path fill="#EEEEEF" d="M123,326.6l-5.8-9.2l-1.4,1.9v7.2h-7.9v-26h7.9v9.7l6.8-9.7h9.6l-9.8,12.1l10.2,13.9H123z"/>
					<path fill="#EEEEEF" d="M134,326.6v-26h7.9v26H134z"/>
				</g>
			</g>
			<path fill="#414143" d="M190.8,95.4c-7.6,0-13.8,5.8-14.5,13.1h-8.5c-0.7-7.4-7-13.1-14.5-13.1c-8,0-14.6,6.5-14.6,14.6
				s6.5,14.6,14.6,14.6c7.6,0,13.8-5.8,14.5-13.1h8.5c0.7,7.4,7,13.1,14.5,13.1c8,0,14.6-6.5,14.6-14.6S198.8,95.4,190.8,95.4z
				 M153.2,121.6c-6.4,0-11.6-5.2-11.6-11.6s5.2-11.6,11.6-11.6s11.6,5.2,11.6,11.6S159.6,121.6,153.2,121.6z M190.8,121.6
				c-6.4,0-11.6-5.2-11.6-11.6s5.2-11.6,11.6-11.6s11.6,5.2,11.6,11.6S197.2,121.6,190.8,121.6z"/>
		</g>
		<polygon fill="#6E5337" points="58.4,309.4 56.9,309.6 56,308.5 56.5,307.1 58,306.8 59,308 		"/>
		<polygon fill="#6E5337" points="98.2,310.8 96.7,311 95.7,309.9 96.3,308.5 97.7,308.2 98.7,309.4 		"/>
		<polygon fill="#6E5337" points="91.5,316 90,316.2 89,315.1 89.6,313.7 91.1,313.4 92,314.6 		"/>
		<polygon fill="#6E5337" points="55.6,320.2 54.4,320.4 53.6,319.4 54.1,318.2 55.3,318 56.1,319 		"/>
		<polygon fill="#6E5337" points="84.4,313.4 83.2,313.6 82.4,312.7 82.8,311.5 84.1,311.3 84.9,312.3 		"/>
		<polygon fill="#6E5337" points="63.1,314.6 61.8,314.8 61,313.9 61.5,312.7 62.7,312.5 63.5,313.5 		"/>
		<polygon fill="#6E5337" points="94.3,321.4 93,321.6 92.2,320.6 92.7,319.4 93.9,319.2 94.7,320.2 		"/>
	</g>
</g>
<g id="mouth">
	<path fill="#FFFFFF" d="M431.2,31.3c-71,0-130.8,31.7-148.5,74.8l-39.7,7.3l34.7,26.4c5.4,52.8,72.1,94.5,153.6,94.5
		c85,0,153.9-45.4,153.9-101.5C585.1,76.7,516.2,31.3,431.2,31.3z"/>
	<g>
		<path d="M323.1,93.7v6.6h-3.6V83.1h5c2.3,0,4.1,0.4,5.2,1.3s1.7,2.1,1.7,3.9c0,1-0.3,1.9-0.8,2.7s-1.3,1.4-2.4,1.8
			c2.6,3.9,4.3,6.3,5,7.5h-4l-4.1-6.6H323.1z M323.1,90.7h1.2c1.1,0,2-0.2,2.5-0.6s0.8-1,0.8-1.8c0-0.8-0.3-1.4-0.8-1.7
			s-1.4-0.5-2.6-0.5h-1.1V90.7z"/>
		<path d="M343.3,100.3l-0.7-1.8h-0.1c-0.6,0.8-1.2,1.3-1.9,1.6s-1.5,0.4-2.5,0.4c-1.3,0-2.2-0.4-3-1.1s-1.1-1.7-1.1-3.1
			c0-1.4,0.5-2.4,1.5-3.1s2.4-1,4.4-1.1l2.3-0.1v-0.6c0-1.3-0.7-2-2-2c-1,0-2.3,0.3-3.7,0.9l-1.2-2.4c1.5-0.8,3.2-1.2,5-1.2
			c1.8,0,3.1,0.4,4,1.1s1.4,1.9,1.4,3.5v8.7H343.3z M342.3,94.2l-1.4,0c-1,0-1.8,0.2-2.3,0.6s-0.8,0.9-0.8,1.6c0,1,0.6,1.5,1.7,1.5
			c0.8,0,1.5-0.2,2-0.7s0.7-1.1,0.7-1.9V94.2z"/>
		<path d="M349.4,83.8c0-1.2,0.6-1.7,1.9-1.7s1.9,0.6,1.9,1.7c0,0.6-0.2,1-0.5,1.3s-0.8,0.5-1.5,0.5C350,85.5,349.4,84.9,349.4,83.8
			z M353.1,100.3h-3.6V87.2h3.6V100.3z"/>
		<path d="M366,96.4c0,1.3-0.5,2.4-1.4,3.1s-2.3,1.1-4.2,1.1c-1,0-1.8-0.1-2.4-0.2s-1.3-0.3-1.9-0.6v-3c0.7,0.3,1.4,0.6,2.2,0.8
			s1.6,0.3,2.2,0.3c1.3,0,1.9-0.4,1.9-1.1c0-0.3-0.1-0.5-0.3-0.7s-0.5-0.4-0.9-0.6s-1-0.5-1.7-0.8c-1-0.4-1.7-0.8-2.2-1.2
			s-0.8-0.8-1-1.2s-0.3-1-0.3-1.7c0-1.2,0.5-2.1,1.4-2.7s2.2-1,3.8-1c1.6,0,3.1,0.3,4.6,1l-1.1,2.6c-0.7-0.3-1.3-0.5-1.8-0.7
			s-1.2-0.3-1.7-0.3c-1.1,0-1.6,0.3-1.6,0.9c0,0.3,0.2,0.6,0.5,0.8s1.1,0.6,2.2,1c1,0.4,1.8,0.8,2.2,1.2s0.8,0.8,1.1,1.2
			S366,95.7,366,96.4z"/>
		<path d="M368.6,83.8c0-1.2,0.6-1.7,1.9-1.7s1.9,0.6,1.9,1.7c0,0.6-0.2,1-0.5,1.3s-0.8,0.5-1.5,0.5
			C369.3,85.5,368.6,84.9,368.6,83.8z M372.3,100.3h-3.6V87.2h3.6V100.3z"/>
		<path d="M388.2,100.3h-3.6v-7.7c0-0.9-0.2-1.7-0.5-2.1s-0.9-0.7-1.6-0.7c-1,0-1.7,0.3-2.2,1s-0.7,1.8-0.7,3.3v6.2h-3.6V87.2h2.7
			l0.5,1.7h0.2c0.4-0.6,0.9-1.1,1.6-1.4s1.5-0.5,2.4-0.5c1.5,0,2.7,0.4,3.5,1.2s1.2,2,1.2,3.6V100.3z"/>
		<path d="M403.4,100.5c-4.1,0-6.1-2.2-6.1-6.7c0-2.2,0.6-3.9,1.7-5.1s2.7-1.8,4.8-1.8c1.5,0,2.9,0.3,4.1,0.9l-1.1,2.8
			c-0.6-0.2-1.1-0.4-1.6-0.6s-1-0.2-1.5-0.2c-1.9,0-2.8,1.3-2.8,4c0,2.6,0.9,3.8,2.8,3.8c0.7,0,1.3-0.1,1.9-0.3s1.2-0.5,1.8-0.9v3.1
			c-0.6,0.4-1.2,0.6-1.8,0.8S404.3,100.5,403.4,100.5z"/>
		<path d="M422.3,93.7c0,2.1-0.6,3.8-1.7,5s-2.7,1.8-4.7,1.8c-1.3,0-2.4-0.3-3.3-0.8s-1.7-1.3-2.2-2.4s-0.8-2.2-0.8-3.6
			c0-2.1,0.6-3.8,1.7-5s2.7-1.8,4.7-1.8c1.3,0,2.4,0.3,3.3,0.8s1.7,1.3,2.2,2.4S422.3,92.3,422.3,93.7z M413.3,93.7
			c0,1.3,0.2,2.3,0.6,2.9s1.1,1,2.1,1c1,0,1.6-0.3,2.1-1s0.6-1.6,0.6-2.9c0-1.3-0.2-2.3-0.6-2.9s-1.1-1-2.1-1c-1,0-1.6,0.3-2.1,1
			S413.3,92.4,413.3,93.7z"/>
		<path d="M437.2,93.7c0,2.1-0.6,3.8-1.7,5s-2.7,1.8-4.7,1.8c-1.3,0-2.4-0.3-3.3-0.8s-1.7-1.3-2.2-2.4s-0.8-2.2-0.8-3.6
			c0-2.1,0.6-3.8,1.7-5s2.7-1.8,4.7-1.8c1.3,0,2.4,0.3,3.3,0.8s1.7,1.3,2.2,2.4S437.2,92.3,437.2,93.7z M428.1,93.7
			c0,1.3,0.2,2.3,0.6,2.9s1.1,1,2.1,1c1,0,1.6-0.3,2.1-1s0.6-1.6,0.6-2.9c0-1.3-0.2-2.3-0.6-2.9s-1.1-1-2.1-1c-1,0-1.6,0.3-2.1,1
			S428.1,92.4,428.1,93.7z"/>
		<path d="M443.6,93.1l1.6-2l3.7-4h4l-5.2,5.7l5.5,7.4H449l-3.8-5.3l-1.5,1.2v4.1h-3.6V82h3.6v8.1L443.6,93.1L443.6,93.1z"/>
		<path d="M454.9,83.8c0-1.2,0.6-1.7,1.9-1.7s1.9,0.6,1.9,1.7c0,0.6-0.2,1-0.5,1.3s-0.8,0.5-1.5,0.5
			C455.5,85.5,454.9,84.9,454.9,83.8z M458.6,100.3H455V87.2h3.6V100.3z"/>
		<path d="M468.3,100.5c-2.1,0-3.8-0.6-4.9-1.7s-1.8-2.8-1.8-4.9c0-2.2,0.5-3.9,1.6-5.1s2.6-1.8,4.6-1.8c1.9,0,3.3,0.5,4.3,1.6
			s1.5,2.5,1.5,4.4v1.7h-8.4c0,1,0.3,1.8,0.9,2.4s1.4,0.9,2.4,0.9c0.8,0,1.5-0.1,2.2-0.2s1.4-0.4,2.2-0.8v2.8
			c-0.6,0.3-1.3,0.5-2,0.7S469.3,100.5,468.3,100.5z M467.8,89.5c-0.8,0-1.4,0.2-1.8,0.7s-0.7,1.2-0.7,2h5c0-0.9-0.2-1.6-0.7-2
			S468.5,89.5,467.8,89.5z"/>
		<path d="M485.7,96.4c0,1.3-0.5,2.4-1.4,3.1s-2.3,1.1-4.2,1.1c-1,0-1.8-0.1-2.4-0.2s-1.3-0.3-1.9-0.6v-3c0.7,0.3,1.4,0.6,2.2,0.8
			s1.6,0.3,2.2,0.3c1.3,0,1.9-0.4,1.9-1.1c0-0.3-0.1-0.5-0.3-0.7s-0.5-0.4-0.9-0.6s-1-0.5-1.7-0.8c-1-0.4-1.7-0.8-2.2-1.2
			s-0.8-0.8-1-1.2s-0.3-1-0.3-1.7c0-1.2,0.5-2.1,1.4-2.7s2.2-1,3.8-1c1.6,0,3.1,0.3,4.6,1l-1.1,2.6c-0.7-0.3-1.3-0.5-1.8-0.7
			s-1.2-0.3-1.7-0.3c-1.1,0-1.6,0.3-1.6,0.9c0,0.3,0.2,0.6,0.5,0.8s1.1,0.6,2.2,1c1,0.4,1.8,0.8,2.2,1.2s0.8,0.8,1.1,1.2
			S485.7,95.7,485.7,96.4z"/>
		<path d="M500.2,97.6c0.6,0,1.4-0.1,2.2-0.4v2.7c-0.9,0.4-2,0.6-3.3,0.6c-1.4,0-2.5-0.4-3.1-1.1s-1-1.8-1-3.3v-6.3h-1.7v-1.5l2-1.2
			l1-2.8h2.3v2.8h3.7v2.7h-3.7v6.3c0,0.5,0.1,0.9,0.4,1.1S499.8,97.6,500.2,97.6z"/>
		<path d="M517.2,100.3h-3.6v-7.7c0-1.9-0.7-2.8-2.1-2.8c-1,0-1.7,0.3-2.2,1s-0.7,1.8-0.7,3.3v6.2h-3.6V82h3.6v3.7c0,0.3,0,1-0.1,2
			l-0.1,1.1h0.2c0.8-1.3,2.1-1.9,3.8-1.9c1.5,0,2.7,0.4,3.5,1.2s1.2,2,1.2,3.6V100.3z"/>
		<path d="M529.2,100.3l-0.7-1.8h-0.1c-0.6,0.8-1.2,1.3-1.9,1.6s-1.5,0.4-2.5,0.4c-1.3,0-2.2-0.4-3-1.1s-1.1-1.7-1.1-3.1
			c0-1.4,0.5-2.4,1.5-3.1s2.4-1,4.4-1.1l2.3-0.1v-0.6c0-1.3-0.7-2-2-2c-1,0-2.3,0.3-3.7,0.9l-1.2-2.4c1.5-0.8,3.2-1.2,5-1.2
			c1.8,0,3.1,0.4,4,1.1s1.4,1.9,1.4,3.5v8.7H529.2z M528.2,94.2l-1.4,0c-1,0-1.8,0.2-2.3,0.6s-0.8,0.9-0.8,1.6c0,1,0.6,1.5,1.7,1.5
			c0.8,0,1.5-0.2,2-0.7s0.7-1.1,0.7-1.9V94.2z"/>
		<path d="M540.9,97.6c0.6,0,1.4-0.1,2.2-0.4v2.7c-0.9,0.4-2,0.6-3.3,0.6c-1.4,0-2.5-0.4-3.1-1.1s-1-1.8-1-3.3v-6.3h-1.7v-1.5l2-1.2
			l1-2.8h2.3v2.8h3.7v2.7h-3.7v6.3c0,0.5,0.1,0.9,0.4,1.1S540.4,97.6,540.9,97.6z"/>
		<path d="M325.2,129.1h-3.6v-18.2h3.6V129.1z"/>
		<path d="M340.8,122.5c0,2.1-0.6,3.8-1.7,5s-2.7,1.8-4.7,1.8c-1.3,0-2.4-0.3-3.3-0.8s-1.7-1.3-2.2-2.4s-0.8-2.2-0.8-3.6
			c0-2.1,0.6-3.8,1.7-5s2.7-1.8,4.7-1.8c1.3,0,2.4,0.3,3.3,0.8s1.7,1.3,2.2,2.4S340.8,121.1,340.8,122.5z M331.8,122.5
			c0,1.3,0.2,2.3,0.6,2.9s1.1,1,2.1,1c1,0,1.6-0.3,2.1-1s0.6-1.6,0.6-2.9c0-1.3-0.2-2.3-0.6-2.9s-1.1-1-2.1-1c-1,0-1.6,0.3-2.1,1
			S331.8,121.2,331.8,122.5z"/>
		<path d="M355.7,122.5c0,2.1-0.6,3.8-1.7,5s-2.7,1.8-4.7,1.8c-1.3,0-2.4-0.3-3.3-0.8s-1.7-1.3-2.2-2.4s-0.8-2.2-0.8-3.6
			c0-2.1,0.6-3.8,1.7-5s2.7-1.8,4.7-1.8c1.3,0,2.4,0.3,3.3,0.8s1.7,1.3,2.2,2.4S355.7,121.1,355.7,122.5z M346.6,122.5
			c0,1.3,0.2,2.3,0.6,2.9s1.1,1,2.1,1c1,0,1.6-0.3,2.1-1s0.6-1.6,0.6-2.9c0-1.3-0.2-2.3-0.6-2.9s-1.1-1-2.1-1c-1,0-1.6,0.3-2.1,1
			S346.6,121.2,346.6,122.5z"/>
		<path d="M362.1,121.9l1.6-2l3.7-4h4l-5.2,5.7l5.5,7.4h-4.1l-3.8-5.3l-1.5,1.2v4.1h-3.6v-18.2h3.6v8.1L362.1,121.9L362.1,121.9z"/>
		<path d="M383.3,129.1h-3.6v-18.2h3.6V129.1z"/>
		<path d="M386.9,112.6c0-1.2,0.6-1.7,1.9-1.7s1.9,0.6,1.9,1.7c0,0.6-0.2,1-0.5,1.3s-0.8,0.5-1.5,0.5
			C387.6,114.3,386.9,113.7,386.9,112.6z M390.7,129.1h-3.6V116h3.6V129.1z"/>
		<path d="M397.8,121.9l1.6-2l3.7-4h4l-5.2,5.7l5.5,7.4h-4.1l-3.8-5.3L398,125v4.1h-3.6v-18.2h3.6v8.1L397.8,121.9L397.8,121.9z"/>
		<path d="M415.2,129.3c-2.1,0-3.8-0.6-4.9-1.7s-1.8-2.8-1.8-4.9c0-2.2,0.5-3.9,1.6-5.1s2.6-1.8,4.6-1.8c1.9,0,3.3,0.5,4.3,1.6
			s1.5,2.5,1.5,4.4v1.7h-8.4c0,1,0.3,1.8,0.9,2.4s1.4,0.9,2.4,0.9c0.8,0,1.5-0.1,2.2-0.2s1.4-0.4,2.2-0.8v2.8
			c-0.6,0.3-1.3,0.5-2,0.7S416.2,129.3,415.2,129.3z M414.7,118.3c-0.8,0-1.4,0.2-1.8,0.7s-0.7,1.2-0.7,2h5c0-0.9-0.2-1.6-0.7-2
			S415.5,118.3,414.7,118.3z"/>
		<path d="M435,129.3c-4.1,0-6.1-2.2-6.1-6.7c0-2.2,0.6-3.9,1.7-5.1s2.7-1.8,4.8-1.8c1.5,0,2.9,0.3,4.1,0.9l-1.1,2.8
			c-0.6-0.2-1.1-0.4-1.6-0.6s-1-0.2-1.5-0.2c-1.9,0-2.8,1.3-2.8,4c0,2.6,0.9,3.8,2.8,3.8c0.7,0,1.3-0.1,1.9-0.3s1.2-0.5,1.8-0.9v3.1
			c-0.6,0.4-1.2,0.6-1.8,0.8S435.9,129.3,435,129.3z"/>
		<path d="M454.1,129.1h-3.6v-7.7c0-1.9-0.7-2.8-2.1-2.8c-1,0-1.7,0.3-2.2,1s-0.7,1.8-0.7,3.3v6.2H442v-18.2h3.6v3.7
			c0,0.3,0,1-0.1,2l-0.1,1.1h0.2c0.8-1.3,2.1-1.9,3.8-1.9c1.5,0,2.7,0.4,3.5,1.2s1.2,2,1.2,3.6V129.1z"/>
		<path d="M469.7,122.5c0,2.1-0.6,3.8-1.7,5s-2.7,1.8-4.7,1.8c-1.3,0-2.4-0.3-3.3-0.8s-1.7-1.3-2.2-2.4s-0.8-2.2-0.8-3.6
			c0-2.1,0.6-3.8,1.7-5s2.7-1.8,4.7-1.8c1.3,0,2.4,0.3,3.3,0.8s1.7,1.3,2.2,2.4S469.7,121.1,469.7,122.5z M460.7,122.5
			c0,1.3,0.2,2.3,0.6,2.9s1.1,1,2.1,1c1,0,1.6-0.3,2.1-1s0.6-1.6,0.6-2.9c0-1.3-0.2-2.3-0.6-2.9s-1.1-1-2.1-1c-1,0-1.6,0.3-2.1,1
			S460.7,121.2,460.7,122.5z"/>
		<path d="M478,129.3c-4.1,0-6.1-2.2-6.1-6.7c0-2.2,0.6-3.9,1.7-5.1s2.7-1.8,4.8-1.8c1.5,0,2.9,0.3,4.1,0.9l-1.1,2.8
			c-0.6-0.2-1.1-0.4-1.6-0.6s-1-0.2-1.5-0.2c-1.9,0-2.8,1.3-2.8,4c0,2.6,0.9,3.8,2.8,3.8c0.7,0,1.3-0.1,1.9-0.3s1.2-0.5,1.8-0.9v3.1
			c-0.6,0.4-1.2,0.6-1.8,0.8S478.9,129.3,478,129.3z"/>
		<path d="M483.9,124.1v-2.9h6.3v2.9H483.9z"/>
		<path d="M498.1,129.3c-4.1,0-6.1-2.2-6.1-6.7c0-2.2,0.6-3.9,1.7-5.1s2.7-1.8,4.8-1.8c1.5,0,2.9,0.3,4.1,0.9l-1.1,2.8
			c-0.6-0.2-1.1-0.4-1.6-0.6s-1-0.2-1.5-0.2c-1.9,0-2.8,1.3-2.8,4c0,2.6,0.9,3.8,2.8,3.8c0.7,0,1.3-0.1,1.9-0.3s1.2-0.5,1.8-0.9v3.1
			c-0.6,0.4-1.2,0.6-1.8,0.8S499,129.3,498.1,129.3z"/>
		<path d="M517.2,129.1h-3.6v-7.7c0-1.9-0.7-2.8-2.1-2.8c-1,0-1.7,0.3-2.2,1s-0.7,1.8-0.7,3.3v6.2h-3.6v-18.2h3.6v3.7
			c0,0.3,0,1-0.1,2l-0.1,1.1h0.2c0.8-1.3,2.1-1.9,3.8-1.9c1.5,0,2.7,0.4,3.5,1.2s1.2,2,1.2,3.6V129.1z"/>
		<path d="M520.7,112.6c0-1.2,0.6-1.7,1.9-1.7s1.9,0.6,1.9,1.7c0,0.6-0.2,1-0.5,1.3s-0.8,0.5-1.5,0.5
			C521.4,114.3,520.7,113.7,520.7,112.6z M524.4,129.1h-3.6V116h3.6V129.1z"/>
		<path d="M535.4,129.3c-1.5,0-2.7-0.6-3.6-1.7h-0.2c0.1,1.1,0.2,1.7,0.2,1.9v5.3h-3.6V116h2.9l0.5,1.7h0.2c0.8-1.3,2.1-1.9,3.7-1.9
			c1.5,0,2.8,0.6,3.6,1.8s1.3,2.9,1.3,5c0,1.4-0.2,2.6-0.6,3.6s-1,1.8-1.8,2.4S536.4,129.3,535.4,129.3z M534.3,118.6
			c-0.9,0-1.5,0.3-1.9,0.8s-0.6,1.4-0.6,2.7v0.4c0,1.4,0.2,2.4,0.6,3s1.1,0.9,2,0.9c1.6,0,2.4-1.3,2.4-4c0-1.3-0.2-2.3-0.6-2.9
			S535.2,118.6,534.3,118.6z"/>
		<path d="M334.5,158.1c-4.1,0-6.1-2.2-6.1-6.7c0-2.2,0.6-3.9,1.7-5.1s2.7-1.8,4.8-1.8c1.5,0,2.9,0.3,4.1,0.9l-1.1,2.8
			c-0.6-0.2-1.1-0.4-1.6-0.6s-1-0.2-1.5-0.2c-1.9,0-2.8,1.3-2.8,4c0,2.6,0.9,3.8,2.8,3.8c0.7,0,1.3-0.1,1.9-0.3s1.2-0.5,1.8-0.9v3.1
			c-0.6,0.4-1.2,0.6-1.8,0.8S335.4,158.1,334.5,158.1z"/>
		<path d="M353.4,151.3c0,2.1-0.6,3.8-1.7,5s-2.7,1.8-4.7,1.8c-1.3,0-2.4-0.3-3.3-0.8s-1.7-1.3-2.2-2.4s-0.8-2.2-0.8-3.6
			c0-2.1,0.6-3.8,1.7-5s2.7-1.8,4.7-1.8c1.3,0,2.4,0.3,3.3,0.8s1.7,1.3,2.2,2.4S353.4,149.9,353.4,151.3z M344.4,151.3
			c0,1.3,0.2,2.3,0.6,2.9s1.1,1,2.1,1c1,0,1.6-0.3,2.1-1s0.6-1.6,0.6-2.9c0-1.3-0.2-2.3-0.6-2.9s-1.1-1-2.1-1c-1,0-1.6,0.3-2.1,1
			S344.4,150,344.4,151.3z"/>
		<path d="M368.3,151.3c0,2.1-0.6,3.8-1.7,5s-2.7,1.8-4.7,1.8c-1.3,0-2.4-0.3-3.3-0.8s-1.7-1.3-2.2-2.4s-0.8-2.2-0.8-3.6
			c0-2.1,0.6-3.8,1.7-5s2.7-1.8,4.7-1.8c1.3,0,2.4,0.3,3.3,0.8s1.7,1.3,2.2,2.4S368.3,149.9,368.3,151.3z M359.2,151.3
			c0,1.3,0.2,2.3,0.6,2.9s1.1,1,2.1,1c1,0,1.6-0.3,2.1-1s0.6-1.6,0.6-2.9c0-1.3-0.2-2.3-0.6-2.9s-1.1-1-2.1-1c-1,0-1.6,0.3-2.1,1
			S359.2,150,359.2,151.3z"/>
		<path d="M374.7,150.7l1.6-2l3.7-4h4l-5.2,5.7l5.5,7.4h-4.1l-3.8-5.3l-1.5,1.2v4.1h-3.6v-18.2h3.6v8.1L374.7,150.7L374.7,150.7z"/>
		<path d="M386,141.4c0-1.2,0.6-1.7,1.9-1.7s1.9,0.6,1.9,1.7c0,0.6-0.2,1-0.5,1.3s-0.8,0.5-1.5,0.5C386.6,143.1,386,142.5,386,141.4
			z M389.7,157.9h-3.6v-13.1h3.6V157.9z"/>
		<path d="M399.4,158.1c-2.1,0-3.8-0.6-4.9-1.7s-1.8-2.8-1.8-4.9c0-2.2,0.5-3.9,1.6-5.1s2.6-1.8,4.6-1.8c1.9,0,3.3,0.5,4.3,1.6
			s1.5,2.5,1.5,4.4v1.7h-8.4c0,1,0.3,1.8,0.9,2.4s1.4,0.9,2.4,0.9c0.8,0,1.5-0.1,2.2-0.2s1.4-0.4,2.2-0.8v2.8
			c-0.6,0.3-1.3,0.5-2,0.7S400.4,158.1,399.4,158.1z M398.9,147.1c-0.8,0-1.4,0.2-1.8,0.7s-0.7,1.2-0.7,2h5c0-0.9-0.2-1.6-0.7-2
			S399.7,147.1,398.9,147.1z"/>
		<path d="M416.8,154c0,1.3-0.5,2.4-1.4,3.1s-2.3,1.1-4.2,1.1c-1,0-1.8-0.1-2.4-0.2s-1.3-0.3-1.9-0.6v-3c0.7,0.3,1.4,0.6,2.2,0.8
			s1.6,0.3,2.2,0.3c1.3,0,1.9-0.4,1.9-1.1c0-0.3-0.1-0.5-0.3-0.7s-0.5-0.4-0.9-0.6s-1-0.5-1.7-0.8c-1-0.4-1.7-0.8-2.2-1.2
			s-0.8-0.8-1-1.2s-0.3-1-0.3-1.7c0-1.2,0.5-2.1,1.4-2.7s2.2-1,3.8-1c1.6,0,3.1,0.3,4.6,1l-1.1,2.6c-0.7-0.3-1.3-0.5-1.8-0.7
			s-1.2-0.3-1.7-0.3c-1.1,0-1.6,0.3-1.6,0.9c0,0.3,0.2,0.6,0.5,0.8s1.1,0.6,2.2,1c1,0.4,1.8,0.8,2.2,1.2s0.8,0.8,1.1,1.2
			S416.8,153.3,416.8,154z"/>
		<path d="M434.1,157.9l-0.7-1.8h-0.1c-0.6,0.8-1.2,1.3-1.9,1.6s-1.5,0.4-2.5,0.4c-1.3,0-2.2-0.4-3-1.1s-1.1-1.7-1.1-3.1
			c0-1.4,0.5-2.4,1.5-3.1s2.4-1,4.4-1.1l2.3-0.1v-0.6c0-1.3-0.7-2-2-2c-1,0-2.3,0.3-3.7,0.9l-1.2-2.4c1.5-0.8,3.2-1.2,5-1.2
			c1.8,0,3.1,0.4,4,1.1s1.4,1.9,1.4,3.5v8.7H434.1z M433.1,151.8l-1.4,0c-1,0-1.8,0.2-2.3,0.6s-0.8,0.9-0.8,1.6c0,1,0.6,1.5,1.7,1.5
			c0.8,0,1.5-0.2,2-0.7s0.7-1.1,0.7-1.9V151.8z"/>
		<path d="M447.6,144.5c0.5,0,0.9,0,1.2,0.1l-0.3,3.4c-0.3-0.1-0.6-0.1-1.1-0.1c-1.1,0-2,0.3-2.7,0.9s-1,1.4-1,2.5v6.7h-3.6v-13.1
			h2.7l0.5,2.2h0.2c0.4-0.7,1-1.3,1.6-1.8S446.8,144.5,447.6,144.5z"/>
		<path d="M457.1,158.1c-2.1,0-3.8-0.6-4.9-1.7s-1.8-2.8-1.8-4.9c0-2.2,0.5-3.9,1.6-5.1s2.6-1.8,4.6-1.8c1.9,0,3.3,0.5,4.3,1.6
			s1.5,2.5,1.5,4.4v1.7H454c0,1,0.3,1.8,0.9,2.4s1.4,0.9,2.4,0.9c0.8,0,1.5-0.1,2.2-0.2s1.4-0.4,2.2-0.8v2.8c-0.6,0.3-1.3,0.5-2,0.7
			S458.2,158.1,457.1,158.1z M456.6,147.1c-0.8,0-1.4,0.2-1.8,0.7s-0.7,1.2-0.7,2h5c0-0.9-0.2-1.6-0.7-2S457.4,147.1,456.6,147.1z"
			/>
		<path d="M482.4,157.9l-1-4.6l-1.4-5.8h-0.1l-2.4,10.4h-3.8l-3.7-13.1h3.6l1.5,5.8c0.2,1,0.5,2.5,0.7,4.3h0.1
			c0-0.6,0.2-1.5,0.4-2.8l0.2-1l1.6-6.3h3.9l1.5,6.3c0,0.2,0.1,0.4,0.1,0.8s0.1,0.7,0.2,1.1s0.1,0.8,0.2,1.1s0.1,0.7,0.1,0.9h0.1
			c0.1-0.6,0.2-1.3,0.4-2.3s0.3-1.6,0.4-2l1.6-5.8h3.5l-3.8,13.1H482.4z"/>
		<path d="M504.3,157.9h-3.6v-7.7c0-1.9-0.7-2.8-2.1-2.8c-1,0-1.7,0.3-2.2,1s-0.7,1.8-0.7,3.3v6.2h-3.6v-18.2h3.6v3.7
			c0,0.3,0,1-0.1,2l-0.1,1.1h0.2c0.8-1.3,2.1-1.9,3.8-1.9c1.5,0,2.7,0.4,3.5,1.2s1.2,2,1.2,3.6V157.9z"/>
		<path d="M506.1,144.8h3.9l2.5,7.4c0.2,0.6,0.4,1.4,0.4,2.3h0.1c0.1-0.8,0.3-1.6,0.5-2.3l2.4-7.4h3.8l-5.5,14.8
			c-0.5,1.4-1.2,2.4-2.2,3.1c-0.9,0.7-2,1-3.3,1c-0.6,0-1.2-0.1-1.8-0.2v-2.8c0.4,0.1,0.9,0.2,1.4,0.2c0.6,0,1.2-0.2,1.7-0.6
			s0.8-1,1.1-1.8l0.2-0.6L506.1,144.8z"/>
		<path d="M528.1,157.9v-17.1h3.6v17.1H528.1z"/>
		<path d="M339.6,186.7H336V179c0-1.9-0.7-2.8-2.1-2.8c-1,0-1.7,0.3-2.2,1s-0.7,1.8-0.7,3.3v6.2h-3.6v-18.2h3.6v3.7c0,0.3,0,1-0.1,2
			l-0.1,1.1h0.2c0.8-1.3,2.1-1.9,3.8-1.9c1.5,0,2.7,0.4,3.5,1.2s1.2,2,1.2,3.6V186.7z"/>
		<path d="M351.6,186.7l-0.7-1.8h-0.1c-0.6,0.8-1.2,1.3-1.9,1.6s-1.5,0.4-2.5,0.4c-1.3,0-2.2-0.4-3-1.1s-1.1-1.7-1.1-3.1
			c0-1.4,0.5-2.4,1.5-3.1s2.4-1,4.4-1.1l2.3-0.1v-0.6c0-1.3-0.7-2-2-2c-1,0-2.3,0.3-3.7,0.9l-1.2-2.4c1.5-0.8,3.2-1.2,5-1.2
			c1.8,0,3.1,0.4,4,1.1s1.4,1.9,1.4,3.5v8.7H351.6z M350.6,180.6l-1.4,0c-1,0-1.8,0.2-2.3,0.6s-0.8,0.9-0.8,1.6c0,1,0.6,1.5,1.7,1.5
			c0.8,0,1.5-0.2,2-0.7s0.7-1.1,0.7-1.9V180.6z"/>
		<path d="M360.9,186.7l-5-13.1h3.7l2.5,7.5c0.3,0.9,0.5,1.8,0.5,2.7h0.1c0-0.8,0.2-1.6,0.5-2.7l2.5-7.5h3.7l-5,13.1H360.9z"/>
		<path d="M377.4,186.9c-2.1,0-3.8-0.6-4.9-1.7s-1.8-2.8-1.8-4.9c0-2.2,0.5-3.9,1.6-5.1s2.6-1.8,4.6-1.8c1.9,0,3.3,0.5,4.3,1.6
			s1.5,2.5,1.5,4.4v1.7h-8.4c0,1,0.3,1.8,0.9,2.4s1.4,0.9,2.4,0.9c0.8,0,1.5-0.1,2.2-0.2s1.4-0.4,2.2-0.8v2.8
			c-0.6,0.3-1.3,0.5-2,0.7S378.4,186.9,377.4,186.9z M376.9,175.9c-0.8,0-1.4,0.2-1.8,0.7s-0.7,1.2-0.7,2h5c0-0.9-0.2-1.6-0.7-2
			S377.6,175.9,376.9,175.9z"/>
		<path d="M397.4,184.1c0.6,0,1.4-0.1,2.2-0.4v2.7c-0.9,0.4-2,0.6-3.3,0.6c-1.4,0-2.5-0.4-3.1-1.1s-1-1.8-1-3.3v-6.3h-1.7v-1.5
			l2-1.2l1-2.8h2.3v2.8h3.7v2.7h-3.7v6.3c0,0.5,0.1,0.9,0.4,1.1S396.9,184.1,397.4,184.1z"/>
		<path d="M409.6,173.3c0.5,0,0.9,0,1.2,0.1l-0.3,3.4c-0.3-0.1-0.6-0.1-1.1-0.1c-1.1,0-2,0.3-2.7,0.9s-1,1.4-1,2.5v6.7h-3.6v-13.1
			h2.7l0.5,2.2h0.2c0.4-0.7,1-1.3,1.6-1.8S408.8,173.3,409.6,173.3z"/>
		<path d="M422.5,186.7L422,185h-0.2c-0.4,0.6-0.9,1.1-1.6,1.4s-1.5,0.5-2.4,0.5c-1.5,0-2.7-0.4-3.5-1.2s-1.2-2-1.2-3.6v-8.5h3.6
			v7.7c0,0.9,0.2,1.7,0.5,2.1s0.9,0.7,1.6,0.7c1,0,1.7-0.3,2.2-1s0.7-1.8,0.7-3.3v-6.2h3.6v13.1H422.5z"/>
		<path d="M438.1,182.8c0,1.3-0.5,2.4-1.4,3.1s-2.3,1.1-4.2,1.1c-1,0-1.8-0.1-2.4-0.2s-1.3-0.3-1.9-0.6v-3c0.7,0.3,1.4,0.6,2.2,0.8
			s1.6,0.3,2.2,0.3c1.3,0,1.9-0.4,1.9-1.1c0-0.3-0.1-0.5-0.3-0.7s-0.5-0.4-0.9-0.6s-1-0.5-1.7-0.8c-1-0.4-1.7-0.8-2.2-1.2
			s-0.8-0.8-1-1.2s-0.3-1-0.3-1.7c0-1.2,0.5-2.1,1.4-2.7s2.2-1,3.8-1c1.6,0,3.1,0.3,4.6,1l-1.1,2.6c-0.7-0.3-1.3-0.5-1.8-0.7
			s-1.2-0.3-1.7-0.3c-1.1,0-1.6,0.3-1.6,0.9c0,0.3,0.2,0.6,0.5,0.8s1.1,0.6,2.2,1c1,0.4,1.8,0.8,2.2,1.2s0.8,0.8,1.1,1.2
			S438.1,182.1,438.1,182.8z"/>
		<path d="M446.4,184.1c0.6,0,1.4-0.1,2.2-0.4v2.7c-0.9,0.4-2,0.6-3.3,0.6c-1.4,0-2.5-0.4-3.1-1.1s-1-1.8-1-3.3v-6.3h-1.7v-1.5
			l2-1.2l1-2.8h2.3v2.8h3.7v2.7h-3.7v6.3c0,0.5,0.1,0.9,0.4,1.1S445.9,184.1,446.4,184.1z"/>
		<path d="M457.4,170.2c0-1.2,0.6-1.7,1.9-1.7s1.9,0.6,1.9,1.7c0,0.6-0.2,1-0.5,1.3s-0.8,0.5-1.5,0.5
			C458,171.9,457.4,171.3,457.4,170.2z M461.1,186.7h-3.6v-13.1h3.6V186.7z"/>
		<path d="M474,182.8c0,1.3-0.5,2.4-1.4,3.1s-2.3,1.1-4.2,1.1c-1,0-1.8-0.1-2.4-0.2s-1.3-0.3-1.9-0.6v-3c0.7,0.3,1.4,0.6,2.2,0.8
			s1.6,0.3,2.2,0.3c1.3,0,1.9-0.4,1.9-1.1c0-0.3-0.1-0.5-0.3-0.7s-0.5-0.4-0.9-0.6s-1-0.5-1.7-0.8c-1-0.4-1.7-0.8-2.2-1.2
			s-0.8-0.8-1-1.2s-0.3-1-0.3-1.7c0-1.2,0.5-2.1,1.4-2.7s2.2-1,3.8-1c1.6,0,3.1,0.3,4.6,1l-1.1,2.6c-0.7-0.3-1.3-0.5-1.8-0.7
			s-1.2-0.3-1.7-0.3c-1.1,0-1.6,0.3-1.6,0.9c0,0.3,0.2,0.6,0.5,0.8s1.1,0.6,2.2,1c1,0.4,1.8,0.8,2.2,1.2s0.8,0.8,1.1,1.2
			S474,182.1,474,182.8z"/>
		<path d="M485.9,182.8c0,1.3-0.5,2.4-1.4,3.1s-2.3,1.1-4.2,1.1c-1,0-1.8-0.1-2.4-0.2s-1.3-0.3-1.9-0.6v-3c0.7,0.3,1.4,0.6,2.2,0.8
			s1.6,0.3,2.2,0.3c1.3,0,1.9-0.4,1.9-1.1c0-0.3-0.1-0.5-0.3-0.7s-0.5-0.4-0.9-0.6s-1-0.5-1.7-0.8c-1-0.4-1.7-0.8-2.2-1.2
			s-0.8-0.8-1-1.2s-0.3-1-0.3-1.7c0-1.2,0.5-2.1,1.4-2.7s2.2-1,3.8-1c1.6,0,3.1,0.3,4.6,1l-1.1,2.6c-0.7-0.3-1.3-0.5-1.8-0.7
			s-1.2-0.3-1.7-0.3c-1.1,0-1.6,0.3-1.6,0.9c0,0.3,0.2,0.6,0.5,0.8s1.1,0.6,2.2,1c1,0.4,1.8,0.8,2.2,1.2s0.8,0.8,1.1,1.2
			S485.9,182.1,485.9,182.8z"/>
		<path d="M498,186.7l-0.5-1.7h-0.2c-0.4,0.6-0.9,1.1-1.6,1.4s-1.5,0.5-2.4,0.5c-1.5,0-2.7-0.4-3.5-1.2s-1.2-2-1.2-3.6v-8.5h3.6v7.7
			c0,0.9,0.2,1.7,0.5,2.1s0.9,0.7,1.6,0.7c1,0,1.7-0.3,2.2-1s0.7-1.8,0.7-3.3v-6.2h3.6v13.1H498z"/>
		<path d="M510.4,186.9c-2.1,0-3.8-0.6-4.9-1.7s-1.8-2.8-1.8-4.9c0-2.2,0.5-3.9,1.6-5.1s2.6-1.8,4.6-1.8c1.9,0,3.3,0.5,4.3,1.6
			s1.5,2.5,1.5,4.4v1.7h-8.4c0,1,0.3,1.8,0.9,2.4s1.4,0.9,2.4,0.9c0.8,0,1.5-0.1,2.2-0.2s1.4-0.4,2.2-0.8v2.8
			c-0.6,0.3-1.3,0.5-2,0.7S511.4,186.9,510.4,186.9z M509.9,175.9c-0.8,0-1.4,0.2-1.8,0.7s-0.7,1.2-0.7,2h5c0-0.9-0.2-1.6-0.7-2
			C511.3,176.1,510.7,175.9,509.9,175.9z"/>
		<path d="M527.8,182.8c0,1.3-0.5,2.4-1.4,3.1s-2.3,1.1-4.2,1.1c-1,0-1.8-0.1-2.4-0.2s-1.3-0.3-1.9-0.6v-3c0.7,0.3,1.4,0.6,2.2,0.8
			s1.6,0.3,2.2,0.3c1.3,0,1.9-0.4,1.9-1.1c0-0.3-0.1-0.5-0.3-0.7s-0.5-0.4-0.9-0.6s-1-0.5-1.7-0.8c-1-0.4-1.7-0.8-2.2-1.2
			s-0.8-0.8-1-1.2s-0.3-1-0.3-1.7c0-1.2,0.5-2.1,1.4-2.7s2.2-1,3.8-1c1.6,0,3.1,0.3,4.6,1l-1.1,2.6c-0.7-0.3-1.3-0.5-1.8-0.7
			s-1.2-0.3-1.7-0.3c-1.1,0-1.6,0.3-1.6,0.9c0,0.3,0.2,0.6,0.5,0.8s1.1,0.6,2.2,1c1,0.4,1.8,0.8,2.2,1.2s0.8,0.8,1.1,1.2
			S527.8,182.1,527.8,182.8z"/>
		<path d="M530.1,185c0-0.7,0.2-1.2,0.5-1.5s0.9-0.5,1.5-0.5c0.6,0,1.2,0.2,1.5,0.5s0.5,0.8,0.5,1.5c0,0.6-0.2,1.1-0.5,1.5
			s-0.9,0.5-1.5,0.5c-0.7,0-1.2-0.2-1.5-0.5S530.1,185.6,530.1,185z"/>
	</g>
</g>
</svg>
