<?xml version="1.0" encoding="utf-8"?>
<!-- Generator: Adobe Illustrator 17.1.0, SVG Export Plug-In . SVG Version: 6.00 Build 0)  -->
<!DOCTYPE svg PUBLIC "-//W3C//DTD SVG 1.1//EN" "http://www.w3.org/Graphics/SVG/1.1/DTD/svg11.dtd">
<svg version="1.1" xmlns="http://www.w3.org/2000/svg" xmlns:xlink="http://www.w3.org/1999/xlink" x="0px" y="0px"
	 viewBox="0 0 544.8 500" enable-background="new 0 0 544.8 500" xml:space="preserve">
<pattern  x="-1123.5" y="-3533.6" width="118" height="118" patternUnits="userSpaceOnUse" id="vertical2" viewBox="118.2 -236.1 118 118" overflow="visible">
	<g>
		<polygon fill="none" points="118.2,-236.1 236.2,-236.1 236.2,-118.1 118.2,-118.1 		"/>
		<g>
			<polygon fill="#FFFFFF" points="354.5,0 236,0 236,-118.5 354.5,-118.5 			"/>
		</g>
		<g>
			<polygon fill="#FFFFFF" points="236.5,0 118,0 118,-118.5 236.5,-118.5 			"/>
			<line fill="none" stroke="#ABDAF3" stroke-miterlimit="10" x1="177.2" y1="-118.5" x2="177.2" y2="0"/>
			<line fill="none" stroke="#ABDAF3" stroke-miterlimit="10" x1="207.6" y1="-118.5" x2="207.6" y2="0"/>
			<line fill="none" stroke="#ABDAF3" stroke-miterlimit="10" x1="236.2" y1="-118.5" x2="236.2" y2="0"/>
			<line fill="none" stroke="#ABDAF3" stroke-miterlimit="10" x1="146.9" y1="-118.5" x2="146.9" y2="0"/>
		</g>
		<g>
			<polygon fill="#FFFFFF" points="118.5,0 0,0 0,-118.5 118.5,-118.5 			"/>
			<line fill="none" stroke="#ABDAF3" stroke-miterlimit="10" x1="118.2" y1="-118.5" x2="118.2" y2="0"/>
		</g>
		<g>
			<polygon fill="#FFFFFF" points="354.5,-118 236,-118 236,-236.5 354.5,-236.5 			"/>
		</g>
		<g>
			<polygon fill="#FFFFFF" points="236.5,-118 118,-118 118,-236.5 236.5,-236.5 			"/>
			<line fill="none" stroke="#ABDAF3" stroke-miterlimit="10" x1="177.2" y1="-236.5" x2="177.2" y2="-118"/>
			<line fill="none" stroke="#ABDAF3" stroke-miterlimit="10" x1="207.6" y1="-236.5" x2="207.6" y2="-118"/>
			<line fill="none" stroke="#ABDAF3" stroke-miterlimit="10" x1="236.2" y1="-236.5" x2="236.2" y2="-118"/>
			<line fill="none" stroke="#ABDAF3" stroke-miterlimit="10" x1="146.9" y1="-236.5" x2="146.9" y2="-118"/>
		</g>
		<g>
			<polygon fill="#FFFFFF" points="118.5,-118 0,-118 0,-236.5 118.5,-236.5 			"/>
			<line fill="none" stroke="#ABDAF3" stroke-miterlimit="10" x1="118.2" y1="-236.5" x2="118.2" y2="-118"/>
		</g>
		<g>
			<polygon fill="#FFFFFF" points="354.5,-236 236,-236 236,-354.5 354.5,-354.5 			"/>
		</g>
		<g>
			<polygon fill="#FFFFFF" points="236.5,-236 118,-236 118,-354.5 236.5,-354.5 			"/>
			<line fill="none" stroke="#ABDAF3" stroke-miterlimit="10" x1="177.2" y1="-354.5" x2="177.2" y2="-236"/>
			<line fill="none" stroke="#ABDAF3" stroke-miterlimit="10" x1="207.6" y1="-354.5" x2="207.6" y2="-236"/>
			<line fill="none" stroke="#ABDAF3" stroke-miterlimit="10" x1="236.2" y1="-354.5" x2="236.2" y2="-236"/>
			<line fill="none" stroke="#ABDAF3" stroke-miterlimit="10" x1="146.9" y1="-354.5" x2="146.9" y2="-236"/>
		</g>
		<g>
			<polygon fill="#FFFFFF" points="118.5,-236 0,-236 0,-354.5 118.5,-354.5 			"/>
			<line fill="none" stroke="#ABDAF3" stroke-miterlimit="10" x1="118.2" y1="-354.5" x2="118.2" y2="-236"/>
		</g>
	</g>
</pattern>
<g id="BG">
</g>
<g id="Layer_1">
</g>
<g id="LAYOUTS">
</g>
<g id="arm">
</g>
<g id="legs">
</g>
<g id="shirt">
</g>
<g id="Head">
</g>
<g id="eyebrow">
</g>
<g id="eyes">
</g>
<g id="tacotruck">
</g>
<g id="mouth">
	<g>
		<g>
			<g>
				<circle fill="#EEEEEF" stroke="#D4D4D4" stroke-width="1.1531" stroke-miterlimit="10" cx="208.1" cy="160.6" r="30.1"/>
				<path fill="#EEEEEF" stroke="#D4D4D4" stroke-width="1.1531" stroke-miterlimit="10" d="M221.4,349.7H192
					c-13.5,0-24.5-11-24.5-24.5V223.5c0-13.5,11-24.5,24.5-24.5h29.4c13.5,0,24.5,11,24.5,24.5v101.7
					C245.9,338.8,235,349.7,221.4,349.7z"/>
			</g>
			<g>
				<circle fill="#EEEEEF" stroke="#D4D4D4" stroke-width="1.1531" stroke-miterlimit="10" cx="174.4" cy="143.3" r="32.9"/>
				<path fill="#EEEEEF" stroke="#D4D4D4" stroke-width="1.1531" stroke-miterlimit="10" d="M189,349.7h-32.1
					c-14.8,0-26.7-12-26.7-26.7V212c0-14.8,12-26.7,26.7-26.7H189c14.8,0,26.7,12,26.7,26.7v111C215.7,337.8,203.8,349.7,189,349.7z
					"/>
			</g>
		</g>
		<g>
			<g>
				<circle fill="#EEEEEF" stroke="#D4D4D4" stroke-width="1.1531" stroke-miterlimit="10" cx="51.5" cy="160.6" r="30.1"/>
				<path fill="#EEEEEF" stroke="#D4D4D4" stroke-width="1.1531" stroke-miterlimit="10" d="M38.1,349.7h29.4
					c13.5,0,24.5-11,24.5-24.5V223.5c0-13.5-11-24.5-24.5-24.5H38.1c-13.5,0-24.5,11-24.5,24.5v101.7
					C13.6,338.8,24.6,349.7,38.1,349.7z"/>
			</g>
			<g>
				<circle fill="#EEEEEF" stroke="#D4D4D4" stroke-width="1.1531" stroke-miterlimit="10" cx="85.1" cy="143.3" r="32.9"/>
				<path fill="#EEEEEF" stroke="#D4D4D4" stroke-width="1.1531" stroke-miterlimit="10" d="M70.5,349.7h32.1
					c14.8,0,26.7-12,26.7-26.7V212c0-14.8-12-26.7-26.7-26.7H70.5c-14.8,0-26.7,12-26.7,26.7v111C43.8,337.8,55.8,349.7,70.5,349.7z
					"/>
			</g>
		</g>
		<g>
			<g>
				<g>
					<defs>
						<path id="SVGID_4_" d="M79.5,63.7l34.9-40.1c0,0,36.9-19.2,36.9,8.9s-45.6,56.1-60.9,56.1L79.5,63.7z"/>
					</defs>
					<use xlink:href="#SVGID_4_"  overflow="visible" fill="#705439"/>
					<clipPath id="SVGID_6_">
						<use xlink:href="#SVGID_4_"  overflow="visible"/>
					</clipPath>
					<g clip-path="url(#SVGID_6_)">
						<path fill="#705439" d="M129.4,156.4c-21.5,0-38.9-17.4-38.9-38.9V92.2c0-21.5,17.4-38.9,38.9-38.9s38.9,17.4,38.9,38.9v25.3
							C168.4,139,150.9,156.4,129.4,156.4z"/>
					</g>
				</g>
				<g>
					<g opacity="0.1">
						<path d="M165.8,92.3c-24.3,0-62.8-16.4-62.8-71.2s62.8,14.6,62.8,14.6V92.3z"/>
					</g>
					<g>
						<path fill="#705439" d="M168.4,92.3c-24.3,0-62.8-16.4-62.8-71.2s62.8,14.6,62.8,14.6V92.3z"/>
					</g>
				</g>
			</g>
			<path fill="url(#vertical2)" d="M186.8,313.3H72.1V195.1c0-24.4,19.7-44.1,44.1-44.1h26.5c24.4,0,44.1,19.7,44.1,44.1V313.3z"/>
			<g>
				<path fill="#F6C5A6" d="M108.9,158.8c0.1,0.2,0.2,0.4,0.3,0.5l10.7,18.6c4.2,7.3,14.8,7.3,19,0l10.7-18.6
					c0.1-0.2,0.2-0.4,0.3-0.5c-6,3.7-13,5.9-20.5,5.9C121.9,164.7,114.9,162.5,108.9,158.8z"/>
				<path fill="#E8B99E" d="M140.2,142.9h-21.5c-8.2,0-13.5,8.7-9.8,15.9c6,3.7,13,5.9,20.5,5.9c7.5,0,14.6-2.2,20.5-5.9
					C153.7,151.6,148.4,142.9,140.2,142.9z"/>
			</g>
			<g>
				<path fill="#F6C5A6" d="M129.4,162c-21.5,0-38.9-17.4-38.9-38.9V97.8c0-21.5,17.4-38.9,38.9-38.9s38.9,17.4,38.9,38.9v25.3
					C168.4,144.6,150.9,162,129.4,162z"/>
			</g>
			<g>
				<circle fill="#A47B53" cx="113.9" cy="103.3" r="1.7"/>
				<circle fill="#A47B53" cx="145" cy="103.3" r="1.7"/>
			</g>
			<circle fill="#F6C5A6" cx="168.4" cy="102.7" r="6.3"/>
			<circle fill="#F6C5A6" cx="90.5" cy="102.7" r="6.3"/>
			<g>
				<path fill="#705439" d="M132.8,130.7c-0.3,4.3-4.1,7.5-8.4,7.2c-4.3-0.3-18.8-1.3-18.8-1.3c5.3,0.4,10.6-15,20-14.3
					C129.9,122.6,133.1,126.4,132.8,130.7z"/>
				<g>
					<g opacity="0.2">
						<path d="M125,131.6c0.6,4.3,4.6,7.2,8.8,6.6c4.3-0.6,18.7-2.6,18.7-2.6c-5.3,0.8-11.6-14.2-20.9-12.9
							C127.3,123.3,124.4,127.3,125,131.6z"/>
					</g>
					<g>
						<path fill="#705439" d="M126.2,131.6c0.6,4.3,4.6,7.2,8.8,6.6c4.3-0.6,18.7-2.6,18.7-2.6c-5.3,0.8-11.6-14.2-20.9-12.9
							C128.5,123.3,125.5,127.3,126.2,131.6z"/>
					</g>
				</g>
			</g>
			<path fill="#F6C5A6" d="M180.7,404.8h0.1c3.3,0,6-2.7,6-6V269.7h-12.1v129.2C174.7,402.1,177.4,404.8,180.7,404.8z"/>
			<path fill="#F6C5A6" d="M78.1,404.8h0.1c3.3,0,6-2.7,6-6V269.7H72.1v129.2C72.1,402.1,74.8,404.8,78.1,404.8z"/>
		</g>
		<g>
			<g>
				<rect x="12.2" y="313.9" fill="#CDCFD0" width="235.5" height="186.1"/>
				<g>
					<rect x="17.1" y="319" fill="#ABDAF3" width="225.8" height="38.6"/>
					<g>
						<path fill="#EEEEEF" d="M241.7,320.2v36.2H18.3v-36.2H241.7 M244,317.8H15.9v41H244V317.8L244,317.8z"/>
					</g>
				</g>
				<rect x="0" y="362.6" fill="#86808E" width="259.9" height="3.5"/>
				<polygon opacity="0.1" fill="#838689" points="208.5,362.6 12.4,362.6 12.4,313.6 252.5,313.6 				"/>
				<rect x="0" y="310.5" fill="#86808E" width="259.9" height="3.5"/>
				
					<rect x="120.2" y="387.1" fill="#DFF0F4" stroke="#9A8479" stroke-width="2.8661" stroke-miterlimit="10" width="45.8" height="81"/>
				
					<rect x="48.2" y="391.4" fill="#DFF0F4" stroke="#9A8479" stroke-width="4.2991" stroke-miterlimit="10" width="45.8" height="81"/>
				
					<rect x="183.8" y="387.1" fill="#DFF0F4" stroke="#9A8479" stroke-width="2.8661" stroke-miterlimit="10" width="45.8" height="81"/>
				<g>
					<g opacity="0.2">
						<rect x="115.3" y="472.1" fill="#231F20" width="55.6" height="7.2"/>
					</g>
					<g>
						<rect x="115.3" y="470.6" fill="#86808E" width="55.6" height="7.2"/>
					</g>
				</g>
				<g>
					<g opacity="0.2">
						<rect x="178.9" y="472.1" fill="#231F20" width="55.6" height="7.2"/>
					</g>
					<g>
						<rect x="178.9" y="470.6" fill="#86808E" width="55.6" height="7.2"/>
					</g>
				</g>
				<rect x="48.2" y="430.4" fill="#9A8479" width="45.8" height="14"/>
				<circle fill="#ABDAF3" cx="55.6" cy="437.4" r="2.6"/>
				<rect x="46.2" y="475.8" fill="#86808E" width="49.7" height="6.9"/>
				<rect x="37.6" y="483.9" fill="#86808E" width="67.1" height="6.9"/>
				<rect x="31.1" y="492" fill="#86808E" width="80" height="6.9"/>
				<polygon opacity="0.1" fill="#838689" points="175.1,483.8 12.4,483.8 12.4,371.5 252.5,371.5 				"/>
				<g>
					<path fill="#86808E" d="M22.1,416.8h-0.2c-5.4,0-9.7-4.5-9.7-10v-40.7h19.6v40.7C31.8,412.3,27.5,416.8,22.1,416.8z"/>
					<path fill="#ABDAF3" d="M41.8,416.8h-0.2c-5.4,0-9.7-4.5-9.7-10v-40.7h19.6v40.7C51.5,412.3,47.1,416.8,41.8,416.8z"/>
					<path fill="#86808E" d="M61.4,416.8h-0.2c-5.4,0-9.7-4.5-9.7-10v-40.7h19.6v40.7C71.1,412.3,66.7,416.8,61.4,416.8z"/>
					<path fill="#ABDAF3" d="M81,416.8h-0.2c-5.4,0-9.7-4.5-9.7-10v-40.7h19.6v40.7C90.7,412.3,86.4,416.8,81,416.8z"/>
					<path fill="#86808E" d="M100.6,416.8h-0.2c-5.4,0-9.7-4.5-9.7-10v-40.7h19.6v40.7C110.3,412.3,106,416.8,100.6,416.8z"/>
					<path fill="#ABDAF3" d="M120.3,416.8h-0.2c-5.4,0-9.7-4.5-9.7-10v-40.7H130v40.7C130,412.3,125.6,416.8,120.3,416.8z"/>
					<path fill="#86808E" d="M139.9,416.8h-0.2c-5.4,0-9.7-4.5-9.7-10v-40.7h19.6v40.7C149.6,412.3,145.2,416.8,139.9,416.8z"/>
					<path fill="#ABDAF3" d="M159.5,416.8h-0.2c-5.4,0-9.7-4.5-9.7-10v-40.7h19.6v40.7C169.2,412.3,164.9,416.8,159.5,416.8z"/>
					<path fill="#86808E" d="M179.1,416.8h-0.2c-5.4,0-9.7-4.5-9.7-10v-40.7h19.6v40.7C188.8,412.3,184.5,416.8,179.1,416.8z"/>
					<path fill="#ABDAF3" d="M198.7,416.8h-0.2c-5.4,0-9.7-4.5-9.7-10v-40.7h19.6v40.7C208.5,412.3,204.1,416.8,198.7,416.8z"/>
					<path fill="#86808E" d="M218.4,416.8h-0.2c-5.4,0-9.7-4.5-9.7-10v-40.7h19.6v40.7C228.1,412.3,223.7,416.8,218.4,416.8z"/>
					<path fill="#ABDAF3" d="M238,416.8h-0.2c-5.4,0-9.7-4.5-9.7-10v-40.7h19.6v40.7C247.7,412.3,243.4,416.8,238,416.8z"/>
				</g>
				<g opacity="0.2">
					<path fill="#6D6E70" d="M178.9,416.9h0.2c5.4,0,9.7-4.5,9.7-10h-19.6C169.2,412.5,173.6,416.9,178.9,416.9z"/>
					<path fill="#6D6E70" d="M139.7,416.9h0.2c5.4,0,9.7-4.5,9.7-10H130C130,412.5,134.3,416.9,139.7,416.9z"/>
					<path fill="#6D6E70" d="M159.3,416.9h0.2c5.4,0,9.7-4.5,9.7-10h-19.6C149.6,412.5,153.9,416.9,159.3,416.9z"/>
					<path fill="#6D6E70" d="M237.8,416.9h0.2c5.4,0,9.7-4.5,9.7-10h-19.6C228.1,412.5,232.4,416.9,237.8,416.9z"/>
					<path fill="#6D6E70" d="M198.6,416.9h0.2c5.4,0,9.7-4.5,9.7-10h-19.6C188.8,412.5,193.2,416.9,198.6,416.9z"/>
					<path fill="#6D6E70" d="M218.2,416.9h0.2c5.4,0,9.7-4.5,9.7-10h-19.6C208.5,412.5,212.8,416.9,218.2,416.9z"/>
					<path fill="#6D6E70" d="M80.8,416.9H81c5.4,0,9.7-4.5,9.7-10H71.1C71.1,412.5,75.4,416.9,80.8,416.9z"/>
					<path fill="#6D6E70" d="M21.9,416.9h0.2c5.4,0,9.7-4.5,9.7-10H12.2C12.2,412.5,16.6,416.9,21.9,416.9z"/>
					<path fill="#6D6E70" d="M41.6,416.9h0.2c5.4,0,9.7-4.5,9.7-10H31.8C31.8,412.5,36.2,416.9,41.6,416.9z"/>
					<path fill="#6D6E70" d="M120.1,416.9h0.2c5.4,0,9.7-4.5,9.7-10h-19.6C110.3,412.5,114.7,416.9,120.1,416.9z"/>
					<path fill="#6D6E70" d="M100.4,416.9h0.2c5.4,0,9.7-4.5,9.7-10H90.7C90.7,412.5,95.1,416.9,100.4,416.9z"/>
					<path fill="#6D6E70" d="M61.2,416.9h0.2c5.4,0,9.7-4.5,9.7-10H51.5C51.5,412.5,55.8,416.9,61.2,416.9z"/>
				</g>
			</g>
		</g>
		
			<text transform="matrix(1 0 0 1 68.7262 347.2712)" fill="#EEEEEF" font-family="'Futura-Medium'" font-size="25.1458" letter-spacing="12">MIKES</text>
	</g>
	<path fill="#FFFFFF" d="M366.8,49.4c-71,0-130.8,31.7-148.5,74.8l-39.7,7.3l34.7,26.4c5.4,52.8,72.1,94.5,153.6,94.5
		c85,0,153.9-45.4,153.9-101.5C520.8,94.8,451.9,49.4,366.8,49.4z"/>
	<g>
		<path d="M294.4,112.2c0,2.8-0.7,5-2.1,6.5s-3.4,2.3-6,2.3s-4.6-0.8-6-2.3s-2.1-3.7-2.1-6.6s0.7-5,2.1-6.5s3.4-2.3,6.1-2.3
			s4.6,0.8,6,2.3S294.4,109.3,294.4,112.2z M281.9,112.2c0,1.9,0.4,3.4,1.1,4.3s1.8,1.5,3.3,1.5c2.9,0,4.3-1.9,4.3-5.8
			c0-3.9-1.4-5.8-4.3-5.8c-1.4,0-2.5,0.5-3.3,1.5S281.9,110.3,281.9,112.2z"/>
		<path d="M305,107.4c0.5,0,0.9,0,1.2,0.1l-0.3,3.4c-0.3-0.1-0.6-0.1-1.1-0.1c-1.1,0-2,0.3-2.7,0.9s-1,1.4-1,2.5v6.7h-3.6v-13.1h2.7
			l0.5,2.2h0.2c0.4-0.7,1-1.3,1.6-1.8S304.2,107.4,305,107.4z"/>
		<path d="M320,107.7v1.8L318,110c0.4,0.6,0.6,1.2,0.6,2c0,1.4-0.5,2.5-1.5,3.3s-2.3,1.2-4.1,1.2l-0.6,0l-0.5-0.1
			c-0.4,0.3-0.6,0.6-0.6,0.9c0,0.5,0.7,0.8,2,0.8h2.2c1.4,0,2.5,0.3,3.3,0.9s1.1,1.5,1.1,2.7c0,1.5-0.6,2.7-1.9,3.6
			s-3.1,1.3-5.5,1.3c-1.8,0-3.2-0.3-4.2-1s-1.4-1.5-1.4-2.7c0-0.8,0.2-1.4,0.7-2s1.2-0.9,2.2-1.1c-0.4-0.2-0.7-0.4-1-0.8
			s-0.4-0.7-0.4-1.1c0-0.5,0.1-0.9,0.4-1.2s0.7-0.7,1.3-1c-0.7-0.3-1.2-0.8-1.6-1.4s-0.6-1.4-0.6-2.3c0-1.4,0.5-2.5,1.4-3.3
			s2.3-1.2,4-1.2c0.4,0,0.8,0,1.3,0.1s0.8,0.1,1,0.1H320z M309.9,122.6c0,0.5,0.2,0.9,0.7,1.2s1.1,0.4,2,0.4c1.3,0,2.3-0.2,3-0.5
			s1.1-0.8,1.1-1.4c0-0.5-0.2-0.8-0.6-1s-1.1-0.3-2-0.3h-1.9c-0.7,0-1.2,0.2-1.6,0.5S309.9,122.1,309.9,122.6z M311.2,111.9
			c0,0.7,0.2,1.3,0.5,1.7s0.8,0.6,1.5,0.6c0.7,0,1.2-0.2,1.5-0.6s0.5-1,0.5-1.7c0-1.6-0.6-2.4-1.9-2.4
			C311.8,109.6,311.2,110.4,311.2,111.9z"/>
		<path d="M330.5,120.8l-0.7-1.8h-0.1c-0.6,0.8-1.2,1.3-1.9,1.6s-1.5,0.4-2.5,0.4c-1.3,0-2.2-0.4-3-1.1s-1.1-1.7-1.1-3.1
			c0-1.4,0.5-2.4,1.5-3.1s2.4-1,4.4-1.1l2.3-0.1V112c0-1.3-0.7-2-2-2c-1,0-2.3,0.3-3.7,0.9l-1.2-2.4c1.5-0.8,3.2-1.2,5-1.2
			c1.8,0,3.1,0.4,4,1.1s1.4,1.9,1.4,3.5v8.7H330.5z M329.4,114.7l-1.4,0c-1,0-1.8,0.2-2.3,0.6s-0.8,0.9-0.8,1.6c0,1,0.6,1.5,1.7,1.5
			c0.8,0,1.5-0.2,2-0.7s0.7-1.1,0.7-1.9V114.7z"/>
		<path d="M348.8,120.8h-3.6v-7.7c0-0.9-0.2-1.7-0.5-2.1s-0.9-0.7-1.6-0.7c-1,0-1.7,0.3-2.2,1s-0.7,1.8-0.7,3.3v6.2h-3.6v-13.1h2.7
			l0.5,1.7h0.2c0.4-0.6,0.9-1.1,1.6-1.4s1.5-0.5,2.4-0.5c1.5,0,2.7,0.4,3.5,1.2s1.2,2,1.2,3.6V120.8z"/>
		<path d="M352.3,104.3c0-1.2,0.6-1.7,1.9-1.7s1.9,0.6,1.9,1.7c0,0.6-0.2,1-0.5,1.3s-0.8,0.5-1.5,0.5
			C352.9,106,352.3,105.4,352.3,104.3z M356,120.8h-3.6v-13.1h3.6V120.8z"/>
		<path d="M368.9,116.9c0,1.3-0.5,2.4-1.4,3.1s-2.3,1.1-4.2,1.1c-1,0-1.8-0.1-2.4-0.2s-1.3-0.3-1.9-0.6v-3c0.7,0.3,1.4,0.6,2.2,0.8
			s1.6,0.3,2.2,0.3c1.3,0,1.9-0.4,1.9-1.1c0-0.3-0.1-0.5-0.3-0.7s-0.5-0.4-0.9-0.6s-1-0.5-1.7-0.8c-1-0.4-1.7-0.8-2.2-1.2
			s-0.8-0.8-1-1.2s-0.3-1-0.3-1.7c0-1.2,0.5-2.1,1.4-2.7s2.2-1,3.8-1c1.6,0,3.1,0.3,4.6,1l-1.1,2.6c-0.7-0.3-1.3-0.5-1.8-0.7
			s-1.2-0.3-1.7-0.3c-1.1,0-1.6,0.3-1.6,0.9c0,0.3,0.2,0.6,0.5,0.8s1.1,0.6,2.2,1c1,0.4,1.8,0.8,2.2,1.2s0.8,0.8,1.1,1.2
			S368.9,116.2,368.9,116.9z"/>
		<path d="M377.6,121c-2.1,0-3.8-0.6-4.9-1.7s-1.8-2.8-1.8-4.9c0-2.2,0.5-3.9,1.6-5.1s2.6-1.8,4.6-1.8c1.9,0,3.3,0.5,4.3,1.6
			s1.5,2.5,1.5,4.4v1.7h-8.4c0,1,0.3,1.8,0.9,2.4s1.4,0.9,2.4,0.9c0.8,0,1.5-0.1,2.2-0.2s1.4-0.4,2.2-0.8v2.8
			c-0.6,0.3-1.3,0.5-2,0.7S378.6,121,377.6,121z M377.1,110c-0.8,0-1.4,0.2-1.8,0.7s-0.7,1.2-0.7,2h5c0-0.9-0.2-1.6-0.7-2
			S377.9,110,377.1,110z"/>
		<path d="M400.4,120.8l-0.7-1.8h-0.1c-0.6,0.8-1.2,1.3-1.9,1.6s-1.5,0.4-2.5,0.4c-1.3,0-2.2-0.4-3-1.1s-1.1-1.7-1.1-3.1
			c0-1.4,0.5-2.4,1.5-3.1s2.4-1,4.4-1.1l2.3-0.1V112c0-1.3-0.7-2-2-2c-1,0-2.3,0.3-3.7,0.9l-1.2-2.4c1.5-0.8,3.2-1.2,5-1.2
			c1.8,0,3.1,0.4,4,1.1s1.4,1.9,1.4,3.5v8.7H400.4z M399.4,114.7l-1.4,0c-1,0-1.8,0.2-2.3,0.6s-0.8,0.9-0.8,1.6c0,1,0.6,1.5,1.7,1.5
			c0.8,0,1.5-0.2,2-0.7s0.7-1.1,0.7-1.9V114.7z"/>
		<path d="M410.2,120.8h-3.6v-18.2h3.6V120.8z"/>
		<path d="M417.5,120.8h-3.6v-18.2h3.6V120.8z"/>
		<path d="M439.2,120.8h-3.6v-7.7c0-0.9-0.2-1.7-0.5-2.1s-0.8-0.7-1.5-0.7c-0.9,0-1.6,0.3-2,1s-0.6,1.8-0.6,3.3v6.2h-3.6v-13.1h2.7
			l0.5,1.7h0.2c0.4-0.6,0.9-1.1,1.5-1.4s1.4-0.5,2.3-0.5c2,0,3.3,0.6,4,1.9h0.3c0.4-0.6,0.9-1.1,1.6-1.4s1.5-0.5,2.3-0.5
			c1.5,0,2.6,0.4,3.4,1.1s1.1,2,1.1,3.7v8.5h-3.6v-7.7c0-0.9-0.2-1.7-0.5-2.1s-0.8-0.7-1.5-0.7c-0.9,0-1.5,0.3-2,0.9s-0.7,1.6-0.7,3
			V120.8z"/>
		<path d="M449.2,107.7h3.9l2.5,7.4c0.2,0.6,0.4,1.4,0.4,2.3h0.1c0.1-0.8,0.3-1.6,0.5-2.3l2.4-7.4h3.8l-5.5,14.8
			c-0.5,1.4-1.2,2.4-2.2,3.1s-2,1-3.3,1c-0.6,0-1.2-0.1-1.8-0.2v-2.8c0.4,0.1,0.9,0.2,1.4,0.2c0.6,0,1.2-0.2,1.7-0.6s0.8-1,1.1-1.8
			l0.2-0.6L449.2,107.7z"/>
		<path d="M300.9,149.6l-0.7-1.8h-0.1c-0.6,0.8-1.2,1.3-1.9,1.6s-1.5,0.4-2.5,0.4c-1.3,0-2.2-0.4-3-1.1s-1.1-1.7-1.1-3.1
			c0-1.4,0.5-2.4,1.5-3.1s2.4-1,4.4-1.1l2.3-0.1v-0.6c0-1.3-0.7-2-2-2c-1,0-2.3,0.3-3.7,0.9l-1.2-2.4c1.5-0.8,3.2-1.2,5-1.2
			c1.8,0,3.1,0.4,4,1.1s1.4,1.9,1.4,3.5v8.7H300.9z M299.9,143.5l-1.4,0c-1,0-1.8,0.2-2.3,0.6s-0.8,0.9-0.8,1.6c0,1,0.6,1.5,1.7,1.5
			c0.8,0,1.5-0.2,2-0.7s0.7-1.1,0.7-1.9V143.5z"/>
		<path d="M314.3,149.8c-1.5,0-2.7-0.6-3.6-1.7h-0.2c0.1,1.1,0.2,1.7,0.2,1.9v5.3h-3.6v-18.9h2.9l0.5,1.7h0.2
			c0.8-1.3,2.1-1.9,3.7-1.9c1.5,0,2.8,0.6,3.6,1.8s1.3,2.9,1.3,5c0,1.4-0.2,2.6-0.6,3.6s-1,1.8-1.8,2.4S315.3,149.8,314.3,149.8z
			 M313.2,139.1c-0.9,0-1.5,0.3-1.9,0.8s-0.6,1.4-0.6,2.7v0.4c0,1.4,0.2,2.4,0.6,3s1.1,0.9,2,0.9c1.6,0,2.4-1.3,2.4-4
			c0-1.3-0.2-2.3-0.6-2.9S314.1,139.1,313.2,139.1z"/>
		<path d="M329.5,149.8c-1.5,0-2.7-0.6-3.6-1.7h-0.2c0.1,1.1,0.2,1.7,0.2,1.9v5.3h-3.6v-18.9h2.9l0.5,1.7h0.2
			c0.8-1.3,2.1-1.9,3.7-1.9c1.5,0,2.8,0.6,3.6,1.8s1.3,2.9,1.3,5c0,1.4-0.2,2.6-0.6,3.6s-1,1.8-1.8,2.4S330.5,149.8,329.5,149.8z
			 M328.4,139.1c-0.9,0-1.5,0.3-1.9,0.8s-0.6,1.4-0.6,2.7v0.4c0,1.4,0.2,2.4,0.6,3s1.1,0.9,2,0.9c1.6,0,2.4-1.3,2.4-4
			c0-1.3-0.2-2.3-0.6-2.9S329.3,139.1,328.4,139.1z"/>
		<path d="M341,149.6h-3.6v-18.2h3.6V149.6z"/>
		<path d="M344.6,133.1c0-1.2,0.6-1.7,1.9-1.7s1.9,0.6,1.9,1.7c0,0.6-0.2,1-0.5,1.3s-0.8,0.5-1.5,0.5
			C345.3,134.8,344.6,134.2,344.6,133.1z M348.4,149.6h-3.6v-13.1h3.6V149.6z"/>
		<path d="M357.4,149.8c-4.1,0-6.1-2.2-6.1-6.7c0-2.2,0.6-3.9,1.7-5.1s2.7-1.8,4.8-1.8c1.5,0,2.9,0.3,4.1,0.9l-1.1,2.8
			c-0.6-0.2-1.1-0.4-1.6-0.6s-1-0.2-1.5-0.2c-1.9,0-2.8,1.3-2.8,4c0,2.6,0.9,3.8,2.8,3.8c0.7,0,1.3-0.1,1.9-0.3s1.2-0.5,1.8-0.9v3.1
			c-0.6,0.4-1.2,0.6-1.8,0.8S358.3,149.8,357.4,149.8z"/>
		<path d="M372.8,149.6l-0.7-1.8H372c-0.6,0.8-1.2,1.3-1.9,1.6s-1.5,0.4-2.5,0.4c-1.3,0-2.2-0.4-3-1.1s-1.1-1.7-1.1-3.1
			c0-1.4,0.5-2.4,1.5-3.1s2.4-1,4.4-1.1l2.3-0.1v-0.6c0-1.3-0.7-2-2-2c-1,0-2.3,0.3-3.7,0.9l-1.2-2.4c1.5-0.8,3.2-1.2,5-1.2
			c1.8,0,3.1,0.4,4,1.1s1.4,1.9,1.4,3.5v8.7H372.8z M371.7,143.5l-1.4,0c-1,0-1.8,0.2-2.3,0.6s-0.8,0.9-0.8,1.6c0,1,0.6,1.5,1.7,1.5
			c0.8,0,1.5-0.2,2-0.7s0.7-1.1,0.7-1.9V143.5z"/>
		<path d="M384.5,146.9c0.6,0,1.4-0.1,2.2-0.4v2.7c-0.9,0.4-2,0.6-3.3,0.6c-1.4,0-2.5-0.4-3.1-1.1s-1-1.8-1-3.3v-6.3h-1.7v-1.5
			l2-1.2l1-2.8h2.3v2.8h3.7v2.7h-3.7v6.3c0,0.5,0.1,0.9,0.4,1.1S384,146.9,384.5,146.9z"/>
		<path d="M389.2,133.1c0-1.2,0.6-1.7,1.9-1.7s1.9,0.6,1.9,1.7c0,0.6-0.2,1-0.5,1.3s-0.8,0.5-1.5,0.5
			C389.9,134.8,389.2,134.2,389.2,133.1z M392.9,149.6h-3.6v-13.1h3.6V149.6z"/>
		<path d="M408.6,143c0,2.1-0.6,3.8-1.7,5s-2.7,1.8-4.7,1.8c-1.3,0-2.4-0.3-3.3-0.8s-1.7-1.3-2.2-2.4s-0.8-2.2-0.8-3.6
			c0-2.1,0.6-3.8,1.7-5s2.7-1.8,4.7-1.8c1.3,0,2.4,0.3,3.3,0.8s1.7,1.3,2.2,2.4S408.6,141.6,408.6,143z M399.5,143
			c0,1.3,0.2,2.3,0.6,2.9s1.1,1,2.1,1c1,0,1.6-0.3,2.1-1s0.6-1.6,0.6-2.9c0-1.3-0.2-2.3-0.6-2.9s-1.1-1-2.1-1c-1,0-1.6,0.3-2.1,1
			S399.5,141.7,399.5,143z"/>
		<path d="M423.6,149.6h-3.6v-7.7c0-0.9-0.2-1.7-0.5-2.1s-0.9-0.7-1.6-0.7c-1,0-1.7,0.3-2.2,1s-0.7,1.8-0.7,3.3v6.2h-3.6v-13.1h2.7
			l0.5,1.7h0.2c0.4-0.6,0.9-1.1,1.6-1.4s1.5-0.5,2.4-0.5c1.5,0,2.7,0.4,3.5,1.2s1.2,2,1.2,3.6V149.6z"/>
		<path d="M436.5,145.7c0,1.3-0.5,2.4-1.4,3.1s-2.3,1.1-4.2,1.1c-1,0-1.8-0.1-2.4-0.2s-1.3-0.3-1.9-0.6v-3c0.7,0.3,1.4,0.6,2.2,0.8
			s1.6,0.3,2.2,0.3c1.3,0,1.9-0.4,1.9-1.1c0-0.3-0.1-0.5-0.3-0.7s-0.5-0.4-0.9-0.6s-1-0.5-1.7-0.8c-1-0.4-1.7-0.8-2.2-1.2
			s-0.8-0.8-1-1.2s-0.3-1-0.3-1.7c0-1.2,0.5-2.1,1.4-2.7s2.2-1,3.8-1c1.6,0,3.1,0.3,4.6,1l-1.1,2.6c-0.7-0.3-1.3-0.5-1.8-0.7
			s-1.2-0.3-1.7-0.3c-1.1,0-1.6,0.3-1.6,0.9c0,0.3,0.2,0.6,0.5,0.8s1.1,0.6,2.2,1c1,0.4,1.8,0.8,2.2,1.2s0.8,0.8,1.1,1.2
			S436.5,145,436.5,145.7z"/>
		<path d="M440.6,143.9V143c0-0.8,0.2-1.4,0.5-2s0.9-1.1,1.8-1.8c0.8-0.6,1.4-1.1,1.6-1.4s0.4-0.8,0.4-1.2c0-0.5-0.2-0.9-0.6-1.2
			s-0.9-0.4-1.6-0.4c-1.2,0-2.5,0.4-4,1.1l-1.3-2.6c1.7-1,3.6-1.5,5.5-1.5c1.6,0,2.9,0.4,3.8,1.2s1.4,1.8,1.4,3.1
			c0,0.9-0.2,1.6-0.6,2.2s-1.1,1.3-2.2,2.1c-0.8,0.6-1.2,1-1.4,1.3s-0.3,0.7-0.3,1.1v0.7H440.6z M440.2,147.9c0-0.7,0.2-1.2,0.5-1.5
			s0.9-0.5,1.5-0.5c0.6,0,1.2,0.2,1.5,0.5s0.5,0.8,0.5,1.5c0,0.6-0.2,1.1-0.5,1.5s-0.9,0.5-1.5,0.5c-0.7,0-1.2-0.2-1.5-0.5
			S440.2,148.5,440.2,147.9z"/>
		<path d="M284.4,178.4l-1.2-4.1h-6.2l-1.2,4.1h-3.9l6-17.2h4.4l6.1,17.2H284.4z M282.3,171.2c-1.1-3.7-1.8-5.8-1.9-6.3
			s-0.2-0.9-0.3-1.1c-0.3,1-1,3.5-2.2,7.4H282.3z"/>
		<path d="M290,161.9c0-1.2,0.6-1.7,1.9-1.7s1.9,0.6,1.9,1.7c0,0.6-0.2,1-0.5,1.3s-0.8,0.5-1.5,0.5C290.7,163.6,290,163,290,161.9z
			 M293.7,178.4h-3.6v-13.1h3.6V178.4z"/>
		<path d="M309.6,178.4H306v-7.7c0-0.9-0.2-1.7-0.5-2.1s-0.9-0.7-1.6-0.7c-1,0-1.7,0.3-2.2,1s-0.7,1.8-0.7,3.3v6.2h-3.6v-13.1h2.7
			l0.5,1.7h0.2c0.4-0.6,0.9-1.1,1.6-1.4s1.5-0.5,2.4-0.5c1.5,0,2.7,0.4,3.5,1.2s1.2,2,1.2,3.6V178.4z"/>
		<path d="M316.1,161.2l0.2,0.3c-0.4,1.5-1.1,3.4-2.1,5.6h-2.6c0.5-2.3,0.9-4.3,1.2-5.9H316.1z"/>
		<path d="M324,175.7c0.6,0,1.4-0.1,2.2-0.4v2.7c-0.9,0.4-2,0.6-3.3,0.6c-1.4,0-2.5-0.4-3.1-1.1s-1-1.8-1-3.3v-6.3h-1.7v-1.5l2-1.2
			l1-2.8h2.3v2.8h3.7v2.7h-3.7v6.3c0,0.5,0.1,0.9,0.4,1.1S323.5,175.7,324,175.7z"/>
		<path d="M347.2,178.4h-3.6v-7.7c0-0.9-0.2-1.7-0.5-2.1s-0.9-0.7-1.6-0.7c-1,0-1.7,0.3-2.2,1s-0.7,1.8-0.7,3.3v6.2h-3.6v-13.1h2.7
			l0.5,1.7h0.2c0.4-0.6,0.9-1.1,1.6-1.4s1.5-0.5,2.4-0.5c1.5,0,2.7,0.4,3.5,1.2s1.2,2,1.2,3.6V178.4z"/>
		<path d="M362.8,171.8c0,2.1-0.6,3.8-1.7,5s-2.7,1.8-4.7,1.8c-1.3,0-2.4-0.3-3.3-0.8s-1.7-1.3-2.2-2.4s-0.8-2.2-0.8-3.6
			c0-2.1,0.6-3.8,1.7-5s2.7-1.8,4.7-1.8c1.3,0,2.4,0.3,3.3,0.8s1.7,1.3,2.2,2.4S362.8,170.4,362.8,171.8z M353.7,171.8
			c0,1.3,0.2,2.3,0.6,2.9s1.1,1,2.1,1c1,0,1.6-0.3,2.1-1s0.6-1.6,0.6-2.9c0-1.3-0.2-2.3-0.6-2.9s-1.1-1-2.1-1c-1,0-1.6,0.3-2.1,1
			S353.7,170.5,353.7,171.8z"/>
		<path d="M373,165c1.5,0,2.8,0.6,3.6,1.8s1.3,2.9,1.3,5c0,2.2-0.5,3.8-1.4,5s-2.1,1.8-3.7,1.8c-1.5,0-2.7-0.6-3.6-1.7h-0.2
			l-0.6,1.4h-2.7v-18.2h3.6v4.2c0,0.5,0,1.4-0.1,2.6h0.1C370.2,165.7,371.4,165,373,165z M371.9,167.9c-0.9,0-1.5,0.3-1.9,0.8
			s-0.6,1.4-0.6,2.7v0.4c0,1.4,0.2,2.4,0.6,3s1.1,0.9,2,0.9c0.7,0,1.3-0.3,1.8-1s0.7-1.7,0.7-2.9s-0.2-2.3-0.7-2.9
			S372.6,167.9,371.9,167.9z"/>
		<path d="M392.8,171.8c0,2.1-0.6,3.8-1.7,5s-2.7,1.8-4.7,1.8c-1.3,0-2.4-0.3-3.3-0.8s-1.7-1.3-2.2-2.4s-0.8-2.2-0.8-3.6
			c0-2.1,0.6-3.8,1.7-5s2.7-1.8,4.7-1.8c1.3,0,2.4,0.3,3.3,0.8s1.7,1.3,2.2,2.4S392.8,170.4,392.8,171.8z M383.8,171.8
			c0,1.3,0.2,2.3,0.6,2.9s1.1,1,2.1,1c1,0,1.6-0.3,2.1-1s0.6-1.6,0.6-2.9c0-1.3-0.2-2.3-0.6-2.9s-1.1-1-2.1-1c-1,0-1.6,0.3-2.1,1
			S383.8,170.5,383.8,171.8z"/>
		<path d="M399.9,178.6c-1.5,0-2.7-0.6-3.6-1.8s-1.3-2.9-1.3-5c0-2.1,0.4-3.8,1.3-5s2.1-1.8,3.7-1.8c1.6,0,2.9,0.6,3.8,1.9h0.1
			c-0.2-1-0.3-1.8-0.3-2.6v-4.2h3.6v18.2h-2.7l-0.7-1.7h-0.2C402.8,177.9,401.6,178.6,399.9,178.6z M401.2,175.7
			c0.9,0,1.6-0.3,2-0.8s0.7-1.4,0.7-2.7v-0.4c0-1.4-0.2-2.4-0.7-3s-1.1-0.9-2.1-0.9c-0.8,0-1.4,0.3-1.9,1s-0.7,1.7-0.7,2.9
			s0.2,2.3,0.7,2.9S400.4,175.7,401.2,175.7z"/>
		<path d="M409.1,165.3h3.9l2.5,7.4c0.2,0.6,0.4,1.4,0.4,2.3h0.1c0.1-0.8,0.3-1.6,0.5-2.3l2.4-7.4h3.8l-5.5,14.8
			c-0.5,1.4-1.2,2.4-2.2,3.1s-2,1-3.3,1c-0.6,0-1.2-0.1-1.8-0.2v-2.8c0.4,0.1,0.9,0.2,1.4,0.2c0.6,0,1.2-0.2,1.7-0.6s0.8-1,1.1-1.8
			l0.2-0.6L409.1,165.3z"/>
		<path d="M442.3,165.3v1.8l-2.1,0.5c0.4,0.6,0.6,1.2,0.6,2c0,1.4-0.5,2.5-1.5,3.3s-2.3,1.2-4.1,1.2l-0.6,0l-0.5-0.1
			c-0.4,0.3-0.6,0.6-0.6,0.9c0,0.5,0.7,0.8,2,0.8h2.2c1.4,0,2.5,0.3,3.3,0.9s1.1,1.5,1.1,2.7c0,1.5-0.6,2.7-1.9,3.6
			s-3.1,1.3-5.5,1.3c-1.8,0-3.2-0.3-4.2-1s-1.4-1.5-1.4-2.7c0-0.8,0.2-1.4,0.7-2s1.2-0.9,2.2-1.1c-0.4-0.2-0.7-0.4-1-0.8
			s-0.4-0.7-0.4-1.1c0-0.5,0.1-0.9,0.4-1.2s0.7-0.7,1.3-1c-0.7-0.3-1.2-0.8-1.6-1.4s-0.6-1.4-0.6-2.3c0-1.4,0.5-2.5,1.4-3.3
			s2.3-1.2,4-1.2c0.4,0,0.8,0,1.3,0.1s0.8,0.1,1,0.1H442.3z M432.2,180.2c0,0.5,0.2,0.9,0.7,1.2s1.1,0.4,2,0.4c1.3,0,2.3-0.2,3-0.5
			s1.1-0.8,1.1-1.4c0-0.5-0.2-0.8-0.6-1s-1.1-0.3-2-0.3h-1.9c-0.7,0-1.2,0.2-1.6,0.5S432.2,179.7,432.2,180.2z M433.5,169.5
			c0,0.7,0.2,1.3,0.5,1.7s0.8,0.6,1.5,0.6c0.7,0,1.2-0.2,1.5-0.6s0.5-1,0.5-1.7c0-1.6-0.6-2.4-1.9-2.4
			C434.1,167.2,433.5,168,433.5,169.5z"/>
		<path d="M456.3,171.8c0,2.1-0.6,3.8-1.7,5s-2.7,1.8-4.7,1.8c-1.3,0-2.4-0.3-3.3-0.8s-1.7-1.3-2.2-2.4s-0.8-2.2-0.8-3.6
			c0-2.1,0.6-3.8,1.7-5s2.7-1.8,4.7-1.8c1.3,0,2.4,0.3,3.3,0.8s1.7,1.3,2.2,2.4S456.3,170.4,456.3,171.8z M447.3,171.8
			c0,1.3,0.2,2.3,0.6,2.9s1.1,1,2.1,1c1,0,1.6-0.3,2.1-1s0.6-1.6,0.6-2.9c0-1.3-0.2-2.3-0.6-2.9s-1.1-1-2.1-1c-1,0-1.6,0.3-2.1,1
			S447.3,170.5,447.3,171.8z"/>
		<path d="M464.8,175.7c0.6,0,1.4-0.1,2.2-0.4v2.7c-0.9,0.4-2,0.6-3.3,0.6c-1.4,0-2.5-0.4-3.1-1.1s-1-1.8-1-3.3v-6.3H458v-1.5l2-1.2
			l1-2.8h2.3v2.8h3.7v2.7h-3.7v6.3c0,0.5,0.1,0.9,0.4,1.1S464.3,175.7,464.8,175.7z"/>
		<path d="M300.1,204.5c0.6,0,1.4-0.1,2.2-0.4v2.7c-0.9,0.4-2,0.6-3.3,0.6c-1.4,0-2.5-0.4-3.1-1.1s-1-1.8-1-3.3v-6.3h-1.7v-1.5
			l2-1.2l1-2.8h2.3v2.8h3.7v2.7h-3.7v6.3c0,0.5,0.1,0.9,0.4,1.1S299.6,204.5,300.1,204.5z"/>
		<path d="M304.9,190.7c0-1.2,0.6-1.7,1.9-1.7s1.9,0.6,1.9,1.7c0,0.6-0.2,1-0.5,1.3s-0.8,0.5-1.5,0.5
			C305.5,192.4,304.9,191.8,304.9,190.7z M308.6,207.2H305v-13.1h3.6V207.2z"/>
		<path d="M324.1,207.2h-3.6v-7.7c0-0.9-0.2-1.7-0.5-2.1s-0.8-0.7-1.5-0.7c-0.9,0-1.6,0.3-2,1s-0.6,1.8-0.6,3.3v6.2h-3.6v-13.1h2.7
			l0.5,1.7h0.2c0.4-0.6,0.9-1.1,1.5-1.4s1.4-0.5,2.3-0.5c2,0,3.3,0.6,4,1.9h0.3c0.4-0.6,0.9-1.1,1.6-1.4s1.5-0.5,2.3-0.5
			c1.5,0,2.6,0.4,3.4,1.1s1.1,2,1.1,3.7v8.5h-3.6v-7.7c0-0.9-0.2-1.7-0.5-2.1s-0.8-0.7-1.5-0.7c-0.9,0-1.5,0.3-2,0.9s-0.7,1.6-0.7,3
			V207.2z"/>
		<path d="M341.8,207.4c-2.1,0-3.8-0.6-4.9-1.7s-1.8-2.8-1.8-4.9c0-2.2,0.5-3.9,1.6-5.1s2.6-1.8,4.6-1.8c1.9,0,3.3,0.5,4.3,1.6
			s1.5,2.5,1.5,4.4v1.7h-8.4c0,1,0.3,1.8,0.9,2.4s1.4,0.9,2.4,0.9c0.8,0,1.5-0.1,2.2-0.2s1.4-0.4,2.2-0.8v2.8
			c-0.6,0.3-1.3,0.5-2,0.7S342.9,207.4,341.8,207.4z M341.3,196.4c-0.8,0-1.4,0.2-1.8,0.7s-0.7,1.2-0.7,2h5c0-0.9-0.2-1.6-0.7-2
			S342.1,196.4,341.3,196.4z"/>
		<path d="M363.6,196.7h-3.1v10.4h-3.6v-10.4h-2V195l2-1v-1c0-1.5,0.4-2.6,1.1-3.3s1.9-1,3.5-1c1.2,0,2.3,0.2,3.3,0.6l-0.9,2.6
			c-0.7-0.2-1.4-0.3-2-0.3c-0.5,0-0.9,0.2-1.1,0.5s-0.3,0.7-0.3,1.2v0.8h3.1V196.7z"/>
		<path d="M377.5,200.6c0,2.1-0.6,3.8-1.7,5s-2.7,1.8-4.7,1.8c-1.3,0-2.4-0.3-3.3-0.8s-1.7-1.3-2.2-2.4s-0.8-2.2-0.8-3.6
			c0-2.1,0.6-3.8,1.7-5s2.7-1.8,4.7-1.8c1.3,0,2.4,0.3,3.3,0.8s1.7,1.3,2.2,2.4S377.5,199.2,377.5,200.6z M368.5,200.6
			c0,1.3,0.2,2.3,0.6,2.9s1.1,1,2.1,1c1,0,1.6-0.3,2.1-1s0.6-1.6,0.6-2.9c0-1.3-0.2-2.3-0.6-2.9s-1.1-1-2.1-1c-1,0-1.6,0.3-2.1,1
			S368.5,199.3,368.5,200.6z"/>
		<path d="M387.8,193.8c0.5,0,0.9,0,1.2,0.1l-0.3,3.4c-0.3-0.1-0.6-0.1-1.1-0.1c-1.1,0-2,0.3-2.7,0.9s-1,1.4-1,2.5v6.7h-3.6v-13.1
			h2.7l0.5,2.2h0.2c0.4-0.7,1-1.3,1.6-1.8S387,193.8,387.8,193.8z"/>
		<path d="M403.1,204.5c0.6,0,1.4-0.1,2.2-0.4v2.7c-0.9,0.4-2,0.6-3.3,0.6c-1.4,0-2.5-0.4-3.1-1.1s-1-1.8-1-3.3v-6.3h-1.7v-1.5
			l2-1.2l1-2.8h2.3v2.8h3.7v2.7h-3.7v6.3c0,0.5,0.1,0.9,0.4,1.1S402.7,204.5,403.1,204.5z"/>
		<path d="M420.1,207.2h-3.6v-7.7c0-1.9-0.7-2.8-2.1-2.8c-1,0-1.7,0.3-2.2,1s-0.7,1.8-0.7,3.3v6.2H408v-18.2h3.6v3.7
			c0,0.3,0,1-0.1,2l-0.1,1.1h0.2c0.8-1.3,2.1-1.9,3.8-1.9c1.5,0,2.7,0.4,3.5,1.2s1.2,2,1.2,3.6V207.2z"/>
		<path d="M432.1,207.2l-0.7-1.8h-0.1c-0.6,0.8-1.2,1.3-1.9,1.6s-1.5,0.4-2.5,0.4c-1.3,0-2.2-0.4-3-1.1s-1.1-1.7-1.1-3.1
			c0-1.4,0.5-2.4,1.5-3.1s2.4-1,4.4-1.1l2.3-0.1v-0.6c0-1.3-0.7-2-2-2c-1,0-2.3,0.3-3.7,0.9l-1.2-2.4c1.5-0.8,3.2-1.2,5-1.2
			c1.8,0,3.1,0.4,4,1.1s1.4,1.9,1.4,3.5v8.7H432.1z M431.1,201.1l-1.4,0c-1,0-1.8,0.2-2.3,0.6s-0.8,0.9-0.8,1.6c0,1,0.6,1.5,1.7,1.5
			c0.8,0,1.5-0.2,2-0.7s0.7-1.1,0.7-1.9V201.1z"/>
		<path d="M443.8,204.5c0.6,0,1.4-0.1,2.2-0.4v2.7c-0.9,0.4-2,0.6-3.3,0.6c-1.4,0-2.5-0.4-3.1-1.1s-1-1.8-1-3.3v-6.3H437v-1.5l2-1.2
			l1-2.8h2.3v2.8h3.7v2.7h-3.7v6.3c0,0.5,0.1,0.9,0.4,1.1S443.3,204.5,443.8,204.5z"/>
	</g>
</g>
</svg>
