<?xml version="1.0" encoding="utf-8"?>
<!-- Generator: Adobe Illustrator 17.1.0, SVG Export Plug-In . SVG Version: 6.00 Build 0)  -->
<!DOCTYPE svg PUBLIC "-//W3C//DTD SVG 1.1//EN" "http://www.w3.org/Graphics/SVG/1.1/DTD/svg11.dtd">
<svg version="1.1" xmlns="http://www.w3.org/2000/svg" xmlns:xlink="http://www.w3.org/1999/xlink" x="0px" y="0px"
	 viewBox="0 0 787 687.9" enable-background="new 0 0 787 687.9" xml:space="preserve">
<g id="bg">
</g>
<g id="Layer_1">
	<polyline fill="none" stroke="#010101" stroke-miterlimit="10" points="370.5,201.6 568.8,201.6 568.8,390.6 	"/>
	<polyline fill="none" stroke="#010101" stroke-miterlimit="10" points="316,322 384.5,322 384.5,384.5 	"/>
	<polygon points="738.2,401.7 516.6,401.7 515.5,401.7 515.5,402.7 525.5,426.2 525.5,427.2 526.6,427.2 728.2,427.2 729.2,427.2 
		729.2,426.2 739.2,402.7 739.2,401.7 	"/>
	<polygon points="494.3,402.7 272.7,402.7 271.7,402.7 271.7,403.7 281.7,427.2 281.7,428.3 282.7,428.3 484.3,428.3 485.3,428.3 
		485.3,427.2 495.3,403.7 495.3,402.7 	"/>
	<polyline fill="none" stroke="#010101" stroke-miterlimit="10" points="402.9,84.2 439,84.2 439,104.1 	"/>
	<polyline fill="none" stroke="#EF4136" stroke-width="5" stroke-miterlimit="10" points="402.9,50 402.9,84.2 370.5,84.2 
		370.5,201.6 316,201.6 316,322 227.6,322 227.6,377.2 	"/>
	<path fill="none" stroke="#010101" stroke-miterlimit="10" d="M406.7,50"/>
	<g>
		<g>
			<path fill="#010101" d="M353.4,45.9v-8h3.2c2.5,0,4.2,1.6,4.2,4c0,2.4-1.7,4-4.2,4H353.4z M359,41.9c0-1.4-0.9-2.5-2.5-2.5h-1.5
				v5h1.5C358.1,44.4,359,43.2,359,41.9z"/>
			<path fill="#010101" d="M361.6,41.9c0-2.4,1.8-4.1,4.2-4.1c2.4,0,4.2,1.7,4.2,4.1c0,2.4-1.8,4.1-4.2,4.1
				C363.4,46,361.6,44.3,361.6,41.9z M368.2,41.9c0-1.5-1-2.6-2.4-2.6c-1.5,0-2.4,1.1-2.4,2.6c0,1.5,0.9,2.6,2.4,2.6
				C367.2,44.5,368.2,43.4,368.2,41.9z"/>
			<path fill="#010101" d="M376.5,45.9v-3.3l-3.1-4.7h1.9l2,3.2l2-3.2h1.9l-3.1,4.7v3.3H376.5z"/>
			<path fill="#010101" d="M381.1,41.9c0-2.4,1.8-4.1,4.2-4.1c2.4,0,4.2,1.7,4.2,4.1c0,2.4-1.8,4.1-4.2,4.1
				C382.9,46,381.1,44.3,381.1,41.9z M387.7,41.9c0-1.5-1-2.6-2.4-2.6c-1.5,0-2.4,1.1-2.4,2.6c0,1.5,0.9,2.6,2.4,2.6
				C386.8,44.5,387.7,43.4,387.7,41.9z"/>
			<path fill="#010101" d="M390.7,42.7v-4.8h1.7v4.7c0,1.1,0.6,1.9,1.9,1.9s1.9-0.8,1.9-1.9v-4.7h1.7v4.8c0,2-1.2,3.3-3.6,3.3
				S390.7,44.7,390.7,42.7z"/>
			<path fill="#010101" d="M408.1,45.9l-3.8-5.2v5.2h-1.7v-8h1.8l3.7,5v-5h1.7v8H408.1z"/>
			<path fill="#010101" d="M411.3,45.9v-8h5.7v1.5h-4v1.7h3.9v1.5H413v1.8h4v1.5H411.3z"/>
			<path fill="#010101" d="M418.3,45.9v-8h5.7v1.5h-4v1.7h3.9v1.5H420v1.8h4v1.5H418.3z"/>
			<path fill="#010101" d="M425.3,45.9v-8h3.2c2.5,0,4.2,1.6,4.2,4c0,2.4-1.7,4-4.2,4H425.3z M430.9,41.9c0-1.4-0.9-2.5-2.5-2.5H427
				v5h1.5C430,44.4,430.9,43.2,430.9,41.9z"/>
			<path fill="#010101" d="M442.5,45.9l-0.5-1.4h-3.4l-0.5,1.4h-1.9l3.1-8h2.1l3.1,8H442.5z M440.3,39.6L439,43h2.5L440.3,39.6z"/>
			<path fill="#010101" d="M450.7,45.9l-3.8-5.2v5.2h-1.7v-8h1.8l3.7,5v-5h1.7v8H450.7z"/>
			<path fill="#010101" d="M364.3,60.3v-8h1.7v8H364.3z"/>
			<path fill="#010101" d="M372.1,60.3l-1.6-2.8h-1.2v2.8h-1.7v-8h3.7c1.7,0,2.7,1.1,2.7,2.6c0,1.4-0.9,2.2-1.8,2.4l1.8,3H372.1z
				 M372.3,54.9c0-0.7-0.5-1.1-1.2-1.1h-1.8v2.2h1.8C371.8,55.9,372.3,55.5,372.3,54.9z"/>
			<path fill="#010101" d="M375.3,60.3v-8h3.2c2.5,0,4.2,1.6,4.2,4c0,2.4-1.7,4-4.2,4H375.3z M381,56.3c0-1.4-0.9-2.5-2.5-2.5H377v5
				h1.5C380.1,58.8,381,57.6,381,56.3z"/>
			<path fill="#010101" d="M392.5,60.3l-3.8-5.2v5.2H387v-8h1.8l3.7,5v-5h1.7v8H392.5z"/>
			<path fill="#010101" d="M395.8,57.1v-4.8h1.7V57c0,1.1,0.6,1.9,1.9,1.9s1.9-0.8,1.9-1.9v-4.8h1.7v4.8c0,2-1.2,3.3-3.6,3.3
				S395.8,59.1,395.8,57.1z"/>
			<path fill="#010101" d="M411.5,60.3v-5.6l-2.3,5.6h-0.7l-2.3-5.6v5.6h-1.7v-8h2.4l1.9,4.8l1.9-4.8h2.4v8H411.5z"/>
			<path fill="#010101" d="M414.8,60.3v-8h4.2c1.5,0,2.3,1,2.3,2c0,1-0.6,1.7-1.4,1.8c0.9,0.1,1.5,1,1.5,2c0,1.2-0.8,2.2-2.3,2.2
				H414.8z M419.6,54.6c0-0.5-0.4-0.9-0.9-0.9h-2.1v1.7h2.1C419.2,55.5,419.6,55.1,419.6,54.6z M419.8,57.9c0-0.5-0.4-0.9-1-0.9
				h-2.2v1.9h2.2C419.4,58.8,419.8,58.5,419.8,57.9z"/>
			<path fill="#010101" d="M422.8,60.3v-8h5.7v1.5h-4v1.7h3.9V57h-3.9v1.8h4v1.5H422.8z"/>
			<path fill="#010101" d="M434.3,60.3l-1.6-2.8h-1.2v2.8h-1.7v-8h3.7c1.7,0,2.7,1.1,2.7,2.6c0,1.4-0.9,2.2-1.8,2.4l1.8,3H434.3z
				 M434.5,54.9c0-0.7-0.5-1.1-1.2-1.1h-1.8v2.2h1.8C433.9,55.9,434.5,55.5,434.5,54.9z"/>
			<path fill="#010101" d="M438.4,56.8c0-1.4,1.8-1.6,1.8-2.4c0-0.4-0.3-0.7-0.9-0.7c-0.6,0-1.1,0.3-1.5,0.7l-1-1.1
				c0.6-0.7,1.6-1.2,2.6-1.2c1.5,0,2.5,0.8,2.5,1.9c0,1.8-2,1.9-2,2.9c0,0.2,0.1,0.4,0.2,0.5l-1.3,0.4
				C438.6,57.6,438.4,57.2,438.4,56.8z M438.4,59.4c0-0.5,0.4-1,1-1c0.5,0,1,0.4,1,1s-0.4,1-1,1C438.9,60.4,438.4,60,438.4,59.4z"/>
		</g>
		<g>
			<rect x="330.7" y="26.4" fill="#E6E6E6" width="144.3" height="45.4"/>
		</g>
		<g>
			<path fill="#231F20" d="M353.4,45.9v-8h3.2c2.5,0,4.2,1.6,4.2,4c0,2.4-1.7,4-4.2,4H353.4z M359,41.9c0-1.4-0.9-2.5-2.5-2.5h-1.5
				v5h1.5C358.1,44.4,359,43.2,359,41.9z"/>
			<path fill="#231F20" d="M361.6,41.9c0-2.4,1.8-4.1,4.2-4.1c2.4,0,4.2,1.7,4.2,4.1c0,2.4-1.8,4.1-4.2,4.1
				C363.4,46,361.6,44.3,361.6,41.9z M368.2,41.9c0-1.5-1-2.6-2.4-2.6c-1.5,0-2.4,1.1-2.4,2.6c0,1.5,0.9,2.6,2.4,2.6
				C367.2,44.5,368.2,43.4,368.2,41.9z"/>
			<path fill="#231F20" d="M376.5,45.9v-3.3l-3.1-4.7h1.9l2,3.2l2-3.2h1.9l-3.1,4.7v3.3H376.5z"/>
			<path fill="#231F20" d="M381.1,41.9c0-2.4,1.8-4.1,4.2-4.1c2.4,0,4.2,1.7,4.2,4.1c0,2.4-1.8,4.1-4.2,4.1
				C382.9,46,381.1,44.3,381.1,41.9z M387.7,41.9c0-1.5-1-2.6-2.4-2.6c-1.5,0-2.4,1.1-2.4,2.6c0,1.5,0.9,2.6,2.4,2.6
				C386.8,44.5,387.7,43.4,387.7,41.9z"/>
			<path fill="#231F20" d="M390.7,42.7v-4.8h1.7v4.7c0,1.1,0.6,1.9,1.9,1.9s1.9-0.8,1.9-1.9v-4.7h1.7v4.8c0,2-1.2,3.3-3.6,3.3
				S390.7,44.7,390.7,42.7z"/>
			<path fill="#231F20" d="M408.1,45.9l-3.8-5.2v5.2h-1.7v-8h1.8l3.7,5v-5h1.7v8H408.1z"/>
			<path fill="#231F20" d="M411.3,45.9v-8h5.7v1.5h-4v1.7h3.9v1.5H413v1.8h4v1.5H411.3z"/>
			<path fill="#231F20" d="M418.3,45.9v-8h5.7v1.5h-4v1.7h3.9v1.5H420v1.8h4v1.5H418.3z"/>
			<path fill="#231F20" d="M425.3,45.9v-8h3.2c2.5,0,4.2,1.6,4.2,4c0,2.4-1.7,4-4.2,4H425.3z M430.9,41.9c0-1.4-0.9-2.5-2.5-2.5H427
				v5h1.5C430,44.4,430.9,43.2,430.9,41.9z"/>
			<path fill="#231F20" d="M442.5,45.9l-0.5-1.4h-3.4l-0.5,1.4h-1.9l3.1-8h2.1l3.1,8H442.5z M440.3,39.6L439,43h2.5L440.3,39.6z"/>
			<path fill="#231F20" d="M450.7,45.9l-3.8-5.2v5.2h-1.7v-8h1.8l3.7,5v-5h1.7v8H450.7z"/>
			<path fill="#231F20" d="M364.3,60.3v-8h1.7v8H364.3z"/>
			<path fill="#231F20" d="M372.1,60.3l-1.6-2.8h-1.2v2.8h-1.7v-8h3.7c1.7,0,2.7,1.1,2.7,2.6c0,1.4-0.9,2.2-1.8,2.4l1.8,3H372.1z
				 M372.3,54.9c0-0.7-0.5-1.1-1.2-1.1h-1.8v2.2h1.8C371.8,55.9,372.3,55.5,372.3,54.9z"/>
			<path fill="#231F20" d="M375.3,60.3v-8h3.2c2.5,0,4.2,1.6,4.2,4c0,2.4-1.7,4-4.2,4H375.3z M381,56.3c0-1.4-0.9-2.5-2.5-2.5H377v5
				h1.5C380.1,58.8,381,57.6,381,56.3z"/>
			<path fill="#231F20" d="M392.5,60.3l-3.8-5.2v5.2H387v-8h1.8l3.7,5v-5h1.7v8H392.5z"/>
			<path fill="#231F20" d="M395.8,57.1v-4.8h1.7V57c0,1.1,0.6,1.9,1.9,1.9s1.9-0.8,1.9-1.9v-4.8h1.7v4.8c0,2-1.2,3.3-3.6,3.3
				S395.8,59.1,395.8,57.1z"/>
			<path fill="#231F20" d="M411.5,60.3v-5.6l-2.3,5.6h-0.7l-2.3-5.6v5.6h-1.7v-8h2.4l1.9,4.8l1.9-4.8h2.4v8H411.5z"/>
			<path fill="#231F20" d="M414.8,60.3v-8h4.2c1.5,0,2.3,1,2.3,2c0,1-0.6,1.7-1.4,1.8c0.9,0.1,1.5,1,1.5,2c0,1.2-0.8,2.2-2.3,2.2
				H414.8z M419.6,54.6c0-0.5-0.4-0.9-0.9-0.9h-2.1v1.7h2.1C419.2,55.5,419.6,55.1,419.6,54.6z M419.8,57.9c0-0.5-0.4-0.9-1-0.9
				h-2.2v1.9h2.2C419.4,58.8,419.8,58.5,419.8,57.9z"/>
			<path fill="#231F20" d="M422.8,60.3v-8h5.7v1.5h-4v1.7h3.9V57h-3.9v1.8h4v1.5H422.8z"/>
			<path fill="#231F20" d="M434.3,60.3l-1.6-2.8h-1.2v2.8h-1.7v-8h3.7c1.7,0,2.7,1.1,2.7,2.6c0,1.4-0.9,2.2-1.8,2.4l1.8,3H434.3z
				 M434.5,54.9c0-0.7-0.5-1.1-1.2-1.1h-1.8v2.2h1.8C433.9,55.9,434.5,55.5,434.5,54.9z"/>
			<path fill="#231F20" d="M438.4,56.8c0-1.4,1.8-1.6,1.8-2.4c0-0.4-0.3-0.7-0.9-0.7c-0.6,0-1.1,0.3-1.5,0.7l-1-1.1
				c0.6-0.7,1.6-1.2,2.6-1.2c1.5,0,2.5,0.8,2.5,1.9c0,1.8-2,1.9-2,2.9c0,0.2,0.1,0.4,0.2,0.5l-1.3,0.4
				C438.6,57.6,438.4,57.2,438.4,56.8z M438.4,59.4c0-0.5,0.4-1,1-1c0.5,0,1,0.4,1,1s-0.4,1-1,1C438.9,60.4,438.4,60,438.4,59.4z"/>
		</g>
	</g>
	<g>
		<g>
			<path fill="#010101" d="M361.6,114.8v-3.3l-3.1-4.7h1.9l2,3.2l2-3.2h1.9l-3.1,4.7v3.3H361.6z"/>
			<path fill="#010101" d="M367.1,114.8v-8h5.7v1.5h-4v1.7h3.9v1.5h-3.9v1.8h4v1.5H367.1z"/>
			<path fill="#010101" d="M373.5,113.6l0.9-1.3c0.6,0.6,1.4,1.1,2.5,1.1c0.9,0,1.4-0.4,1.4-0.9c0-1.4-4.6-0.4-4.6-3.5
				c0-1.3,1.2-2.4,3-2.4c1.3,0,2.3,0.4,3.1,1.1L379,109c-0.6-0.6-1.5-0.9-2.3-0.9c-0.7,0-1.1,0.3-1.1,0.8c0,1.3,4.6,0.4,4.6,3.4
				c0,1.5-1,2.6-3.2,2.6C375.4,114.9,374.3,114.4,373.5,113.6z"/>
		</g>
		<g>
			<rect x="335.8" y="95.3" fill="#FFFFFF" width="67" height="30.9"/>
		</g>
		<g>
			<path fill="#231F20" d="M361.6,114.8v-3.3l-3.1-4.7h1.9l2,3.2l2-3.2h1.9l-3.1,4.7v3.3H361.6z"/>
			<path fill="#231F20" d="M367.1,114.8v-8h5.7v1.5h-4v1.7h3.9v1.5h-3.9v1.8h4v1.5H367.1z"/>
			<path fill="#231F20" d="M373.5,113.6l0.9-1.3c0.6,0.6,1.4,1.1,2.5,1.1c0.9,0,1.4-0.4,1.4-0.9c0-1.4-4.6-0.4-4.6-3.5
				c0-1.3,1.2-2.4,3-2.4c1.3,0,2.3,0.4,3.1,1.1L379,109c-0.6-0.6-1.5-0.9-2.3-0.9c-0.7,0-1.1,0.3-1.1,0.8c0,1.3,4.6,0.4,4.6,3.4
				c0,1.5-1,2.6-3.2,2.6C375.4,114.9,374.3,114.4,373.5,113.6z"/>
		</g>
	</g>
	<g>
		<g>
			<path fill="#010101" d="M435.9,114.8l-3.8-5.2v5.2h-1.7v-8h1.8l3.7,5v-5h1.7v8H435.9z"/>
			<path fill="#010101" d="M438.8,110.8c0-2.4,1.8-4.1,4.2-4.1c2.4,0,4.2,1.7,4.2,4.1c0,2.4-1.8,4.1-4.2,4.1
				C440.5,114.9,438.8,113.2,438.8,110.8z M445.4,110.8c0-1.5-1-2.6-2.4-2.6c-1.5,0-2.4,1.1-2.4,2.6c0,1.5,0.9,2.6,2.4,2.6
				C444.4,113.4,445.4,112.2,445.4,110.8z"/>
		</g>
		<g>
			<rect x="407.7" y="95.3" fill="#FFFFFF" width="62.1" height="31"/>
		</g>
		<g>
			<path fill="#231F20" d="M435.9,114.8l-3.8-5.2v5.2h-1.7v-8h1.8l3.7,5v-5h1.7v8H435.9z"/>
			<path fill="#231F20" d="M438.8,110.8c0-2.4,1.8-4.1,4.2-4.1c2.4,0,4.2,1.7,4.2,4.1c0,2.4-1.8,4.1-4.2,4.1
				C440.5,114.9,438.8,113.2,438.8,110.8z M445.4,110.8c0-1.5-1-2.6-2.4-2.6c-1.5,0-2.4,1.1-2.4,2.6c0,1.5,0.9,2.6,2.4,2.6
				C444.4,113.4,445.4,112.2,445.4,110.8z"/>
		</g>
	</g>
	<g>
		<g>
			<path fill="#010101" d="M349.7,161.4l-0.5-1.4h-3.4l-0.5,1.4h-1.9l3.1-8h2.1l3.1,8H349.7z M347.5,155.1l-1.2,3.4h2.5L347.5,155.1
				z"/>
			<path fill="#010101" d="M356.9,161.4l-1.6-2.8h-1.2v2.8h-1.7v-8h3.7c1.7,0,2.7,1.1,2.7,2.6c0,1.4-0.9,2.2-1.8,2.4l1.8,3H356.9z
				 M357,156c0-0.7-0.5-1.1-1.2-1.1h-1.8v2.2h1.8C356.5,157.1,357,156.6,357,156z"/>
			<path fill="#010101" d="M360.1,161.4v-8h5.7v1.5h-4v1.7h3.9v1.5h-3.9v1.8h4v1.5H360.1z"/>
			<path fill="#010101" d="M372.4,161.4v-3.3l-3.1-4.7h1.9l2,3.2l2-3.2h1.9l-3.1,4.7v3.3H372.4z"/>
			<path fill="#010101" d="M377,157.4c0-2.4,1.8-4.1,4.2-4.1c2.4,0,4.2,1.7,4.2,4.1c0,2.4-1.8,4.1-4.2,4.1
				C378.8,161.5,377,159.8,377,157.4z M383.6,157.4c0-1.5-1-2.6-2.4-2.6c-1.5,0-2.4,1.1-2.4,2.6c0,1.5,0.9,2.6,2.4,2.6
				C382.7,160,383.6,158.9,383.6,157.4z"/>
			<path fill="#010101" d="M386.6,158.2v-4.8h1.7v4.8c0,1.1,0.6,1.9,1.9,1.9s1.9-0.8,1.9-1.9v-4.8h1.7v4.8c0,2-1.2,3.3-3.6,3.3
				S386.6,160.2,386.6,158.2z"/>
			<path fill="#010101" d="M395.1,156.5c0-0.5,0.4-1,1-1s1,0.4,1,1c0,0.5-0.4,1-1,1S395.1,157,395.1,156.5z M395.1,160.6
				c0-0.5,0.4-1,1-1s1,0.4,1,1s-0.4,1-1,1S395.1,161.1,395.1,160.6z"/>
			<path fill="#010101" d="M285.1,175.8v-8h1.7v8H285.1z"/>
			<path fill="#010101" d="M293.9,175.8l-3.8-5.2v5.2h-1.7v-8h1.8l3.7,5v-5h1.7v8H293.9z"/>
			<path fill="#010101" d="M297.2,175.8v-8h3.2c2.5,0,4.2,1.6,4.2,4c0,2.4-1.7,4-4.2,4H297.2z M302.8,171.8c0-1.4-0.9-2.5-2.5-2.5
				h-1.5v5h1.5C301.9,174.3,302.8,173.2,302.8,171.8z"/>
			<path fill="#010101" d="M305.8,175.8v-8h1.7v8H305.8z"/>
			<path fill="#010101" d="M311.3,175.8l-3.1-8h1.9l2.2,6.2l2.2-6.2h1.9l-3.1,8H311.3z"/>
			<path fill="#010101" d="M317.3,175.8v-8h1.7v8H317.3z"/>
			<path fill="#010101" d="M320.6,175.8v-8h3.2c2.5,0,4.2,1.6,4.2,4c0,2.4-1.7,4-4.2,4H320.6z M326.2,171.8c0-1.4-0.9-2.5-2.5-2.5
				h-1.5v5h1.5C325.3,174.3,326.2,173.2,326.2,171.8z"/>
			<path fill="#010101" d="M329.2,172.6v-4.8h1.7v4.7c0,1.1,0.6,1.9,1.9,1.9s1.9-0.8,1.9-1.9v-4.7h1.7v4.8c0,2-1.2,3.3-3.6,3.3
				S329.2,174.6,329.2,172.6z"/>
			<path fill="#010101" d="M343.1,175.8l-0.5-1.4h-3.4l-0.5,1.4h-1.9l3.1-8h2.1l3.1,8H343.1z M340.9,169.5l-1.2,3.4h2.5L340.9,169.5
				z"/>
			<path fill="#010101" d="M345.8,175.8v-8h1.7v6.5h3.4v1.5H345.8z"/>
			<path fill="#010101" d="M351.3,176l2.8-8.5h1.1l-2.8,8.5H351.3z"/>
			<path fill="#010101" d="M361.5,175.8l-3.8-5.2v5.2H356v-8h1.8l3.7,5v-5h1.7v8H361.5z"/>
			<path fill="#010101" d="M364.4,171.8c0-2.4,1.8-4.1,4.2-4.1c2.4,0,4.2,1.7,4.2,4.1c0,2.4-1.8,4.1-4.2,4.1
				C366.1,175.9,364.4,174.2,364.4,171.8z M371,171.8c0-1.5-1-2.6-2.4-2.6c-1.5,0-2.4,1.1-2.4,2.6c0,1.5,0.9,2.6,2.4,2.6
				C370,174.4,371,173.3,371,171.8z"/>
			<path fill="#010101" d="M379.5,175.8l-3.8-5.2v5.2h-1.7v-8h1.8l3.7,5v-5h1.7v8H379.5z"/>
			<path fill="#010101" d="M382.3,173.5v-1.3h2.9v1.3H382.3z"/>
			<path fill="#010101" d="M386.3,175.8v-8h1.7v8H386.3z"/>
			<path fill="#010101" d="M395.1,175.8l-3.8-5.2v5.2h-1.7v-8h1.8l3.7,5v-5h1.7v8H395.1z"/>
			<path fill="#010101" d="M398.3,175.8v-8h3.2c2.5,0,4.2,1.6,4.2,4c0,2.4-1.7,4-4.2,4H398.3z M404,171.8c0-1.4-0.9-2.5-2.5-2.5H400
				v5h1.5C403.1,174.3,404,173.2,404,171.8z"/>
			<path fill="#010101" d="M406.9,175.8v-8h1.7v8H406.9z"/>
			<path fill="#010101" d="M412.5,175.8l-3.1-8h1.9l2.2,6.2l2.2-6.2h1.9l-3.1,8H412.5z"/>
			<path fill="#010101" d="M418.4,175.8v-8h1.7v8H418.4z"/>
			<path fill="#010101" d="M421.7,175.8v-8h3.2c2.5,0,4.2,1.6,4.2,4c0,2.4-1.7,4-4.2,4H421.7z M427.4,171.8c0-1.4-0.9-2.5-2.5-2.5
				h-1.5v5h1.5C426.5,174.3,427.4,173.2,427.4,171.8z"/>
			<path fill="#010101" d="M430.3,172.6v-4.8h1.7v4.7c0,1.1,0.6,1.9,1.9,1.9s1.9-0.8,1.9-1.9v-4.7h1.7v4.8c0,2-1.2,3.3-3.6,3.3
				S430.3,174.6,430.3,172.6z"/>
			<path fill="#010101" d="M444.3,175.8l-0.5-1.4h-3.4l-0.5,1.4h-1.9l3.1-8h2.1l3.1,8H444.3z M442,169.5l-1.2,3.4h2.5L442,169.5z"/>
			<path fill="#010101" d="M446.9,175.8v-8h1.7v6.5h3.4v1.5H446.9z"/>
			<path fill="#010101" d="M452.9,172.3c0-1.4,1.8-1.6,1.8-2.4c0-0.4-0.3-0.7-0.9-0.7c-0.6,0-1.1,0.3-1.5,0.7l-1-1.1
				c0.6-0.7,1.6-1.2,2.6-1.2c1.5,0,2.5,0.8,2.5,1.9c0,1.8-2,1.9-2,2.9c0,0.2,0.1,0.4,0.2,0.5l-1.3,0.4
				C453,173.1,452.9,172.7,452.9,172.3z M452.9,175c0-0.5,0.4-1,1-1c0.5,0,1,0.4,1,1c0,0.5-0.4,1-1,1
				C453.3,175.9,452.9,175.5,452.9,175z"/>
		</g>
		<g>
			<rect x="262.4" y="141.9" fill="#E5E5E5" width="216.6" height="45.4"/>
		</g>
		<g>
			<path fill="#231F20" d="M349.7,161.4l-0.5-1.4h-3.4l-0.5,1.4h-1.9l3.1-8h2.1l3.1,8H349.7z M347.5,155.1l-1.2,3.4h2.5L347.5,155.1
				z"/>
			<path fill="#231F20" d="M356.9,161.4l-1.6-2.8h-1.2v2.8h-1.7v-8h3.7c1.7,0,2.7,1.1,2.7,2.6c0,1.4-0.9,2.2-1.8,2.4l1.8,3H356.9z
				 M357,156c0-0.7-0.5-1.1-1.2-1.1h-1.8v2.2h1.8C356.5,157.1,357,156.6,357,156z"/>
			<path fill="#231F20" d="M360.1,161.4v-8h5.7v1.5h-4v1.7h3.9v1.5h-3.9v1.8h4v1.5H360.1z"/>
			<path fill="#231F20" d="M372.4,161.4v-3.3l-3.1-4.7h1.9l2,3.2l2-3.2h1.9l-3.1,4.7v3.3H372.4z"/>
			<path fill="#231F20" d="M377,157.4c0-2.4,1.8-4.1,4.2-4.1c2.4,0,4.2,1.7,4.2,4.1c0,2.4-1.8,4.1-4.2,4.1
				C378.8,161.5,377,159.8,377,157.4z M383.6,157.4c0-1.5-1-2.6-2.4-2.6c-1.5,0-2.4,1.1-2.4,2.6c0,1.5,0.9,2.6,2.4,2.6
				C382.7,160,383.6,158.9,383.6,157.4z"/>
			<path fill="#231F20" d="M386.6,158.2v-4.8h1.7v4.8c0,1.1,0.6,1.9,1.9,1.9s1.9-0.8,1.9-1.9v-4.8h1.7v4.8c0,2-1.2,3.3-3.6,3.3
				S386.6,160.2,386.6,158.2z"/>
			<path fill="#231F20" d="M395.1,156.5c0-0.5,0.4-1,1-1s1,0.4,1,1c0,0.5-0.4,1-1,1S395.1,157,395.1,156.5z M395.1,160.6
				c0-0.5,0.4-1,1-1s1,0.4,1,1s-0.4,1-1,1S395.1,161.1,395.1,160.6z"/>
			<path fill="#231F20" d="M285.1,175.8v-8h1.7v8H285.1z"/>
			<path fill="#231F20" d="M293.9,175.8l-3.8-5.2v5.2h-1.7v-8h1.8l3.7,5v-5h1.7v8H293.9z"/>
			<path fill="#231F20" d="M297.2,175.8v-8h3.2c2.5,0,4.2,1.6,4.2,4c0,2.4-1.7,4-4.2,4H297.2z M302.8,171.8c0-1.4-0.9-2.5-2.5-2.5
				h-1.5v5h1.5C301.9,174.3,302.8,173.2,302.8,171.8z"/>
			<path fill="#231F20" d="M305.8,175.8v-8h1.7v8H305.8z"/>
			<path fill="#231F20" d="M311.3,175.8l-3.1-8h1.9l2.2,6.2l2.2-6.2h1.9l-3.1,8H311.3z"/>
			<path fill="#231F20" d="M317.3,175.8v-8h1.7v8H317.3z"/>
			<path fill="#231F20" d="M320.6,175.8v-8h3.2c2.5,0,4.2,1.6,4.2,4c0,2.4-1.7,4-4.2,4H320.6z M326.2,171.8c0-1.4-0.9-2.5-2.5-2.5
				h-1.5v5h1.5C325.3,174.3,326.2,173.2,326.2,171.8z"/>
			<path fill="#231F20" d="M329.2,172.6v-4.8h1.7v4.7c0,1.1,0.6,1.9,1.9,1.9s1.9-0.8,1.9-1.9v-4.7h1.7v4.8c0,2-1.2,3.3-3.6,3.3
				S329.2,174.6,329.2,172.6z"/>
			<path fill="#231F20" d="M343.1,175.8l-0.5-1.4h-3.4l-0.5,1.4h-1.9l3.1-8h2.1l3.1,8H343.1z M340.9,169.5l-1.2,3.4h2.5L340.9,169.5
				z"/>
			<path fill="#231F20" d="M345.8,175.8v-8h1.7v6.5h3.4v1.5H345.8z"/>
			<path fill="#231F20" d="M351.3,176l2.8-8.5h1.1l-2.8,8.5H351.3z"/>
			<path fill="#231F20" d="M361.5,175.8l-3.8-5.2v5.2H356v-8h1.8l3.7,5v-5h1.7v8H361.5z"/>
			<path fill="#231F20" d="M364.4,171.8c0-2.4,1.8-4.1,4.2-4.1c2.4,0,4.2,1.7,4.2,4.1c0,2.4-1.8,4.1-4.2,4.1
				C366.1,175.9,364.4,174.2,364.4,171.8z M371,171.8c0-1.5-1-2.6-2.4-2.6c-1.5,0-2.4,1.1-2.4,2.6c0,1.5,0.9,2.6,2.4,2.6
				C370,174.4,371,173.3,371,171.8z"/>
			<path fill="#231F20" d="M379.5,175.8l-3.8-5.2v5.2h-1.7v-8h1.8l3.7,5v-5h1.7v8H379.5z"/>
			<path fill="#231F20" d="M382.3,173.5v-1.3h2.9v1.3H382.3z"/>
			<path fill="#231F20" d="M386.3,175.8v-8h1.7v8H386.3z"/>
			<path fill="#231F20" d="M395.1,175.8l-3.8-5.2v5.2h-1.7v-8h1.8l3.7,5v-5h1.7v8H395.1z"/>
			<path fill="#231F20" d="M398.3,175.8v-8h3.2c2.5,0,4.2,1.6,4.2,4c0,2.4-1.7,4-4.2,4H398.3z M404,171.8c0-1.4-0.9-2.5-2.5-2.5H400
				v5h1.5C403.1,174.3,404,173.2,404,171.8z"/>
			<path fill="#231F20" d="M406.9,175.8v-8h1.7v8H406.9z"/>
			<path fill="#231F20" d="M412.5,175.8l-3.1-8h1.9l2.2,6.2l2.2-6.2h1.9l-3.1,8H412.5z"/>
			<path fill="#231F20" d="M418.4,175.8v-8h1.7v8H418.4z"/>
			<path fill="#231F20" d="M421.7,175.8v-8h3.2c2.5,0,4.2,1.6,4.2,4c0,2.4-1.7,4-4.2,4H421.7z M427.4,171.8c0-1.4-0.9-2.5-2.5-2.5
				h-1.5v5h1.5C426.5,174.3,427.4,173.2,427.4,171.8z"/>
			<path fill="#231F20" d="M430.3,172.6v-4.8h1.7v4.7c0,1.1,0.6,1.9,1.9,1.9s1.9-0.8,1.9-1.9v-4.7h1.7v4.8c0,2-1.2,3.3-3.6,3.3
				S430.3,174.6,430.3,172.6z"/>
			<path fill="#231F20" d="M444.3,175.8l-0.5-1.4h-3.4l-0.5,1.4h-1.9l3.1-8h2.1l3.1,8H444.3z M442,169.5l-1.2,3.4h2.5L442,169.5z"/>
			<path fill="#231F20" d="M446.9,175.8v-8h1.7v6.5h3.4v1.5H446.9z"/>
			<path fill="#231F20" d="M452.9,172.3c0-1.4,1.8-1.6,1.8-2.4c0-0.4-0.3-0.7-0.9-0.7c-0.6,0-1.1,0.3-1.5,0.7l-1-1.1
				c0.6-0.7,1.6-1.2,2.6-1.2c1.5,0,2.5,0.8,2.5,1.9c0,1.8-2,1.9-2,2.9c0,0.2,0.1,0.4,0.2,0.5l-1.3,0.4
				C453,173.1,452.9,172.7,452.9,172.3z M452.9,175c0-0.5,0.4-1,1-1c0.5,0,1,0.4,1,1c0,0.5-0.4,1-1,1
				C453.3,175.9,452.9,175.5,452.9,175z"/>
		</g>
	</g>
	<g>
		<g>
			<path fill="#010101" d="M279.2,278.6l-0.5-1.4h-3.4l-0.5,1.4h-1.9l3.1-8h2.1l3.1,8H279.2z M277,272.3l-1.2,3.4h2.5L277,272.3z"/>
			<path fill="#010101" d="M281.9,278.6v-8h3.7c1.7,0,2.7,1.2,2.7,2.6c0,1.4-1,2.6-2.7,2.6h-2v2.8H281.9z M286.6,273.2
				c0-0.7-0.5-1.1-1.2-1.1h-1.8v2.2h1.8C286,274.3,286.6,273.9,286.6,273.2z"/>
			<path fill="#010101" d="M289.3,278.6v-8h3.7c1.7,0,2.7,1.2,2.7,2.6c0,1.4-1,2.6-2.7,2.6h-2v2.8H289.3z M294,273.2
				c0-0.7-0.5-1.1-1.2-1.1h-1.8v2.2h1.8C293.5,274.3,294,273.9,294,273.2z"/>
			<path fill="#010101" d="M296.8,278.6v-8h1.7v6.5h3.4v1.5H296.8z"/>
			<path fill="#010101" d="M303.8,278.6v-3.3l-3.1-4.7h1.9l2,3.2l2-3.2h1.9l-3.1,4.7v3.3H303.8z"/>
			<path fill="#010101" d="M309.3,278.6v-8h1.7v8H309.3z"/>
			<path fill="#010101" d="M318.1,278.6l-3.8-5.2v5.2h-1.7v-8h1.8l3.7,5v-5h1.7v8H318.1z"/>
			<path fill="#010101" d="M321,274.6c0-2.5,1.9-4.1,4.3-4.1c1.7,0,2.7,0.8,3.3,1.8l-1.4,0.8c-0.4-0.6-1-1-1.9-1
				c-1.5,0-2.5,1.1-2.5,2.6c0,1.5,1.1,2.6,2.5,2.6c0.7,0,1.4-0.3,1.7-0.6v-1h-2.1v-1.5h3.8v3.1c-0.8,0.9-2,1.5-3.4,1.5
				C322.9,278.8,321,277.1,321,274.6z"/>
			<path fill="#010101" d="M333.1,278.6v-8h5.7v1.5h-4v1.7h3.9v1.5h-3.9v3.3H333.1z"/>
			<path fill="#010101" d="M339.5,274.6c0-2.4,1.8-4.1,4.2-4.1c2.4,0,4.2,1.7,4.2,4.1c0,2.4-1.8,4.1-4.2,4.1
				C341.3,278.8,339.5,277,339.5,274.6z M346.2,274.6c0-1.5-1-2.6-2.4-2.6c-1.5,0-2.4,1.1-2.4,2.6c0,1.5,0.9,2.6,2.4,2.6
				C345.2,277.3,346.2,276.1,346.2,274.6z"/>
			<path fill="#010101" d="M353.6,278.6l-1.6-2.8h-1.2v2.8h-1.7v-8h3.7c1.7,0,2.7,1.1,2.7,2.6c0,1.4-0.9,2.2-1.8,2.4l1.8,3H353.6z
				 M353.8,273.2c0-0.7-0.5-1.1-1.2-1.1h-1.8v2.2h1.8C353.3,274.3,353.8,273.9,353.8,273.2z"/>
			<path fill="#010101" d="M356.6,273.7c0-0.5,0.4-1,1-1s1,0.4,1,1c0,0.5-0.4,1-1,1S356.6,274.2,356.6,273.7z M356.6,277.8
				c0-0.5,0.4-1,1-1s1,0.4,1,1c0,0.5-0.4,1-1,1S356.6,278.3,356.6,277.8z"/>
			<path fill="#010101" d="M196.9,293v-3.3l-3.1-4.7h1.9l2,3.2l2-3.2h1.9l-3.1,4.7v3.3H196.9z"/>
			<path fill="#010101" d="M201.5,289c0-2.4,1.8-4.1,4.2-4.1c2.4,0,4.2,1.7,4.2,4.1c0,2.4-1.8,4.1-4.2,4.1
				C203.3,293.2,201.5,291.4,201.5,289z M208.1,289c0-1.5-1-2.6-2.4-2.6c-1.5,0-2.4,1.1-2.4,2.6c0,1.5,0.9,2.6,2.4,2.6
				C207.2,291.7,208.1,290.5,208.1,289z"/>
			<path fill="#010101" d="M211.1,289.8V285h1.7v4.8c0,1.1,0.6,1.9,1.9,1.9s1.9-0.8,1.9-1.9V285h1.7v4.8c0,2-1.2,3.3-3.6,3.3
				S211.1,291.8,211.1,289.8z"/>
			<path fill="#010101" d="M224.4,293l-1.6-2.8h-1.2v2.8h-1.7v-8h3.7c1.7,0,2.7,1.1,2.7,2.6c0,1.4-0.9,2.2-1.8,2.4l1.8,3H224.4z
				 M224.6,287.6c0-0.7-0.5-1.1-1.2-1.1h-1.8v2.2h1.8C224.1,288.7,224.6,288.3,224.6,287.6z"/>
			<path fill="#010101" d="M227.1,291.9l0.9-1.3c0.6,0.6,1.4,1.1,2.5,1.1c0.9,0,1.4-0.4,1.4-0.9c0-1.4-4.6-0.4-4.6-3.5
				c0-1.3,1.2-2.4,3-2.4c1.3,0,2.3,0.4,3.1,1.1l-0.9,1.2c-0.6-0.6-1.5-0.9-2.3-0.9c-0.7,0-1.1,0.3-1.1,0.8c0,1.3,4.6,0.4,4.6,3.4
				c0,1.5-1,2.6-3.2,2.6C228.9,293.2,227.8,292.6,227.1,291.9z"/>
			<path fill="#010101" d="M234.8,293v-8h5.7v1.5h-4v1.7h3.9v1.5h-3.9v1.8h4v1.5H234.8z"/>
			<path fill="#010101" d="M241.8,293v-8h1.7v6.5h3.4v1.5H241.8z"/>
			<path fill="#010101" d="M248.1,293v-8h5.7v1.5h-4v1.7h3.9v1.5h-3.9v3.3H248.1z"/>
			<path fill="#010101" d="M257.2,293.3l2.8-8.5h1.1l-2.8,8.5H257.2z"/>
			<path fill="#010101" d="M270.5,293l-0.5-1.4h-3.4l-0.5,1.4h-1.9l3.1-8h2.1l3.1,8H270.5z M268.3,286.7l-1.2,3.4h2.5L268.3,286.7z"
				/>
			<path fill="#010101" d="M275.9,289c0-2.5,1.9-4.1,4.3-4.1c1.8,0,2.8,1,3.3,2l-1.5,0.7c-0.3-0.6-1.1-1.2-1.9-1.2
				c-1.5,0-2.5,1.1-2.5,2.6c0,1.5,1.1,2.6,2.5,2.6c0.8,0,1.5-0.5,1.9-1.2l1.5,0.7c-0.6,1-1.6,2-3.3,2
				C277.8,293.2,275.9,291.5,275.9,289z"/>
			<path fill="#010101" d="M290,293v-3.4h-3.8v3.4h-1.7v-8h1.7v3.1h3.8V285h1.7v8H290z"/>
			<path fill="#010101" d="M293.3,293v-8h1.7v8H293.3z"/>
			<path fill="#010101" d="M296.6,293v-8h1.7v6.5h3.4v1.5H296.6z"/>
			<path fill="#010101" d="M302.9,293v-8h3.2c2.5,0,4.2,1.6,4.2,4c0,2.4-1.7,4-4.2,4H302.9z M308.6,289c0-1.4-0.9-2.5-2.5-2.5h-1.5
				v5h1.5C307.6,291.5,308.6,290.4,308.6,289z"/>
			<path fill="#010101" d="M314.6,289.8V285h1.7v4.8c0,1.1,0.6,1.9,1.9,1.9s1.9-0.8,1.9-1.9V285h1.7v4.8c0,2-1.2,3.3-3.6,3.3
				S314.6,291.8,314.6,289.8z"/>
			<path fill="#010101" d="M328.9,293l-3.8-5.2v5.2h-1.7v-8h1.8l3.7,5v-5h1.7v8H328.9z"/>
			<path fill="#010101" d="M332.1,293v-8h3.2c2.5,0,4.2,1.6,4.2,4c0,2.4-1.7,4-4.2,4H332.1z M337.8,289c0-1.4-0.9-2.5-2.5-2.5h-1.5
				v5h1.5C336.9,291.5,337.8,290.4,337.8,289z"/>
			<path fill="#010101" d="M340.7,293v-8h5.7v1.5h-4v1.7h3.9v1.5h-3.9v1.8h4v1.5H340.7z"/>
			<path fill="#010101" d="M352.3,293l-1.6-2.8h-1.2v2.8h-1.7v-8h3.7c1.7,0,2.7,1.1,2.7,2.6c0,1.4-0.9,2.2-1.8,2.4l1.8,3H352.3z
				 M352.4,287.6c0-0.7-0.5-1.1-1.2-1.1h-1.8v2.2h1.8C351.9,288.7,352.4,288.3,352.4,287.6z"/>
			<path fill="#010101" d="M360.2,293v-5.8l-1.3,1.4l-1-1l2.5-2.5h1.5v8H360.2z"/>
			<path fill="#010101" d="M363.1,289c0-2.4,1.4-4.1,3.7-4.1c1,0,1.8,0.3,2.4,0.8l-0.8,1.3c-0.4-0.4-0.9-0.6-1.6-0.6
				c-1.2,0-2,1-2,2.3c0,0.1,0,0.1,0,0.2c0.4-0.5,1.2-1,2.1-1c1.4,0,2.7,0.9,2.7,2.6c0,1.6-1.2,2.7-3.1,2.7
				C364.1,293.2,363.1,291.3,363.1,289z M367.9,290.5c0-0.8-0.7-1.2-1.5-1.2c-0.6,0-1.2,0.3-1.6,0.8c0.1,0.8,0.5,1.6,1.6,1.6
				C367.4,291.7,367.9,291,367.9,290.5z"/>
			<path fill="#010101" d="M376.1,293v-3.3L373,285h1.9l2,3.2l2-3.2h1.9l-3.1,4.7v3.3H376.1z"/>
			<path fill="#010101" d="M381.6,293v-8h5.7v1.5h-4v1.7h3.9v1.5h-3.9v1.8h4v1.5H381.6z"/>
			<path fill="#010101" d="M394.1,293l-0.5-1.4h-3.4l-0.5,1.4h-1.9l3.1-8h2.1l3.1,8H394.1z M391.9,286.7l-1.2,3.4h2.5L391.9,286.7z"
				/>
			<path fill="#010101" d="M401.3,293l-1.6-2.8h-1.2v2.8h-1.7v-8h3.7c1.7,0,2.7,1.1,2.7,2.6c0,1.4-0.9,2.2-1.8,2.4l1.8,3H401.3z
				 M401.5,287.6c0-0.7-0.5-1.1-1.2-1.1h-1.8v2.2h1.8C400.9,288.7,401.5,288.3,401.5,287.6z"/>
			<path fill="#010101" d="M403.9,291.9l0.9-1.3c0.6,0.6,1.4,1.1,2.5,1.1c0.9,0,1.4-0.4,1.4-0.9c0-1.4-4.6-0.4-4.6-3.5
				c0-1.3,1.2-2.4,3-2.4c1.3,0,2.3,0.4,3.1,1.1l-0.9,1.2c-0.6-0.6-1.5-0.9-2.3-0.9c-0.7,0-1.1,0.3-1.1,0.8c0,1.3,4.6,0.4,4.6,3.4
				c0,1.5-1,2.6-3.2,2.6C405.8,293.2,404.7,292.6,403.9,291.9z"/>
			<path fill="#010101" d="M414.4,289c0-2.4,1.8-4.1,4.2-4.1c2.4,0,4.2,1.7,4.2,4.1c0,2.4-1.8,4.1-4.2,4.1
				C416.1,293.2,414.4,291.4,414.4,289z M421,289c0-1.5-1-2.6-2.4-2.6c-1.5,0-2.4,1.1-2.4,2.6c0,1.5,0.9,2.6,2.4,2.6
				C420,291.7,421,290.5,421,289z"/>
			<path fill="#010101" d="M423.9,293v-8h1.7v6.5h3.4v1.5H423.9z"/>
			<path fill="#010101" d="M430.2,293v-8h3.2c2.5,0,4.2,1.6,4.2,4c0,2.4-1.7,4-4.2,4H430.2z M435.9,289c0-1.4-0.9-2.5-2.5-2.5h-1.5
				v5h1.5C434.9,291.5,435.9,290.4,435.9,289z"/>
		</g>
		<g>
			<rect x="171.1" y="259.1" fill="#E5E5E5" width="289.2" height="45.4"/>
		</g>
		<g>
			<path fill="#231F20" d="M279.2,278.6l-0.5-1.4h-3.4l-0.5,1.4h-1.9l3.1-8h2.1l3.1,8H279.2z M277,272.3l-1.2,3.4h2.5L277,272.3z"/>
			<path fill="#231F20" d="M281.9,278.6v-8h3.7c1.7,0,2.7,1.2,2.7,2.6c0,1.4-1,2.6-2.7,2.6h-2v2.8H281.9z M286.6,273.2
				c0-0.7-0.5-1.1-1.2-1.1h-1.8v2.2h1.8C286,274.3,286.6,273.9,286.6,273.2z"/>
			<path fill="#231F20" d="M289.3,278.6v-8h3.7c1.7,0,2.7,1.2,2.7,2.6c0,1.4-1,2.6-2.7,2.6h-2v2.8H289.3z M294,273.2
				c0-0.7-0.5-1.1-1.2-1.1h-1.8v2.2h1.8C293.5,274.3,294,273.9,294,273.2z"/>
			<path fill="#231F20" d="M296.8,278.6v-8h1.7v6.5h3.4v1.5H296.8z"/>
			<path fill="#231F20" d="M303.8,278.6v-3.3l-3.1-4.7h1.9l2,3.2l2-3.2h1.9l-3.1,4.7v3.3H303.8z"/>
			<path fill="#231F20" d="M309.3,278.6v-8h1.7v8H309.3z"/>
			<path fill="#231F20" d="M318.1,278.6l-3.8-5.2v5.2h-1.7v-8h1.8l3.7,5v-5h1.7v8H318.1z"/>
			<path fill="#231F20" d="M321,274.6c0-2.5,1.9-4.1,4.3-4.1c1.7,0,2.7,0.8,3.3,1.8l-1.4,0.8c-0.4-0.6-1-1-1.9-1
				c-1.5,0-2.5,1.1-2.5,2.6c0,1.5,1.1,2.6,2.5,2.6c0.7,0,1.4-0.3,1.7-0.6v-1h-2.1v-1.5h3.8v3.1c-0.8,0.9-2,1.5-3.4,1.5
				C322.9,278.8,321,277.1,321,274.6z"/>
			<path fill="#231F20" d="M333.1,278.6v-8h5.7v1.5h-4v1.7h3.9v1.5h-3.9v3.3H333.1z"/>
			<path fill="#231F20" d="M339.5,274.6c0-2.4,1.8-4.1,4.2-4.1c2.4,0,4.2,1.7,4.2,4.1c0,2.4-1.8,4.1-4.2,4.1
				C341.3,278.8,339.5,277,339.5,274.6z M346.2,274.6c0-1.5-1-2.6-2.4-2.6c-1.5,0-2.4,1.1-2.4,2.6c0,1.5,0.9,2.6,2.4,2.6
				C345.2,277.3,346.2,276.1,346.2,274.6z"/>
			<path fill="#231F20" d="M353.6,278.6l-1.6-2.8h-1.2v2.8h-1.7v-8h3.7c1.7,0,2.7,1.1,2.7,2.6c0,1.4-0.9,2.2-1.8,2.4l1.8,3H353.6z
				 M353.8,273.2c0-0.7-0.5-1.1-1.2-1.1h-1.8v2.2h1.8C353.3,274.3,353.8,273.9,353.8,273.2z"/>
			<path fill="#231F20" d="M356.6,273.7c0-0.5,0.4-1,1-1s1,0.4,1,1c0,0.5-0.4,1-1,1S356.6,274.2,356.6,273.7z M356.6,277.8
				c0-0.5,0.4-1,1-1s1,0.4,1,1c0,0.5-0.4,1-1,1S356.6,278.3,356.6,277.8z"/>
			<path fill="#231F20" d="M196.9,293v-3.3l-3.1-4.7h1.9l2,3.2l2-3.2h1.9l-3.1,4.7v3.3H196.9z"/>
			<path fill="#231F20" d="M201.5,289c0-2.4,1.8-4.1,4.2-4.1c2.4,0,4.2,1.7,4.2,4.1c0,2.4-1.8,4.1-4.2,4.1
				C203.3,293.2,201.5,291.4,201.5,289z M208.1,289c0-1.5-1-2.6-2.4-2.6c-1.5,0-2.4,1.1-2.4,2.6c0,1.5,0.9,2.6,2.4,2.6
				C207.2,291.7,208.1,290.5,208.1,289z"/>
			<path fill="#231F20" d="M211.1,289.8V285h1.7v4.8c0,1.1,0.6,1.9,1.9,1.9s1.9-0.8,1.9-1.9V285h1.7v4.8c0,2-1.2,3.3-3.6,3.3
				S211.1,291.8,211.1,289.8z"/>
			<path fill="#231F20" d="M224.4,293l-1.6-2.8h-1.2v2.8h-1.7v-8h3.7c1.7,0,2.7,1.1,2.7,2.6c0,1.4-0.9,2.2-1.8,2.4l1.8,3H224.4z
				 M224.6,287.6c0-0.7-0.5-1.1-1.2-1.1h-1.8v2.2h1.8C224.1,288.7,224.6,288.3,224.6,287.6z"/>
			<path fill="#231F20" d="M227.1,291.9l0.9-1.3c0.6,0.6,1.4,1.1,2.5,1.1c0.9,0,1.4-0.4,1.4-0.9c0-1.4-4.6-0.4-4.6-3.5
				c0-1.3,1.2-2.4,3-2.4c1.3,0,2.3,0.4,3.1,1.1l-0.9,1.2c-0.6-0.6-1.5-0.9-2.3-0.9c-0.7,0-1.1,0.3-1.1,0.8c0,1.3,4.6,0.4,4.6,3.4
				c0,1.5-1,2.6-3.2,2.6C228.9,293.2,227.8,292.6,227.1,291.9z"/>
			<path fill="#231F20" d="M234.8,293v-8h5.7v1.5h-4v1.7h3.9v1.5h-3.9v1.8h4v1.5H234.8z"/>
			<path fill="#231F20" d="M241.8,293v-8h1.7v6.5h3.4v1.5H241.8z"/>
			<path fill="#231F20" d="M248.1,293v-8h5.7v1.5h-4v1.7h3.9v1.5h-3.9v3.3H248.1z"/>
			<path fill="#231F20" d="M257.2,293.3l2.8-8.5h1.1l-2.8,8.5H257.2z"/>
			<path fill="#231F20" d="M270.5,293l-0.5-1.4h-3.4l-0.5,1.4h-1.9l3.1-8h2.1l3.1,8H270.5z M268.3,286.7l-1.2,3.4h2.5L268.3,286.7z"
				/>
			<path fill="#231F20" d="M275.9,289c0-2.5,1.9-4.1,4.3-4.1c1.8,0,2.8,1,3.3,2l-1.5,0.7c-0.3-0.6-1.1-1.2-1.9-1.2
				c-1.5,0-2.5,1.1-2.5,2.6c0,1.5,1.1,2.6,2.5,2.6c0.8,0,1.5-0.5,1.9-1.2l1.5,0.7c-0.6,1-1.6,2-3.3,2
				C277.8,293.2,275.9,291.5,275.9,289z"/>
			<path fill="#231F20" d="M290,293v-3.4h-3.8v3.4h-1.7v-8h1.7v3.1h3.8V285h1.7v8H290z"/>
			<path fill="#231F20" d="M293.3,293v-8h1.7v8H293.3z"/>
			<path fill="#231F20" d="M296.6,293v-8h1.7v6.5h3.4v1.5H296.6z"/>
			<path fill="#231F20" d="M302.9,293v-8h3.2c2.5,0,4.2,1.6,4.2,4c0,2.4-1.7,4-4.2,4H302.9z M308.6,289c0-1.4-0.9-2.5-2.5-2.5h-1.5
				v5h1.5C307.6,291.5,308.6,290.4,308.6,289z"/>
			<path fill="#231F20" d="M314.6,289.8V285h1.7v4.8c0,1.1,0.6,1.9,1.9,1.9s1.9-0.8,1.9-1.9V285h1.7v4.8c0,2-1.2,3.3-3.6,3.3
				S314.6,291.8,314.6,289.8z"/>
			<path fill="#231F20" d="M328.9,293l-3.8-5.2v5.2h-1.7v-8h1.8l3.7,5v-5h1.7v8H328.9z"/>
			<path fill="#231F20" d="M332.1,293v-8h3.2c2.5,0,4.2,1.6,4.2,4c0,2.4-1.7,4-4.2,4H332.1z M337.8,289c0-1.4-0.9-2.5-2.5-2.5h-1.5
				v5h1.5C336.9,291.5,337.8,290.4,337.8,289z"/>
			<path fill="#231F20" d="M340.7,293v-8h5.7v1.5h-4v1.7h3.9v1.5h-3.9v1.8h4v1.5H340.7z"/>
			<path fill="#231F20" d="M352.3,293l-1.6-2.8h-1.2v2.8h-1.7v-8h3.7c1.7,0,2.7,1.1,2.7,2.6c0,1.4-0.9,2.2-1.8,2.4l1.8,3H352.3z
				 M352.4,287.6c0-0.7-0.5-1.1-1.2-1.1h-1.8v2.2h1.8C351.9,288.7,352.4,288.3,352.4,287.6z"/>
			<path fill="#231F20" d="M360.2,293v-5.8l-1.3,1.4l-1-1l2.5-2.5h1.5v8H360.2z"/>
			<path fill="#231F20" d="M363.1,289c0-2.4,1.4-4.1,3.7-4.1c1,0,1.8,0.3,2.4,0.8l-0.8,1.3c-0.4-0.4-0.9-0.6-1.6-0.6
				c-1.2,0-2,1-2,2.3c0,0.1,0,0.1,0,0.2c0.4-0.5,1.2-1,2.1-1c1.4,0,2.7,0.9,2.7,2.6c0,1.6-1.2,2.7-3.1,2.7
				C364.1,293.2,363.1,291.3,363.1,289z M367.9,290.5c0-0.8-0.7-1.2-1.5-1.2c-0.6,0-1.2,0.3-1.6,0.8c0.1,0.8,0.5,1.6,1.6,1.6
				C367.4,291.7,367.9,291,367.9,290.5z"/>
			<path fill="#231F20" d="M376.1,293v-3.3L373,285h1.9l2,3.2l2-3.2h1.9l-3.1,4.7v3.3H376.1z"/>
			<path fill="#231F20" d="M381.6,293v-8h5.7v1.5h-4v1.7h3.9v1.5h-3.9v1.8h4v1.5H381.6z"/>
			<path fill="#231F20" d="M394.1,293l-0.5-1.4h-3.4l-0.5,1.4h-1.9l3.1-8h2.1l3.1,8H394.1z M391.9,286.7l-1.2,3.4h2.5L391.9,286.7z"
				/>
			<path fill="#231F20" d="M401.3,293l-1.6-2.8h-1.2v2.8h-1.7v-8h3.7c1.7,0,2.7,1.1,2.7,2.6c0,1.4-0.9,2.2-1.8,2.4l1.8,3H401.3z
				 M401.5,287.6c0-0.7-0.5-1.1-1.2-1.1h-1.8v2.2h1.8C400.9,288.7,401.5,288.3,401.5,287.6z"/>
			<path fill="#231F20" d="M403.9,291.9l0.9-1.3c0.6,0.6,1.4,1.1,2.5,1.1c0.9,0,1.4-0.4,1.4-0.9c0-1.4-4.6-0.4-4.6-3.5
				c0-1.3,1.2-2.4,3-2.4c1.3,0,2.3,0.4,3.1,1.1l-0.9,1.2c-0.6-0.6-1.5-0.9-2.3-0.9c-0.7,0-1.1,0.3-1.1,0.8c0,1.3,4.6,0.4,4.6,3.4
				c0,1.5-1,2.6-3.2,2.6C405.8,293.2,404.7,292.6,403.9,291.9z"/>
			<path fill="#231F20" d="M414.4,289c0-2.4,1.8-4.1,4.2-4.1c2.4,0,4.2,1.7,4.2,4.1c0,2.4-1.8,4.1-4.2,4.1
				C416.1,293.2,414.4,291.4,414.4,289z M421,289c0-1.5-1-2.6-2.4-2.6c-1.5,0-2.4,1.1-2.4,2.6c0,1.5,0.9,2.6,2.4,2.6
				C420,291.7,421,290.5,421,289z"/>
			<path fill="#231F20" d="M423.9,293v-8h1.7v6.5h3.4v1.5H423.9z"/>
			<path fill="#231F20" d="M430.2,293v-8h3.2c2.5,0,4.2,1.6,4.2,4c0,2.4-1.7,4-4.2,4H430.2z M435.9,289c0-1.4-0.9-2.5-2.5-2.5h-1.5
				v5h1.5C434.9,291.5,435.9,290.4,435.9,289z"/>
		</g>
	</g>
	<g>
		<g>
			<path fill="#010101" d="M526.5,233.8l-3.8-5.2v5.2H521v-8h1.8l3.7,5v-5h1.7v8H526.5z"/>
			<path fill="#010101" d="M529.3,229.8c0-2.4,1.8-4.1,4.2-4.1c2.4,0,4.2,1.7,4.2,4.1c0,2.4-1.8,4.1-4.2,4.1
				C531.1,234,529.3,232.3,529.3,229.8z M536,229.8c0-1.5-1-2.6-2.4-2.6c-1.5,0-2.4,1.1-2.4,2.6c0,1.5,0.9,2.6,2.4,2.6
				C535,232.5,536,231.3,536,229.8z"/>
			<path fill="#010101" d="M544.4,233.8l-3.8-5.2v5.2h-1.7v-8h1.8l3.7,5v-5h1.7v8H544.4z"/>
			<path fill="#010101" d="M547.2,231.6v-1.3h2.9v1.3H547.2z"/>
			<path fill="#010101" d="M551.3,233.8v-8h1.7v8H551.3z"/>
			<path fill="#010101" d="M560.1,233.8l-3.8-5.2v5.2h-1.7v-8h1.8l3.7,5v-5h1.7v8H560.1z"/>
			<path fill="#010101" d="M563.3,233.8v-8h3.2c2.5,0,4.2,1.6,4.2,4c0,2.4-1.7,4-4.2,4H563.3z M568.9,229.8c0-1.4-0.9-2.5-2.5-2.5
				H565v5h1.5C568,232.3,568.9,231.2,568.9,229.8z"/>
			<path fill="#010101" d="M571.9,233.8v-8h1.7v8H571.9z"/>
			<path fill="#010101" d="M577.4,233.8l-3.1-8h1.9l2.2,6.2l2.2-6.2h1.9l-3.1,8H577.4z"/>
			<path fill="#010101" d="M583.4,233.8v-8h1.7v8H583.4z"/>
			<path fill="#010101" d="M586.7,233.8v-8h3.2c2.5,0,4.2,1.6,4.2,4c0,2.4-1.7,4-4.2,4H586.7z M592.3,229.8c0-1.4-0.9-2.5-2.5-2.5
				h-1.5v5h1.5C591.4,232.3,592.3,231.2,592.3,229.8z"/>
			<path fill="#010101" d="M595.3,230.6v-4.8h1.7v4.8c0,1.1,0.6,1.9,1.9,1.9s1.9-0.8,1.9-1.9v-4.8h1.7v4.8c0,2-1.2,3.3-3.6,3.3
				S595.3,232.6,595.3,230.6z"/>
			<path fill="#010101" d="M609.2,233.8l-0.5-1.4h-3.4l-0.5,1.4h-1.9l3.1-8h2.1l3.1,8H609.2z M607,227.5l-1.2,3.4h2.5L607,227.5z"/>
			<path fill="#010101" d="M611.9,233.8v-8h1.7v6.5h3.4v1.5H611.9z"/>
		</g>
		<g>
			<rect x="498.3" y="214.4" fill="#FFFFFF" width="141.4" height="31"/>
		</g>
		<g>
			<path fill="#231F20" d="M526.5,233.8l-3.8-5.2v5.2H521v-8h1.8l3.7,5v-5h1.7v8H526.5z"/>
			<path fill="#231F20" d="M529.3,229.8c0-2.4,1.8-4.1,4.2-4.1c2.4,0,4.2,1.7,4.2,4.1c0,2.4-1.8,4.1-4.2,4.1
				C531.1,234,529.3,232.3,529.3,229.8z M536,229.8c0-1.5-1-2.6-2.4-2.6c-1.5,0-2.4,1.1-2.4,2.6c0,1.5,0.9,2.6,2.4,2.6
				C535,232.5,536,231.3,536,229.8z"/>
			<path fill="#231F20" d="M544.4,233.8l-3.8-5.2v5.2h-1.7v-8h1.8l3.7,5v-5h1.7v8H544.4z"/>
			<path fill="#231F20" d="M547.2,231.6v-1.3h2.9v1.3H547.2z"/>
			<path fill="#231F20" d="M551.3,233.8v-8h1.7v8H551.3z"/>
			<path fill="#231F20" d="M560.1,233.8l-3.8-5.2v5.2h-1.7v-8h1.8l3.7,5v-5h1.7v8H560.1z"/>
			<path fill="#231F20" d="M563.3,233.8v-8h3.2c2.5,0,4.2,1.6,4.2,4c0,2.4-1.7,4-4.2,4H563.3z M568.9,229.8c0-1.4-0.9-2.5-2.5-2.5
				H565v5h1.5C568,232.3,568.9,231.2,568.9,229.8z"/>
			<path fill="#231F20" d="M571.9,233.8v-8h1.7v8H571.9z"/>
			<path fill="#231F20" d="M577.4,233.8l-3.1-8h1.9l2.2,6.2l2.2-6.2h1.9l-3.1,8H577.4z"/>
			<path fill="#231F20" d="M583.4,233.8v-8h1.7v8H583.4z"/>
			<path fill="#231F20" d="M586.7,233.8v-8h3.2c2.5,0,4.2,1.6,4.2,4c0,2.4-1.7,4-4.2,4H586.7z M592.3,229.8c0-1.4-0.9-2.5-2.5-2.5
				h-1.5v5h1.5C591.4,232.3,592.3,231.2,592.3,229.8z"/>
			<path fill="#231F20" d="M595.3,230.6v-4.8h1.7v4.8c0,1.1,0.6,1.9,1.9,1.9s1.9-0.8,1.9-1.9v-4.8h1.7v4.8c0,2-1.2,3.3-3.6,3.3
				S595.3,232.6,595.3,230.6z"/>
			<path fill="#231F20" d="M609.2,233.8l-0.5-1.4h-3.4l-0.5,1.4h-1.9l3.1-8h2.1l3.1,8H609.2z M607,227.5l-1.2,3.4h2.5L607,227.5z"/>
			<path fill="#231F20" d="M611.9,233.8v-8h1.7v6.5h3.4v1.5H611.9z"/>
		</g>
	</g>
	<g>
		<g>
			<path fill="#010101" d="M283.3,233.8v-8h1.7v8H283.3z"/>
			<path fill="#010101" d="M292.1,233.8l-3.8-5.2v5.2h-1.7v-8h1.8l3.7,5v-5h1.7v8H292.1z"/>
			<path fill="#010101" d="M295.3,233.8v-8h3.2c2.5,0,4.2,1.6,4.2,4c0,2.4-1.7,4-4.2,4H295.3z M301,229.8c0-1.4-0.9-2.5-2.5-2.5H297
				v5h1.5C300,232.3,301,231.2,301,229.8z"/>
			<path fill="#010101" d="M303.9,233.8v-8h1.7v8H303.9z"/>
			<path fill="#010101" d="M309.5,233.8l-3.1-8h1.9l2.2,6.2l2.2-6.2h1.9l-3.1,8H309.5z"/>
			<path fill="#010101" d="M315.4,233.8v-8h1.7v8H315.4z"/>
			<path fill="#010101" d="M318.7,233.8v-8h3.2c2.5,0,4.2,1.6,4.2,4c0,2.4-1.7,4-4.2,4H318.7z M324.4,229.8c0-1.4-0.9-2.5-2.5-2.5
				h-1.5v5h1.5C323.4,232.3,324.4,231.2,324.4,229.8z"/>
			<path fill="#010101" d="M327.3,230.6v-4.8h1.7v4.8c0,1.1,0.6,1.9,1.9,1.9s1.9-0.8,1.9-1.9v-4.8h1.7v4.8c0,2-1.2,3.3-3.6,3.3
				S327.3,232.6,327.3,230.6z"/>
			<path fill="#010101" d="M341.2,233.8l-0.5-1.4h-3.4l-0.5,1.4h-1.9l3.1-8h2.1l3.1,8H341.2z M339,227.5l-1.2,3.4h2.5L339,227.5z"/>
			<path fill="#010101" d="M343.9,233.8v-8h1.7v6.5h3.4v1.5H343.9z"/>
		</g>
		<g>
			<rect x="260.6" y="214.5" fill="#FFFFFF" width="111.1" height="30.8"/>
		</g>
		<g>
			<path fill="#231F20" d="M283.3,233.8v-8h1.7v8H283.3z"/>
			<path fill="#231F20" d="M292.1,233.8l-3.8-5.2v5.2h-1.7v-8h1.8l3.7,5v-5h1.7v8H292.1z"/>
			<path fill="#231F20" d="M295.3,233.8v-8h3.2c2.5,0,4.2,1.6,4.2,4c0,2.4-1.7,4-4.2,4H295.3z M301,229.8c0-1.4-0.9-2.5-2.5-2.5H297
				v5h1.5C300,232.3,301,231.2,301,229.8z"/>
			<path fill="#231F20" d="M303.9,233.8v-8h1.7v8H303.9z"/>
			<path fill="#231F20" d="M309.5,233.8l-3.1-8h1.9l2.2,6.2l2.2-6.2h1.9l-3.1,8H309.5z"/>
			<path fill="#231F20" d="M315.4,233.8v-8h1.7v8H315.4z"/>
			<path fill="#231F20" d="M318.7,233.8v-8h3.2c2.5,0,4.2,1.6,4.2,4c0,2.4-1.7,4-4.2,4H318.7z M324.4,229.8c0-1.4-0.9-2.5-2.5-2.5
				h-1.5v5h1.5C323.4,232.3,324.4,231.2,324.4,229.8z"/>
			<path fill="#231F20" d="M327.3,230.6v-4.8h1.7v4.8c0,1.1,0.6,1.9,1.9,1.9s1.9-0.8,1.9-1.9v-4.8h1.7v4.8c0,2-1.2,3.3-3.6,3.3
				S327.3,232.6,327.3,230.6z"/>
			<path fill="#231F20" d="M341.2,233.8l-0.5-1.4h-3.4l-0.5,1.4h-1.9l3.1-8h2.1l3.1,8H341.2z M339,227.5l-1.2,3.4h2.5L339,227.5z"/>
			<path fill="#231F20" d="M343.9,233.8v-8h1.7v6.5h3.4v1.5H343.9z"/>
		</g>
	</g>
	<g>
		<g>
			<path fill="#010101" d="M212.8,352v-5.6l-2.3,5.6h-0.7l-2.3-5.6v5.6h-1.7v-8h2.4l1.9,4.8l1.9-4.8h2.4v8H212.8z"/>
			<path fill="#010101" d="M218.3,352v-3.3l-3.1-4.7h1.9l2,3.2l2-3.2h1.9l-3.1,4.7v3.3H218.3z"/>
			<path fill="#010101" d="M223,350.9l0.9-1.3c0.6,0.6,1.4,1.1,2.5,1.1c0.9,0,1.4-0.4,1.4-0.9c0-1.4-4.6-0.4-4.6-3.5
				c0-1.3,1.2-2.4,3-2.4c1.3,0,2.3,0.4,3.1,1.1l-0.9,1.2c-0.6-0.6-1.5-0.9-2.3-0.9c-0.7,0-1.1,0.3-1.1,0.8c0,1.3,4.6,0.4,4.6,3.4
				c0,1.5-1,2.6-3.2,2.6C224.9,352.2,223.8,351.7,223,350.9z"/>
			<path fill="#010101" d="M230.8,352v-8h5.7v1.5h-4v1.7h3.9v1.5h-3.9v1.8h4v1.5H230.8z"/>
			<path fill="#010101" d="M237.8,352v-8h1.7v6.5h3.4v1.5H237.8z"/>
			<path fill="#010101" d="M244,352v-8h5.7v1.5h-4v1.7h3.9v1.5h-3.9v3.3H244z"/>
		</g>
		<g>
			<rect x="183.1" y="332.6" fill="#FFFFFF" width="89.2" height="30.9"/>
		</g>
		<g>
			<path fill="#231F20" d="M212.8,352v-5.6l-2.3,5.6h-0.7l-2.3-5.6v5.6h-1.7v-8h2.4l1.9,4.8l1.9-4.8h2.4v8H212.8z"/>
			<path fill="#231F20" d="M218.3,352v-3.3l-3.1-4.7h1.9l2,3.2l2-3.2h1.9l-3.1,4.7v3.3H218.3z"/>
			<path fill="#231F20" d="M223,350.9l0.9-1.3c0.6,0.6,1.4,1.1,2.5,1.1c0.9,0,1.4-0.4,1.4-0.9c0-1.4-4.6-0.4-4.6-3.5
				c0-1.3,1.2-2.4,3-2.4c1.3,0,2.3,0.4,3.1,1.1l-0.9,1.2c-0.6-0.6-1.5-0.9-2.3-0.9c-0.7,0-1.1,0.3-1.1,0.8c0,1.3,4.6,0.4,4.6,3.4
				c0,1.5-1,2.6-3.2,2.6C224.9,352.2,223.8,351.7,223,350.9z"/>
			<path fill="#231F20" d="M230.8,352v-8h5.7v1.5h-4v1.7h3.9v1.5h-3.9v1.8h4v1.5H230.8z"/>
			<path fill="#231F20" d="M237.8,352v-8h1.7v6.5h3.4v1.5H237.8z"/>
			<path fill="#231F20" d="M244,352v-8h5.7v1.5h-4v1.7h3.9v1.5h-3.9v3.3H244z"/>
		</g>
	</g>
	<g>
		<g>
			<path fill="#010101" d="M305.5,352l-0.5-1.4h-3.4L301,352h-1.9l3.1-8h2.1l3.1,8H305.5z M303.3,345.7l-1.2,3.4h2.5L303.3,345.7z"
				/>
			<path fill="#010101" d="M310.9,348.1c0-2.5,1.9-4.1,4.3-4.1c1.8,0,2.8,1,3.3,2l-1.5,0.7c-0.3-0.6-1.1-1.2-1.9-1.2
				c-1.5,0-2.5,1.1-2.5,2.6c0,1.5,1.1,2.6,2.5,2.6c0.8,0,1.5-0.5,1.9-1.2l1.5,0.7c-0.6,1-1.6,2-3.3,2
				C312.7,352.2,310.9,350.5,310.9,348.1z"/>
			<path fill="#010101" d="M325,352v-3.4h-3.8v3.4h-1.7v-8h1.7v3.1h3.8V344h1.7v8H325z"/>
			<path fill="#010101" d="M328.3,352v-8h1.7v8H328.3z"/>
			<path fill="#010101" d="M331.5,352v-8h1.7v6.5h3.4v1.5H331.5z"/>
			<path fill="#010101" d="M337.8,352v-8h3.2c2.5,0,4.2,1.6,4.2,4c0,2.4-1.7,4-4.2,4H337.8z M343.5,348.1c0-1.4-0.9-2.5-2.5-2.5
				h-1.5v5h1.5C342.6,350.5,343.5,349.4,343.5,348.1z"/>
			<path fill="#010101" d="M349.5,348.9V344h1.7v4.7c0,1.1,0.6,1.9,1.9,1.9s1.9-0.8,1.9-1.9V344h1.7v4.8c0,2-1.2,3.3-3.6,3.3
				S349.5,350.8,349.5,348.9z"/>
			<path fill="#010101" d="M363.8,352l-3.8-5.2v5.2h-1.7v-8h1.8l3.7,5v-5h1.7v8H363.8z"/>
			<path fill="#010101" d="M367,352v-8h3.2c2.5,0,4.2,1.6,4.2,4c0,2.4-1.7,4-4.2,4H367z M372.7,348.1c0-1.4-0.9-2.5-2.5-2.5h-1.5v5
				h1.5C371.8,350.5,372.7,349.4,372.7,348.1z"/>
			<path fill="#010101" d="M375.7,352v-8h5.7v1.5h-4v1.7h3.9v1.5h-3.9v1.8h4v1.5H375.7z"/>
			<path fill="#010101" d="M387.2,352l-1.6-2.8h-1.2v2.8h-1.7v-8h3.7c1.7,0,2.7,1.1,2.7,2.6c0,1.4-0.9,2.2-1.8,2.4l1.8,3H387.2z
				 M387.3,346.6c0-0.7-0.5-1.1-1.2-1.1h-1.8v2.2h1.8C386.8,347.7,387.3,347.3,387.3,346.6z"/>
			<path fill="#010101" d="M395.1,352v-5.8l-1.3,1.4l-1-1l2.5-2.5h1.5v8H395.1z"/>
			<path fill="#010101" d="M398,348.1c0-2.4,1.4-4.1,3.7-4.1c1,0,1.8,0.3,2.4,0.8l-0.8,1.3c-0.4-0.4-0.9-0.6-1.6-0.6
				c-1.2,0-2,1-2,2.3c0,0.1,0,0.1,0,0.2c0.4-0.5,1.2-1,2.1-1c1.4,0,2.7,0.9,2.7,2.6c0,1.6-1.2,2.7-3.1,2.7
				C399,352.2,398,350.3,398,348.1z M402.8,349.5c0-0.8-0.7-1.2-1.5-1.2c-0.6,0-1.2,0.3-1.6,0.8c0.1,0.8,0.5,1.6,1.6,1.6
				C402.3,350.7,402.8,350.1,402.8,349.5z"/>
			<path fill="#010101" d="M407.9,352v-3.3l-3.1-4.7h1.9l2,3.2l2-3.2h1.9l-3.1,4.7v3.3H407.9z"/>
			<path fill="#010101" d="M413.4,352v-8h5.7v1.5h-4v1.7h3.9v1.5h-3.9v1.8h4v1.5H413.4z"/>
			<path fill="#010101" d="M425.9,352l-0.5-1.4H422l-0.5,1.4h-1.9l3.1-8h2.1l3.1,8H425.9z M423.7,345.7l-1.2,3.4h2.5L423.7,345.7z"
				/>
			<path fill="#010101" d="M433.1,352l-1.6-2.8h-1.2v2.8h-1.7v-8h3.7c1.7,0,2.7,1.1,2.7,2.6c0,1.4-0.9,2.2-1.8,2.4l1.8,3H433.1z
				 M433.3,346.6c0-0.7-0.5-1.1-1.2-1.1h-1.8v2.2h1.8C432.8,347.7,433.3,347.3,433.3,346.6z"/>
			<path fill="#010101" d="M435.8,350.9l0.9-1.3c0.6,0.6,1.4,1.1,2.5,1.1c0.9,0,1.4-0.4,1.4-0.9c0-1.4-4.6-0.4-4.6-3.5
				c0-1.3,1.2-2.4,3-2.4c1.3,0,2.3,0.4,3.1,1.1l-0.9,1.2c-0.6-0.6-1.5-0.9-2.3-0.9c-0.7,0-1.1,0.3-1.1,0.8c0,1.3,4.6,0.4,4.6,3.4
				c0,1.5-1,2.6-3.2,2.6C437.6,352.2,436.5,351.7,435.8,350.9z"/>
			<path fill="#010101" d="M446.2,348.1c0-2.4,1.8-4.1,4.2-4.1c2.4,0,4.2,1.7,4.2,4.1c0,2.4-1.8,4.1-4.2,4.1
				C448,352.2,446.2,350.5,446.2,348.1z M452.8,348.1c0-1.5-1-2.6-2.4-2.6c-1.5,0-2.4,1.1-2.4,2.6c0,1.5,0.9,2.6,2.4,2.6
				C451.9,350.7,452.8,349.5,452.8,348.1z"/>
			<path fill="#010101" d="M455.8,352v-8h1.7v6.5h3.4v1.5H455.8z"/>
			<path fill="#010101" d="M462.1,352v-8h3.2c2.5,0,4.2,1.6,4.2,4c0,2.4-1.7,4-4.2,4H462.1z M467.7,348.1c0-1.4-0.9-2.5-2.5-2.5
				h-1.5v5h1.5C466.8,350.5,467.7,349.4,467.7,348.1z"/>
		</g>
		<g>
			<rect x="276.4" y="332.6" fill="#FFFFFF" width="215.7" height="31"/>
		</g>
		<g>
			<path fill="#231F20" d="M305.5,352l-0.5-1.4h-3.4L301,352h-1.9l3.1-8h2.1l3.1,8H305.5z M303.3,345.7l-1.2,3.4h2.5L303.3,345.7z"
				/>
			<path fill="#231F20" d="M310.9,348.1c0-2.5,1.9-4.1,4.3-4.1c1.8,0,2.8,1,3.3,2l-1.5,0.7c-0.3-0.6-1.1-1.2-1.9-1.2
				c-1.5,0-2.5,1.1-2.5,2.6c0,1.5,1.1,2.6,2.5,2.6c0.8,0,1.5-0.5,1.9-1.2l1.5,0.7c-0.6,1-1.6,2-3.3,2
				C312.7,352.2,310.9,350.5,310.9,348.1z"/>
			<path fill="#231F20" d="M325,352v-3.4h-3.8v3.4h-1.7v-8h1.7v3.1h3.8V344h1.7v8H325z"/>
			<path fill="#231F20" d="M328.3,352v-8h1.7v8H328.3z"/>
			<path fill="#231F20" d="M331.5,352v-8h1.7v6.5h3.4v1.5H331.5z"/>
			<path fill="#231F20" d="M337.8,352v-8h3.2c2.5,0,4.2,1.6,4.2,4c0,2.4-1.7,4-4.2,4H337.8z M343.5,348.1c0-1.4-0.9-2.5-2.5-2.5
				h-1.5v5h1.5C342.6,350.5,343.5,349.4,343.5,348.1z"/>
			<path fill="#231F20" d="M349.5,348.9V344h1.7v4.7c0,1.1,0.6,1.9,1.9,1.9s1.9-0.8,1.9-1.9V344h1.7v4.8c0,2-1.2,3.3-3.6,3.3
				S349.5,350.8,349.5,348.9z"/>
			<path fill="#231F20" d="M363.8,352l-3.8-5.2v5.2h-1.7v-8h1.8l3.7,5v-5h1.7v8H363.8z"/>
			<path fill="#231F20" d="M367,352v-8h3.2c2.5,0,4.2,1.6,4.2,4c0,2.4-1.7,4-4.2,4H367z M372.7,348.1c0-1.4-0.9-2.5-2.5-2.5h-1.5v5
				h1.5C371.8,350.5,372.7,349.4,372.7,348.1z"/>
			<path fill="#231F20" d="M375.7,352v-8h5.7v1.5h-4v1.7h3.9v1.5h-3.9v1.8h4v1.5H375.7z"/>
			<path fill="#231F20" d="M387.2,352l-1.6-2.8h-1.2v2.8h-1.7v-8h3.7c1.7,0,2.7,1.1,2.7,2.6c0,1.4-0.9,2.2-1.8,2.4l1.8,3H387.2z
				 M387.3,346.6c0-0.7-0.5-1.1-1.2-1.1h-1.8v2.2h1.8C386.8,347.7,387.3,347.3,387.3,346.6z"/>
			<path fill="#231F20" d="M395.1,352v-5.8l-1.3,1.4l-1-1l2.5-2.5h1.5v8H395.1z"/>
			<path fill="#231F20" d="M398,348.1c0-2.4,1.4-4.1,3.7-4.1c1,0,1.8,0.3,2.4,0.8l-0.8,1.3c-0.4-0.4-0.9-0.6-1.6-0.6
				c-1.2,0-2,1-2,2.3c0,0.1,0,0.1,0,0.2c0.4-0.5,1.2-1,2.1-1c1.4,0,2.7,0.9,2.7,2.6c0,1.6-1.2,2.7-3.1,2.7
				C399,352.2,398,350.3,398,348.1z M402.8,349.5c0-0.8-0.7-1.2-1.5-1.2c-0.6,0-1.2,0.3-1.6,0.8c0.1,0.8,0.5,1.6,1.6,1.6
				C402.3,350.7,402.8,350.1,402.8,349.5z"/>
			<path fill="#231F20" d="M407.9,352v-3.3l-3.1-4.7h1.9l2,3.2l2-3.2h1.9l-3.1,4.7v3.3H407.9z"/>
			<path fill="#231F20" d="M413.4,352v-8h5.7v1.5h-4v1.7h3.9v1.5h-3.9v1.8h4v1.5H413.4z"/>
			<path fill="#231F20" d="M425.9,352l-0.5-1.4H422l-0.5,1.4h-1.9l3.1-8h2.1l3.1,8H425.9z M423.7,345.7l-1.2,3.4h2.5L423.7,345.7z"
				/>
			<path fill="#231F20" d="M433.1,352l-1.6-2.8h-1.2v2.8h-1.7v-8h3.7c1.7,0,2.7,1.1,2.7,2.6c0,1.4-0.9,2.2-1.8,2.4l1.8,3H433.1z
				 M433.3,346.6c0-0.7-0.5-1.1-1.2-1.1h-1.8v2.2h1.8C432.8,347.7,433.3,347.3,433.3,346.6z"/>
			<path fill="#231F20" d="M435.8,350.9l0.9-1.3c0.6,0.6,1.4,1.1,2.5,1.1c0.9,0,1.4-0.4,1.4-0.9c0-1.4-4.6-0.4-4.6-3.5
				c0-1.3,1.2-2.4,3-2.4c1.3,0,2.3,0.4,3.1,1.1l-0.9,1.2c-0.6-0.6-1.5-0.9-2.3-0.9c-0.7,0-1.1,0.3-1.1,0.8c0,1.3,4.6,0.4,4.6,3.4
				c0,1.5-1,2.6-3.2,2.6C437.6,352.2,436.5,351.7,435.8,350.9z"/>
			<path fill="#231F20" d="M446.2,348.1c0-2.4,1.8-4.1,4.2-4.1c2.4,0,4.2,1.7,4.2,4.1c0,2.4-1.8,4.1-4.2,4.1
				C448,352.2,446.2,350.5,446.2,348.1z M452.8,348.1c0-1.5-1-2.6-2.4-2.6c-1.5,0-2.4,1.1-2.4,2.6c0,1.5,0.9,2.6,2.4,2.6
				C451.9,350.7,452.8,349.5,452.8,348.1z"/>
			<path fill="#231F20" d="M455.8,352v-8h1.7v6.5h3.4v1.5H455.8z"/>
			<path fill="#231F20" d="M462.1,352v-8h3.2c2.5,0,4.2,1.6,4.2,4c0,2.4-1.7,4-4.2,4H462.1z M467.7,348.1c0-1.4-0.9-2.5-2.5-2.5
				h-1.5v5h1.5C466.8,350.5,467.7,349.4,467.7,348.1z"/>
		</g>
	</g>
	<g>
		<polygon points="254.5,402.7 32.9,402.7 31.9,402.7 31.9,403.7 41.9,427.2 41.9,428.3 42.9,428.3 244.5,428.3 245.5,428.3 
			245.5,427.2 255.5,403.7 255.5,402.7 		"/>
		<polygon fill="#58595B" points="254.5,377.2 32.9,377.2 31.9,377.2 31.9,378.2 31.9,401.7 31.9,402.7 32.9,402.7 254.5,402.7 
			255.5,402.7 255.5,401.7 255.5,378.2 255.5,377.2 		"/>
		<g>
			<g>
				<path fill="#010101" d="M125.8,394.5v-8h1.7v8H125.8z"/>
				<path fill="#010101" d="M133.6,394.5l-1.6-2.8h-1.2v2.8h-1.7v-8h3.7c1.7,0,2.7,1.1,2.7,2.6c0,1.4-0.9,2.2-1.8,2.4l1.8,3H133.6z
					 M133.8,389.1c0-0.7-0.5-1.1-1.2-1.1h-1.8v2.2h1.8C133.3,390.2,133.8,389.8,133.8,389.1z"/>
				<path fill="#010101" d="M139.7,393.5l0.9-1.2c0.5,0.6,1.3,0.9,2.1,0.9c0.9,0,1.5-0.5,1.5-1.2c0-0.7-0.5-1.2-1.4-1.2
					c-0.7,0-1.2,0.2-1.7,0.6l-1.2-0.3v-4.6h5.5v1.5h-3.8v2c0.4-0.4,1-0.7,1.8-0.7c1.4,0,2.6,1,2.6,2.6c0,1.7-1.3,2.8-3.2,2.8
					C141.4,394.7,140.4,394.2,139.7,393.5z"/>
				<path fill="#010101" d="M147.2,393.8l0.8-1.3c0.4,0.4,0.9,0.6,1.6,0.6c1.3,0,2-1.1,2-2.3c0-0.1,0-0.1,0-0.2
					c-0.4,0.5-1.2,1-2.1,1c-1.4,0-2.7-0.9-2.7-2.6c0-1.6,1.2-2.7,3.1-2.7c2.4,0,3.4,1.9,3.4,4.1c0,2.4-1.4,4.1-3.7,4.1
					C148.6,394.6,147.8,394.3,147.2,393.8z M151.6,389.5c-0.1-0.8-0.5-1.6-1.6-1.6c-0.9,0-1.4,0.6-1.4,1.2c0,0.8,0.7,1.2,1.5,1.2
					C150.6,390.3,151.2,390,151.6,389.5z"/>
				<path fill="#010101" d="M154.3,393.5l0.9-1.2c0.5,0.6,1.3,0.9,2.1,0.9c0.9,0,1.5-0.5,1.5-1.2c0-0.7-0.5-1.2-1.4-1.2
					c-0.7,0-1.2,0.2-1.7,0.6l-1.2-0.3v-4.6h5.5v1.5h-3.8v2c0.4-0.4,1-0.7,1.8-0.7c1.4,0,2.6,1,2.6,2.6c0,1.7-1.3,2.8-3.2,2.8
					C156,394.7,155,394.2,154.3,393.5z"/>
			</g>
			<g>
				<path fill="#FFFFFF" d="M125.8,394.5v-8h1.7v8H125.8z"/>
				<path fill="#FFFFFF" d="M133.6,394.5l-1.6-2.8h-1.2v2.8h-1.7v-8h3.7c1.7,0,2.7,1.1,2.7,2.6c0,1.4-0.9,2.2-1.8,2.4l1.8,3H133.6z
					 M133.8,389.1c0-0.7-0.5-1.1-1.2-1.1h-1.8v2.2h1.8C133.3,390.2,133.8,389.8,133.8,389.1z"/>
				<path fill="#FFFFFF" d="M139.7,393.5l0.9-1.2c0.5,0.6,1.3,0.9,2.1,0.9c0.9,0,1.5-0.5,1.5-1.2c0-0.7-0.5-1.2-1.4-1.2
					c-0.7,0-1.2,0.2-1.7,0.6l-1.2-0.3v-4.6h5.5v1.5h-3.8v2c0.4-0.4,1-0.7,1.8-0.7c1.4,0,2.6,1,2.6,2.6c0,1.7-1.3,2.8-3.2,2.8
					C141.4,394.7,140.4,394.2,139.7,393.5z"/>
				<path fill="#FFFFFF" d="M147.2,393.8l0.8-1.3c0.4,0.4,0.9,0.6,1.6,0.6c1.3,0,2-1.1,2-2.3c0-0.1,0-0.1,0-0.2
					c-0.4,0.5-1.2,1-2.1,1c-1.4,0-2.7-0.9-2.7-2.6c0-1.6,1.2-2.7,3.1-2.7c2.4,0,3.4,1.9,3.4,4.1c0,2.4-1.4,4.1-3.7,4.1
					C148.6,394.6,147.8,394.3,147.2,393.8z M151.6,389.5c-0.1-0.8-0.5-1.6-1.6-1.6c-0.9,0-1.4,0.6-1.4,1.2c0,0.8,0.7,1.2,1.5,1.2
					C150.6,390.3,151.2,390,151.6,389.5z"/>
				<path fill="#FFFFFF" d="M154.3,393.5l0.9-1.2c0.5,0.6,1.3,0.9,2.1,0.9c0.9,0,1.5-0.5,1.5-1.2c0-0.7-0.5-1.2-1.4-1.2
					c-0.7,0-1.2,0.2-1.7,0.6l-1.2-0.3v-4.6h5.5v1.5h-3.8v2c0.4-0.4,1-0.7,1.8-0.7c1.4,0,2.6,1,2.6,2.6c0,1.7-1.3,2.8-3.2,2.8
					C156,394.7,155,394.2,154.3,393.5z"/>
			</g>
		</g>
	</g>
	<rect x="37.3" y="403" fill="#F5B951" width="212.9" height="49.6"/>
	<g>
		<path fill="#010101" d="M97,418v-5.8l-1.3,1.4l-1-1l2.5-2.5h1.5v8H97z"/>
		<path fill="#010101" d="M108.6,418l-2-2.9l-2,2.9h-2l2.9-4.1l-2.7-3.9h2l1.8,2.7l1.8-2.7h2.1l-2.7,3.9l2.9,4.1H108.6z"/>
		<path fill="#010101" d="M114.5,418v-8h3.2c2.5,0,4.2,1.6,4.2,4c0,2.4-1.7,4-4.2,4H114.5z M120.1,414c0-1.4-0.9-2.5-2.5-2.5h-1.5v5
			h1.5C119.2,416.5,120.1,415.3,120.1,414z"/>
		<path fill="#010101" d="M122.7,414c0-2.4,1.8-4.1,4.2-4.1c2.4,0,4.2,1.7,4.2,4.1c0,2.4-1.8,4.1-4.2,4.1
			C124.5,418.1,122.7,416.4,122.7,414z M129.3,414c0-1.5-1-2.6-2.4-2.6c-1.5,0-2.4,1.1-2.4,2.6c0,1.5,0.9,2.6,2.4,2.6
			C128.4,416.6,129.3,415.5,129.3,414z"/>
		<path fill="#010101" d="M131.9,414c0-2.5,1.9-4.1,4.3-4.1c1.8,0,2.8,1,3.3,2l-1.5,0.7c-0.3-0.6-1.1-1.2-1.9-1.2
			c-1.5,0-2.5,1.1-2.5,2.6c0,1.5,1.1,2.6,2.5,2.6c0.8,0,1.5-0.5,1.9-1.2l1.5,0.7c-0.6,1-1.6,2-3.3,2
			C133.8,418.1,131.9,416.4,131.9,414z"/>
		<path fill="#010101" d="M140.5,414.8V410h1.7v4.8c0,1.1,0.6,1.9,1.9,1.9s1.9-0.8,1.9-1.9V410h1.7v4.8c0,2-1.2,3.3-3.6,3.3
			S140.5,416.7,140.5,414.8z"/>
		<path fill="#010101" d="M156.3,418v-5.6L154,418h-0.7l-2.3-5.6v5.6h-1.7v-8h2.4l1.9,4.8l1.9-4.8h2.4v8H156.3z"/>
		<path fill="#010101" d="M159.6,418v-8h5.7v1.5h-4v1.7h3.9v1.5h-3.9v1.8h4v1.5H159.6z"/>
		<path fill="#010101" d="M172.1,418l-3.8-5.2v5.2h-1.7v-8h1.8l3.7,5v-5h1.7v8H172.1z"/>
		<path fill="#010101" d="M177.2,418v-6.5h-2.3V410h6.4v1.5h-2.3v6.5H177.2z"/>
		<path fill="#010101" d="M190.9,418l-0.5-1.4H187l-0.5,1.4h-1.9l3.1-8h2.1l3.1,8H190.9z M188.7,411.7l-1.2,3.4h2.5L188.7,411.7z"/>
	</g>
	<rect x="37.3" y="452.7" fill="#E5E5E5" width="212.9" height="130.5"/>
	<g>
		<path fill="#010101" d="M75.2,468.6l-0.5-1.4h-3.4l-0.5,1.4h-1.9l3.1-8h2.1l3.1,8H75.2z M73,462.3l-1.2,3.4h2.5L73,462.3z"/>
		<path fill="#010101" d="M77.9,468.6v-8h3.7c1.7,0,2.7,1.2,2.7,2.6c0,1.4-1,2.6-2.7,2.6h-2v2.8H77.9z M82.6,463.2
			c0-0.7-0.5-1.1-1.2-1.1h-1.8v2.2h1.8C82.1,464.3,82.6,463.8,82.6,463.2z"/>
		<path fill="#010101" d="M85.4,468.6v-8h3.7c1.7,0,2.7,1.2,2.7,2.6c0,1.4-1,2.6-2.7,2.6h-2v2.8H85.4z M90.1,463.2
			c0-0.7-0.5-1.1-1.2-1.1h-1.8v2.2h1.8C89.6,464.3,90.1,463.8,90.1,463.2z"/>
		<path fill="#010101" d="M92.9,468.6v-8h1.7v6.5H98v1.5H92.9z"/>
		<path fill="#010101" d="M99.2,468.6v-8h1.7v8H99.2z"/>
		<path fill="#010101" d="M102.1,464.6c0-2.5,1.9-4.1,4.3-4.1c1.8,0,2.8,1,3.3,2l-1.5,0.7c-0.3-0.6-1.1-1.2-1.9-1.2
			c-1.5,0-2.5,1.1-2.5,2.6c0,1.5,1.1,2.6,2.5,2.6c0.8,0,1.5-0.5,1.9-1.2l1.5,0.7c-0.6,1-1.6,2-3.3,2
			C103.9,468.7,102.1,467.1,102.1,464.6z"/>
		<path fill="#010101" d="M116.1,468.6l-0.5-1.4h-3.4l-0.5,1.4h-1.9l3.1-8h2.1l3.1,8H116.1z M113.9,462.3l-1.2,3.4h2.5L113.9,462.3z
			"/>
		<path fill="#010101" d="M124.3,468.6l-3.8-5.2v5.2h-1.7v-8h1.8l3.7,5v-5h1.7v8H124.3z"/>
		<path fill="#010101" d="M129.4,468.6v-6.5h-2.3v-1.5h6.4v1.5h-2.3v6.5H129.4z"/>
		<path fill="#010101" d="M137.6,468.6v-8h1.7v8H137.6z"/>
		<path fill="#010101" d="M146.4,468.6l-3.8-5.2v5.2h-1.7v-8h1.8l3.7,5v-5h1.7v8H146.4z"/>
		<path fill="#010101" d="M149.6,468.6v-8h5.7v1.5h-4v1.7h3.9v1.5h-3.9v3.3H149.6z"/>
		<path fill="#010101" d="M156.1,464.6c0-2.4,1.8-4.1,4.2-4.1c2.4,0,4.2,1.7,4.2,4.1c0,2.4-1.8,4.1-4.2,4.1
			C157.9,468.7,156.1,467,156.1,464.6z M162.7,464.6c0-1.5-1-2.6-2.4-2.6c-1.5,0-2.4,1.1-2.4,2.6c0,1.5,0.9,2.6,2.4,2.6
			C161.8,467.2,162.7,466.1,162.7,464.6z"/>
		<path fill="#010101" d="M170.2,468.6l-1.6-2.8h-1.2v2.8h-1.7v-8h3.7c1.7,0,2.7,1.1,2.7,2.6c0,1.4-0.9,2.2-1.8,2.4l1.8,3H170.2z
			 M170.4,463.2c0-0.7-0.5-1.1-1.2-1.1h-1.8v2.2h1.8C169.9,464.3,170.4,463.9,170.4,463.2z"/>
		<path fill="#010101" d="M180.3,468.6V463l-2.3,5.6h-0.7l-2.3-5.6v5.6h-1.7v-8h2.4l1.9,4.8l1.9-4.8h2.4v8H180.3z"/>
		<path fill="#010101" d="M189.2,468.6l-0.5-1.4h-3.4l-0.5,1.4h-1.9l3.1-8h2.1l3.1,8H189.2z M187,462.3l-1.2,3.4h2.5L187,462.3z"/>
		<path fill="#010101" d="M192.9,468.6v-6.5h-2.3v-1.5h6.4v1.5h-2.3v6.5H192.9z"/>
		<path fill="#010101" d="M198.1,468.6v-8h1.7v8H198.1z"/>
		<path fill="#010101" d="M201,464.6c0-2.4,1.8-4.1,4.2-4.1c2.4,0,4.2,1.7,4.2,4.1c0,2.4-1.8,4.1-4.2,4.1
			C202.7,468.7,201,467,201,464.6z M207.6,464.6c0-1.5-1-2.6-2.4-2.6c-1.5,0-2.4,1.1-2.4,2.6c0,1.5,0.9,2.6,2.4,2.6
			C206.6,467.2,207.6,466.1,207.6,464.6z"/>
		<path fill="#010101" d="M216.1,468.6l-3.8-5.2v5.2h-1.7v-8h1.8l3.7,5v-5h1.7v8H216.1z"/>
	</g>
	<g>
		<path fill="#010101" d="M80.4,492.9l-0.5-1.4h-3.4l-0.5,1.4H74l3.1-8h2.1l3.1,8H80.4z M78.1,486.6l-1.2,3.4h2.5L78.1,486.6z"/>
		<path fill="#010101" d="M83,492.9v-8h3.2c2.5,0,4.2,1.6,4.2,4c0,2.4-1.7,4-4.2,4H83z M88.7,488.9c0-1.4-0.9-2.5-2.5-2.5h-1.5v5
			h1.5C87.8,491.4,88.7,490.2,88.7,488.9z"/>
		<path fill="#010101" d="M91.7,492.9v-8h3.2c2.5,0,4.2,1.6,4.2,4c0,2.4-1.7,4-4.2,4H91.7z M97.3,488.9c0-1.4-0.9-2.5-2.5-2.5h-1.5
			v5h1.5C96.4,491.4,97.3,490.2,97.3,488.9z"/>
		<path fill="#010101" d="M104.8,492.9l-1.6-2.8H102v2.8h-1.7v-8h3.7c1.7,0,2.7,1.1,2.7,2.6c0,1.4-0.9,2.2-1.8,2.4l1.8,3H104.8z
			 M105,487.4c0-0.7-0.5-1.1-1.2-1.1H102v2.2h1.8C104.5,488.5,105,488.1,105,487.4z"/>
		<path fill="#010101" d="M108,492.9v-8h5.7v1.5h-4v1.7h3.9v1.5h-3.9v1.8h4v1.5H108z"/>
		<path fill="#010101" d="M114.4,491.7l0.9-1.3c0.6,0.6,1.4,1.1,2.5,1.1c0.9,0,1.4-0.4,1.4-0.9c0-1.4-4.6-0.4-4.6-3.5
			c0-1.3,1.2-2.4,3-2.4c1.3,0,2.3,0.4,3.1,1.1l-0.9,1.2c-0.6-0.6-1.5-0.9-2.3-0.9c-0.7,0-1.1,0.3-1.1,0.8c0,1.3,4.6,0.4,4.6,3.4
			c0,1.5-1,2.6-3.2,2.6C116.3,493,115.2,492.5,114.4,491.7z"/>
		<path fill="#010101" d="M121.6,491.7l0.9-1.3c0.6,0.6,1.4,1.1,2.5,1.1c0.9,0,1.4-0.4,1.4-0.9c0-1.4-4.6-0.4-4.6-3.5
			c0-1.3,1.2-2.4,3-2.4c1.3,0,2.3,0.4,3.1,1.1l-0.9,1.2c-0.6-0.6-1.5-0.9-2.3-0.9c-0.7,0-1.1,0.3-1.1,0.8c0,1.3,4.6,0.4,4.6,3.4
			c0,1.5-1,2.6-3.2,2.6C123.5,493,122.4,492.5,121.6,491.7z"/>
		<path fill="#010101" d="M132.5,492.9v-8h1.7v8H132.5z"/>
		<path fill="#010101" d="M141.3,492.9l-3.8-5.2v5.2h-1.7v-8h1.8l3.7,5v-5h1.7v8H141.3z"/>
		<path fill="#010101" d="M144.5,492.9v-8h5.7v1.5h-4v1.7h3.9v1.5h-3.9v3.3H144.5z"/>
		<path fill="#010101" d="M151,488.9c0-2.4,1.8-4.1,4.2-4.1c2.4,0,4.2,1.7,4.2,4.1c0,2.4-1.8,4.1-4.2,4.1
			C152.7,493,151,491.3,151,488.9z M157.6,488.9c0-1.5-1-2.6-2.4-2.6c-1.5,0-2.4,1.1-2.4,2.6c0,1.5,0.9,2.6,2.4,2.6
			C156.6,491.5,157.6,490.3,157.6,488.9z"/>
		<path fill="#010101" d="M165.1,492.9l-1.6-2.8h-1.2v2.8h-1.7v-8h3.7c1.7,0,2.7,1.1,2.7,2.6c0,1.4-0.9,2.2-1.8,2.4l1.8,3H165.1z
			 M165.2,487.4c0-0.7-0.5-1.1-1.2-1.1h-1.8v2.2h1.8C164.7,488.5,165.2,488.1,165.2,487.4z"/>
		<path fill="#010101" d="M175.2,492.9v-5.6l-2.3,5.6h-0.7l-2.3-5.6v5.6h-1.7v-8h2.4l1.9,4.8l1.9-4.8h2.4v8H175.2z"/>
		<path fill="#010101" d="M184,492.9l-0.5-1.4h-3.4l-0.5,1.4h-1.9l3.1-8h2.1l3.1,8H184z M181.8,486.6l-1.2,3.4h2.5L181.8,486.6z"/>
		<path fill="#010101" d="M187.8,492.9v-6.5h-2.3v-1.5h6.4v1.5h-2.3v6.5H187.8z"/>
		<path fill="#010101" d="M192.9,492.9v-8h1.7v8H192.9z"/>
		<path fill="#010101" d="M195.8,488.9c0-2.4,1.8-4.1,4.2-4.1c2.4,0,4.2,1.7,4.2,4.1c0,2.4-1.8,4.1-4.2,4.1
			C197.6,493,195.8,491.3,195.8,488.9z M202.4,488.9c0-1.5-1-2.6-2.4-2.6c-1.5,0-2.4,1.1-2.4,2.6c0,1.5,0.9,2.6,2.4,2.6
			C201.5,491.5,202.4,490.3,202.4,488.9z"/>
		<path fill="#010101" d="M210.9,492.9l-3.8-5.2v5.2h-1.7v-8h1.8l3.7,5v-5h1.7v8H210.9z"/>
	</g>
	<g>
		<path fill="#010101" d="M57.2,516.9v-6.5h-2.3v-1.5h6.4v1.5h-2.3v6.5H57.2z"/>
		<path fill="#010101" d="M67.1,516.9l-0.5-1.4h-3.4l-0.5,1.4h-1.9l3.1-8H66l3.1,8H67.1z M64.9,510.6l-1.2,3.4h2.5L64.9,510.6z"/>
		<path fill="#010101" d="M75,516.9l-2-2.9l-2,2.9h-2l2.9-4.1l-2.7-3.9h2l1.8,2.7l1.8-2.7h2.1l-2.7,3.9l2.9,4.1H75z"/>
		<path fill="#010101" d="M80.9,516.9v-8h5.7v1.5h-4v1.7h3.9v1.5h-3.9v1.8h4v1.5H80.9z"/>
		<path fill="#010101" d="M93.1,516.9l-2-2.9l-2,2.9h-2l2.9-4.1l-2.7-3.9h2l1.8,2.7l1.8-2.7H95l-2.7,3.9l2.9,4.1H93.1z"/>
		<path fill="#010101" d="M95.9,516.9v-8h5.7v1.5h-4v1.7h3.9v1.5h-3.9v1.8h4v1.5H95.9z"/>
		<path fill="#010101" d="M109.9,516.9v-5.6l-2.3,5.6h-0.7l-2.3-5.6v5.6h-1.7v-8h2.4l1.9,4.8l1.9-4.8h2.4v8H109.9z"/>
		<path fill="#010101" d="M113.2,516.9v-8h3.7c1.7,0,2.7,1.2,2.7,2.6c0,1.4-1,2.6-2.7,2.6h-2v2.8H113.2z M117.8,511.5
			c0-0.7-0.5-1.1-1.2-1.1h-1.8v2.2h1.8C117.3,512.5,117.8,512.1,117.8,511.5z"/>
		<path fill="#010101" d="M122.5,516.9v-6.5h-2.3v-1.5h6.4v1.5h-2.3v6.5H122.5z"/>
		<path fill="#010101" d="M127.6,516.9v-8h1.7v8H127.6z"/>
		<path fill="#010101" d="M130.5,512.9c0-2.4,1.8-4.1,4.2-4.1c2.4,0,4.2,1.7,4.2,4.1s-1.8,4.1-4.2,4.1
			C132.3,517,130.5,515.3,130.5,512.9z M137.1,512.9c0-1.5-1-2.6-2.4-2.6c-1.5,0-2.4,1.1-2.4,2.6c0,1.5,0.9,2.6,2.4,2.6
			C136.2,515.5,137.1,514.4,137.1,512.9z"/>
		<path fill="#010101" d="M145.6,516.9l-3.8-5.2v5.2h-1.7v-8h1.8l3.7,5v-5h1.7v8H145.6z"/>
		<path fill="#010101" d="M151.9,516.9v-8h1.7v8H151.9z"/>
		<path fill="#010101" d="M160.7,516.9l-3.8-5.2v5.2h-1.7v-8h1.8l3.7,5v-5h1.7v8H160.7z"/>
		<path fill="#010101" d="M164,516.9v-8h5.7v1.5h-4v1.7h3.9v1.5h-3.9v3.3H164z"/>
		<path fill="#010101" d="M170.4,512.9c0-2.4,1.8-4.1,4.2-4.1c2.4,0,4.2,1.7,4.2,4.1s-1.8,4.1-4.2,4.1
			C172.2,517,170.4,515.3,170.4,512.9z M177,512.9c0-1.5-1-2.6-2.4-2.6c-1.5,0-2.4,1.1-2.4,2.6c0,1.5,0.9,2.6,2.4,2.6
			C176.1,515.5,177,514.4,177,512.9z"/>
		<path fill="#010101" d="M184.5,516.9l-1.6-2.8h-1.2v2.8H180v-8h3.7c1.7,0,2.7,1.1,2.7,2.6c0,1.4-0.9,2.2-1.8,2.4l1.8,3H184.5z
			 M184.7,511.5c0-0.7-0.5-1.1-1.2-1.1h-1.8v2.2h1.8C184.2,512.5,184.7,512.1,184.7,511.5z"/>
		<path fill="#010101" d="M194.7,516.9v-5.6l-2.3,5.6h-0.7l-2.3-5.6v5.6h-1.7v-8h2.4l1.9,4.8l1.9-4.8h2.4v8H194.7z"/>
		<path fill="#010101" d="M203.5,516.9l-0.5-1.4h-3.4l-0.5,1.4h-1.9l3.1-8h2.1l3.1,8H203.5z M201.3,510.6L200,514h2.5L201.3,510.6z"
			/>
		<path fill="#010101" d="M207.2,516.9v-6.5h-2.3v-1.5h6.4v1.5H209v6.5H207.2z"/>
		<path fill="#010101" d="M212.4,516.9v-8h1.7v8H212.4z"/>
		<path fill="#010101" d="M215.3,512.9c0-2.4,1.8-4.1,4.2-4.1c2.4,0,4.2,1.7,4.2,4.1s-1.8,4.1-4.2,4.1
			C217.1,517,215.3,515.3,215.3,512.9z M221.9,512.9c0-1.5-1-2.6-2.4-2.6c-1.5,0-2.4,1.1-2.4,2.6c0,1.5,0.9,2.6,2.4,2.6
			C220.9,515.5,221.9,514.4,221.9,512.9z"/>
		<path fill="#010101" d="M230.4,516.9l-3.8-5.2v5.2h-1.7v-8h1.8l3.7,5v-5h1.7v8H230.4z"/>
	</g>
	<g>
		<path fill="#010101" d="M103.6,568.8v-8h3.2c2.5,0,4.2,1.6,4.2,4c0,2.4-1.7,4-4.2,4H103.6z M109.3,564.8c0-1.4-0.9-2.5-2.5-2.5
			h-1.5v5h1.5C108.4,567.3,109.3,566.2,109.3,564.8z"/>
		<path fill="#010101" d="M112.3,568.8v-8h5.7v1.5h-4v1.7h3.9v1.5H114v1.8h4v1.5H112.3z"/>
		<path fill="#010101" d="M118.9,564.8c0-2.5,1.9-4.1,4.3-4.1c1.8,0,2.8,1,3.3,2l-1.5,0.7c-0.3-0.6-1.1-1.2-1.9-1.2
			c-1.5,0-2.5,1.1-2.5,2.6c0,1.5,1.1,2.6,2.5,2.6c0.8,0,1.5-0.5,1.9-1.2l1.5,0.7c-0.6,1-1.6,2-3.3,2
			C120.7,568.9,118.9,567.3,118.9,564.8z"/>
		<path fill="#010101" d="M127.5,568.8v-8h1.7v6.5h3.4v1.5H127.5z"/>
		<path fill="#010101" d="M139.3,568.8l-0.5-1.4h-3.4l-0.5,1.4h-1.9l3.1-8h2.1l3.1,8H139.3z M137.1,562.5l-1.2,3.4h2.5L137.1,562.5z
			"/>
		<path fill="#010101" d="M146.5,568.8l-1.6-2.8h-1.2v2.8H142v-8h3.7c1.7,0,2.7,1.1,2.7,2.6c0,1.4-0.9,2.2-1.8,2.4l1.8,3H146.5z
			 M146.7,563.4c0-0.7-0.5-1.1-1.2-1.1h-1.8v2.2h1.8C146.2,564.5,146.7,564.1,146.7,563.4z"/>
		<path fill="#010101" d="M155.2,568.8l-0.5-1.4h-3.4l-0.5,1.4h-1.9l3.1-8h2.1l3.1,8H155.2z M153,562.5l-1.2,3.4h2.5L153,562.5z"/>
		<path fill="#010101" d="M159,568.8v-6.5h-2.3v-1.5h6.4v1.5h-2.3v6.5H159z"/>
		<path fill="#010101" d="M164.1,568.8v-8h1.7v8H164.1z"/>
		<path fill="#010101" d="M167,564.8c0-2.4,1.8-4.1,4.2-4.1c2.4,0,4.2,1.7,4.2,4.1c0,2.4-1.8,4.1-4.2,4.1
			C168.8,568.9,167,567.2,167,564.8z M173.6,564.8c0-1.5-1-2.6-2.4-2.6c-1.5,0-2.4,1.1-2.4,2.6c0,1.5,0.9,2.6,2.4,2.6
			C172.7,567.4,173.6,566.3,173.6,564.8z"/>
		<path fill="#010101" d="M182.1,568.8l-3.8-5.2v5.2h-1.7v-8h1.8l3.7,5v-5h1.7v8H182.1z"/>
	</g>
	<g>
		<path fill="#010101" d="M97.2,443.1v-5.8l-1.3,1.4l-1-1l2.5-2.5h1.5v8H97.2z"/>
		<path fill="#010101" d="M108.7,443.1l-2-2.9l-2,2.9h-2l2.9-4.1l-2.7-3.9h2l1.8,2.7l1.8-2.7h2.1l-2.7,3.9l2.9,4.1H108.7z"/>
		<path fill="#010101" d="M114.6,443.1v-8h3.2c2.5,0,4.2,1.6,4.2,4s-1.7,4-4.2,4H114.6z M120.3,439.1c0-1.4-0.9-2.5-2.5-2.5h-1.5v5
			h1.5C119.3,441.6,120.3,440.4,120.3,439.1z"/>
		<path fill="#010101" d="M122.8,439.1c0-2.4,1.8-4.1,4.2-4.1c2.4,0,4.2,1.7,4.2,4.1s-1.8,4.1-4.2,4.1
			C124.6,443.2,122.8,441.5,122.8,439.1z M129.5,439.1c0-1.5-1-2.6-2.4-2.6c-1.5,0-2.4,1.1-2.4,2.6c0,1.5,0.9,2.6,2.4,2.6
			C128.5,441.7,129.5,440.6,129.5,439.1z"/>
		<path fill="#010101" d="M132,439.1c0-2.5,1.9-4.1,4.3-4.1c1.8,0,2.8,1,3.3,2l-1.5,0.7c-0.3-0.6-1.1-1.2-1.9-1.2
			c-1.5,0-2.5,1.1-2.5,2.6s1.1,2.6,2.5,2.6c0.8,0,1.5-0.5,1.9-1.2l1.5,0.7c-0.6,1-1.6,2-3.3,2C133.9,443.2,132,441.5,132,439.1z"/>
		<path fill="#010101" d="M140.7,439.9v-4.8h1.7v4.8c0,1.1,0.6,1.9,1.9,1.9s1.9-0.8,1.9-1.9v-4.8h1.7v4.8c0,2-1.2,3.3-3.6,3.3
			S140.7,441.9,140.7,439.9z"/>
		<path fill="#010101" d="M156.4,443.1v-5.6l-2.3,5.6h-0.7l-2.3-5.6v5.6h-1.7v-8h2.4l1.9,4.8l1.9-4.8h2.4v8H156.4z"/>
		<path fill="#010101" d="M159.7,443.1v-8h5.7v1.5h-4v1.7h3.9v1.5h-3.9v1.8h4v1.5H159.7z"/>
		<path fill="#010101" d="M172.2,443.1l-3.8-5.2v5.2h-1.7v-8h1.8l3.7,5v-5h1.7v8H172.2z"/>
		<path fill="#010101" d="M177.3,443.1v-6.5H175v-1.5h6.4v1.5H179v6.5H177.3z"/>
		<path fill="#010101" d="M185.5,443.1v-8h4.2c1.5,0,2.3,1,2.3,2c0,1-0.6,1.7-1.4,1.8c0.9,0.1,1.5,1,1.5,2c0,1.2-0.8,2.2-2.3,2.2
			H185.5z M190.3,437.4c0-0.5-0.4-0.9-0.9-0.9h-2.1v1.7h2.1C189.9,438.3,190.3,437.9,190.3,437.4z M190.4,440.7c0-0.5-0.4-0.9-1-0.9
			h-2.2v1.9h2.2C190.1,441.6,190.4,441.3,190.4,440.7z"/>
	</g>
	<line fill="none" stroke="#FFFFFF" stroke-miterlimit="10" x1="63.3" y1="425.6" x2="224.1" y2="425.6"/>
	<line fill="none" stroke="#FFFFFF" stroke-miterlimit="10" x1="63.3" y1="476.9" x2="224.1" y2="476.9"/>
	<line fill="none" stroke="#FFFFFF" stroke-miterlimit="10" x1="63.3" y1="501.4" x2="224.1" y2="501.4"/>
	<line fill="none" stroke="#FFFFFF" stroke-miterlimit="10" x1="63.3" y1="525.4" x2="224.1" y2="525.4"/>
	<rect x="277" y="480.6" fill="#E5E5E5" width="212.9" height="102.5"/>
	<g>
		<path fill="#010101" d="M315,496.6l-0.5-1.4h-3.4l-0.5,1.4h-1.9l3.1-8h2.1l3.1,8H315z M312.8,490.3l-1.2,3.4h2.5L312.8,490.3z"/>
		<path fill="#010101" d="M317.7,496.6v-8h3.7c1.7,0,2.7,1.2,2.7,2.6c0,1.4-1,2.6-2.7,2.6h-2v2.8H317.7z M322.4,491.2
			c0-0.7-0.5-1.1-1.2-1.1h-1.8v2.2h1.8C321.9,492.2,322.4,491.8,322.4,491.2z"/>
		<path fill="#010101" d="M325.2,496.6v-8h3.7c1.7,0,2.7,1.2,2.7,2.6c0,1.4-1,2.6-2.7,2.6h-2v2.8H325.2z M329.9,491.2
			c0-0.7-0.5-1.1-1.2-1.1h-1.8v2.2h1.8C329.3,492.2,329.9,491.8,329.9,491.2z"/>
		<path fill="#010101" d="M332.6,496.6v-8h1.7v6.5h3.4v1.5H332.6z"/>
		<path fill="#010101" d="M338.9,496.6v-8h1.7v8H338.9z"/>
		<path fill="#010101" d="M341.8,492.6c0-2.5,1.9-4.1,4.3-4.1c1.8,0,2.8,1,3.3,2l-1.5,0.7c-0.3-0.6-1.1-1.2-1.9-1.2
			c-1.5,0-2.5,1.1-2.5,2.6c0,1.5,1.1,2.6,2.5,2.6c0.8,0,1.5-0.5,1.9-1.2l1.5,0.7c-0.6,1-1.6,2-3.3,2
			C343.7,496.7,341.8,495,341.8,492.6z"/>
		<path fill="#010101" d="M355.9,496.6l-0.5-1.4H352l-0.5,1.4h-1.9l3.1-8h2.1l3.1,8H355.9z M353.7,490.3l-1.2,3.4h2.5L353.7,490.3z"
			/>
		<path fill="#010101" d="M364.1,496.6l-3.8-5.2v5.2h-1.7v-8h1.8l3.7,5v-5h1.7v8H364.1z"/>
		<path fill="#010101" d="M369.2,496.6v-6.5h-2.3v-1.5h6.4v1.5h-2.3v6.5H369.2z"/>
		<path fill="#010101" d="M377.4,496.6v-8h1.7v8H377.4z"/>
		<path fill="#010101" d="M386.2,496.6l-3.8-5.2v5.2h-1.7v-8h1.8l3.7,5v-5h1.7v8H386.2z"/>
		<path fill="#010101" d="M389.4,496.6v-8h5.7v1.5h-4v1.7h3.9v1.5h-3.9v3.3H389.4z"/>
		<path fill="#010101" d="M395.9,492.6c0-2.4,1.8-4.1,4.2-4.1c2.4,0,4.2,1.7,4.2,4.1c0,2.4-1.8,4.1-4.2,4.1
			C397.7,496.7,395.9,495,395.9,492.6z M402.5,492.6c0-1.5-1-2.6-2.4-2.6c-1.5,0-2.4,1.1-2.4,2.6c0,1.5,0.9,2.6,2.4,2.6
			C401.5,495.2,402.5,494.1,402.5,492.6z"/>
		<path fill="#010101" d="M410,496.6l-1.6-2.8h-1.2v2.8h-1.7v-8h3.7c1.7,0,2.7,1.1,2.7,2.6c0,1.4-0.9,2.2-1.8,2.4l1.8,3H410z
			 M410.1,491.2c0-0.7-0.5-1.1-1.2-1.1h-1.8v2.2h1.8C409.6,492.2,410.1,491.8,410.1,491.2z"/>
		<path fill="#010101" d="M420.1,496.6V491l-2.3,5.6h-0.7l-2.3-5.6v5.6h-1.7v-8h2.4l1.9,4.8l1.9-4.8h2.4v8H420.1z"/>
		<path fill="#010101" d="M428.9,496.6l-0.5-1.4H425l-0.5,1.4h-1.9l3.1-8h2.1l3.1,8H428.9z M426.7,490.3l-1.2,3.4h2.5L426.7,490.3z"
			/>
		<path fill="#010101" d="M432.7,496.6v-6.5h-2.3v-1.5h6.4v1.5h-2.3v6.5H432.7z"/>
		<path fill="#010101" d="M437.9,496.6v-8h1.7v8H437.9z"/>
		<path fill="#010101" d="M440.8,492.6c0-2.4,1.8-4.1,4.2-4.1c2.4,0,4.2,1.7,4.2,4.1c0,2.4-1.8,4.1-4.2,4.1
			C442.5,496.7,440.8,495,440.8,492.6z M447.4,492.6c0-1.5-1-2.6-2.4-2.6c-1.5,0-2.4,1.1-2.4,2.6c0,1.5,0.9,2.6,2.4,2.6
			C446.4,495.2,447.4,494.1,447.4,492.6z"/>
		<path fill="#010101" d="M455.8,496.6l-3.8-5.2v5.2h-1.7v-8h1.8l3.7,5v-5h1.7v8H455.8z"/>
	</g>
	<rect x="520.9" y="402" fill="#E5E5E5" width="212.9" height="181.1"/>
	<g>
		<path fill="#010101" d="M582.6,419l-0.5-1.4h-3.4l-0.5,1.4h-1.9l3.1-8h2.1l3.1,8H582.6z M580.4,412.7l-1.2,3.4h2.5L580.4,412.7z"
			/>
		<path fill="#010101" d="M585.3,419v-8h3.7c1.7,0,2.7,1.2,2.7,2.6c0,1.4-1,2.6-2.7,2.6h-2v2.8H585.3z M590,413.5
			c0-0.7-0.5-1.1-1.2-1.1H587v2.2h1.8C589.5,414.6,590,414.2,590,413.5z"/>
		<path fill="#010101" d="M592.8,419v-8h3.7c1.7,0,2.7,1.2,2.7,2.6c0,1.4-1,2.6-2.7,2.6h-2v2.8H592.8z M597.5,413.5
			c0-0.7-0.5-1.1-1.2-1.1h-1.8v2.2h1.8C597,414.6,597.5,414.2,597.5,413.5z"/>
		<path fill="#010101" d="M600.3,419v-8h1.7v6.5h3.4v1.5H600.3z"/>
		<path fill="#010101" d="M606.5,419v-8h1.7v8H606.5z"/>
		<path fill="#010101" d="M609.5,415c0-2.5,1.9-4.1,4.3-4.1c1.8,0,2.8,1,3.3,2l-1.5,0.7c-0.3-0.6-1.1-1.2-1.9-1.2
			c-1.5,0-2.5,1.1-2.5,2.6c0,1.5,1.1,2.6,2.5,2.6c0.8,0,1.5-0.5,1.9-1.2l1.5,0.7c-0.6,1-1.6,2-3.3,2
			C611.3,419.1,609.5,417.4,609.5,415z"/>
		<path fill="#010101" d="M623.5,419l-0.5-1.4h-3.4l-0.5,1.4h-1.9l3.1-8h2.1l3.1,8H623.5z M621.3,412.7l-1.2,3.4h2.5L621.3,412.7z"
			/>
		<path fill="#010101" d="M631.7,419l-3.8-5.2v5.2h-1.7v-8h1.8l3.7,5v-5h1.7v8H631.7z"/>
		<path fill="#010101" d="M636.8,419v-6.5h-2.3V411h6.4v1.5h-2.3v6.5H636.8z"/>
		<path fill="#010101" d="M650.5,419l-3.8-5.2v5.2H645v-8h1.8l3.7,5v-5h1.7v8H650.5z"/>
		<path fill="#010101" d="M659.3,419l-0.5-1.4h-3.4l-0.5,1.4h-1.9l3.1-8h2.1l3.1,8H659.3z M657.1,412.7l-1.2,3.4h2.5L657.1,412.7z"
			/>
		<path fill="#010101" d="M668.9,419v-5.6l-2.3,5.6h-0.7l-2.3-5.6v5.6H662v-8h2.4l1.9,4.8l1.9-4.8h2.4v8H668.9z"/>
		<path fill="#010101" d="M672.2,419v-8h5.7v1.5h-4v1.7h3.9v1.5h-3.9v1.8h4v1.5H672.2z"/>
	</g>
	<g>
		<path fill="#010101" d="M587.2,443.1v-8h5.7v1.5h-4v1.7h3.9v1.5h-3.9v3.3H587.2z"/>
		<path fill="#010101" d="M593.7,439.1c0-2.4,1.8-4.1,4.2-4.1c2.4,0,4.2,1.7,4.2,4.1s-1.8,4.1-4.2,4.1
			C595.4,443.2,593.7,441.5,593.7,439.1z M600.3,439.1c0-1.5-1-2.6-2.4-2.6c-1.5,0-2.4,1.1-2.4,2.6c0,1.5,0.9,2.6,2.4,2.6
			C599.3,441.7,600.3,440.6,600.3,439.1z"/>
		<path fill="#010101" d="M607.7,443.1l-1.6-2.8h-1.2v2.8h-1.7v-8h3.7c1.7,0,2.7,1.1,2.7,2.6c0,1.4-0.9,2.2-1.8,2.4l1.8,3H607.7z
			 M607.9,437.7c0-0.7-0.5-1.1-1.2-1.1h-1.8v2.2h1.8C607.4,438.7,607.9,438.3,607.9,437.7z"/>
		<path fill="#010101" d="M614,443.1v-8h4.2c1.5,0,2.3,1,2.3,2c0,1-0.6,1.7-1.4,1.8c0.9,0.1,1.5,1,1.5,2c0,1.2-0.8,2.2-2.3,2.2H614z
			 M618.8,437.4c0-0.5-0.4-0.9-0.9-0.9h-2.1v1.7h2.1C618.4,438.3,618.8,437.9,618.8,437.4z M618.9,440.7c0-0.5-0.4-0.9-1-0.9h-2.2
			v1.9h2.2C618.6,441.6,618.9,441.3,618.9,440.7z"/>
		<path fill="#010101" d="M626.5,443.1l-1.6-2.8h-1.2v2.8H622v-8h3.7c1.7,0,2.7,1.1,2.7,2.6c0,1.4-0.9,2.2-1.8,2.4l1.8,3H626.5z
			 M626.6,437.7c0-0.7-0.5-1.1-1.2-1.1h-1.8v2.2h1.8C626.1,438.7,626.6,438.3,626.6,437.7z"/>
		<path fill="#010101" d="M635.2,443.1l-0.5-1.4h-3.4l-0.5,1.4h-1.9l3.1-8h2.1l3.1,8H635.2z M633,436.8l-1.2,3.4h2.5L633,436.8z"/>
		<path fill="#010101" d="M643.4,443.1l-3.8-5.2v5.2h-1.7v-8h1.8l3.7,5v-5h1.7v8H643.4z"/>
		<path fill="#010101" d="M646.2,439.1c0-2.5,1.9-4.1,4.3-4.1c1.8,0,2.8,1,3.3,2l-1.5,0.7c-0.3-0.6-1.1-1.2-1.9-1.2
			c-1.5,0-2.5,1.1-2.5,2.6s1.1,2.6,2.5,2.6c0.8,0,1.5-0.5,1.9-1.2l1.5,0.7c-0.6,1-1.6,2-3.3,2C648.1,443.2,646.2,441.5,646.2,439.1z
			"/>
		<path fill="#010101" d="M660.4,443.1v-3.4h-3.8v3.4h-1.7v-8h1.7v3.1h3.8v-3.1h1.7v8H660.4z"/>
		<path fill="#010101" d="M664.6,439.6c0-1.4,1.8-1.6,1.8-2.4c0-0.4-0.3-0.7-0.9-0.7c-0.6,0-1.1,0.3-1.5,0.7l-1-1.1
			c0.6-0.7,1.6-1.2,2.6-1.2c1.5,0,2.5,0.8,2.5,1.9c0,1.8-2,1.9-2,2.9c0,0.2,0.1,0.4,0.2,0.5l-1.3,0.4
			C664.7,440.4,664.6,440,664.6,439.6z M664.6,442.2c0-0.5,0.4-1,1-1c0.5,0,1,0.4,1,1s-0.4,1-1,1C665,443.2,664.6,442.8,664.6,442.2
			z"/>
	</g>
	<g>
		<path fill="#010101" d="M606.4,468.9l-0.5-1.4h-3.4l-0.5,1.4H600l3.1-8h2.1l3.1,8H606.4z M604.2,462.6l-1.2,3.4h2.5L604.2,462.6z"
			/>
		<path fill="#010101" d="M609.1,468.9v-8h3.2c2.5,0,4.2,1.6,4.2,4c0,2.4-1.7,4-4.2,4H609.1z M614.7,464.9c0-1.4-0.9-2.5-2.5-2.5
			h-1.5v5h1.5C613.8,467.4,614.7,466.3,614.7,464.9z"/>
		<path fill="#010101" d="M617.7,468.9v-8h3.2c2.5,0,4.2,1.6,4.2,4c0,2.4-1.7,4-4.2,4H617.7z M623.4,464.9c0-1.4-0.9-2.5-2.5-2.5
			h-1.5v5h1.5C622.4,467.4,623.4,466.3,623.4,464.9z"/>
		<path fill="#010101" d="M630.8,468.9l-1.6-2.8H628v2.8h-1.7v-8h3.7c1.7,0,2.7,1.1,2.7,2.6c0,1.4-0.9,2.2-1.8,2.4l1.8,3H630.8z
			 M631,463.5c0-0.7-0.5-1.1-1.2-1.1H628v2.2h1.8C630.5,464.6,631,464.2,631,463.5z"/>
		<path fill="#010101" d="M634,468.9v-8h5.7v1.5h-4v1.7h3.9v1.5h-3.9v1.8h4v1.5H634z"/>
		<path fill="#010101" d="M640.5,467.8l0.9-1.3c0.6,0.6,1.4,1.1,2.5,1.1c0.9,0,1.4-0.4,1.4-0.9c0-1.4-4.6-0.4-4.6-3.5
			c0-1.3,1.2-2.4,3-2.4c1.3,0,2.3,0.4,3.1,1.1l-0.9,1.2c-0.6-0.6-1.5-0.9-2.3-0.9c-0.7,0-1.1,0.3-1.1,0.8c0,1.3,4.6,0.4,4.6,3.4
			c0,1.5-1,2.6-3.2,2.6C642.3,469.1,641.2,468.6,640.5,467.8z"/>
		<path fill="#010101" d="M647.7,467.8l0.9-1.3c0.6,0.6,1.4,1.1,2.5,1.1c0.9,0,1.4-0.4,1.4-0.9c0-1.4-4.6-0.4-4.6-3.5
			c0-1.3,1.2-2.4,3-2.4c1.3,0,2.3,0.4,3.1,1.1l-0.9,1.2c-0.6-0.6-1.5-0.9-2.3-0.9c-0.7,0-1.1,0.3-1.1,0.8c0,1.3,4.6,0.4,4.6,3.4
			c0,1.5-1,2.6-3.2,2.6C649.5,469.1,648.4,468.6,647.7,467.8z"/>
	</g>
	<g>
		<path fill="#010101" d="M320.1,520.8l-0.5-1.4h-3.4l-0.5,1.4h-1.9l3.1-8h2.1l3.1,8H320.1z M317.9,514.5l-1.2,3.4h2.5L317.9,514.5z
			"/>
		<path fill="#010101" d="M322.8,520.8v-8h3.2c2.5,0,4.2,1.6,4.2,4c0,2.4-1.7,4-4.2,4H322.8z M328.5,516.8c0-1.4-0.9-2.5-2.5-2.5
			h-1.5v5h1.5C327.6,519.3,328.5,518.2,328.5,516.8z"/>
		<path fill="#010101" d="M331.4,520.8v-8h3.2c2.5,0,4.2,1.6,4.2,4c0,2.4-1.7,4-4.2,4H331.4z M337.1,516.8c0-1.4-0.9-2.5-2.5-2.5
			h-1.5v5h1.5C336.2,519.3,337.1,518.2,337.1,516.8z"/>
		<path fill="#010101" d="M344.6,520.8L343,518h-1.2v2.8h-1.7v-8h3.7c1.7,0,2.7,1.1,2.7,2.6c0,1.4-0.9,2.2-1.8,2.4l1.8,3H344.6z
			 M344.7,515.4c0-0.7-0.5-1.1-1.2-1.1h-1.8v2.2h1.8C344.2,516.5,344.7,516.1,344.7,515.4z"/>
		<path fill="#010101" d="M347.8,520.8v-8h5.7v1.5h-4v1.7h3.9v1.5h-3.9v1.8h4v1.5H347.8z"/>
		<path fill="#010101" d="M354.2,519.7l0.9-1.3c0.6,0.6,1.4,1.1,2.5,1.1c0.9,0,1.4-0.4,1.4-0.9c0-1.4-4.6-0.4-4.6-3.5
			c0-1.3,1.2-2.4,3-2.4c1.3,0,2.3,0.4,3.1,1.1l-0.9,1.2c-0.6-0.6-1.5-0.9-2.3-0.9c-0.7,0-1.1,0.3-1.1,0.8c0,1.3,4.6,0.4,4.6,3.4
			c0,1.5-1,2.6-3.2,2.6C356.1,521,355,520.5,354.2,519.7z"/>
		<path fill="#010101" d="M361.4,519.7l0.9-1.3c0.6,0.6,1.4,1.1,2.5,1.1c0.9,0,1.4-0.4,1.4-0.9c0-1.4-4.6-0.4-4.6-3.5
			c0-1.3,1.2-2.4,3-2.4c1.3,0,2.3,0.4,3.1,1.1l-0.9,1.2c-0.6-0.6-1.5-0.9-2.3-0.9c-0.7,0-1.1,0.3-1.1,0.8c0,1.3,4.6,0.4,4.6,3.4
			c0,1.5-1,2.6-3.2,2.6C363.3,521,362.2,520.5,361.4,519.7z"/>
		<path fill="#010101" d="M372.2,520.8v-8h1.7v8H372.2z"/>
		<path fill="#010101" d="M381,520.8l-3.8-5.2v5.2h-1.7v-8h1.8l3.7,5v-5h1.7v8H381z"/>
		<path fill="#010101" d="M384.3,520.8v-8h5.7v1.5h-4v1.7h3.9v1.5H386v3.3H384.3z"/>
		<path fill="#010101" d="M390.7,516.8c0-2.4,1.8-4.1,4.2-4.1c2.4,0,4.2,1.7,4.2,4.1c0,2.4-1.8,4.1-4.2,4.1
			C392.5,521,390.7,519.2,390.7,516.8z M397.3,516.8c0-1.5-1-2.6-2.4-2.6c-1.5,0-2.4,1.1-2.4,2.6c0,1.5,0.9,2.6,2.4,2.6
			C396.4,519.5,397.3,518.3,397.3,516.8z"/>
		<path fill="#010101" d="M404.8,520.8l-1.6-2.8H402v2.8h-1.7v-8h3.7c1.7,0,2.7,1.1,2.7,2.6c0,1.4-0.9,2.2-1.8,2.4l1.8,3H404.8z
			 M405,515.4c0-0.7-0.5-1.1-1.2-1.1H402v2.2h1.8C404.5,516.5,405,516.1,405,515.4z"/>
		<path fill="#010101" d="M415,520.8v-5.6l-2.3,5.6H412l-2.3-5.6v5.6H408v-8h2.4l1.9,4.8l1.9-4.8h2.4v8H415z"/>
		<path fill="#010101" d="M423.8,520.8l-0.5-1.4h-3.4l-0.5,1.4h-1.9l3.1-8h2.1l3.1,8H423.8z M421.6,514.5l-1.2,3.4h2.5L421.6,514.5z
			"/>
		<path fill="#010101" d="M427.6,520.8v-6.5h-2.3v-1.5h6.4v1.5h-2.3v6.5H427.6z"/>
		<path fill="#010101" d="M432.7,520.8v-8h1.7v8H432.7z"/>
		<path fill="#010101" d="M435.6,516.8c0-2.4,1.8-4.1,4.2-4.1c2.4,0,4.2,1.7,4.2,4.1c0,2.4-1.8,4.1-4.2,4.1
			C437.4,521,435.6,519.2,435.6,516.8z M442.2,516.8c0-1.5-1-2.6-2.4-2.6c-1.5,0-2.4,1.1-2.4,2.6c0,1.5,0.9,2.6,2.4,2.6
			C441.3,519.5,442.2,518.3,442.2,516.8z"/>
		<path fill="#010101" d="M450.7,520.8l-3.8-5.2v5.2h-1.7v-8h1.8l3.7,5v-5h1.7v8H450.7z"/>
	</g>
	<g>
		<path fill="#010101" d="M297,544.9v-6.5h-2.3v-1.5h6.4v1.5h-2.3v6.5H297z"/>
		<path fill="#010101" d="M306.9,544.9l-0.5-1.4H303l-0.5,1.4h-1.9l3.1-8h2.1l3.1,8H306.9z M304.7,538.6l-1.2,3.4h2.5L304.7,538.6z"
			/>
		<path fill="#010101" d="M314.8,544.9l-2-2.9l-2,2.9h-2l2.9-4.1l-2.7-3.9h2l1.8,2.7l1.8-2.7h2.1l-2.7,3.9l2.9,4.1H314.8z"/>
		<path fill="#010101" d="M320.7,544.9v-8h5.7v1.5h-4v1.7h3.9v1.5h-3.9v1.8h4v1.5H320.7z"/>
		<path fill="#010101" d="M332.9,544.9l-2-2.9l-2,2.9h-2l2.9-4.1l-2.7-3.9h2l1.8,2.7l1.8-2.7h2.1l-2.7,3.9l2.9,4.1H332.9z"/>
		<path fill="#010101" d="M335.7,544.9v-8h5.7v1.5h-4v1.7h3.9v1.5h-3.9v1.8h4v1.5H335.7z"/>
		<path fill="#010101" d="M349.6,544.9v-5.6l-2.3,5.6h-0.7l-2.3-5.6v5.6h-1.7v-8h2.4l1.9,4.8l1.9-4.8h2.4v8H349.6z"/>
		<path fill="#010101" d="M352.9,544.9v-8h3.7c1.7,0,2.7,1.2,2.7,2.6c0,1.4-1,2.6-2.7,2.6h-2v2.8H352.9z M357.6,539.4
			c0-0.7-0.5-1.1-1.2-1.1h-1.8v2.2h1.8C357.1,540.5,357.6,540.1,357.6,539.4z"/>
		<path fill="#010101" d="M362.3,544.9v-6.5h-2.3v-1.5h6.4v1.5H364v6.5H362.3z"/>
		<path fill="#010101" d="M367.4,544.9v-8h1.7v8H367.4z"/>
		<path fill="#010101" d="M370.3,540.9c0-2.4,1.8-4.1,4.2-4.1c2.4,0,4.2,1.7,4.2,4.1c0,2.4-1.8,4.1-4.2,4.1
			C372.1,545,370.3,543.3,370.3,540.9z M376.9,540.9c0-1.5-1-2.6-2.4-2.6c-1.5,0-2.4,1.1-2.4,2.6c0,1.5,0.9,2.6,2.4,2.6
			C376,543.5,376.9,542.4,376.9,540.9z"/>
		<path fill="#010101" d="M385.4,544.9l-3.8-5.2v5.2h-1.7v-8h1.8l3.7,5v-5h1.7v8H385.4z"/>
		<path fill="#010101" d="M391.7,544.9v-8h1.7v8H391.7z"/>
		<path fill="#010101" d="M400.5,544.9l-3.8-5.2v5.2H395v-8h1.8l3.7,5v-5h1.7v8H400.5z"/>
		<path fill="#010101" d="M403.7,544.9v-8h5.7v1.5h-4v1.7h3.9v1.5h-3.9v3.3H403.7z"/>
		<path fill="#010101" d="M410.2,540.9c0-2.4,1.8-4.1,4.2-4.1c2.4,0,4.2,1.7,4.2,4.1c0,2.4-1.8,4.1-4.2,4.1
			C412,545,410.2,543.3,410.2,540.9z M416.8,540.9c0-1.5-1-2.6-2.4-2.6c-1.5,0-2.4,1.1-2.4,2.6c0,1.5,0.9,2.6,2.4,2.6
			C415.8,543.5,416.8,542.4,416.8,540.9z"/>
		<path fill="#010101" d="M424.3,544.9l-1.6-2.8h-1.2v2.8h-1.7v-8h3.7c1.7,0,2.7,1.1,2.7,2.6c0,1.4-0.9,2.2-1.8,2.4l1.8,3H424.3z
			 M424.5,539.4c0-0.7-0.5-1.1-1.2-1.1h-1.8v2.2h1.8C423.9,540.5,424.5,540.1,424.5,539.4z"/>
		<path fill="#010101" d="M434.4,544.9v-5.6l-2.3,5.6h-0.7l-2.3-5.6v5.6h-1.7v-8h2.4l1.9,4.8l1.9-4.8h2.4v8H434.4z"/>
		<path fill="#010101" d="M443.3,544.9l-0.5-1.4h-3.4l-0.5,1.4h-1.9l3.1-8h2.1l3.1,8H443.3z M441,538.6l-1.2,3.4h2.5L441,538.6z"/>
		<path fill="#010101" d="M447,544.9v-6.5h-2.3v-1.5h6.4v1.5h-2.3v6.5H447z"/>
		<path fill="#010101" d="M452.2,544.9v-8h1.7v8H452.2z"/>
		<path fill="#010101" d="M455.1,540.9c0-2.4,1.8-4.1,4.2-4.1c2.4,0,4.2,1.7,4.2,4.1c0,2.4-1.8,4.1-4.2,4.1
			C456.8,545,455.1,543.3,455.1,540.9z M461.7,540.9c0-1.5-1-2.6-2.4-2.6c-1.5,0-2.4,1.1-2.4,2.6c0,1.5,0.9,2.6,2.4,2.6
			C460.7,543.5,461.7,542.4,461.7,540.9z"/>
		<path fill="#010101" d="M470.1,544.9l-3.8-5.2v5.2h-1.7v-8h1.8l3.7,5v-5h1.7v8H470.1z"/>
	</g>
	<g>
		<path fill="#010101" d="M343.4,568.8v-8h3.2c2.5,0,4.2,1.6,4.2,4c0,2.4-1.7,4-4.2,4H343.4z M349.1,564.8c0-1.4-0.9-2.5-2.5-2.5
			h-1.5v5h1.5C348.2,567.3,349.1,566.2,349.1,564.8z"/>
		<path fill="#010101" d="M352,568.8v-8h5.7v1.5h-4v1.7h3.9v1.5h-3.9v1.8h4v1.5H352z"/>
		<path fill="#010101" d="M358.6,564.8c0-2.5,1.9-4.1,4.3-4.1c1.8,0,2.8,1,3.3,2l-1.5,0.7c-0.3-0.6-1.1-1.2-1.9-1.2
			c-1.5,0-2.5,1.1-2.5,2.6c0,1.5,1.1,2.6,2.5,2.6c0.8,0,1.5-0.5,1.9-1.2l1.5,0.7c-0.6,1-1.6,2-3.3,2
			C360.5,568.9,358.6,567.3,358.6,564.8z"/>
		<path fill="#010101" d="M367.3,568.8v-8h1.7v6.5h3.4v1.5H367.3z"/>
		<path fill="#010101" d="M379.1,568.8l-0.5-1.4h-3.4l-0.5,1.4h-1.9l3.1-8h2.1l3.1,8H379.1z M376.9,562.5l-1.2,3.4h2.5L376.9,562.5z
			"/>
		<path fill="#010101" d="M386.3,568.8l-1.6-2.8h-1.2v2.8h-1.7v-8h3.7c1.7,0,2.7,1.1,2.7,2.6c0,1.4-0.9,2.2-1.8,2.4l1.8,3H386.3z
			 M386.4,563.4c0-0.7-0.5-1.1-1.2-1.1h-1.8v2.2h1.8C385.9,564.5,386.4,564.1,386.4,563.4z"/>
		<path fill="#010101" d="M395,568.8l-0.5-1.4h-3.4l-0.5,1.4h-1.9l3.1-8h2.1l3.1,8H395z M392.8,562.5l-1.2,3.4h2.5L392.8,562.5z"/>
		<path fill="#010101" d="M398.8,568.8v-6.5h-2.3v-1.5h6.4v1.5h-2.3v6.5H398.8z"/>
		<path fill="#010101" d="M403.9,568.8v-8h1.7v8H403.9z"/>
		<path fill="#010101" d="M406.8,564.8c0-2.4,1.8-4.1,4.2-4.1c2.4,0,4.2,1.7,4.2,4.1c0,2.4-1.8,4.1-4.2,4.1
			C408.6,568.9,406.8,567.2,406.8,564.8z M413.4,564.8c0-1.5-1-2.6-2.4-2.6c-1.5,0-2.4,1.1-2.4,2.6c0,1.5,0.9,2.6,2.4,2.6
			C412.4,567.4,413.4,566.3,413.4,564.8z"/>
		<path fill="#010101" d="M421.9,568.8l-3.8-5.2v5.2h-1.7v-8h1.8l3.7,5v-5h1.7v8H421.9z"/>
	</g>
	<g>
		<path fill="#010101" d="M587.3,568.8v-8h3.2c2.5,0,4.2,1.6,4.2,4c0,2.4-1.7,4-4.2,4H587.3z M593,564.8c0-1.4-0.9-2.5-2.5-2.5H589
			v5h1.5C592,567.3,593,566.2,593,564.8z"/>
		<path fill="#010101" d="M595.9,568.8v-8h5.7v1.5h-4v1.7h3.9v1.5h-3.9v1.8h4v1.5H595.9z"/>
		<path fill="#010101" d="M602.5,564.8c0-2.5,1.9-4.1,4.3-4.1c1.8,0,2.8,1,3.3,2l-1.5,0.7c-0.3-0.6-1.1-1.2-1.9-1.2
			c-1.5,0-2.5,1.1-2.5,2.6c0,1.5,1.1,2.6,2.5,2.6c0.8,0,1.5-0.5,1.9-1.2l1.5,0.7c-0.6,1-1.6,2-3.3,2
			C604.4,568.9,602.5,567.3,602.5,564.8z"/>
		<path fill="#010101" d="M611.2,568.8v-8h1.7v6.5h3.4v1.5H611.2z"/>
		<path fill="#010101" d="M623,568.8l-0.5-1.4H619l-0.5,1.4h-1.9l3.1-8h2.1l3.1,8H623z M620.7,562.5l-1.2,3.4h2.5L620.7,562.5z"/>
		<path fill="#010101" d="M630.2,568.8l-1.6-2.8h-1.2v2.8h-1.7v-8h3.7c1.7,0,2.7,1.1,2.7,2.6c0,1.4-0.9,2.2-1.8,2.4l1.8,3H630.2z
			 M630.3,563.4c0-0.7-0.5-1.1-1.2-1.1h-1.8v2.2h1.8C629.8,564.5,630.3,564.1,630.3,563.4z"/>
		<path fill="#010101" d="M638.9,568.8l-0.5-1.4H635l-0.5,1.4h-1.9l3.1-8h2.1l3.1,8H638.9z M636.7,562.5l-1.2,3.4h2.5L636.7,562.5z"
			/>
		<path fill="#010101" d="M642.6,568.8v-6.5h-2.3v-1.5h6.4v1.5h-2.3v6.5H642.6z"/>
		<path fill="#010101" d="M647.8,568.8v-8h1.7v8H647.8z"/>
		<path fill="#010101" d="M650.7,564.8c0-2.4,1.8-4.1,4.2-4.1c2.4,0,4.2,1.7,4.2,4.1c0,2.4-1.8,4.1-4.2,4.1
			C652.5,568.9,650.7,567.2,650.7,564.8z M657.3,564.8c0-1.5-1-2.6-2.4-2.6c-1.5,0-2.4,1.1-2.4,2.6c0,1.5,0.9,2.6,2.4,2.6
			C656.3,567.4,657.3,566.3,657.3,564.8z"/>
		<path fill="#010101" d="M665.8,568.8l-3.8-5.2v5.2h-1.7v-8h1.8l3.7,5v-5h1.7v8H665.8z"/>
	</g>
	<line fill="none" stroke="#FFFFFF" stroke-miterlimit="10" x1="303.1" y1="504.9" x2="463.9" y2="504.9"/>
	<line fill="none" stroke="#FFFFFF" stroke-miterlimit="10" x1="303.1" y1="529.4" x2="463.9" y2="529.4"/>
	<line fill="none" stroke="#FFFFFF" stroke-miterlimit="10" x1="303.1" y1="553.4" x2="463.9" y2="553.4"/>
	<g>
		<polygon fill="#58595B" points="494.2,377.2 272.7,377.2 271.7,377.2 271.7,378.2 271.7,401.7 271.7,402.7 272.7,402.7 
			494.2,402.7 495.3,402.7 495.3,401.7 495.3,378.2 495.3,377.2 		"/>
		<g>
			<g>
				<path fill="#010101" d="M365.6,394.5v-8h1.7v8H365.6z"/>
				<path fill="#010101" d="M373.4,394.5l-1.6-2.8h-1.2v2.8h-1.7v-8h3.7c1.7,0,2.7,1.1,2.7,2.6c0,1.4-0.9,2.2-1.8,2.4l1.8,3H373.4z
					 M373.6,389.1c0-0.7-0.5-1.1-1.2-1.1h-1.8v2.2h1.8C373.1,390.2,373.6,389.8,373.6,389.1z"/>
				<path fill="#010101" d="M379.5,393.5l0.9-1.2c0.5,0.6,1.3,0.9,2.1,0.9c0.9,0,1.5-0.5,1.5-1.2c0-0.7-0.5-1.2-1.4-1.2
					c-0.7,0-1.2,0.2-1.7,0.6l-1.2-0.3v-4.6h5.5v1.5h-3.8v2c0.4-0.4,1-0.7,1.8-0.7c1.4,0,2.6,1,2.6,2.6c0,1.7-1.3,2.8-3.2,2.8
					C381.2,394.7,380.2,394.2,379.5,393.5z"/>
				<path fill="#010101" d="M387,393.8l0.8-1.3c0.4,0.4,0.9,0.6,1.6,0.6c1.3,0,2-1.1,2-2.3c0-0.1,0-0.1,0-0.2c-0.4,0.5-1.2,1-2.1,1
					c-1.4,0-2.7-0.9-2.7-2.6c0-1.6,1.2-2.7,3.1-2.7c2.4,0,3.4,1.9,3.4,4.1c0,2.4-1.4,4.1-3.7,4.1C388.4,394.6,387.6,394.3,387,393.8
					z M391.3,389.5c-0.1-0.8-0.5-1.6-1.6-1.6c-0.9,0-1.4,0.6-1.4,1.2c0,0.8,0.7,1.2,1.5,1.2C390.4,390.3,390.9,390,391.3,389.5z"/>
				<path fill="#010101" d="M394.1,393.5l0.9-1.2c0.5,0.6,1.3,0.9,2.1,0.9c0.9,0,1.5-0.5,1.5-1.2c0-0.7-0.5-1.2-1.4-1.2
					c-0.7,0-1.2,0.2-1.7,0.6l-1.2-0.3v-4.6h5.5v1.5H396v2c0.4-0.4,1-0.7,1.8-0.7c1.4,0,2.6,1,2.6,2.6c0,1.7-1.3,2.8-3.2,2.8
					C395.8,394.7,394.8,394.2,394.1,393.5z"/>
			</g>
			<g>
				<path fill="#FFFFFF" d="M365.6,394.5v-8h1.7v8H365.6z"/>
				<path fill="#FFFFFF" d="M373.4,394.5l-1.6-2.8h-1.2v2.8h-1.7v-8h3.7c1.7,0,2.7,1.1,2.7,2.6c0,1.4-0.9,2.2-1.8,2.4l1.8,3H373.4z
					 M373.6,389.1c0-0.7-0.5-1.1-1.2-1.1h-1.8v2.2h1.8C373.1,390.2,373.6,389.8,373.6,389.1z"/>
				<path fill="#FFFFFF" d="M379.5,393.5l0.9-1.2c0.5,0.6,1.3,0.9,2.1,0.9c0.9,0,1.5-0.5,1.5-1.2c0-0.7-0.5-1.2-1.4-1.2
					c-0.7,0-1.2,0.2-1.7,0.6l-1.2-0.3v-4.6h5.5v1.5h-3.8v2c0.4-0.4,1-0.7,1.8-0.7c1.4,0,2.6,1,2.6,2.6c0,1.7-1.3,2.8-3.2,2.8
					C381.2,394.7,380.2,394.2,379.5,393.5z"/>
				<path fill="#FFFFFF" d="M387,393.8l0.8-1.3c0.4,0.4,0.9,0.6,1.6,0.6c1.3,0,2-1.1,2-2.3c0-0.1,0-0.1,0-0.2c-0.4,0.5-1.2,1-2.1,1
					c-1.4,0-2.7-0.9-2.7-2.6c0-1.6,1.2-2.7,3.1-2.7c2.4,0,3.4,1.9,3.4,4.1c0,2.4-1.4,4.1-3.7,4.1C388.4,394.6,387.6,394.3,387,393.8
					z M391.3,389.5c-0.1-0.8-0.5-1.6-1.6-1.6c-0.9,0-1.4,0.6-1.4,1.2c0,0.8,0.7,1.2,1.5,1.2C390.4,390.3,390.9,390,391.3,389.5z"/>
				<path fill="#FFFFFF" d="M394.1,393.5l0.9-1.2c0.5,0.6,1.3,0.9,2.1,0.9c0.9,0,1.5-0.5,1.5-1.2c0-0.7-0.5-1.2-1.4-1.2
					c-0.7,0-1.2,0.2-1.7,0.6l-1.2-0.3v-4.6h5.5v1.5H396v2c0.4-0.4,1-0.7,1.8-0.7c1.4,0,2.6,1,2.6,2.6c0,1.7-1.3,2.8-3.2,2.8
					C395.8,394.7,394.8,394.2,394.1,393.5z"/>
			</g>
		</g>
	</g>
	<g>
		<g>
			<rect x="515.5" y="378.2" fill="#58595B" width="223.6" height="23.5"/>
		</g>
		<g>
			<g>
				<path fill="#010101" d="M610.2,394.5v-8h1.7v8H610.2z"/>
				<path fill="#010101" d="M618,394.5l-1.6-2.8h-1.2v2.8h-1.7v-8h3.7c1.7,0,2.7,1.1,2.7,2.6c0,1.4-0.9,2.2-1.8,2.4l1.8,3H618z
					 M618.1,389.1c0-0.7-0.5-1.1-1.2-1.1h-1.8v2.2h1.8C617.6,390.2,618.1,389.8,618.1,389.1z"/>
				<path fill="#010101" d="M624,393.5l0.9-1.2c0.5,0.6,1.3,0.9,2.1,0.9c0.9,0,1.5-0.5,1.5-1.2c0-0.7-0.5-1.2-1.4-1.2
					c-0.7,0-1.2,0.2-1.7,0.6l-1.2-0.3v-4.6h5.5v1.5H626v2c0.4-0.4,1-0.7,1.8-0.7c1.4,0,2.6,1,2.6,2.6c0,1.7-1.3,2.8-3.2,2.8
					C625.7,394.7,624.7,394.2,624,393.5z"/>
				<path fill="#010101" d="M631.6,393.8l0.8-1.3c0.4,0.4,0.9,0.6,1.6,0.6c1.3,0,2-1.1,2-2.3c0-0.1,0-0.1,0-0.2
					c-0.4,0.5-1.2,1-2.1,1c-1.4,0-2.7-0.9-2.7-2.6c0-1.6,1.2-2.7,3.1-2.7c2.4,0,3.4,1.9,3.4,4.1c0,2.4-1.4,4.1-3.7,4.1
					C632.9,394.6,632.1,394.3,631.6,393.8z M635.9,389.5c-0.1-0.8-0.5-1.6-1.6-1.6c-0.9,0-1.4,0.6-1.4,1.2c0,0.8,0.7,1.2,1.5,1.2
					C634.9,390.3,635.5,390,635.9,389.5z"/>
				<path fill="#010101" d="M638.5,390.5c0-2.4,1.4-4.1,3.7-4.1c1,0,1.8,0.3,2.4,0.8l-0.8,1.3c-0.4-0.4-0.9-0.6-1.6-0.6
					c-1.2,0-2,1-2,2.3c0,0.1,0,0.1,0,0.2c0.4-0.5,1.2-1,2.1-1c1.4,0,2.7,0.9,2.7,2.6c0,1.6-1.2,2.7-3.1,2.7
					C639.5,394.7,638.5,392.8,638.5,390.5z M643.2,392c0-0.8-0.7-1.2-1.5-1.2c-0.6,0-1.2,0.3-1.6,0.8c0.1,0.8,0.5,1.6,1.6,1.6
					C642.7,393.1,643.2,392.5,643.2,392z"/>
			</g>
			<g>
				<path fill="#FFFFFF" d="M610.2,394.5v-8h1.7v8H610.2z"/>
				<path fill="#FFFFFF" d="M618,394.5l-1.6-2.8h-1.2v2.8h-1.7v-8h3.7c1.7,0,2.7,1.1,2.7,2.6c0,1.4-0.9,2.2-1.8,2.4l1.8,3H618z
					 M618.1,389.1c0-0.7-0.5-1.1-1.2-1.1h-1.8v2.2h1.8C617.6,390.2,618.1,389.8,618.1,389.1z"/>
				<path fill="#FFFFFF" d="M624,393.5l0.9-1.2c0.5,0.6,1.3,0.9,2.1,0.9c0.9,0,1.5-0.5,1.5-1.2c0-0.7-0.5-1.2-1.4-1.2
					c-0.7,0-1.2,0.2-1.7,0.6l-1.2-0.3v-4.6h5.5v1.5H626v2c0.4-0.4,1-0.7,1.8-0.7c1.4,0,2.6,1,2.6,2.6c0,1.7-1.3,2.8-3.2,2.8
					C625.7,394.7,624.7,394.2,624,393.5z"/>
				<path fill="#FFFFFF" d="M631.6,393.8l0.8-1.3c0.4,0.4,0.9,0.6,1.6,0.6c1.3,0,2-1.1,2-2.3c0-0.1,0-0.1,0-0.2
					c-0.4,0.5-1.2,1-2.1,1c-1.4,0-2.7-0.9-2.7-2.6c0-1.6,1.2-2.7,3.1-2.7c2.4,0,3.4,1.9,3.4,4.1c0,2.4-1.4,4.1-3.7,4.1
					C632.9,394.6,632.1,394.3,631.6,393.8z M635.9,389.5c-0.1-0.8-0.5-1.6-1.6-1.6c-0.9,0-1.4,0.6-1.4,1.2c0,0.8,0.7,1.2,1.5,1.2
					C634.9,390.3,635.5,390,635.9,389.5z"/>
				<path fill="#FFFFFF" d="M638.5,390.5c0-2.4,1.4-4.1,3.7-4.1c1,0,1.8,0.3,2.4,0.8l-0.8,1.3c-0.4-0.4-0.9-0.6-1.6-0.6
					c-1.2,0-2,1-2,2.3c0,0.1,0,0.1,0,0.2c0.4-0.5,1.2-1,2.1-1c1.4,0,2.7,0.9,2.7,2.6c0,1.6-1.2,2.7-3.1,2.7
					C639.5,394.7,638.5,392.8,638.5,390.5z M643.2,392c0-0.8-0.7-1.2-1.5-1.2c-0.6,0-1.2,0.3-1.6,0.8c0.1,0.8,0.5,1.6,1.6,1.6
					C642.7,393.1,643.2,392.5,643.2,392z"/>
			</g>
		</g>
	</g>
	<rect x="277" y="403" fill="#F5B951" width="212.9" height="77.2"/>
	<rect x="520.9" y="504.3" fill="#F5B951" width="212.9" height="25.2"/>
	<g>
		<path fill="#010101" d="M336.8,418v-5.8l-1.3,1.4l-1-1l2.5-2.5h1.5v8H336.8z"/>
		<path fill="#010101" d="M348.4,418l-2-2.9l-2,2.9h-2l2.9-4.1l-2.7-3.9h2l1.8,2.7l1.8-2.7h2.1l-2.7,3.9l2.9,4.1H348.4z"/>
		<path fill="#010101" d="M354.3,418v-8h3.2c2.5,0,4.2,1.6,4.2,4c0,2.4-1.7,4-4.2,4H354.3z M359.9,414c0-1.4-0.9-2.5-2.5-2.5H356v5
			h1.5C359,416.5,359.9,415.3,359.9,414z"/>
		<path fill="#010101" d="M362.5,414c0-2.4,1.8-4.1,4.2-4.1c2.4,0,4.2,1.7,4.2,4.1c0,2.4-1.8,4.1-4.2,4.1
			C364.3,418.1,362.5,416.4,362.5,414z M369.1,414c0-1.5-1-2.6-2.4-2.6c-1.5,0-2.4,1.1-2.4,2.6c0,1.5,0.9,2.6,2.4,2.6
			C368.1,416.6,369.1,415.5,369.1,414z"/>
		<path fill="#010101" d="M371.7,414c0-2.5,1.9-4.1,4.3-4.1c1.8,0,2.8,1,3.3,2l-1.5,0.7c-0.3-0.6-1.1-1.2-1.9-1.2
			c-1.5,0-2.5,1.1-2.5,2.6c0,1.5,1.1,2.6,2.5,2.6c0.8,0,1.5-0.5,1.9-1.2l1.5,0.7c-0.6,1-1.6,2-3.3,2
			C373.5,418.1,371.7,416.4,371.7,414z"/>
		<path fill="#010101" d="M380.3,414.8V410h1.7v4.8c0,1.1,0.6,1.9,1.9,1.9s1.9-0.8,1.9-1.9V410h1.7v4.8c0,2-1.2,3.3-3.6,3.3
			S380.3,416.7,380.3,414.8z"/>
		<path fill="#010101" d="M396.1,418v-5.6l-2.3,5.6h-0.7l-2.3-5.6v5.6h-1.7v-8h2.4l1.9,4.8l1.9-4.8h2.4v8H396.1z"/>
		<path fill="#010101" d="M399.4,418v-8h5.7v1.5h-4v1.7h3.9v1.5h-3.9v1.8h4v1.5H399.4z"/>
		<path fill="#010101" d="M411.9,418l-3.8-5.2v5.2h-1.7v-8h1.8l3.7,5v-5h1.7v8H411.9z"/>
		<path fill="#010101" d="M416.9,418v-6.5h-2.3V410h6.4v1.5h-2.3v6.5H416.9z"/>
		<path fill="#010101" d="M430.7,418l-0.5-1.4h-3.4l-0.5,1.4h-1.9l3.1-8h2.1l3.1,8H430.7z M428.5,411.7l-1.2,3.4h2.5L428.5,411.7z"
			/>
	</g>
	<g>
		<path fill="#010101" d="M336.9,443.1v-5.8l-1.3,1.4l-1-1l2.5-2.5h1.5v8H336.9z"/>
		<path fill="#010101" d="M348.5,443.1l-2-2.9l-2,2.9h-2l2.9-4.1l-2.7-3.9h2l1.8,2.7l1.8-2.7h2.1l-2.7,3.9l2.9,4.1H348.5z"/>
		<path fill="#010101" d="M354.4,443.1v-8h3.2c2.5,0,4.2,1.6,4.2,4s-1.7,4-4.2,4H354.4z M360,439.1c0-1.4-0.9-2.5-2.5-2.5h-1.5v5
			h1.5C359.1,441.6,360,440.4,360,439.1z"/>
		<path fill="#010101" d="M362.6,439.1c0-2.4,1.8-4.1,4.2-4.1c2.4,0,4.2,1.7,4.2,4.1s-1.8,4.1-4.2,4.1
			C364.4,443.2,362.6,441.5,362.6,439.1z M369.2,439.1c0-1.5-1-2.6-2.4-2.6c-1.5,0-2.4,1.1-2.4,2.6c0,1.5,0.9,2.6,2.4,2.6
			C368.3,441.7,369.2,440.6,369.2,439.1z"/>
		<path fill="#010101" d="M371.8,439.1c0-2.5,1.9-4.1,4.3-4.1c1.8,0,2.8,1,3.3,2l-1.5,0.7c-0.3-0.6-1.1-1.2-1.9-1.2
			c-1.5,0-2.5,1.1-2.5,2.6s1.1,2.6,2.5,2.6c0.8,0,1.5-0.5,1.9-1.2l1.5,0.7c-0.6,1-1.6,2-3.3,2C373.7,443.2,371.8,441.5,371.8,439.1z
			"/>
		<path fill="#010101" d="M380.4,439.9v-4.8h1.7v4.8c0,1.1,0.6,1.9,1.9,1.9s1.9-0.8,1.9-1.9v-4.8h1.7v4.8c0,2-1.2,3.3-3.6,3.3
			S380.4,441.9,380.4,439.9z"/>
		<path fill="#010101" d="M396.2,443.1v-5.6l-2.3,5.6h-0.7l-2.3-5.6v5.6h-1.7v-8h2.4l1.9,4.8l1.9-4.8h2.4v8H396.2z"/>
		<path fill="#010101" d="M399.5,443.1v-8h5.7v1.5h-4v1.7h3.9v1.5h-3.9v1.8h4v1.5H399.5z"/>
		<path fill="#010101" d="M412,443.1l-3.8-5.2v5.2h-1.7v-8h1.8l3.7,5v-5h1.7v8H412z"/>
		<path fill="#010101" d="M417.1,443.1v-6.5h-2.3v-1.5h6.4v1.5h-2.3v6.5H417.1z"/>
		<path fill="#010101" d="M425.3,443.1v-8h4.2c1.5,0,2.3,1,2.3,2c0,1-0.6,1.7-1.4,1.8c0.9,0.1,1.5,1,1.5,2c0,1.2-0.8,2.2-2.3,2.2
			H425.3z M430.1,437.4c0-0.5-0.4-0.9-0.9-0.9H427v1.7h2.1C429.7,438.3,430.1,437.9,430.1,437.4z M430.2,440.7c0-0.5-0.4-0.9-1-0.9
			H427v1.9h2.2C429.8,441.6,430.2,441.3,430.2,440.7z"/>
	</g>
	<g>
		<path fill="#010101" d="M294.7,468.9v-8h3.7c1.7,0,2.7,1.2,2.7,2.6c0,1.4-1,2.6-2.7,2.6h-2v2.8H294.7z M299.4,463.5
			c0-0.7-0.5-1.1-1.2-1.1h-1.8v2.2h1.8C298.9,464.6,299.4,464.2,299.4,463.5z"/>
		<path fill="#010101" d="M306.7,468.9l-1.6-2.8h-1.2v2.8h-1.7v-8h3.7c1.7,0,2.7,1.1,2.7,2.6c0,1.4-0.9,2.2-1.8,2.4l1.8,3H306.7z
			 M306.9,463.5c0-0.7-0.5-1.1-1.2-1.1h-1.8v2.2h1.8C306.4,464.6,306.9,464.2,306.9,463.5z"/>
		<path fill="#010101" d="M309.6,464.9c0-2.4,1.8-4.1,4.2-4.1c2.4,0,4.2,1.7,4.2,4.1c0,2.4-1.8,4.1-4.2,4.1
			C311.3,469.1,309.6,467.4,309.6,464.9z M316.2,464.9c0-1.5-1-2.6-2.4-2.6c-1.5,0-2.4,1.1-2.4,2.6c0,1.5,0.9,2.6,2.4,2.6
			C315.2,467.6,316.2,466.4,316.2,464.9z"/>
		<path fill="#010101" d="M318.7,464.9c0-2.4,1.8-4.1,4.2-4.1c2.4,0,4.2,1.7,4.2,4.1c0,2.4-1.8,4.1-4.2,4.1
			C320.5,469.1,318.7,467.4,318.7,464.9z M325.3,464.9c0-1.5-1-2.6-2.4-2.6c-1.5,0-2.4,1.1-2.4,2.6c0,1.5,0.9,2.6,2.4,2.6
			C324.4,467.6,325.3,466.4,325.3,464.9z"/>
		<path fill="#010101" d="M328.3,468.9v-8h5.7v1.5h-4v1.7h3.9v1.5H330v3.3H328.3z"/>
		<path fill="#010101" d="M343.7,468.9l-0.5-1.4h-3.4l-0.5,1.4h-1.9l3.1-8h2.1l3.1,8H343.7z M341.5,462.6l-1.2,3.4h2.5L341.5,462.6z
			"/>
		<path fill="#010101" d="M345.8,467.8l0.9-1.3c0.6,0.6,1.4,1.1,2.5,1.1c0.9,0,1.4-0.4,1.4-0.9c0-1.4-4.6-0.4-4.6-3.5
			c0-1.3,1.2-2.4,3-2.4c1.3,0,2.3,0.4,3.1,1.1l-0.9,1.2c-0.6-0.6-1.5-0.9-2.3-0.9c-0.7,0-1.1,0.3-1.1,0.8c0,1.3,4.6,0.4,4.6,3.4
			c0,1.5-1,2.6-3.2,2.6C347.7,469.1,346.6,468.6,345.8,467.8z"/>
		<path fill="#010101" d="M356.6,468.9v-8h3.7c1.7,0,2.7,1.2,2.7,2.6c0,1.4-1,2.6-2.7,2.6h-2v2.8H356.6z M361.3,463.5
			c0-0.7-0.5-1.1-1.2-1.1h-1.8v2.2h1.8C360.8,464.6,361.3,464.2,361.3,463.5z"/>
		<path fill="#010101" d="M368.7,468.9l-0.5-1.4h-3.4l-0.5,1.4h-1.9l3.1-8h2.1l3.1,8H368.7z M366.5,462.6l-1.2,3.4h2.5L366.5,462.6z
			"/>
		<path fill="#010101" d="M376,468.9l-1.6-2.8h-1.2v2.8h-1.7v-8h3.7c1.7,0,2.7,1.1,2.7,2.6c0,1.4-0.9,2.2-1.8,2.4l1.8,3H376z
			 M376.1,463.5c0-0.7-0.5-1.1-1.2-1.1h-1.8v2.2h1.8C375.6,464.6,376.1,464.2,376.1,463.5z"/>
		<path fill="#010101" d="M379.1,468.9v-8h5.7v1.5h-4v1.7h3.9v1.5h-3.9v1.8h4v1.5H379.1z"/>
		<path fill="#010101" d="M391.7,468.9l-3.8-5.2v5.2h-1.7v-8h1.8l3.7,5v-5h1.7v8H391.7z"/>
		<path fill="#010101" d="M396.7,468.9v-6.5h-2.3v-1.5h6.4v1.5h-2.3v6.5H396.7z"/>
		<path fill="#010101" d="M404.2,469.2l2.8-8.5h1.1l-2.8,8.5H404.2z"/>
		<path fill="#010101" d="M411.6,464.9c0-2.5,1.9-4.1,4.3-4.1c1.7,0,2.7,0.8,3.3,1.8l-1.4,0.8c-0.4-0.6-1-1-1.9-1
			c-1.5,0-2.5,1.1-2.5,2.6c0,1.5,1.1,2.6,2.5,2.6c0.7,0,1.4-0.3,1.7-0.6v-1h-2.1v-1.5h3.8v3.1c-0.8,0.9-2,1.5-3.4,1.5
			C413.5,469.1,411.6,467.5,411.6,464.9z"/>
		<path fill="#010101" d="M420.6,465.7v-4.8h1.7v4.7c0,1.1,0.6,1.9,1.9,1.9s1.9-0.8,1.9-1.9v-4.7h1.7v4.8c0,2-1.2,3.3-3.6,3.3
			S420.6,467.7,420.6,465.7z"/>
		<path fill="#010101" d="M434.5,468.9l-0.5-1.4h-3.4l-0.5,1.4h-1.9l3.1-8h2.1l3.1,8H434.5z M432.3,462.6l-1.2,3.4h2.5L432.3,462.6z
			"/>
		<path fill="#010101" d="M441.7,468.9l-1.6-2.8h-1.2v2.8h-1.7v-8h3.7c1.7,0,2.7,1.1,2.7,2.6c0,1.4-0.9,2.2-1.8,2.4l1.8,3H441.7z
			 M441.9,463.5c0-0.7-0.5-1.1-1.2-1.1h-1.8v2.2h1.8C441.4,464.6,441.9,464.2,441.9,463.5z"/>
		<path fill="#010101" d="M444.9,468.9v-8h3.2c2.5,0,4.2,1.6,4.2,4c0,2.4-1.7,4-4.2,4H444.9z M450.6,464.9c0-1.4-0.9-2.5-2.5-2.5
			h-1.5v5h1.5C449.7,467.4,450.6,466.3,450.6,464.9z"/>
		<path fill="#010101" d="M453.5,468.9v-8h1.7v8H453.5z"/>
		<path fill="#010101" d="M462.3,468.9l-0.5-1.4h-3.4l-0.5,1.4H456l3.1-8h2.1l3.1,8H462.3z M460.1,462.6l-1.2,3.4h2.5L460.1,462.6z"
			/>
		<path fill="#010101" d="M470.6,468.9l-3.8-5.2v5.2H465v-8h1.8l3.7,5v-5h1.7v8H470.6z"/>
	</g>
	<line fill="none" stroke="#FFFFFF" stroke-miterlimit="10" x1="303.1" y1="425.6" x2="463.9" y2="425.6"/>
	<line fill="none" stroke="#FFFFFF" stroke-miterlimit="10" x1="546.9" y1="425.6" x2="707.8" y2="425.6"/>
	<line fill="none" stroke="#FFFFFF" stroke-miterlimit="10" x1="546.9" y1="452.7" x2="707.8" y2="452.7"/>
	<g>
		<path fill="#010101" d="M578.7,490.7c0-2.5,1.9-4.1,4.3-4.1c1.8,0,2.8,1,3.3,2l-1.5,0.7c-0.3-0.6-1.1-1.2-1.9-1.2
			c-1.5,0-2.5,1.1-2.5,2.6s1.1,2.6,2.5,2.6c0.8,0,1.5-0.5,1.9-1.2l1.5,0.7c-0.6,1-1.6,2-3.3,2C580.6,494.8,578.7,493.2,578.7,490.7z
			"/>
		<path fill="#010101" d="M587,490.7c0-2.4,1.8-4.1,4.2-4.1c2.4,0,4.2,1.7,4.2,4.1s-1.8,4.1-4.2,4.1
			C588.7,494.8,587,493.1,587,490.7z M593.6,490.7c0-1.5-1-2.6-2.4-2.6c-1.5,0-2.4,1.1-2.4,2.6c0,1.5,0.9,2.6,2.4,2.6
			C592.6,493.3,593.6,492.2,593.6,490.7z"/>
		<path fill="#010101" d="M602.1,494.7l-3.8-5.2v5.2h-1.7v-8h1.8l3.7,5v-5h1.7v8H602.1z"/>
		<path fill="#010101" d="M607.1,494.7v-6.5h-2.3v-1.5h6.4v1.5h-2.3v6.5H607.1z"/>
		<path fill="#010101" d="M617,494.7l-0.5-1.4h-3.4l-0.5,1.4h-1.9l3.1-8h2.1l3.1,8H617z M614.8,488.4l-1.2,3.4h2.5L614.8,488.4z"/>
		<path fill="#010101" d="M618.9,490.7c0-2.5,1.9-4.1,4.3-4.1c1.8,0,2.8,1,3.3,2l-1.5,0.7c-0.3-0.6-1.1-1.2-1.9-1.2
			c-1.5,0-2.5,1.1-2.5,2.6s1.1,2.6,2.5,2.6c0.8,0,1.5-0.5,1.9-1.2l1.5,0.7c-0.6,1-1.6,2-3.3,2C620.8,494.8,618.9,493.2,618.9,490.7z
			"/>
		<path fill="#010101" d="M629.4,494.7v-6.5H627v-1.5h6.4v1.5h-2.3v6.5H629.4z"/>
		<path fill="#010101" d="M637.6,494.7v-8h3.2c2.5,0,4.2,1.6,4.2,4s-1.7,4-4.2,4H637.6z M643.3,490.7c0-1.4-0.9-2.5-2.5-2.5h-1.5v5
			h1.5C642.3,493.2,643.3,492.1,643.3,490.7z"/>
		<path fill="#010101" d="M646.2,494.7v-8h5.7v1.5h-4v1.7h3.9v1.5h-3.9v1.8h4v1.5H646.2z"/>
		<path fill="#010101" d="M655.1,494.7v-6.5h-2.3v-1.5h6.4v1.5h-2.3v6.5H655.1z"/>
		<path fill="#010101" d="M664.9,494.7l-0.5-1.4H661l-0.5,1.4h-1.9l3.1-8h2.1l3.1,8H664.9z M662.7,488.4l-1.2,3.4h2.5L662.7,488.4z"
			/>
		<path fill="#010101" d="M667.6,494.7v-8h1.7v8H667.6z"/>
		<path fill="#010101" d="M670.9,494.7v-8h1.7v6.5h3.4v1.5H670.9z"/>
	</g>
	<g>
		<path fill="#010101" d="M561,520.8v-8h3.2c2.5,0,4.2,1.6,4.2,4c0,2.4-1.7,4-4.2,4H561z M566.6,516.8c0-1.4-0.9-2.5-2.5-2.5h-1.5v5
			h1.5C565.7,519.3,566.6,518.2,566.6,516.8z"/>
		<path fill="#010101" d="M569.2,516.8c0-2.4,1.8-4.1,4.2-4.1c2.4,0,4.2,1.7,4.2,4.1c0,2.4-1.8,4.1-4.2,4.1
			C571,521,569.2,519.2,569.2,516.8z M575.8,516.8c0-1.5-1-2.6-2.4-2.6c-1.5,0-2.4,1.1-2.4,2.6c0,1.5,0.9,2.6,2.4,2.6
			C574.8,519.5,575.8,518.3,575.8,516.8z"/>
		<path fill="#010101" d="M578.4,516.8c0-2.5,1.9-4.1,4.3-4.1c1.8,0,2.8,1,3.3,2l-1.5,0.7c-0.3-0.6-1.1-1.2-1.9-1.2
			c-1.5,0-2.5,1.1-2.5,2.6c0,1.5,1.1,2.6,2.5,2.6c0.8,0,1.5-0.5,1.9-1.2l1.5,0.7c-0.6,1-1.6,2-3.3,2
			C580.2,521,578.4,519.3,578.4,516.8z"/>
		<path fill="#010101" d="M587,517.6v-4.8h1.7v4.7c0,1.1,0.6,1.9,1.9,1.9s1.9-0.8,1.9-1.9v-4.7h1.7v4.8c0,2-1.2,3.3-3.6,3.3
			S587,519.6,587,517.6z"/>
		<path fill="#010101" d="M602.8,520.8v-5.6l-2.3,5.6h-0.7l-2.3-5.6v5.6h-1.7v-8h2.4l1.9,4.8l1.9-4.8h2.4v8H602.8z"/>
		<path fill="#010101" d="M606.1,520.8v-8h5.7v1.5h-4v1.7h3.9v1.5h-3.9v1.8h4v1.5H606.1z"/>
		<path fill="#010101" d="M618.6,520.8l-3.8-5.2v5.2h-1.7v-8h1.8l3.7,5v-5h1.7v8H618.6z"/>
		<path fill="#010101" d="M623.7,520.8v-6.5h-2.3v-1.5h6.4v1.5h-2.3v6.5H623.7z"/>
		<path fill="#010101" d="M631.5,516.8c0-2.5,1.9-4.1,4.3-4.1c1.8,0,2.8,1,3.3,2l-1.5,0.7c-0.3-0.6-1.1-1.2-1.9-1.2
			c-1.5,0-2.5,1.1-2.5,2.6c0,1.5,1.1,2.6,2.5,2.6c0.8,0,1.5-0.5,1.9-1.2l1.5,0.7c-0.6,1-1.6,2-3.3,2
			C633.3,521,631.5,519.3,631.5,516.8z"/>
		<path fill="#010101" d="M645.6,520.8v-3.4h-3.8v3.4h-1.7v-8h1.7v3.1h3.8v-3.1h1.7v8H645.6z"/>
		<path fill="#010101" d="M648.9,520.8v-8h5.7v1.5h-4v1.7h3.9v1.5h-3.9v1.8h4v1.5H648.9z"/>
		<path fill="#010101" d="M655.5,516.8c0-2.5,1.9-4.1,4.3-4.1c1.8,0,2.8,1,3.3,2l-1.5,0.7c-0.3-0.6-1.1-1.2-1.9-1.2
			c-1.5,0-2.5,1.1-2.5,2.6c0,1.5,1.1,2.6,2.5,2.6c0.8,0,1.5-0.5,1.9-1.2l1.5,0.7c-0.6,1-1.6,2-3.3,2
			C657.3,521,655.5,519.3,655.5,516.8z"/>
		<path fill="#010101" d="M668.9,520.8l-2.4-3.2l-0.6,0.7v2.5h-1.7v-8h1.7v3.6l2.8-3.6h2.1l-3.2,3.8l3.4,4.2H668.9z"/>
		<path fill="#010101" d="M671.7,520.8v-8h1.7v6.5h3.4v1.5H671.7z"/>
		<path fill="#010101" d="M678,520.8v-8h1.7v8H678z"/>
		<path fill="#010101" d="M680.8,519.7l0.9-1.3c0.6,0.6,1.4,1.1,2.5,1.1c0.9,0,1.4-0.4,1.4-0.9c0-1.4-4.6-0.4-4.6-3.5
			c0-1.3,1.2-2.4,3-2.4c1.3,0,2.3,0.4,3.1,1.1l-0.9,1.2c-0.6-0.6-1.5-0.9-2.3-0.9c-0.7,0-1.1,0.3-1.1,0.8c0,1.3,4.6,0.4,4.6,3.4
			c0,1.5-1,2.6-3.2,2.6C682.6,521,681.5,520.5,680.8,519.7z"/>
		<path fill="#010101" d="M690.2,520.8v-6.5h-2.3v-1.5h6.4v1.5h-2.3v6.5H690.2z"/>
	</g>
	<line fill="none" stroke="#FFFFFF" stroke-miterlimit="10" x1="546.9" y1="478.4" x2="707.8" y2="478.4"/>
	<line fill="none" stroke="#FFFFFF" stroke-miterlimit="10" x1="303.1" y1="452.7" x2="463.9" y2="452.7"/>
	<g>
		<circle fill="#010101" cx="627.4" cy="541.1" r="1.8"/>
		<circle fill="#010101" cx="627.4" cy="546.5" r="1.8"/>
		<circle fill="#010101" cx="627.4" cy="552" r="1.8"/>
	</g>
</g>
</svg>
