<?xml version="1.0" encoding="utf-8"?>
<!-- Generator: Adobe Illustrator 17.1.0, SVG Export Plug-In . SVG Version: 6.00 Build 0)  -->
<!DOCTYPE svg PUBLIC "-//W3C//DTD SVG 1.1//EN" "http://www.w3.org/Graphics/SVG/1.1/DTD/svg11.dtd">
<svg version="1.1" id="Layer_1" xmlns="http://www.w3.org/2000/svg" xmlns:xlink="http://www.w3.org/1999/xlink" x="0px" y="0px"
	 viewBox="0 0 745.4 566.3" enable-background="new 0 0 745.4 566.3" xml:space="preserve">
<polygon points="733.3,379.7 511.7,379.7 510.7,379.7 510.7,380.7 520.7,404.2 520.7,405.2 521.7,405.2 723.3,405.2 724.3,405.2 
	724.3,404.2 734.3,380.7 734.3,379.7 "/>
<polygon points="489.4,380.7 267.8,380.7 266.8,380.7 266.8,381.7 276.8,405.2 276.8,406.2 277.8,406.2 479.4,406.2 480.4,406.2 
	480.4,405.2 490.4,381.7 490.4,380.7 "/>
<polyline fill="none" stroke="#010101" stroke-miterlimit="10" points="398,27.9 398,62.1 365.6,62.1 365.6,179.6 311.1,179.6 
	311.1,299.9 222.7,299.9 222.7,355.2 "/>
<polyline fill="none" stroke="#010101" stroke-miterlimit="10" points="398,62.1 434.2,62.1 434.2,82 "/>
<polyline fill="none" stroke="#010101" stroke-miterlimit="10" points="365.6,179.6 563.9,179.6 563.9,368.6 "/>
<polyline fill="none" stroke="#010101" stroke-miterlimit="10" points="311.1,299.9 379.7,299.9 379.7,362.4 "/>
<path fill="none" stroke="#010101" stroke-miterlimit="10" d="M401.8,27.9"/>
<g>
	<g>
		<g>
			<path fill="#010101" d="M348.5,23.8v-8h3.2c2.5,0,4.2,1.6,4.2,4c0,2.4-1.7,4-4.2,4H348.5z M354.2,19.8c0-1.4-0.9-2.5-2.5-2.5
				h-1.5v5h1.5C353.3,22.3,354.2,21.2,354.2,19.8z"/>
			<path fill="#010101" d="M356.7,19.8c0-2.4,1.8-4.1,4.2-4.1c2.4,0,4.2,1.7,4.2,4.1c0,2.4-1.8,4.1-4.2,4.1
				C358.5,24,356.7,22.3,356.7,19.8z M363.4,19.8c0-1.5-1-2.6-2.4-2.6c-1.5,0-2.4,1.1-2.4,2.6c0,1.5,0.9,2.6,2.4,2.6
				C362.4,22.5,363.4,21.3,363.4,19.8z"/>
			<path fill="#010101" d="M371.6,23.8v-3.3l-3.1-4.7h1.9l2,3.2l2-3.2h1.9l-3.1,4.7v3.3H371.6z"/>
			<path fill="#010101" d="M376.3,19.8c0-2.4,1.8-4.1,4.2-4.1c2.4,0,4.2,1.7,4.2,4.1c0,2.4-1.8,4.1-4.2,4.1
				C378,24,376.3,22.3,376.3,19.8z M382.9,19.8c0-1.5-1-2.6-2.4-2.6c-1.5,0-2.4,1.1-2.4,2.6c0,1.5,0.9,2.6,2.4,2.6
				C381.9,22.5,382.9,21.3,382.9,19.8z"/>
			<path fill="#010101" d="M385.8,20.7v-4.8h1.7v4.7c0,1.1,0.6,1.9,1.9,1.9s1.9-0.8,1.9-1.9v-4.7h1.7v4.8c0,2-1.2,3.3-3.6,3.3
				S385.8,22.6,385.8,20.7z"/>
			<path fill="#010101" d="M403.2,23.8l-3.8-5.2v5.2h-1.7v-8h1.8l3.7,5v-5h1.7v8H403.2z"/>
			<path fill="#010101" d="M406.4,23.8v-8h5.7v1.5h-4V19h3.9v1.5h-3.9v1.8h4v1.5H406.4z"/>
			<path fill="#010101" d="M413.4,23.8v-8h5.7v1.5h-4V19h3.9v1.5h-3.9v1.8h4v1.5H413.4z"/>
			<path fill="#010101" d="M420.4,23.8v-8h3.2c2.5,0,4.2,1.6,4.2,4c0,2.4-1.7,4-4.2,4H420.4z M426.1,19.8c0-1.4-0.9-2.5-2.5-2.5
				h-1.5v5h1.5C425.2,22.3,426.1,21.2,426.1,19.8z"/>
			<path fill="#010101" d="M437.6,23.8l-0.5-1.4h-3.4l-0.5,1.4h-1.9l3.1-8h2.1l3.1,8H437.6z M435.4,17.5l-1.2,3.4h2.5L435.4,17.5z"
				/>
			<path fill="#010101" d="M445.8,23.8l-3.8-5.2v5.2h-1.7v-8h1.8l3.7,5v-5h1.7v8H445.8z"/>
			<path fill="#010101" d="M359.5,38.2v-8h1.7v8H359.5z"/>
			<path fill="#010101" d="M367.3,38.2l-1.6-2.8h-1.2v2.8h-1.7v-8h3.7c1.7,0,2.7,1.1,2.7,2.6c0,1.4-0.9,2.2-1.8,2.4l1.8,3H367.3z
				 M367.5,32.8c0-0.7-0.5-1.1-1.2-1.1h-1.8v2.2h1.8C366.9,33.9,367.5,33.5,367.5,32.8z"/>
			<path fill="#010101" d="M370.5,38.2v-8h3.2c2.5,0,4.2,1.6,4.2,4c0,2.4-1.7,4-4.2,4H370.5z M376.1,34.2c0-1.4-0.9-2.5-2.5-2.5
				h-1.5v5h1.5C375.2,36.7,376.1,35.6,376.1,34.2z"/>
			<path fill="#010101" d="M387.7,38.2l-3.8-5.2v5.2h-1.7v-8h1.8l3.7,5v-5h1.7v8H387.7z"/>
			<path fill="#010101" d="M390.9,35.1v-4.8h1.7V35c0,1.1,0.6,1.9,1.9,1.9s1.9-0.8,1.9-1.9v-4.8h1.7V35c0,2-1.2,3.3-3.6,3.3
				S390.9,37,390.9,35.1z"/>
			<path fill="#010101" d="M406.7,38.2v-5.6l-2.3,5.6h-0.7l-2.3-5.6v5.6h-1.7v-8h2.4l1.9,4.8l1.9-4.8h2.4v8H406.7z"/>
			<path fill="#010101" d="M410,38.2v-8h4.2c1.5,0,2.3,1,2.3,2c0,1-0.6,1.7-1.4,1.8c0.9,0.1,1.5,1,1.5,2c0,1.2-0.8,2.2-2.3,2.2H410z
				 M414.7,32.6c0-0.5-0.4-0.9-0.9-0.9h-2.1v1.7h2.1C414.4,33.4,414.7,33.1,414.7,32.6z M414.9,35.8c0-0.5-0.4-0.9-1-0.9h-2.2v1.9
				h2.2C414.5,36.8,414.9,36.4,414.9,35.8z"/>
			<path fill="#010101" d="M417.9,38.2v-8h5.7v1.5h-4v1.7h3.9v1.5h-3.9v1.8h4v1.5H417.9z"/>
			<path fill="#010101" d="M429.4,38.2l-1.6-2.8h-1.2v2.8h-1.7v-8h3.7c1.7,0,2.7,1.1,2.7,2.6c0,1.4-0.9,2.2-1.8,2.4l1.8,3H429.4z
				 M429.6,32.8c0-0.7-0.5-1.1-1.2-1.1h-1.8v2.2h1.8C429.1,33.9,429.6,33.5,429.6,32.8z"/>
			<path fill="#010101" d="M433.6,34.7c0-1.4,1.8-1.6,1.8-2.4c0-0.4-0.3-0.7-0.9-0.7c-0.6,0-1.1,0.3-1.5,0.7l-1-1.1
				c0.6-0.7,1.6-1.2,2.6-1.2c1.5,0,2.5,0.8,2.5,1.9c0,1.8-2,1.9-2,2.9c0,0.2,0.1,0.4,0.2,0.5l-1.3,0.4
				C433.7,35.5,433.6,35.2,433.6,34.7z M433.6,37.4c0-0.5,0.4-1,1-1c0.5,0,1,0.4,1,1s-0.4,1-1,1C434,38.4,433.6,37.9,433.6,37.4z"/>
		</g>
		<g>
			<rect x="325.8" y="4.4" fill="#E6E6E6" width="144.3" height="45.4"/>
		</g>
		<g>
			<path fill="#231F20" d="M348.5,23.8v-8h3.2c2.5,0,4.2,1.6,4.2,4c0,2.4-1.7,4-4.2,4H348.5z M354.2,19.8c0-1.4-0.9-2.5-2.5-2.5
				h-1.5v5h1.5C353.3,22.3,354.2,21.2,354.2,19.8z"/>
			<path fill="#231F20" d="M356.7,19.8c0-2.4,1.8-4.1,4.2-4.1c2.4,0,4.2,1.7,4.2,4.1c0,2.4-1.8,4.1-4.2,4.1
				C358.5,24,356.7,22.3,356.7,19.8z M363.4,19.8c0-1.5-1-2.6-2.4-2.6c-1.5,0-2.4,1.1-2.4,2.6c0,1.5,0.9,2.6,2.4,2.6
				C362.4,22.5,363.4,21.3,363.4,19.8z"/>
			<path fill="#231F20" d="M371.6,23.8v-3.3l-3.1-4.7h1.9l2,3.2l2-3.2h1.9l-3.1,4.7v3.3H371.6z"/>
			<path fill="#231F20" d="M376.3,19.8c0-2.4,1.8-4.1,4.2-4.1c2.4,0,4.2,1.7,4.2,4.1c0,2.4-1.8,4.1-4.2,4.1
				C378,24,376.3,22.3,376.3,19.8z M382.9,19.8c0-1.5-1-2.6-2.4-2.6c-1.5,0-2.4,1.1-2.4,2.6c0,1.5,0.9,2.6,2.4,2.6
				C381.9,22.5,382.9,21.3,382.9,19.8z"/>
			<path fill="#231F20" d="M385.8,20.7v-4.8h1.7v4.7c0,1.1,0.6,1.9,1.9,1.9s1.9-0.8,1.9-1.9v-4.7h1.7v4.8c0,2-1.2,3.3-3.6,3.3
				S385.8,22.6,385.8,20.7z"/>
			<path fill="#231F20" d="M403.2,23.8l-3.8-5.2v5.2h-1.7v-8h1.8l3.7,5v-5h1.7v8H403.2z"/>
			<path fill="#231F20" d="M406.4,23.8v-8h5.7v1.5h-4V19h3.9v1.5h-3.9v1.8h4v1.5H406.4z"/>
			<path fill="#231F20" d="M413.4,23.8v-8h5.7v1.5h-4V19h3.9v1.5h-3.9v1.8h4v1.5H413.4z"/>
			<path fill="#231F20" d="M420.4,23.8v-8h3.2c2.5,0,4.2,1.6,4.2,4c0,2.4-1.7,4-4.2,4H420.4z M426.1,19.8c0-1.4-0.9-2.5-2.5-2.5
				h-1.5v5h1.5C425.2,22.3,426.1,21.2,426.1,19.8z"/>
			<path fill="#231F20" d="M437.6,23.8l-0.5-1.4h-3.4l-0.5,1.4h-1.9l3.1-8h2.1l3.1,8H437.6z M435.4,17.5l-1.2,3.4h2.5L435.4,17.5z"
				/>
			<path fill="#231F20" d="M445.8,23.8l-3.8-5.2v5.2h-1.7v-8h1.8l3.7,5v-5h1.7v8H445.8z"/>
			<path fill="#231F20" d="M359.5,38.2v-8h1.7v8H359.5z"/>
			<path fill="#231F20" d="M367.3,38.2l-1.6-2.8h-1.2v2.8h-1.7v-8h3.7c1.7,0,2.7,1.1,2.7,2.6c0,1.4-0.9,2.2-1.8,2.4l1.8,3H367.3z
				 M367.5,32.8c0-0.7-0.5-1.1-1.2-1.1h-1.8v2.2h1.8C366.9,33.9,367.5,33.5,367.5,32.8z"/>
			<path fill="#231F20" d="M370.5,38.2v-8h3.2c2.5,0,4.2,1.6,4.2,4c0,2.4-1.7,4-4.2,4H370.5z M376.1,34.2c0-1.4-0.9-2.5-2.5-2.5
				h-1.5v5h1.5C375.2,36.7,376.1,35.6,376.1,34.2z"/>
			<path fill="#231F20" d="M387.7,38.2l-3.8-5.2v5.2h-1.7v-8h1.8l3.7,5v-5h1.7v8H387.7z"/>
			<path fill="#231F20" d="M390.9,35.1v-4.8h1.7V35c0,1.1,0.6,1.9,1.9,1.9s1.9-0.8,1.9-1.9v-4.8h1.7V35c0,2-1.2,3.3-3.6,3.3
				S390.9,37,390.9,35.1z"/>
			<path fill="#231F20" d="M406.7,38.2v-5.6l-2.3,5.6h-0.7l-2.3-5.6v5.6h-1.7v-8h2.4l1.9,4.8l1.9-4.8h2.4v8H406.7z"/>
			<path fill="#231F20" d="M410,38.2v-8h4.2c1.5,0,2.3,1,2.3,2c0,1-0.6,1.7-1.4,1.8c0.9,0.1,1.5,1,1.5,2c0,1.2-0.8,2.2-2.3,2.2H410z
				 M414.7,32.6c0-0.5-0.4-0.9-0.9-0.9h-2.1v1.7h2.1C414.4,33.4,414.7,33.1,414.7,32.6z M414.9,35.8c0-0.5-0.4-0.9-1-0.9h-2.2v1.9
				h2.2C414.5,36.8,414.9,36.4,414.9,35.8z"/>
			<path fill="#231F20" d="M417.9,38.2v-8h5.7v1.5h-4v1.7h3.9v1.5h-3.9v1.8h4v1.5H417.9z"/>
			<path fill="#231F20" d="M429.4,38.2l-1.6-2.8h-1.2v2.8h-1.7v-8h3.7c1.7,0,2.7,1.1,2.7,2.6c0,1.4-0.9,2.2-1.8,2.4l1.8,3H429.4z
				 M429.6,32.8c0-0.7-0.5-1.1-1.2-1.1h-1.8v2.2h1.8C429.1,33.9,429.6,33.5,429.6,32.8z"/>
			<path fill="#231F20" d="M433.6,34.7c0-1.4,1.8-1.6,1.8-2.4c0-0.4-0.3-0.7-0.9-0.7c-0.6,0-1.1,0.3-1.5,0.7l-1-1.1
				c0.6-0.7,1.6-1.2,2.6-1.2c1.5,0,2.5,0.8,2.5,1.9c0,1.8-2,1.9-2,2.9c0,0.2,0.1,0.4,0.2,0.5l-1.3,0.4
				C433.7,35.5,433.6,35.2,433.6,34.7z M433.6,37.4c0-0.5,0.4-1,1-1c0.5,0,1,0.4,1,1s-0.4,1-1,1C434,38.4,433.6,37.9,433.6,37.4z"/>
		</g>
	</g>
	<g>
		<g>
			<path fill="#010101" d="M356.7,92.7v-3.3l-3.1-4.7h1.9l2,3.2l2-3.2h1.9l-3.1,4.7v3.3H356.7z"/>
			<path fill="#010101" d="M362.2,92.7v-8h5.7v1.5h-4v1.7h3.9v1.5h-3.9v1.8h4v1.5H362.2z"/>
			<path fill="#010101" d="M368.7,91.6l0.9-1.3c0.6,0.6,1.4,1.1,2.5,1.1c0.9,0,1.4-0.4,1.4-0.9c0-1.4-4.6-0.4-4.6-3.5
				c0-1.3,1.2-2.4,3-2.4c1.3,0,2.3,0.4,3.1,1.1l-0.9,1.2c-0.6-0.6-1.5-0.9-2.3-0.9c-0.7,0-1.1,0.3-1.1,0.8c0,1.3,4.6,0.4,4.6,3.4
				c0,1.5-1,2.6-3.2,2.6C370.5,92.9,369.4,92.3,368.7,91.6z"/>
		</g>
		<g>
			<rect x="331" y="73.3" fill="#FFFFFF" width="67" height="30.9"/>
		</g>
		<g>
			<path fill="#231F20" d="M356.7,92.7v-3.3l-3.1-4.7h1.9l2,3.2l2-3.2h1.9l-3.1,4.7v3.3H356.7z"/>
			<path fill="#231F20" d="M362.2,92.7v-8h5.7v1.5h-4v1.7h3.9v1.5h-3.9v1.8h4v1.5H362.2z"/>
			<path fill="#231F20" d="M368.7,91.6l0.9-1.3c0.6,0.6,1.4,1.1,2.5,1.1c0.9,0,1.4-0.4,1.4-0.9c0-1.4-4.6-0.4-4.6-3.5
				c0-1.3,1.2-2.4,3-2.4c1.3,0,2.3,0.4,3.1,1.1l-0.9,1.2c-0.6-0.6-1.5-0.9-2.3-0.9c-0.7,0-1.1,0.3-1.1,0.8c0,1.3,4.6,0.4,4.6,3.4
				c0,1.5-1,2.6-3.2,2.6C370.5,92.9,369.4,92.3,368.7,91.6z"/>
		</g>
	</g>
	<g>
		<g>
			<path fill="#010101" d="M431.1,92.7l-3.8-5.2v5.2h-1.7v-8h1.8l3.7,5v-5h1.7v8H431.1z"/>
			<path fill="#010101" d="M433.9,88.7c0-2.4,1.8-4.1,4.2-4.1c2.4,0,4.2,1.7,4.2,4.1c0,2.4-1.8,4.1-4.2,4.1
				C435.7,92.9,433.9,91.1,433.9,88.7z M440.5,88.7c0-1.5-1-2.6-2.4-2.6c-1.5,0-2.4,1.1-2.4,2.6c0,1.5,0.9,2.6,2.4,2.6
				C439.6,91.3,440.5,90.2,440.5,88.7z"/>
		</g>
		<g>
			<rect x="402.9" y="73.2" fill="#FFFFFF" width="62.1" height="31"/>
		</g>
		<g>
			<path fill="#231F20" d="M431.1,92.7l-3.8-5.2v5.2h-1.7v-8h1.8l3.7,5v-5h1.7v8H431.1z"/>
			<path fill="#231F20" d="M433.9,88.7c0-2.4,1.8-4.1,4.2-4.1c2.4,0,4.2,1.7,4.2,4.1c0,2.4-1.8,4.1-4.2,4.1
				C435.7,92.9,433.9,91.1,433.9,88.7z M440.5,88.7c0-1.5-1-2.6-2.4-2.6c-1.5,0-2.4,1.1-2.4,2.6c0,1.5,0.9,2.6,2.4,2.6
				C439.6,91.3,440.5,90.2,440.5,88.7z"/>
		</g>
	</g>
</g>
<g>
	<g>
		<path fill="#010101" d="M344.8,139.4l-0.5-1.4h-3.4l-0.5,1.4h-1.9l3.1-8h2.1l3.1,8H344.8z M342.6,133.1l-1.2,3.4h2.5L342.6,133.1z
			"/>
		<path fill="#010101" d="M352,139.4l-1.6-2.8h-1.2v2.8h-1.7v-8h3.7c1.7,0,2.7,1.1,2.7,2.6c0,1.4-0.9,2.2-1.8,2.4l1.8,3H352z
			 M352.2,133.9c0-0.7-0.5-1.1-1.2-1.1h-1.8v2.2h1.8C351.7,135,352.2,134.6,352.2,133.9z"/>
		<path fill="#010101" d="M355.2,139.4v-8h5.7v1.5h-4v1.7h3.9v1.5h-3.9v1.8h4v1.5H355.2z"/>
		<path fill="#010101" d="M367.5,139.4v-3.3l-3.1-4.7h1.9l2,3.2l2-3.2h1.9l-3.1,4.7v3.3H367.5z"/>
		<path fill="#010101" d="M372.2,135.4c0-2.4,1.8-4.1,4.2-4.1c2.4,0,4.2,1.7,4.2,4.1c0,2.4-1.8,4.1-4.2,4.1
			C373.9,139.5,372.2,137.8,372.2,135.4z M378.8,135.4c0-1.5-1-2.6-2.4-2.6c-1.5,0-2.4,1.1-2.4,2.6c0,1.5,0.9,2.6,2.4,2.6
			C377.8,138,378.8,136.8,378.8,135.4z"/>
		<path fill="#010101" d="M381.7,136.2v-4.8h1.7v4.8c0,1.1,0.6,1.9,1.9,1.9s1.9-0.8,1.9-1.9v-4.8h1.7v4.8c0,2-1.2,3.3-3.6,3.3
			S381.7,138.1,381.7,136.2z"/>
		<path fill="#010101" d="M390.3,134.4c0-0.5,0.4-1,1-1s1,0.4,1,1c0,0.5-0.4,1-1,1S390.3,135,390.3,134.4z M390.3,138.5
			c0-0.5,0.4-1,1-1s1,0.4,1,1s-0.4,1-1,1S390.3,139,390.3,138.5z"/>
		<path fill="#010101" d="M280.3,153.8v-8h1.7v8H280.3z"/>
		<path fill="#010101" d="M289.1,153.8l-3.8-5.2v5.2h-1.7v-8h1.8l3.7,5v-5h1.7v8H289.1z"/>
		<path fill="#010101" d="M292.3,153.8v-8h3.2c2.5,0,4.2,1.6,4.2,4c0,2.4-1.7,4-4.2,4H292.3z M298,149.8c0-1.4-0.9-2.5-2.5-2.5H294
			v5h1.5C297,152.3,298,151.1,298,149.8z"/>
		<path fill="#010101" d="M300.9,153.8v-8h1.7v8H300.9z"/>
		<path fill="#010101" d="M306.5,153.8l-3.1-8h1.9l2.2,6.2l2.2-6.2h1.9l-3.1,8H306.5z"/>
		<path fill="#010101" d="M312.4,153.8v-8h1.7v8H312.4z"/>
		<path fill="#010101" d="M315.7,153.8v-8h3.2c2.5,0,4.2,1.6,4.2,4c0,2.4-1.7,4-4.2,4H315.7z M321.4,149.8c0-1.4-0.9-2.5-2.5-2.5
			h-1.5v5h1.5C320.4,152.3,321.4,151.1,321.4,149.8z"/>
		<path fill="#010101" d="M324.3,150.6v-4.8h1.7v4.7c0,1.1,0.6,1.9,1.9,1.9s1.9-0.8,1.9-1.9v-4.7h1.7v4.8c0,2-1.2,3.3-3.6,3.3
			S324.3,152.5,324.3,150.6z"/>
		<path fill="#010101" d="M338.2,153.8l-0.5-1.4h-3.4l-0.5,1.4h-1.9l3.1-8h2.1l3.1,8H338.2z M336,147.5l-1.2,3.4h2.5L336,147.5z"/>
		<path fill="#010101" d="M340.9,153.8v-8h1.7v6.5h3.4v1.5H340.9z"/>
		<path fill="#010101" d="M346.4,154l2.8-8.5h1.1l-2.8,8.5H346.4z"/>
		<path fill="#010101" d="M356.7,153.8l-3.8-5.2v5.2h-1.7v-8h1.8l3.7,5v-5h1.7v8H356.7z"/>
		<path fill="#010101" d="M359.5,149.8c0-2.4,1.8-4.1,4.2-4.1c2.4,0,4.2,1.7,4.2,4.1c0,2.4-1.8,4.1-4.2,4.1
			C361.3,153.9,359.5,152.2,359.5,149.8z M366.1,149.8c0-1.5-1-2.6-2.4-2.6c-1.5,0-2.4,1.1-2.4,2.6c0,1.5,0.9,2.6,2.4,2.6
			C365.2,152.4,366.1,151.2,366.1,149.8z"/>
		<path fill="#010101" d="M374.6,153.8l-3.8-5.2v5.2h-1.7v-8h1.8l3.7,5v-5h1.7v8H374.6z"/>
		<path fill="#010101" d="M377.4,151.5v-1.3h2.9v1.3H377.4z"/>
		<path fill="#010101" d="M381.4,153.8v-8h1.7v8H381.4z"/>
		<path fill="#010101" d="M390.2,153.8l-3.8-5.2v5.2h-1.7v-8h1.8l3.7,5v-5h1.7v8H390.2z"/>
		<path fill="#010101" d="M393.5,153.8v-8h3.2c2.5,0,4.2,1.6,4.2,4c0,2.4-1.7,4-4.2,4H393.5z M399.1,149.8c0-1.4-0.9-2.5-2.5-2.5
			h-1.5v5h1.5C398.2,152.3,399.1,151.1,399.1,149.8z"/>
		<path fill="#010101" d="M402.1,153.8v-8h1.7v8H402.1z"/>
		<path fill="#010101" d="M407.6,153.8l-3.1-8h1.9l2.2,6.2l2.2-6.2h1.9l-3.1,8H407.6z"/>
		<path fill="#010101" d="M413.6,153.8v-8h1.7v8H413.6z"/>
		<path fill="#010101" d="M416.9,153.8v-8h3.2c2.5,0,4.2,1.6,4.2,4c0,2.4-1.7,4-4.2,4H416.9z M422.5,149.8c0-1.4-0.9-2.5-2.5-2.5
			h-1.5v5h1.5C421.6,152.3,422.5,151.1,422.5,149.8z"/>
		<path fill="#010101" d="M425.5,150.6v-4.8h1.7v4.7c0,1.1,0.6,1.9,1.9,1.9s1.9-0.8,1.9-1.9v-4.7h1.7v4.8c0,2-1.2,3.3-3.6,3.3
			S425.5,152.5,425.5,150.6z"/>
		<path fill="#010101" d="M439.4,153.8l-0.5-1.4h-3.4l-0.5,1.4H433l3.1-8h2.1l3.1,8H439.4z M437.2,147.5l-1.2,3.4h2.5L437.2,147.5z"
			/>
		<path fill="#010101" d="M442.1,153.8v-8h1.7v6.5h3.4v1.5H442.1z"/>
		<path fill="#010101" d="M448,150.3c0-1.4,1.8-1.6,1.8-2.4c0-0.4-0.3-0.7-0.9-0.7c-0.6,0-1.1,0.3-1.5,0.7l-1-1.1
			c0.6-0.7,1.6-1.2,2.6-1.2c1.5,0,2.5,0.8,2.5,1.9c0,1.8-2,1.9-2,2.9c0,0.2,0.1,0.4,0.2,0.5l-1.3,0.4C448.2,151,448,150.7,448,150.3
			z M448,152.9c0-0.5,0.4-1,1-1c0.5,0,1,0.4,1,1c0,0.5-0.4,1-1,1C448.5,153.9,448,153.4,448,152.9z"/>
	</g>
	<g>
		<rect x="257.6" y="119.9" fill="#E5E5E5" width="216.6" height="45.4"/>
	</g>
	<g>
		<path fill="#231F20" d="M344.8,139.4l-0.5-1.4h-3.4l-0.5,1.4h-1.9l3.1-8h2.1l3.1,8H344.8z M342.6,133.1l-1.2,3.4h2.5L342.6,133.1z
			"/>
		<path fill="#231F20" d="M352,139.4l-1.6-2.8h-1.2v2.8h-1.7v-8h3.7c1.7,0,2.7,1.1,2.7,2.6c0,1.4-0.9,2.2-1.8,2.4l1.8,3H352z
			 M352.2,133.9c0-0.7-0.5-1.1-1.2-1.1h-1.8v2.2h1.8C351.7,135,352.2,134.6,352.2,133.9z"/>
		<path fill="#231F20" d="M355.2,139.4v-8h5.7v1.5h-4v1.7h3.9v1.5h-3.9v1.8h4v1.5H355.2z"/>
		<path fill="#231F20" d="M367.5,139.4v-3.3l-3.1-4.7h1.9l2,3.2l2-3.2h1.9l-3.1,4.7v3.3H367.5z"/>
		<path fill="#231F20" d="M372.2,135.4c0-2.4,1.8-4.1,4.2-4.1c2.4,0,4.2,1.7,4.2,4.1c0,2.4-1.8,4.1-4.2,4.1
			C373.9,139.5,372.2,137.8,372.2,135.4z M378.8,135.4c0-1.5-1-2.6-2.4-2.6c-1.5,0-2.4,1.1-2.4,2.6c0,1.5,0.9,2.6,2.4,2.6
			C377.8,138,378.8,136.8,378.8,135.4z"/>
		<path fill="#231F20" d="M381.7,136.2v-4.8h1.7v4.8c0,1.1,0.6,1.9,1.9,1.9s1.9-0.8,1.9-1.9v-4.8h1.7v4.8c0,2-1.2,3.3-3.6,3.3
			S381.7,138.1,381.7,136.2z"/>
		<path fill="#231F20" d="M390.3,134.4c0-0.5,0.4-1,1-1s1,0.4,1,1c0,0.5-0.4,1-1,1S390.3,135,390.3,134.4z M390.3,138.5
			c0-0.5,0.4-1,1-1s1,0.4,1,1s-0.4,1-1,1S390.3,139,390.3,138.5z"/>
		<path fill="#231F20" d="M280.3,153.8v-8h1.7v8H280.3z"/>
		<path fill="#231F20" d="M289.1,153.8l-3.8-5.2v5.2h-1.7v-8h1.8l3.7,5v-5h1.7v8H289.1z"/>
		<path fill="#231F20" d="M292.3,153.8v-8h3.2c2.5,0,4.2,1.6,4.2,4c0,2.4-1.7,4-4.2,4H292.3z M298,149.8c0-1.4-0.9-2.5-2.5-2.5H294
			v5h1.5C297,152.3,298,151.1,298,149.8z"/>
		<path fill="#231F20" d="M300.9,153.8v-8h1.7v8H300.9z"/>
		<path fill="#231F20" d="M306.5,153.8l-3.1-8h1.9l2.2,6.2l2.2-6.2h1.9l-3.1,8H306.5z"/>
		<path fill="#231F20" d="M312.4,153.8v-8h1.7v8H312.4z"/>
		<path fill="#231F20" d="M315.7,153.8v-8h3.2c2.5,0,4.2,1.6,4.2,4c0,2.4-1.7,4-4.2,4H315.7z M321.4,149.8c0-1.4-0.9-2.5-2.5-2.5
			h-1.5v5h1.5C320.4,152.3,321.4,151.1,321.4,149.8z"/>
		<path fill="#231F20" d="M324.3,150.6v-4.8h1.7v4.7c0,1.1,0.6,1.9,1.9,1.9s1.9-0.8,1.9-1.9v-4.7h1.7v4.8c0,2-1.2,3.3-3.6,3.3
			S324.3,152.5,324.3,150.6z"/>
		<path fill="#231F20" d="M338.2,153.8l-0.5-1.4h-3.4l-0.5,1.4h-1.9l3.1-8h2.1l3.1,8H338.2z M336,147.5l-1.2,3.4h2.5L336,147.5z"/>
		<path fill="#231F20" d="M340.9,153.8v-8h1.7v6.5h3.4v1.5H340.9z"/>
		<path fill="#231F20" d="M346.4,154l2.8-8.5h1.1l-2.8,8.5H346.4z"/>
		<path fill="#231F20" d="M356.7,153.8l-3.8-5.2v5.2h-1.7v-8h1.8l3.7,5v-5h1.7v8H356.7z"/>
		<path fill="#231F20" d="M359.5,149.8c0-2.4,1.8-4.1,4.2-4.1c2.4,0,4.2,1.7,4.2,4.1c0,2.4-1.8,4.1-4.2,4.1
			C361.3,153.9,359.5,152.2,359.5,149.8z M366.1,149.8c0-1.5-1-2.6-2.4-2.6c-1.5,0-2.4,1.1-2.4,2.6c0,1.5,0.9,2.6,2.4,2.6
			C365.2,152.4,366.1,151.2,366.1,149.8z"/>
		<path fill="#231F20" d="M374.6,153.8l-3.8-5.2v5.2h-1.7v-8h1.8l3.7,5v-5h1.7v8H374.6z"/>
		<path fill="#231F20" d="M377.4,151.5v-1.3h2.9v1.3H377.4z"/>
		<path fill="#231F20" d="M381.4,153.8v-8h1.7v8H381.4z"/>
		<path fill="#231F20" d="M390.2,153.8l-3.8-5.2v5.2h-1.7v-8h1.8l3.7,5v-5h1.7v8H390.2z"/>
		<path fill="#231F20" d="M393.5,153.8v-8h3.2c2.5,0,4.2,1.6,4.2,4c0,2.4-1.7,4-4.2,4H393.5z M399.1,149.8c0-1.4-0.9-2.5-2.5-2.5
			h-1.5v5h1.5C398.2,152.3,399.1,151.1,399.1,149.8z"/>
		<path fill="#231F20" d="M402.1,153.8v-8h1.7v8H402.1z"/>
		<path fill="#231F20" d="M407.6,153.8l-3.1-8h1.9l2.2,6.2l2.2-6.2h1.9l-3.1,8H407.6z"/>
		<path fill="#231F20" d="M413.6,153.8v-8h1.7v8H413.6z"/>
		<path fill="#231F20" d="M416.9,153.8v-8h3.2c2.5,0,4.2,1.6,4.2,4c0,2.4-1.7,4-4.2,4H416.9z M422.5,149.8c0-1.4-0.9-2.5-2.5-2.5
			h-1.5v5h1.5C421.6,152.3,422.5,151.1,422.5,149.8z"/>
		<path fill="#231F20" d="M425.5,150.6v-4.8h1.7v4.7c0,1.1,0.6,1.9,1.9,1.9s1.9-0.8,1.9-1.9v-4.7h1.7v4.8c0,2-1.2,3.3-3.6,3.3
			S425.5,152.5,425.5,150.6z"/>
		<path fill="#231F20" d="M439.4,153.8l-0.5-1.4h-3.4l-0.5,1.4H433l3.1-8h2.1l3.1,8H439.4z M437.2,147.5l-1.2,3.4h2.5L437.2,147.5z"
			/>
		<path fill="#231F20" d="M442.1,153.8v-8h1.7v6.5h3.4v1.5H442.1z"/>
		<path fill="#231F20" d="M448,150.3c0-1.4,1.8-1.6,1.8-2.4c0-0.4-0.3-0.7-0.9-0.7c-0.6,0-1.1,0.3-1.5,0.7l-1-1.1
			c0.6-0.7,1.6-1.2,2.6-1.2c1.5,0,2.5,0.8,2.5,1.9c0,1.8-2,1.9-2,2.9c0,0.2,0.1,0.4,0.2,0.5l-1.3,0.4C448.2,151,448,150.7,448,150.3
			z M448,152.9c0-0.5,0.4-1,1-1c0.5,0,1,0.4,1,1c0,0.5-0.4,1-1,1C448.5,153.9,448,153.4,448,152.9z"/>
	</g>
</g>
<g>
	<g>
		<path fill="#010101" d="M274.3,256.6l-0.5-1.4h-3.4l-0.5,1.4H268l3.1-8h2.1l3.1,8H274.3z M272.1,250.3l-1.2,3.4h2.5L272.1,250.3z"
			/>
		<path fill="#010101" d="M277,256.6v-8h3.7c1.7,0,2.7,1.2,2.7,2.6c0,1.4-1,2.6-2.7,2.6h-2v2.8H277z M281.7,251.2
			c0-0.7-0.5-1.1-1.2-1.1h-1.8v2.2h1.8C281.2,252.2,281.7,251.8,281.7,251.2z"/>
		<path fill="#010101" d="M284.5,256.6v-8h3.7c1.7,0,2.7,1.2,2.7,2.6c0,1.4-1,2.6-2.7,2.6h-2v2.8H284.5z M289.2,251.2
			c0-0.7-0.5-1.1-1.2-1.1h-1.8v2.2h1.8C288.7,252.2,289.2,251.8,289.2,251.2z"/>
		<path fill="#010101" d="M292,256.6v-8h1.7v6.5h3.4v1.5H292z"/>
		<path fill="#010101" d="M299,256.6v-3.3l-3.1-4.7h1.9l2,3.2l2-3.2h1.9l-3.1,4.7v3.3H299z"/>
		<path fill="#010101" d="M304.5,256.6v-8h1.7v8H304.5z"/>
		<path fill="#010101" d="M313.3,256.6l-3.8-5.2v5.2h-1.7v-8h1.8l3.7,5v-5h1.7v8H313.3z"/>
		<path fill="#010101" d="M316.1,252.6c0-2.5,1.9-4.1,4.3-4.1c1.7,0,2.7,0.8,3.3,1.8l-1.4,0.8c-0.4-0.6-1-1-1.9-1
			c-1.5,0-2.5,1.1-2.5,2.6c0,1.5,1.1,2.6,2.5,2.6c0.7,0,1.4-0.3,1.7-0.6v-1H320v-1.5h3.8v3.1c-0.8,0.9-2,1.5-3.4,1.5
			C318,256.7,316.1,255.1,316.1,252.6z"/>
		<path fill="#010101" d="M328.2,256.6v-8h5.7v1.5h-4v1.7h3.9v1.5h-3.9v3.3H328.2z"/>
		<path fill="#010101" d="M334.7,252.6c0-2.4,1.8-4.1,4.2-4.1c2.4,0,4.2,1.7,4.2,4.1c0,2.4-1.8,4.1-4.2,4.1
			C336.5,256.7,334.7,255,334.7,252.6z M341.3,252.6c0-1.5-1-2.6-2.4-2.6c-1.5,0-2.4,1.1-2.4,2.6c0,1.5,0.9,2.6,2.4,2.6
			C340.3,255.2,341.3,254.1,341.3,252.6z"/>
		<path fill="#010101" d="M348.8,256.6l-1.6-2.8H346v2.8h-1.7v-8h3.7c1.7,0,2.7,1.1,2.7,2.6c0,1.4-0.9,2.2-1.8,2.4l1.8,3H348.8z
			 M348.9,251.2c0-0.7-0.5-1.1-1.2-1.1H346v2.2h1.8C348.4,252.2,348.9,251.8,348.9,251.2z"/>
		<path fill="#010101" d="M351.7,251.7c0-0.5,0.4-1,1-1s1,0.4,1,1c0,0.5-0.4,1-1,1S351.7,252.2,351.7,251.7z M351.7,255.7
			c0-0.5,0.4-1,1-1s1,0.4,1,1c0,0.5-0.4,1-1,1S351.7,256.3,351.7,255.7z"/>
		<path fill="#010101" d="M192,271v-3.3L189,263h1.9l2,3.2l2-3.2h1.9l-3.1,4.7v3.3H192z"/>
		<path fill="#010101" d="M196.7,267c0-2.4,1.8-4.1,4.2-4.1c2.4,0,4.2,1.7,4.2,4.1c0,2.4-1.8,4.1-4.2,4.1
			C198.5,271.1,196.7,269.4,196.7,267z M203.3,267c0-1.5-1-2.6-2.4-2.6c-1.5,0-2.4,1.1-2.4,2.6c0,1.5,0.9,2.6,2.4,2.6
			C202.3,269.6,203.3,268.5,203.3,267z"/>
		<path fill="#010101" d="M206.3,267.8V263h1.7v4.8c0,1.1,0.6,1.9,1.9,1.9s1.9-0.8,1.9-1.9V263h1.7v4.8c0,2-1.2,3.3-3.6,3.3
			S206.3,269.8,206.3,267.8z"/>
		<path fill="#010101" d="M219.6,271l-1.6-2.8h-1.2v2.8H215v-8h3.7c1.7,0,2.7,1.1,2.7,2.6c0,1.4-0.9,2.2-1.8,2.4l1.8,3H219.6z
			 M219.7,265.6c0-0.7-0.5-1.1-1.2-1.1h-1.8v2.2h1.8C219.2,266.6,219.7,266.2,219.7,265.6z"/>
		<path fill="#010101" d="M222.2,269.8l0.9-1.3c0.6,0.6,1.4,1.1,2.5,1.1c0.9,0,1.4-0.4,1.4-0.9c0-1.4-4.6-0.4-4.6-3.5
			c0-1.3,1.2-2.4,3-2.4c1.3,0,2.3,0.4,3.1,1.1l-0.9,1.2c-0.6-0.6-1.5-0.9-2.3-0.9c-0.7,0-1.1,0.3-1.1,0.8c0,1.3,4.6,0.4,4.6,3.4
			c0,1.5-1,2.6-3.2,2.6C224.1,271.1,223,270.6,222.2,269.8z"/>
		<path fill="#010101" d="M230,271v-8h5.7v1.5h-4v1.7h3.9v1.5h-3.9v1.8h4v1.5H230z"/>
		<path fill="#010101" d="M237,271v-8h1.7v6.5h3.4v1.5H237z"/>
		<path fill="#010101" d="M243.2,271v-8h5.7v1.5h-4v1.7h3.9v1.5h-3.9v3.3H243.2z"/>
		<path fill="#010101" d="M252.4,271.2l2.8-8.5h1.1l-2.8,8.5H252.4z"/>
		<path fill="#010101" d="M265.7,271l-0.5-1.4h-3.4l-0.5,1.4h-1.9l3.1-8h2.1l3.1,8H265.7z M263.5,264.7l-1.2,3.4h2.5L263.5,264.7z"
			/>
		<path fill="#010101" d="M271.1,267c0-2.5,1.9-4.1,4.3-4.1c1.8,0,2.8,1,3.3,2l-1.5,0.7c-0.3-0.6-1.1-1.2-1.9-1.2
			c-1.5,0-2.5,1.1-2.5,2.6c0,1.5,1.1,2.6,2.5,2.6c0.8,0,1.5-0.5,1.9-1.2l1.5,0.7c-0.6,1-1.6,2-3.3,2
			C272.9,271.1,271.1,269.4,271.1,267z"/>
		<path fill="#010101" d="M285.2,271v-3.4h-3.8v3.4h-1.7v-8h1.7v3.1h3.8V263h1.7v8H285.2z"/>
		<path fill="#010101" d="M288.5,271v-8h1.7v8H288.5z"/>
		<path fill="#010101" d="M291.8,271v-8h1.7v6.5h3.4v1.5H291.8z"/>
		<path fill="#010101" d="M298,271v-8h3.2c2.5,0,4.2,1.6,4.2,4c0,2.4-1.7,4-4.2,4H298z M303.7,267c0-1.4-0.9-2.5-2.5-2.5h-1.5v5h1.5
			C302.8,269.5,303.7,268.3,303.7,267z"/>
		<path fill="#010101" d="M309.7,267.8V263h1.7v4.8c0,1.1,0.6,1.9,1.9,1.9s1.9-0.8,1.9-1.9V263h1.7v4.8c0,2-1.2,3.3-3.6,3.3
			S309.7,269.8,309.7,267.8z"/>
		<path fill="#010101" d="M324,271l-3.8-5.2v5.2h-1.7v-8h1.8l3.7,5v-5h1.7v8H324z"/>
		<path fill="#010101" d="M327.3,271v-8h3.2c2.5,0,4.2,1.6,4.2,4c0,2.4-1.7,4-4.2,4H327.3z M332.9,267c0-1.4-0.9-2.5-2.5-2.5H329v5
			h1.5C332,269.5,332.9,268.3,332.9,267z"/>
		<path fill="#010101" d="M335.9,271v-8h5.7v1.5h-4v1.7h3.9v1.5h-3.9v1.8h4v1.5H335.9z"/>
		<path fill="#010101" d="M347.4,271l-1.6-2.8h-1.2v2.8h-1.7v-8h3.7c1.7,0,2.7,1.1,2.7,2.6c0,1.4-0.9,2.2-1.8,2.4l1.8,3H347.4z
			 M347.6,265.6c0-0.7-0.5-1.1-1.2-1.1h-1.8v2.2h1.8C347.1,266.6,347.6,266.2,347.6,265.6z"/>
		<path fill="#010101" d="M355.3,271v-5.8l-1.3,1.4l-1-1l2.5-2.5h1.5v8H355.3z"/>
		<path fill="#010101" d="M358.2,267c0-2.4,1.4-4.1,3.7-4.1c1,0,1.8,0.3,2.4,0.8l-0.8,1.3c-0.4-0.4-0.9-0.6-1.6-0.6
			c-1.2,0-2,1-2,2.3c0,0.1,0,0.1,0,0.2c0.4-0.5,1.2-1,2.1-1c1.4,0,2.7,0.9,2.7,2.6c0,1.6-1.2,2.7-3.1,2.7
			C359.2,271.1,358.2,269.2,358.2,267z M363,268.4c0-0.8-0.7-1.2-1.5-1.2c-0.6,0-1.2,0.3-1.6,0.8c0.1,0.8,0.5,1.6,1.6,1.6
			C362.5,269.6,363,269,363,268.4z"/>
		<path fill="#010101" d="M371.2,271v-3.3l-3.1-4.7h1.9l2,3.2l2-3.2h1.9l-3.1,4.7v3.3H371.2z"/>
		<path fill="#010101" d="M376.7,271v-8h5.7v1.5h-4v1.7h3.9v1.5h-3.9v1.8h4v1.5H376.7z"/>
		<path fill="#010101" d="M389.2,271l-0.5-1.4h-3.4l-0.5,1.4h-1.9l3.1-8h2.1l3.1,8H389.2z M387,264.7l-1.2,3.4h2.5L387,264.7z"/>
		<path fill="#010101" d="M396.4,271l-1.6-2.8h-1.2v2.8h-1.7v-8h3.7c1.7,0,2.7,1.1,2.7,2.6c0,1.4-0.9,2.2-1.8,2.4l1.8,3H396.4z
			 M396.6,265.6c0-0.7-0.5-1.1-1.2-1.1h-1.8v2.2h1.8C396.1,266.6,396.6,266.2,396.6,265.6z"/>
		<path fill="#010101" d="M399.1,269.8l0.9-1.3c0.6,0.6,1.4,1.1,2.5,1.1c0.9,0,1.4-0.4,1.4-0.9c0-1.4-4.6-0.4-4.6-3.5
			c0-1.3,1.2-2.4,3-2.4c1.3,0,2.3,0.4,3.1,1.1l-0.9,1.2c-0.6-0.6-1.5-0.9-2.3-0.9c-0.7,0-1.1,0.3-1.1,0.8c0,1.3,4.6,0.4,4.6,3.4
			c0,1.5-1,2.6-3.2,2.6C400.9,271.1,399.8,270.6,399.1,269.8z"/>
		<path fill="#010101" d="M409.5,267c0-2.4,1.8-4.1,4.2-4.1c2.4,0,4.2,1.7,4.2,4.1c0,2.4-1.8,4.1-4.2,4.1
			C411.3,271.1,409.5,269.4,409.5,267z M416.1,267c0-1.5-1-2.6-2.4-2.6c-1.5,0-2.4,1.1-2.4,2.6c0,1.5,0.9,2.6,2.4,2.6
			C415.2,269.6,416.1,268.5,416.1,267z"/>
		<path fill="#010101" d="M419.1,271v-8h1.7v6.5h3.4v1.5H419.1z"/>
		<path fill="#010101" d="M425.4,271v-8h3.2c2.5,0,4.2,1.6,4.2,4c0,2.4-1.7,4-4.2,4H425.4z M431,267c0-1.4-0.9-2.5-2.5-2.5h-1.5v5
			h1.5C430.1,269.5,431,268.3,431,267z"/>
	</g>
	<g>
		<rect x="166.3" y="237.1" fill="#E5E5E5" width="289.2" height="45.4"/>
	</g>
	<g>
		<path fill="#231F20" d="M274.3,256.6l-0.5-1.4h-3.4l-0.5,1.4H268l3.1-8h2.1l3.1,8H274.3z M272.1,250.3l-1.2,3.4h2.5L272.1,250.3z"
			/>
		<path fill="#231F20" d="M277,256.6v-8h3.7c1.7,0,2.7,1.2,2.7,2.6c0,1.4-1,2.6-2.7,2.6h-2v2.8H277z M281.7,251.2
			c0-0.7-0.5-1.1-1.2-1.1h-1.8v2.2h1.8C281.2,252.2,281.7,251.8,281.7,251.2z"/>
		<path fill="#231F20" d="M284.5,256.6v-8h3.7c1.7,0,2.7,1.2,2.7,2.6c0,1.4-1,2.6-2.7,2.6h-2v2.8H284.5z M289.2,251.2
			c0-0.7-0.5-1.1-1.2-1.1h-1.8v2.2h1.8C288.7,252.2,289.2,251.8,289.2,251.2z"/>
		<path fill="#231F20" d="M292,256.6v-8h1.7v6.5h3.4v1.5H292z"/>
		<path fill="#231F20" d="M299,256.6v-3.3l-3.1-4.7h1.9l2,3.2l2-3.2h1.9l-3.1,4.7v3.3H299z"/>
		<path fill="#231F20" d="M304.5,256.6v-8h1.7v8H304.5z"/>
		<path fill="#231F20" d="M313.3,256.6l-3.8-5.2v5.2h-1.7v-8h1.8l3.7,5v-5h1.7v8H313.3z"/>
		<path fill="#231F20" d="M316.1,252.6c0-2.5,1.9-4.1,4.3-4.1c1.7,0,2.7,0.8,3.3,1.8l-1.4,0.8c-0.4-0.6-1-1-1.9-1
			c-1.5,0-2.5,1.1-2.5,2.6c0,1.5,1.1,2.6,2.5,2.6c0.7,0,1.4-0.3,1.7-0.6v-1H320v-1.5h3.8v3.1c-0.8,0.9-2,1.5-3.4,1.5
			C318,256.7,316.1,255.1,316.1,252.6z"/>
		<path fill="#231F20" d="M328.2,256.6v-8h5.7v1.5h-4v1.7h3.9v1.5h-3.9v3.3H328.2z"/>
		<path fill="#231F20" d="M334.7,252.6c0-2.4,1.8-4.1,4.2-4.1c2.4,0,4.2,1.7,4.2,4.1c0,2.4-1.8,4.1-4.2,4.1
			C336.5,256.7,334.7,255,334.7,252.6z M341.3,252.6c0-1.5-1-2.6-2.4-2.6c-1.5,0-2.4,1.1-2.4,2.6c0,1.5,0.9,2.6,2.4,2.6
			C340.3,255.2,341.3,254.1,341.3,252.6z"/>
		<path fill="#231F20" d="M348.8,256.6l-1.6-2.8H346v2.8h-1.7v-8h3.7c1.7,0,2.7,1.1,2.7,2.6c0,1.4-0.9,2.2-1.8,2.4l1.8,3H348.8z
			 M348.9,251.2c0-0.7-0.5-1.1-1.2-1.1H346v2.2h1.8C348.4,252.2,348.9,251.8,348.9,251.2z"/>
		<path fill="#231F20" d="M351.7,251.7c0-0.5,0.4-1,1-1s1,0.4,1,1c0,0.5-0.4,1-1,1S351.7,252.2,351.7,251.7z M351.7,255.7
			c0-0.5,0.4-1,1-1s1,0.4,1,1c0,0.5-0.4,1-1,1S351.7,256.3,351.7,255.7z"/>
		<path fill="#231F20" d="M192,271v-3.3L189,263h1.9l2,3.2l2-3.2h1.9l-3.1,4.7v3.3H192z"/>
		<path fill="#231F20" d="M196.7,267c0-2.4,1.8-4.1,4.2-4.1c2.4,0,4.2,1.7,4.2,4.1c0,2.4-1.8,4.1-4.2,4.1
			C198.5,271.1,196.7,269.4,196.7,267z M203.3,267c0-1.5-1-2.6-2.4-2.6c-1.5,0-2.4,1.1-2.4,2.6c0,1.5,0.9,2.6,2.4,2.6
			C202.3,269.6,203.3,268.5,203.3,267z"/>
		<path fill="#231F20" d="M206.3,267.8V263h1.7v4.8c0,1.1,0.6,1.9,1.9,1.9s1.9-0.8,1.9-1.9V263h1.7v4.8c0,2-1.2,3.3-3.6,3.3
			S206.3,269.8,206.3,267.8z"/>
		<path fill="#231F20" d="M219.6,271l-1.6-2.8h-1.2v2.8H215v-8h3.7c1.7,0,2.7,1.1,2.7,2.6c0,1.4-0.9,2.2-1.8,2.4l1.8,3H219.6z
			 M219.7,265.6c0-0.7-0.5-1.1-1.2-1.1h-1.8v2.2h1.8C219.2,266.6,219.7,266.2,219.7,265.6z"/>
		<path fill="#231F20" d="M222.2,269.8l0.9-1.3c0.6,0.6,1.4,1.1,2.5,1.1c0.9,0,1.4-0.4,1.4-0.9c0-1.4-4.6-0.4-4.6-3.5
			c0-1.3,1.2-2.4,3-2.4c1.3,0,2.3,0.4,3.1,1.1l-0.9,1.2c-0.6-0.6-1.5-0.9-2.3-0.9c-0.7,0-1.1,0.3-1.1,0.8c0,1.3,4.6,0.4,4.6,3.4
			c0,1.5-1,2.6-3.2,2.6C224.1,271.1,223,270.6,222.2,269.8z"/>
		<path fill="#231F20" d="M230,271v-8h5.7v1.5h-4v1.7h3.9v1.5h-3.9v1.8h4v1.5H230z"/>
		<path fill="#231F20" d="M237,271v-8h1.7v6.5h3.4v1.5H237z"/>
		<path fill="#231F20" d="M243.2,271v-8h5.7v1.5h-4v1.7h3.9v1.5h-3.9v3.3H243.2z"/>
		<path fill="#231F20" d="M252.4,271.2l2.8-8.5h1.1l-2.8,8.5H252.4z"/>
		<path fill="#231F20" d="M265.7,271l-0.5-1.4h-3.4l-0.5,1.4h-1.9l3.1-8h2.1l3.1,8H265.7z M263.5,264.7l-1.2,3.4h2.5L263.5,264.7z"
			/>
		<path fill="#231F20" d="M271.1,267c0-2.5,1.9-4.1,4.3-4.1c1.8,0,2.8,1,3.3,2l-1.5,0.7c-0.3-0.6-1.1-1.2-1.9-1.2
			c-1.5,0-2.5,1.1-2.5,2.6c0,1.5,1.1,2.6,2.5,2.6c0.8,0,1.5-0.5,1.9-1.2l1.5,0.7c-0.6,1-1.6,2-3.3,2
			C272.9,271.1,271.1,269.4,271.1,267z"/>
		<path fill="#231F20" d="M285.2,271v-3.4h-3.8v3.4h-1.7v-8h1.7v3.1h3.8V263h1.7v8H285.2z"/>
		<path fill="#231F20" d="M288.5,271v-8h1.7v8H288.5z"/>
		<path fill="#231F20" d="M291.8,271v-8h1.7v6.5h3.4v1.5H291.8z"/>
		<path fill="#231F20" d="M298,271v-8h3.2c2.5,0,4.2,1.6,4.2,4c0,2.4-1.7,4-4.2,4H298z M303.7,267c0-1.4-0.9-2.5-2.5-2.5h-1.5v5h1.5
			C302.8,269.5,303.7,268.3,303.7,267z"/>
		<path fill="#231F20" d="M309.7,267.8V263h1.7v4.8c0,1.1,0.6,1.9,1.9,1.9s1.9-0.8,1.9-1.9V263h1.7v4.8c0,2-1.2,3.3-3.6,3.3
			S309.7,269.8,309.7,267.8z"/>
		<path fill="#231F20" d="M324,271l-3.8-5.2v5.2h-1.7v-8h1.8l3.7,5v-5h1.7v8H324z"/>
		<path fill="#231F20" d="M327.3,271v-8h3.2c2.5,0,4.2,1.6,4.2,4c0,2.4-1.7,4-4.2,4H327.3z M332.9,267c0-1.4-0.9-2.5-2.5-2.5H329v5
			h1.5C332,269.5,332.9,268.3,332.9,267z"/>
		<path fill="#231F20" d="M335.9,271v-8h5.7v1.5h-4v1.7h3.9v1.5h-3.9v1.8h4v1.5H335.9z"/>
		<path fill="#231F20" d="M347.4,271l-1.6-2.8h-1.2v2.8h-1.7v-8h3.7c1.7,0,2.7,1.1,2.7,2.6c0,1.4-0.9,2.2-1.8,2.4l1.8,3H347.4z
			 M347.6,265.6c0-0.7-0.5-1.1-1.2-1.1h-1.8v2.2h1.8C347.1,266.6,347.6,266.2,347.6,265.6z"/>
		<path fill="#231F20" d="M355.3,271v-5.8l-1.3,1.4l-1-1l2.5-2.5h1.5v8H355.3z"/>
		<path fill="#231F20" d="M358.2,267c0-2.4,1.4-4.1,3.7-4.1c1,0,1.8,0.3,2.4,0.8l-0.8,1.3c-0.4-0.4-0.9-0.6-1.6-0.6
			c-1.2,0-2,1-2,2.3c0,0.1,0,0.1,0,0.2c0.4-0.5,1.2-1,2.1-1c1.4,0,2.7,0.9,2.7,2.6c0,1.6-1.2,2.7-3.1,2.7
			C359.2,271.1,358.2,269.2,358.2,267z M363,268.4c0-0.8-0.7-1.2-1.5-1.2c-0.6,0-1.2,0.3-1.6,0.8c0.1,0.8,0.5,1.6,1.6,1.6
			C362.5,269.6,363,269,363,268.4z"/>
		<path fill="#231F20" d="M371.2,271v-3.3l-3.1-4.7h1.9l2,3.2l2-3.2h1.9l-3.1,4.7v3.3H371.2z"/>
		<path fill="#231F20" d="M376.7,271v-8h5.7v1.5h-4v1.7h3.9v1.5h-3.9v1.8h4v1.5H376.7z"/>
		<path fill="#231F20" d="M389.2,271l-0.5-1.4h-3.4l-0.5,1.4h-1.9l3.1-8h2.1l3.1,8H389.2z M387,264.7l-1.2,3.4h2.5L387,264.7z"/>
		<path fill="#231F20" d="M396.4,271l-1.6-2.8h-1.2v2.8h-1.7v-8h3.7c1.7,0,2.7,1.1,2.7,2.6c0,1.4-0.9,2.2-1.8,2.4l1.8,3H396.4z
			 M396.6,265.6c0-0.7-0.5-1.1-1.2-1.1h-1.8v2.2h1.8C396.1,266.6,396.6,266.2,396.6,265.6z"/>
		<path fill="#231F20" d="M399.1,269.8l0.9-1.3c0.6,0.6,1.4,1.1,2.5,1.1c0.9,0,1.4-0.4,1.4-0.9c0-1.4-4.6-0.4-4.6-3.5
			c0-1.3,1.2-2.4,3-2.4c1.3,0,2.3,0.4,3.1,1.1l-0.9,1.2c-0.6-0.6-1.5-0.9-2.3-0.9c-0.7,0-1.1,0.3-1.1,0.8c0,1.3,4.6,0.4,4.6,3.4
			c0,1.5-1,2.6-3.2,2.6C400.9,271.1,399.8,270.6,399.1,269.8z"/>
		<path fill="#231F20" d="M409.5,267c0-2.4,1.8-4.1,4.2-4.1c2.4,0,4.2,1.7,4.2,4.1c0,2.4-1.8,4.1-4.2,4.1
			C411.3,271.1,409.5,269.4,409.5,267z M416.1,267c0-1.5-1-2.6-2.4-2.6c-1.5,0-2.4,1.1-2.4,2.6c0,1.5,0.9,2.6,2.4,2.6
			C415.2,269.6,416.1,268.5,416.1,267z"/>
		<path fill="#231F20" d="M419.1,271v-8h1.7v6.5h3.4v1.5H419.1z"/>
		<path fill="#231F20" d="M425.4,271v-8h3.2c2.5,0,4.2,1.6,4.2,4c0,2.4-1.7,4-4.2,4H425.4z M431,267c0-1.4-0.9-2.5-2.5-2.5h-1.5v5
			h1.5C430.1,269.5,431,268.3,431,267z"/>
	</g>
</g>
<g>
	<g>
		<path fill="#010101" d="M521.6,211.8l-3.8-5.2v5.2h-1.7v-8h1.8l3.7,5v-5h1.7v8H521.6z"/>
		<path fill="#010101" d="M524.5,207.8c0-2.4,1.8-4.1,4.2-4.1c2.4,0,4.2,1.7,4.2,4.1c0,2.4-1.8,4.1-4.2,4.1
			C526.3,211.9,524.5,210.2,524.5,207.8z M531.1,207.8c0-1.5-1-2.6-2.4-2.6c-1.5,0-2.4,1.1-2.4,2.6c0,1.5,0.9,2.6,2.4,2.6
			C530.1,210.4,531.1,209.3,531.1,207.8z"/>
		<path fill="#010101" d="M539.6,211.8l-3.8-5.2v5.2h-1.7v-8h1.8l3.7,5v-5h1.7v8H539.6z"/>
		<path fill="#010101" d="M542.4,209.5v-1.3h2.9v1.3H542.4z"/>
		<path fill="#010101" d="M546.4,211.8v-8h1.7v8H546.4z"/>
		<path fill="#010101" d="M555.2,211.8l-3.8-5.2v5.2h-1.7v-8h1.8l3.7,5v-5h1.7v8H555.2z"/>
		<path fill="#010101" d="M558.4,211.8v-8h3.2c2.5,0,4.2,1.6,4.2,4c0,2.4-1.7,4-4.2,4H558.4z M564.1,207.8c0-1.4-0.9-2.5-2.5-2.5
			h-1.5v5h1.5C563.2,210.3,564.1,209.2,564.1,207.8z"/>
		<path fill="#010101" d="M567.1,211.8v-8h1.7v8H567.1z"/>
		<path fill="#010101" d="M572.6,211.8l-3.1-8h1.9l2.2,6.2l2.2-6.2h1.9l-3.1,8H572.6z"/>
		<path fill="#010101" d="M578.6,211.8v-8h1.7v8H578.6z"/>
		<path fill="#010101" d="M581.8,211.8v-8h3.2c2.5,0,4.2,1.6,4.2,4c0,2.4-1.7,4-4.2,4H581.8z M587.5,207.8c0-1.4-0.9-2.5-2.5-2.5
			h-1.5v5h1.5C586.6,210.3,587.5,209.2,587.5,207.8z"/>
		<path fill="#010101" d="M590.5,208.6v-4.8h1.7v4.8c0,1.1,0.6,1.9,1.9,1.9s1.9-0.8,1.9-1.9v-4.8h1.7v4.8c0,2-1.2,3.3-3.6,3.3
			S590.5,210.6,590.5,208.6z"/>
		<path fill="#010101" d="M604.4,211.8l-0.5-1.4h-3.4l-0.5,1.4H598l3.1-8h2.1l3.1,8H604.4z M602.2,205.5l-1.2,3.4h2.5L602.2,205.5z"
			/>
		<path fill="#010101" d="M607.1,211.8v-8h1.7v6.5h3.4v1.5H607.1z"/>
	</g>
	<g>
		<rect x="493.5" y="192.3" fill="#FFFFFF" width="141.4" height="31"/>
	</g>
	<g>
		<path fill="#231F20" d="M521.6,211.8l-3.8-5.2v5.2h-1.7v-8h1.8l3.7,5v-5h1.7v8H521.6z"/>
		<path fill="#231F20" d="M524.5,207.8c0-2.4,1.8-4.1,4.2-4.1c2.4,0,4.2,1.7,4.2,4.1c0,2.4-1.8,4.1-4.2,4.1
			C526.3,211.9,524.5,210.2,524.5,207.8z M531.1,207.8c0-1.5-1-2.6-2.4-2.6c-1.5,0-2.4,1.1-2.4,2.6c0,1.5,0.9,2.6,2.4,2.6
			C530.1,210.4,531.1,209.3,531.1,207.8z"/>
		<path fill="#231F20" d="M539.6,211.8l-3.8-5.2v5.2h-1.7v-8h1.8l3.7,5v-5h1.7v8H539.6z"/>
		<path fill="#231F20" d="M542.4,209.5v-1.3h2.9v1.3H542.4z"/>
		<path fill="#231F20" d="M546.4,211.8v-8h1.7v8H546.4z"/>
		<path fill="#231F20" d="M555.2,211.8l-3.8-5.2v5.2h-1.7v-8h1.8l3.7,5v-5h1.7v8H555.2z"/>
		<path fill="#231F20" d="M558.4,211.8v-8h3.2c2.5,0,4.2,1.6,4.2,4c0,2.4-1.7,4-4.2,4H558.4z M564.1,207.8c0-1.4-0.9-2.5-2.5-2.5
			h-1.5v5h1.5C563.2,210.3,564.1,209.2,564.1,207.8z"/>
		<path fill="#231F20" d="M567.1,211.8v-8h1.7v8H567.1z"/>
		<path fill="#231F20" d="M572.6,211.8l-3.1-8h1.9l2.2,6.2l2.2-6.2h1.9l-3.1,8H572.6z"/>
		<path fill="#231F20" d="M578.6,211.8v-8h1.7v8H578.6z"/>
		<path fill="#231F20" d="M581.8,211.8v-8h3.2c2.5,0,4.2,1.6,4.2,4c0,2.4-1.7,4-4.2,4H581.8z M587.5,207.8c0-1.4-0.9-2.5-2.5-2.5
			h-1.5v5h1.5C586.6,210.3,587.5,209.2,587.5,207.8z"/>
		<path fill="#231F20" d="M590.5,208.6v-4.8h1.7v4.8c0,1.1,0.6,1.9,1.9,1.9s1.9-0.8,1.9-1.9v-4.8h1.7v4.8c0,2-1.2,3.3-3.6,3.3
			S590.5,210.6,590.5,208.6z"/>
		<path fill="#231F20" d="M604.4,211.8l-0.5-1.4h-3.4l-0.5,1.4H598l3.1-8h2.1l3.1,8H604.4z M602.2,205.5l-1.2,3.4h2.5L602.2,205.5z"
			/>
		<path fill="#231F20" d="M607.1,211.8v-8h1.7v6.5h3.4v1.5H607.1z"/>
	</g>
</g>
<g>
	<g>
		<path fill="#010101" d="M278.4,211.8v-8h1.7v8H278.4z"/>
		<path fill="#010101" d="M287.2,211.8l-3.8-5.2v5.2h-1.7v-8h1.8l3.7,5v-5h1.7v8H287.2z"/>
		<path fill="#010101" d="M290.5,211.8v-8h3.2c2.5,0,4.2,1.6,4.2,4c0,2.4-1.7,4-4.2,4H290.5z M296.1,207.8c0-1.4-0.9-2.5-2.5-2.5
			h-1.5v5h1.5C295.2,210.3,296.1,209.2,296.1,207.8z"/>
		<path fill="#010101" d="M299.1,211.8v-8h1.7v8H299.1z"/>
		<path fill="#010101" d="M304.6,211.8l-3.1-8h1.9l2.2,6.2l2.2-6.2h1.9l-3.1,8H304.6z"/>
		<path fill="#010101" d="M310.6,211.8v-8h1.7v8H310.6z"/>
		<path fill="#010101" d="M313.9,211.8v-8h3.2c2.5,0,4.2,1.6,4.2,4c0,2.4-1.7,4-4.2,4H313.9z M319.5,207.8c0-1.4-0.9-2.5-2.5-2.5
			h-1.5v5h1.5C318.6,210.3,319.5,209.2,319.5,207.8z"/>
		<path fill="#010101" d="M322.5,208.6v-4.8h1.7v4.8c0,1.1,0.6,1.9,1.9,1.9s1.9-0.8,1.9-1.9v-4.8h1.7v4.8c0,2-1.2,3.3-3.6,3.3
			S322.5,210.6,322.5,208.6z"/>
		<path fill="#010101" d="M336.4,211.8l-0.5-1.4h-3.4l-0.5,1.4H330l3.1-8h2.1l3.1,8H336.4z M334.2,205.5l-1.2,3.4h2.5L334.2,205.5z"
			/>
		<path fill="#010101" d="M339.1,211.8v-8h1.7v6.5h3.4v1.5H339.1z"/>
	</g>
	<g>
		<rect x="255.7" y="192.5" fill="#FFFFFF" width="111.1" height="30.8"/>
	</g>
	<g>
		<path fill="#231F20" d="M278.4,211.8v-8h1.7v8H278.4z"/>
		<path fill="#231F20" d="M287.2,211.8l-3.8-5.2v5.2h-1.7v-8h1.8l3.7,5v-5h1.7v8H287.2z"/>
		<path fill="#231F20" d="M290.5,211.8v-8h3.2c2.5,0,4.2,1.6,4.2,4c0,2.4-1.7,4-4.2,4H290.5z M296.1,207.8c0-1.4-0.9-2.5-2.5-2.5
			h-1.5v5h1.5C295.2,210.3,296.1,209.2,296.1,207.8z"/>
		<path fill="#231F20" d="M299.1,211.8v-8h1.7v8H299.1z"/>
		<path fill="#231F20" d="M304.6,211.8l-3.1-8h1.9l2.2,6.2l2.2-6.2h1.9l-3.1,8H304.6z"/>
		<path fill="#231F20" d="M310.6,211.8v-8h1.7v8H310.6z"/>
		<path fill="#231F20" d="M313.9,211.8v-8h3.2c2.5,0,4.2,1.6,4.2,4c0,2.4-1.7,4-4.2,4H313.9z M319.5,207.8c0-1.4-0.9-2.5-2.5-2.5
			h-1.5v5h1.5C318.6,210.3,319.5,209.2,319.5,207.8z"/>
		<path fill="#231F20" d="M322.5,208.6v-4.8h1.7v4.8c0,1.1,0.6,1.9,1.9,1.9s1.9-0.8,1.9-1.9v-4.8h1.7v4.8c0,2-1.2,3.3-3.6,3.3
			S322.5,210.6,322.5,208.6z"/>
		<path fill="#231F20" d="M336.4,211.8l-0.5-1.4h-3.4l-0.5,1.4H330l3.1-8h2.1l3.1,8H336.4z M334.2,205.5l-1.2,3.4h2.5L334.2,205.5z"
			/>
		<path fill="#231F20" d="M339.1,211.8v-8h1.7v6.5h3.4v1.5H339.1z"/>
	</g>
</g>
<g>
	<g>
		<path fill="#010101" d="M207.9,330v-5.6l-2.3,5.6h-0.7l-2.3-5.6v5.6H201v-8h2.4l1.9,4.8l1.9-4.8h2.4v8H207.9z"/>
		<path fill="#010101" d="M213.5,330v-3.3l-3.1-4.7h1.9l2,3.2l2-3.2h1.9l-3.1,4.7v3.3H213.5z"/>
		<path fill="#010101" d="M218.2,328.9l0.9-1.3c0.6,0.6,1.4,1.1,2.5,1.1c0.9,0,1.4-0.4,1.4-0.9c0-1.4-4.6-0.4-4.6-3.5
			c0-1.3,1.2-2.4,3-2.4c1.3,0,2.3,0.4,3.1,1.1l-0.9,1.2c-0.6-0.6-1.5-0.9-2.3-0.9c-0.7,0-1.1,0.3-1.1,0.8c0,1.3,4.6,0.4,4.6,3.4
			c0,1.5-1,2.6-3.2,2.6C220,330.1,218.9,329.6,218.2,328.9z"/>
		<path fill="#010101" d="M225.9,330v-8h5.7v1.5h-4v1.7h3.9v1.5h-3.9v1.8h4v1.5H225.9z"/>
		<path fill="#010101" d="M232.9,330v-8h1.7v6.5h3.4v1.5H232.9z"/>
		<path fill="#010101" d="M239.2,330v-8h5.7v1.5h-4v1.7h3.9v1.5h-3.9v3.3H239.2z"/>
	</g>
	<g>
		<rect x="178.3" y="310.5" fill="#FFFFFF" width="89.2" height="30.9"/>
	</g>
	<g>
		<path fill="#231F20" d="M207.9,330v-5.6l-2.3,5.6h-0.7l-2.3-5.6v5.6H201v-8h2.4l1.9,4.8l1.9-4.8h2.4v8H207.9z"/>
		<path fill="#231F20" d="M213.5,330v-3.3l-3.1-4.7h1.9l2,3.2l2-3.2h1.9l-3.1,4.7v3.3H213.5z"/>
		<path fill="#231F20" d="M218.2,328.9l0.9-1.3c0.6,0.6,1.4,1.1,2.5,1.1c0.9,0,1.4-0.4,1.4-0.9c0-1.4-4.6-0.4-4.6-3.5
			c0-1.3,1.2-2.4,3-2.4c1.3,0,2.3,0.4,3.1,1.1l-0.9,1.2c-0.6-0.6-1.5-0.9-2.3-0.9c-0.7,0-1.1,0.3-1.1,0.8c0,1.3,4.6,0.4,4.6,3.4
			c0,1.5-1,2.6-3.2,2.6C220,330.1,218.9,329.6,218.2,328.9z"/>
		<path fill="#231F20" d="M225.9,330v-8h5.7v1.5h-4v1.7h3.9v1.5h-3.9v1.8h4v1.5H225.9z"/>
		<path fill="#231F20" d="M232.9,330v-8h1.7v6.5h3.4v1.5H232.9z"/>
		<path fill="#231F20" d="M239.2,330v-8h5.7v1.5h-4v1.7h3.9v1.5h-3.9v3.3H239.2z"/>
	</g>
</g>
<g>
	<g>
		<path fill="#010101" d="M300.6,330l-0.5-1.4h-3.4l-0.5,1.4h-1.9l3.1-8h2.1l3.1,8H300.6z M298.4,323.7l-1.2,3.4h2.5L298.4,323.7z"
			/>
		<path fill="#010101" d="M306,326c0-2.5,1.9-4.1,4.3-4.1c1.8,0,2.8,1,3.3,2l-1.5,0.7c-0.3-0.6-1.1-1.2-1.9-1.2
			c-1.5,0-2.5,1.1-2.5,2.6c0,1.5,1.1,2.6,2.5,2.6c0.8,0,1.5-0.5,1.9-1.2l1.5,0.7c-0.6,1-1.6,2-3.3,2C307.9,330.1,306,328.5,306,326z
			"/>
		<path fill="#010101" d="M320.1,330v-3.4h-3.8v3.4h-1.7v-8h1.7v3.1h3.8V322h1.7v8H320.1z"/>
		<path fill="#010101" d="M323.4,330v-8h1.7v8H323.4z"/>
		<path fill="#010101" d="M326.7,330v-8h1.7v6.5h3.4v1.5H326.7z"/>
		<path fill="#010101" d="M333,330v-8h3.2c2.5,0,4.2,1.6,4.2,4c0,2.4-1.7,4-4.2,4H333z M338.6,326c0-1.4-0.9-2.5-2.5-2.5h-1.5v5h1.5
			C337.7,328.5,338.6,327.4,338.6,326z"/>
		<path fill="#010101" d="M344.7,326.8V322h1.7v4.7c0,1.1,0.6,1.9,1.9,1.9s1.9-0.8,1.9-1.9V322h1.7v4.8c0,2-1.2,3.3-3.6,3.3
			S344.7,328.8,344.7,326.8z"/>
		<path fill="#010101" d="M359,330l-3.8-5.2v5.2h-1.7v-8h1.8l3.7,5v-5h1.7v8H359z"/>
		<path fill="#010101" d="M362.2,330v-8h3.2c2.5,0,4.2,1.6,4.2,4c0,2.4-1.7,4-4.2,4H362.2z M367.9,326c0-1.4-0.9-2.5-2.5-2.5h-1.5v5
			h1.5C366.9,328.5,367.9,327.4,367.9,326z"/>
		<path fill="#010101" d="M370.8,330v-8h5.7v1.5h-4v1.7h3.9v1.5h-3.9v1.8h4v1.5H370.8z"/>
		<path fill="#010101" d="M382.3,330l-1.6-2.8h-1.2v2.8h-1.7v-8h3.7c1.7,0,2.7,1.1,2.7,2.6c0,1.4-0.9,2.2-1.8,2.4l1.8,3H382.3z
			 M382.5,324.6c0-0.7-0.5-1.1-1.2-1.1h-1.8v2.2h1.8C382,325.7,382.5,325.3,382.5,324.6z"/>
		<path fill="#010101" d="M390.2,330v-5.8l-1.3,1.4l-1-1l2.5-2.5h1.5v8H390.2z"/>
		<path fill="#010101" d="M393.1,326c0-2.4,1.4-4.1,3.7-4.1c1,0,1.8,0.3,2.4,0.8l-0.8,1.3c-0.4-0.4-0.9-0.6-1.6-0.6
			c-1.2,0-2,1-2,2.3c0,0.1,0,0.1,0,0.2c0.4-0.5,1.2-1,2.1-1c1.4,0,2.7,0.9,2.7,2.6c0,1.6-1.2,2.7-3.1,2.7
			C394.2,330.1,393.1,328.3,393.1,326z M397.9,327.5c0-0.8-0.7-1.2-1.5-1.2c-0.6,0-1.2,0.3-1.6,0.8c0.1,0.8,0.5,1.6,1.6,1.6
			C397.4,328.6,397.9,328,397.9,327.5z"/>
		<path fill="#010101" d="M403.1,330v-3.3L400,322h1.9l2,3.2l2-3.2h1.9l-3.1,4.7v3.3H403.1z"/>
		<path fill="#010101" d="M408.6,330v-8h5.7v1.5h-4v1.7h3.9v1.5h-3.9v1.8h4v1.5H408.6z"/>
		<path fill="#010101" d="M421.1,330l-0.5-1.4h-3.4l-0.5,1.4h-1.9l3.1-8h2.1l3.1,8H421.1z M418.9,323.7l-1.2,3.4h2.5L418.9,323.7z"
			/>
		<path fill="#010101" d="M428.3,330l-1.6-2.8h-1.2v2.8h-1.7v-8h3.7c1.7,0,2.7,1.1,2.7,2.6c0,1.4-0.9,2.2-1.8,2.4l1.8,3H428.3z
			 M428.5,324.6c0-0.7-0.5-1.1-1.2-1.1h-1.8v2.2h1.8C427.9,325.7,428.5,325.3,428.5,324.6z"/>
		<path fill="#010101" d="M430.9,328.9l0.9-1.3c0.6,0.6,1.4,1.1,2.5,1.1c0.9,0,1.4-0.4,1.4-0.9c0-1.4-4.6-0.4-4.6-3.5
			c0-1.3,1.2-2.4,3-2.4c1.3,0,2.3,0.4,3.1,1.1l-0.9,1.2c-0.6-0.6-1.5-0.9-2.3-0.9c-0.7,0-1.1,0.3-1.1,0.8c0,1.3,4.6,0.4,4.6,3.4
			c0,1.5-1,2.6-3.2,2.6C432.8,330.1,431.7,329.6,430.9,328.9z"/>
		<path fill="#010101" d="M441.4,326c0-2.4,1.8-4.1,4.2-4.1c2.4,0,4.2,1.7,4.2,4.1c0,2.4-1.8,4.1-4.2,4.1
			C443.1,330.1,441.4,328.4,441.4,326z M448,326c0-1.5-1-2.6-2.4-2.6c-1.5,0-2.4,1.1-2.4,2.6c0,1.5,0.9,2.6,2.4,2.6
			C447,328.6,448,327.5,448,326z"/>
		<path fill="#010101" d="M450.9,330v-8h1.7v6.5h3.4v1.5H450.9z"/>
		<path fill="#010101" d="M457.2,330v-8h3.2c2.5,0,4.2,1.6,4.2,4c0,2.4-1.7,4-4.2,4H457.2z M462.9,326c0-1.4-0.9-2.5-2.5-2.5h-1.5v5
			h1.5C461.9,328.5,462.9,327.4,462.9,326z"/>
	</g>
	<g>
		<rect x="271.6" y="310.5" fill="#FFFFFF" width="215.7" height="31"/>
	</g>
	<g>
		<path fill="#231F20" d="M300.6,330l-0.5-1.4h-3.4l-0.5,1.4h-1.9l3.1-8h2.1l3.1,8H300.6z M298.4,323.7l-1.2,3.4h2.5L298.4,323.7z"
			/>
		<path fill="#231F20" d="M306,326c0-2.5,1.9-4.1,4.3-4.1c1.8,0,2.8,1,3.3,2l-1.5,0.7c-0.3-0.6-1.1-1.2-1.9-1.2
			c-1.5,0-2.5,1.1-2.5,2.6c0,1.5,1.1,2.6,2.5,2.6c0.8,0,1.5-0.5,1.9-1.2l1.5,0.7c-0.6,1-1.6,2-3.3,2C307.9,330.1,306,328.5,306,326z
			"/>
		<path fill="#231F20" d="M320.1,330v-3.4h-3.8v3.4h-1.7v-8h1.7v3.1h3.8V322h1.7v8H320.1z"/>
		<path fill="#231F20" d="M323.4,330v-8h1.7v8H323.4z"/>
		<path fill="#231F20" d="M326.7,330v-8h1.7v6.5h3.4v1.5H326.7z"/>
		<path fill="#231F20" d="M333,330v-8h3.2c2.5,0,4.2,1.6,4.2,4c0,2.4-1.7,4-4.2,4H333z M338.6,326c0-1.4-0.9-2.5-2.5-2.5h-1.5v5h1.5
			C337.7,328.5,338.6,327.4,338.6,326z"/>
		<path fill="#231F20" d="M344.7,326.8V322h1.7v4.7c0,1.1,0.6,1.9,1.9,1.9s1.9-0.8,1.9-1.9V322h1.7v4.8c0,2-1.2,3.3-3.6,3.3
			S344.7,328.8,344.7,326.8z"/>
		<path fill="#231F20" d="M359,330l-3.8-5.2v5.2h-1.7v-8h1.8l3.7,5v-5h1.7v8H359z"/>
		<path fill="#231F20" d="M362.2,330v-8h3.2c2.5,0,4.2,1.6,4.2,4c0,2.4-1.7,4-4.2,4H362.2z M367.9,326c0-1.4-0.9-2.5-2.5-2.5h-1.5v5
			h1.5C366.9,328.5,367.9,327.4,367.9,326z"/>
		<path fill="#231F20" d="M370.8,330v-8h5.7v1.5h-4v1.7h3.9v1.5h-3.9v1.8h4v1.5H370.8z"/>
		<path fill="#231F20" d="M382.3,330l-1.6-2.8h-1.2v2.8h-1.7v-8h3.7c1.7,0,2.7,1.1,2.7,2.6c0,1.4-0.9,2.2-1.8,2.4l1.8,3H382.3z
			 M382.5,324.6c0-0.7-0.5-1.1-1.2-1.1h-1.8v2.2h1.8C382,325.7,382.5,325.3,382.5,324.6z"/>
		<path fill="#231F20" d="M390.2,330v-5.8l-1.3,1.4l-1-1l2.5-2.5h1.5v8H390.2z"/>
		<path fill="#231F20" d="M393.1,326c0-2.4,1.4-4.1,3.7-4.1c1,0,1.8,0.3,2.4,0.8l-0.8,1.3c-0.4-0.4-0.9-0.6-1.6-0.6
			c-1.2,0-2,1-2,2.3c0,0.1,0,0.1,0,0.2c0.4-0.5,1.2-1,2.1-1c1.4,0,2.7,0.9,2.7,2.6c0,1.6-1.2,2.7-3.1,2.7
			C394.2,330.1,393.1,328.3,393.1,326z M397.9,327.5c0-0.8-0.7-1.2-1.5-1.2c-0.6,0-1.2,0.3-1.6,0.8c0.1,0.8,0.5,1.6,1.6,1.6
			C397.4,328.6,397.9,328,397.9,327.5z"/>
		<path fill="#231F20" d="M403.1,330v-3.3L400,322h1.9l2,3.2l2-3.2h1.9l-3.1,4.7v3.3H403.1z"/>
		<path fill="#231F20" d="M408.6,330v-8h5.7v1.5h-4v1.7h3.9v1.5h-3.9v1.8h4v1.5H408.6z"/>
		<path fill="#231F20" d="M421.1,330l-0.5-1.4h-3.4l-0.5,1.4h-1.9l3.1-8h2.1l3.1,8H421.1z M418.9,323.7l-1.2,3.4h2.5L418.9,323.7z"
			/>
		<path fill="#231F20" d="M428.3,330l-1.6-2.8h-1.2v2.8h-1.7v-8h3.7c1.7,0,2.7,1.1,2.7,2.6c0,1.4-0.9,2.2-1.8,2.4l1.8,3H428.3z
			 M428.5,324.6c0-0.7-0.5-1.1-1.2-1.1h-1.8v2.2h1.8C427.9,325.7,428.5,325.3,428.5,324.6z"/>
		<path fill="#231F20" d="M430.9,328.9l0.9-1.3c0.6,0.6,1.4,1.1,2.5,1.1c0.9,0,1.4-0.4,1.4-0.9c0-1.4-4.6-0.4-4.6-3.5
			c0-1.3,1.2-2.4,3-2.4c1.3,0,2.3,0.4,3.1,1.1l-0.9,1.2c-0.6-0.6-1.5-0.9-2.3-0.9c-0.7,0-1.1,0.3-1.1,0.8c0,1.3,4.6,0.4,4.6,3.4
			c0,1.5-1,2.6-3.2,2.6C432.8,330.1,431.7,329.6,430.9,328.9z"/>
		<path fill="#231F20" d="M441.4,326c0-2.4,1.8-4.1,4.2-4.1c2.4,0,4.2,1.7,4.2,4.1c0,2.4-1.8,4.1-4.2,4.1
			C443.1,330.1,441.4,328.4,441.4,326z M448,326c0-1.5-1-2.6-2.4-2.6c-1.5,0-2.4,1.1-2.4,2.6c0,1.5,0.9,2.6,2.4,2.6
			C447,328.6,448,327.5,448,326z"/>
		<path fill="#231F20" d="M450.9,330v-8h1.7v6.5h3.4v1.5H450.9z"/>
		<path fill="#231F20" d="M457.2,330v-8h3.2c2.5,0,4.2,1.6,4.2,4c0,2.4-1.7,4-4.2,4H457.2z M462.9,326c0-1.4-0.9-2.5-2.5-2.5h-1.5v5
			h1.5C461.9,328.5,462.9,327.4,462.9,326z"/>
	</g>
</g>
<g>
	<polygon points="249.6,380.7 28.1,380.7 27,380.7 27,381.7 37,405.2 37,406.2 38.1,406.2 239.6,406.2 240.7,406.2 240.7,405.2 
		250.7,381.7 250.7,380.7 	"/>
	<polygon fill="#58595B" points="249.6,355.2 28.1,355.2 27,355.2 27,356.2 27,379.7 27,380.7 28.1,380.7 249.6,380.7 250.7,380.7 
		250.7,379.7 250.7,356.2 250.7,355.2 	"/>
	<g>
		<g>
			<path fill="#010101" d="M121,372.5v-8h1.7v8H121z"/>
			<path fill="#010101" d="M128.8,372.5l-1.6-2.8H126v2.8h-1.7v-8h3.7c1.7,0,2.7,1.1,2.7,2.6c0,1.4-0.9,2.2-1.8,2.4l1.8,3H128.8z
				 M129,367.1c0-0.7-0.5-1.1-1.2-1.1H126v2.2h1.8C128.4,368.1,129,367.7,129,367.1z"/>
			<path fill="#010101" d="M134.9,371.4l0.9-1.2c0.5,0.6,1.3,0.9,2.1,0.9c0.9,0,1.5-0.5,1.5-1.2c0-0.7-0.5-1.2-1.4-1.2
				c-0.7,0-1.2,0.2-1.7,0.6l-1.2-0.3v-4.6h5.5v1.5h-3.8v2c0.4-0.4,1-0.7,1.8-0.7c1.4,0,2.6,1,2.6,2.6c0,1.7-1.3,2.8-3.2,2.8
				C136.5,372.6,135.5,372.2,134.9,371.4z"/>
			<path fill="#010101" d="M142.4,371.8l0.8-1.3c0.4,0.4,0.9,0.6,1.6,0.6c1.3,0,2-1.1,2-2.3c0-0.1,0-0.1,0-0.2c-0.4,0.5-1.2,1-2.1,1
				c-1.4,0-2.7-0.9-2.7-2.6c0-1.6,1.2-2.7,3.1-2.7c2.4,0,3.4,1.9,3.4,4.1c0,2.4-1.4,4.1-3.7,4.1
				C143.7,372.6,142.9,372.3,142.4,371.8z M146.7,367.5c-0.1-0.8-0.5-1.6-1.6-1.6c-0.9,0-1.4,0.6-1.4,1.2c0,0.8,0.7,1.2,1.5,1.2
				C145.7,368.2,146.3,368,146.7,367.5z"/>
			<path fill="#010101" d="M149.4,371.4l0.9-1.2c0.5,0.6,1.3,0.9,2.1,0.9c0.9,0,1.5-0.5,1.5-1.2c0-0.7-0.5-1.2-1.4-1.2
				c-0.7,0-1.2,0.2-1.7,0.6l-1.2-0.3v-4.6h5.5v1.5h-3.8v2c0.4-0.4,1-0.7,1.8-0.7c1.4,0,2.6,1,2.6,2.6c0,1.7-1.3,2.8-3.2,2.8
				C151.1,372.6,150.1,372.2,149.4,371.4z"/>
		</g>
		<g>
			<path fill="#FFFFFF" d="M121,372.5v-8h1.7v8H121z"/>
			<path fill="#FFFFFF" d="M128.8,372.5l-1.6-2.8H126v2.8h-1.7v-8h3.7c1.7,0,2.7,1.1,2.7,2.6c0,1.4-0.9,2.2-1.8,2.4l1.8,3H128.8z
				 M129,367.1c0-0.7-0.5-1.1-1.2-1.1H126v2.2h1.8C128.4,368.1,129,367.7,129,367.1z"/>
			<path fill="#FFFFFF" d="M134.9,371.4l0.9-1.2c0.5,0.6,1.3,0.9,2.1,0.9c0.9,0,1.5-0.5,1.5-1.2c0-0.7-0.5-1.2-1.4-1.2
				c-0.7,0-1.2,0.2-1.7,0.6l-1.2-0.3v-4.6h5.5v1.5h-3.8v2c0.4-0.4,1-0.7,1.8-0.7c1.4,0,2.6,1,2.6,2.6c0,1.7-1.3,2.8-3.2,2.8
				C136.5,372.6,135.5,372.2,134.9,371.4z"/>
			<path fill="#FFFFFF" d="M142.4,371.8l0.8-1.3c0.4,0.4,0.9,0.6,1.6,0.6c1.3,0,2-1.1,2-2.3c0-0.1,0-0.1,0-0.2c-0.4,0.5-1.2,1-2.1,1
				c-1.4,0-2.7-0.9-2.7-2.6c0-1.6,1.2-2.7,3.1-2.7c2.4,0,3.4,1.9,3.4,4.1c0,2.4-1.4,4.1-3.7,4.1
				C143.7,372.6,142.9,372.3,142.4,371.8z M146.7,367.5c-0.1-0.8-0.5-1.6-1.6-1.6c-0.9,0-1.4,0.6-1.4,1.2c0,0.8,0.7,1.2,1.5,1.2
				C145.7,368.2,146.3,368,146.7,367.5z"/>
			<path fill="#FFFFFF" d="M149.4,371.4l0.9-1.2c0.5,0.6,1.3,0.9,2.1,0.9c0.9,0,1.5-0.5,1.5-1.2c0-0.7-0.5-1.2-1.4-1.2
				c-0.7,0-1.2,0.2-1.7,0.6l-1.2-0.3v-4.6h5.5v1.5h-3.8v2c0.4-0.4,1-0.7,1.8-0.7c1.4,0,2.6,1,2.6,2.6c0,1.7-1.3,2.8-3.2,2.8
				C151.1,372.6,150.1,372.2,149.4,371.4z"/>
		</g>
	</g>
</g>
<rect x="32.4" y="381" fill="#F5B951" width="212.9" height="49.6"/>
<g>
	<path fill="#010101" d="M92.2,395.9v-5.8l-1.3,1.4l-1-1l2.5-2.5h1.5v8H92.2z"/>
	<path fill="#010101" d="M103.8,395.9l-2-2.9l-2,2.9h-2l2.9-4.1l-2.7-3.9h2l1.8,2.7l1.8-2.7h2.1l-2.7,3.9l2.9,4.1H103.8z"/>
	<path fill="#010101" d="M109.6,395.9v-8h3.2c2.5,0,4.2,1.6,4.2,4c0,2.4-1.7,4-4.2,4H109.6z M115.3,391.9c0-1.4-0.9-2.5-2.5-2.5
		h-1.5v5h1.5C114.4,394.4,115.3,393.3,115.3,391.9z"/>
	<path fill="#010101" d="M117.9,391.9c0-2.4,1.8-4.1,4.2-4.1c2.4,0,4.2,1.7,4.2,4.1c0,2.4-1.8,4.1-4.2,4.1
		C119.6,396.1,117.9,394.3,117.9,391.9z M124.5,391.9c0-1.5-1-2.6-2.4-2.6c-1.5,0-2.4,1.1-2.4,2.6c0,1.5,0.9,2.6,2.4,2.6
		C123.5,394.6,124.5,393.4,124.5,391.9z"/>
	<path fill="#010101" d="M127,391.9c0-2.5,1.9-4.1,4.3-4.1c1.8,0,2.8,1,3.3,2l-1.5,0.7c-0.3-0.6-1.1-1.2-1.9-1.2
		c-1.5,0-2.5,1.1-2.5,2.6c0,1.5,1.1,2.6,2.5,2.6c0.8,0,1.5-0.5,1.9-1.2l1.5,0.7c-0.6,1-1.6,2-3.3,2C128.9,396.1,127,394.4,127,391.9
		z"/>
	<path fill="#010101" d="M135.7,392.7v-4.8h1.7v4.8c0,1.1,0.6,1.9,1.9,1.9s1.9-0.8,1.9-1.9v-4.8h1.7v4.8c0,2-1.2,3.3-3.6,3.3
		S135.7,394.7,135.7,392.7z"/>
	<path fill="#010101" d="M151.4,395.9v-5.6l-2.3,5.6h-0.7l-2.3-5.6v5.6h-1.7v-8h2.4l1.9,4.8l1.9-4.8h2.4v8H151.4z"/>
	<path fill="#010101" d="M154.7,395.9v-8h5.7v1.5h-4v1.7h3.9v1.5h-3.9v1.8h4v1.5H154.7z"/>
	<path fill="#010101" d="M167.2,395.9l-3.8-5.2v5.2h-1.7v-8h1.8l3.7,5v-5h1.7v8H167.2z"/>
	<path fill="#010101" d="M172.3,395.9v-6.5H170v-1.5h6.4v1.5H174v6.5H172.3z"/>
	<path fill="#010101" d="M186,395.9l-0.5-1.4h-3.4l-0.5,1.4h-1.9l3.1-8h2.1l3.1,8H186z M183.8,389.6l-1.2,3.4h2.5L183.8,389.6z"/>
</g>
<rect x="32.4" y="430.6" fill="#E5E5E5" width="212.9" height="130.5"/>
<g>
	<path fill="#010101" d="M70.4,446.6l-0.5-1.4h-3.4l-0.5,1.4H64l3.1-8h2.1l3.1,8H70.4z M68.1,440.3l-1.2,3.4h2.5L68.1,440.3z"/>
	<path fill="#010101" d="M73,446.6v-8h3.7c1.7,0,2.7,1.2,2.7,2.6c0,1.4-1,2.6-2.7,2.6h-2v2.8H73z M77.7,441.1c0-0.7-0.5-1.1-1.2-1.1
		h-1.8v2.2h1.8C77.2,442.2,77.7,441.8,77.7,441.1z"/>
	<path fill="#010101" d="M80.5,446.6v-8h3.7c1.7,0,2.7,1.2,2.7,2.6c0,1.4-1,2.6-2.7,2.6h-2v2.8H80.5z M85.2,441.1
		c0-0.7-0.5-1.1-1.2-1.1h-1.8v2.2h1.8C84.7,442.2,85.2,441.8,85.2,441.1z"/>
	<path fill="#010101" d="M88,446.6v-8h1.7v6.5h3.4v1.5H88z"/>
	<path fill="#010101" d="M94.3,446.6v-8H96v8H94.3z"/>
	<path fill="#010101" d="M97.2,442.6c0-2.5,1.9-4.1,4.3-4.1c1.8,0,2.8,1,3.3,2l-1.5,0.7c-0.3-0.6-1.1-1.2-1.9-1.2
		c-1.5,0-2.5,1.1-2.5,2.6c0,1.5,1.1,2.6,2.5,2.6c0.8,0,1.5-0.5,1.9-1.2l1.5,0.7c-0.6,1-1.6,2-3.3,2C99.1,446.7,97.2,445,97.2,442.6z
		"/>
	<path fill="#010101" d="M111.3,446.6l-0.5-1.4h-3.4l-0.5,1.4h-1.9l3.1-8h2.1l3.1,8H111.3z M109.1,440.3l-1.2,3.4h2.5L109.1,440.3z"
		/>
	<path fill="#010101" d="M119.5,446.6l-3.8-5.2v5.2H114v-8h1.8l3.7,5v-5h1.7v8H119.5z"/>
	<path fill="#010101" d="M124.6,446.6v-6.5h-2.3v-1.5h6.4v1.5h-2.3v6.5H124.6z"/>
	<path fill="#010101" d="M132.8,446.6v-8h1.7v8H132.8z"/>
	<path fill="#010101" d="M141.6,446.6l-3.8-5.2v5.2H136v-8h1.8l3.7,5v-5h1.7v8H141.6z"/>
	<path fill="#010101" d="M144.8,446.6v-8h5.7v1.5h-4v1.7h3.9v1.5h-3.9v3.3H144.8z"/>
	<path fill="#010101" d="M151.3,442.6c0-2.4,1.8-4.1,4.2-4.1c2.4,0,4.2,1.7,4.2,4.1c0,2.4-1.8,4.1-4.2,4.1
		C153,446.7,151.3,445,151.3,442.6z M157.9,442.6c0-1.5-1-2.6-2.4-2.6c-1.5,0-2.4,1.1-2.4,2.6c0,1.5,0.9,2.6,2.4,2.6
		C156.9,445.2,157.9,444.1,157.9,442.6z"/>
	<path fill="#010101" d="M165.3,446.6l-1.6-2.8h-1.2v2.8h-1.7v-8h3.7c1.7,0,2.7,1.1,2.7,2.6c0,1.4-0.9,2.2-1.8,2.4l1.8,3H165.3z
		 M165.5,441.1c0-0.7-0.5-1.1-1.2-1.1h-1.8v2.2h1.8C165,442.2,165.5,441.8,165.5,441.1z"/>
	<path fill="#010101" d="M175.5,446.6V441l-2.3,5.6h-0.7l-2.3-5.6v5.6h-1.7v-8h2.4l1.9,4.8l1.9-4.8h2.4v8H175.5z"/>
	<path fill="#010101" d="M184.3,446.6l-0.5-1.4h-3.4l-0.5,1.4H178l3.1-8h2.1l3.1,8H184.3z M182.1,440.3l-1.2,3.4h2.5L182.1,440.3z"
		/>
	<path fill="#010101" d="M188.1,446.6v-6.5h-2.3v-1.5h6.4v1.5h-2.3v6.5H188.1z"/>
	<path fill="#010101" d="M193.2,446.6v-8h1.7v8H193.2z"/>
	<path fill="#010101" d="M196.1,442.6c0-2.4,1.8-4.1,4.2-4.1c2.4,0,4.2,1.7,4.2,4.1c0,2.4-1.8,4.1-4.2,4.1
		C197.9,446.7,196.1,445,196.1,442.6z M202.7,442.6c0-1.5-1-2.6-2.4-2.6c-1.5,0-2.4,1.1-2.4,2.6c0,1.5,0.9,2.6,2.4,2.6
		C201.8,445.2,202.7,444.1,202.7,442.6z"/>
	<path fill="#010101" d="M211.2,446.6l-3.8-5.2v5.2h-1.7v-8h1.8l3.7,5v-5h1.7v8H211.2z"/>
</g>
<g>
	<path fill="#010101" d="M75.5,470.8l-0.5-1.4h-3.4l-0.5,1.4h-1.9l3.1-8h2.1l3.1,8H75.5z M73.3,464.5l-1.2,3.4h2.5L73.3,464.5z"/>
	<path fill="#010101" d="M78.2,470.8v-8h3.2c2.5,0,4.2,1.6,4.2,4c0,2.4-1.7,4-4.2,4H78.2z M83.9,466.8c0-1.4-0.9-2.5-2.5-2.5h-1.5v5
		h1.5C82.9,469.3,83.9,468.2,83.9,466.8z"/>
	<path fill="#010101" d="M86.8,470.8v-8H90c2.5,0,4.2,1.6,4.2,4c0,2.4-1.7,4-4.2,4H86.8z M92.5,466.8c0-1.4-0.9-2.5-2.5-2.5h-1.5v5
		H90C91.5,469.3,92.5,468.2,92.5,466.8z"/>
	<path fill="#010101" d="M99.9,470.8l-1.6-2.8h-1.2v2.8h-1.7v-8h3.7c1.7,0,2.7,1.1,2.7,2.6c0,1.4-0.9,2.2-1.8,2.4l1.8,3H99.9z
		 M100.1,465.4c0-0.7-0.5-1.1-1.2-1.1h-1.8v2.2h1.8C99.6,466.5,100.1,466.1,100.1,465.4z"/>
	<path fill="#010101" d="M103.1,470.8v-8h5.7v1.5h-4v1.7h3.9v1.5h-3.9v1.8h4v1.5H103.1z"/>
	<path fill="#010101" d="M109.6,469.7l0.9-1.3c0.6,0.6,1.4,1.1,2.5,1.1c0.9,0,1.4-0.4,1.4-0.9c0-1.4-4.6-0.4-4.6-3.5
		c0-1.3,1.2-2.4,3-2.4c1.3,0,2.3,0.4,3.1,1.1l-0.9,1.2c-0.6-0.6-1.5-0.9-2.3-0.9c-0.7,0-1.1,0.3-1.1,0.8c0,1.3,4.6,0.4,4.6,3.4
		c0,1.5-1,2.6-3.2,2.6C111.4,471,110.3,470.4,109.6,469.7z"/>
	<path fill="#010101" d="M116.8,469.7l0.9-1.3c0.6,0.6,1.4,1.1,2.5,1.1c0.9,0,1.4-0.4,1.4-0.9c0-1.4-4.6-0.4-4.6-3.5
		c0-1.3,1.2-2.4,3-2.4c1.3,0,2.3,0.4,3.1,1.1l-0.9,1.2c-0.6-0.6-1.5-0.9-2.3-0.9c-0.7,0-1.1,0.3-1.1,0.8c0,1.3,4.6,0.4,4.6,3.4
		c0,1.5-1,2.6-3.2,2.6C118.6,471,117.5,470.4,116.8,469.7z"/>
	<path fill="#010101" d="M127.6,470.8v-8h1.7v8H127.6z"/>
	<path fill="#010101" d="M136.4,470.8l-3.8-5.2v5.2h-1.7v-8h1.8l3.7,5v-5h1.7v8H136.4z"/>
	<path fill="#010101" d="M139.6,470.8v-8h5.7v1.5h-4v1.7h3.9v1.5h-3.9v3.3H139.6z"/>
	<path fill="#010101" d="M146.1,466.8c0-2.4,1.8-4.1,4.2-4.1c2.4,0,4.2,1.7,4.2,4.1c0,2.4-1.8,4.1-4.2,4.1
		C147.9,471,146.1,469.2,146.1,466.8z M152.7,466.8c0-1.5-1-2.6-2.4-2.6c-1.5,0-2.4,1.1-2.4,2.6c0,1.5,0.9,2.6,2.4,2.6
		C151.8,469.4,152.7,468.3,152.7,466.8z"/>
	<path fill="#010101" d="M160.2,470.8l-1.6-2.8h-1.2v2.8h-1.7v-8h3.7c1.7,0,2.7,1.1,2.7,2.6c0,1.4-0.9,2.2-1.8,2.4l1.8,3H160.2z
		 M160.4,465.4c0-0.7-0.5-1.1-1.2-1.1h-1.8v2.2h1.8C159.9,466.5,160.4,466.1,160.4,465.4z"/>
	<path fill="#010101" d="M170.4,470.8v-5.6l-2.3,5.6h-0.7l-2.3-5.6v5.6h-1.7v-8h2.4l1.9,4.8l1.9-4.8h2.4v8H170.4z"/>
	<path fill="#010101" d="M179.2,470.8l-0.5-1.4h-3.4l-0.5,1.4h-1.9l3.1-8h2.1l3.1,8H179.2z M177,464.5l-1.2,3.4h2.5L177,464.5z"/>
	<path fill="#010101" d="M182.9,470.8v-6.5h-2.3v-1.5h6.4v1.5h-2.3v6.5H182.9z"/>
	<path fill="#010101" d="M188.1,470.8v-8h1.7v8H188.1z"/>
	<path fill="#010101" d="M191,466.8c0-2.4,1.8-4.1,4.2-4.1c2.4,0,4.2,1.7,4.2,4.1c0,2.4-1.8,4.1-4.2,4.1
		C192.7,471,191,469.2,191,466.8z M197.6,466.8c0-1.5-1-2.6-2.4-2.6c-1.5,0-2.4,1.1-2.4,2.6c0,1.5,0.9,2.6,2.4,2.6
		C196.6,469.4,197.6,468.3,197.6,466.8z"/>
	<path fill="#010101" d="M206.1,470.8l-3.8-5.2v5.2h-1.7v-8h1.8l3.7,5v-5h1.7v8H206.1z"/>
</g>
<g>
	<path fill="#010101" d="M52.4,494.8v-6.5H50v-1.5h6.4v1.5h-2.3v6.5H52.4z"/>
	<path fill="#010101" d="M62.3,494.8l-0.5-1.4h-3.4l-0.5,1.4h-1.9l3.1-8h2.1l3.1,8H62.3z M60.1,488.5l-1.2,3.4h2.5L60.1,488.5z"/>
	<path fill="#010101" d="M70.2,494.8l-2-2.9l-2,2.9h-2l2.9-4.1l-2.7-3.9h2l1.8,2.7l1.8-2.7H72l-2.7,3.9l2.9,4.1H70.2z"/>
	<path fill="#010101" d="M76,494.8v-8h5.7v1.5h-4v1.7h3.9v1.5h-3.9v1.8h4v1.5H76z"/>
	<path fill="#010101" d="M88.3,494.8l-2-2.9l-2,2.9h-2l2.9-4.1l-2.7-3.9h2l1.8,2.7l1.8-2.7h2.1l-2.7,3.9l2.9,4.1H88.3z"/>
	<path fill="#010101" d="M91.1,494.8v-8h5.7v1.5h-4v1.7h3.9v1.5h-3.9v1.8h4v1.5H91.1z"/>
	<path fill="#010101" d="M105,494.8v-5.6l-2.3,5.6H102l-2.3-5.6v5.6H98v-8h2.4l1.9,4.8l1.9-4.8h2.4v8H105z"/>
	<path fill="#010101" d="M108.3,494.8v-8h3.7c1.7,0,2.7,1.2,2.7,2.6c0,1.4-1,2.6-2.7,2.6h-2v2.8H108.3z M113,489.4
		c0-0.7-0.5-1.1-1.2-1.1H110v2.2h1.8C112.5,490.5,113,490.1,113,489.4z"/>
	<path fill="#010101" d="M117.6,494.8v-6.5h-2.3v-1.5h6.4v1.5h-2.3v6.5H117.6z"/>
	<path fill="#010101" d="M122.8,494.8v-8h1.7v8H122.8z"/>
	<path fill="#010101" d="M125.7,490.9c0-2.4,1.8-4.1,4.2-4.1c2.4,0,4.2,1.7,4.2,4.1s-1.8,4.1-4.2,4.1
		C127.4,495,125.7,493.3,125.7,490.9z M132.3,490.9c0-1.5-1-2.6-2.4-2.6c-1.5,0-2.4,1.1-2.4,2.6c0,1.5,0.9,2.6,2.4,2.6
		C131.3,493.5,132.3,492.3,132.3,490.9z"/>
	<path fill="#010101" d="M140.8,494.8l-3.8-5.2v5.2h-1.7v-8h1.8l3.7,5v-5h1.7v8H140.8z"/>
	<path fill="#010101" d="M147.1,494.8v-8h1.7v8H147.1z"/>
	<path fill="#010101" d="M155.9,494.8l-3.8-5.2v5.2h-1.7v-8h1.8l3.7,5v-5h1.7v8H155.9z"/>
	<path fill="#010101" d="M159.1,494.8v-8h5.7v1.5h-4v1.7h3.9v1.5h-3.9v3.3H159.1z"/>
	<path fill="#010101" d="M165.6,490.9c0-2.4,1.8-4.1,4.2-4.1c2.4,0,4.2,1.7,4.2,4.1s-1.8,4.1-4.2,4.1
		C167.3,495,165.6,493.3,165.6,490.9z M172.2,490.9c0-1.5-1-2.6-2.4-2.6c-1.5,0-2.4,1.1-2.4,2.6c0,1.5,0.9,2.6,2.4,2.6
		C171.2,493.5,172.2,492.3,172.2,490.9z"/>
	<path fill="#010101" d="M179.7,494.8l-1.6-2.8h-1.2v2.8h-1.7v-8h3.7c1.7,0,2.7,1.1,2.7,2.6c0,1.4-0.9,2.2-1.8,2.4l1.8,3H179.7z
		 M179.8,489.4c0-0.7-0.5-1.1-1.2-1.1h-1.8v2.2h1.8C179.3,490.5,179.8,490.1,179.8,489.4z"/>
	<path fill="#010101" d="M189.8,494.8v-5.6l-2.3,5.6h-0.7l-2.3-5.6v5.6h-1.7v-8h2.4l1.9,4.8l1.9-4.8h2.4v8H189.8z"/>
	<path fill="#010101" d="M198.6,494.8l-0.5-1.4h-3.4l-0.5,1.4h-1.9l3.1-8h2.1l3.1,8H198.6z M196.4,488.5l-1.2,3.4h2.5L196.4,488.5z"
		/>
	<path fill="#010101" d="M202.4,494.8v-6.5h-2.3v-1.5h6.4v1.5h-2.3v6.5H202.4z"/>
	<path fill="#010101" d="M207.5,494.8v-8h1.7v8H207.5z"/>
	<path fill="#010101" d="M210.4,490.9c0-2.4,1.8-4.1,4.2-4.1c2.4,0,4.2,1.7,4.2,4.1s-1.8,4.1-4.2,4.1
		C212.2,495,210.4,493.3,210.4,490.9z M217,490.9c0-1.5-1-2.6-2.4-2.6c-1.5,0-2.4,1.1-2.4,2.6c0,1.5,0.9,2.6,2.4,2.6
		C216.1,493.5,217,492.3,217,490.9z"/>
	<path fill="#010101" d="M225.5,494.8l-3.8-5.2v5.2H220v-8h1.8l3.7,5v-5h1.7v8H225.5z"/>
</g>
<g>
	<path fill="#010101" d="M98.8,546.8v-8h3.2c2.5,0,4.2,1.6,4.2,4c0,2.4-1.7,4-4.2,4H98.8z M104.5,542.8c0-1.4-0.9-2.5-2.5-2.5h-1.5
		v5h1.5C103.5,545.3,104.5,544.1,104.5,542.8z"/>
	<path fill="#010101" d="M107.4,546.8v-8h5.7v1.5h-4v1.7h3.9v1.5h-3.9v1.8h4v1.5H107.4z"/>
	<path fill="#010101" d="M114,542.8c0-2.5,1.9-4.1,4.3-4.1c1.8,0,2.8,1,3.3,2l-1.5,0.7c-0.3-0.6-1.1-1.2-1.9-1.2
		c-1.5,0-2.5,1.1-2.5,2.6c0,1.5,1.1,2.6,2.5,2.6c0.8,0,1.5-0.5,1.9-1.2l1.5,0.7c-0.6,1-1.6,2-3.3,2C115.9,546.9,114,545.2,114,542.8
		z"/>
	<path fill="#010101" d="M122.6,546.8v-8h1.7v6.5h3.4v1.5H122.6z"/>
	<path fill="#010101" d="M134.4,546.8l-0.5-1.4h-3.4l-0.5,1.4h-1.9l3.1-8h2.1l3.1,8H134.4z M132.2,540.5l-1.2,3.4h2.5L132.2,540.5z"
		/>
	<path fill="#010101" d="M141.7,546.8l-1.6-2.8h-1.2v2.8h-1.7v-8h3.7c1.7,0,2.7,1.1,2.7,2.6c0,1.4-0.9,2.2-1.8,2.4l1.8,3H141.7z
		 M141.8,541.3c0-0.7-0.5-1.1-1.2-1.1h-1.8v2.2h1.8C141.3,542.4,141.8,542,141.8,541.3z"/>
	<path fill="#010101" d="M150.4,546.8l-0.5-1.4h-3.4l-0.5,1.4H144l3.1-8h2.1l3.1,8H150.4z M148.2,540.5l-1.2,3.4h2.5L148.2,540.5z"
		/>
	<path fill="#010101" d="M154.1,546.8v-6.5h-2.3v-1.5h6.4v1.5h-2.3v6.5H154.1z"/>
	<path fill="#010101" d="M159.3,546.8v-8h1.7v8H159.3z"/>
	<path fill="#010101" d="M162.2,542.8c0-2.4,1.8-4.1,4.2-4.1c2.4,0,4.2,1.7,4.2,4.1c0,2.4-1.8,4.1-4.2,4.1
		C163.9,546.9,162.2,545.2,162.2,542.8z M168.8,542.8c0-1.5-1-2.6-2.4-2.6c-1.5,0-2.4,1.1-2.4,2.6c0,1.5,0.9,2.6,2.4,2.6
		C167.8,545.4,168.8,544.3,168.8,542.8z"/>
	<path fill="#010101" d="M177.3,546.8l-3.8-5.2v5.2h-1.7v-8h1.8l3.7,5v-5h1.7v8H177.3z"/>
</g>
<g>
	<path fill="#010101" d="M92.3,421v-5.8l-1.3,1.4l-1-1l2.5-2.5H94v8H92.3z"/>
	<path fill="#010101" d="M103.9,421l-2-2.9l-2,2.9h-2l2.9-4.1L98,413h2l1.8,2.7l1.8-2.7h2.1l-2.7,3.9l2.9,4.1H103.9z"/>
	<path fill="#010101" d="M109.8,421v-8h3.2c2.5,0,4.2,1.6,4.2,4s-1.7,4-4.2,4H109.8z M115.4,417c0-1.4-0.9-2.5-2.5-2.5h-1.5v5h1.5
		C114.5,419.5,115.4,418.4,115.4,417z"/>
	<path fill="#010101" d="M118,417c0-2.4,1.8-4.1,4.2-4.1c2.4,0,4.2,1.7,4.2,4.1s-1.8,4.1-4.2,4.1C119.8,421.2,118,419.5,118,417z
		 M124.6,417c0-1.5-1-2.6-2.4-2.6c-1.5,0-2.4,1.1-2.4,2.6c0,1.5,0.9,2.6,2.4,2.6C123.6,419.7,124.6,418.5,124.6,417z"/>
	<path fill="#010101" d="M127.2,417c0-2.5,1.9-4.1,4.3-4.1c1.8,0,2.8,1,3.3,2l-1.5,0.7c-0.3-0.6-1.1-1.2-1.9-1.2
		c-1.5,0-2.5,1.1-2.5,2.6s1.1,2.6,2.5,2.6c0.8,0,1.5-0.5,1.9-1.2l1.5,0.7c-0.6,1-1.6,2-3.3,2C129,421.2,127.2,419.5,127.2,417z"/>
	<path fill="#010101" d="M135.8,417.8V413h1.7v4.8c0,1.1,0.6,1.9,1.9,1.9s1.9-0.8,1.9-1.9V413h1.7v4.8c0,2-1.2,3.3-3.6,3.3
		S135.8,419.8,135.8,417.8z"/>
	<path fill="#010101" d="M151.6,421v-5.6l-2.3,5.6h-0.7l-2.3-5.6v5.6h-1.7v-8h2.4l1.9,4.8l1.9-4.8h2.4v8H151.6z"/>
	<path fill="#010101" d="M154.9,421v-8h5.7v1.5h-4v1.7h3.9v1.5h-3.9v1.8h4v1.5H154.9z"/>
	<path fill="#010101" d="M167.4,421l-3.8-5.2v5.2h-1.7v-8h1.8l3.7,5v-5h1.7v8H167.4z"/>
	<path fill="#010101" d="M172.4,421v-6.5h-2.3V413h6.4v1.5h-2.3v6.5H172.4z"/>
	<path fill="#010101" d="M180.7,421v-8h4.2c1.5,0,2.3,1,2.3,2c0,1-0.6,1.7-1.4,1.8c0.9,0.1,1.5,1,1.5,2c0,1.2-0.8,2.2-2.3,2.2H180.7
		z M185.4,415.4c0-0.5-0.4-0.9-0.9-0.9h-2.1v1.7h2.1C185.1,416.2,185.4,415.9,185.4,415.4z M185.6,418.6c0-0.5-0.4-0.9-1-0.9h-2.2
		v1.9h2.2C185.2,419.6,185.6,419.2,185.6,418.6z"/>
</g>
<line fill="none" stroke="#FFFFFF" stroke-miterlimit="10" x1="58.4" y1="403.6" x2="219.3" y2="403.6"/>
<line fill="none" stroke="#FFFFFF" stroke-miterlimit="10" x1="58.4" y1="454.9" x2="219.3" y2="454.9"/>
<line fill="none" stroke="#FFFFFF" stroke-miterlimit="10" x1="58.4" y1="479.4" x2="219.3" y2="479.4"/>
<line fill="none" stroke="#FFFFFF" stroke-miterlimit="10" x1="58.4" y1="503.4" x2="219.3" y2="503.4"/>
<rect x="272.2" y="458.6" fill="#E5E5E5" width="212.9" height="102.5"/>
<g>
	<path fill="#010101" d="M310.1,474.5l-0.5-1.4h-3.4l-0.5,1.4h-1.9l3.1-8h2.1l3.1,8H310.1z M307.9,468.2l-1.2,3.4h2.5L307.9,468.2z"
		/>
	<path fill="#010101" d="M312.8,474.5v-8h3.7c1.7,0,2.7,1.2,2.7,2.6c0,1.4-1,2.6-2.7,2.6h-2v2.8H312.8z M317.5,469.1
		c0-0.7-0.5-1.1-1.2-1.1h-1.8v2.2h1.8C317,470.2,317.5,469.8,317.5,469.1z"/>
	<path fill="#010101" d="M320.3,474.5v-8h3.7c1.7,0,2.7,1.2,2.7,2.6c0,1.4-1,2.6-2.7,2.6h-2v2.8H320.3z M325,469.1
		c0-0.7-0.5-1.1-1.2-1.1H322v2.2h1.8C324.5,470.2,325,469.8,325,469.1z"/>
	<path fill="#010101" d="M327.8,474.5v-8h1.7v6.5h3.4v1.5H327.8z"/>
	<path fill="#010101" d="M334.1,474.5v-8h1.7v8H334.1z"/>
	<path fill="#010101" d="M337,470.5c0-2.5,1.9-4.1,4.3-4.1c1.8,0,2.8,1,3.3,2l-1.5,0.7c-0.3-0.6-1.1-1.2-1.9-1.2
		c-1.5,0-2.5,1.1-2.5,2.6c0,1.5,1.1,2.6,2.5,2.6c0.8,0,1.5-0.5,1.9-1.2l1.5,0.7c-0.6,1-1.6,2-3.3,2C338.8,474.7,337,473,337,470.5z"
		/>
	<path fill="#010101" d="M351,474.5l-0.5-1.4h-3.4l-0.5,1.4h-1.9l3.1-8h2.1l3.1,8H351z M348.8,468.2l-1.2,3.4h2.5L348.8,468.2z"/>
	<path fill="#010101" d="M359.2,474.5l-3.8-5.2v5.2h-1.7v-8h1.8l3.7,5v-5h1.7v8H359.2z"/>
	<path fill="#010101" d="M364.3,474.5V468H362v-1.5h6.4v1.5H366v6.5H364.3z"/>
	<path fill="#010101" d="M372.5,474.5v-8h1.7v8H372.5z"/>
	<path fill="#010101" d="M381.3,474.5l-3.8-5.2v5.2h-1.7v-8h1.8l3.7,5v-5h1.7v8H381.3z"/>
	<path fill="#010101" d="M384.6,474.5v-8h5.7v1.5h-4v1.7h3.9v1.5h-3.9v3.3H384.6z"/>
	<path fill="#010101" d="M391,470.5c0-2.4,1.8-4.1,4.2-4.1c2.4,0,4.2,1.7,4.2,4.1c0,2.4-1.8,4.1-4.2,4.1
		C392.8,474.7,391,472.9,391,470.5z M397.6,470.5c0-1.5-1-2.6-2.4-2.6c-1.5,0-2.4,1.1-2.4,2.6c0,1.5,0.9,2.6,2.4,2.6
		C396.7,473.2,397.6,472,397.6,470.5z"/>
	<path fill="#010101" d="M405.1,474.5l-1.6-2.8h-1.2v2.8h-1.7v-8h3.7c1.7,0,2.7,1.1,2.7,2.6c0,1.4-0.9,2.2-1.8,2.4l1.8,3H405.1z
		 M405.3,469.1c0-0.7-0.5-1.1-1.2-1.1h-1.8v2.2h1.8C404.8,470.2,405.3,469.8,405.3,469.1z"/>
	<path fill="#010101" d="M415.3,474.5v-5.6l-2.3,5.6h-0.7l-2.3-5.6v5.6h-1.7v-8h2.4l1.9,4.8l1.9-4.8h2.4v8H415.3z"/>
	<path fill="#010101" d="M424.1,474.5l-0.5-1.4h-3.4l-0.5,1.4h-1.9l3.1-8h2.1l3.1,8H424.1z M421.9,468.2l-1.2,3.4h2.5L421.9,468.2z"
		/>
	<path fill="#010101" d="M427.9,474.5V468h-2.3v-1.5h6.4v1.5h-2.3v6.5H427.9z"/>
	<path fill="#010101" d="M433,474.5v-8h1.7v8H433z"/>
	<path fill="#010101" d="M435.9,470.5c0-2.4,1.8-4.1,4.2-4.1c2.4,0,4.2,1.7,4.2,4.1c0,2.4-1.8,4.1-4.2,4.1
		C437.7,474.7,435.9,472.9,435.9,470.5z M442.5,470.5c0-1.5-1-2.6-2.4-2.6c-1.5,0-2.4,1.1-2.4,2.6c0,1.5,0.9,2.6,2.4,2.6
		C441.6,473.2,442.5,472,442.5,470.5z"/>
	<path fill="#010101" d="M451,474.5l-3.8-5.2v5.2h-1.7v-8h1.8l3.7,5v-5h1.7v8H451z"/>
</g>
<rect x="516.1" y="380" fill="#E5E5E5" width="212.9" height="181.1"/>
<g>
	<path fill="#010101" d="M577.8,396.9l-0.5-1.4h-3.4l-0.5,1.4h-1.9l3.1-8h2.1l3.1,8H577.8z M575.5,390.6l-1.2,3.4h2.5L575.5,390.6z"
		/>
	<path fill="#010101" d="M580.4,396.9v-8h3.7c1.7,0,2.7,1.2,2.7,2.6c0,1.4-1,2.6-2.7,2.6h-2v2.8H580.4z M585.1,391.5
		c0-0.7-0.5-1.1-1.2-1.1h-1.8v2.2h1.8C584.6,392.6,585.1,392.2,585.1,391.5z"/>
	<path fill="#010101" d="M587.9,396.9v-8h3.7c1.7,0,2.7,1.2,2.7,2.6c0,1.4-1,2.6-2.7,2.6h-2v2.8H587.9z M592.6,391.5
		c0-0.7-0.5-1.1-1.2-1.1h-1.8v2.2h1.8C592.1,392.6,592.6,392.2,592.6,391.5z"/>
	<path fill="#010101" d="M595.4,396.9v-8h1.7v6.5h3.4v1.5H595.4z"/>
	<path fill="#010101" d="M601.7,396.9v-8h1.7v8H601.7z"/>
	<path fill="#010101" d="M604.6,392.9c0-2.5,1.9-4.1,4.3-4.1c1.8,0,2.8,1,3.3,2l-1.5,0.7c-0.3-0.6-1.1-1.2-1.9-1.2
		c-1.5,0-2.5,1.1-2.5,2.6c0,1.5,1.1,2.6,2.5,2.6c0.8,0,1.5-0.5,1.9-1.2l1.5,0.7c-0.6,1-1.6,2-3.3,2
		C606.5,397.1,604.6,395.4,604.6,392.9z"/>
	<path fill="#010101" d="M618.7,396.9l-0.5-1.4h-3.4l-0.5,1.4h-1.9l3.1-8h2.1l3.1,8H618.7z M616.5,390.6l-1.2,3.4h2.5L616.5,390.6z"
		/>
	<path fill="#010101" d="M626.9,396.9l-3.8-5.2v5.2h-1.7v-8h1.8l3.7,5v-5h1.7v8H626.9z"/>
	<path fill="#010101" d="M631.9,396.9v-6.5h-2.3v-1.5h6.4v1.5h-2.3v6.5H631.9z"/>
	<path fill="#010101" d="M645.7,396.9l-3.8-5.2v5.2h-1.7v-8h1.8l3.7,5v-5h1.7v8H645.7z"/>
	<path fill="#010101" d="M654.4,396.9l-0.5-1.4h-3.4l-0.5,1.4h-1.9l3.1-8h2.1l3.1,8H654.4z M652.2,390.6l-1.2,3.4h2.5L652.2,390.6z"
		/>
	<path fill="#010101" d="M664.1,396.9v-5.6l-2.3,5.6h-0.7l-2.3-5.6v5.6h-1.7v-8h2.4l1.9,4.8l1.9-4.8h2.4v8H664.1z"/>
	<path fill="#010101" d="M667.4,396.9v-8h5.7v1.5h-4v1.7h3.9v1.5h-3.9v1.8h4v1.5H667.4z"/>
</g>
<g>
	<path fill="#010101" d="M582.3,421v-8h5.7v1.5h-4v1.7h3.9v1.5H584v3.3H582.3z"/>
	<path fill="#010101" d="M588.8,417c0-2.4,1.8-4.1,4.2-4.1c2.4,0,4.2,1.7,4.2,4.1s-1.8,4.1-4.2,4.1
		C590.6,421.2,588.8,419.5,588.8,417z M595.4,417c0-1.5-1-2.6-2.4-2.6c-1.5,0-2.4,1.1-2.4,2.6c0,1.5,0.9,2.6,2.4,2.6
		C594.5,419.7,595.4,418.5,595.4,417z"/>
	<path fill="#010101" d="M602.9,421l-1.6-2.8h-1.2v2.8h-1.7v-8h3.7c1.7,0,2.7,1.1,2.7,2.6c0,1.4-0.9,2.2-1.8,2.4l1.8,3H602.9z
		 M603.1,415.6c0-0.7-0.5-1.1-1.2-1.1h-1.8v2.2h1.8C602.5,416.7,603.1,416.3,603.1,415.6z"/>
	<path fill="#010101" d="M609.2,421v-8h4.2c1.5,0,2.3,1,2.3,2c0,1-0.6,1.7-1.4,1.8c0.9,0.1,1.5,1,1.5,2c0,1.2-0.8,2.2-2.3,2.2H609.2
		z M613.9,415.4c0-0.5-0.4-0.9-0.9-0.9h-2.1v1.7h2.1C613.6,416.2,613.9,415.9,613.9,415.4z M614.1,418.6c0-0.5-0.4-0.9-1-0.9h-2.2
		v1.9h2.2C613.7,419.6,614.1,419.2,614.1,418.6z"/>
	<path fill="#010101" d="M621.6,421l-1.6-2.8h-1.2v2.8h-1.7v-8h3.7c1.7,0,2.7,1.1,2.7,2.6c0,1.4-0.9,2.2-1.8,2.4l1.8,3H621.6z
		 M621.8,415.6c0-0.7-0.5-1.1-1.2-1.1h-1.8v2.2h1.8C621.3,416.7,621.8,416.3,621.8,415.6z"/>
	<path fill="#010101" d="M630.3,421l-0.5-1.4h-3.4l-0.5,1.4H624l3.1-8h2.1l3.1,8H630.3z M628.1,414.7l-1.2,3.4h2.5L628.1,414.7z"/>
	<path fill="#010101" d="M638.6,421l-3.8-5.2v5.2H633v-8h1.8l3.7,5v-5h1.7v8H638.6z"/>
	<path fill="#010101" d="M641.4,417c0-2.5,1.9-4.1,4.3-4.1c1.8,0,2.8,1,3.3,2l-1.5,0.7c-0.3-0.6-1.1-1.2-1.9-1.2
		c-1.5,0-2.5,1.1-2.5,2.6s1.1,2.6,2.5,2.6c0.8,0,1.5-0.5,1.9-1.2l1.5,0.7c-0.6,1-1.6,2-3.3,2C643.3,421.2,641.4,419.5,641.4,417z"/>
	<path fill="#010101" d="M655.5,421v-3.4h-3.8v3.4H650v-8h1.7v3.1h3.8V413h1.7v8H655.5z"/>
	<path fill="#010101" d="M659.7,417.5c0-1.4,1.8-1.6,1.8-2.4c0-0.4-0.3-0.7-0.9-0.7c-0.6,0-1.1,0.3-1.5,0.7l-1-1.1
		c0.6-0.7,1.6-1.2,2.6-1.2c1.5,0,2.5,0.8,2.5,1.9c0,1.8-2,1.9-2,2.9c0,0.2,0.1,0.4,0.2,0.5l-1.3,0.4
		C659.9,418.3,659.7,418,659.7,417.5z M659.7,420.2c0-0.5,0.4-1,1-1c0.5,0,1,0.4,1,1s-0.4,1-1,1
		C660.2,421.2,659.7,420.7,659.7,420.2z"/>
</g>
<g>
	<path fill="#010101" d="M601.5,446.9l-0.5-1.4h-3.4l-0.5,1.4h-1.9l3.1-8h2.1l3.1,8H601.5z M599.3,440.6l-1.2,3.4h2.5L599.3,440.6z"
		/>
	<path fill="#010101" d="M604.2,446.9v-8h3.2c2.5,0,4.2,1.6,4.2,4c0,2.4-1.7,4-4.2,4H604.2z M609.9,442.9c0-1.4-0.9-2.5-2.5-2.5
		h-1.5v5h1.5C609,445.4,609.9,444.3,609.9,442.9z"/>
	<path fill="#010101" d="M612.9,446.9v-8h3.2c2.5,0,4.2,1.6,4.2,4c0,2.4-1.7,4-4.2,4H612.9z M618.5,442.9c0-1.4-0.9-2.5-2.5-2.5
		h-1.5v5h1.5C617.6,445.4,618.5,444.3,618.5,442.9z"/>
	<path fill="#010101" d="M626,446.9l-1.6-2.8h-1.2v2.8h-1.7v-8h3.7c1.7,0,2.7,1.1,2.7,2.6c0,1.4-0.9,2.2-1.8,2.4l1.8,3H626z
		 M626.2,441.5c0-0.7-0.5-1.1-1.2-1.1h-1.8v2.2h1.8C625.6,442.6,626.2,442.1,626.2,441.5z"/>
	<path fill="#010101" d="M629.2,446.9v-8h5.7v1.5h-4v1.7h3.9v1.5h-3.9v1.8h4v1.5H629.2z"/>
	<path fill="#010101" d="M635.6,445.8l0.9-1.3c0.6,0.6,1.4,1.1,2.5,1.1c0.9,0,1.4-0.4,1.4-0.9c0-1.4-4.6-0.4-4.6-3.5
		c0-1.3,1.2-2.4,3-2.4c1.3,0,2.3,0.4,3.1,1.1l-0.9,1.2c-0.6-0.6-1.5-0.9-2.3-0.9c-0.7,0-1.1,0.3-1.1,0.8c0,1.3,4.6,0.4,4.6,3.4
		c0,1.5-1,2.6-3.2,2.6C637.5,447,636.4,446.5,635.6,445.8z"/>
	<path fill="#010101" d="M642.8,445.8l0.9-1.3c0.6,0.6,1.4,1.1,2.5,1.1c0.9,0,1.4-0.4,1.4-0.9c0-1.4-4.6-0.4-4.6-3.5
		c0-1.3,1.2-2.4,3-2.4c1.3,0,2.3,0.4,3.1,1.1l-0.9,1.2c-0.6-0.6-1.5-0.9-2.3-0.9c-0.7,0-1.1,0.3-1.1,0.8c0,1.3,4.6,0.4,4.6,3.4
		c0,1.5-1,2.6-3.2,2.6C644.7,447,643.6,446.5,642.8,445.8z"/>
</g>
<g>
	<path fill="#010101" d="M315.3,498.8l-0.5-1.4h-3.4l-0.5,1.4h-1.9l3.1-8h2.1l3.1,8H315.3z M313.1,492.5l-1.2,3.4h2.5L313.1,492.5z"
		/>
	<path fill="#010101" d="M318,498.8v-8h3.2c2.5,0,4.2,1.6,4.2,4c0,2.4-1.7,4-4.2,4H318z M323.6,494.8c0-1.4-0.9-2.5-2.5-2.5h-1.5v5
		h1.5C322.7,497.3,323.6,496.2,323.6,494.8z"/>
	<path fill="#010101" d="M326.6,498.8v-8h3.2c2.5,0,4.2,1.6,4.2,4c0,2.4-1.7,4-4.2,4H326.6z M332.2,494.8c0-1.4-0.9-2.5-2.5-2.5
		h-1.5v5h1.5C331.3,497.3,332.2,496.2,332.2,494.8z"/>
	<path fill="#010101" d="M339.7,498.8l-1.6-2.8h-1.2v2.8h-1.7v-8h3.7c1.7,0,2.7,1.1,2.7,2.6c0,1.4-0.9,2.2-1.8,2.4l1.8,3H339.7z
		 M339.9,493.4c0-0.7-0.5-1.1-1.2-1.1h-1.8v2.2h1.8C339.4,494.4,339.9,494,339.9,493.4z"/>
	<path fill="#010101" d="M342.9,498.8v-8h5.7v1.5h-4v1.7h3.9v1.5h-3.9v1.8h4v1.5H342.9z"/>
	<path fill="#010101" d="M349.4,497.7l0.9-1.3c0.6,0.6,1.4,1.1,2.5,1.1c0.9,0,1.4-0.4,1.4-0.9c0-1.4-4.6-0.4-4.6-3.5
		c0-1.3,1.2-2.4,3-2.4c1.3,0,2.3,0.4,3.1,1.1l-0.9,1.2c-0.6-0.6-1.5-0.9-2.3-0.9c-0.7,0-1.1,0.3-1.1,0.8c0,1.3,4.6,0.4,4.6,3.4
		c0,1.5-1,2.6-3.2,2.6C351.2,498.9,350.1,498.4,349.4,497.7z"/>
	<path fill="#010101" d="M356.6,497.7l0.9-1.3c0.6,0.6,1.4,1.1,2.5,1.1c0.9,0,1.4-0.4,1.4-0.9c0-1.4-4.6-0.4-4.6-3.5
		c0-1.3,1.2-2.4,3-2.4c1.3,0,2.3,0.4,3.1,1.1L362,493c-0.6-0.6-1.5-0.9-2.3-0.9c-0.7,0-1.1,0.3-1.1,0.8c0,1.3,4.6,0.4,4.6,3.4
		c0,1.5-1,2.6-3.2,2.6C358.4,498.9,357.3,498.4,356.6,497.7z"/>
	<path fill="#010101" d="M367.4,498.8v-8h1.7v8H367.4z"/>
	<path fill="#010101" d="M376.2,498.8l-3.8-5.2v5.2h-1.7v-8h1.8l3.7,5v-5h1.7v8H376.2z"/>
	<path fill="#010101" d="M379.4,498.8v-8h5.7v1.5h-4v1.7h3.9v1.5h-3.9v3.3H379.4z"/>
	<path fill="#010101" d="M385.9,494.8c0-2.4,1.8-4.1,4.2-4.1c2.4,0,4.2,1.7,4.2,4.1c0,2.4-1.8,4.1-4.2,4.1
		C387.7,498.9,385.9,497.2,385.9,494.8z M392.5,494.8c0-1.5-1-2.6-2.4-2.6c-1.5,0-2.4,1.1-2.4,2.6c0,1.5,0.9,2.6,2.4,2.6
		C391.5,497.4,392.5,496.3,392.5,494.8z"/>
	<path fill="#010101" d="M400,498.8l-1.6-2.8h-1.2v2.8h-1.7v-8h3.7c1.7,0,2.7,1.1,2.7,2.6c0,1.4-0.9,2.2-1.8,2.4l1.8,3H400z
		 M400.1,493.4c0-0.7-0.5-1.1-1.2-1.1h-1.8v2.2h1.8C399.6,494.4,400.1,494,400.1,493.4z"/>
	<path fill="#010101" d="M410.1,498.8v-5.6l-2.3,5.6h-0.7l-2.3-5.6v5.6h-1.7v-8h2.4l1.9,4.8l1.9-4.8h2.4v8H410.1z"/>
	<path fill="#010101" d="M418.9,498.8l-0.5-1.4H415l-0.5,1.4h-1.9l3.1-8h2.1l3.1,8H418.9z M416.7,492.5l-1.2,3.4h2.5L416.7,492.5z"
		/>
	<path fill="#010101" d="M422.7,498.8v-6.5h-2.3v-1.5h6.4v1.5h-2.3v6.5H422.7z"/>
	<path fill="#010101" d="M427.9,498.8v-8h1.7v8H427.9z"/>
	<path fill="#010101" d="M430.8,494.8c0-2.4,1.8-4.1,4.2-4.1c2.4,0,4.2,1.7,4.2,4.1c0,2.4-1.8,4.1-4.2,4.1
		C432.5,498.9,430.8,497.2,430.8,494.8z M437.4,494.8c0-1.5-1-2.6-2.4-2.6c-1.5,0-2.4,1.1-2.4,2.6c0,1.5,0.9,2.6,2.4,2.6
		C436.4,497.4,437.4,496.3,437.4,494.8z"/>
	<path fill="#010101" d="M445.8,498.8l-3.8-5.2v5.2h-1.7v-8h1.8l3.7,5v-5h1.7v8H445.8z"/>
</g>
<g>
	<path fill="#010101" d="M292.2,522.8v-6.5h-2.3v-1.5h6.4v1.5h-2.3v6.5H292.2z"/>
	<path fill="#010101" d="M302,522.8l-0.5-1.4h-3.4l-0.5,1.4h-1.9l3.1-8h2.1l3.1,8H302z M299.8,516.5l-1.2,3.4h2.5L299.8,516.5z"/>
	<path fill="#010101" d="M309.9,522.8l-2-2.9l-2,2.9h-2l2.9-4.1l-2.7-3.9h2l1.8,2.7l1.8-2.7h2.1l-2.7,3.9l2.9,4.1H309.9z"/>
	<path fill="#010101" d="M315.8,522.8v-8h5.7v1.5h-4v1.7h3.9v1.5h-3.9v1.8h4v1.5H315.8z"/>
	<path fill="#010101" d="M328,522.8l-2-2.9l-2,2.9h-2l2.9-4.1l-2.7-3.9h2l1.8,2.7l1.8-2.7h2.1l-2.7,3.9l2.9,4.1H328z"/>
	<path fill="#010101" d="M330.8,522.8v-8h5.7v1.5h-4v1.7h3.9v1.5h-3.9v1.8h4v1.5H330.8z"/>
	<path fill="#010101" d="M344.8,522.8v-5.6l-2.3,5.6h-0.7l-2.3-5.6v5.6h-1.7v-8h2.4l1.9,4.8l1.9-4.8h2.4v8H344.8z"/>
	<path fill="#010101" d="M348.1,522.8v-8h3.7c1.7,0,2.7,1.2,2.7,2.6c0,1.4-1,2.6-2.7,2.6h-2v2.8H348.1z M352.8,517.4
		c0-0.7-0.5-1.1-1.2-1.1h-1.8v2.2h1.8C352.3,518.5,352.8,518.1,352.8,517.4z"/>
	<path fill="#010101" d="M357.4,522.8v-6.5h-2.3v-1.5h6.4v1.5h-2.3v6.5H357.4z"/>
	<path fill="#010101" d="M362.6,522.8v-8h1.7v8H362.6z"/>
	<path fill="#010101" d="M365.5,518.8c0-2.4,1.8-4.1,4.2-4.1c2.4,0,4.2,1.7,4.2,4.1c0,2.4-1.8,4.1-4.2,4.1
		C367.2,523,365.5,521.2,365.5,518.8z M372.1,518.8c0-1.5-1-2.6-2.4-2.6c-1.5,0-2.4,1.1-2.4,2.6c0,1.5,0.9,2.6,2.4,2.6
		C371.1,521.5,372.1,520.3,372.1,518.8z"/>
	<path fill="#010101" d="M380.5,522.8l-3.8-5.2v5.2H375v-8h1.8l3.7,5v-5h1.7v8H380.5z"/>
	<path fill="#010101" d="M386.8,522.8v-8h1.7v8H386.8z"/>
	<path fill="#010101" d="M395.6,522.8l-3.8-5.2v5.2h-1.7v-8h1.8l3.7,5v-5h1.7v8H395.6z"/>
	<path fill="#010101" d="M398.9,522.8v-8h5.7v1.5h-4v1.7h3.9v1.5h-3.9v3.3H398.9z"/>
	<path fill="#010101" d="M405.3,518.8c0-2.4,1.8-4.1,4.2-4.1c2.4,0,4.2,1.7,4.2,4.1c0,2.4-1.8,4.1-4.2,4.1
		C407.1,523,405.3,521.2,405.3,518.8z M412,518.8c0-1.5-1-2.6-2.4-2.6c-1.5,0-2.4,1.1-2.4,2.6c0,1.5,0.9,2.6,2.4,2.6
		C411,521.5,412,520.3,412,518.8z"/>
	<path fill="#010101" d="M419.4,522.8l-1.6-2.8h-1.2v2.8h-1.7v-8h3.7c1.7,0,2.7,1.1,2.7,2.6c0,1.4-0.9,2.2-1.8,2.4l1.8,3H419.4z
		 M419.6,517.4c0-0.7-0.5-1.1-1.2-1.1h-1.8v2.2h1.8C419.1,518.5,419.6,518.1,419.6,517.4z"/>
	<path fill="#010101" d="M429.6,522.8v-5.6l-2.3,5.6h-0.7l-2.3-5.6v5.6h-1.7v-8h2.4l1.9,4.8l1.9-4.8h2.4v8H429.6z"/>
	<path fill="#010101" d="M438.4,522.8l-0.5-1.4h-3.4l-0.5,1.4H432l3.1-8h2.1l3.1,8H438.4z M436.2,516.5l-1.2,3.4h2.5L436.2,516.5z"
		/>
	<path fill="#010101" d="M442.2,522.8v-6.5h-2.3v-1.5h6.4v1.5h-2.3v6.5H442.2z"/>
	<path fill="#010101" d="M447.3,522.8v-8h1.7v8H447.3z"/>
	<path fill="#010101" d="M450.2,518.8c0-2.4,1.8-4.1,4.2-4.1c2.4,0,4.2,1.7,4.2,4.1c0,2.4-1.8,4.1-4.2,4.1
		C452,523,450.2,521.2,450.2,518.8z M456.8,518.8c0-1.5-1-2.6-2.4-2.6c-1.5,0-2.4,1.1-2.4,2.6c0,1.5,0.9,2.6,2.4,2.6
		C455.9,521.5,456.8,520.3,456.8,518.8z"/>
	<path fill="#010101" d="M465.3,522.8l-3.8-5.2v5.2h-1.7v-8h1.8l3.7,5v-5h1.7v8H465.3z"/>
</g>
<g>
	<path fill="#010101" d="M338.6,546.8v-8h3.2c2.5,0,4.2,1.6,4.2,4c0,2.4-1.7,4-4.2,4H338.6z M344.2,542.8c0-1.4-0.9-2.5-2.5-2.5
		h-1.5v5h1.5C343.3,545.3,344.2,544.1,344.2,542.8z"/>
	<path fill="#010101" d="M347.2,546.8v-8h5.7v1.5h-4v1.7h3.9v1.5h-3.9v1.8h4v1.5H347.2z"/>
	<path fill="#010101" d="M353.8,542.8c0-2.5,1.9-4.1,4.3-4.1c1.8,0,2.8,1,3.3,2l-1.5,0.7c-0.3-0.6-1.1-1.2-1.9-1.2
		c-1.5,0-2.5,1.1-2.5,2.6c0,1.5,1.1,2.6,2.5,2.6c0.8,0,1.5-0.5,1.9-1.2l1.5,0.7c-0.6,1-1.6,2-3.3,2
		C355.7,546.9,353.8,545.2,353.8,542.8z"/>
	<path fill="#010101" d="M362.4,546.8v-8h1.7v6.5h3.4v1.5H362.4z"/>
	<path fill="#010101" d="M374.2,546.8l-0.5-1.4h-3.4l-0.5,1.4h-1.9l3.1-8h2.1l3.1,8H374.2z M372,540.5l-1.2,3.4h2.5L372,540.5z"/>
	<path fill="#010101" d="M381.4,546.8l-1.6-2.8h-1.2v2.8h-1.7v-8h3.7c1.7,0,2.7,1.1,2.7,2.6c0,1.4-0.9,2.2-1.8,2.4l1.8,3H381.4z
		 M381.6,541.3c0-0.7-0.5-1.1-1.2-1.1h-1.8v2.2h1.8C381.1,542.4,381.6,542,381.6,541.3z"/>
	<path fill="#010101" d="M390.1,546.8l-0.5-1.4h-3.4l-0.5,1.4h-1.9l3.1-8h2.1l3.1,8H390.1z M387.9,540.5l-1.2,3.4h2.5L387.9,540.5z"
		/>
	<path fill="#010101" d="M393.9,546.8v-6.5h-2.3v-1.5h6.4v1.5h-2.3v6.5H393.9z"/>
	<path fill="#010101" d="M399,546.8v-8h1.7v8H399z"/>
	<path fill="#010101" d="M402,542.8c0-2.4,1.8-4.1,4.2-4.1c2.4,0,4.2,1.7,4.2,4.1c0,2.4-1.8,4.1-4.2,4.1
		C403.7,546.9,402,545.2,402,542.8z M408.6,542.8c0-1.5-1-2.6-2.4-2.6c-1.5,0-2.4,1.1-2.4,2.6c0,1.5,0.9,2.6,2.4,2.6
		C407.6,545.4,408.6,544.3,408.6,542.8z"/>
	<path fill="#010101" d="M417,546.8l-3.8-5.2v5.2h-1.7v-8h1.8l3.7,5v-5h1.7v8H417z"/>
</g>
<g>
	<path fill="#010101" d="M582.5,546.8v-8h3.2c2.5,0,4.2,1.6,4.2,4c0,2.4-1.7,4-4.2,4H582.5z M588.1,542.8c0-1.4-0.9-2.5-2.5-2.5
		h-1.5v5h1.5C587.2,545.3,588.1,544.1,588.1,542.8z"/>
	<path fill="#010101" d="M591.1,546.8v-8h5.7v1.5h-4v1.7h3.9v1.5h-3.9v1.8h4v1.5H591.1z"/>
	<path fill="#010101" d="M597.7,542.8c0-2.5,1.9-4.1,4.3-4.1c1.8,0,2.8,1,3.3,2l-1.5,0.7c-0.3-0.6-1.1-1.2-1.9-1.2
		c-1.5,0-2.5,1.1-2.5,2.6c0,1.5,1.1,2.6,2.5,2.6c0.8,0,1.5-0.5,1.9-1.2l1.5,0.7c-0.6,1-1.6,2-3.3,2
		C599.5,546.9,597.7,545.2,597.7,542.8z"/>
	<path fill="#010101" d="M606.3,546.8v-8h1.7v6.5h3.4v1.5H606.3z"/>
	<path fill="#010101" d="M618.1,546.8l-0.5-1.4h-3.4l-0.5,1.4h-1.9l3.1-8h2.1l3.1,8H618.1z M615.9,540.5l-1.2,3.4h2.5L615.9,540.5z"
		/>
	<path fill="#010101" d="M625.3,546.8l-1.6-2.8h-1.2v2.8h-1.7v-8h3.7c1.7,0,2.7,1.1,2.7,2.6c0,1.4-0.9,2.2-1.8,2.4l1.8,3H625.3z
		 M625.5,541.3c0-0.7-0.5-1.1-1.2-1.1h-1.8v2.2h1.8C625,542.4,625.5,542,625.5,541.3z"/>
	<path fill="#010101" d="M634,546.8l-0.5-1.4h-3.4l-0.5,1.4h-1.9l3.1-8h2.1l3.1,8H634z M631.8,540.5l-1.2,3.4h2.5L631.8,540.5z"/>
	<path fill="#010101" d="M637.8,546.8v-6.5h-2.3v-1.5h6.4v1.5h-2.3v6.5H637.8z"/>
	<path fill="#010101" d="M642.9,546.8v-8h1.7v8H642.9z"/>
	<path fill="#010101" d="M645.8,542.8c0-2.4,1.8-4.1,4.2-4.1c2.4,0,4.2,1.7,4.2,4.1c0,2.4-1.8,4.1-4.2,4.1
		C647.6,546.9,645.8,545.2,645.8,542.8z M652.4,542.8c0-1.5-1-2.6-2.4-2.6c-1.5,0-2.4,1.1-2.4,2.6c0,1.5,0.9,2.6,2.4,2.6
		C651.5,545.4,652.4,544.3,652.4,542.8z"/>
	<path fill="#010101" d="M660.9,546.8l-3.8-5.2v5.2h-1.7v-8h1.8l3.7,5v-5h1.7v8H660.9z"/>
</g>
<line fill="none" stroke="#FFFFFF" stroke-miterlimit="10" x1="298.2" y1="482.9" x2="459" y2="482.9"/>
<line fill="none" stroke="#FFFFFF" stroke-miterlimit="10" x1="298.2" y1="507.4" x2="459" y2="507.4"/>
<line fill="none" stroke="#FFFFFF" stroke-miterlimit="10" x1="298.2" y1="531.3" x2="459" y2="531.3"/>
<g>
	<polygon fill="#58595B" points="489.4,355.2 267.8,355.2 266.8,355.2 266.8,356.2 266.8,379.7 266.8,380.7 267.8,380.7 
		489.4,380.7 490.4,380.7 490.4,379.7 490.4,356.2 490.4,355.2 	"/>
	<g>
		<g>
			<path fill="#010101" d="M360.8,372.5v-8h1.7v8H360.8z"/>
			<path fill="#010101" d="M368.6,372.5l-1.6-2.8h-1.2v2.8H364v-8h3.7c1.7,0,2.7,1.1,2.7,2.6c0,1.4-0.9,2.2-1.8,2.4l1.8,3H368.6z
				 M368.7,367.1c0-0.7-0.5-1.1-1.2-1.1h-1.8v2.2h1.8C368.2,368.1,368.7,367.7,368.7,367.1z"/>
			<path fill="#010101" d="M374.6,371.4l0.9-1.2c0.5,0.6,1.3,0.9,2.1,0.9c0.9,0,1.5-0.5,1.5-1.2c0-0.7-0.5-1.2-1.4-1.2
				c-0.7,0-1.2,0.2-1.7,0.6l-1.2-0.3v-4.6h5.5v1.5h-3.8v2c0.4-0.4,1-0.7,1.8-0.7c1.4,0,2.6,1,2.6,2.6c0,1.7-1.3,2.8-3.2,2.8
				C376.3,372.6,375.3,372.2,374.6,371.4z"/>
			<path fill="#010101" d="M382.1,371.8l0.8-1.3c0.4,0.4,0.9,0.6,1.6,0.6c1.3,0,2-1.1,2-2.3c0-0.1,0-0.1,0-0.2c-0.4,0.5-1.2,1-2.1,1
				c-1.4,0-2.7-0.9-2.7-2.6c0-1.6,1.2-2.7,3.1-2.7c2.4,0,3.4,1.9,3.4,4.1c0,2.4-1.4,4.1-3.7,4.1
				C383.5,372.6,382.7,372.3,382.1,371.8z M386.5,367.5c-0.1-0.8-0.5-1.6-1.6-1.6c-0.9,0-1.4,0.6-1.4,1.2c0,0.8,0.7,1.2,1.5,1.2
				C385.5,368.2,386.1,368,386.5,367.5z"/>
			<path fill="#010101" d="M389.2,371.4l0.9-1.2c0.5,0.6,1.3,0.9,2.1,0.9c0.9,0,1.5-0.5,1.5-1.2c0-0.7-0.5-1.2-1.4-1.2
				c-0.7,0-1.2,0.2-1.7,0.6l-1.2-0.3v-4.6h5.5v1.5h-3.8v2c0.4-0.4,1-0.7,1.8-0.7c1.4,0,2.6,1,2.6,2.6c0,1.7-1.3,2.8-3.2,2.8
				C390.9,372.6,389.9,372.2,389.2,371.4z"/>
		</g>
		<g>
			<path fill="#FFFFFF" d="M360.8,372.5v-8h1.7v8H360.8z"/>
			<path fill="#FFFFFF" d="M368.6,372.5l-1.6-2.8h-1.2v2.8H364v-8h3.7c1.7,0,2.7,1.1,2.7,2.6c0,1.4-0.9,2.2-1.8,2.4l1.8,3H368.6z
				 M368.7,367.1c0-0.7-0.5-1.1-1.2-1.1h-1.8v2.2h1.8C368.2,368.1,368.7,367.7,368.7,367.1z"/>
			<path fill="#FFFFFF" d="M374.6,371.4l0.9-1.2c0.5,0.6,1.3,0.9,2.1,0.9c0.9,0,1.5-0.5,1.5-1.2c0-0.7-0.5-1.2-1.4-1.2
				c-0.7,0-1.2,0.2-1.7,0.6l-1.2-0.3v-4.6h5.5v1.5h-3.8v2c0.4-0.4,1-0.7,1.8-0.7c1.4,0,2.6,1,2.6,2.6c0,1.7-1.3,2.8-3.2,2.8
				C376.3,372.6,375.3,372.2,374.6,371.4z"/>
			<path fill="#FFFFFF" d="M382.1,371.8l0.8-1.3c0.4,0.4,0.9,0.6,1.6,0.6c1.3,0,2-1.1,2-2.3c0-0.1,0-0.1,0-0.2c-0.4,0.5-1.2,1-2.1,1
				c-1.4,0-2.7-0.9-2.7-2.6c0-1.6,1.2-2.7,3.1-2.7c2.4,0,3.4,1.9,3.4,4.1c0,2.4-1.4,4.1-3.7,4.1
				C383.5,372.6,382.7,372.3,382.1,371.8z M386.5,367.5c-0.1-0.8-0.5-1.6-1.6-1.6c-0.9,0-1.4,0.6-1.4,1.2c0,0.8,0.7,1.2,1.5,1.2
				C385.5,368.2,386.1,368,386.5,367.5z"/>
			<path fill="#FFFFFF" d="M389.2,371.4l0.9-1.2c0.5,0.6,1.3,0.9,2.1,0.9c0.9,0,1.5-0.5,1.5-1.2c0-0.7-0.5-1.2-1.4-1.2
				c-0.7,0-1.2,0.2-1.7,0.6l-1.2-0.3v-4.6h5.5v1.5h-3.8v2c0.4-0.4,1-0.7,1.8-0.7c1.4,0,2.6,1,2.6,2.6c0,1.7-1.3,2.8-3.2,2.8
				C390.9,372.6,389.9,372.2,389.2,371.4z"/>
		</g>
	</g>
</g>
<g>
	<g>
		<rect x="510.7" y="356.2" fill="#58595B" width="223.6" height="23.5"/>
	</g>
	<g>
		<g>
			<path fill="#010101" d="M605.3,372.5v-8h1.7v8H605.3z"/>
			<path fill="#010101" d="M613.1,372.5l-1.6-2.8h-1.2v2.8h-1.7v-8h3.7c1.7,0,2.7,1.1,2.7,2.6c0,1.4-0.9,2.2-1.8,2.4l1.8,3H613.1z
				 M613.3,367.1c0-0.7-0.5-1.1-1.2-1.1h-1.8v2.2h1.8C612.8,368.1,613.3,367.7,613.3,367.1z"/>
			<path fill="#010101" d="M619.2,371.4l0.9-1.2c0.5,0.6,1.3,0.9,2.1,0.9c0.9,0,1.5-0.5,1.5-1.2c0-0.7-0.5-1.2-1.4-1.2
				c-0.7,0-1.2,0.2-1.7,0.6l-1.2-0.3v-4.6h5.5v1.5h-3.8v2c0.4-0.4,1-0.7,1.8-0.7c1.4,0,2.6,1,2.6,2.6c0,1.7-1.3,2.8-3.2,2.8
				C620.9,372.6,619.9,372.2,619.2,371.4z"/>
			<path fill="#010101" d="M626.7,371.8l0.8-1.3c0.4,0.4,0.9,0.6,1.6,0.6c1.3,0,2-1.1,2-2.3c0-0.1,0-0.1,0-0.2c-0.4,0.5-1.2,1-2.1,1
				c-1.4,0-2.7-0.9-2.7-2.6c0-1.6,1.2-2.7,3.1-2.7c2.4,0,3.4,1.9,3.4,4.1c0,2.4-1.4,4.1-3.7,4.1
				C628.1,372.6,627.3,372.3,626.7,371.8z M631,367.5c-0.1-0.8-0.5-1.6-1.6-1.6c-0.9,0-1.4,0.6-1.4,1.2c0,0.8,0.7,1.2,1.5,1.2
				C630.1,368.2,630.7,368,631,367.5z"/>
			<path fill="#010101" d="M633.6,368.5c0-2.4,1.4-4.1,3.7-4.1c1,0,1.8,0.3,2.4,0.8l-0.8,1.3c-0.4-0.4-0.9-0.6-1.6-0.6
				c-1.2,0-2,1-2,2.3c0,0.1,0,0.1,0,0.2c0.4-0.5,1.2-1,2.1-1c1.4,0,2.7,0.9,2.7,2.6c0,1.6-1.2,2.7-3.1,2.7
				C634.6,372.6,633.6,370.7,633.6,368.5z M638.4,369.9c0-0.8-0.7-1.2-1.5-1.2c-0.6,0-1.2,0.3-1.6,0.8c0.1,0.8,0.5,1.6,1.6,1.6
				C637.9,371.1,638.4,370.5,638.4,369.9z"/>
		</g>
		<g>
			<path fill="#FFFFFF" d="M605.3,372.5v-8h1.7v8H605.3z"/>
			<path fill="#FFFFFF" d="M613.1,372.5l-1.6-2.8h-1.2v2.8h-1.7v-8h3.7c1.7,0,2.7,1.1,2.7,2.6c0,1.4-0.9,2.2-1.8,2.4l1.8,3H613.1z
				 M613.3,367.1c0-0.7-0.5-1.1-1.2-1.1h-1.8v2.2h1.8C612.8,368.1,613.3,367.7,613.3,367.1z"/>
			<path fill="#FFFFFF" d="M619.2,371.4l0.9-1.2c0.5,0.6,1.3,0.9,2.1,0.9c0.9,0,1.5-0.5,1.5-1.2c0-0.7-0.5-1.2-1.4-1.2
				c-0.7,0-1.2,0.2-1.7,0.6l-1.2-0.3v-4.6h5.5v1.5h-3.8v2c0.4-0.4,1-0.7,1.8-0.7c1.4,0,2.6,1,2.6,2.6c0,1.7-1.3,2.8-3.2,2.8
				C620.9,372.6,619.9,372.2,619.2,371.4z"/>
			<path fill="#FFFFFF" d="M626.7,371.8l0.8-1.3c0.4,0.4,0.9,0.6,1.6,0.6c1.3,0,2-1.1,2-2.3c0-0.1,0-0.1,0-0.2c-0.4,0.5-1.2,1-2.1,1
				c-1.4,0-2.7-0.9-2.7-2.6c0-1.6,1.2-2.7,3.1-2.7c2.4,0,3.4,1.9,3.4,4.1c0,2.4-1.4,4.1-3.7,4.1
				C628.1,372.6,627.3,372.3,626.7,371.8z M631,367.5c-0.1-0.8-0.5-1.6-1.6-1.6c-0.9,0-1.4,0.6-1.4,1.2c0,0.8,0.7,1.2,1.5,1.2
				C630.1,368.2,630.7,368,631,367.5z"/>
			<path fill="#FFFFFF" d="M633.6,368.5c0-2.4,1.4-4.1,3.7-4.1c1,0,1.8,0.3,2.4,0.8l-0.8,1.3c-0.4-0.4-0.9-0.6-1.6-0.6
				c-1.2,0-2,1-2,2.3c0,0.1,0,0.1,0,0.2c0.4-0.5,1.2-1,2.1-1c1.4,0,2.7,0.9,2.7,2.6c0,1.6-1.2,2.7-3.1,2.7
				C634.6,372.6,633.6,370.7,633.6,368.5z M638.4,369.9c0-0.8-0.7-1.2-1.5-1.2c-0.6,0-1.2,0.3-1.6,0.8c0.1,0.8,0.5,1.6,1.6,1.6
				C637.9,371.1,638.4,370.5,638.4,369.9z"/>
		</g>
	</g>
</g>
<rect x="272.2" y="381" fill="#F5B951" width="212.9" height="77.2"/>
<rect x="516.1" y="482.2" fill="#F5B951" width="212.9" height="25.2"/>
<g>
	<path fill="#010101" d="M332,395.9v-5.8l-1.3,1.4l-1-1l2.5-2.5h1.5v8H332z"/>
	<path fill="#010101" d="M343.5,395.9l-2-2.9l-2,2.9h-2l2.9-4.1l-2.7-3.9h2l1.8,2.7l1.8-2.7h2.1l-2.7,3.9l2.9,4.1H343.5z"/>
	<path fill="#010101" d="M349.4,395.9v-8h3.2c2.5,0,4.2,1.6,4.2,4c0,2.4-1.7,4-4.2,4H349.4z M355.1,391.9c0-1.4-0.9-2.5-2.5-2.5
		h-1.5v5h1.5C354.1,394.4,355.1,393.3,355.1,391.9z"/>
	<path fill="#010101" d="M357.6,391.9c0-2.4,1.8-4.1,4.2-4.1c2.4,0,4.2,1.7,4.2,4.1c0,2.4-1.8,4.1-4.2,4.1
		C359.4,396.1,357.6,394.3,357.6,391.9z M364.2,391.9c0-1.5-1-2.6-2.4-2.6c-1.5,0-2.4,1.1-2.4,2.6c0,1.5,0.9,2.6,2.4,2.6
		C363.3,394.6,364.2,393.4,364.2,391.9z"/>
	<path fill="#010101" d="M366.8,391.9c0-2.5,1.9-4.1,4.3-4.1c1.8,0,2.8,1,3.3,2l-1.5,0.7c-0.3-0.6-1.1-1.2-1.9-1.2
		c-1.5,0-2.5,1.1-2.5,2.6c0,1.5,1.1,2.6,2.5,2.6c0.8,0,1.5-0.5,1.9-1.2l1.5,0.7c-0.6,1-1.6,2-3.3,2
		C368.7,396.1,366.8,394.4,366.8,391.9z"/>
	<path fill="#010101" d="M375.4,392.7v-4.8h1.7v4.8c0,1.1,0.6,1.9,1.9,1.9s1.9-0.8,1.9-1.9v-4.8h1.7v4.8c0,2-1.2,3.3-3.6,3.3
		S375.4,394.7,375.4,392.7z"/>
	<path fill="#010101" d="M391.2,395.9v-5.6l-2.3,5.6h-0.7l-2.3-5.6v5.6h-1.7v-8h2.4l1.9,4.8l1.9-4.8h2.4v8H391.2z"/>
	<path fill="#010101" d="M394.5,395.9v-8h5.7v1.5h-4v1.7h3.9v1.5h-3.9v1.8h4v1.5H394.5z"/>
	<path fill="#010101" d="M407,395.9l-3.8-5.2v5.2h-1.7v-8h1.8l3.7,5v-5h1.7v8H407z"/>
	<path fill="#010101" d="M412.1,395.9v-6.5h-2.3v-1.5h6.4v1.5h-2.3v6.5H412.1z"/>
	<path fill="#010101" d="M425.8,395.9l-0.5-1.4h-3.4l-0.5,1.4h-1.9l3.1-8h2.1l3.1,8H425.8z M423.6,389.6l-1.2,3.4h2.5L423.6,389.6z"
		/>
</g>
<g>
	<path fill="#010101" d="M332.1,421v-5.8l-1.3,1.4l-1-1l2.5-2.5h1.5v8H332.1z"/>
	<path fill="#010101" d="M343.7,421l-2-2.9l-2,2.9h-2l2.9-4.1l-2.7-3.9h2l1.8,2.7l1.8-2.7h2.1l-2.7,3.9l2.9,4.1H343.7z"/>
	<path fill="#010101" d="M349.5,421v-8h3.2c2.5,0,4.2,1.6,4.2,4s-1.7,4-4.2,4H349.5z M355.2,417c0-1.4-0.9-2.5-2.5-2.5h-1.5v5h1.5
		C354.3,419.5,355.2,418.4,355.2,417z"/>
	<path fill="#010101" d="M357.8,417c0-2.4,1.8-4.1,4.2-4.1c2.4,0,4.2,1.7,4.2,4.1s-1.8,4.1-4.2,4.1
		C359.5,421.2,357.8,419.5,357.8,417z M364.4,417c0-1.5-1-2.6-2.4-2.6c-1.5,0-2.4,1.1-2.4,2.6c0,1.5,0.9,2.6,2.4,2.6
		C363.4,419.7,364.4,418.5,364.4,417z"/>
	<path fill="#010101" d="M366.9,417c0-2.5,1.9-4.1,4.3-4.1c1.8,0,2.8,1,3.3,2l-1.5,0.7c-0.3-0.6-1.1-1.2-1.9-1.2
		c-1.5,0-2.5,1.1-2.5,2.6s1.1,2.6,2.5,2.6c0.8,0,1.5-0.5,1.9-1.2l1.5,0.7c-0.6,1-1.6,2-3.3,2C368.8,421.2,366.9,419.5,366.9,417z"/>
	<path fill="#010101" d="M375.6,417.8V413h1.7v4.8c0,1.1,0.6,1.9,1.9,1.9s1.9-0.8,1.9-1.9V413h1.7v4.8c0,2-1.2,3.3-3.6,3.3
		S375.6,419.8,375.6,417.8z"/>
	<path fill="#010101" d="M391.3,421v-5.6l-2.3,5.6h-0.7l-2.3-5.6v5.6h-1.7v-8h2.4l1.9,4.8l1.9-4.8h2.4v8H391.3z"/>
	<path fill="#010101" d="M394.6,421v-8h5.7v1.5h-4v1.7h3.9v1.5h-3.9v1.8h4v1.5H394.6z"/>
	<path fill="#010101" d="M407.1,421l-3.8-5.2v5.2h-1.7v-8h1.8l3.7,5v-5h1.7v8H407.1z"/>
	<path fill="#010101" d="M412.2,421v-6.5h-2.3V413h6.4v1.5h-2.3v6.5H412.2z"/>
	<path fill="#010101" d="M420.4,421v-8h4.2c1.5,0,2.3,1,2.3,2c0,1-0.6,1.7-1.4,1.8c0.9,0.1,1.5,1,1.5,2c0,1.2-0.8,2.2-2.3,2.2H420.4
		z M425.2,415.4c0-0.5-0.4-0.9-0.9-0.9h-2.1v1.7h2.1C424.8,416.2,425.2,415.9,425.2,415.4z M425.4,418.6c0-0.5-0.4-0.9-1-0.9h-2.2
		v1.9h2.2C425,419.6,425.4,419.2,425.4,418.6z"/>
</g>
<g>
	<path fill="#010101" d="M289.9,446.9v-8h3.7c1.7,0,2.7,1.2,2.7,2.6c0,1.4-1,2.6-2.7,2.6h-2v2.8H289.9z M294.6,441.5
		c0-0.7-0.5-1.1-1.2-1.1h-1.8v2.2h1.8C294.1,442.6,294.6,442.1,294.6,441.5z"/>
	<path fill="#010101" d="M301.9,446.9l-1.6-2.8h-1.2v2.8h-1.7v-8h3.7c1.7,0,2.7,1.1,2.7,2.6c0,1.4-0.9,2.2-1.8,2.4l1.8,3H301.9z
		 M302.1,441.5c0-0.7-0.5-1.1-1.2-1.1h-1.8v2.2h1.8C301.6,442.6,302.1,442.1,302.1,441.5z"/>
	<path fill="#010101" d="M304.7,442.9c0-2.4,1.8-4.1,4.2-4.1c2.4,0,4.2,1.7,4.2,4.1c0,2.4-1.8,4.1-4.2,4.1
		C306.5,447,304.7,445.3,304.7,442.9z M311.3,442.9c0-1.5-1-2.6-2.4-2.6c-1.5,0-2.4,1.1-2.4,2.6c0,1.5,0.9,2.6,2.4,2.6
		C310.4,445.5,311.3,444.4,311.3,442.9z"/>
	<path fill="#010101" d="M313.9,442.9c0-2.4,1.8-4.1,4.2-4.1c2.4,0,4.2,1.7,4.2,4.1c0,2.4-1.8,4.1-4.2,4.1
		C315.7,447,313.9,445.3,313.9,442.9z M320.5,442.9c0-1.5-1-2.6-2.4-2.6c-1.5,0-2.4,1.1-2.4,2.6c0,1.5,0.9,2.6,2.4,2.6
		C319.5,445.5,320.5,444.4,320.5,442.9z"/>
	<path fill="#010101" d="M323.5,446.9v-8h5.7v1.5h-4v1.7h3.9v1.5h-3.9v3.3H323.5z"/>
	<path fill="#010101" d="M338.9,446.9l-0.5-1.4H335l-0.5,1.4h-1.9l3.1-8h2.1l3.1,8H338.9z M336.7,440.6l-1.2,3.4h2.5L336.7,440.6z"
		/>
	<path fill="#010101" d="M341,445.8l0.9-1.3c0.6,0.6,1.4,1.1,2.5,1.1c0.9,0,1.4-0.4,1.4-0.9c0-1.4-4.6-0.4-4.6-3.5
		c0-1.3,1.2-2.4,3-2.4c1.3,0,2.3,0.4,3.1,1.1l-0.9,1.2c-0.6-0.6-1.5-0.9-2.3-0.9c-0.7,0-1.1,0.3-1.1,0.8c0,1.3,4.6,0.4,4.6,3.4
		c0,1.5-1,2.6-3.2,2.6C342.8,447,341.7,446.5,341,445.8z"/>
	<path fill="#010101" d="M351.8,446.9v-8h3.7c1.7,0,2.7,1.2,2.7,2.6c0,1.4-1,2.6-2.7,2.6h-2v2.8H351.8z M356.5,441.5
		c0-0.7-0.5-1.1-1.2-1.1h-1.8v2.2h1.8C356,442.6,356.5,442.1,356.5,441.5z"/>
	<path fill="#010101" d="M363.9,446.9l-0.5-1.4H360l-0.5,1.4h-1.9l3.1-8h2.1l3.1,8H363.9z M361.7,440.6l-1.2,3.4h2.5L361.7,440.6z"
		/>
	<path fill="#010101" d="M371.1,446.9l-1.6-2.8h-1.2v2.8h-1.7v-8h3.7c1.7,0,2.7,1.1,2.7,2.6c0,1.4-0.9,2.2-1.8,2.4l1.8,3H371.1z
		 M371.3,441.5c0-0.7-0.5-1.1-1.2-1.1h-1.8v2.2h1.8C370.8,442.6,371.3,442.1,371.3,441.5z"/>
	<path fill="#010101" d="M374.3,446.9v-8h5.7v1.5h-4v1.7h3.9v1.5H376v1.8h4v1.5H374.3z"/>
	<path fill="#010101" d="M386.8,446.9l-3.8-5.2v5.2h-1.7v-8h1.8l3.7,5v-5h1.7v8H386.8z"/>
	<path fill="#010101" d="M391.9,446.9v-6.5h-2.3v-1.5h6.4v1.5h-2.3v6.5H391.9z"/>
	<path fill="#010101" d="M399.3,447.1l2.8-8.5h1.1l-2.8,8.5H399.3z"/>
	<path fill="#010101" d="M406.7,442.9c0-2.5,1.9-4.1,4.3-4.1c1.7,0,2.7,0.8,3.3,1.8l-1.4,0.8c-0.4-0.6-1-1-1.9-1
		c-1.5,0-2.5,1.1-2.5,2.6c0,1.5,1.1,2.6,2.5,2.6c0.7,0,1.4-0.3,1.7-0.6v-1h-2.1v-1.5h3.8v3.1c-0.8,0.9-2,1.5-3.4,1.5
		C408.7,447.1,406.7,445.4,406.7,442.9z"/>
	<path fill="#010101" d="M415.8,443.7v-4.8h1.7v4.7c0,1.1,0.6,1.9,1.9,1.9s1.9-0.8,1.9-1.9v-4.7h1.7v4.8c0,2-1.2,3.3-3.6,3.3
		S415.8,445.7,415.8,443.7z"/>
	<path fill="#010101" d="M429.7,446.9l-0.5-1.4h-3.4l-0.5,1.4h-1.9l3.1-8h2.1l3.1,8H429.7z M427.5,440.6l-1.2,3.4h2.5L427.5,440.6z"
		/>
	<path fill="#010101" d="M436.9,446.9l-1.6-2.8h-1.2v2.8h-1.7v-8h3.7c1.7,0,2.7,1.1,2.7,2.6c0,1.4-0.9,2.2-1.8,2.4l1.8,3H436.9z
		 M437.1,441.5c0-0.7-0.5-1.1-1.2-1.1h-1.8v2.2h1.8C436.5,442.6,437.1,442.1,437.1,441.5z"/>
	<path fill="#010101" d="M440.1,446.9v-8h3.2c2.5,0,4.2,1.6,4.2,4c0,2.4-1.7,4-4.2,4H440.1z M445.7,442.9c0-1.4-0.9-2.5-2.5-2.5
		h-1.5v5h1.5C444.8,445.4,445.7,444.3,445.7,442.9z"/>
	<path fill="#010101" d="M448.7,446.9v-8h1.7v8H448.7z"/>
	<path fill="#010101" d="M457.5,446.9l-0.5-1.4h-3.4l-0.5,1.4h-1.9l3.1-8h2.1l3.1,8H457.5z M455.3,440.6L454,444h2.5L455.3,440.6z"
		/>
	<path fill="#010101" d="M465.7,446.9l-3.8-5.2v5.2h-1.7v-8h1.8l3.7,5v-5h1.7v8H465.7z"/>
</g>
<line fill="none" stroke="#FFFFFF" stroke-miterlimit="10" x1="298.2" y1="403.6" x2="459" y2="403.6"/>
<line fill="none" stroke="#FFFFFF" stroke-miterlimit="10" x1="542.1" y1="403.6" x2="702.9" y2="403.6"/>
<line fill="none" stroke="#FFFFFF" stroke-miterlimit="10" x1="542.1" y1="430.6" x2="702.9" y2="430.6"/>
<g>
	<path fill="#010101" d="M573.9,468.7c0-2.5,1.9-4.1,4.3-4.1c1.8,0,2.8,1,3.3,2l-1.5,0.7c-0.3-0.6-1.1-1.2-1.9-1.2
		c-1.5,0-2.5,1.1-2.5,2.6s1.1,2.6,2.5,2.6c0.8,0,1.5-0.5,1.9-1.2l1.5,0.7c-0.6,1-1.6,2-3.3,2C575.7,472.8,573.9,471.1,573.9,468.7z"
		/>
	<path fill="#010101" d="M582.1,468.7c0-2.4,1.8-4.1,4.2-4.1c2.4,0,4.2,1.7,4.2,4.1s-1.8,4.1-4.2,4.1
		C583.9,472.8,582.1,471.1,582.1,468.7z M588.7,468.7c0-1.5-1-2.6-2.4-2.6c-1.5,0-2.4,1.1-2.4,2.6c0,1.5,0.9,2.6,2.4,2.6
		C587.8,471.3,588.7,470.2,588.7,468.7z"/>
	<path fill="#010101" d="M597.2,472.7l-3.8-5.2v5.2h-1.7v-8h1.8l3.7,5v-5h1.7v8H597.2z"/>
	<path fill="#010101" d="M602.3,472.7v-6.5h-2.3v-1.5h6.4v1.5H604v6.5H602.3z"/>
	<path fill="#010101" d="M612.2,472.7l-0.5-1.4h-3.4l-0.5,1.4h-1.9l3.1-8h2.1l3.1,8H612.2z M610,466.4l-1.2,3.4h2.5L610,466.4z"/>
	<path fill="#010101" d="M614.1,468.7c0-2.5,1.9-4.1,4.3-4.1c1.8,0,2.8,1,3.3,2l-1.5,0.7c-0.3-0.6-1.1-1.2-1.9-1.2
		c-1.5,0-2.5,1.1-2.5,2.6s1.1,2.6,2.5,2.6c0.8,0,1.5-0.5,1.9-1.2l1.5,0.7c-0.6,1-1.6,2-3.3,2C615.9,472.8,614.1,471.1,614.1,468.7z"
		/>
	<path fill="#010101" d="M624.5,472.7v-6.5h-2.3v-1.5h6.4v1.5h-2.3v6.5H624.5z"/>
	<path fill="#010101" d="M632.7,472.7v-8h3.2c2.5,0,4.2,1.6,4.2,4s-1.7,4-4.2,4H632.7z M638.4,468.7c0-1.4-0.9-2.5-2.5-2.5h-1.5v5
		h1.5C637.5,471.2,638.4,470,638.4,468.7z"/>
	<path fill="#010101" d="M641.4,472.7v-8h5.7v1.5h-4v1.7h3.9v1.5h-3.9v1.8h4v1.5H641.4z"/>
	<path fill="#010101" d="M650.2,472.7v-6.5h-2.3v-1.5h6.4v1.5h-2.3v6.5H650.2z"/>
	<path fill="#010101" d="M660.1,472.7l-0.5-1.4h-3.4l-0.5,1.4h-1.9l3.1-8h2.1l3.1,8H660.1z M657.9,466.4l-1.2,3.4h2.5L657.9,466.4z"
		/>
	<path fill="#010101" d="M662.8,472.7v-8h1.7v8H662.8z"/>
	<path fill="#010101" d="M666.1,472.7v-8h1.7v6.5h3.4v1.5H666.1z"/>
</g>
<g>
	<path fill="#010101" d="M556.1,498.8v-8h3.2c2.5,0,4.2,1.6,4.2,4c0,2.4-1.7,4-4.2,4H556.1z M561.8,494.8c0-1.4-0.9-2.5-2.5-2.5
		h-1.5v5h1.5C560.9,497.3,561.8,496.2,561.8,494.8z"/>
	<path fill="#010101" d="M564.3,494.8c0-2.4,1.8-4.1,4.2-4.1c2.4,0,4.2,1.7,4.2,4.1c0,2.4-1.8,4.1-4.2,4.1
		C566.1,498.9,564.3,497.2,564.3,494.8z M571,494.8c0-1.5-1-2.6-2.4-2.6c-1.5,0-2.4,1.1-2.4,2.6c0,1.5,0.9,2.6,2.4,2.6
		C570,497.4,571,496.3,571,494.8z"/>
	<path fill="#010101" d="M573.5,494.8c0-2.5,1.9-4.1,4.3-4.1c1.8,0,2.8,1,3.3,2l-1.5,0.7c-0.3-0.6-1.1-1.2-1.9-1.2
		c-1.5,0-2.5,1.1-2.5,2.6c0,1.5,1.1,2.6,2.5,2.6c0.8,0,1.5-0.5,1.9-1.2l1.5,0.7c-0.6,1-1.6,2-3.3,2
		C575.4,498.9,573.5,497.3,573.5,494.8z"/>
	<path fill="#010101" d="M582.2,495.6v-4.8h1.7v4.7c0,1.1,0.6,1.9,1.9,1.9s1.9-0.8,1.9-1.9v-4.7h1.7v4.8c0,2-1.2,3.3-3.6,3.3
		S582.2,497.6,582.2,495.6z"/>
	<path fill="#010101" d="M597.9,498.8v-5.6l-2.3,5.6h-0.7l-2.3-5.6v5.6H591v-8h2.4l1.9,4.8l1.9-4.8h2.4v8H597.9z"/>
	<path fill="#010101" d="M601.2,498.8v-8h5.7v1.5h-4v1.7h3.9v1.5h-3.9v1.8h4v1.5H601.2z"/>
	<path fill="#010101" d="M613.7,498.8l-3.8-5.2v5.2h-1.7v-8h1.8l3.7,5v-5h1.7v8H613.7z"/>
	<path fill="#010101" d="M618.8,498.8v-6.5h-2.3v-1.5h6.4v1.5h-2.3v6.5H618.8z"/>
	<path fill="#010101" d="M626.6,494.8c0-2.5,1.9-4.1,4.3-4.1c1.8,0,2.8,1,3.3,2l-1.5,0.7c-0.3-0.6-1.1-1.2-1.9-1.2
		c-1.5,0-2.5,1.1-2.5,2.6c0,1.5,1.1,2.6,2.5,2.6c0.8,0,1.5-0.5,1.9-1.2l1.5,0.7c-0.6,1-1.6,2-3.3,2
		C628.5,498.9,626.6,497.3,626.6,494.8z"/>
	<path fill="#010101" d="M640.7,498.8v-3.4H637v3.4h-1.7v-8h1.7v3.1h3.8v-3.1h1.7v8H640.7z"/>
	<path fill="#010101" d="M644,498.8v-8h5.7v1.5h-4v1.7h3.9v1.5h-3.9v1.8h4v1.5H644z"/>
	<path fill="#010101" d="M650.6,494.8c0-2.5,1.9-4.1,4.3-4.1c1.8,0,2.8,1,3.3,2l-1.5,0.7c-0.3-0.6-1.1-1.2-1.9-1.2
		c-1.5,0-2.5,1.1-2.5,2.6c0,1.5,1.1,2.6,2.5,2.6c0.8,0,1.5-0.5,1.9-1.2l1.5,0.7c-0.6,1-1.6,2-3.3,2
		C652.5,498.9,650.6,497.3,650.6,494.8z"/>
	<path fill="#010101" d="M664,498.8l-2.4-3.2l-0.6,0.7v2.5h-1.7v-8h1.7v3.6l2.8-3.6h2.1l-3.2,3.8l3.4,4.2H664z"/>
	<path fill="#010101" d="M666.9,498.8v-8h1.7v6.5h3.4v1.5H666.9z"/>
	<path fill="#010101" d="M673.2,498.8v-8h1.7v8H673.2z"/>
	<path fill="#010101" d="M675.9,497.7l0.9-1.3c0.6,0.6,1.4,1.1,2.5,1.1c0.9,0,1.4-0.4,1.4-0.9c0-1.4-4.6-0.4-4.6-3.5
		c0-1.3,1.2-2.4,3-2.4c1.3,0,2.3,0.4,3.1,1.1l-0.9,1.2c-0.6-0.6-1.5-0.9-2.3-0.9c-0.7,0-1.1,0.3-1.1,0.8c0,1.3,4.6,0.4,4.6,3.4
		c0,1.5-1,2.6-3.2,2.6C677.8,498.9,676.7,498.4,675.9,497.7z"/>
	<path fill="#010101" d="M685.4,498.8v-6.5H683v-1.5h6.4v1.5h-2.3v6.5H685.4z"/>
</g>
<line fill="none" stroke="#FFFFFF" stroke-miterlimit="10" x1="542.1" y1="456.4" x2="702.9" y2="456.4"/>
<line fill="none" stroke="#FFFFFF" stroke-miterlimit="10" x1="298.2" y1="430.6" x2="459" y2="430.6"/>
<g>
	<circle fill="#010101" cx="622.5" cy="519.1" r="1.8"/>
	<circle fill="#010101" cx="622.5" cy="524.5" r="1.8"/>
	<circle fill="#010101" cx="622.5" cy="529.9" r="1.8"/>
</g>
</svg>
