<?xml version="1.0" encoding="utf-8"?>
<!-- Generator: Adobe Illustrator 17.1.0, SVG Export Plug-In . SVG Version: 6.00 Build 0)  -->
<!DOCTYPE svg PUBLIC "-//W3C//DTD SVG 1.1//EN" "http://www.w3.org/Graphics/SVG/1.1/DTD/svg11.dtd">
<svg version="1.1" xmlns="http://www.w3.org/2000/svg" xmlns:xlink="http://www.w3.org/1999/xlink" x="0px" y="0px"
	 viewBox="0 0 354.8 941.1" enable-background="new 0 0 354.8 941.1" xml:space="preserve">
<g id="bg">
</g>
<g id="Layer_1">
	<line fill="none" stroke="#EF4136" stroke-width="5" stroke-miterlimit="10" x1="177.1" y1="107.4" x2="177.1" y2="775.6"/>
	<g>
		<g>
			<path fill="#010101" d="M127.9,107.4v-8h3.2c2.5,0,4.2,1.6,4.2,4c0,2.4-1.7,4-4.2,4H127.9z M133.6,103.4c0-1.4-0.9-2.5-2.5-2.5
				h-1.5v5h1.5C132.7,105.9,133.6,104.8,133.6,103.4z"/>
			<path fill="#010101" d="M136.2,103.4c0-2.4,1.8-4.1,4.2-4.1c2.4,0,4.2,1.7,4.2,4.1c0,2.4-1.8,4.1-4.2,4.1
				C137.9,107.6,136.2,105.8,136.2,103.4z M142.8,103.4c0-1.5-1-2.6-2.4-2.6c-1.5,0-2.4,1.1-2.4,2.6c0,1.5,0.9,2.6,2.4,2.6
				C141.8,106.1,142.8,104.9,142.8,103.4z"/>
			<path fill="#010101" d="M151,107.4v-3.3l-3.1-4.7h1.9l2,3.2l2-3.2h1.9l-3.1,4.7v3.3H151z"/>
			<path fill="#010101" d="M155.7,103.4c0-2.4,1.8-4.1,4.2-4.1c2.4,0,4.2,1.7,4.2,4.1c0,2.4-1.8,4.1-4.2,4.1
				C157.4,107.6,155.7,105.8,155.7,103.4z M162.3,103.4c0-1.5-1-2.6-2.4-2.6c-1.5,0-2.4,1.1-2.4,2.6c0,1.5,0.9,2.6,2.4,2.6
				C161.3,106.1,162.3,104.9,162.3,103.4z"/>
			<path fill="#010101" d="M165.2,104.2v-4.8h1.7v4.7c0,1.1,0.6,1.9,1.9,1.9s1.9-0.8,1.9-1.9v-4.7h1.7v4.8c0,2-1.2,3.3-3.6,3.3
				S165.2,106.2,165.2,104.2z"/>
			<path fill="#010101" d="M182.6,107.4l-3.8-5.2v5.2h-1.7v-8h1.8l3.7,5v-5h1.7v8H182.6z"/>
			<path fill="#010101" d="M185.9,107.4v-8h5.7v1.5h-4v1.7h3.9v1.5h-3.9v1.8h4v1.5H185.9z"/>
			<path fill="#010101" d="M192.9,107.4v-8h5.7v1.5h-4v1.7h3.9v1.5h-3.9v1.8h4v1.5H192.9z"/>
			<path fill="#010101" d="M199.9,107.4v-8h3.2c2.5,0,4.2,1.6,4.2,4c0,2.4-1.7,4-4.2,4H199.9z M205.5,103.4c0-1.4-0.9-2.5-2.5-2.5
				h-1.5v5h1.5C204.6,105.9,205.5,104.8,205.5,103.4z"/>
			<path fill="#010101" d="M217.1,107.4l-0.5-1.4h-3.4l-0.5,1.4h-1.9l3.1-8h2.1l3.1,8H217.1z M214.9,101.1l-1.2,3.4h2.5L214.9,101.1
				z"/>
			<path fill="#010101" d="M225.3,107.4l-3.8-5.2v5.2h-1.7v-8h1.8l3.7,5v-5h1.7v8H225.3z"/>
			<path fill="#010101" d="M138.9,121.8v-8h1.7v8H138.9z"/>
			<path fill="#010101" d="M146.7,121.8l-1.6-2.8h-1.2v2.8h-1.7v-8h3.7c1.7,0,2.7,1.1,2.7,2.6c0,1.4-0.9,2.2-1.8,2.4l1.8,3H146.7z
				 M146.9,116.4c0-0.7-0.5-1.1-1.2-1.1h-1.8v2.2h1.8C146.4,117.5,146.9,117.1,146.9,116.4z"/>
			<path fill="#010101" d="M149.9,121.8v-8h3.2c2.5,0,4.2,1.6,4.2,4c0,2.4-1.7,4-4.2,4H149.9z M155.6,117.8c0-1.4-0.9-2.5-2.5-2.5
				h-1.5v5h1.5C154.6,120.3,155.6,119.2,155.6,117.8z"/>
			<path fill="#010101" d="M167.1,121.8l-3.8-5.2v5.2h-1.7v-8h1.8l3.7,5v-5h1.7v8H167.1z"/>
			<path fill="#010101" d="M170.3,118.6v-4.8h1.7v4.8c0,1.1,0.6,1.9,1.9,1.9s1.9-0.8,1.9-1.9v-4.8h1.7v4.8c0,2-1.2,3.3-3.6,3.3
				S170.3,120.6,170.3,118.6z"/>
			<path fill="#010101" d="M186.1,121.8v-5.6l-2.3,5.6h-0.7l-2.3-5.6v5.6h-1.7v-8h2.4l1.9,4.8l1.9-4.8h2.4v8H186.1z"/>
			<path fill="#010101" d="M189.4,121.8v-8h4.2c1.5,0,2.3,1,2.3,2c0,1-0.6,1.7-1.4,1.8c0.9,0.1,1.5,1,1.5,2c0,1.2-0.8,2.2-2.3,2.2
				H189.4z M194.2,116.2c0-0.5-0.4-0.9-0.9-0.9h-2.1v1.7h2.1C193.8,117,194.2,116.7,194.2,116.2z M194.3,119.4c0-0.5-0.4-0.9-1-0.9
				h-2.2v1.9h2.2C193.9,120.3,194.3,120,194.3,119.4z"/>
			<path fill="#010101" d="M197.4,121.8v-8h5.7v1.5h-4v1.7h3.9v1.5h-3.9v1.8h4v1.5H197.4z"/>
			<path fill="#010101" d="M208.9,121.8l-1.6-2.8h-1.2v2.8h-1.7v-8h3.7c1.7,0,2.7,1.1,2.7,2.6c0,1.4-0.9,2.2-1.8,2.4l1.8,3H208.9z
				 M209,116.4c0-0.7-0.5-1.1-1.2-1.1h-1.8v2.2h1.8C208.5,117.5,209,117.1,209,116.4z"/>
			<path fill="#010101" d="M213,118.3c0-1.4,1.8-1.6,1.8-2.4c0-0.4-0.3-0.7-0.9-0.7c-0.6,0-1.1,0.3-1.5,0.7l-1-1.1
				c0.6-0.7,1.6-1.2,2.6-1.2c1.5,0,2.5,0.8,2.5,1.9c0,1.8-2,1.9-2,2.9c0,0.2,0.1,0.4,0.2,0.5l-1.3,0.4
				C213.2,119.1,213,118.7,213,118.3z M213,121c0-0.5,0.4-1,1-1c0.5,0,1,0.4,1,1s-0.4,1-1,1C213.5,122,213,121.5,213,121z"/>
		</g>
		<g>
			<rect x="105.3" y="87.9" fill="#E6E6E6" width="144.3" height="45.4"/>
		</g>
		<g>
			<path fill="#231F20" d="M127.9,107.4v-8h3.2c2.5,0,4.2,1.6,4.2,4c0,2.4-1.7,4-4.2,4H127.9z M133.6,103.4c0-1.4-0.9-2.5-2.5-2.5
				h-1.5v5h1.5C132.7,105.9,133.6,104.8,133.6,103.4z"/>
			<path fill="#231F20" d="M136.2,103.4c0-2.4,1.8-4.1,4.2-4.1c2.4,0,4.2,1.7,4.2,4.1c0,2.4-1.8,4.1-4.2,4.1
				C137.9,107.6,136.2,105.8,136.2,103.4z M142.8,103.4c0-1.5-1-2.6-2.4-2.6c-1.5,0-2.4,1.1-2.4,2.6c0,1.5,0.9,2.6,2.4,2.6
				C141.8,106.1,142.8,104.9,142.8,103.4z"/>
			<path fill="#231F20" d="M151,107.4v-3.3l-3.1-4.7h1.9l2,3.2l2-3.2h1.9l-3.1,4.7v3.3H151z"/>
			<path fill="#231F20" d="M155.7,103.4c0-2.4,1.8-4.1,4.2-4.1c2.4,0,4.2,1.7,4.2,4.1c0,2.4-1.8,4.1-4.2,4.1
				C157.4,107.6,155.7,105.8,155.7,103.4z M162.3,103.4c0-1.5-1-2.6-2.4-2.6c-1.5,0-2.4,1.1-2.4,2.6c0,1.5,0.9,2.6,2.4,2.6
				C161.3,106.1,162.3,104.9,162.3,103.4z"/>
			<path fill="#231F20" d="M165.2,104.2v-4.8h1.7v4.7c0,1.1,0.6,1.9,1.9,1.9s1.9-0.8,1.9-1.9v-4.7h1.7v4.8c0,2-1.2,3.3-3.6,3.3
				S165.2,106.2,165.2,104.2z"/>
			<path fill="#231F20" d="M182.6,107.4l-3.8-5.2v5.2h-1.7v-8h1.8l3.7,5v-5h1.7v8H182.6z"/>
			<path fill="#231F20" d="M185.9,107.4v-8h5.7v1.5h-4v1.7h3.9v1.5h-3.9v1.8h4v1.5H185.9z"/>
			<path fill="#231F20" d="M192.9,107.4v-8h5.7v1.5h-4v1.7h3.9v1.5h-3.9v1.8h4v1.5H192.9z"/>
			<path fill="#231F20" d="M199.9,107.4v-8h3.2c2.5,0,4.2,1.6,4.2,4c0,2.4-1.7,4-4.2,4H199.9z M205.5,103.4c0-1.4-0.9-2.5-2.5-2.5
				h-1.5v5h1.5C204.6,105.9,205.5,104.8,205.5,103.4z"/>
			<path fill="#231F20" d="M217.1,107.4l-0.5-1.4h-3.4l-0.5,1.4h-1.9l3.1-8h2.1l3.1,8H217.1z M214.9,101.1l-1.2,3.4h2.5L214.9,101.1
				z"/>
			<path fill="#231F20" d="M225.3,107.4l-3.8-5.2v5.2h-1.7v-8h1.8l3.7,5v-5h1.7v8H225.3z"/>
			<path fill="#231F20" d="M138.9,121.8v-8h1.7v8H138.9z"/>
			<path fill="#231F20" d="M146.7,121.8l-1.6-2.8h-1.2v2.8h-1.7v-8h3.7c1.7,0,2.7,1.1,2.7,2.6c0,1.4-0.9,2.2-1.8,2.4l1.8,3H146.7z
				 M146.9,116.4c0-0.7-0.5-1.1-1.2-1.1h-1.8v2.2h1.8C146.4,117.5,146.9,117.1,146.9,116.4z"/>
			<path fill="#231F20" d="M149.9,121.8v-8h3.2c2.5,0,4.2,1.6,4.2,4c0,2.4-1.7,4-4.2,4H149.9z M155.6,117.8c0-1.4-0.9-2.5-2.5-2.5
				h-1.5v5h1.5C154.6,120.3,155.6,119.2,155.6,117.8z"/>
			<path fill="#231F20" d="M167.1,121.8l-3.8-5.2v5.2h-1.7v-8h1.8l3.7,5v-5h1.7v8H167.1z"/>
			<path fill="#231F20" d="M170.3,118.6v-4.8h1.7v4.8c0,1.1,0.6,1.9,1.9,1.9s1.9-0.8,1.9-1.9v-4.8h1.7v4.8c0,2-1.2,3.3-3.6,3.3
				S170.3,120.6,170.3,118.6z"/>
			<path fill="#231F20" d="M186.1,121.8v-5.6l-2.3,5.6h-0.7l-2.3-5.6v5.6h-1.7v-8h2.4l1.9,4.8l1.9-4.8h2.4v8H186.1z"/>
			<path fill="#231F20" d="M189.4,121.8v-8h4.2c1.5,0,2.3,1,2.3,2c0,1-0.6,1.7-1.4,1.8c0.9,0.1,1.5,1,1.5,2c0,1.2-0.8,2.2-2.3,2.2
				H189.4z M194.2,116.2c0-0.5-0.4-0.9-0.9-0.9h-2.1v1.7h2.1C193.8,117,194.2,116.7,194.2,116.2z M194.3,119.4c0-0.5-0.4-0.9-1-0.9
				h-2.2v1.9h2.2C193.9,120.3,194.3,120,194.3,119.4z"/>
			<path fill="#231F20" d="M197.4,121.8v-8h5.7v1.5h-4v1.7h3.9v1.5h-3.9v1.8h4v1.5H197.4z"/>
			<path fill="#231F20" d="M208.9,121.8l-1.6-2.8h-1.2v2.8h-1.7v-8h3.7c1.7,0,2.7,1.1,2.7,2.6c0,1.4-0.9,2.2-1.8,2.4l1.8,3H208.9z
				 M209,116.4c0-0.7-0.5-1.1-1.2-1.1h-1.8v2.2h1.8C208.5,117.5,209,117.1,209,116.4z"/>
			<path fill="#231F20" d="M213,118.3c0-1.4,1.8-1.6,1.8-2.4c0-0.4-0.3-0.7-0.9-0.7c-0.6,0-1.1,0.3-1.5,0.7l-1-1.1
				c0.6-0.7,1.6-1.2,2.6-1.2c1.5,0,2.5,0.8,2.5,1.9c0,1.8-2,1.9-2,2.9c0,0.2,0.1,0.4,0.2,0.5l-1.3,0.4
				C213.2,119.1,213,118.7,213,118.3z M213,121c0-0.5,0.4-1,1-1c0.5,0,1,0.4,1,1s-0.4,1-1,1C213.5,122,213,121.5,213,121z"/>
		</g>
	</g>
	<g>
		<g>
			<path fill="#010101" d="M169.7,204v-3.3l-3.1-4.7h1.9l2,3.2l2-3.2h1.9l-3.1,4.7v3.3H169.7z"/>
			<path fill="#010101" d="M175.2,204v-8h5.7v1.5h-4v1.7h3.9v1.5h-3.9v1.8h4v1.5H175.2z"/>
			<path fill="#010101" d="M181.7,202.9l0.9-1.3c0.6,0.6,1.4,1.1,2.5,1.1c0.9,0,1.4-0.4,1.4-0.9c0-1.4-4.6-0.4-4.6-3.5
				c0-1.3,1.2-2.4,3-2.4c1.3,0,2.3,0.4,3.1,1.1l-0.9,1.2c-0.6-0.6-1.5-0.9-2.3-0.9c-0.7,0-1.1,0.3-1.1,0.8c0,1.3,4.6,0.4,4.6,3.4
				c0,1.5-1,2.6-3.2,2.6C183.5,204.2,182.4,203.7,181.7,202.9z"/>
		</g>
		<g>
			<rect x="143.9" y="184.6" fill="#FFFFFF" width="67" height="30.9"/>
		</g>
		<g>
			<path fill="#231F20" d="M169.7,204v-3.3l-3.1-4.7h1.9l2,3.2l2-3.2h1.9l-3.1,4.7v3.3H169.7z"/>
			<path fill="#231F20" d="M175.2,204v-8h5.7v1.5h-4v1.7h3.9v1.5h-3.9v1.8h4v1.5H175.2z"/>
			<path fill="#231F20" d="M181.7,202.9l0.9-1.3c0.6,0.6,1.4,1.1,2.5,1.1c0.9,0,1.4-0.4,1.4-0.9c0-1.4-4.6-0.4-4.6-3.5
				c0-1.3,1.2-2.4,3-2.4c1.3,0,2.3,0.4,3.1,1.1l-0.9,1.2c-0.6-0.6-1.5-0.9-2.3-0.9c-0.7,0-1.1,0.3-1.1,0.8c0,1.3,4.6,0.4,4.6,3.4
				c0,1.5-1,2.6-3.2,2.6C183.5,204.2,182.4,203.7,181.7,202.9z"/>
		</g>
	</g>
	<g>
		<g>
			<path fill="#010101" d="M156.3,286.3l-0.5-1.4h-3.4l-0.5,1.4H150l3.1-8h2.1l3.1,8H156.3z M154.1,280l-1.2,3.4h2.5L154.1,280z"/>
			<path fill="#010101" d="M163.6,286.3l-1.6-2.8h-1.2v2.8H159v-8h3.7c1.7,0,2.7,1.1,2.7,2.6c0,1.4-0.9,2.2-1.8,2.4l1.8,3H163.6z
				 M163.7,280.8c0-0.7-0.5-1.1-1.2-1.1h-1.8v2.2h1.8C163.2,281.9,163.7,281.5,163.7,280.8z"/>
			<path fill="#010101" d="M166.7,286.3v-8h5.7v1.5h-4v1.7h3.9v1.5h-3.9v1.8h4v1.5H166.7z"/>
			<path fill="#010101" d="M179,286.3V283l-3.1-4.7h1.9l2,3.2l2-3.2h1.9l-3.1,4.7v3.3H179z"/>
			<path fill="#010101" d="M183.7,282.3c0-2.4,1.8-4.1,4.2-4.1c2.4,0,4.2,1.7,4.2,4.1c0,2.4-1.8,4.1-4.2,4.1
				C185.5,286.4,183.7,284.7,183.7,282.3z M190.3,282.3c0-1.5-1-2.6-2.4-2.6c-1.5,0-2.4,1.1-2.4,2.6c0,1.5,0.9,2.6,2.4,2.6
				C189.3,284.9,190.3,283.8,190.3,282.3z"/>
			<path fill="#010101" d="M193.3,283.1v-4.8h1.7v4.8c0,1.1,0.6,1.9,1.9,1.9s1.9-0.8,1.9-1.9v-4.8h1.7v4.8c0,2-1.2,3.3-3.6,3.3
				S193.3,285,193.3,283.1z"/>
			<path fill="#010101" d="M201.8,281.4c0-0.5,0.4-1,1-1s1,0.4,1,1c0,0.5-0.4,1-1,1S201.8,281.9,201.8,281.4z M201.8,285.4
				c0-0.5,0.4-1,1-1s1,0.4,1,1s-0.4,1-1,1S201.8,286,201.8,285.4z"/>
			<path fill="#010101" d="M91.8,300.7v-8h1.7v8H91.8z"/>
			<path fill="#010101" d="M100.6,300.7l-3.8-5.2v5.2h-1.7v-8h1.8l3.7,5v-5h1.7v8H100.6z"/>
			<path fill="#010101" d="M103.8,300.7v-8h3.2c2.5,0,4.2,1.6,4.2,4c0,2.4-1.7,4-4.2,4H103.8z M109.5,296.7c0-1.4-0.9-2.5-2.5-2.5
				h-1.5v5h1.5C108.6,299.2,109.5,298,109.5,296.7z"/>
			<path fill="#010101" d="M112.5,300.7v-8h1.7v8H112.5z"/>
			<path fill="#010101" d="M118,300.7l-3.1-8h1.9l2.2,6.2l2.2-6.2h1.9l-3.1,8H118z"/>
			<path fill="#010101" d="M123.9,300.7v-8h1.7v8H123.9z"/>
			<path fill="#010101" d="M127.2,300.7v-8h3.2c2.5,0,4.2,1.6,4.2,4c0,2.4-1.7,4-4.2,4H127.2z M132.9,296.7c0-1.4-0.9-2.5-2.5-2.5
				h-1.5v5h1.5C132,299.2,132.9,298,132.9,296.7z"/>
			<path fill="#010101" d="M135.9,297.5v-4.8h1.7v4.7c0,1.1,0.6,1.9,1.9,1.9s1.9-0.8,1.9-1.9v-4.7h1.7v4.8c0,2-1.2,3.3-3.6,3.3
				S135.9,299.4,135.9,297.5z"/>
			<path fill="#010101" d="M149.8,300.7l-0.5-1.4h-3.4l-0.5,1.4h-1.9l3.1-8h2.1l3.1,8H149.8z M147.6,294.4l-1.2,3.4h2.5L147.6,294.4
				z"/>
			<path fill="#010101" d="M152.5,300.7v-8h1.7v6.5h3.4v1.5H152.5z"/>
			<path fill="#010101" d="M157.9,300.9l2.8-8.5h1.1l-2.8,8.5H157.9z"/>
			<path fill="#010101" d="M168.2,300.7l-3.8-5.2v5.2h-1.7v-8h1.8l3.7,5v-5h1.7v8H168.2z"/>
			<path fill="#010101" d="M171,296.7c0-2.4,1.8-4.1,4.2-4.1c2.4,0,4.2,1.7,4.2,4.1c0,2.4-1.8,4.1-4.2,4.1
				C172.8,300.8,171,299.1,171,296.7z M177.7,296.7c0-1.5-1-2.6-2.4-2.6c-1.5,0-2.4,1.1-2.4,2.6c0,1.5,0.9,2.6,2.4,2.6
				C176.7,299.3,177.7,298.2,177.7,296.7z"/>
			<path fill="#010101" d="M186.1,300.7l-3.8-5.2v5.2h-1.7v-8h1.8l3.7,5v-5h1.7v8H186.1z"/>
			<path fill="#010101" d="M188.9,298.4v-1.3h2.9v1.3H188.9z"/>
			<path fill="#010101" d="M193,300.7v-8h1.7v8H193z"/>
			<path fill="#010101" d="M201.8,300.7l-3.8-5.2v5.2h-1.7v-8h1.8l3.7,5v-5h1.7v8H201.8z"/>
			<path fill="#010101" d="M205,300.7v-8h3.2c2.5,0,4.2,1.6,4.2,4c0,2.4-1.7,4-4.2,4H205z M210.7,296.7c0-1.4-0.9-2.5-2.5-2.5h-1.5
				v5h1.5C209.7,299.2,210.7,298,210.7,296.7z"/>
			<path fill="#010101" d="M213.6,300.7v-8h1.7v8H213.6z"/>
			<path fill="#010101" d="M219.1,300.7l-3.1-8h1.9l2.2,6.2l2.2-6.2h1.9l-3.1,8H219.1z"/>
			<path fill="#010101" d="M225.1,300.7v-8h1.7v8H225.1z"/>
			<path fill="#010101" d="M228.4,300.7v-8h3.2c2.5,0,4.2,1.6,4.2,4c0,2.4-1.7,4-4.2,4H228.4z M234.1,296.7c0-1.4-0.9-2.5-2.5-2.5
				h-1.5v5h1.5C233.1,299.2,234.1,298,234.1,296.7z"/>
			<path fill="#010101" d="M237,297.5v-4.8h1.7v4.7c0,1.1,0.6,1.9,1.9,1.9s1.9-0.8,1.9-1.9v-4.7h1.7v4.8c0,2-1.2,3.3-3.6,3.3
				S237,299.4,237,297.5z"/>
			<path fill="#010101" d="M250.9,300.7l-0.5-1.4H247l-0.5,1.4h-1.9l3.1-8h2.1l3.1,8H250.9z M248.7,294.4l-1.2,3.4h2.5L248.7,294.4z
				"/>
			<path fill="#010101" d="M253.6,300.7v-8h1.7v6.5h3.4v1.5H253.6z"/>
			<path fill="#010101" d="M259.6,297.2c0-1.4,1.8-1.6,1.8-2.4c0-0.4-0.3-0.7-0.9-0.7c-0.6,0-1.1,0.3-1.5,0.7l-1-1.1
				c0.6-0.7,1.6-1.2,2.6-1.2c1.5,0,2.5,0.8,2.5,1.9c0,1.8-2,1.9-2,2.9c0,0.2,0.1,0.4,0.2,0.5l-1.3,0.4
				C259.7,297.9,259.6,297.6,259.6,297.2z M259.6,299.8c0-0.5,0.4-1,1-1c0.5,0,1,0.4,1,1c0,0.5-0.4,1-1,1
				C260,300.8,259.6,300.4,259.6,299.8z"/>
		</g>
		<g>
			<rect x="69.1" y="266.8" fill="#E5E5E5" width="216.6" height="45.4"/>
		</g>
		<g>
			<path fill="#231F20" d="M156.3,286.3l-0.5-1.4h-3.4l-0.5,1.4H150l3.1-8h2.1l3.1,8H156.3z M154.1,280l-1.2,3.4h2.5L154.1,280z"/>
			<path fill="#231F20" d="M163.6,286.3l-1.6-2.8h-1.2v2.8H159v-8h3.7c1.7,0,2.7,1.1,2.7,2.6c0,1.4-0.9,2.2-1.8,2.4l1.8,3H163.6z
				 M163.7,280.8c0-0.7-0.5-1.1-1.2-1.1h-1.8v2.2h1.8C163.2,281.9,163.7,281.5,163.7,280.8z"/>
			<path fill="#231F20" d="M166.7,286.3v-8h5.7v1.5h-4v1.7h3.9v1.5h-3.9v1.8h4v1.5H166.7z"/>
			<path fill="#231F20" d="M179,286.3V283l-3.1-4.7h1.9l2,3.2l2-3.2h1.9l-3.1,4.7v3.3H179z"/>
			<path fill="#231F20" d="M183.7,282.3c0-2.4,1.8-4.1,4.2-4.1c2.4,0,4.2,1.7,4.2,4.1c0,2.4-1.8,4.1-4.2,4.1
				C185.5,286.4,183.7,284.7,183.7,282.3z M190.3,282.3c0-1.5-1-2.6-2.4-2.6c-1.5,0-2.4,1.1-2.4,2.6c0,1.5,0.9,2.6,2.4,2.6
				C189.3,284.9,190.3,283.8,190.3,282.3z"/>
			<path fill="#231F20" d="M193.3,283.1v-4.8h1.7v4.8c0,1.1,0.6,1.9,1.9,1.9s1.9-0.8,1.9-1.9v-4.8h1.7v4.8c0,2-1.2,3.3-3.6,3.3
				S193.3,285,193.3,283.1z"/>
			<path fill="#231F20" d="M201.8,281.4c0-0.5,0.4-1,1-1s1,0.4,1,1c0,0.5-0.4,1-1,1S201.8,281.9,201.8,281.4z M201.8,285.4
				c0-0.5,0.4-1,1-1s1,0.4,1,1s-0.4,1-1,1S201.8,286,201.8,285.4z"/>
			<path fill="#231F20" d="M91.8,300.7v-8h1.7v8H91.8z"/>
			<path fill="#231F20" d="M100.6,300.7l-3.8-5.2v5.2h-1.7v-8h1.8l3.7,5v-5h1.7v8H100.6z"/>
			<path fill="#231F20" d="M103.8,300.7v-8h3.2c2.5,0,4.2,1.6,4.2,4c0,2.4-1.7,4-4.2,4H103.8z M109.5,296.7c0-1.4-0.9-2.5-2.5-2.5
				h-1.5v5h1.5C108.6,299.2,109.5,298,109.5,296.7z"/>
			<path fill="#231F20" d="M112.5,300.7v-8h1.7v8H112.5z"/>
			<path fill="#231F20" d="M118,300.7l-3.1-8h1.9l2.2,6.2l2.2-6.2h1.9l-3.1,8H118z"/>
			<path fill="#231F20" d="M123.9,300.7v-8h1.7v8H123.9z"/>
			<path fill="#231F20" d="M127.2,300.7v-8h3.2c2.5,0,4.2,1.6,4.2,4c0,2.4-1.7,4-4.2,4H127.2z M132.9,296.7c0-1.4-0.9-2.5-2.5-2.5
				h-1.5v5h1.5C132,299.2,132.9,298,132.9,296.7z"/>
			<path fill="#231F20" d="M135.9,297.5v-4.8h1.7v4.7c0,1.1,0.6,1.9,1.9,1.9s1.9-0.8,1.9-1.9v-4.7h1.7v4.8c0,2-1.2,3.3-3.6,3.3
				S135.9,299.4,135.9,297.5z"/>
			<path fill="#231F20" d="M149.8,300.7l-0.5-1.4h-3.4l-0.5,1.4h-1.9l3.1-8h2.1l3.1,8H149.8z M147.6,294.4l-1.2,3.4h2.5L147.6,294.4
				z"/>
			<path fill="#231F20" d="M152.5,300.7v-8h1.7v6.5h3.4v1.5H152.5z"/>
			<path fill="#231F20" d="M157.9,300.9l2.8-8.5h1.1l-2.8,8.5H157.9z"/>
			<path fill="#231F20" d="M168.2,300.7l-3.8-5.2v5.2h-1.7v-8h1.8l3.7,5v-5h1.7v8H168.2z"/>
			<path fill="#231F20" d="M171,296.7c0-2.4,1.8-4.1,4.2-4.1c2.4,0,4.2,1.7,4.2,4.1c0,2.4-1.8,4.1-4.2,4.1
				C172.8,300.8,171,299.1,171,296.7z M177.7,296.7c0-1.5-1-2.6-2.4-2.6c-1.5,0-2.4,1.1-2.4,2.6c0,1.5,0.9,2.6,2.4,2.6
				C176.7,299.3,177.7,298.2,177.7,296.7z"/>
			<path fill="#231F20" d="M186.1,300.7l-3.8-5.2v5.2h-1.7v-8h1.8l3.7,5v-5h1.7v8H186.1z"/>
			<path fill="#231F20" d="M188.9,298.4v-1.3h2.9v1.3H188.9z"/>
			<path fill="#231F20" d="M193,300.7v-8h1.7v8H193z"/>
			<path fill="#231F20" d="M201.8,300.7l-3.8-5.2v5.2h-1.7v-8h1.8l3.7,5v-5h1.7v8H201.8z"/>
			<path fill="#231F20" d="M205,300.7v-8h3.2c2.5,0,4.2,1.6,4.2,4c0,2.4-1.7,4-4.2,4H205z M210.7,296.7c0-1.4-0.9-2.5-2.5-2.5h-1.5
				v5h1.5C209.7,299.2,210.7,298,210.7,296.7z"/>
			<path fill="#231F20" d="M213.6,300.7v-8h1.7v8H213.6z"/>
			<path fill="#231F20" d="M219.1,300.7l-3.1-8h1.9l2.2,6.2l2.2-6.2h1.9l-3.1,8H219.1z"/>
			<path fill="#231F20" d="M225.1,300.7v-8h1.7v8H225.1z"/>
			<path fill="#231F20" d="M228.4,300.7v-8h3.2c2.5,0,4.2,1.6,4.2,4c0,2.4-1.7,4-4.2,4H228.4z M234.1,296.7c0-1.4-0.9-2.5-2.5-2.5
				h-1.5v5h1.5C233.1,299.2,234.1,298,234.1,296.7z"/>
			<path fill="#231F20" d="M237,297.5v-4.8h1.7v4.7c0,1.1,0.6,1.9,1.9,1.9s1.9-0.8,1.9-1.9v-4.7h1.7v4.8c0,2-1.2,3.3-3.6,3.3
				S237,299.4,237,297.5z"/>
			<path fill="#231F20" d="M250.9,300.7l-0.5-1.4H247l-0.5,1.4h-1.9l3.1-8h2.1l3.1,8H250.9z M248.7,294.4l-1.2,3.4h2.5L248.7,294.4z
				"/>
			<path fill="#231F20" d="M253.6,300.7v-8h1.7v6.5h3.4v1.5H253.6z"/>
			<path fill="#231F20" d="M259.6,297.2c0-1.4,1.8-1.6,1.8-2.4c0-0.4-0.3-0.7-0.9-0.7c-0.6,0-1.1,0.3-1.5,0.7l-1-1.1
				c0.6-0.7,1.6-1.2,2.6-1.2c1.5,0,2.5,0.8,2.5,1.9c0,1.8-2,1.9-2,2.9c0,0.2,0.1,0.4,0.2,0.5l-1.3,0.4
				C259.7,297.9,259.6,297.6,259.6,297.2z M259.6,299.8c0-0.5,0.4-1,1-1c0.5,0,1,0.4,1,1c0,0.5-0.4,1-1,1
				C260,300.8,259.6,300.4,259.6,299.8z"/>
		</g>
	</g>
	<g>
		<g>
			<path fill="#010101" d="M140.9,465.1l-0.5-1.4H137l-0.5,1.4h-1.9l3.1-8h2.1l3.1,8H140.9z M138.7,458.8l-1.2,3.4h2.5L138.7,458.8z
				"/>
			<path fill="#010101" d="M143.6,465.1v-8h3.7c1.7,0,2.7,1.2,2.7,2.6c0,1.4-1,2.6-2.7,2.6h-2v2.8H143.6z M148.3,459.7
				c0-0.7-0.5-1.1-1.2-1.1h-1.8v2.2h1.8C147.8,460.7,148.3,460.3,148.3,459.7z"/>
			<path fill="#010101" d="M151.1,465.1v-8h3.7c1.7,0,2.7,1.2,2.7,2.6c0,1.4-1,2.6-2.7,2.6h-2v2.8H151.1z M155.8,459.7
				c0-0.7-0.5-1.1-1.2-1.1h-1.8v2.2h1.8C155.2,460.7,155.8,460.3,155.8,459.7z"/>
			<path fill="#010101" d="M158.5,465.1v-8h1.7v6.5h3.4v1.5H158.5z"/>
			<path fill="#010101" d="M165.5,465.1v-3.3l-3.1-4.7h1.9l2,3.2l2-3.2h1.9l-3.1,4.7v3.3H165.5z"/>
			<path fill="#010101" d="M171,465.1v-8h1.7v8H171z"/>
			<path fill="#010101" d="M179.8,465.1l-3.8-5.2v5.2h-1.7v-8h1.8l3.7,5v-5h1.7v8H179.8z"/>
			<path fill="#010101" d="M182.7,461.1c0-2.5,1.9-4.1,4.3-4.1c1.7,0,2.7,0.8,3.3,1.8l-1.4,0.8c-0.4-0.6-1-1-1.9-1
				c-1.5,0-2.5,1.1-2.5,2.6c0,1.5,1.1,2.6,2.5,2.6c0.7,0,1.4-0.3,1.7-0.6v-1h-2.1v-1.5h3.8v3.1c-0.8,0.9-2,1.5-3.4,1.5
				C184.6,465.2,182.7,463.6,182.7,461.1z"/>
			<path fill="#010101" d="M194.8,465.1v-8h5.7v1.5h-4v1.7h3.9v1.5h-3.9v3.3H194.8z"/>
			<path fill="#010101" d="M201.3,461.1c0-2.4,1.8-4.1,4.2-4.1c2.4,0,4.2,1.7,4.2,4.1c0,2.4-1.8,4.1-4.2,4.1
				C203,465.2,201.3,463.5,201.3,461.1z M207.9,461.1c0-1.5-1-2.6-2.4-2.6c-1.5,0-2.4,1.1-2.4,2.6c0,1.5,0.9,2.6,2.4,2.6
				C206.9,463.7,207.9,462.6,207.9,461.1z"/>
			<path fill="#010101" d="M215.3,465.1l-1.6-2.8h-1.2v2.8h-1.7v-8h3.7c1.7,0,2.7,1.1,2.7,2.6c0,1.4-0.9,2.2-1.8,2.4l1.8,3H215.3z
				 M215.5,459.7c0-0.7-0.5-1.1-1.2-1.1h-1.8v2.2h1.8C215,460.7,215.5,460.3,215.5,459.7z"/>
			<path fill="#010101" d="M218.3,460.2c0-0.5,0.4-1,1-1s1,0.4,1,1c0,0.5-0.4,1-1,1S218.3,460.7,218.3,460.2z M218.3,464.3
				c0-0.5,0.4-1,1-1s1,0.4,1,1c0,0.5-0.4,1-1,1S218.3,464.8,218.3,464.3z"/>
			<path fill="#010101" d="M58.6,479.5v-3.3l-3.1-4.7h1.9l2,3.2l2-3.2h1.9l-3.1,4.7v3.3H58.6z"/>
			<path fill="#010101" d="M63.3,475.5c0-2.4,1.8-4.1,4.2-4.1c2.4,0,4.2,1.7,4.2,4.1c0,2.4-1.8,4.1-4.2,4.1
				C65,479.6,63.3,477.9,63.3,475.5z M69.9,475.5c0-1.5-1-2.6-2.4-2.6c-1.5,0-2.4,1.1-2.4,2.6c0,1.5,0.9,2.6,2.4,2.6
				C68.9,478.1,69.9,477,69.9,475.5z"/>
			<path fill="#010101" d="M72.8,476.3v-4.8h1.7v4.8c0,1.1,0.6,1.9,1.9,1.9s1.9-0.8,1.9-1.9v-4.8H80v4.8c0,2-1.2,3.3-3.6,3.3
				S72.8,478.3,72.8,476.3z"/>
			<path fill="#010101" d="M86.1,479.5l-1.6-2.8h-1.2v2.8h-1.7v-8h3.7c1.7,0,2.7,1.1,2.7,2.6c0,1.4-0.9,2.2-1.8,2.4l1.8,3H86.1z
				 M86.3,474.1c0-0.7-0.5-1.1-1.2-1.1h-1.8v2.2h1.8C85.8,475.1,86.3,474.7,86.3,474.1z"/>
			<path fill="#010101" d="M88.8,478.4l0.9-1.3c0.6,0.6,1.4,1.1,2.5,1.1c0.9,0,1.4-0.4,1.4-0.9c0-1.4-4.6-0.4-4.6-3.5
				c0-1.3,1.2-2.4,3-2.4c1.3,0,2.3,0.4,3.1,1.1l-0.9,1.2c-0.6-0.6-1.5-0.9-2.3-0.9c-0.7,0-1.1,0.3-1.1,0.8c0,1.3,4.6,0.4,4.6,3.4
				c0,1.5-1,2.6-3.2,2.6C90.6,479.6,89.5,479.1,88.8,478.4z"/>
			<path fill="#010101" d="M96.5,479.5v-8h5.7v1.5h-4v1.7h3.9v1.5h-3.9v1.8h4v1.5H96.5z"/>
			<path fill="#010101" d="M103.5,479.5v-8h1.7v6.5h3.4v1.5H103.5z"/>
			<path fill="#010101" d="M109.8,479.5v-8h5.7v1.5h-4v1.7h3.9v1.5h-3.9v3.3H109.8z"/>
			<path fill="#010101" d="M118.9,479.7l2.8-8.5h1.1l-2.8,8.5H118.9z"/>
			<path fill="#010101" d="M132.3,479.5l-0.5-1.4h-3.4l-0.5,1.4h-1.9l3.1-8h2.1l3.1,8H132.3z M130.1,473.2l-1.2,3.4h2.5L130.1,473.2
				z"/>
			<path fill="#010101" d="M137.6,475.5c0-2.5,1.9-4.1,4.3-4.1c1.8,0,2.8,1,3.3,2l-1.5,0.7c-0.3-0.6-1.1-1.2-1.9-1.2
				c-1.5,0-2.5,1.1-2.5,2.6c0,1.5,1.1,2.6,2.5,2.6c0.8,0,1.5-0.5,1.9-1.2l1.5,0.7c-0.6,1-1.6,2-3.3,2
				C139.5,479.6,137.6,478,137.6,475.5z"/>
			<path fill="#010101" d="M151.7,479.5v-3.4H148v3.4h-1.7v-8h1.7v3.1h3.8v-3.1h1.7v8H151.7z"/>
			<path fill="#010101" d="M155,479.5v-8h1.7v8H155z"/>
			<path fill="#010101" d="M158.3,479.5v-8h1.7v6.5h3.4v1.5H158.3z"/>
			<path fill="#010101" d="M164.6,479.5v-8h3.2c2.5,0,4.2,1.6,4.2,4c0,2.4-1.7,4-4.2,4H164.6z M170.3,475.5c0-1.4-0.9-2.5-2.5-2.5
				h-1.5v5h1.5C169.3,478,170.3,476.9,170.3,475.5z"/>
			<path fill="#010101" d="M176.3,476.3v-4.8h1.7v4.8c0,1.1,0.6,1.9,1.9,1.9s1.9-0.8,1.9-1.9v-4.8h1.7v4.8c0,2-1.2,3.3-3.6,3.3
				S176.3,478.3,176.3,476.3z"/>
			<path fill="#010101" d="M190.6,479.5l-3.8-5.2v5.2h-1.7v-8h1.8l3.7,5v-5h1.7v8H190.6z"/>
			<path fill="#010101" d="M193.8,479.5v-8h3.2c2.5,0,4.2,1.6,4.2,4c0,2.4-1.7,4-4.2,4H193.8z M199.5,475.5c0-1.4-0.9-2.5-2.5-2.5
				h-1.5v5h1.5C198.6,478,199.5,476.9,199.5,475.5z"/>
			<path fill="#010101" d="M202.5,479.5v-8h5.7v1.5h-4v1.7h3.9v1.5h-3.9v1.8h4v1.5H202.5z"/>
			<path fill="#010101" d="M214,479.5l-1.6-2.8h-1.2v2.8h-1.7v-8h3.7c1.7,0,2.7,1.1,2.7,2.6c0,1.4-0.9,2.2-1.8,2.4l1.8,3H214z
				 M214.1,474.1c0-0.7-0.5-1.1-1.2-1.1h-1.8v2.2h1.8C213.6,475.1,214.1,474.7,214.1,474.1z"/>
			<path fill="#010101" d="M221.9,479.5v-5.8l-1.3,1.4l-1-1l2.5-2.5h1.5v8H221.9z"/>
			<path fill="#010101" d="M224.8,475.5c0-2.4,1.4-4.1,3.7-4.1c1,0,1.8,0.3,2.4,0.8l-0.8,1.3c-0.4-0.4-0.9-0.6-1.6-0.6
				c-1.2,0-2,1-2,2.3c0,0.1,0,0.1,0,0.2c0.4-0.5,1.2-1,2.1-1c1.4,0,2.7,0.9,2.7,2.6c0,1.6-1.2,2.7-3.1,2.7
				C225.8,479.6,224.8,477.8,224.8,475.5z M229.6,476.9c0-0.8-0.7-1.2-1.5-1.2c-0.6,0-1.2,0.3-1.6,0.8c0.1,0.8,0.5,1.6,1.6,1.6
				C229.1,478.1,229.6,477.5,229.6,476.9z"/>
			<path fill="#010101" d="M237.8,479.5v-3.3l-3.1-4.7h1.9l2,3.2l2-3.2h1.9l-3.1,4.7v3.3H237.8z"/>
			<path fill="#010101" d="M243.3,479.5v-8h5.7v1.5h-4v1.7h3.9v1.5H245v1.8h4v1.5H243.3z"/>
			<path fill="#010101" d="M255.8,479.5l-0.5-1.4h-3.4l-0.5,1.4h-1.9l3.1-8h2.1l3.1,8H255.8z M253.6,473.2l-1.2,3.4h2.5L253.6,473.2
				z"/>
			<path fill="#010101" d="M263,479.5l-1.6-2.8h-1.2v2.8h-1.7v-8h3.7c1.7,0,2.7,1.1,2.7,2.6c0,1.4-0.9,2.2-1.8,2.4l1.8,3H263z
				 M263.2,474.1c0-0.7-0.5-1.1-1.2-1.1h-1.8v2.2h1.8C262.7,475.1,263.2,474.7,263.2,474.1z"/>
			<path fill="#010101" d="M265.7,478.4l0.9-1.3c0.6,0.6,1.4,1.1,2.5,1.1c0.9,0,1.4-0.4,1.4-0.9c0-1.4-4.6-0.4-4.6-3.5
				c0-1.3,1.2-2.4,3-2.4c1.3,0,2.3,0.4,3.1,1.1l-0.9,1.2c-0.6-0.6-1.5-0.9-2.3-0.9c-0.7,0-1.1,0.3-1.1,0.8c0,1.3,4.6,0.4,4.6,3.4
				c0,1.5-1,2.6-3.2,2.6C267.5,479.6,266.4,479.1,265.7,478.4z"/>
			<path fill="#010101" d="M276.1,475.5c0-2.4,1.8-4.1,4.2-4.1c2.4,0,4.2,1.7,4.2,4.1c0,2.4-1.8,4.1-4.2,4.1
				C277.8,479.6,276.1,477.9,276.1,475.5z M282.7,475.5c0-1.5-1-2.6-2.4-2.6c-1.5,0-2.4,1.1-2.4,2.6c0,1.5,0.9,2.6,2.4,2.6
				C281.7,478.1,282.7,477,282.7,475.5z"/>
			<path fill="#010101" d="M285.6,479.5v-8h1.7v6.5h3.4v1.5H285.6z"/>
			<path fill="#010101" d="M291.9,479.5v-8h3.2c2.5,0,4.2,1.6,4.2,4c0,2.4-1.7,4-4.2,4H291.9z M297.6,475.5c0-1.4-0.9-2.5-2.5-2.5
				h-1.5v5h1.5C296.7,478,297.6,476.9,297.6,475.5z"/>
		</g>
		<g>
			<rect x="32.8" y="445.6" fill="#E5E5E5" width="289.2" height="45.4"/>
		</g>
		<g>
			<path fill="#231F20" d="M140.9,465.1l-0.5-1.4H137l-0.5,1.4h-1.9l3.1-8h2.1l3.1,8H140.9z M138.7,458.8l-1.2,3.4h2.5L138.7,458.8z
				"/>
			<path fill="#231F20" d="M143.6,465.1v-8h3.7c1.7,0,2.7,1.2,2.7,2.6c0,1.4-1,2.6-2.7,2.6h-2v2.8H143.6z M148.3,459.7
				c0-0.7-0.5-1.1-1.2-1.1h-1.8v2.2h1.8C147.8,460.7,148.3,460.3,148.3,459.7z"/>
			<path fill="#231F20" d="M151.1,465.1v-8h3.7c1.7,0,2.7,1.2,2.7,2.6c0,1.4-1,2.6-2.7,2.6h-2v2.8H151.1z M155.8,459.7
				c0-0.7-0.5-1.1-1.2-1.1h-1.8v2.2h1.8C155.2,460.7,155.8,460.3,155.8,459.7z"/>
			<path fill="#231F20" d="M158.5,465.1v-8h1.7v6.5h3.4v1.5H158.5z"/>
			<path fill="#231F20" d="M165.5,465.1v-3.3l-3.1-4.7h1.9l2,3.2l2-3.2h1.9l-3.1,4.7v3.3H165.5z"/>
			<path fill="#231F20" d="M171,465.1v-8h1.7v8H171z"/>
			<path fill="#231F20" d="M179.8,465.1l-3.8-5.2v5.2h-1.7v-8h1.8l3.7,5v-5h1.7v8H179.8z"/>
			<path fill="#231F20" d="M182.7,461.1c0-2.5,1.9-4.1,4.3-4.1c1.7,0,2.7,0.8,3.3,1.8l-1.4,0.8c-0.4-0.6-1-1-1.9-1
				c-1.5,0-2.5,1.1-2.5,2.6c0,1.5,1.1,2.6,2.5,2.6c0.7,0,1.4-0.3,1.7-0.6v-1h-2.1v-1.5h3.8v3.1c-0.8,0.9-2,1.5-3.4,1.5
				C184.6,465.2,182.7,463.6,182.7,461.1z"/>
			<path fill="#231F20" d="M194.8,465.1v-8h5.7v1.5h-4v1.7h3.9v1.5h-3.9v3.3H194.8z"/>
			<path fill="#231F20" d="M201.3,461.1c0-2.4,1.8-4.1,4.2-4.1c2.4,0,4.2,1.7,4.2,4.1c0,2.4-1.8,4.1-4.2,4.1
				C203,465.2,201.3,463.5,201.3,461.1z M207.9,461.1c0-1.5-1-2.6-2.4-2.6c-1.5,0-2.4,1.1-2.4,2.6c0,1.5,0.9,2.6,2.4,2.6
				C206.9,463.7,207.9,462.6,207.9,461.1z"/>
			<path fill="#231F20" d="M215.3,465.1l-1.6-2.8h-1.2v2.8h-1.7v-8h3.7c1.7,0,2.7,1.1,2.7,2.6c0,1.4-0.9,2.2-1.8,2.4l1.8,3H215.3z
				 M215.5,459.7c0-0.7-0.5-1.1-1.2-1.1h-1.8v2.2h1.8C215,460.7,215.5,460.3,215.5,459.7z"/>
			<path fill="#231F20" d="M218.3,460.2c0-0.5,0.4-1,1-1s1,0.4,1,1c0,0.5-0.4,1-1,1S218.3,460.7,218.3,460.2z M218.3,464.3
				c0-0.5,0.4-1,1-1s1,0.4,1,1c0,0.5-0.4,1-1,1S218.3,464.8,218.3,464.3z"/>
			<path fill="#231F20" d="M58.6,479.5v-3.3l-3.1-4.7h1.9l2,3.2l2-3.2h1.9l-3.1,4.7v3.3H58.6z"/>
			<path fill="#231F20" d="M63.3,475.5c0-2.4,1.8-4.1,4.2-4.1c2.4,0,4.2,1.7,4.2,4.1c0,2.4-1.8,4.1-4.2,4.1
				C65,479.6,63.3,477.9,63.3,475.5z M69.9,475.5c0-1.5-1-2.6-2.4-2.6c-1.5,0-2.4,1.1-2.4,2.6c0,1.5,0.9,2.6,2.4,2.6
				C68.9,478.1,69.9,477,69.9,475.5z"/>
			<path fill="#231F20" d="M72.8,476.3v-4.8h1.7v4.8c0,1.1,0.6,1.9,1.9,1.9s1.9-0.8,1.9-1.9v-4.8H80v4.8c0,2-1.2,3.3-3.6,3.3
				S72.8,478.3,72.8,476.3z"/>
			<path fill="#231F20" d="M86.1,479.5l-1.6-2.8h-1.2v2.8h-1.7v-8h3.7c1.7,0,2.7,1.1,2.7,2.6c0,1.4-0.9,2.2-1.8,2.4l1.8,3H86.1z
				 M86.3,474.1c0-0.7-0.5-1.1-1.2-1.1h-1.8v2.2h1.8C85.8,475.1,86.3,474.7,86.3,474.1z"/>
			<path fill="#231F20" d="M88.8,478.4l0.9-1.3c0.6,0.6,1.4,1.1,2.5,1.1c0.9,0,1.4-0.4,1.4-0.9c0-1.4-4.6-0.4-4.6-3.5
				c0-1.3,1.2-2.4,3-2.4c1.3,0,2.3,0.4,3.1,1.1l-0.9,1.2c-0.6-0.6-1.5-0.9-2.3-0.9c-0.7,0-1.1,0.3-1.1,0.8c0,1.3,4.6,0.4,4.6,3.4
				c0,1.5-1,2.6-3.2,2.6C90.6,479.6,89.5,479.1,88.8,478.4z"/>
			<path fill="#231F20" d="M96.5,479.5v-8h5.7v1.5h-4v1.7h3.9v1.5h-3.9v1.8h4v1.5H96.5z"/>
			<path fill="#231F20" d="M103.5,479.5v-8h1.7v6.5h3.4v1.5H103.5z"/>
			<path fill="#231F20" d="M109.8,479.5v-8h5.7v1.5h-4v1.7h3.9v1.5h-3.9v3.3H109.8z"/>
			<path fill="#231F20" d="M118.9,479.7l2.8-8.5h1.1l-2.8,8.5H118.9z"/>
			<path fill="#231F20" d="M132.3,479.5l-0.5-1.4h-3.4l-0.5,1.4h-1.9l3.1-8h2.1l3.1,8H132.3z M130.1,473.2l-1.2,3.4h2.5L130.1,473.2
				z"/>
			<path fill="#231F20" d="M137.6,475.5c0-2.5,1.9-4.1,4.3-4.1c1.8,0,2.8,1,3.3,2l-1.5,0.7c-0.3-0.6-1.1-1.2-1.9-1.2
				c-1.5,0-2.5,1.1-2.5,2.6c0,1.5,1.1,2.6,2.5,2.6c0.8,0,1.5-0.5,1.9-1.2l1.5,0.7c-0.6,1-1.6,2-3.3,2
				C139.5,479.6,137.6,478,137.6,475.5z"/>
			<path fill="#231F20" d="M151.7,479.5v-3.4H148v3.4h-1.7v-8h1.7v3.1h3.8v-3.1h1.7v8H151.7z"/>
			<path fill="#231F20" d="M155,479.5v-8h1.7v8H155z"/>
			<path fill="#231F20" d="M158.3,479.5v-8h1.7v6.5h3.4v1.5H158.3z"/>
			<path fill="#231F20" d="M164.6,479.5v-8h3.2c2.5,0,4.2,1.6,4.2,4c0,2.4-1.7,4-4.2,4H164.6z M170.3,475.5c0-1.4-0.9-2.5-2.5-2.5
				h-1.5v5h1.5C169.3,478,170.3,476.9,170.3,475.5z"/>
			<path fill="#231F20" d="M176.3,476.3v-4.8h1.7v4.8c0,1.1,0.6,1.9,1.9,1.9s1.9-0.8,1.9-1.9v-4.8h1.7v4.8c0,2-1.2,3.3-3.6,3.3
				S176.3,478.3,176.3,476.3z"/>
			<path fill="#231F20" d="M190.6,479.5l-3.8-5.2v5.2h-1.7v-8h1.8l3.7,5v-5h1.7v8H190.6z"/>
			<path fill="#231F20" d="M193.8,479.5v-8h3.2c2.5,0,4.2,1.6,4.2,4c0,2.4-1.7,4-4.2,4H193.8z M199.5,475.5c0-1.4-0.9-2.5-2.5-2.5
				h-1.5v5h1.5C198.6,478,199.5,476.9,199.5,475.5z"/>
			<path fill="#231F20" d="M202.5,479.5v-8h5.7v1.5h-4v1.7h3.9v1.5h-3.9v1.8h4v1.5H202.5z"/>
			<path fill="#231F20" d="M214,479.5l-1.6-2.8h-1.2v2.8h-1.7v-8h3.7c1.7,0,2.7,1.1,2.7,2.6c0,1.4-0.9,2.2-1.8,2.4l1.8,3H214z
				 M214.1,474.1c0-0.7-0.5-1.1-1.2-1.1h-1.8v2.2h1.8C213.6,475.1,214.1,474.7,214.1,474.1z"/>
			<path fill="#231F20" d="M221.9,479.5v-5.8l-1.3,1.4l-1-1l2.5-2.5h1.5v8H221.9z"/>
			<path fill="#231F20" d="M224.8,475.5c0-2.4,1.4-4.1,3.7-4.1c1,0,1.8,0.3,2.4,0.8l-0.8,1.3c-0.4-0.4-0.9-0.6-1.6-0.6
				c-1.2,0-2,1-2,2.3c0,0.1,0,0.1,0,0.2c0.4-0.5,1.2-1,2.1-1c1.4,0,2.7,0.9,2.7,2.6c0,1.6-1.2,2.7-3.1,2.7
				C225.8,479.6,224.8,477.8,224.8,475.5z M229.6,476.9c0-0.8-0.7-1.2-1.5-1.2c-0.6,0-1.2,0.3-1.6,0.8c0.1,0.8,0.5,1.6,1.6,1.6
				C229.1,478.1,229.6,477.5,229.6,476.9z"/>
			<path fill="#231F20" d="M237.8,479.5v-3.3l-3.1-4.7h1.9l2,3.2l2-3.2h1.9l-3.1,4.7v3.3H237.8z"/>
			<path fill="#231F20" d="M243.3,479.5v-8h5.7v1.5h-4v1.7h3.9v1.5H245v1.8h4v1.5H243.3z"/>
			<path fill="#231F20" d="M255.8,479.5l-0.5-1.4h-3.4l-0.5,1.4h-1.9l3.1-8h2.1l3.1,8H255.8z M253.6,473.2l-1.2,3.4h2.5L253.6,473.2
				z"/>
			<path fill="#231F20" d="M263,479.5l-1.6-2.8h-1.2v2.8h-1.7v-8h3.7c1.7,0,2.7,1.1,2.7,2.6c0,1.4-0.9,2.2-1.8,2.4l1.8,3H263z
				 M263.2,474.1c0-0.7-0.5-1.1-1.2-1.1h-1.8v2.2h1.8C262.7,475.1,263.2,474.7,263.2,474.1z"/>
			<path fill="#231F20" d="M265.7,478.4l0.9-1.3c0.6,0.6,1.4,1.1,2.5,1.1c0.9,0,1.4-0.4,1.4-0.9c0-1.4-4.6-0.4-4.6-3.5
				c0-1.3,1.2-2.4,3-2.4c1.3,0,2.3,0.4,3.1,1.1l-0.9,1.2c-0.6-0.6-1.5-0.9-2.3-0.9c-0.7,0-1.1,0.3-1.1,0.8c0,1.3,4.6,0.4,4.6,3.4
				c0,1.5-1,2.6-3.2,2.6C267.5,479.6,266.4,479.1,265.7,478.4z"/>
			<path fill="#231F20" d="M276.1,475.5c0-2.4,1.8-4.1,4.2-4.1c2.4,0,4.2,1.7,4.2,4.1c0,2.4-1.8,4.1-4.2,4.1
				C277.8,479.6,276.1,477.9,276.1,475.5z M282.7,475.5c0-1.5-1-2.6-2.4-2.6c-1.5,0-2.4,1.1-2.4,2.6c0,1.5,0.9,2.6,2.4,2.6
				C281.7,478.1,282.7,477,282.7,475.5z"/>
			<path fill="#231F20" d="M285.6,479.5v-8h1.7v6.5h3.4v1.5H285.6z"/>
			<path fill="#231F20" d="M291.9,479.5v-8h3.2c2.5,0,4.2,1.6,4.2,4c0,2.4-1.7,4-4.2,4H291.9z M297.6,475.5c0-1.4-0.9-2.5-2.5-2.5
				h-1.5v5h1.5C296.7,478,297.6,476.9,297.6,475.5z"/>
		</g>
	</g>
	<g>
		<g>
			<path fill="#010101" d="M144.6,382.9v-8h1.7v8H144.6z"/>
			<path fill="#010101" d="M153.4,382.9l-3.8-5.2v5.2h-1.7v-8h1.8l3.7,5v-5h1.7v8H153.4z"/>
			<path fill="#010101" d="M156.6,382.9v-8h3.2c2.5,0,4.2,1.6,4.2,4c0,2.4-1.7,4-4.2,4H156.6z M162.2,378.9c0-1.4-0.9-2.5-2.5-2.5
				h-1.5v5h1.5C161.3,381.4,162.2,380.2,162.2,378.9z"/>
			<path fill="#010101" d="M165.2,382.9v-8h1.7v8H165.2z"/>
			<path fill="#010101" d="M170.7,382.9l-3.1-8h1.9l2.2,6.2l2.2-6.2h1.9l-3.1,8H170.7z"/>
			<path fill="#010101" d="M176.7,382.9v-8h1.7v8H176.7z"/>
			<path fill="#010101" d="M180,382.9v-8h3.2c2.5,0,4.2,1.6,4.2,4c0,2.4-1.7,4-4.2,4H180z M185.6,378.9c0-1.4-0.9-2.5-2.5-2.5h-1.5
				v5h1.5C184.7,381.4,185.6,380.2,185.6,378.9z"/>
			<path fill="#010101" d="M188.6,379.7v-4.8h1.7v4.8c0,1.1,0.6,1.9,1.9,1.9s1.9-0.8,1.9-1.9v-4.8h1.7v4.8c0,2-1.2,3.3-3.6,3.3
				S188.6,381.6,188.6,379.7z"/>
			<path fill="#010101" d="M202.5,382.9l-0.5-1.4h-3.4l-0.5,1.4h-1.9l3.1-8h2.1l3.1,8H202.5z M200.3,376.6l-1.2,3.4h2.5L200.3,376.6
				z"/>
			<path fill="#010101" d="M205.2,382.9v-8h1.7v6.5h3.4v1.5H205.2z"/>
		</g>
		<g>
			<rect x="121.9" y="363.5" fill="#FFFFFF" width="111.1" height="30.8"/>
		</g>
		<g>
			<path fill="#231F20" d="M144.6,382.9v-8h1.7v8H144.6z"/>
			<path fill="#231F20" d="M153.4,382.9l-3.8-5.2v5.2h-1.7v-8h1.8l3.7,5v-5h1.7v8H153.4z"/>
			<path fill="#231F20" d="M156.6,382.9v-8h3.2c2.5,0,4.2,1.6,4.2,4c0,2.4-1.7,4-4.2,4H156.6z M162.2,378.9c0-1.4-0.9-2.5-2.5-2.5
				h-1.5v5h1.5C161.3,381.4,162.2,380.2,162.2,378.9z"/>
			<path fill="#231F20" d="M165.2,382.9v-8h1.7v8H165.2z"/>
			<path fill="#231F20" d="M170.7,382.9l-3.1-8h1.9l2.2,6.2l2.2-6.2h1.9l-3.1,8H170.7z"/>
			<path fill="#231F20" d="M176.7,382.9v-8h1.7v8H176.7z"/>
			<path fill="#231F20" d="M180,382.9v-8h3.2c2.5,0,4.2,1.6,4.2,4c0,2.4-1.7,4-4.2,4H180z M185.6,378.9c0-1.4-0.9-2.5-2.5-2.5h-1.5
				v5h1.5C184.7,381.4,185.6,380.2,185.6,378.9z"/>
			<path fill="#231F20" d="M188.6,379.7v-4.8h1.7v4.8c0,1.1,0.6,1.9,1.9,1.9s1.9-0.8,1.9-1.9v-4.8h1.7v4.8c0,2-1.2,3.3-3.6,3.3
				S188.6,381.6,188.6,379.7z"/>
			<path fill="#231F20" d="M202.5,382.9l-0.5-1.4h-3.4l-0.5,1.4h-1.9l3.1-8h2.1l3.1,8H202.5z M200.3,376.6l-1.2,3.4h2.5L200.3,376.6
				z"/>
			<path fill="#231F20" d="M205.2,382.9v-8h1.7v6.5h3.4v1.5H205.2z"/>
		</g>
	</g>
	<g>
		<g>
			<path fill="#010101" d="M162.4,561.8v-5.6l-2.3,5.6h-0.7l-2.3-5.6v5.6h-1.7v-8h2.4l1.9,4.8l1.9-4.8h2.4v8H162.4z"/>
			<path fill="#010101" d="M168,561.8v-3.3l-3.1-4.7h1.9l2,3.2l2-3.2h1.9l-3.1,4.7v3.3H168z"/>
			<path fill="#010101" d="M172.7,560.7l0.9-1.3c0.6,0.6,1.4,1.1,2.5,1.1c0.9,0,1.4-0.4,1.4-0.9c0-1.4-4.6-0.4-4.6-3.5
				c0-1.3,1.2-2.4,3-2.4c1.3,0,2.3,0.4,3.1,1.1l-0.9,1.2c-0.6-0.6-1.5-0.9-2.3-0.9c-0.7,0-1.1,0.3-1.1,0.8c0,1.3,4.6,0.4,4.6,3.4
				c0,1.5-1,2.6-3.2,2.6C174.5,561.9,173.4,561.4,172.7,560.7z"/>
			<path fill="#010101" d="M180.4,561.8v-8h5.7v1.5h-4v1.7h3.9v1.5h-3.9v1.8h4v1.5H180.4z"/>
			<path fill="#010101" d="M187.4,561.8v-8h1.7v6.5h3.4v1.5H187.4z"/>
			<path fill="#010101" d="M193.7,561.8v-8h5.7v1.5h-4v1.7h3.9v1.5h-3.9v3.3H193.7z"/>
		</g>
		<g>
			<rect x="132.8" y="542.3" fill="#FFFFFF" width="89.2" height="30.9"/>
		</g>
		<g>
			<path fill="#231F20" d="M162.4,561.8v-5.6l-2.3,5.6h-0.7l-2.3-5.6v5.6h-1.7v-8h2.4l1.9,4.8l1.9-4.8h2.4v8H162.4z"/>
			<path fill="#231F20" d="M168,561.8v-3.3l-3.1-4.7h1.9l2,3.2l2-3.2h1.9l-3.1,4.7v3.3H168z"/>
			<path fill="#231F20" d="M172.7,560.7l0.9-1.3c0.6,0.6,1.4,1.1,2.5,1.1c0.9,0,1.4-0.4,1.4-0.9c0-1.4-4.6-0.4-4.6-3.5
				c0-1.3,1.2-2.4,3-2.4c1.3,0,2.3,0.4,3.1,1.1l-0.9,1.2c-0.6-0.6-1.5-0.9-2.3-0.9c-0.7,0-1.1,0.3-1.1,0.8c0,1.3,4.6,0.4,4.6,3.4
				c0,1.5-1,2.6-3.2,2.6C174.5,561.9,173.4,561.4,172.7,560.7z"/>
			<path fill="#231F20" d="M180.4,561.8v-8h5.7v1.5h-4v1.7h3.9v1.5h-3.9v1.8h4v1.5H180.4z"/>
			<path fill="#231F20" d="M187.4,561.8v-8h1.7v6.5h3.4v1.5H187.4z"/>
			<path fill="#231F20" d="M193.7,561.8v-8h5.7v1.5h-4v1.7h3.9v1.5h-3.9v3.3H193.7z"/>
		</g>
	</g>
	<g>
		<g>
			<polygon points="288.2,661.4 66.6,661.4 65.6,661.4 65.6,662.5 75.6,686 75.6,687 76.6,687 278.2,687 279.2,687 279.2,686 
				289.2,662.5 289.2,661.4 			"/>
			<polygon fill="#58595B" points="288.2,635.9 66.6,635.9 65.6,635.9 65.6,636.9 65.6,660.4 65.6,661.4 66.6,661.4 288.2,661.4 
				289.2,661.4 289.2,660.4 289.2,636.9 289.2,635.9 			"/>
			<g>
				<g>
					<path fill="#010101" d="M159.6,653.2v-8h1.7v8H159.6z"/>
					<path fill="#010101" d="M167.4,653.2l-1.6-2.8h-1.2v2.8h-1.7v-8h3.7c1.7,0,2.7,1.1,2.7,2.6c0,1.4-0.9,2.2-1.8,2.4l1.8,3H167.4z
						 M167.5,647.8c0-0.7-0.5-1.1-1.2-1.1h-1.8v2.2h1.8C167,648.9,167.5,648.5,167.5,647.8z"/>
					<path fill="#010101" d="M173.4,652.2l0.9-1.2c0.5,0.6,1.3,0.9,2.1,0.9c0.9,0,1.5-0.5,1.5-1.2c0-0.7-0.5-1.2-1.4-1.2
						c-0.7,0-1.2,0.2-1.7,0.6l-1.2-0.3v-4.6h5.5v1.5h-3.8v2c0.4-0.4,1-0.7,1.8-0.7c1.4,0,2.6,1,2.6,2.6c0,1.7-1.3,2.8-3.2,2.8
						C175.1,653.4,174.1,652.9,173.4,652.2z"/>
					<path fill="#010101" d="M180.9,652.5l0.8-1.3c0.4,0.4,0.9,0.6,1.6,0.6c1.3,0,2-1.1,2-2.3c0-0.1,0-0.1,0-0.2
						c-0.4,0.5-1.2,1-2.1,1c-1.4,0-2.7-0.9-2.7-2.6c0-1.6,1.2-2.7,3.1-2.7c2.4,0,3.4,1.9,3.4,4.1c0,2.4-1.4,4.1-3.7,4.1
						C182.3,653.4,181.5,653,180.9,652.5z M185.3,648.2c-0.1-0.8-0.5-1.6-1.6-1.6c-0.9,0-1.4,0.6-1.4,1.2c0,0.8,0.7,1.2,1.5,1.2
						C184.3,649,184.9,648.7,185.3,648.2z"/>
					<path fill="#010101" d="M188,652.2l0.9-1.2c0.5,0.6,1.3,0.9,2.1,0.9c0.9,0,1.5-0.5,1.5-1.2c0-0.7-0.5-1.2-1.4-1.2
						c-0.7,0-1.2,0.2-1.7,0.6l-1.2-0.3v-4.6h5.5v1.5H190v2c0.4-0.4,1-0.7,1.8-0.7c1.4,0,2.6,1,2.6,2.6c0,1.7-1.3,2.8-3.2,2.8
						C189.7,653.4,188.7,652.9,188,652.2z"/>
				</g>
				<g>
					<path fill="#FFFFFF" d="M159.6,653.2v-8h1.7v8H159.6z"/>
					<path fill="#FFFFFF" d="M167.4,653.2l-1.6-2.8h-1.2v2.8h-1.7v-8h3.7c1.7,0,2.7,1.1,2.7,2.6c0,1.4-0.9,2.2-1.8,2.4l1.8,3H167.4z
						 M167.5,647.8c0-0.7-0.5-1.1-1.2-1.1h-1.8v2.2h1.8C167,648.9,167.5,648.5,167.5,647.8z"/>
					<path fill="#FFFFFF" d="M173.4,652.2l0.9-1.2c0.5,0.6,1.3,0.9,2.1,0.9c0.9,0,1.5-0.5,1.5-1.2c0-0.7-0.5-1.2-1.4-1.2
						c-0.7,0-1.2,0.2-1.7,0.6l-1.2-0.3v-4.6h5.5v1.5h-3.8v2c0.4-0.4,1-0.7,1.8-0.7c1.4,0,2.6,1,2.6,2.6c0,1.7-1.3,2.8-3.2,2.8
						C175.1,653.4,174.1,652.9,173.4,652.2z"/>
					<path fill="#FFFFFF" d="M180.9,652.5l0.8-1.3c0.4,0.4,0.9,0.6,1.6,0.6c1.3,0,2-1.1,2-2.3c0-0.1,0-0.1,0-0.2
						c-0.4,0.5-1.2,1-2.1,1c-1.4,0-2.7-0.9-2.7-2.6c0-1.6,1.2-2.7,3.1-2.7c2.4,0,3.4,1.9,3.4,4.1c0,2.4-1.4,4.1-3.7,4.1
						C182.3,653.4,181.5,653,180.9,652.5z M185.3,648.2c-0.1-0.8-0.5-1.6-1.6-1.6c-0.9,0-1.4,0.6-1.4,1.2c0,0.8,0.7,1.2,1.5,1.2
						C184.3,649,184.9,648.7,185.3,648.2z"/>
					<path fill="#FFFFFF" d="M188,652.2l0.9-1.2c0.5,0.6,1.3,0.9,2.1,0.9c0.9,0,1.5-0.5,1.5-1.2c0-0.7-0.5-1.2-1.4-1.2
						c-0.7,0-1.2,0.2-1.7,0.6l-1.2-0.3v-4.6h5.5v1.5H190v2c0.4-0.4,1-0.7,1.8-0.7c1.4,0,2.6,1,2.6,2.6c0,1.7-1.3,2.8-3.2,2.8
						C189.7,653.4,188.7,652.9,188,652.2z"/>
				</g>
			</g>
		</g>
		<rect x="71" y="661.8" fill="#F5B951" width="212.9" height="49.6"/>
		<g>
			<path fill="#010101" d="M130.8,676.7v-5.8l-1.3,1.4l-1-1l2.5-2.5h1.5v8H130.8z"/>
			<path fill="#010101" d="M142.3,676.7l-2-2.9l-2,2.9h-2l2.9-4.1l-2.7-3.9h2l1.8,2.7l1.8-2.7h2.1l-2.7,3.9l2.9,4.1H142.3z"/>
			<path fill="#010101" d="M148.2,676.7v-8h3.2c2.5,0,4.2,1.6,4.2,4c0,2.4-1.7,4-4.2,4H148.2z M153.9,672.7c0-1.4-0.9-2.5-2.5-2.5
				h-1.5v5h1.5C152.9,675.2,153.9,674,153.9,672.7z"/>
			<path fill="#010101" d="M156.4,672.7c0-2.4,1.8-4.1,4.2-4.1c2.4,0,4.2,1.7,4.2,4.1c0,2.4-1.8,4.1-4.2,4.1
				C158.2,676.8,156.4,675.1,156.4,672.7z M163.1,672.7c0-1.5-1-2.6-2.4-2.6c-1.5,0-2.4,1.1-2.4,2.6c0,1.5,0.9,2.6,2.4,2.6
				C162.1,675.3,163.1,674.2,163.1,672.7z"/>
			<path fill="#010101" d="M165.6,672.7c0-2.5,1.9-4.1,4.3-4.1c1.8,0,2.8,1,3.3,2l-1.5,0.7c-0.3-0.6-1.1-1.2-1.9-1.2
				c-1.5,0-2.5,1.1-2.5,2.6c0,1.5,1.1,2.6,2.5,2.6c0.8,0,1.5-0.5,1.9-1.2l1.5,0.7c-0.6,1-1.6,2-3.3,2
				C167.5,676.8,165.6,675.1,165.6,672.7z"/>
			<path fill="#010101" d="M174.3,673.5v-4.8h1.7v4.8c0,1.1,0.6,1.9,1.9,1.9s1.9-0.8,1.9-1.9v-4.8h1.7v4.8c0,2-1.2,3.3-3.6,3.3
				S174.3,675.5,174.3,673.5z"/>
			<path fill="#010101" d="M190,676.7v-5.6l-2.3,5.6H187l-2.3-5.6v5.6H183v-8h2.4l1.9,4.8l1.9-4.8h2.4v8H190z"/>
			<path fill="#010101" d="M193.3,676.7v-8h5.7v1.5h-4v1.7h3.9v1.5H195v1.8h4v1.5H193.3z"/>
			<path fill="#010101" d="M205.8,676.7l-3.8-5.2v5.2h-1.7v-8h1.8l3.7,5v-5h1.7v8H205.8z"/>
			<path fill="#010101" d="M210.9,676.7v-6.5h-2.3v-1.5h6.4v1.5h-2.3v6.5H210.9z"/>
			<path fill="#010101" d="M224.6,676.7l-0.5-1.4h-3.4l-0.5,1.4h-1.9l3.1-8h2.1l3.1,8H224.6z M222.4,670.4l-1.2,3.4h2.5L222.4,670.4
				z"/>
		</g>
		<rect x="71" y="711.4" fill="#E5E5E5" width="212.9" height="130.5"/>
		<g>
			<path fill="#010101" d="M108.9,727.3l-0.5-1.4H105l-0.5,1.4h-1.9l3.1-8h2.1l3.1,8H108.9z M106.7,721l-1.2,3.4h2.5L106.7,721z"/>
			<path fill="#010101" d="M111.6,727.3v-8h3.7c1.7,0,2.7,1.2,2.7,2.6c0,1.4-1,2.6-2.7,2.6h-2v2.8H111.6z M116.3,721.9
				c0-0.7-0.5-1.1-1.2-1.1h-1.8v2.2h1.8C115.8,723,116.3,722.5,116.3,721.9z"/>
			<path fill="#010101" d="M119.1,727.3v-8h3.7c1.7,0,2.7,1.2,2.7,2.6c0,1.4-1,2.6-2.7,2.6h-2v2.8H119.1z M123.8,721.9
				c0-0.7-0.5-1.1-1.2-1.1h-1.8v2.2h1.8C123.3,723,123.8,722.5,123.8,721.9z"/>
			<path fill="#010101" d="M126.6,727.3v-8h1.7v6.5h3.4v1.5H126.6z"/>
			<path fill="#010101" d="M132.9,727.3v-8h1.7v8H132.9z"/>
			<path fill="#010101" d="M135.8,723.3c0-2.5,1.9-4.1,4.3-4.1c1.8,0,2.8,1,3.3,2l-1.5,0.7c-0.3-0.6-1.1-1.2-1.9-1.2
				c-1.5,0-2.5,1.1-2.5,2.6c0,1.5,1.1,2.6,2.5,2.6c0.8,0,1.5-0.5,1.9-1.2l1.5,0.7c-0.6,1-1.6,2-3.3,2
				C137.6,727.5,135.8,725.8,135.8,723.3z"/>
			<path fill="#010101" d="M149.8,727.3l-0.5-1.4h-3.4l-0.5,1.4h-1.9l3.1-8h2.1l3.1,8H149.8z M147.6,721l-1.2,3.4h2.5L147.6,721z"/>
			<path fill="#010101" d="M158,727.3l-3.8-5.2v5.2h-1.7v-8h1.8l3.7,5v-5h1.7v8H158z"/>
			<path fill="#010101" d="M163.1,727.3v-6.5h-2.3v-1.5h6.4v1.5h-2.3v6.5H163.1z"/>
			<path fill="#010101" d="M171.3,727.3v-8h1.7v8H171.3z"/>
			<path fill="#010101" d="M180.1,727.3l-3.8-5.2v5.2h-1.7v-8h1.8l3.7,5v-5h1.7v8H180.1z"/>
			<path fill="#010101" d="M183.4,727.3v-8h5.7v1.5h-4v1.7h3.9v1.5h-3.9v3.3H183.4z"/>
			<path fill="#010101" d="M189.8,723.3c0-2.4,1.8-4.1,4.2-4.1c2.4,0,4.2,1.7,4.2,4.1c0,2.4-1.8,4.1-4.2,4.1
				C191.6,727.5,189.8,725.7,189.8,723.3z M196.4,723.3c0-1.5-1-2.6-2.4-2.6c-1.5,0-2.4,1.1-2.4,2.6c0,1.5,0.9,2.6,2.4,2.6
				C195.5,725.9,196.4,724.8,196.4,723.3z"/>
			<path fill="#010101" d="M203.9,727.3l-1.6-2.8h-1.2v2.8h-1.7v-8h3.7c1.7,0,2.7,1.1,2.7,2.6c0,1.4-0.9,2.2-1.8,2.4l1.8,3H203.9z
				 M204.1,721.9c0-0.7-0.5-1.1-1.2-1.1h-1.8v2.2h1.8C203.6,723,204.1,722.6,204.1,721.9z"/>
			<path fill="#010101" d="M214.1,727.3v-5.6l-2.3,5.6h-0.7l-2.3-5.6v5.6h-1.7v-8h2.4l1.9,4.8l1.9-4.8h2.4v8H214.1z"/>
			<path fill="#010101" d="M222.9,727.3l-0.5-1.4H219l-0.5,1.4h-1.9l3.1-8h2.1l3.1,8H222.9z M220.7,721l-1.2,3.4h2.5L220.7,721z"/>
			<path fill="#010101" d="M226.7,727.3v-6.5h-2.3v-1.5h6.4v1.5h-2.3v6.5H226.7z"/>
			<path fill="#010101" d="M231.8,727.3v-8h1.7v8H231.8z"/>
			<path fill="#010101" d="M234.7,723.3c0-2.4,1.8-4.1,4.2-4.1c2.4,0,4.2,1.7,4.2,4.1c0,2.4-1.8,4.1-4.2,4.1
				C236.5,727.5,234.7,725.7,234.7,723.3z M241.3,723.3c0-1.5-1-2.6-2.4-2.6c-1.5,0-2.4,1.1-2.4,2.6c0,1.5,0.9,2.6,2.4,2.6
				C240.4,725.9,241.3,724.8,241.3,723.3z"/>
			<path fill="#010101" d="M249.8,727.3l-3.8-5.2v5.2h-1.7v-8h1.8l3.7,5v-5h1.7v8H249.8z"/>
		</g>
		<g>
			<path fill="#010101" d="M114.1,751.6l-0.5-1.4h-3.4l-0.5,1.4h-1.9l3.1-8h2.1l3.1,8H114.1z M111.9,745.3l-1.2,3.4h2.5L111.9,745.3
				z"/>
			<path fill="#010101" d="M116.8,751.6v-8h3.2c2.5,0,4.2,1.6,4.2,4c0,2.4-1.7,4-4.2,4H116.8z M122.4,747.6c0-1.4-0.9-2.5-2.5-2.5
				h-1.5v5h1.5C121.5,750.1,122.4,748.9,122.4,747.6z"/>
			<path fill="#010101" d="M125.4,751.6v-8h3.2c2.5,0,4.2,1.6,4.2,4c0,2.4-1.7,4-4.2,4H125.4z M131,747.6c0-1.4-0.9-2.5-2.5-2.5
				h-1.5v5h1.5C130.1,750.1,131,748.9,131,747.6z"/>
			<path fill="#010101" d="M138.5,751.6l-1.6-2.8h-1.2v2.8H134v-8h3.7c1.7,0,2.7,1.1,2.7,2.6c0,1.4-0.9,2.2-1.8,2.4l1.8,3H138.5z
				 M138.7,746.1c0-0.7-0.5-1.1-1.2-1.1h-1.8v2.2h1.8C138.2,747.2,138.7,746.8,138.7,746.1z"/>
			<path fill="#010101" d="M141.7,751.6v-8h5.7v1.5h-4v1.7h3.9v1.5h-3.9v1.8h4v1.5H141.7z"/>
			<path fill="#010101" d="M148.2,750.4l0.9-1.3c0.6,0.6,1.4,1.1,2.5,1.1c0.9,0,1.4-0.4,1.4-0.9c0-1.4-4.6-0.4-4.6-3.5
				c0-1.3,1.2-2.4,3-2.4c1.3,0,2.3,0.4,3.1,1.1l-0.9,1.2c-0.6-0.6-1.5-0.9-2.3-0.9c-0.7,0-1.1,0.3-1.1,0.8c0,1.3,4.6,0.4,4.6,3.4
				c0,1.5-1,2.6-3.2,2.6C150,751.7,148.9,751.2,148.2,750.4z"/>
			<path fill="#010101" d="M155.4,750.4l0.9-1.3c0.6,0.6,1.4,1.1,2.5,1.1c0.9,0,1.4-0.4,1.4-0.9c0-1.4-4.6-0.4-4.6-3.5
				c0-1.3,1.2-2.4,3-2.4c1.3,0,2.3,0.4,3.1,1.1l-0.9,1.2c-0.6-0.6-1.5-0.9-2.3-0.9c-0.7,0-1.1,0.3-1.1,0.8c0,1.3,4.6,0.4,4.6,3.4
				c0,1.5-1,2.6-3.2,2.6C157.2,751.7,156.1,751.2,155.4,750.4z"/>
			<path fill="#010101" d="M166.2,751.6v-8h1.7v8H166.2z"/>
			<path fill="#010101" d="M175,751.6l-3.8-5.2v5.2h-1.7v-8h1.8l3.7,5v-5h1.7v8H175z"/>
			<path fill="#010101" d="M178.2,751.6v-8h5.7v1.5h-4v1.7h3.9v1.5h-3.9v3.3H178.2z"/>
			<path fill="#010101" d="M184.7,747.6c0-2.4,1.8-4.1,4.2-4.1c2.4,0,4.2,1.7,4.2,4.1c0,2.4-1.8,4.1-4.2,4.1
				C186.5,751.7,184.7,750,184.7,747.6z M191.3,747.6c0-1.5-1-2.6-2.4-2.6c-1.5,0-2.4,1.1-2.4,2.6c0,1.5,0.9,2.6,2.4,2.6
				C190.3,750.2,191.3,749.1,191.3,747.6z"/>
			<path fill="#010101" d="M198.8,751.6l-1.6-2.8H196v2.8h-1.7v-8h3.7c1.7,0,2.7,1.1,2.7,2.6c0,1.4-0.9,2.2-1.8,2.4l1.8,3H198.8z
				 M198.9,746.1c0-0.7-0.5-1.1-1.2-1.1H196v2.2h1.8C198.4,747.2,198.9,746.8,198.9,746.1z"/>
			<path fill="#010101" d="M208.9,751.6V746l-2.3,5.6h-0.7l-2.3-5.6v5.6H202v-8h2.4l1.9,4.8l1.9-4.8h2.4v8H208.9z"/>
			<path fill="#010101" d="M217.7,751.6l-0.5-1.4h-3.4l-0.5,1.4h-1.9l3.1-8h2.1l3.1,8H217.7z M215.5,745.3l-1.2,3.4h2.5L215.5,745.3
				z"/>
			<path fill="#010101" d="M221.5,751.6v-6.5h-2.3v-1.5h6.4v1.5h-2.3v6.5H221.5z"/>
			<path fill="#010101" d="M226.7,751.6v-8h1.7v8H226.7z"/>
			<path fill="#010101" d="M229.6,747.6c0-2.4,1.8-4.1,4.2-4.1c2.4,0,4.2,1.7,4.2,4.1c0,2.4-1.8,4.1-4.2,4.1
				C231.3,751.7,229.6,750,229.6,747.6z M236.2,747.6c0-1.5-1-2.6-2.4-2.6c-1.5,0-2.4,1.1-2.4,2.6c0,1.5,0.9,2.6,2.4,2.6
				C235.2,750.2,236.2,749.1,236.2,747.6z"/>
			<path fill="#010101" d="M244.6,751.6l-3.8-5.2v5.2h-1.7v-8h1.8l3.7,5v-5h1.7v8H244.6z"/>
		</g>
		<g>
			<path fill="#010101" d="M91,775.6v-6.5h-2.3v-1.5H95v1.5h-2.3v6.5H91z"/>
			<path fill="#010101" d="M100.8,775.6l-0.5-1.4h-3.4l-0.5,1.4h-1.9l3.1-8h2.1l3.1,8H100.8z M98.6,769.3l-1.2,3.4h2.5L98.6,769.3z"
				/>
			<path fill="#010101" d="M108.7,775.6l-2-2.9l-2,2.9h-2l2.9-4.1l-2.7-3.9h2l1.8,2.7l1.8-2.7h2.1l-2.7,3.9l2.9,4.1H108.7z"/>
			<path fill="#010101" d="M114.6,775.6v-8h5.7v1.5h-4v1.7h3.9v1.5h-3.9v1.8h4v1.5H114.6z"/>
			<path fill="#010101" d="M126.8,775.6l-2-2.9l-2,2.9h-2l2.9-4.1l-2.7-3.9h2l1.8,2.7l1.8-2.7h2.1l-2.7,3.9l2.9,4.1H126.8z"/>
			<path fill="#010101" d="M129.6,775.6v-8h5.7v1.5h-4v1.7h3.9v1.5h-3.9v1.8h4v1.5H129.6z"/>
			<path fill="#010101" d="M143.6,775.6V770l-2.3,5.6h-0.7l-2.3-5.6v5.6h-1.7v-8h2.4l1.9,4.8l1.9-4.8h2.4v8H143.6z"/>
			<path fill="#010101" d="M146.9,775.6v-8h3.7c1.7,0,2.7,1.2,2.7,2.6c0,1.4-1,2.6-2.7,2.6h-2v2.8H146.9z M151.6,770.2
				c0-0.7-0.5-1.1-1.2-1.1h-1.8v2.2h1.8C151.1,771.3,151.6,770.8,151.6,770.2z"/>
			<path fill="#010101" d="M156.2,775.6v-6.5h-2.3v-1.5h6.4v1.5h-2.3v6.5H156.2z"/>
			<path fill="#010101" d="M161.4,775.6v-8h1.7v8H161.4z"/>
			<path fill="#010101" d="M164.3,771.6c0-2.4,1.8-4.1,4.2-4.1c2.4,0,4.2,1.7,4.2,4.1s-1.8,4.1-4.2,4.1
				C166,775.7,164.3,774,164.3,771.6z M170.9,771.6c0-1.5-1-2.6-2.4-2.6c-1.5,0-2.4,1.1-2.4,2.6c0,1.5,0.9,2.6,2.4,2.6
				C169.9,774.2,170.9,773.1,170.9,771.6z"/>
			<path fill="#010101" d="M179.3,775.6l-3.8-5.2v5.2h-1.7v-8h1.8l3.7,5v-5h1.7v8H179.3z"/>
			<path fill="#010101" d="M185.6,775.6v-8h1.7v8H185.6z"/>
			<path fill="#010101" d="M194.4,775.6l-3.8-5.2v5.2h-1.7v-8h1.8l3.7,5v-5h1.7v8H194.4z"/>
			<path fill="#010101" d="M197.7,775.6v-8h5.7v1.5h-4v1.7h3.9v1.5h-3.9v3.3H197.7z"/>
			<path fill="#010101" d="M204.1,771.6c0-2.4,1.8-4.1,4.2-4.1c2.4,0,4.2,1.7,4.2,4.1s-1.8,4.1-4.2,4.1
				C205.9,775.7,204.1,774,204.1,771.6z M210.8,771.6c0-1.5-1-2.6-2.4-2.6c-1.5,0-2.4,1.1-2.4,2.6c0,1.5,0.9,2.6,2.4,2.6
				C209.8,774.2,210.8,773.1,210.8,771.6z"/>
			<path fill="#010101" d="M218.2,775.6l-1.6-2.8h-1.2v2.8h-1.7v-8h3.7c1.7,0,2.7,1.1,2.7,2.6c0,1.4-0.9,2.2-1.8,2.4l1.8,3H218.2z
				 M218.4,770.2c0-0.7-0.5-1.1-1.2-1.1h-1.8v2.2h1.8C217.9,771.3,218.4,770.8,218.4,770.2z"/>
			<path fill="#010101" d="M228.4,775.6V770l-2.3,5.6h-0.7l-2.3-5.6v5.6h-1.7v-8h2.4l1.9,4.8l1.9-4.8h2.4v8H228.4z"/>
			<path fill="#010101" d="M237.2,775.6l-0.5-1.4h-3.4l-0.5,1.4h-1.9l3.1-8h2.1l3.1,8H237.2z M235,769.3l-1.2,3.4h2.5L235,769.3z"/>
			<path fill="#010101" d="M241,775.6v-6.5h-2.3v-1.5h6.4v1.5h-2.3v6.5H241z"/>
			<path fill="#010101" d="M246.1,775.6v-8h1.7v8H246.1z"/>
			<path fill="#010101" d="M249,771.6c0-2.4,1.8-4.1,4.2-4.1c2.4,0,4.2,1.7,4.2,4.1s-1.8,4.1-4.2,4.1C250.8,775.7,249,774,249,771.6
				z M255.6,771.6c0-1.5-1-2.6-2.4-2.6c-1.5,0-2.4,1.1-2.4,2.6c0,1.5,0.9,2.6,2.4,2.6C254.7,774.2,255.6,773.1,255.6,771.6z"/>
			<path fill="#010101" d="M264.1,775.6l-3.8-5.2v5.2h-1.7v-8h1.8l3.7,5v-5h1.7v8H264.1z"/>
		</g>
		<g>
			<path fill="#010101" d="M137.4,827.5v-8h3.2c2.5,0,4.2,1.6,4.2,4c0,2.4-1.7,4-4.2,4H137.4z M143,823.5c0-1.4-0.9-2.5-2.5-2.5
				h-1.5v5h1.5C142.1,826,143,824.9,143,823.5z"/>
			<path fill="#010101" d="M146,827.5v-8h5.7v1.5h-4v1.7h3.9v1.5h-3.9v1.8h4v1.5H146z"/>
			<path fill="#010101" d="M152.6,823.5c0-2.5,1.9-4.1,4.3-4.1c1.8,0,2.8,1,3.3,2l-1.5,0.7c-0.3-0.6-1.1-1.2-1.9-1.2
				c-1.5,0-2.5,1.1-2.5,2.6c0,1.5,1.1,2.6,2.5,2.6c0.8,0,1.5-0.5,1.9-1.2l1.5,0.7c-0.6,1-1.6,2-3.3,2
				C154.5,827.7,152.6,826,152.6,823.5z"/>
			<path fill="#010101" d="M161.2,827.5v-8h1.7v6.5h3.4v1.5H161.2z"/>
			<path fill="#010101" d="M173,827.5l-0.5-1.4h-3.4l-0.5,1.4h-1.9l3.1-8h2.1l3.1,8H173z M170.8,821.2l-1.2,3.4h2.5L170.8,821.2z"/>
			<path fill="#010101" d="M180.2,827.5l-1.6-2.8h-1.2v2.8h-1.7v-8h3.7c1.7,0,2.7,1.1,2.7,2.6c0,1.4-0.9,2.2-1.8,2.4l1.8,3H180.2z
				 M180.4,822.1c0-0.7-0.5-1.1-1.2-1.1h-1.8v2.2h1.8C179.9,823.2,180.4,822.8,180.4,822.1z"/>
			<path fill="#010101" d="M188.9,827.5l-0.5-1.4H185l-0.5,1.4h-1.9l3.1-8h2.1l3.1,8H188.9z M186.7,821.2l-1.2,3.4h2.5L186.7,821.2z
				"/>
			<path fill="#010101" d="M192.7,827.5V821h-2.3v-1.5h6.4v1.5h-2.3v6.5H192.7z"/>
			<path fill="#010101" d="M197.8,827.5v-8h1.7v8H197.8z"/>
			<path fill="#010101" d="M200.8,823.5c0-2.4,1.8-4.1,4.2-4.1c2.4,0,4.2,1.7,4.2,4.1c0,2.4-1.8,4.1-4.2,4.1
				C202.5,827.7,200.8,825.9,200.8,823.5z M207.4,823.5c0-1.5-1-2.6-2.4-2.6c-1.5,0-2.4,1.1-2.4,2.6c0,1.5,0.9,2.6,2.4,2.6
				C206.4,826.1,207.4,825,207.4,823.5z"/>
			<path fill="#010101" d="M215.8,827.5l-3.8-5.2v5.2h-1.7v-8h1.8l3.7,5v-5h1.7v8H215.8z"/>
		</g>
		<g>
			<path fill="#010101" d="M130.9,701.8V696l-1.3,1.4l-1-1l2.5-2.5h1.5v8H130.9z"/>
			<path fill="#010101" d="M142.5,701.8l-2-2.9l-2,2.9h-2l2.9-4.1l-2.7-3.9h2l1.8,2.7l1.8-2.7h2.1l-2.7,3.9l2.9,4.1H142.5z"/>
			<path fill="#010101" d="M148.3,701.8v-8h3.2c2.5,0,4.2,1.6,4.2,4s-1.7,4-4.2,4H148.3z M154,697.8c0-1.4-0.9-2.5-2.5-2.5H150v5
				h1.5C153.1,700.3,154,699.2,154,697.8z"/>
			<path fill="#010101" d="M156.6,697.8c0-2.4,1.8-4.1,4.2-4.1c2.4,0,4.2,1.7,4.2,4.1s-1.8,4.1-4.2,4.1
				C158.3,701.9,156.6,700.2,156.6,697.8z M163.2,697.8c0-1.5-1-2.6-2.4-2.6c-1.5,0-2.4,1.1-2.4,2.6c0,1.5,0.9,2.6,2.4,2.6
				C162.2,700.4,163.2,699.3,163.2,697.8z"/>
			<path fill="#010101" d="M165.7,697.8c0-2.5,1.9-4.1,4.3-4.1c1.8,0,2.8,1,3.3,2l-1.5,0.7c-0.3-0.6-1.1-1.2-1.9-1.2
				c-1.5,0-2.5,1.1-2.5,2.6s1.1,2.6,2.5,2.6c0.8,0,1.5-0.5,1.9-1.2l1.5,0.7c-0.6,1-1.6,2-3.3,2C167.6,701.9,165.7,700.3,165.7,697.8
				z"/>
			<path fill="#010101" d="M174.4,698.6v-4.8h1.7v4.8c0,1.1,0.6,1.9,1.9,1.9s1.9-0.8,1.9-1.9v-4.8h1.7v4.8c0,2-1.2,3.3-3.6,3.3
				S174.4,700.6,174.4,698.6z"/>
			<path fill="#010101" d="M190.1,701.8v-5.6l-2.3,5.6h-0.7l-2.3-5.6v5.6h-1.7v-8h2.4l1.9,4.8l1.9-4.8h2.4v8H190.1z"/>
			<path fill="#010101" d="M193.4,701.8v-8h5.7v1.5h-4v1.7h3.9v1.5h-3.9v1.8h4v1.5H193.4z"/>
			<path fill="#010101" d="M205.9,701.8l-3.8-5.2v5.2h-1.7v-8h1.8l3.7,5v-5h1.7v8H205.9z"/>
			<path fill="#010101" d="M211,701.8v-6.5h-2.3v-1.5h6.4v1.5h-2.3v6.5H211z"/>
			<path fill="#010101" d="M219.2,701.8v-8h4.2c1.5,0,2.3,1,2.3,2c0,1-0.6,1.7-1.4,1.8c0.9,0.1,1.5,1,1.5,2c0,1.2-0.8,2.2-2.3,2.2
				H219.2z M224,696.1c0-0.5-0.4-0.9-0.9-0.9h-2.1v1.7h2.1C223.6,697,224,696.6,224,696.1z M224.2,699.4c0-0.5-0.4-0.9-1-0.9h-2.2
				v1.9h2.2C223.8,700.3,224.2,700,224.2,699.4z"/>
		</g>
		<line fill="none" stroke="#FFFFFF" stroke-miterlimit="10" x1="97" y1="684.3" x2="257.8" y2="684.3"/>
		<line fill="none" stroke="#FFFFFF" stroke-miterlimit="10" x1="97" y1="735.6" x2="257.8" y2="735.6"/>
		<line fill="none" stroke="#FFFFFF" stroke-miterlimit="10" x1="97" y1="760.1" x2="257.8" y2="760.1"/>
		<line fill="none" stroke="#FFFFFF" stroke-miterlimit="10" x1="97" y1="784.1" x2="257.8" y2="784.1"/>
	</g>
</g>
</svg>
