<?xml version="1.0" encoding="utf-8"?>
<!-- Generator: Adobe Illustrator 17.1.0, SVG Export Plug-In . SVG Version: 6.00 Build 0)  -->
<!DOCTYPE svg PUBLIC "-//W3C//DTD SVG 1.1//EN" "http://www.w3.org/Graphics/SVG/1.1/DTD/svg11.dtd">
<svg version="1.1" xmlns="http://www.w3.org/2000/svg" xmlns:xlink="http://www.w3.org/1999/xlink" x="0px" y="0px"
	 viewBox="0 0 1369.2 382.8" enable-background="new 0 0 1369.2 382.8" xml:space="preserve">
<g id="bg">
</g>
<g id="Layer_1">
	<line fill="none" stroke="#EF4136" stroke-width="5" stroke-miterlimit="10" x1="98.4" y1="126" x2="1280.6" y2="126"/>
	<g>
		<g>
			<path fill="#010101" d="M44.8,122.8v-8H48c2.5,0,4.2,1.6,4.2,4c0,2.4-1.7,4-4.2,4H44.8z M50.5,118.8c0-1.4-0.9-2.5-2.5-2.5h-1.5
				v5H48C49.6,121.3,50.5,120.1,50.5,118.8z"/>
			<path fill="#010101" d="M53,118.8c0-2.4,1.8-4.1,4.2-4.1c2.4,0,4.2,1.7,4.2,4.1c0,2.4-1.8,4.1-4.2,4.1
				C54.8,122.9,53,121.2,53,118.8z M59.7,118.8c0-1.5-1-2.6-2.4-2.6c-1.5,0-2.4,1.1-2.4,2.6c0,1.5,0.9,2.6,2.4,2.6
				C58.7,121.4,59.7,120.3,59.7,118.8z"/>
			<path fill="#010101" d="M67.9,122.8v-3.3l-3.1-4.7h1.9l2,3.2l2-3.2h1.9l-3.1,4.7v3.3H67.9z"/>
			<path fill="#010101" d="M72.6,118.8c0-2.4,1.8-4.1,4.2-4.1c2.4,0,4.2,1.7,4.2,4.1c0,2.4-1.8,4.1-4.2,4.1
				C74.3,122.9,72.6,121.2,72.6,118.8z M79.2,118.8c0-1.5-1-2.6-2.4-2.6c-1.5,0-2.4,1.1-2.4,2.6c0,1.5,0.9,2.6,2.4,2.6
				C78.2,121.4,79.2,120.3,79.2,118.8z"/>
			<path fill="#010101" d="M82.1,119.6v-4.8h1.7v4.7c0,1.1,0.6,1.9,1.9,1.9s1.9-0.8,1.9-1.9v-4.7h1.7v4.8c0,2-1.2,3.3-3.6,3.3
				S82.1,121.5,82.1,119.6z"/>
			<path fill="#010101" d="M99.5,122.8l-3.8-5.2v5.2H94v-8h1.8l3.7,5v-5h1.7v8H99.5z"/>
			<path fill="#010101" d="M102.7,122.8v-8h5.7v1.5h-4v1.7h3.9v1.5h-3.9v1.8h4v1.5H102.7z"/>
			<path fill="#010101" d="M109.7,122.8v-8h5.7v1.5h-4v1.7h3.9v1.5h-3.9v1.8h4v1.5H109.7z"/>
			<path fill="#010101" d="M116.7,122.8v-8h3.2c2.5,0,4.2,1.6,4.2,4c0,2.4-1.7,4-4.2,4H116.7z M122.4,118.8c0-1.4-0.9-2.5-2.5-2.5
				h-1.5v5h1.5C121.5,121.3,122.4,120.1,122.4,118.8z"/>
			<path fill="#010101" d="M133.9,122.8l-0.5-1.4H130l-0.5,1.4h-1.9l3.1-8h2.1l3.1,8H133.9z M131.7,116.5l-1.2,3.4h2.5L131.7,116.5z
				"/>
			<path fill="#010101" d="M142.1,122.8l-3.8-5.2v5.2h-1.7v-8h1.8l3.7,5v-5h1.7v8H142.1z"/>
			<path fill="#010101" d="M55.8,137.2v-8h1.7v8H55.8z"/>
			<path fill="#010101" d="M63.6,137.2l-1.6-2.8h-1.2v2.8h-1.7v-8h3.7c1.7,0,2.7,1.1,2.7,2.6c0,1.4-0.9,2.2-1.8,2.4l1.8,3H63.6z
				 M63.8,131.7c0-0.7-0.5-1.1-1.2-1.1h-1.8v2.2h1.8C63.2,132.8,63.8,132.4,63.8,131.7z"/>
			<path fill="#010101" d="M66.8,137.2v-8h3.2c2.5,0,4.2,1.6,4.2,4c0,2.4-1.7,4-4.2,4H66.8z M72.4,133.2c0-1.4-0.9-2.5-2.5-2.5h-1.5
				v5h1.5C71.5,135.7,72.4,134.5,72.4,133.2z"/>
			<path fill="#010101" d="M84,137.2l-3.8-5.2v5.2h-1.7v-8h1.8l3.7,5v-5h1.7v8H84z"/>
			<path fill="#010101" d="M87.2,134v-4.8h1.7v4.8c0,1.1,0.6,1.9,1.9,1.9s1.9-0.8,1.9-1.9v-4.8h1.7v4.8c0,2-1.2,3.3-3.6,3.3
				S87.2,135.9,87.2,134z"/>
			<path fill="#010101" d="M103,137.2v-5.6l-2.3,5.6H100l-2.3-5.6v5.6H96v-8h2.4l1.9,4.8l1.9-4.8h2.4v8H103z"/>
			<path fill="#010101" d="M106.3,137.2v-8h4.2c1.5,0,2.3,1,2.3,2c0,1-0.6,1.7-1.4,1.8c0.9,0.1,1.5,1,1.5,2c0,1.2-0.8,2.2-2.3,2.2
				H106.3z M111,131.5c0-0.5-0.4-0.9-0.9-0.9H108v1.7h2.1C110.7,132.4,111,132,111,131.5z M111.2,134.8c0-0.5-0.4-0.9-1-0.9H108v1.9
				h2.2C110.8,135.7,111.2,135.3,111.2,134.8z"/>
			<path fill="#010101" d="M114.2,137.2v-8h5.7v1.5h-4v1.7h3.9v1.5h-3.9v1.8h4v1.5H114.2z"/>
			<path fill="#010101" d="M125.7,137.2l-1.6-2.8h-1.2v2.8h-1.7v-8h3.7c1.7,0,2.7,1.1,2.7,2.6c0,1.4-0.9,2.2-1.8,2.4l1.8,3H125.7z
				 M125.9,131.7c0-0.7-0.5-1.1-1.2-1.1h-1.8v2.2h1.8C125.4,132.8,125.9,132.4,125.9,131.7z"/>
			<path fill="#010101" d="M129.9,133.7c0-1.4,1.8-1.6,1.8-2.4c0-0.4-0.3-0.7-0.9-0.7c-0.6,0-1.1,0.3-1.5,0.7l-1-1.1
				c0.6-0.7,1.6-1.2,2.6-1.2c1.5,0,2.5,0.8,2.5,1.9c0,1.8-2,1.9-2,2.9c0,0.2,0.1,0.4,0.2,0.5l-1.3,0.4
				C130,134.4,129.9,134.1,129.9,133.7z M129.9,136.3c0-0.5,0.4-1,1-1c0.5,0,1,0.4,1,1s-0.4,1-1,1
				C130.3,137.3,129.9,136.9,129.9,136.3z"/>
		</g>
		<g>
			<rect x="22.1" y="103.3" fill="#E6E6E6" width="144.3" height="45.4"/>
		</g>
		<g>
			<path fill="#231F20" d="M44.8,122.8v-8H48c2.5,0,4.2,1.6,4.2,4c0,2.4-1.7,4-4.2,4H44.8z M50.5,118.8c0-1.4-0.9-2.5-2.5-2.5h-1.5
				v5H48C49.6,121.3,50.5,120.1,50.5,118.8z"/>
			<path fill="#231F20" d="M53,118.8c0-2.4,1.8-4.1,4.2-4.1c2.4,0,4.2,1.7,4.2,4.1c0,2.4-1.8,4.1-4.2,4.1
				C54.8,122.9,53,121.2,53,118.8z M59.7,118.8c0-1.5-1-2.6-2.4-2.6c-1.5,0-2.4,1.1-2.4,2.6c0,1.5,0.9,2.6,2.4,2.6
				C58.7,121.4,59.7,120.3,59.7,118.8z"/>
			<path fill="#231F20" d="M67.9,122.8v-3.3l-3.1-4.7h1.9l2,3.2l2-3.2h1.9l-3.1,4.7v3.3H67.9z"/>
			<path fill="#231F20" d="M72.6,118.8c0-2.4,1.8-4.1,4.2-4.1c2.4,0,4.2,1.7,4.2,4.1c0,2.4-1.8,4.1-4.2,4.1
				C74.3,122.9,72.6,121.2,72.6,118.8z M79.2,118.8c0-1.5-1-2.6-2.4-2.6c-1.5,0-2.4,1.1-2.4,2.6c0,1.5,0.9,2.6,2.4,2.6
				C78.2,121.4,79.2,120.3,79.2,118.8z"/>
			<path fill="#231F20" d="M82.1,119.6v-4.8h1.7v4.7c0,1.1,0.6,1.9,1.9,1.9s1.9-0.8,1.9-1.9v-4.7h1.7v4.8c0,2-1.2,3.3-3.6,3.3
				S82.1,121.5,82.1,119.6z"/>
			<path fill="#231F20" d="M99.5,122.8l-3.8-5.2v5.2H94v-8h1.8l3.7,5v-5h1.7v8H99.5z"/>
			<path fill="#231F20" d="M102.7,122.8v-8h5.7v1.5h-4v1.7h3.9v1.5h-3.9v1.8h4v1.5H102.7z"/>
			<path fill="#231F20" d="M109.7,122.8v-8h5.7v1.5h-4v1.7h3.9v1.5h-3.9v1.8h4v1.5H109.7z"/>
			<path fill="#231F20" d="M116.7,122.8v-8h3.2c2.5,0,4.2,1.6,4.2,4c0,2.4-1.7,4-4.2,4H116.7z M122.4,118.8c0-1.4-0.9-2.5-2.5-2.5
				h-1.5v5h1.5C121.5,121.3,122.4,120.1,122.4,118.8z"/>
			<path fill="#231F20" d="M133.9,122.8l-0.5-1.4H130l-0.5,1.4h-1.9l3.1-8h2.1l3.1,8H133.9z M131.7,116.5l-1.2,3.4h2.5L131.7,116.5z
				"/>
			<path fill="#231F20" d="M142.1,122.8l-3.8-5.2v5.2h-1.7v-8h1.8l3.7,5v-5h1.7v8H142.1z"/>
			<path fill="#231F20" d="M55.8,137.2v-8h1.7v8H55.8z"/>
			<path fill="#231F20" d="M63.6,137.2l-1.6-2.8h-1.2v2.8h-1.7v-8h3.7c1.7,0,2.7,1.1,2.7,2.6c0,1.4-0.9,2.2-1.8,2.4l1.8,3H63.6z
				 M63.8,131.7c0-0.7-0.5-1.1-1.2-1.1h-1.8v2.2h1.8C63.2,132.8,63.8,132.4,63.8,131.7z"/>
			<path fill="#231F20" d="M66.8,137.2v-8h3.2c2.5,0,4.2,1.6,4.2,4c0,2.4-1.7,4-4.2,4H66.8z M72.4,133.2c0-1.4-0.9-2.5-2.5-2.5h-1.5
				v5h1.5C71.5,135.7,72.4,134.5,72.4,133.2z"/>
			<path fill="#231F20" d="M84,137.2l-3.8-5.2v5.2h-1.7v-8h1.8l3.7,5v-5h1.7v8H84z"/>
			<path fill="#231F20" d="M87.2,134v-4.8h1.7v4.8c0,1.1,0.6,1.9,1.9,1.9s1.9-0.8,1.9-1.9v-4.8h1.7v4.8c0,2-1.2,3.3-3.6,3.3
				S87.2,135.9,87.2,134z"/>
			<path fill="#231F20" d="M103,137.2v-5.6l-2.3,5.6H100l-2.3-5.6v5.6H96v-8h2.4l1.9,4.8l1.9-4.8h2.4v8H103z"/>
			<path fill="#231F20" d="M106.3,137.2v-8h4.2c1.5,0,2.3,1,2.3,2c0,1-0.6,1.7-1.4,1.8c0.9,0.1,1.5,1,1.5,2c0,1.2-0.8,2.2-2.3,2.2
				H106.3z M111,131.5c0-0.5-0.4-0.9-0.9-0.9H108v1.7h2.1C110.7,132.4,111,132,111,131.5z M111.2,134.8c0-0.5-0.4-0.9-1-0.9H108v1.9
				h2.2C110.8,135.7,111.2,135.3,111.2,134.8z"/>
			<path fill="#231F20" d="M114.2,137.2v-8h5.7v1.5h-4v1.7h3.9v1.5h-3.9v1.8h4v1.5H114.2z"/>
			<path fill="#231F20" d="M125.7,137.2l-1.6-2.8h-1.2v2.8h-1.7v-8h3.7c1.7,0,2.7,1.1,2.7,2.6c0,1.4-0.9,2.2-1.8,2.4l1.8,3H125.7z
				 M125.9,131.7c0-0.7-0.5-1.1-1.2-1.1h-1.8v2.2h1.8C125.4,132.8,125.9,132.4,125.9,131.7z"/>
			<path fill="#231F20" d="M129.9,133.7c0-1.4,1.8-1.6,1.8-2.4c0-0.4-0.3-0.7-0.9-0.7c-0.6,0-1.1,0.3-1.5,0.7l-1-1.1
				c0.6-0.7,1.6-1.2,2.6-1.2c1.5,0,2.5,0.8,2.5,1.9c0,1.8-2,1.9-2,2.9c0,0.2,0.1,0.4,0.2,0.5l-1.3,0.4
				C130,134.4,129.9,134.1,129.9,133.7z M129.9,136.3c0-0.5,0.4-1,1-1c0.5,0,1,0.4,1,1s-0.4,1-1,1
				C130.3,137.3,129.9,136.9,129.9,136.3z"/>
		</g>
	</g>
	<g>
		<g>
			<path fill="#010101" d="M219.7,130v-3.3l-3.1-4.7h1.9l2,3.2l2-3.2h1.9l-3.1,4.7v3.3H219.7z"/>
			<path fill="#010101" d="M225.2,130v-8h5.7v1.5h-4v1.7h3.9v1.5h-3.9v1.8h4v1.5H225.2z"/>
			<path fill="#010101" d="M231.7,128.8l0.9-1.3c0.6,0.6,1.4,1.1,2.5,1.1c0.9,0,1.4-0.4,1.4-0.9c0-1.4-4.6-0.4-4.6-3.5
				c0-1.3,1.2-2.4,3-2.4c1.3,0,2.3,0.4,3.1,1.1l-0.9,1.2c-0.6-0.6-1.5-0.9-2.3-0.9c-0.7,0-1.1,0.3-1.1,0.8c0,1.3,4.6,0.4,4.6,3.4
				c0,1.5-1,2.6-3.2,2.6C233.5,130.1,232.4,129.6,231.7,128.8z"/>
		</g>
		<g>
			<rect x="193.9" y="110.5" fill="#FFFFFF" width="67" height="30.9"/>
		</g>
		<g>
			<path fill="#231F20" d="M219.7,130v-3.3l-3.1-4.7h1.9l2,3.2l2-3.2h1.9l-3.1,4.7v3.3H219.7z"/>
			<path fill="#231F20" d="M225.2,130v-8h5.7v1.5h-4v1.7h3.9v1.5h-3.9v1.8h4v1.5H225.2z"/>
			<path fill="#231F20" d="M231.7,128.8l0.9-1.3c0.6,0.6,1.4,1.1,2.5,1.1c0.9,0,1.4-0.4,1.4-0.9c0-1.4-4.6-0.4-4.6-3.5
				c0-1.3,1.2-2.4,3-2.4c1.3,0,2.3,0.4,3.1,1.1l-0.9,1.2c-0.6-0.6-1.5-0.9-2.3-0.9c-0.7,0-1.1,0.3-1.1,0.8c0,1.3,4.6,0.4,4.6,3.4
				c0,1.5-1,2.6-3.2,2.6C233.5,130.1,232.4,129.6,231.7,128.8z"/>
		</g>
	</g>
	<g>
		<g>
			<path fill="#010101" d="M375.6,122.7l-0.5-1.4h-3.4l-0.5,1.4h-1.9l3.1-8h2.1l3.1,8H375.6z M373.4,116.4l-1.2,3.4h2.5L373.4,116.4
				z"/>
			<path fill="#010101" d="M382.8,122.7l-1.6-2.8H380v2.8h-1.7v-8h3.7c1.7,0,2.7,1.1,2.7,2.6c0,1.4-0.9,2.2-1.8,2.4l1.8,3H382.8z
				 M383,117.3c0-0.7-0.5-1.1-1.2-1.1H380v2.2h1.8C382.5,118.4,383,118,383,117.3z"/>
			<path fill="#010101" d="M386,122.7v-8h5.7v1.5h-4v1.7h3.9v1.5h-3.9v1.8h4v1.5H386z"/>
			<path fill="#010101" d="M398.3,122.7v-3.3l-3.1-4.7h1.9l2,3.2l2-3.2h1.9l-3.1,4.7v3.3H398.3z"/>
			<path fill="#010101" d="M402.9,118.7c0-2.4,1.8-4.1,4.2-4.1c2.4,0,4.2,1.7,4.2,4.1c0,2.4-1.8,4.1-4.2,4.1
				C404.7,122.9,402.9,121.1,402.9,118.7z M409.6,118.7c0-1.5-1-2.6-2.4-2.6c-1.5,0-2.4,1.1-2.4,2.6c0,1.5,0.9,2.6,2.4,2.6
				C408.6,121.4,409.6,120.2,409.6,118.7z"/>
			<path fill="#010101" d="M412.5,119.5v-4.8h1.7v4.8c0,1.1,0.6,1.9,1.9,1.9s1.9-0.8,1.9-1.9v-4.8h1.7v4.8c0,2-1.2,3.3-3.6,3.3
				S412.5,121.5,412.5,119.5z"/>
			<path fill="#010101" d="M421.1,117.8c0-0.5,0.4-1,1-1s1,0.4,1,1c0,0.5-0.4,1-1,1S421.1,118.3,421.1,117.8z M421.1,121.9
				c0-0.5,0.4-1,1-1s1,0.4,1,1s-0.4,1-1,1S421.1,122.4,421.1,121.9z"/>
			<path fill="#010101" d="M311.1,137.1v-8h1.7v8H311.1z"/>
			<path fill="#010101" d="M319.9,137.1l-3.8-5.2v5.2h-1.7v-8h1.8l3.7,5v-5h1.7v8H319.9z"/>
			<path fill="#010101" d="M323.1,137.1v-8h3.2c2.5,0,4.2,1.6,4.2,4c0,2.4-1.7,4-4.2,4H323.1z M328.8,133.1c0-1.4-0.9-2.5-2.5-2.5
				h-1.5v5h1.5C327.8,135.6,328.8,134.5,328.8,133.1z"/>
			<path fill="#010101" d="M331.7,137.1v-8h1.7v8H331.7z"/>
			<path fill="#010101" d="M337.2,137.1l-3.1-8h1.9l2.2,6.2l2.2-6.2h1.9l-3.1,8H337.2z"/>
			<path fill="#010101" d="M343.2,137.1v-8h1.7v8H343.2z"/>
			<path fill="#010101" d="M346.5,137.1v-8h3.2c2.5,0,4.2,1.6,4.2,4c0,2.4-1.7,4-4.2,4H346.5z M352.2,133.1c0-1.4-0.9-2.5-2.5-2.5
				h-1.5v5h1.5C351.2,135.6,352.2,134.5,352.2,133.1z"/>
			<path fill="#010101" d="M355.1,133.9v-4.8h1.7v4.7c0,1.1,0.6,1.9,1.9,1.9s1.9-0.8,1.9-1.9v-4.7h1.7v4.8c0,2-1.2,3.3-3.6,3.3
				S355.1,135.9,355.1,133.9z"/>
			<path fill="#010101" d="M369,137.1l-0.5-1.4h-3.4l-0.5,1.4h-1.9l3.1-8h2.1l3.1,8H369z M366.8,130.8l-1.2,3.4h2.5L366.8,130.8z"/>
			<path fill="#010101" d="M371.7,137.1v-8h1.7v6.5h3.4v1.5H371.7z"/>
			<path fill="#010101" d="M377.2,137.4l2.8-8.5h1.1l-2.8,8.5H377.2z"/>
			<path fill="#010101" d="M387.5,137.1l-3.8-5.2v5.2h-1.7v-8h1.8l3.7,5v-5h1.7v8H387.5z"/>
			<path fill="#010101" d="M390.3,133.1c0-2.4,1.8-4.1,4.2-4.1c2.4,0,4.2,1.7,4.2,4.1c0,2.4-1.8,4.1-4.2,4.1
				C392.1,137.3,390.3,135.5,390.3,133.1z M396.9,133.1c0-1.5-1-2.6-2.4-2.6c-1.5,0-2.4,1.1-2.4,2.6c0,1.5,0.9,2.6,2.4,2.6
				C396,135.8,396.9,134.6,396.9,133.1z"/>
			<path fill="#010101" d="M405.4,137.1l-3.8-5.2v5.2h-1.7v-8h1.8l3.7,5v-5h1.7v8H405.4z"/>
			<path fill="#010101" d="M408.2,134.9v-1.3h2.9v1.3H408.2z"/>
			<path fill="#010101" d="M412.2,137.1v-8h1.7v8H412.2z"/>
			<path fill="#010101" d="M421,137.1l-3.8-5.2v5.2h-1.7v-8h1.8l3.7,5v-5h1.7v8H421z"/>
			<path fill="#010101" d="M424.3,137.1v-8h3.2c2.5,0,4.2,1.6,4.2,4c0,2.4-1.7,4-4.2,4H424.3z M429.9,133.1c0-1.4-0.9-2.5-2.5-2.5
				H426v5h1.5C429,135.6,429.9,134.5,429.9,133.1z"/>
			<path fill="#010101" d="M432.9,137.1v-8h1.7v8H432.9z"/>
			<path fill="#010101" d="M438.4,137.1l-3.1-8h1.9l2.2,6.2l2.2-6.2h1.9l-3.1,8H438.4z"/>
			<path fill="#010101" d="M444.4,137.1v-8h1.7v8H444.4z"/>
			<path fill="#010101" d="M447.7,137.1v-8h3.2c2.5,0,4.2,1.6,4.2,4c0,2.4-1.7,4-4.2,4H447.7z M453.3,133.1c0-1.4-0.9-2.5-2.5-2.5
				h-1.5v5h1.5C452.4,135.6,453.3,134.5,453.3,133.1z"/>
			<path fill="#010101" d="M456.3,133.9v-4.8h1.7v4.7c0,1.1,0.6,1.9,1.9,1.9s1.9-0.8,1.9-1.9v-4.7h1.7v4.8c0,2-1.2,3.3-3.6,3.3
				S456.3,135.9,456.3,133.9z"/>
			<path fill="#010101" d="M470.2,137.1l-0.5-1.4h-3.4l-0.5,1.4h-1.9l3.1-8h2.1l3.1,8H470.2z M468,130.8l-1.2,3.4h2.5L468,130.8z"/>
			<path fill="#010101" d="M472.9,137.1v-8h1.7v6.5h3.4v1.5H472.9z"/>
			<path fill="#010101" d="M478.8,133.6c0-1.4,1.8-1.6,1.8-2.4c0-0.4-0.3-0.7-0.9-0.7c-0.6,0-1.1,0.3-1.5,0.7l-1-1.1
				c0.6-0.7,1.6-1.2,2.6-1.2c1.5,0,2.5,0.8,2.5,1.9c0,1.8-2,1.9-2,2.9c0,0.2,0.1,0.4,0.2,0.5l-1.3,0.4
				C479,134.4,478.8,134,478.8,133.6z M478.8,136.3c0-0.5,0.4-1,1-1c0.5,0,1,0.4,1,1c0,0.5-0.4,1-1,1
				C479.3,137.3,478.8,136.8,478.8,136.3z"/>
		</g>
		<g>
			<rect x="288.4" y="103.2" fill="#E5E5E5" width="216.6" height="45.4"/>
		</g>
		<g>
			<path fill="#231F20" d="M375.6,122.7l-0.5-1.4h-3.4l-0.5,1.4h-1.9l3.1-8h2.1l3.1,8H375.6z M373.4,116.4l-1.2,3.4h2.5L373.4,116.4
				z"/>
			<path fill="#231F20" d="M382.8,122.7l-1.6-2.8H380v2.8h-1.7v-8h3.7c1.7,0,2.7,1.1,2.7,2.6c0,1.4-0.9,2.2-1.8,2.4l1.8,3H382.8z
				 M383,117.3c0-0.7-0.5-1.1-1.2-1.1H380v2.2h1.8C382.5,118.4,383,118,383,117.3z"/>
			<path fill="#231F20" d="M386,122.7v-8h5.7v1.5h-4v1.7h3.9v1.5h-3.9v1.8h4v1.5H386z"/>
			<path fill="#231F20" d="M398.3,122.7v-3.3l-3.1-4.7h1.9l2,3.2l2-3.2h1.9l-3.1,4.7v3.3H398.3z"/>
			<path fill="#231F20" d="M402.9,118.7c0-2.4,1.8-4.1,4.2-4.1c2.4,0,4.2,1.7,4.2,4.1c0,2.4-1.8,4.1-4.2,4.1
				C404.7,122.9,402.9,121.1,402.9,118.7z M409.6,118.7c0-1.5-1-2.6-2.4-2.6c-1.5,0-2.4,1.1-2.4,2.6c0,1.5,0.9,2.6,2.4,2.6
				C408.6,121.4,409.6,120.2,409.6,118.7z"/>
			<path fill="#231F20" d="M412.5,119.5v-4.8h1.7v4.8c0,1.1,0.6,1.9,1.9,1.9s1.9-0.8,1.9-1.9v-4.8h1.7v4.8c0,2-1.2,3.3-3.6,3.3
				S412.5,121.5,412.5,119.5z"/>
			<path fill="#231F20" d="M421.1,117.8c0-0.5,0.4-1,1-1s1,0.4,1,1c0,0.5-0.4,1-1,1S421.1,118.3,421.1,117.8z M421.1,121.9
				c0-0.5,0.4-1,1-1s1,0.4,1,1s-0.4,1-1,1S421.1,122.4,421.1,121.9z"/>
			<path fill="#231F20" d="M311.1,137.1v-8h1.7v8H311.1z"/>
			<path fill="#231F20" d="M319.9,137.1l-3.8-5.2v5.2h-1.7v-8h1.8l3.7,5v-5h1.7v8H319.9z"/>
			<path fill="#231F20" d="M323.1,137.1v-8h3.2c2.5,0,4.2,1.6,4.2,4c0,2.4-1.7,4-4.2,4H323.1z M328.8,133.1c0-1.4-0.9-2.5-2.5-2.5
				h-1.5v5h1.5C327.8,135.6,328.8,134.5,328.8,133.1z"/>
			<path fill="#231F20" d="M331.7,137.1v-8h1.7v8H331.7z"/>
			<path fill="#231F20" d="M337.2,137.1l-3.1-8h1.9l2.2,6.2l2.2-6.2h1.9l-3.1,8H337.2z"/>
			<path fill="#231F20" d="M343.2,137.1v-8h1.7v8H343.2z"/>
			<path fill="#231F20" d="M346.5,137.1v-8h3.2c2.5,0,4.2,1.6,4.2,4c0,2.4-1.7,4-4.2,4H346.5z M352.2,133.1c0-1.4-0.9-2.5-2.5-2.5
				h-1.5v5h1.5C351.2,135.6,352.2,134.5,352.2,133.1z"/>
			<path fill="#231F20" d="M355.1,133.9v-4.8h1.7v4.7c0,1.1,0.6,1.9,1.9,1.9s1.9-0.8,1.9-1.9v-4.7h1.7v4.8c0,2-1.2,3.3-3.6,3.3
				S355.1,135.9,355.1,133.9z"/>
			<path fill="#231F20" d="M369,137.1l-0.5-1.4h-3.4l-0.5,1.4h-1.9l3.1-8h2.1l3.1,8H369z M366.8,130.8l-1.2,3.4h2.5L366.8,130.8z"/>
			<path fill="#231F20" d="M371.7,137.1v-8h1.7v6.5h3.4v1.5H371.7z"/>
			<path fill="#231F20" d="M377.2,137.4l2.8-8.5h1.1l-2.8,8.5H377.2z"/>
			<path fill="#231F20" d="M387.5,137.1l-3.8-5.2v5.2h-1.7v-8h1.8l3.7,5v-5h1.7v8H387.5z"/>
			<path fill="#231F20" d="M390.3,133.1c0-2.4,1.8-4.1,4.2-4.1c2.4,0,4.2,1.7,4.2,4.1c0,2.4-1.8,4.1-4.2,4.1
				C392.1,137.3,390.3,135.5,390.3,133.1z M396.9,133.1c0-1.5-1-2.6-2.4-2.6c-1.5,0-2.4,1.1-2.4,2.6c0,1.5,0.9,2.6,2.4,2.6
				C396,135.8,396.9,134.6,396.9,133.1z"/>
			<path fill="#231F20" d="M405.4,137.1l-3.8-5.2v5.2h-1.7v-8h1.8l3.7,5v-5h1.7v8H405.4z"/>
			<path fill="#231F20" d="M408.2,134.9v-1.3h2.9v1.3H408.2z"/>
			<path fill="#231F20" d="M412.2,137.1v-8h1.7v8H412.2z"/>
			<path fill="#231F20" d="M421,137.1l-3.8-5.2v5.2h-1.7v-8h1.8l3.7,5v-5h1.7v8H421z"/>
			<path fill="#231F20" d="M424.3,137.1v-8h3.2c2.5,0,4.2,1.6,4.2,4c0,2.4-1.7,4-4.2,4H424.3z M429.9,133.1c0-1.4-0.9-2.5-2.5-2.5
				H426v5h1.5C429,135.6,429.9,134.5,429.9,133.1z"/>
			<path fill="#231F20" d="M432.9,137.1v-8h1.7v8H432.9z"/>
			<path fill="#231F20" d="M438.4,137.1l-3.1-8h1.9l2.2,6.2l2.2-6.2h1.9l-3.1,8H438.4z"/>
			<path fill="#231F20" d="M444.4,137.1v-8h1.7v8H444.4z"/>
			<path fill="#231F20" d="M447.7,137.1v-8h3.2c2.5,0,4.2,1.6,4.2,4c0,2.4-1.7,4-4.2,4H447.7z M453.3,133.1c0-1.4-0.9-2.5-2.5-2.5
				h-1.5v5h1.5C452.4,135.6,453.3,134.5,453.3,133.1z"/>
			<path fill="#231F20" d="M456.3,133.9v-4.8h1.7v4.7c0,1.1,0.6,1.9,1.9,1.9s1.9-0.8,1.9-1.9v-4.7h1.7v4.8c0,2-1.2,3.3-3.6,3.3
				S456.3,135.9,456.3,133.9z"/>
			<path fill="#231F20" d="M470.2,137.1l-0.5-1.4h-3.4l-0.5,1.4h-1.9l3.1-8h2.1l3.1,8H470.2z M468,130.8l-1.2,3.4h2.5L468,130.8z"/>
			<path fill="#231F20" d="M472.9,137.1v-8h1.7v6.5h3.4v1.5H472.9z"/>
			<path fill="#231F20" d="M478.8,133.6c0-1.4,1.8-1.6,1.8-2.4c0-0.4-0.3-0.7-0.9-0.7c-0.6,0-1.1,0.3-1.5,0.7l-1-1.1
				c0.6-0.7,1.6-1.2,2.6-1.2c1.5,0,2.5,0.8,2.5,1.9c0,1.8-2,1.9-2,2.9c0,0.2,0.1,0.4,0.2,0.5l-1.3,0.4
				C479,134.4,478.8,134,478.8,133.6z M478.8,136.3c0-0.5,0.4-1,1-1c0.5,0,1,0.4,1,1c0,0.5-0.4,1-1,1
				C479.3,137.3,478.8,136.8,478.8,136.3z"/>
		</g>
	</g>
	<g>
		<g>
			<path fill="#010101" d="M779,122.7l-0.5-1.4h-3.4l-0.5,1.4h-1.9l3.1-8h2.1l3.1,8H779z M776.8,116.4l-1.2,3.4h2.5L776.8,116.4z"/>
			<path fill="#010101" d="M781.7,122.7v-8h3.7c1.7,0,2.7,1.2,2.7,2.6c0,1.4-1,2.6-2.7,2.6h-2v2.8H781.7z M786.4,117.3
				c0-0.7-0.5-1.1-1.2-1.1h-1.8v2.2h1.8C785.9,118.4,786.4,118,786.4,117.3z"/>
			<path fill="#010101" d="M789.2,122.7v-8h3.7c1.7,0,2.7,1.2,2.7,2.6c0,1.4-1,2.6-2.7,2.6h-2v2.8H789.2z M793.9,117.3
				c0-0.7-0.5-1.1-1.2-1.1h-1.8v2.2h1.8C793.4,118.4,793.9,118,793.9,117.3z"/>
			<path fill="#010101" d="M796.7,122.7v-8h1.7v6.5h3.4v1.5H796.7z"/>
			<path fill="#010101" d="M803.7,122.7v-3.3l-3.1-4.7h1.9l2,3.2l2-3.2h1.9l-3.1,4.7v3.3H803.7z"/>
			<path fill="#010101" d="M809.2,122.7v-8h1.7v8H809.2z"/>
			<path fill="#010101" d="M818,122.7l-3.8-5.2v5.2h-1.7v-8h1.8l3.7,5v-5h1.7v8H818z"/>
			<path fill="#010101" d="M820.9,118.7c0-2.5,1.9-4.1,4.3-4.1c1.7,0,2.7,0.8,3.3,1.8l-1.4,0.8c-0.4-0.6-1-1-1.9-1
				c-1.5,0-2.5,1.1-2.5,2.6c0,1.5,1.1,2.6,2.5,2.6c0.7,0,1.4-0.3,1.7-0.6v-1h-2.1v-1.5h3.8v3.1c-0.8,0.9-2,1.5-3.4,1.5
				C822.8,122.9,820.9,121.2,820.9,118.7z"/>
			<path fill="#010101" d="M832.9,122.7v-8h5.7v1.5h-4v1.7h3.9v1.5h-3.9v3.3H832.9z"/>
			<path fill="#010101" d="M839.4,118.7c0-2.4,1.8-4.1,4.2-4.1c2.4,0,4.2,1.7,4.2,4.1c0,2.4-1.8,4.1-4.2,4.1
				C841.2,122.9,839.4,121.1,839.4,118.7z M846,118.7c0-1.5-1-2.6-2.4-2.6c-1.5,0-2.4,1.1-2.4,2.6c0,1.5,0.9,2.6,2.4,2.6
				C845.1,121.4,846,120.2,846,118.7z"/>
			<path fill="#010101" d="M853.5,122.7l-1.6-2.8h-1.2v2.8H849v-8h3.7c1.7,0,2.7,1.1,2.7,2.6c0,1.4-0.9,2.2-1.8,2.4l1.8,3H853.5z
				 M853.7,117.3c0-0.7-0.5-1.1-1.2-1.1h-1.8v2.2h1.8C853.2,118.4,853.7,118,853.7,117.3z"/>
			<path fill="#010101" d="M856.5,117.8c0-0.5,0.4-1,1-1s1,0.4,1,1c0,0.5-0.4,1-1,1S856.5,118.3,856.5,117.8z M856.5,121.9
				c0-0.5,0.4-1,1-1s1,0.4,1,1c0,0.5-0.4,1-1,1S856.5,122.4,856.5,121.9z"/>
			<path fill="#010101" d="M696.8,137.1v-3.3l-3.1-4.7h1.9l2,3.2l2-3.2h1.9l-3.1,4.7v3.3H696.8z"/>
			<path fill="#010101" d="M701.4,133.1c0-2.4,1.8-4.1,4.2-4.1c2.4,0,4.2,1.7,4.2,4.1c0,2.4-1.8,4.1-4.2,4.1
				C703.2,137.3,701.4,135.5,701.4,133.1z M708,133.1c0-1.5-1-2.6-2.4-2.6c-1.5,0-2.4,1.1-2.4,2.6c0,1.5,0.9,2.6,2.4,2.6
				C707.1,135.8,708,134.6,708,133.1z"/>
			<path fill="#010101" d="M711,133.9v-4.8h1.7v4.8c0,1.1,0.6,1.9,1.9,1.9s1.9-0.8,1.9-1.9v-4.8h1.7v4.8c0,2-1.2,3.3-3.6,3.3
				S711,135.9,711,133.9z"/>
			<path fill="#010101" d="M724.3,137.1l-1.6-2.8h-1.2v2.8h-1.7v-8h3.7c1.7,0,2.7,1.1,2.7,2.6c0,1.4-0.9,2.2-1.8,2.4l1.8,3H724.3z
				 M724.5,131.7c0-0.7-0.5-1.1-1.2-1.1h-1.8v2.2h1.8C723.9,132.8,724.5,132.4,724.5,131.7z"/>
			<path fill="#010101" d="M726.9,136l0.9-1.3c0.6,0.6,1.4,1.1,2.5,1.1c0.9,0,1.4-0.4,1.4-0.9c0-1.4-4.6-0.4-4.6-3.5
				c0-1.3,1.2-2.4,3-2.4c1.3,0,2.3,0.4,3.1,1.1l-0.9,1.2c-0.6-0.6-1.5-0.9-2.3-0.9c-0.7,0-1.1,0.3-1.1,0.8c0,1.3,4.6,0.4,4.6,3.4
				c0,1.5-1,2.6-3.2,2.6C728.8,137.3,727.7,136.7,726.9,136z"/>
			<path fill="#010101" d="M734.7,137.1v-8h5.7v1.5h-4v1.7h3.9v1.5h-3.9v1.8h4v1.5H734.7z"/>
			<path fill="#010101" d="M741.7,137.1v-8h1.7v6.5h3.4v1.5H741.7z"/>
			<path fill="#010101" d="M748,137.1v-8h5.7v1.5h-4v1.7h3.9v1.5h-3.9v3.3H748z"/>
			<path fill="#010101" d="M757.1,137.4l2.8-8.5h1.1l-2.8,8.5H757.1z"/>
			<path fill="#010101" d="M770.4,137.1l-0.5-1.4h-3.4l-0.5,1.4h-1.9l3.1-8h2.1l3.1,8H770.4z M768.2,130.8l-1.2,3.4h2.5L768.2,130.8
				z"/>
			<path fill="#010101" d="M775.8,133.1c0-2.5,1.9-4.1,4.3-4.1c1.8,0,2.8,1,3.3,2l-1.5,0.7c-0.3-0.6-1.1-1.2-1.9-1.2
				c-1.5,0-2.5,1.1-2.5,2.6c0,1.5,1.1,2.6,2.5,2.6c0.8,0,1.5-0.5,1.9-1.2l1.5,0.7c-0.6,1-1.6,2-3.3,2
				C777.7,137.3,775.8,135.6,775.8,133.1z"/>
			<path fill="#010101" d="M789.9,137.1v-3.4h-3.8v3.4h-1.7v-8h1.7v3.1h3.8v-3.1h1.7v8H789.9z"/>
			<path fill="#010101" d="M793.2,137.1v-8h1.7v8H793.2z"/>
			<path fill="#010101" d="M796.5,137.1v-8h1.7v6.5h3.4v1.5H796.5z"/>
			<path fill="#010101" d="M802.8,137.1v-8h3.2c2.5,0,4.2,1.6,4.2,4c0,2.4-1.7,4-4.2,4H802.8z M808.4,133.1c0-1.4-0.9-2.5-2.5-2.5
				h-1.5v5h1.5C807.5,135.6,808.4,134.5,808.4,133.1z"/>
			<path fill="#010101" d="M814.5,133.9v-4.8h1.7v4.8c0,1.1,0.6,1.9,1.9,1.9s1.9-0.8,1.9-1.9v-4.8h1.7v4.8c0,2-1.2,3.3-3.6,3.3
				S814.5,135.9,814.5,133.9z"/>
			<path fill="#010101" d="M828.8,137.1l-3.8-5.2v5.2h-1.7v-8h1.8l3.7,5v-5h1.7v8H828.8z"/>
			<path fill="#010101" d="M832,137.1v-8h3.2c2.5,0,4.2,1.6,4.2,4c0,2.4-1.7,4-4.2,4H832z M837.7,133.1c0-1.4-0.9-2.5-2.5-2.5h-1.5
				v5h1.5C836.7,135.6,837.7,134.5,837.7,133.1z"/>
			<path fill="#010101" d="M840.6,137.1v-8h5.7v1.5h-4v1.7h3.9v1.5h-3.9v1.8h4v1.5H840.6z"/>
			<path fill="#010101" d="M852.1,137.1l-1.6-2.8h-1.2v2.8h-1.7v-8h3.7c1.7,0,2.7,1.1,2.7,2.6c0,1.4-0.9,2.2-1.8,2.4l1.8,3H852.1z
				 M852.3,131.7c0-0.7-0.5-1.1-1.2-1.1h-1.8v2.2h1.8C851.8,132.8,852.3,132.4,852.3,131.7z"/>
			<path fill="#010101" d="M860,137.1v-5.8l-1.3,1.4l-1-1l2.5-2.5h1.5v8H860z"/>
			<path fill="#010101" d="M862.9,133.1c0-2.4,1.4-4.1,3.7-4.1c1,0,1.8,0.3,2.4,0.8l-0.8,1.3c-0.4-0.4-0.9-0.6-1.6-0.6
				c-1.2,0-2,1-2,2.3c0,0.1,0,0.1,0,0.2c0.4-0.5,1.2-1,2.1-1c1.4,0,2.7,0.9,2.7,2.6c0,1.6-1.2,2.7-3.1,2.7
				C864,137.3,862.9,135.4,862.9,133.1z M867.7,134.6c0-0.8-0.7-1.2-1.5-1.2c-0.6,0-1.2,0.3-1.6,0.8c0.1,0.8,0.5,1.6,1.6,1.6
				C867.2,135.8,867.7,135.1,867.7,134.6z"/>
			<path fill="#010101" d="M875.9,137.1v-3.3l-3.1-4.7h1.9l2,3.2l2-3.2h1.9l-3.1,4.7v3.3H875.9z"/>
			<path fill="#010101" d="M881.4,137.1v-8h5.7v1.5h-4v1.7h3.9v1.5h-3.9v1.8h4v1.5H881.4z"/>
			<path fill="#010101" d="M893.9,137.1l-0.5-1.4H890l-0.5,1.4h-1.9l3.1-8h2.1l3.1,8H893.9z M891.7,130.8l-1.2,3.4h2.5L891.7,130.8z
				"/>
			<path fill="#010101" d="M901.2,137.1l-1.6-2.8h-1.2v2.8h-1.7v-8h3.7c1.7,0,2.7,1.1,2.7,2.6c0,1.4-0.9,2.2-1.8,2.4l1.8,3H901.2z
				 M901.3,131.7c0-0.7-0.5-1.1-1.2-1.1h-1.8v2.2h1.8C900.8,132.8,901.3,132.4,901.3,131.7z"/>
			<path fill="#010101" d="M903.8,136l0.9-1.3c0.6,0.6,1.4,1.1,2.5,1.1c0.9,0,1.4-0.4,1.4-0.9c0-1.4-4.6-0.4-4.6-3.5
				c0-1.3,1.2-2.4,3-2.4c1.3,0,2.3,0.4,3.1,1.1l-0.9,1.2c-0.6-0.6-1.5-0.9-2.3-0.9c-0.7,0-1.1,0.3-1.1,0.8c0,1.3,4.6,0.4,4.6,3.4
				c0,1.5-1,2.6-3.2,2.6C905.7,137.3,904.6,136.7,903.8,136z"/>
			<path fill="#010101" d="M914.2,133.1c0-2.4,1.8-4.1,4.2-4.1c2.4,0,4.2,1.7,4.2,4.1c0,2.4-1.8,4.1-4.2,4.1
				C916,137.3,914.2,135.5,914.2,133.1z M920.9,133.1c0-1.5-1-2.6-2.4-2.6c-1.5,0-2.4,1.1-2.4,2.6c0,1.5,0.9,2.6,2.4,2.6
				C919.9,135.8,920.9,134.6,920.9,133.1z"/>
			<path fill="#010101" d="M923.8,137.1v-8h1.7v6.5h3.4v1.5H923.8z"/>
			<path fill="#010101" d="M930.1,137.1v-8h3.2c2.5,0,4.2,1.6,4.2,4c0,2.4-1.7,4-4.2,4H930.1z M935.7,133.1c0-1.4-0.9-2.5-2.5-2.5
				h-1.5v5h1.5C934.8,135.6,935.7,134.5,935.7,133.1z"/>
		</g>
		<g>
			<rect x="671" y="103.2" fill="#E5E5E5" width="289.2" height="45.4"/>
		</g>
		<g>
			<path fill="#231F20" d="M779,122.7l-0.5-1.4h-3.4l-0.5,1.4h-1.9l3.1-8h2.1l3.1,8H779z M776.8,116.4l-1.2,3.4h2.5L776.8,116.4z"/>
			<path fill="#231F20" d="M781.7,122.7v-8h3.7c1.7,0,2.7,1.2,2.7,2.6c0,1.4-1,2.6-2.7,2.6h-2v2.8H781.7z M786.4,117.3
				c0-0.7-0.5-1.1-1.2-1.1h-1.8v2.2h1.8C785.9,118.4,786.4,118,786.4,117.3z"/>
			<path fill="#231F20" d="M789.2,122.7v-8h3.7c1.7,0,2.7,1.2,2.7,2.6c0,1.4-1,2.6-2.7,2.6h-2v2.8H789.2z M793.9,117.3
				c0-0.7-0.5-1.1-1.2-1.1h-1.8v2.2h1.8C793.4,118.4,793.9,118,793.9,117.3z"/>
			<path fill="#231F20" d="M796.7,122.7v-8h1.7v6.5h3.4v1.5H796.7z"/>
			<path fill="#231F20" d="M803.7,122.7v-3.3l-3.1-4.7h1.9l2,3.2l2-3.2h1.9l-3.1,4.7v3.3H803.7z"/>
			<path fill="#231F20" d="M809.2,122.7v-8h1.7v8H809.2z"/>
			<path fill="#231F20" d="M818,122.7l-3.8-5.2v5.2h-1.7v-8h1.8l3.7,5v-5h1.7v8H818z"/>
			<path fill="#231F20" d="M820.9,118.7c0-2.5,1.9-4.1,4.3-4.1c1.7,0,2.7,0.8,3.3,1.8l-1.4,0.8c-0.4-0.6-1-1-1.9-1
				c-1.5,0-2.5,1.1-2.5,2.6c0,1.5,1.1,2.6,2.5,2.6c0.7,0,1.4-0.3,1.7-0.6v-1h-2.1v-1.5h3.8v3.1c-0.8,0.9-2,1.5-3.4,1.5
				C822.8,122.9,820.9,121.2,820.9,118.7z"/>
			<path fill="#231F20" d="M832.9,122.7v-8h5.7v1.5h-4v1.7h3.9v1.5h-3.9v3.3H832.9z"/>
			<path fill="#231F20" d="M839.4,118.7c0-2.4,1.8-4.1,4.2-4.1c2.4,0,4.2,1.7,4.2,4.1c0,2.4-1.8,4.1-4.2,4.1
				C841.2,122.9,839.4,121.1,839.4,118.7z M846,118.7c0-1.5-1-2.6-2.4-2.6c-1.5,0-2.4,1.1-2.4,2.6c0,1.5,0.9,2.6,2.4,2.6
				C845.1,121.4,846,120.2,846,118.7z"/>
			<path fill="#231F20" d="M853.5,122.7l-1.6-2.8h-1.2v2.8H849v-8h3.7c1.7,0,2.7,1.1,2.7,2.6c0,1.4-0.9,2.2-1.8,2.4l1.8,3H853.5z
				 M853.7,117.3c0-0.7-0.5-1.1-1.2-1.1h-1.8v2.2h1.8C853.2,118.4,853.7,118,853.7,117.3z"/>
			<path fill="#231F20" d="M856.5,117.8c0-0.5,0.4-1,1-1s1,0.4,1,1c0,0.5-0.4,1-1,1S856.5,118.3,856.5,117.8z M856.5,121.9
				c0-0.5,0.4-1,1-1s1,0.4,1,1c0,0.5-0.4,1-1,1S856.5,122.4,856.5,121.9z"/>
			<path fill="#231F20" d="M696.8,137.1v-3.3l-3.1-4.7h1.9l2,3.2l2-3.2h1.9l-3.1,4.7v3.3H696.8z"/>
			<path fill="#231F20" d="M701.4,133.1c0-2.4,1.8-4.1,4.2-4.1c2.4,0,4.2,1.7,4.2,4.1c0,2.4-1.8,4.1-4.2,4.1
				C703.2,137.3,701.4,135.5,701.4,133.1z M708,133.1c0-1.5-1-2.6-2.4-2.6c-1.5,0-2.4,1.1-2.4,2.6c0,1.5,0.9,2.6,2.4,2.6
				C707.1,135.8,708,134.6,708,133.1z"/>
			<path fill="#231F20" d="M711,133.9v-4.8h1.7v4.8c0,1.1,0.6,1.9,1.9,1.9s1.9-0.8,1.9-1.9v-4.8h1.7v4.8c0,2-1.2,3.3-3.6,3.3
				S711,135.9,711,133.9z"/>
			<path fill="#231F20" d="M724.3,137.1l-1.6-2.8h-1.2v2.8h-1.7v-8h3.7c1.7,0,2.7,1.1,2.7,2.6c0,1.4-0.9,2.2-1.8,2.4l1.8,3H724.3z
				 M724.5,131.7c0-0.7-0.5-1.1-1.2-1.1h-1.8v2.2h1.8C723.9,132.8,724.5,132.4,724.5,131.7z"/>
			<path fill="#231F20" d="M726.9,136l0.9-1.3c0.6,0.6,1.4,1.1,2.5,1.1c0.9,0,1.4-0.4,1.4-0.9c0-1.4-4.6-0.4-4.6-3.5
				c0-1.3,1.2-2.4,3-2.4c1.3,0,2.3,0.4,3.1,1.1l-0.9,1.2c-0.6-0.6-1.5-0.9-2.3-0.9c-0.7,0-1.1,0.3-1.1,0.8c0,1.3,4.6,0.4,4.6,3.4
				c0,1.5-1,2.6-3.2,2.6C728.8,137.3,727.7,136.7,726.9,136z"/>
			<path fill="#231F20" d="M734.7,137.1v-8h5.7v1.5h-4v1.7h3.9v1.5h-3.9v1.8h4v1.5H734.7z"/>
			<path fill="#231F20" d="M741.7,137.1v-8h1.7v6.5h3.4v1.5H741.7z"/>
			<path fill="#231F20" d="M748,137.1v-8h5.7v1.5h-4v1.7h3.9v1.5h-3.9v3.3H748z"/>
			<path fill="#231F20" d="M757.1,137.4l2.8-8.5h1.1l-2.8,8.5H757.1z"/>
			<path fill="#231F20" d="M770.4,137.1l-0.5-1.4h-3.4l-0.5,1.4h-1.9l3.1-8h2.1l3.1,8H770.4z M768.2,130.8l-1.2,3.4h2.5L768.2,130.8
				z"/>
			<path fill="#231F20" d="M775.8,133.1c0-2.5,1.9-4.1,4.3-4.1c1.8,0,2.8,1,3.3,2l-1.5,0.7c-0.3-0.6-1.1-1.2-1.9-1.2
				c-1.5,0-2.5,1.1-2.5,2.6c0,1.5,1.1,2.6,2.5,2.6c0.8,0,1.5-0.5,1.9-1.2l1.5,0.7c-0.6,1-1.6,2-3.3,2
				C777.7,137.3,775.8,135.6,775.8,133.1z"/>
			<path fill="#231F20" d="M789.9,137.1v-3.4h-3.8v3.4h-1.7v-8h1.7v3.1h3.8v-3.1h1.7v8H789.9z"/>
			<path fill="#231F20" d="M793.2,137.1v-8h1.7v8H793.2z"/>
			<path fill="#231F20" d="M796.5,137.1v-8h1.7v6.5h3.4v1.5H796.5z"/>
			<path fill="#231F20" d="M802.8,137.1v-8h3.2c2.5,0,4.2,1.6,4.2,4c0,2.4-1.7,4-4.2,4H802.8z M808.4,133.1c0-1.4-0.9-2.5-2.5-2.5
				h-1.5v5h1.5C807.5,135.6,808.4,134.5,808.4,133.1z"/>
			<path fill="#231F20" d="M814.5,133.9v-4.8h1.7v4.8c0,1.1,0.6,1.9,1.9,1.9s1.9-0.8,1.9-1.9v-4.8h1.7v4.8c0,2-1.2,3.3-3.6,3.3
				S814.5,135.9,814.5,133.9z"/>
			<path fill="#231F20" d="M828.8,137.1l-3.8-5.2v5.2h-1.7v-8h1.8l3.7,5v-5h1.7v8H828.8z"/>
			<path fill="#231F20" d="M832,137.1v-8h3.2c2.5,0,4.2,1.6,4.2,4c0,2.4-1.7,4-4.2,4H832z M837.7,133.1c0-1.4-0.9-2.5-2.5-2.5h-1.5
				v5h1.5C836.7,135.6,837.7,134.5,837.7,133.1z"/>
			<path fill="#231F20" d="M840.6,137.1v-8h5.7v1.5h-4v1.7h3.9v1.5h-3.9v1.8h4v1.5H840.6z"/>
			<path fill="#231F20" d="M852.1,137.1l-1.6-2.8h-1.2v2.8h-1.7v-8h3.7c1.7,0,2.7,1.1,2.7,2.6c0,1.4-0.9,2.2-1.8,2.4l1.8,3H852.1z
				 M852.3,131.7c0-0.7-0.5-1.1-1.2-1.1h-1.8v2.2h1.8C851.8,132.8,852.3,132.4,852.3,131.7z"/>
			<path fill="#231F20" d="M860,137.1v-5.8l-1.3,1.4l-1-1l2.5-2.5h1.5v8H860z"/>
			<path fill="#231F20" d="M862.9,133.1c0-2.4,1.4-4.1,3.7-4.1c1,0,1.8,0.3,2.4,0.8l-0.8,1.3c-0.4-0.4-0.9-0.6-1.6-0.6
				c-1.2,0-2,1-2,2.3c0,0.1,0,0.1,0,0.2c0.4-0.5,1.2-1,2.1-1c1.4,0,2.7,0.9,2.7,2.6c0,1.6-1.2,2.7-3.1,2.7
				C864,137.3,862.9,135.4,862.9,133.1z M867.7,134.6c0-0.8-0.7-1.2-1.5-1.2c-0.6,0-1.2,0.3-1.6,0.8c0.1,0.8,0.5,1.6,1.6,1.6
				C867.2,135.8,867.7,135.1,867.7,134.6z"/>
			<path fill="#231F20" d="M875.9,137.1v-3.3l-3.1-4.7h1.9l2,3.2l2-3.2h1.9l-3.1,4.7v3.3H875.9z"/>
			<path fill="#231F20" d="M881.4,137.1v-8h5.7v1.5h-4v1.7h3.9v1.5h-3.9v1.8h4v1.5H881.4z"/>
			<path fill="#231F20" d="M893.9,137.1l-0.5-1.4H890l-0.5,1.4h-1.9l3.1-8h2.1l3.1,8H893.9z M891.7,130.8l-1.2,3.4h2.5L891.7,130.8z
				"/>
			<path fill="#231F20" d="M901.2,137.1l-1.6-2.8h-1.2v2.8h-1.7v-8h3.7c1.7,0,2.7,1.1,2.7,2.6c0,1.4-0.9,2.2-1.8,2.4l1.8,3H901.2z
				 M901.3,131.7c0-0.7-0.5-1.1-1.2-1.1h-1.8v2.2h1.8C900.8,132.8,901.3,132.4,901.3,131.7z"/>
			<path fill="#231F20" d="M903.8,136l0.9-1.3c0.6,0.6,1.4,1.1,2.5,1.1c0.9,0,1.4-0.4,1.4-0.9c0-1.4-4.6-0.4-4.6-3.5
				c0-1.3,1.2-2.4,3-2.4c1.3,0,2.3,0.4,3.1,1.1l-0.9,1.2c-0.6-0.6-1.5-0.9-2.3-0.9c-0.7,0-1.1,0.3-1.1,0.8c0,1.3,4.6,0.4,4.6,3.4
				c0,1.5-1,2.6-3.2,2.6C905.7,137.3,904.6,136.7,903.8,136z"/>
			<path fill="#231F20" d="M914.2,133.1c0-2.4,1.8-4.1,4.2-4.1c2.4,0,4.2,1.7,4.2,4.1c0,2.4-1.8,4.1-4.2,4.1
				C916,137.3,914.2,135.5,914.2,133.1z M920.9,133.1c0-1.5-1-2.6-2.4-2.6c-1.5,0-2.4,1.1-2.4,2.6c0,1.5,0.9,2.6,2.4,2.6
				C919.9,135.8,920.9,134.6,920.9,133.1z"/>
			<path fill="#231F20" d="M923.8,137.1v-8h1.7v6.5h3.4v1.5H923.8z"/>
			<path fill="#231F20" d="M930.1,137.1v-8h3.2c2.5,0,4.2,1.6,4.2,4c0,2.4-1.7,4-4.2,4H930.1z M935.7,133.1c0-1.4-0.9-2.5-2.5-2.5
				h-1.5v5h1.5C934.8,135.6,935.7,134.5,935.7,133.1z"/>
		</g>
	</g>
	<g>
		<g>
			<path fill="#010101" d="M555.1,129.9v-8h1.7v8H555.1z"/>
			<path fill="#010101" d="M563.9,129.9l-3.8-5.2v5.2h-1.7v-8h1.8l3.7,5v-5h1.7v8H563.9z"/>
			<path fill="#010101" d="M567.2,129.9v-8h3.2c2.5,0,4.2,1.6,4.2,4c0,2.4-1.7,4-4.2,4H567.2z M572.8,125.9c0-1.4-0.9-2.5-2.5-2.5
				h-1.5v5h1.5C571.9,128.4,572.8,127.3,572.8,125.9z"/>
			<path fill="#010101" d="M575.8,129.9v-8h1.7v8H575.8z"/>
			<path fill="#010101" d="M581.3,129.9l-3.1-8h1.9l2.2,6.2l2.2-6.2h1.9l-3.1,8H581.3z"/>
			<path fill="#010101" d="M587.3,129.9v-8h1.7v8H587.3z"/>
			<path fill="#010101" d="M590.6,129.9v-8h3.2c2.5,0,4.2,1.6,4.2,4c0,2.4-1.7,4-4.2,4H590.6z M596.2,125.9c0-1.4-0.9-2.5-2.5-2.5
				h-1.5v5h1.5C595.3,128.4,596.2,127.3,596.2,125.9z"/>
			<path fill="#010101" d="M599.2,126.7v-4.8h1.7v4.8c0,1.1,0.6,1.9,1.9,1.9s1.9-0.8,1.9-1.9v-4.8h1.7v4.8c0,2-1.2,3.3-3.6,3.3
				S599.2,128.7,599.2,126.7z"/>
			<path fill="#010101" d="M613.1,129.9l-0.5-1.4h-3.4l-0.5,1.4h-1.9l3.1-8h2.1l3.1,8H613.1z M610.9,123.6l-1.2,3.4h2.5L610.9,123.6
				z"/>
			<path fill="#010101" d="M615.8,129.9v-8h1.7v6.5h3.4v1.5H615.8z"/>
		</g>
		<g>
			<rect x="532.4" y="110.6" fill="#FFFFFF" width="111.1" height="30.8"/>
		</g>
		<g>
			<path fill="#231F20" d="M555.1,129.9v-8h1.7v8H555.1z"/>
			<path fill="#231F20" d="M563.9,129.9l-3.8-5.2v5.2h-1.7v-8h1.8l3.7,5v-5h1.7v8H563.9z"/>
			<path fill="#231F20" d="M567.2,129.9v-8h3.2c2.5,0,4.2,1.6,4.2,4c0,2.4-1.7,4-4.2,4H567.2z M572.8,125.9c0-1.4-0.9-2.5-2.5-2.5
				h-1.5v5h1.5C571.9,128.4,572.8,127.3,572.8,125.9z"/>
			<path fill="#231F20" d="M575.8,129.9v-8h1.7v8H575.8z"/>
			<path fill="#231F20" d="M581.3,129.9l-3.1-8h1.9l2.2,6.2l2.2-6.2h1.9l-3.1,8H581.3z"/>
			<path fill="#231F20" d="M587.3,129.9v-8h1.7v8H587.3z"/>
			<path fill="#231F20" d="M590.6,129.9v-8h3.2c2.5,0,4.2,1.6,4.2,4c0,2.4-1.7,4-4.2,4H590.6z M596.2,125.9c0-1.4-0.9-2.5-2.5-2.5
				h-1.5v5h1.5C595.3,128.4,596.2,127.3,596.2,125.9z"/>
			<path fill="#231F20" d="M599.2,126.7v-4.8h1.7v4.8c0,1.1,0.6,1.9,1.9,1.9s1.9-0.8,1.9-1.9v-4.8h1.7v4.8c0,2-1.2,3.3-3.6,3.3
				S599.2,128.7,599.2,126.7z"/>
			<path fill="#231F20" d="M613.1,129.9l-0.5-1.4h-3.4l-0.5,1.4h-1.9l3.1-8h2.1l3.1,8H613.1z M610.9,123.6l-1.2,3.4h2.5L610.9,123.6
				z"/>
			<path fill="#231F20" d="M615.8,129.9v-8h1.7v6.5h3.4v1.5H615.8z"/>
		</g>
	</g>
	<g>
		<g>
			<path fill="#010101" d="M1017.3,130v-5.6l-2.3,5.6h-0.7l-2.3-5.6v5.6h-1.7v-8h2.4l1.9,4.8l1.9-4.8h2.4v8H1017.3z"/>
			<path fill="#010101" d="M1022.8,130v-3.3l-3.1-4.7h1.9l2,3.2l2-3.2h1.9l-3.1,4.7v3.3H1022.8z"/>
			<path fill="#010101" d="M1027.5,128.8l0.9-1.3c0.6,0.6,1.4,1.1,2.5,1.1c0.9,0,1.4-0.4,1.4-0.9c0-1.4-4.6-0.4-4.6-3.5
				c0-1.3,1.2-2.4,3-2.4c1.3,0,2.3,0.4,3.1,1.1l-0.9,1.2c-0.6-0.6-1.5-0.9-2.3-0.9c-0.7,0-1.1,0.3-1.1,0.8c0,1.3,4.6,0.4,4.6,3.4
				c0,1.5-1,2.6-3.2,2.6C1029.4,130.1,1028.3,129.6,1027.5,128.8z"/>
			<path fill="#010101" d="M1035.3,130v-8h5.7v1.5h-4v1.7h3.9v1.5h-3.9v1.8h4v1.5H1035.3z"/>
			<path fill="#010101" d="M1042.3,130v-8h1.7v6.5h3.4v1.5H1042.3z"/>
			<path fill="#010101" d="M1048.5,130v-8h5.7v1.5h-4v1.7h3.9v1.5h-3.9v3.3H1048.5z"/>
		</g>
		<g>
			<rect x="987.6" y="110.5" fill="#FFFFFF" width="89.2" height="30.9"/>
		</g>
		<g>
			<path fill="#231F20" d="M1017.3,130v-5.6l-2.3,5.6h-0.7l-2.3-5.6v5.6h-1.7v-8h2.4l1.9,4.8l1.9-4.8h2.4v8H1017.3z"/>
			<path fill="#231F20" d="M1022.8,130v-3.3l-3.1-4.7h1.9l2,3.2l2-3.2h1.9l-3.1,4.7v3.3H1022.8z"/>
			<path fill="#231F20" d="M1027.5,128.8l0.9-1.3c0.6,0.6,1.4,1.1,2.5,1.1c0.9,0,1.4-0.4,1.4-0.9c0-1.4-4.6-0.4-4.6-3.5
				c0-1.3,1.2-2.4,3-2.4c1.3,0,2.3,0.4,3.1,1.1l-0.9,1.2c-0.6-0.6-1.5-0.9-2.3-0.9c-0.7,0-1.1,0.3-1.1,0.8c0,1.3,4.6,0.4,4.6,3.4
				c0,1.5-1,2.6-3.2,2.6C1029.4,130.1,1028.3,129.6,1027.5,128.8z"/>
			<path fill="#231F20" d="M1035.3,130v-8h5.7v1.5h-4v1.7h3.9v1.5h-3.9v1.8h4v1.5H1035.3z"/>
			<path fill="#231F20" d="M1042.3,130v-8h1.7v6.5h3.4v1.5H1042.3z"/>
			<path fill="#231F20" d="M1048.5,130v-8h5.7v1.5h-4v1.7h3.9v1.5h-3.9v3.3H1048.5z"/>
		</g>
	</g>
	<g>
		<g>
			<polygon points="1349.6,48.5 1128,48.5 1127,48.5 1127,49.6 1137,73.1 1137,74.1 1138,74.1 1339.6,74.1 1340.6,74.1 1340.6,73.1 
				1350.6,49.6 1350.6,48.5 			"/>
			<polygon fill="#58595B" points="1349.6,23 1128,23 1127,23 1127,24 1127,47.5 1127,48.5 1128,48.5 1349.6,48.5 1350.6,48.5 
				1350.6,47.5 1350.6,24 1350.6,23 			"/>
			<g>
				<g>
					<path fill="#010101" d="M1221,40.3v-8h1.7v8H1221z"/>
					<path fill="#010101" d="M1228.8,40.3l-1.6-2.8h-1.2v2.8h-1.7v-8h3.7c1.7,0,2.7,1.1,2.7,2.6c0,1.4-0.9,2.2-1.8,2.4l1.8,3H1228.8
						z M1228.9,34.9c0-0.7-0.5-1.1-1.2-1.1h-1.8V36h1.8C1228.4,36,1228.9,35.6,1228.9,34.9z"/>
					<path fill="#010101" d="M1234.8,39.3l0.9-1.2c0.5,0.6,1.3,0.9,2.1,0.9c0.9,0,1.5-0.5,1.5-1.2c0-0.7-0.5-1.2-1.4-1.2
						c-0.7,0-1.2,0.2-1.7,0.6l-1.2-0.3v-4.6h5.5v1.5h-3.8v2c0.4-0.4,1-0.7,1.8-0.7c1.4,0,2.6,1,2.6,2.6c0,1.7-1.3,2.8-3.2,2.8
						C1236.5,40.5,1235.5,40,1234.8,39.3z"/>
					<path fill="#010101" d="M1242.3,39.6l0.8-1.3c0.4,0.4,0.9,0.6,1.6,0.6c1.3,0,2-1.1,2-2.3c0-0.1,0-0.1,0-0.2
						c-0.4,0.5-1.2,1-2.1,1c-1.4,0-2.7-0.9-2.7-2.6c0-1.6,1.2-2.7,3.1-2.7c2.4,0,3.4,1.9,3.4,4.1c0,2.4-1.4,4.1-3.7,4.1
						C1243.7,40.5,1242.9,40.1,1242.3,39.6z M1246.7,35.3c-0.1-0.8-0.5-1.6-1.6-1.6c-0.9,0-1.4,0.6-1.4,1.2c0,0.8,0.7,1.2,1.5,1.2
						C1245.7,36.1,1246.3,35.8,1246.7,35.3z"/>
					<path fill="#010101" d="M1249.4,39.3l0.9-1.2c0.5,0.6,1.3,0.9,2.1,0.9c0.9,0,1.5-0.5,1.5-1.2c0-0.7-0.5-1.2-1.4-1.2
						c-0.7,0-1.2,0.2-1.7,0.6l-1.2-0.3v-4.6h5.5v1.5h-3.8v2c0.4-0.4,1-0.7,1.8-0.7c1.4,0,2.6,1,2.6,2.6c0,1.7-1.3,2.8-3.2,2.8
						C1251.1,40.5,1250.1,40,1249.4,39.3z"/>
				</g>
				<g>
					<path fill="#FFFFFF" d="M1221,40.3v-8h1.7v8H1221z"/>
					<path fill="#FFFFFF" d="M1228.8,40.3l-1.6-2.8h-1.2v2.8h-1.7v-8h3.7c1.7,0,2.7,1.1,2.7,2.6c0,1.4-0.9,2.2-1.8,2.4l1.8,3H1228.8
						z M1228.9,34.9c0-0.7-0.5-1.1-1.2-1.1h-1.8V36h1.8C1228.4,36,1228.9,35.6,1228.9,34.9z"/>
					<path fill="#FFFFFF" d="M1234.8,39.3l0.9-1.2c0.5,0.6,1.3,0.9,2.1,0.9c0.9,0,1.5-0.5,1.5-1.2c0-0.7-0.5-1.2-1.4-1.2
						c-0.7,0-1.2,0.2-1.7,0.6l-1.2-0.3v-4.6h5.5v1.5h-3.8v2c0.4-0.4,1-0.7,1.8-0.7c1.4,0,2.6,1,2.6,2.6c0,1.7-1.3,2.8-3.2,2.8
						C1236.5,40.5,1235.5,40,1234.8,39.3z"/>
					<path fill="#FFFFFF" d="M1242.3,39.6l0.8-1.3c0.4,0.4,0.9,0.6,1.6,0.6c1.3,0,2-1.1,2-2.3c0-0.1,0-0.1,0-0.2
						c-0.4,0.5-1.2,1-2.1,1c-1.4,0-2.7-0.9-2.7-2.6c0-1.6,1.2-2.7,3.1-2.7c2.4,0,3.4,1.9,3.4,4.1c0,2.4-1.4,4.1-3.7,4.1
						C1243.7,40.5,1242.9,40.1,1242.3,39.6z M1246.7,35.3c-0.1-0.8-0.5-1.6-1.6-1.6c-0.9,0-1.4,0.6-1.4,1.2c0,0.8,0.7,1.2,1.5,1.2
						C1245.7,36.1,1246.3,35.8,1246.7,35.3z"/>
					<path fill="#FFFFFF" d="M1249.4,39.3l0.9-1.2c0.5,0.6,1.3,0.9,2.1,0.9c0.9,0,1.5-0.5,1.5-1.2c0-0.7-0.5-1.2-1.4-1.2
						c-0.7,0-1.2,0.2-1.7,0.6l-1.2-0.3v-4.6h5.5v1.5h-3.8v2c0.4-0.4,1-0.7,1.8-0.7c1.4,0,2.6,1,2.6,2.6c0,1.7-1.3,2.8-3.2,2.8
						C1251.1,40.5,1250.1,40,1249.4,39.3z"/>
				</g>
			</g>
		</g>
		<rect x="1132.4" y="48.9" fill="#F5B951" width="212.9" height="49.6"/>
		<g>
			<path fill="#010101" d="M1192.2,63.8V58l-1.3,1.4l-1-1l2.5-2.5h1.5v8H1192.2z"/>
			<path fill="#010101" d="M1203.7,63.8l-2-2.9l-2,2.9h-2l2.9-4.1l-2.7-3.9h2l1.8,2.7l1.8-2.7h2.1l-2.7,3.9l2.9,4.1H1203.7z"/>
			<path fill="#010101" d="M1209.6,63.8v-8h3.2c2.5,0,4.2,1.6,4.2,4c0,2.4-1.7,4-4.2,4H1209.6z M1215.3,59.8c0-1.4-0.9-2.5-2.5-2.5
				h-1.5v5h1.5C1214.3,62.3,1215.3,61.1,1215.3,59.8z"/>
			<path fill="#010101" d="M1217.8,59.8c0-2.4,1.8-4.1,4.2-4.1c2.4,0,4.2,1.7,4.2,4.1c0,2.4-1.8,4.1-4.2,4.1
				C1219.6,63.9,1217.8,62.2,1217.8,59.8z M1224.5,59.8c0-1.5-1-2.6-2.4-2.6c-1.5,0-2.4,1.1-2.4,2.6c0,1.5,0.9,2.6,2.4,2.6
				C1223.5,62.4,1224.5,61.3,1224.5,59.8z"/>
			<path fill="#010101" d="M1227,59.8c0-2.5,1.9-4.1,4.3-4.1c1.8,0,2.8,1,3.3,2l-1.5,0.7c-0.3-0.6-1.1-1.2-1.9-1.2
				c-1.5,0-2.5,1.1-2.5,2.6c0,1.5,1.1,2.6,2.5,2.6c0.8,0,1.5-0.5,1.9-1.2l1.5,0.7c-0.6,1-1.6,2-3.3,2
				C1228.9,63.9,1227,62.2,1227,59.8z"/>
			<path fill="#010101" d="M1235.7,60.6v-4.8h1.7v4.8c0,1.1,0.6,1.9,1.9,1.9s1.9-0.8,1.9-1.9v-4.8h1.7v4.8c0,2-1.2,3.3-3.6,3.3
				S1235.7,62.6,1235.7,60.6z"/>
			<path fill="#010101" d="M1251.4,63.8v-5.6l-2.3,5.6h-0.7l-2.3-5.6v5.6h-1.7v-8h2.4l1.9,4.8l1.9-4.8h2.4v8H1251.4z"/>
			<path fill="#010101" d="M1254.7,63.8v-8h5.7v1.5h-4V59h3.9v1.5h-3.9v1.8h4v1.5H1254.7z"/>
			<path fill="#010101" d="M1267.2,63.8l-3.8-5.2v5.2h-1.7v-8h1.8l3.7,5v-5h1.7v8H1267.2z"/>
			<path fill="#010101" d="M1272.3,63.8v-6.5h-2.3v-1.5h6.4v1.5h-2.3v6.5H1272.3z"/>
			<path fill="#010101" d="M1286,63.8l-0.5-1.4h-3.4l-0.5,1.4h-1.9l3.1-8h2.1l3.1,8H1286z M1283.8,57.5l-1.2,3.4h2.5L1283.8,57.5z"
				/>
		</g>
		<rect x="1132.4" y="98.5" fill="#E5E5E5" width="212.9" height="130.5"/>
		<g>
			<path fill="#010101" d="M1170.3,114.4l-0.5-1.4h-3.4l-0.5,1.4h-1.9l3.1-8h2.1l3.1,8H1170.3z M1168.1,108.1l-1.2,3.4h2.5
				L1168.1,108.1z"/>
			<path fill="#010101" d="M1173,114.4v-8h3.7c1.7,0,2.7,1.2,2.7,2.6c0,1.4-1,2.6-2.7,2.6h-2v2.8H1173z M1177.7,109
				c0-0.7-0.5-1.1-1.2-1.1h-1.8v2.2h1.8C1177.2,110.1,1177.7,109.6,1177.7,109z"/>
			<path fill="#010101" d="M1180.5,114.4v-8h3.7c1.7,0,2.7,1.2,2.7,2.6c0,1.4-1,2.6-2.7,2.6h-2v2.8H1180.5z M1185.2,109
				c0-0.7-0.5-1.1-1.2-1.1h-1.8v2.2h1.8C1184.7,110.1,1185.2,109.6,1185.2,109z"/>
			<path fill="#010101" d="M1188,114.4v-8h1.7v6.5h3.4v1.5H1188z"/>
			<path fill="#010101" d="M1194.3,114.4v-8h1.7v8H1194.3z"/>
			<path fill="#010101" d="M1197.2,110.4c0-2.5,1.9-4.1,4.3-4.1c1.8,0,2.8,1,3.3,2l-1.5,0.7c-0.3-0.6-1.1-1.2-1.9-1.2
				c-1.5,0-2.5,1.1-2.5,2.6c0,1.5,1.1,2.6,2.5,2.6c0.8,0,1.5-0.5,1.9-1.2l1.5,0.7c-0.6,1-1.6,2-3.3,2
				C1199,114.6,1197.2,112.9,1197.2,110.4z"/>
			<path fill="#010101" d="M1211.2,114.4l-0.5-1.4h-3.4l-0.5,1.4h-1.9l3.1-8h2.1l3.1,8H1211.2z M1209,108.1l-1.2,3.4h2.5L1209,108.1
				z"/>
			<path fill="#010101" d="M1219.4,114.4l-3.8-5.2v5.2h-1.7v-8h1.8l3.7,5v-5h1.7v8H1219.4z"/>
			<path fill="#010101" d="M1224.5,114.4v-6.5h-2.3v-1.5h6.4v1.5h-2.3v6.5H1224.5z"/>
			<path fill="#010101" d="M1232.7,114.4v-8h1.7v8H1232.7z"/>
			<path fill="#010101" d="M1241.5,114.4l-3.8-5.2v5.2h-1.7v-8h1.8l3.7,5v-5h1.7v8H1241.5z"/>
			<path fill="#010101" d="M1244.8,114.4v-8h5.7v1.5h-4v1.7h3.9v1.5h-3.9v3.3H1244.8z"/>
			<path fill="#010101" d="M1251.2,110.4c0-2.4,1.8-4.1,4.2-4.1c2.4,0,4.2,1.7,4.2,4.1c0,2.4-1.8,4.1-4.2,4.1
				C1253,114.6,1251.2,112.8,1251.2,110.4z M1257.8,110.4c0-1.5-1-2.6-2.4-2.6c-1.5,0-2.4,1.1-2.4,2.6c0,1.5,0.9,2.6,2.4,2.6
				C1256.9,113,1257.8,111.9,1257.8,110.4z"/>
			<path fill="#010101" d="M1265.3,114.4l-1.6-2.8h-1.2v2.8h-1.7v-8h3.7c1.7,0,2.7,1.1,2.7,2.6c0,1.4-0.9,2.2-1.8,2.4l1.8,3H1265.3z
				 M1265.5,109c0-0.7-0.5-1.1-1.2-1.1h-1.8v2.2h1.8C1265,110.1,1265.5,109.7,1265.5,109z"/>
			<path fill="#010101" d="M1275.5,114.4v-5.6l-2.3,5.6h-0.7l-2.3-5.6v5.6h-1.7v-8h2.4l1.9,4.8l1.9-4.8h2.4v8H1275.5z"/>
			<path fill="#010101" d="M1284.3,114.4l-0.5-1.4h-3.4l-0.5,1.4h-1.9l3.1-8h2.1l3.1,8H1284.3z M1282.1,108.1l-1.2,3.4h2.5
				L1282.1,108.1z"/>
			<path fill="#010101" d="M1288.1,114.4v-6.5h-2.3v-1.5h6.4v1.5h-2.3v6.5H1288.1z"/>
			<path fill="#010101" d="M1293.2,114.4v-8h1.7v8H1293.2z"/>
			<path fill="#010101" d="M1296.1,110.4c0-2.4,1.8-4.1,4.2-4.1c2.4,0,4.2,1.7,4.2,4.1c0,2.4-1.8,4.1-4.2,4.1
				C1297.9,114.6,1296.1,112.8,1296.1,110.4z M1302.7,110.4c0-1.5-1-2.6-2.4-2.6c-1.5,0-2.4,1.1-2.4,2.6c0,1.5,0.9,2.6,2.4,2.6
				C1301.8,113,1302.7,111.9,1302.7,110.4z"/>
			<path fill="#010101" d="M1311.2,114.4l-3.8-5.2v5.2h-1.7v-8h1.8l3.7,5v-5h1.7v8H1311.2z"/>
		</g>
		<g>
			<path fill="#010101" d="M1175.5,138.7l-0.5-1.4h-3.4l-0.5,1.4h-1.9l3.1-8h2.1l3.1,8H1175.5z M1173.3,132.4l-1.2,3.4h2.5
				L1173.3,132.4z"/>
			<path fill="#010101" d="M1178.2,138.7v-8h3.2c2.5,0,4.2,1.6,4.2,4c0,2.4-1.7,4-4.2,4H1178.2z M1183.8,134.7
				c0-1.4-0.9-2.5-2.5-2.5h-1.5v5h1.5C1182.9,137.2,1183.8,136,1183.8,134.7z"/>
			<path fill="#010101" d="M1186.8,138.7v-8h3.2c2.5,0,4.2,1.6,4.2,4c0,2.4-1.7,4-4.2,4H1186.8z M1192.4,134.7
				c0-1.4-0.9-2.5-2.5-2.5h-1.5v5h1.5C1191.5,137.2,1192.4,136,1192.4,134.7z"/>
			<path fill="#010101" d="M1199.9,138.7l-1.6-2.8h-1.2v2.8h-1.7v-8h3.7c1.7,0,2.7,1.1,2.7,2.6c0,1.4-0.9,2.2-1.8,2.4l1.8,3H1199.9z
				 M1200.1,133.2c0-0.7-0.5-1.1-1.2-1.1h-1.8v2.2h1.8C1199.6,134.3,1200.1,133.9,1200.1,133.2z"/>
			<path fill="#010101" d="M1203.1,138.7v-8h5.7v1.5h-4v1.7h3.9v1.5h-3.9v1.8h4v1.5H1203.1z"/>
			<path fill="#010101" d="M1209.6,137.5l0.9-1.3c0.6,0.6,1.4,1.1,2.5,1.1c0.9,0,1.4-0.4,1.4-0.9c0-1.4-4.6-0.4-4.6-3.5
				c0-1.3,1.2-2.4,3-2.4c1.3,0,2.3,0.4,3.1,1.1l-0.9,1.2c-0.6-0.6-1.5-0.9-2.3-0.9c-0.7,0-1.1,0.3-1.1,0.8c0,1.3,4.6,0.4,4.6,3.4
				c0,1.5-1,2.6-3.2,2.6C1211.4,138.8,1210.3,138.3,1209.6,137.5z"/>
			<path fill="#010101" d="M1216.8,137.5l0.9-1.3c0.6,0.6,1.4,1.1,2.5,1.1c0.9,0,1.4-0.4,1.4-0.9c0-1.4-4.6-0.4-4.6-3.5
				c0-1.3,1.2-2.4,3-2.4c1.3,0,2.3,0.4,3.1,1.1l-0.9,1.2c-0.6-0.6-1.5-0.9-2.3-0.9c-0.7,0-1.1,0.3-1.1,0.8c0,1.3,4.6,0.4,4.6,3.4
				c0,1.5-1,2.6-3.2,2.6C1218.6,138.8,1217.5,138.3,1216.8,137.5z"/>
			<path fill="#010101" d="M1227.6,138.7v-8h1.7v8H1227.6z"/>
			<path fill="#010101" d="M1236.4,138.7l-3.8-5.2v5.2h-1.7v-8h1.8l3.7,5v-5h1.7v8H1236.4z"/>
			<path fill="#010101" d="M1239.6,138.7v-8h5.7v1.5h-4v1.7h3.9v1.5h-3.9v3.3H1239.6z"/>
			<path fill="#010101" d="M1246.1,134.7c0-2.4,1.8-4.1,4.2-4.1c2.4,0,4.2,1.7,4.2,4.1c0,2.4-1.8,4.1-4.2,4.1
				C1247.9,138.8,1246.1,137.1,1246.1,134.7z M1252.7,134.7c0-1.5-1-2.6-2.4-2.6c-1.5,0-2.4,1.1-2.4,2.6c0,1.5,0.9,2.6,2.4,2.6
				C1251.7,137.3,1252.7,136.2,1252.7,134.7z"/>
			<path fill="#010101" d="M1260.2,138.7l-1.6-2.8h-1.2v2.8h-1.7v-8h3.7c1.7,0,2.7,1.1,2.7,2.6c0,1.4-0.9,2.2-1.8,2.4l1.8,3H1260.2z
				 M1260.3,133.2c0-0.7-0.5-1.1-1.2-1.1h-1.8v2.2h1.8C1259.8,134.3,1260.3,133.9,1260.3,133.2z"/>
			<path fill="#010101" d="M1270.3,138.7v-5.6l-2.3,5.6h-0.7l-2.3-5.6v5.6h-1.7v-8h2.4l1.9,4.8l1.9-4.8h2.4v8H1270.3z"/>
			<path fill="#010101" d="M1279.1,138.7l-0.5-1.4h-3.4l-0.5,1.4h-1.9l3.1-8h2.1l3.1,8H1279.1z M1276.9,132.4l-1.2,3.4h2.5
				L1276.9,132.4z"/>
			<path fill="#010101" d="M1282.9,138.7v-6.5h-2.3v-1.5h6.4v1.5h-2.3v6.5H1282.9z"/>
			<path fill="#010101" d="M1288.1,138.7v-8h1.7v8H1288.1z"/>
			<path fill="#010101" d="M1291,134.7c0-2.4,1.8-4.1,4.2-4.1c2.4,0,4.2,1.7,4.2,4.1c0,2.4-1.8,4.1-4.2,4.1
				C1292.7,138.8,1291,137.1,1291,134.7z M1297.6,134.7c0-1.5-1-2.6-2.4-2.6c-1.5,0-2.4,1.1-2.4,2.6c0,1.5,0.9,2.6,2.4,2.6
				C1296.6,137.3,1297.6,136.2,1297.6,134.7z"/>
			<path fill="#010101" d="M1306,138.7l-3.8-5.2v5.2h-1.7v-8h1.8l3.7,5v-5h1.7v8H1306z"/>
		</g>
		<g>
			<path fill="#010101" d="M1152.4,162.7v-6.5h-2.3v-1.5h6.4v1.5h-2.3v6.5H1152.4z"/>
			<path fill="#010101" d="M1162.2,162.7l-0.5-1.4h-3.4l-0.5,1.4h-1.9l3.1-8h2.1l3.1,8H1162.2z M1160,156.4l-1.2,3.4h2.5L1160,156.4
				z"/>
			<path fill="#010101" d="M1170.1,162.7l-2-2.9l-2,2.9h-2l2.9-4.1l-2.7-3.9h2l1.8,2.7l1.8-2.7h2.1l-2.7,3.9l2.9,4.1H1170.1z"/>
			<path fill="#010101" d="M1176,162.7v-8h5.7v1.5h-4v1.7h3.9v1.5h-3.9v1.8h4v1.5H1176z"/>
			<path fill="#010101" d="M1188.2,162.7l-2-2.9l-2,2.9h-2l2.9-4.1l-2.7-3.9h2l1.8,2.7l1.8-2.7h2.1l-2.7,3.9l2.9,4.1H1188.2z"/>
			<path fill="#010101" d="M1191,162.7v-8h5.7v1.5h-4v1.7h3.9v1.5h-3.9v1.8h4v1.5H1191z"/>
			<path fill="#010101" d="M1205,162.7v-5.6l-2.3,5.6h-0.7l-2.3-5.6v5.6h-1.7v-8h2.4l1.9,4.8l1.9-4.8h2.4v8H1205z"/>
			<path fill="#010101" d="M1208.3,162.7v-8h3.7c1.7,0,2.7,1.2,2.7,2.6c0,1.4-1,2.6-2.7,2.6h-2v2.8H1208.3z M1213,157.3
				c0-0.7-0.5-1.1-1.2-1.1h-1.8v2.2h1.8C1212.5,158.4,1213,157.9,1213,157.3z"/>
			<path fill="#010101" d="M1217.6,162.7v-6.5h-2.3v-1.5h6.4v1.5h-2.3v6.5H1217.6z"/>
			<path fill="#010101" d="M1222.8,162.7v-8h1.7v8H1222.8z"/>
			<path fill="#010101" d="M1225.7,158.7c0-2.4,1.8-4.1,4.2-4.1c2.4,0,4.2,1.7,4.2,4.1s-1.8,4.1-4.2,4.1
				C1227.4,162.8,1225.7,161.1,1225.7,158.7z M1232.3,158.7c0-1.5-1-2.6-2.4-2.6c-1.5,0-2.4,1.1-2.4,2.6c0,1.5,0.9,2.6,2.4,2.6
				C1231.3,161.3,1232.3,160.2,1232.3,158.7z"/>
			<path fill="#010101" d="M1240.7,162.7l-3.8-5.2v5.2h-1.7v-8h1.8l3.7,5v-5h1.7v8H1240.7z"/>
			<path fill="#010101" d="M1247,162.7v-8h1.7v8H1247z"/>
			<path fill="#010101" d="M1255.9,162.7l-3.8-5.2v5.2h-1.7v-8h1.8l3.7,5v-5h1.7v8H1255.9z"/>
			<path fill="#010101" d="M1259.1,162.7v-8h5.7v1.5h-4v1.7h3.9v1.5h-3.9v3.3H1259.1z"/>
			<path fill="#010101" d="M1265.5,158.7c0-2.4,1.8-4.1,4.2-4.1c2.4,0,4.2,1.7,4.2,4.1s-1.8,4.1-4.2,4.1
				C1267.3,162.8,1265.5,161.1,1265.5,158.7z M1272.2,158.7c0-1.5-1-2.6-2.4-2.6c-1.5,0-2.4,1.1-2.4,2.6c0,1.5,0.9,2.6,2.4,2.6
				C1271.2,161.3,1272.2,160.2,1272.2,158.7z"/>
			<path fill="#010101" d="M1279.6,162.7l-1.6-2.8h-1.2v2.8h-1.7v-8h3.7c1.7,0,2.7,1.1,2.7,2.6c0,1.4-0.9,2.2-1.8,2.4l1.8,3H1279.6z
				 M1279.8,157.3c0-0.7-0.5-1.1-1.2-1.1h-1.8v2.2h1.8C1279.3,158.4,1279.8,157.9,1279.8,157.3z"/>
			<path fill="#010101" d="M1289.8,162.7v-5.6l-2.3,5.6h-0.7l-2.3-5.6v5.6h-1.7v-8h2.4l1.9,4.8l1.9-4.8h2.4v8H1289.8z"/>
			<path fill="#010101" d="M1298.6,162.7l-0.5-1.4h-3.4l-0.5,1.4h-1.9l3.1-8h2.1l3.1,8H1298.6z M1296.4,156.4l-1.2,3.4h2.5
				L1296.4,156.4z"/>
			<path fill="#010101" d="M1302.4,162.7v-6.5h-2.3v-1.5h6.4v1.5h-2.3v6.5H1302.4z"/>
			<path fill="#010101" d="M1307.5,162.7v-8h1.7v8H1307.5z"/>
			<path fill="#010101" d="M1310.4,158.7c0-2.4,1.8-4.1,4.2-4.1c2.4,0,4.2,1.7,4.2,4.1s-1.8,4.1-4.2,4.1
				C1312.2,162.8,1310.4,161.1,1310.4,158.7z M1317,158.7c0-1.5-1-2.6-2.4-2.6c-1.5,0-2.4,1.1-2.4,2.6c0,1.5,0.9,2.6,2.4,2.6
				C1316.1,161.3,1317,160.2,1317,158.7z"/>
			<path fill="#010101" d="M1325.5,162.7l-3.8-5.2v5.2h-1.7v-8h1.8l3.7,5v-5h1.7v8H1325.5z"/>
		</g>
		<g>
			<path fill="#010101" d="M1198.8,214.6v-8h3.2c2.5,0,4.2,1.6,4.2,4c0,2.4-1.7,4-4.2,4H1198.8z M1204.4,210.6
				c0-1.4-0.9-2.5-2.5-2.5h-1.5v5h1.5C1203.5,213.1,1204.4,212,1204.4,210.6z"/>
			<path fill="#010101" d="M1207.4,214.6v-8h5.7v1.5h-4v1.7h3.9v1.5h-3.9v1.8h4v1.5H1207.4z"/>
			<path fill="#010101" d="M1214,210.6c0-2.5,1.9-4.1,4.3-4.1c1.8,0,2.8,1,3.3,2l-1.5,0.7c-0.3-0.6-1.1-1.2-1.9-1.2
				c-1.5,0-2.5,1.1-2.5,2.6c0,1.5,1.1,2.6,2.5,2.6c0.8,0,1.5-0.5,1.9-1.2l1.5,0.7c-0.6,1-1.6,2-3.3,2
				C1215.9,214.8,1214,213.1,1214,210.6z"/>
			<path fill="#010101" d="M1222.6,214.6v-8h1.7v6.5h3.4v1.5H1222.6z"/>
			<path fill="#010101" d="M1234.4,214.6l-0.5-1.4h-3.4l-0.5,1.4h-1.9l3.1-8h2.1l3.1,8H1234.4z M1232.2,208.3l-1.2,3.4h2.5
				L1232.2,208.3z"/>
			<path fill="#010101" d="M1241.6,214.6l-1.6-2.8h-1.2v2.8h-1.7v-8h3.7c1.7,0,2.7,1.1,2.7,2.6c0,1.4-0.9,2.2-1.8,2.4l1.8,3H1241.6z
				 M1241.8,209.2c0-0.7-0.5-1.1-1.2-1.1h-1.8v2.2h1.8C1241.3,210.3,1241.8,209.9,1241.8,209.2z"/>
			<path fill="#010101" d="M1250.3,214.6l-0.5-1.4h-3.4l-0.5,1.4h-1.9l3.1-8h2.1l3.1,8H1250.3z M1248.1,208.3l-1.2,3.4h2.5
				L1248.1,208.3z"/>
			<path fill="#010101" d="M1254.1,214.6v-6.5h-2.3v-1.5h6.4v1.5h-2.3v6.5H1254.1z"/>
			<path fill="#010101" d="M1259.2,214.6v-8h1.7v8H1259.2z"/>
			<path fill="#010101" d="M1262.2,210.6c0-2.4,1.8-4.1,4.2-4.1c2.4,0,4.2,1.7,4.2,4.1c0,2.4-1.8,4.1-4.2,4.1
				C1263.9,214.8,1262.2,213,1262.2,210.6z M1268.8,210.6c0-1.5-1-2.6-2.4-2.6c-1.5,0-2.4,1.1-2.4,2.6c0,1.5,0.9,2.6,2.4,2.6
				C1267.8,213.2,1268.8,212.1,1268.8,210.6z"/>
			<path fill="#010101" d="M1277.2,214.6l-3.8-5.2v5.2h-1.7v-8h1.8l3.7,5v-5h1.7v8H1277.2z"/>
		</g>
		<g>
			<path fill="#010101" d="M1192.3,88.9v-5.8l-1.3,1.4l-1-1l2.5-2.5h1.5v8H1192.3z"/>
			<path fill="#010101" d="M1203.9,88.9l-2-2.9l-2,2.9h-2l2.9-4.1l-2.7-3.9h2l1.8,2.7l1.8-2.7h2.1l-2.7,3.9l2.9,4.1H1203.9z"/>
			<path fill="#010101" d="M1209.7,88.9v-8h3.2c2.5,0,4.2,1.6,4.2,4s-1.7,4-4.2,4H1209.7z M1215.4,84.9c0-1.4-0.9-2.5-2.5-2.5h-1.5
				v5h1.5C1214.5,87.4,1215.4,86.3,1215.4,84.9z"/>
			<path fill="#010101" d="M1218,84.9c0-2.4,1.8-4.1,4.2-4.1c2.4,0,4.2,1.7,4.2,4.1s-1.8,4.1-4.2,4.1C1219.7,89,1218,87.3,1218,84.9
				z M1224.6,84.9c0-1.5-1-2.6-2.4-2.6c-1.5,0-2.4,1.1-2.4,2.6c0,1.5,0.9,2.6,2.4,2.6C1223.6,87.5,1224.6,86.4,1224.6,84.9z"/>
			<path fill="#010101" d="M1227.1,84.9c0-2.5,1.9-4.1,4.3-4.1c1.8,0,2.8,1,3.3,2l-1.5,0.7c-0.3-0.6-1.1-1.2-1.9-1.2
				c-1.5,0-2.5,1.1-2.5,2.6s1.1,2.6,2.5,2.6c0.8,0,1.5-0.5,1.9-1.2l1.5,0.7c-0.6,1-1.6,2-3.3,2C1229,89,1227.1,87.4,1227.1,84.9z"/>
			<path fill="#010101" d="M1235.8,85.7v-4.8h1.7v4.8c0,1.1,0.6,1.9,1.9,1.9s1.9-0.8,1.9-1.9v-4.8h1.7v4.8c0,2-1.2,3.3-3.6,3.3
				S1235.8,87.7,1235.8,85.7z"/>
			<path fill="#010101" d="M1251.5,88.9v-5.6l-2.3,5.6h-0.7l-2.3-5.6v5.6h-1.7v-8h2.4l1.9,4.8l1.9-4.8h2.4v8H1251.5z"/>
			<path fill="#010101" d="M1254.8,88.9v-8h5.7v1.5h-4v1.7h3.9v1.5h-3.9v1.8h4v1.5H1254.8z"/>
			<path fill="#010101" d="M1267.3,88.9l-3.8-5.2v5.2h-1.7v-8h1.8l3.7,5v-5h1.7v8H1267.3z"/>
			<path fill="#010101" d="M1272.4,88.9v-6.5h-2.3v-1.5h6.4v1.5h-2.3v6.5H1272.4z"/>
			<path fill="#010101" d="M1280.6,88.9v-8h4.2c1.5,0,2.3,1,2.3,2c0,1-0.6,1.7-1.4,1.8c0.9,0.1,1.5,1,1.5,2c0,1.2-0.8,2.2-2.3,2.2
				H1280.6z M1285.4,83.2c0-0.5-0.4-0.9-0.9-0.9h-2.1v1.7h2.1C1285,84.1,1285.4,83.7,1285.4,83.2z M1285.6,86.5c0-0.5-0.4-0.9-1-0.9
				h-2.2v1.9h2.2C1285.2,87.4,1285.6,87.1,1285.6,86.5z"/>
		</g>
		<line fill="none" stroke="#FFFFFF" stroke-miterlimit="10" x1="1158.4" y1="71.4" x2="1319.2" y2="71.4"/>
		<line fill="none" stroke="#FFFFFF" stroke-miterlimit="10" x1="1158.4" y1="122.7" x2="1319.2" y2="122.7"/>
		<line fill="none" stroke="#FFFFFF" stroke-miterlimit="10" x1="1158.4" y1="147.2" x2="1319.2" y2="147.2"/>
		<line fill="none" stroke="#FFFFFF" stroke-miterlimit="10" x1="1158.4" y1="171.2" x2="1319.2" y2="171.2"/>
	</g>
	<g>
		<rect x="38.1" y="183.7" fill="none" width="119" height="173.1"/>
		<text transform="matrix(1 0 0 1 78.1723 194.3828)"><tspan x="0" y="0" font-family="'ProximaNova-Semibold'" font-size="16">HELP</tspan><tspan x="-40.1" y="14.8" font-family="'ProximaNova-Regular'" font-size="9">- You are earning an income</tspan><tspan x="-40.1" y="29.6" font-family="'ProximaNova-Regular'" font-size="9">- You are starting a business</tspan><tspan x="-40.1" y="44.4" font-family="'ProximaNova-Regular'" font-size="9">- Registering for Working for </tspan><tspan x="-40.1" y="55.2" font-family="'ProximaNova-Regular'" font-size="9">Families Tax Credits</tspan><tspan x="-40.1" y="70" font-family="'ProximaNova-Regular'" font-size="9">- You are registering for a </tspan><tspan x="-40.1" y="80.8" font-family="'ProximaNova-Regular'" font-size="9">student loan</tspan><tspan x="-40.1" y="95.6" font-family="'ProximaNova-Regular'" font-size="9">- Your child has a part-time </tspan><tspan x="-40.1" y="106.4" font-family="'ProximaNova-Regular'" font-size="9">job</tspan><tspan x="-40.1" y="121.2" font-family="'ProximaNova-Regular'" font-size="9">- You file tax returns</tspan><tspan x="-40.1" y="136" font-family="'ProximaNova-Regular'" font-size="9">- You ask us about your tax</tspan><tspan x="-40.1" y="150.8" font-family="'ProximaNova-Regular'" font-size="9">- You apply for child support.</tspan></text>
		<rect x="22.2" y="166" fill="#FDF8C6" width="149.9" height="205.8"/>
		<rect x="38.1" y="183.7" fill="none" width="119" height="173.1"/>
		<text transform="matrix(1 0 0 1 78.1723 194.3828)"><tspan x="0" y="0" font-family="'ProximaNova-Semibold'" font-size="16">HELP</tspan><tspan x="-40.1" y="14.8" font-family="'ProximaNova-Regular'" font-size="9">- You are earning an income</tspan><tspan x="-40.1" y="29.6" font-family="'ProximaNova-Regular'" font-size="9">- You are starting a business</tspan><tspan x="-40.1" y="44.4" font-family="'ProximaNova-Regular'" font-size="9">- Registering for Working for </tspan><tspan x="-40.1" y="55.2" font-family="'ProximaNova-Regular'" font-size="9">Families Tax Credits</tspan><tspan x="-40.1" y="70" font-family="'ProximaNova-Regular'" font-size="9">- You are registering for a </tspan><tspan x="-40.1" y="80.8" font-family="'ProximaNova-Regular'" font-size="9">student loan</tspan><tspan x="-40.1" y="95.6" font-family="'ProximaNova-Regular'" font-size="9">- Your child has a part-time </tspan><tspan x="-40.1" y="106.4" font-family="'ProximaNova-Regular'" font-size="9">job</tspan><tspan x="-40.1" y="121.2" font-family="'ProximaNova-Regular'" font-size="9">- You file tax returns</tspan><tspan x="-40.1" y="136" font-family="'ProximaNova-Regular'" font-size="9">- You ask us about your tax</tspan><tspan x="-40.1" y="150.8" font-family="'ProximaNova-Regular'" font-size="9">- You apply for child support.</tspan></text>
	</g>
	<g>
		<rect x="307.5" y="183.7" fill="none" width="182.3" height="142.8"/>
		<text transform="matrix(1 0 0 1 379.2621 194.3828)"><tspan x="0" y="0" font-family="'ProximaNova-Semibold'" font-size="16">HELP</tspan><tspan x="-71.8" y="14.8" font-family="'ProximaNova-Regular'" font-size="9">You can apply for an IRD number for yourself, </tspan><tspan x="-71.8" y="25.6" font-family="'ProximaNova-Regular'" font-size="9">your children or your organisation, using one </tspan><tspan x="-71.8" y="36.4" font-family="'ProximaNova-Regular'" font-size="9">of the following forms. We will send your IRD </tspan><tspan x="-71.8" y="47.2" font-family="'ProximaNova-Regular'" font-size="9">number within 8-10 working days of receiving </tspan><tspan x="-71.8" y="58" font-family="'ProximaNova-Regular'" font-size="9">your application.</tspan><tspan x="-71.8" y="87.6" font-family="'ProximaNova-Regular'" font-size="9">IR595 (individual) - adult and children</tspan><tspan x="-71.8" y="102.4" font-family="'ProximaNova-Regular'" font-size="9">IR596 (non-individual) - company, partnership, </tspan><tspan x="-71.8" y="113.2" font-family="'ProximaNova-Regular'" font-size="9">estate, trust, club, society, superannuation </tspan><tspan x="-71.8" y="124" font-family="'ProximaNova-Regular'" font-size="9">scheme and Maori authority</tspan></text>
		<rect x="292.5" y="166" fill="#FDF8C6" width="212.7" height="175.5"/>
		<rect x="307.5" y="183.7" fill="none" width="182.3" height="142.8"/>
		<text transform="matrix(1 0 0 1 379.2621 194.3828)"><tspan x="0" y="0" font-family="'ProximaNova-Semibold'" font-size="16">HELP</tspan><tspan x="-71.8" y="14.8" font-family="'ProximaNova-Regular'" font-size="9">You can apply for an IRD number for yourself, </tspan><tspan x="-71.8" y="25.6" font-family="'ProximaNova-Regular'" font-size="9">your children or your organisation, using one </tspan><tspan x="-71.8" y="36.4" font-family="'ProximaNova-Regular'" font-size="9">of the following forms. We will send your IRD </tspan><tspan x="-71.8" y="47.2" font-family="'ProximaNova-Regular'" font-size="9">number within 8-10 working days of receiving </tspan><tspan x="-71.8" y="58" font-family="'ProximaNova-Regular'" font-size="9">your application.</tspan><tspan x="-71.8" y="87.6" font-family="'ProximaNova-Regular'" font-size="9">IR595 (individual) - adult and children</tspan><tspan x="-71.8" y="102.4" font-family="'ProximaNova-Regular'" font-size="9">IR596 (non-individual) - company, partnership, </tspan><tspan x="-71.8" y="113.2" font-family="'ProximaNova-Regular'" font-size="9">estate, trust, club, society, superannuation </tspan><tspan x="-71.8" y="124" font-family="'ProximaNova-Regular'" font-size="9">scheme and Maori authority</tspan></text>
	</g>
	<g>
		<rect x="684.9" y="183.7" fill="none" width="261.9" height="81.3"/>
		<text transform="matrix(1 0 0 1 796.4526 194.3828)"><tspan x="0" y="0" font-family="'ProximaNova-Semibold'" font-size="16">HELP</tspan><tspan x="-111.6" y="14.8" font-family="'ProximaNova-Regular'" font-size="9">Please print, complete and sign your IR595. You can also </tspan><tspan x="-111.6" y="25.6" font-family="'ProximaNova-Regular'" font-size="9">complete this form onscreen by typing onto the PDF document. </tspan><tspan x="-111.6" y="36.4" font-family="'ProximaNova-Regular'" font-size="9">Take the form with your identification documents to an Inland </tspan><tspan x="-111.6" y="47.2" font-family="'ProximaNova-Regular'" font-size="9">Revenue appointed verifier. Further details can be found on the </tspan><tspan x="-111.6" y="58" font-family="'ProximaNova-Regular'" font-size="9">form.</tspan></text>
		<rect x="669.9" y="166" fill="#FDF8C6" width="291.9" height="114"/>
		<rect x="684.9" y="183.7" fill="none" width="261.9" height="81.3"/>
		<text transform="matrix(1 0 0 1 796.4526 194.3828)"><tspan x="0" y="0" font-family="'ProximaNova-Semibold'" font-size="16">HELP</tspan><tspan x="-111.6" y="14.8" font-family="'ProximaNova-Regular'" font-size="9">Please print, complete and sign your IR595. You can also </tspan><tspan x="-111.6" y="25.6" font-family="'ProximaNova-Regular'" font-size="9">complete this form onscreen by typing onto the PDF document. </tspan><tspan x="-111.6" y="36.4" font-family="'ProximaNova-Regular'" font-size="9">Take the form with your identification documents to an Inland </tspan><tspan x="-111.6" y="47.2" font-family="'ProximaNova-Regular'" font-size="9">Revenue appointed verifier. Further details can be found on the </tspan><tspan x="-111.6" y="58" font-family="'ProximaNova-Regular'" font-size="9">form.</tspan></text>
	</g>
	<polygon fill="#FDF8C6" points="82.5,179.3 97.6,153.2 112.6,179.3 	"/>
	<polygon fill="#FDF8C6" points="383.6,179.3 398.7,153.2 413.7,179.3 	"/>
	<polygon fill="#FDF8C6" points="800.8,179.3 815.9,153.2 830.9,179.3 	"/>
</g>
</svg>
