<?xml version="1.0" encoding="utf-8"?>
<!-- Generator: Adobe Illustrator 17.1.0, SVG Export Plug-In . SVG Version: 6.00 Build 0)  -->
<!DOCTYPE svg PUBLIC "-//W3C//DTD SVG 1.1//EN" "http://www.w3.org/Graphics/SVG/1.1/DTD/svg11.dtd">
<svg version="1.1" xmlns="http://www.w3.org/2000/svg" xmlns:xlink="http://www.w3.org/1999/xlink" x="0px" y="0px"
	 viewBox="0 0 110.1 120.2" enable-background="new 0 0 110.1 120.2" xml:space="preserve">
<g id="bg">
</g>
<g id="Layer_1">
	<g>
		<polygon fill="#26B99A" points="8.1,0 8.1,100.1 46.9,100.1 87.3,117.2 87.3,100.1 110.1,100.1 110.1,0 		"/>
		<polygon fill="#3B97D3" points="0,7.4 0,103.1 10.5,103.1 10.5,120.2 50.9,103.1 99.1,103.1 99.1,7.4 		"/>
	</g>
	<g>
		<path fill="#FFFFFF" d="M22.5,63.2v-5.3c13.1-9.7,16.9-13,16.9-16.9c0-2.8-2.5-4.2-5.2-4.2c-3.6,0-6.4,1.4-8.6,3.7l-3.9-4.5
			c3.1-3.6,7.9-5.2,12.3-5.2c6.8,0,12.2,3.8,12.2,10.2c0,5.5-4.5,10.2-12.8,16.3h13.1v6H22.5z"/>
		<path fill="#FFFFFF" d="M50.7,47.2c0-8.3,4.1-16.5,13.2-16.5c9.1,0,13.3,8.3,13.3,16.5S73,63.8,63.9,63.8
			C54.8,63.8,50.7,55.4,50.7,47.2z M70.2,47.2c0-5.9-1.7-10.5-6.3-10.5c-4.6,0-6.3,4.6-6.3,10.5s1.7,10.5,6.3,10.5
			C68.5,57.7,70.2,53.1,70.2,47.2z"/>
		<path fill="#FFFFFF" d="M16.2,73.6c0-2.4,1.8-4.1,4.2-4.1c2.4,0,4.2,1.7,4.2,4.1c0,1.1-0.4,2.1-1,2.8l0.6,0.7l-1.2,1l-0.6-0.7
			c-0.6,0.3-1.2,0.4-1.9,0.4C18,77.7,16.2,76,16.2,73.6z M21.2,76.1l-0.9-1l1.2-1l0.9,1c0.3-0.4,0.4-1,0.4-1.5c0-1.5-1-2.6-2.4-2.6
			c-1.5,0-2.4,1.1-2.4,2.6c0,1.5,0.9,2.6,2.4,2.6C20.7,76.2,21,76.2,21.2,76.1z"/>
		<path fill="#FFFFFF" d="M25.8,74.4v-4.8h1.7v4.8c0,1.1,0.6,1.9,1.9,1.9s1.9-0.8,1.9-1.9v-4.8H33v4.8c0,2-1.2,3.3-3.6,3.3
			S25.8,76.4,25.8,74.4z"/>
		<path fill="#FFFFFF" d="M34.6,77.6v-8h5.7v1.5h-4v1.7h3.9v1.5h-3.9v1.8h4v1.5H34.6z"/>
		<path fill="#FFFFFF" d="M41,76.4l0.9-1.3c0.6,0.6,1.4,1.1,2.5,1.1c0.9,0,1.4-0.4,1.4-0.9c0-1.4-4.6-0.4-4.6-3.5
			c0-1.3,1.2-2.4,3-2.4c1.3,0,2.3,0.4,3.1,1.1l-0.9,1.2c-0.6-0.6-1.5-0.9-2.3-0.9c-0.7,0-1.1,0.3-1.1,0.8c0,1.3,4.6,0.4,4.6,3.4
			c0,1.5-1,2.6-3.2,2.6C42.9,77.7,41.8,77.2,41,76.4z"/>
		<path fill="#FFFFFF" d="M50.5,77.6v-6.5h-2.3v-1.5h6.4v1.5h-2.3v6.5H50.5z"/>
		<path fill="#FFFFFF" d="M55.6,77.6v-8h1.7v8H55.6z"/>
		<path fill="#FFFFFF" d="M58.5,73.6c0-2.4,1.8-4.1,4.2-4.1c2.4,0,4.2,1.7,4.2,4.1c0,2.4-1.8,4.1-4.2,4.1
			C60.3,77.7,58.5,76,58.5,73.6z M65.1,73.6c0-1.5-1-2.6-2.4-2.6c-1.5,0-2.4,1.1-2.4,2.6c0,1.5,0.9,2.6,2.4,2.6
			C64.2,76.2,65.1,75.1,65.1,73.6z"/>
		<path fill="#FFFFFF" d="M73.6,77.6l-3.8-5.2v5.2h-1.7v-8h1.8l3.7,5v-5h1.7v8H73.6z"/>
		<path fill="#FFFFFF" d="M76.3,76.4l0.9-1.3c0.6,0.6,1.4,1.1,2.5,1.1c0.9,0,1.4-0.4,1.4-0.9c0-1.4-4.6-0.4-4.6-3.5
			c0-1.3,1.2-2.4,3-2.4c1.3,0,2.3,0.4,3.1,1.1l-0.9,1.2c-0.6-0.6-1.5-0.9-2.3-0.9c-0.7,0-1.1,0.3-1.1,0.8c0,1.3,4.6,0.4,4.6,3.4
			c0,1.5-1,2.6-3.2,2.6C78.1,77.7,77,77.2,76.3,76.4z"/>
	</g>
</g>
</svg>
