<?xml version="1.0" encoding="utf-8"?>
<!-- Generator: Adobe Illustrator 17.1.0, SVG Export Plug-In . SVG Version: 6.00 Build 0)  -->
<!DOCTYPE svg PUBLIC "-//W3C//DTD SVG 1.1//EN" "http://www.w3.org/Graphics/SVG/1.1/DTD/svg11.dtd">
<svg version="1.1" xmlns="http://www.w3.org/2000/svg" xmlns:xlink="http://www.w3.org/1999/xlink" x="0px" y="0px"
	 viewBox="0 0 337 295.1" enable-background="new 0 0 337 295.1" xml:space="preserve">
<g id="bg">
</g>
<g id="Layer_1">
	<path fill="#414042" d="M193.3,202.3c-0.4-0.3-0.8-0.7-1.2-0.9c-13.7-9.1-27.4-18.1-41-27.2c-5.4-3.6-9.8-8.4-10.2-15.3
		c-0.2-3.4,0.6-7,1.8-10.1c1.4-3.7,3.4-7.2,5.6-10.5c8.9-13.5,18-26.9,27.1-40.3c0.5-0.8,1-1.6,1.7-2.7c-5-1.1-9.8-1.8-14.4-3.3
		c-6-2-10.7-0.8-15.7,3c-8.3,6.3-17.1,11.8-25.8,17.5c-6.8,4.5-15.4,1.4-17.7-6.2c-1.5-5,0.3-9.7,5-13c4.4-3.1,8.9-6,13.4-9.1
		c7.4-5,14.8-9.9,22.1-14.9c3.6-2.5,7.4-3.3,11.7-2.4c12.4,2.8,24.9,5.4,37.4,8.2c2.4,0.6,4.7,1.8,6.8,3.1
		c5.6,3.5,10.9,7.4,16.5,10.9c2.8,1.7,4.6,4,5.9,6.9c4.5,10.2,9.1,20.4,13.6,30.6c0.6,1.4,1.4,2,2.9,2.2c10.4,1.2,20.8,2.5,31.2,3.8
		c6.9,0.9,11.3,6.5,10.4,13.2c-0.9,6.4-6.6,10.5-13.5,9.7c-12.9-1.6-25.8-3.2-38.7-4.7c-5.1-0.6-8.4-3.4-10.4-8
		c-2.7-6.3-5.6-12.5-8.3-18.7c-0.3-0.7-0.7-1.4-1.2-2.4c-8.4,13.5-16.6,26.7-25,40c0.8,0.6,1.5,1.1,2.2,1.6
		c10.5,7.2,20.9,14.4,31.4,21.5c7.5,5.1,9.3,11.4,5.6,19.6c-9,20.1-17.9,40.3-27,60.4c-4.2,9.4-15.2,11.8-22.4,4.9
		c-4.1-4-5.6-9-3.5-14.4c2.9-7.3,6.2-14.4,9.4-21.6c4.3-9.8,8.7-19.5,13.1-29.3C192.7,203.8,193,203,193.3,202.3z"/>
	<path fill="#414042" d="M132,173c4.5,8.7,12.4,13.5,19.6,19.4c-4.7,6.9-9.2,13.8-14.1,20.4c-2.8,3.8-7.1,5.5-11.9,5.5
		c-18.1,0-36.2,0-54.3,0c-6.5,0-11.8-3.8-13.6-9.6c-1.8-5.6,0.1-11.5,4.9-15c3-2.2,6.5-2.7,10.2-2.7c14.5,0,29,0,43.6,0.1
		c2.1,0,3.3-0.7,4.5-2.3C124.3,183.4,128.1,178.3,132,173z"/>
	<path fill="#414042" d="M230.8,32.5c12.7,0.6,21.4,11.5,20.9,22.7c-0.7,14-12,22.1-23.2,21.4c-13.5-0.8-21.6-11.7-21.1-22.8
		C208,39.8,219.7,31.6,230.8,32.5z"/>
</g>
</svg>
