<?xml version="1.0" encoding="utf-8"?>
<!-- Generator: Adobe Illustrator 17.1.0, SVG Export Plug-In . SVG Version: 6.00 Build 0)  -->
<!DOCTYPE svg PUBLIC "-//W3C//DTD SVG 1.1//EN" "http://www.w3.org/Graphics/SVG/1.1/DTD/svg11.dtd">
<svg version="1.1" xmlns="http://www.w3.org/2000/svg" xmlns:xlink="http://www.w3.org/1999/xlink" x="0px" y="0px"
	 viewBox="0 0 276.1 306" enable-background="new 0 0 276.1 306" xml:space="preserve">
<g id="bg">
</g>
<g id="Layer_1">
	<g>
		<g>
			<g>
				<g>
					<g>
						<g>
							<defs>
								<path id="SVGID_45_" d="M102.7,235.2l25.1-28.9c0,0,26.6-13.8,26.6,6.4s-32.8,40.4-43.8,40.4L102.7,235.2z"/>
							</defs>
							<use xlink:href="#SVGID_45_"  overflow="visible" fill="#71553A"/>
							<clipPath id="SVGID_46_">
								<use xlink:href="#SVGID_45_"  overflow="visible"/>
							</clipPath>
							<g clip-path="url(#SVGID_46_)">
								<path fill="#71553A" d="M138.6,301.9c-15.5,0-28-12.5-28-28v-18.2c0-15.5,12.5-28,28-28s28,12.5,28,28v18.2
									C166.6,289.4,154.1,301.9,138.6,301.9z"/>
							</g>
						</g>
						<g>
							<g opacity="0.1">
								<path fill="#010101" d="M164.8,255.8c-17.5,0-45.2-11.8-45.2-51.3s45.2,10.5,45.2,10.5V255.8z"/>
							</g>
							<g>
								<path fill="#71553A" d="M166.6,255.8c-17.5,0-45.2-11.8-45.2-51.3s45.2,10.5,45.2,10.5V255.8z"/>
							</g>
						</g>
					</g>
					<g>
						<path fill="#F6C6A7" d="M138.6,306c-15.5,0-28-12.5-28-28v-18.2c0-15.5,12.5-28,28-28s28,12.5,28,28V278
							C166.6,293.4,154.1,306,138.6,306z"/>
					</g>
					<g>
						<circle fill="#A47B53" cx="127.4" cy="263.7" r="1.2"/>
						<circle fill="#A47B53" cx="149.8" cy="263.7" r="1.2"/>
					</g>
					<circle fill="#F6C6A7" cx="166.6" cy="263.2" r="4.6"/>
					<circle fill="#F6C6A7" cx="110.6" cy="263.2" r="4.6"/>
					<g>
						<path fill="#71553A" d="M141,283.4c-0.2,3.1-2.9,5.4-6,5.2c-3.1-0.2-13.6-0.9-13.6-0.9c3.8,0.3,7.6-10.8,14.4-10.3
							C138.9,277.6,141.3,280.3,141,283.4z"/>
						<g>
							<g opacity="0.2">
								<path fill="#010101" d="M135.4,284c0.4,3.1,3.3,5.2,6.4,4.8c3.1-0.4,13.5-1.9,13.5-1.9c-3.8,0.6-8.3-10.3-15.1-9.3
									C137.1,278.1,135,281,135.4,284z"/>
							</g>
							<g>
								<path fill="#71553A" d="M136.3,284c0.4,3.1,3.3,5.2,6.4,4.8c3.1-0.4,13.5-1.9,13.5-1.9c-3.8,0.6-8.3-10.3-15.1-9.3
									C137.9,278.1,135.8,281,136.3,284z"/>
							</g>
						</g>
					</g>
				</g>
			</g>
		</g>
		<g>
			<path fill="#008B95" d="M132.6,0.2c3.1,0,6.2,0,9.4,0c0.6,0.2,1.2,0.3,1.9,0.5c14.4,2.8,25.5,14,28.1,28.4
				c0.2,1.1,0.4,2.2,0.5,3.3c0,2,0,4,0,6c-0.1,0.3-0.2,0.6-0.2,0.9c-2,13.6-9.3,23.1-21.8,28.7c-2.8,1.3-5.8,1.8-8.8,2.3
				c-0.3,0-0.6,0-1,0c-0.2-0.4-0.3-0.8-0.3-1.3c0-6.1-0.2-12.2-0.2-18.2c0-5,1.7-9.6,4.8-13.5c1.9-2.5,4.4-4.1,7.7-4
				c1.3,0.1,1.4,0.2,1,1.4c-0.3,0.9-0.7,1.7-0.9,2.6c-0.7,3.1,0.3,5.9,2.6,7.4c2.6,1.7,6.3,1.6,8.8-0.2c2.9-2.1,4.1-5.7,3-9.5
				c-1-3.6-3.9-6-7.6-6.2c-7.4-0.6-14.8,3.7-18.2,10.5c-0.2,0.4-0.3,1.2-0.9,1.1c-0.7-0.1-0.4-0.9-0.4-1.5c0-2.9,0-5.8,0-8.8
				c0-1-0.3-1.3-1.3-1.3c-6.2,0.2-12.5,0.4-18.7,0.5c-1.1,0-1.4,0.5-1.4,1.6c0,1,0.7,1,1.4,1.1c3.4,0.5,4.6,1.8,4.6,5.3
				c0,9.6,0,19.3,0,28.9c0,1.8-0.2,2-1.8,1.2C113,63,106.4,55.5,103.3,45c-0.5-1.6-0.8-3.3-1.2-4.9c0-3,0-5.9,0-8.9
				c0.1-0.6,0.3-1.2,0.4-1.9c2.2-14.1,13.3-25.6,27.3-28.4C130.7,0.7,131.6,0.5,132.6,0.2z M140.5,14.1c0-4.9-3.7-8.7-8.5-8.7
				c-4.8-0.1-8.7,3.8-8.8,8.7c0,4.8,3.9,8.8,8.7,8.7C136.7,22.7,140.5,18.9,140.5,14.1z"/>
		</g>
		<g>
			<g>
				<path fill="none" stroke="#58595B" stroke-width="4" stroke-miterlimit="10" d="M185.8,29.1c45.6,18.2,77.9,62.8,77.9,114.9
					c0,45-24.1,84.4-60.1,106.1"/>
				<g>
					<polygon fill="#58595B" points="204.6,241.5 184.5,259.4 210.9,253.9 					"/>
				</g>
			</g>
		</g>
		<g>
			<g>
				<path fill="none" stroke="#58595B" stroke-width="12" stroke-miterlimit="10" d="M94,259.4c-45.6-18.2-77.9-62.8-77.9-114.9
					c0-29.5,10.3-56.6,27.6-77.9"/>
				<g>
					<polygon fill="#58595B" points="46.3,93.4 95.3,29.1 20.7,60.3 					"/>
				</g>
			</g>
		</g>
	</g>
</g>
</svg>
