<?xml version="1.0" encoding="utf-8"?>
<!-- Generator: Adobe Illustrator 17.1.0, SVG Export Plug-In . SVG Version: 6.00 Build 0)  -->
<!DOCTYPE svg PUBLIC "-//W3C//DTD SVG 1.1//EN" "http://www.w3.org/Graphics/SVG/1.1/DTD/svg11.dtd">
<svg version="1.1" xmlns="http://www.w3.org/2000/svg" xmlns:xlink="http://www.w3.org/1999/xlink" x="0px" y="0px"
	 viewBox="0 0 254.6 306" enable-background="new 0 0 254.6 306" xml:space="preserve">
<g id="bg">
</g>
<g id="Layer_1">
	<g>
		<g>
			<g>
				<g>
					<g>
						<g>
							<defs>
								<path id="SVGID_45_" d="M90.6,235.2l25.1-28.9c0,0,26.6-13.8,26.6,6.4s-32.8,40.4-43.8,40.4L90.6,235.2z"/>
							</defs>
							<use xlink:href="#SVGID_45_"  overflow="visible" fill="#71553A"/>
							<clipPath id="SVGID_46_">
								<use xlink:href="#SVGID_45_"  overflow="visible"/>
							</clipPath>
							<g clip-path="url(#SVGID_46_)">
								<path fill="#71553A" d="M126.5,301.9c-15.5,0-28-12.5-28-28v-18.2c0-15.5,12.5-28,28-28s28,12.5,28,28v18.2
									C154.5,289.4,142,301.9,126.5,301.9z"/>
							</g>
						</g>
						<g>
							<g opacity="0.1">
								<path fill="#010101" d="M152.7,255.8c-17.5,0-45.2-11.8-45.2-51.3s45.2,10.5,45.2,10.5V255.8z"/>
							</g>
							<g>
								<path fill="#71553A" d="M154.5,255.8c-17.5,0-45.2-11.8-45.2-51.3s45.2,10.5,45.2,10.5V255.8z"/>
							</g>
						</g>
					</g>
					<g>
						<path fill="#F6C6A7" d="M126.5,306c-15.5,0-28-12.5-28-28v-18.2c0-15.5,12.5-28,28-28s28,12.5,28,28V278
							C154.5,293.4,142,306,126.5,306z"/>
					</g>
					<g>
						<circle fill="#A47B53" cx="115.3" cy="263.7" r="1.2"/>
						<circle fill="#A47B53" cx="137.7" cy="263.7" r="1.2"/>
					</g>
					<circle fill="#F6C6A7" cx="154.5" cy="263.2" r="4.6"/>
					<circle fill="#F6C6A7" cx="98.5" cy="263.2" r="4.6"/>
					<g>
						<path fill="#71553A" d="M128.9,283.4c-0.2,3.1-2.9,5.4-6,5.2c-3.1-0.2-13.6-0.9-13.6-0.9c3.8,0.3,7.6-10.8,14.4-10.3
							C126.8,277.6,129.2,280.3,128.9,283.4z"/>
						<g>
							<g opacity="0.2">
								<path fill="#010101" d="M123.3,284c0.4,3.1,3.3,5.2,6.4,4.8c3.1-0.4,13.5-1.9,13.5-1.9c-3.8,0.6-8.3-10.3-15.1-9.3
									C125,278.1,122.9,281,123.3,284z"/>
							</g>
							<g>
								<path fill="#71553A" d="M124.1,284c0.4,3.1,3.3,5.2,6.4,4.8c3.1-0.4,13.5-1.9,13.5-1.9c-3.8,0.6-8.3-10.3-15.1-9.3
									C125.8,278.1,123.7,281,124.1,284z"/>
							</g>
						</g>
					</g>
				</g>
			</g>
		</g>
		<g>
			<path fill="#008B95" d="M120.5,0.2c3.1,0,6.2,0,9.4,0c0.6,0.2,1.2,0.3,1.9,0.5c14.4,2.8,25.5,14,28.1,28.4
				c0.2,1.1,0.4,2.2,0.5,3.3c0,2,0,4,0,6c-0.1,0.3-0.2,0.6-0.2,0.9c-2,13.6-9.3,23.1-21.8,28.7c-2.8,1.3-5.8,1.8-8.8,2.3
				c-0.3,0-0.6,0-1,0c-0.2-0.4-0.3-0.8-0.3-1.3c0-6.1-0.2-12.2-0.2-18.2c0-5,1.7-9.6,4.8-13.5c1.9-2.5,4.4-4.1,7.7-4
				c1.3,0.1,1.4,0.2,1,1.4c-0.3,0.9-0.7,1.7-0.9,2.6c-0.7,3.1,0.3,5.9,2.6,7.4c2.6,1.7,6.3,1.6,8.8-0.2c2.9-2.1,4.1-5.7,3-9.5
				c-1-3.6-3.9-6-7.6-6.2c-7.4-0.6-14.8,3.7-18.2,10.5c-0.2,0.4-0.3,1.2-0.9,1.1c-0.7-0.1-0.4-0.9-0.4-1.5c0-2.9,0-5.8,0-8.8
				c0-1-0.3-1.3-1.3-1.3c-6.2,0.2-12.5,0.4-18.7,0.5c-1.1,0-1.4,0.5-1.4,1.6c0,1,0.7,1,1.4,1.1c3.4,0.5,4.6,1.8,4.6,5.3
				c0,9.6,0,19.3,0,28.9c0,1.8-0.2,2-1.8,1.2C100.9,63,94.3,55.5,91.2,45c-0.5-1.6-0.8-3.3-1.2-4.9c0-3,0-5.9,0-8.9
				c0.1-0.6,0.3-1.2,0.4-1.9c2.2-14.1,13.3-25.6,27.3-28.4C118.6,0.7,119.5,0.5,120.5,0.2z M128.4,14.1c0-4.9-3.7-8.7-8.5-8.7
				c-4.8-0.1-8.7,3.8-8.8,8.7c0,4.8,3.9,8.8,8.7,8.7C124.6,22.7,128.4,18.9,128.4,14.1z"/>
		</g>
		<g>
			<g>
				<path fill="none" stroke="#58595B" stroke-width="6" stroke-miterlimit="10" d="M173.7,29.1c1.4,0.6,2.8,1.1,4.1,1.7"/>
				<path fill="none" stroke="#58595B" stroke-width="6" stroke-miterlimit="10" stroke-dasharray="9.1925,15.3208" d="M191.4,37.9
					c36,21.6,60.1,61.1,60.1,106.1c0,38.8-17.8,73.3-45.7,96"/>
				<path fill="none" stroke="#58595B" stroke-width="6" stroke-miterlimit="10" d="M199.8,244.7c-1.2,0.9-2.5,1.7-3.7,2.5"/>
				<g>
					<polygon fill="#58595B" points="197,236.5 172.4,259.4 205.2,251.8 					"/>
				</g>
			</g>
		</g>
		<g>
			<g>
				<path fill="none" stroke="#58595B" stroke-width="8" stroke-miterlimit="10" d="M81.9,259.4C36.2,241.2,4,196.7,4,144.5
					c0-42.5,21.4-80,54.1-102.2"/>
				<g>
					<polygon fill="#58595B" points="57.1,53.9 83.2,29.1 48.2,37.5 					"/>
				</g>
			</g>
		</g>
	</g>
</g>
</svg>
