<?xml version="1.0" encoding="UTF-8" standalone="no"?>
<svg width="2544px" height="2159px" viewBox="0 0 2544 2159" version="1.1" xmlns="http://www.w3.org/2000/svg" xmlns:xlink="http://www.w3.org/1999/xlink" xmlns:sketch="http://www.bohemiancoding.com/sketch/ns">
    <!-- Generator: Sketch 3.0.1 (7597) - http://www.bohemiancoding.com/sketch -->
    <title>Slice 1</title>
    <description>Created with Sketch.</description>
    <defs></defs>
    <g id="Page-1" stroke="none" stroke-width="1" fill="none" fill-rule="evenodd" sketch:type="MSPage">
        <circle id="Oval-5" stroke="#34495E" stroke-width="12" sketch:type="MSShapeGroup" cx="1371" cy="958" r="952"></circle>
        <g id="iPhone" sketch:type="MSLayerGroup" transform="translate(1253.000000, 1663.000000)" stroke="#34495E" stroke-width="4" fill="#ECF0F1">
            <path d="M236,468.769054 C236,482.706762 224.746888,494 210.871749,494 L25.1224111,494 C11.2472719,494 0,482.706762 0,468.769054 L0,25.2368099 C0,11.2991015 11.2472719,0 25.1224111,0 L210.871749,0 C224.746888,0 236,11.2991015 236,25.2368099 L236,468.769054 L236,468.769054 Z" id="Shape" sketch:type="MSShapeGroup"></path>
            <path d="M97,48 C97,50.7554981 99.0160701,53 101.511322,53 L132.482834,53 C134.98393,53 137,50.7554981 137,48 L137,48 C137,45.2380336 134.98393,43 132.482834,43 L101.511322,43 C99.0160701,43 97,45.2380336 97,48 L97,48 L97,48 Z" id="Shape" sketch:type="MSShapeGroup"></path>
            <ellipse id="Oval" sketch:type="MSShapeGroup" cx="115.72386" cy="23.7168338" rx="4.81492299" ry="4.84768412"></ellipse>
            <rect id="Rectangle" sketch:type="MSShapeGroup" x="14" y="72" width="206" height="350"></rect>
            <circle id="Oval" sketch:type="MSShapeGroup" cx="117" cy="458" r="21"></circle>
            <path d="M124,463.861326 C124,464.49329 123.515012,465 122.922248,465 L111.083141,465 C110.484988,465 110,464.49329 110,463.861326 L110,452.144368 C110,451.512403 110.484988,451 111.083141,451 L122.922248,451 C123.515012,451 124,451.512403 124,452.144368 L124,463.861326 L124,463.861326 Z" id="Shape" sketch:type="MSShapeGroup"></path>
        </g>
        <g id="Macbook-Pro" sketch:type="MSLayerGroup" transform="translate(3.000000, 347.000000)" stroke="#34495E" stroke-width="4" fill="#ECF0F1">
            <path d="M922,525.220502 C922,525.651895 921.652268,526 921.232446,526 L0.769674433,526 C0.343491069,526 0,525.651895 0,525.220502 L0,498.779498 C0,498.354511 0.345611384,498 0.769674433,498 L921.232446,498 C921.652268,498 922,498.354511 922,498.779498 L922,525.220502 L922,525.220502 Z" id="Shape" sketch:type="MSShapeGroup"></path>
            <path d="M842,29.8806381 C842,13.3780296 828.689026,0 812.278733,0 L113.725801,0 C97.310974,0 84,13.3780296 84,29.8806381 L84,498 L841.997733,498 L841.997733,29.8806381 L842,29.8806381 Z" id="Shape" sketch:type="MSShapeGroup"></path>
            <rect id="Rectangle" sketch:type="MSShapeGroup" x="114" y="29" width="697" height="439"></rect>
            <path d="M1,526 C3.66478779,531.201812 11.9377523,535 21.7504664,535 L901.249534,535 C911.057994,535 919.335212,531.204283 922,526 L1,526 L1,526 Z" id="Shape" sketch:type="MSShapeGroup"></path>
            <path d="M402.203673,498 C402.091228,498.713741 402,499.43892 402,500.1824 C402,507.258045 407.323073,513 413.887277,513 L512.116966,513 C518.683292,513 524,507.258045 524,500.1824 C524,499.43892 523.913015,498.713741 523.796327,498 L402.203673,498 L402.203673,498 Z" id="Shape" sketch:type="MSShapeGroup"></path>
        </g>
        <g id="iPad" sketch:type="MSLayerGroup" transform="translate(2020.000000, 291.000000)" stroke="#34495E" stroke-width="4" fill="#ECF0F1">
            <path d="M2.55929969e-13,25.0261402 C2.55929969e-13,11.2007956 11.1298528,0 24.8575717,0 L497.142428,0 C510.870147,0 522,11.2007956 522,25.0261402 L522,660.97386 C522,674.794672 510.870147,686 497.142428,686 L24.8575717,686 C11.1298528,686 0,674.794672 0,660.97386 L0,25.0261402 L2.55929969e-13,25.0261402 Z" id="Shape" sketch:type="MSShapeGroup"></path>
            <rect id="Rectangle" sketch:type="MSShapeGroup" x="28" y="48" width="466" height="558"></rect>
            <ellipse id="Oval" sketch:type="MSShapeGroup" cx="260.72386" cy="23.7168338" rx="4.81492299" ry="4.84768412"></ellipse>
            <circle id="Oval" sketch:type="MSShapeGroup" cx="261" cy="646" r="21"></circle>
            <path d="M268,651.861326 C268,652.49329 267.515012,653 266.922248,653 L255.083141,653 C254.484988,653 254,652.49329 254,651.861326 L254,640.144368 C254,639.512403 254.484988,639 255.083141,639 L266.922248,639 C267.515012,639 268,639.512403 268,640.144368 L268,651.861326 L268,651.861326 Z" id="Shape" sketch:type="MSShapeGroup"></path>
        </g>
        <text id="MULTIPLATFORM" sketch:type="MSTextLayer" font-family="Proxima Nova" font-size="125" font-weight="bold" fill="#34495E">
            <tspan x="857" y="1055">MULTIPLATFORM</tspan>
        </text>
    </g>
</svg>