<?xml version="1.0" encoding="utf-8"?>
<!-- Generator: Adobe Illustrator 17.1.0, SVG Export Plug-In . SVG Version: 6.00 Build 0)  -->
<!DOCTYPE svg PUBLIC "-//W3C//DTD SVG 1.1//EN" "http://www.w3.org/Graphics/SVG/1.1/DTD/svg11.dtd">
<svg version="1.1" xmlns="http://www.w3.org/2000/svg" xmlns:xlink="http://www.w3.org/1999/xlink" x="0px" y="0px"
	 viewBox="0 0 348.3 279.6" enable-background="new 0 0 348.3 279.6" xml:space="preserve">
<g id="bg">
</g>
<g id="Layer_1">
	<g>
		<g>
			<circle fill="#939598" stroke="#58595B" stroke-miterlimit="10" cx="78.5" cy="147.6" r="78"/>
			<circle fill="#2C3E50" stroke="#939598" stroke-miterlimit="10" cx="78.5" cy="147.6" r="75.9"/>
			<path fill="#26B99A" d="M78.5,90.7c31.4,0,56.9,25.5,56.9,56.9s-25.5,56.9-56.9,56.9V90.7z"/>
			<g>
				<circle fill="#D1D3D4" cx="45.4" cy="205" r="1"/>
				<circle fill="#D1D3D4" cx="111.7" cy="90.2" r="1"/>
			</g>
			<g>
				<circle fill="#D1D3D4" cx="21.1" cy="180.8" r="1"/>
				<circle fill="#D1D3D4" cx="136" cy="114.5" r="1"/>
			</g>
			<circle fill="#D1D3D4" cx="21.1" cy="114.5" r="1"/>
			<circle fill="#D1D3D4" cx="13.8" cy="147.6" r="1"/>
			<circle fill="#D1D3D4" cx="144.1" cy="147.6" r="1"/>
			<circle fill="#D1D3D4" cx="136" cy="180.8" r="1"/>
			<g>
				<circle fill="#D1D3D4" cx="45.4" cy="90.2" r="1"/>
				<circle fill="#D1D3D4" cx="111.7" cy="205" r="1"/>
			</g>
			
				<line fill="none" stroke="#E6E7E8" stroke-width="2" stroke-linecap="round" stroke-miterlimit="10" x1="78.5" y1="147.6" x2="78.5" y2="112.7"/>
			<line fill="none" stroke="#E6E7E8" stroke-linecap="round" stroke-miterlimit="10" x1="78.5" y1="147.6" x2="78.5" y2="204.5"/>
			<g>
				<path fill="#FFFFFF" d="M74.9,86v-5.9l-1.3,1.4l-1-1l2.5-2.6h1.5V86H74.9z"/>
				<path fill="#FFFFFF" d="M78,86v-1.3c3.3-2.4,4.3-3.3,4.3-4.3c0-0.7-0.6-1.1-1.3-1.1c-0.9,0-1.6,0.4-2.2,0.9l-1-1.1
					c0.8-0.9,2-1.3,3.1-1.3c1.7,0,3.1,1,3.1,2.6c0,1.4-1.1,2.6-3.2,4.1H84V86H78z"/>
			</g>
			<g>
				<path fill="#FFFFFF" d="M75.3,213.1c0-2.4,1.4-4.2,3.8-4.2c1,0,1.8,0.3,2.4,0.8l-0.8,1.3c-0.4-0.4-0.9-0.6-1.6-0.6
					c-1.2,0-2,1-2,2.3c0,0.1,0,0.1,0,0.2c0.4-0.5,1.2-1,2.1-1c1.5,0,2.8,0.9,2.8,2.6c0,1.6-1.2,2.8-3.1,2.8
					C76.3,217.3,75.3,215.4,75.3,213.1z M80.1,214.5c0-0.8-0.7-1.2-1.5-1.2c-0.6,0-1.2,0.3-1.6,0.8c0.1,0.8,0.5,1.6,1.6,1.6
					C79.6,215.7,80.1,215.1,80.1,214.5z"/>
			</g>
		</g>
		<g>
			<circle fill="#939598" stroke="#58595B" stroke-miterlimit="10" cx="269.6" cy="147.6" r="78.2"/>
			<circle fill="#2C3E50" stroke="#939598" stroke-miterlimit="10" cx="269.6" cy="147.6" r="75.9"/>
			<circle fill="#D1D3D4" cx="204.4" cy="147.6" r="1"/>
			<circle fill="#D1D3D4" cx="334.7" cy="147.6" r="1"/>
			<path fill="#26B99A" d="M281.7,92c-3.9-0.8-7.9-1.3-12.1-1.3v52.2L281.7,92z"/>
			<g>
				<g>
					<circle fill="#D1D3D4" cx="236.4" cy="205" r="1"/>
					<circle fill="#D1D3D4" cx="302.7" cy="90.2" r="1"/>
				</g>
				<g>
					<circle fill="#D1D3D4" cx="212.2" cy="180.8" r="1"/>
					<circle fill="#D1D3D4" cx="327" cy="114.5" r="1"/>
				</g>
				<g>
					<circle fill="#D1D3D4" cx="212.2" cy="114.5" r="1"/>
					<circle fill="#D1D3D4" cx="327" cy="180.8" r="1"/>
				</g>
				<g>
					<circle fill="#D1D3D4" cx="236.4" cy="90.2" r="1"/>
					<circle fill="#D1D3D4" cx="302.7" cy="205" r="1"/>
				</g>
			</g>
			
				<line fill="none" stroke="#E6E7E8" stroke-width="2" stroke-linecap="round" stroke-miterlimit="10" x1="269.6" y1="147.6" x2="269.6" y2="112.7"/>
			<line fill="none" stroke="#E6E7E8" stroke-linecap="round" stroke-miterlimit="10" x1="281.7" y1="92" x2="269.6" y2="147.6"/>
			<g>
				<path fill="#FFFFFF" d="M265.9,86v-5.9l-1.3,1.4l-1-1l2.5-2.6h1.5V86H265.9z"/>
				<path fill="#FFFFFF" d="M269,86v-1.3c3.3-2.4,4.3-3.3,4.3-4.3c0-0.7-0.6-1.1-1.3-1.1c-0.9,0-1.6,0.4-2.2,0.9l-1-1.1
					c0.8-0.9,2-1.3,3.1-1.3c1.7,0,3.1,1,3.1,2.6c0,1.4-1.1,2.6-3.2,4.1h3.3V86H269z"/>
			</g>
			<g>
				<path fill="#FFFFFF" d="M266.3,213.1c0-2.4,1.4-4.2,3.8-4.2c1,0,1.8,0.3,2.4,0.8l-0.8,1.3c-0.4-0.4-0.9-0.6-1.6-0.6
					c-1.2,0-2,1-2,2.3c0,0.1,0,0.1,0,0.2c0.4-0.5,1.2-1,2.1-1c1.5,0,2.8,0.9,2.8,2.6c0,1.6-1.2,2.8-3.1,2.8
					C267.3,217.3,266.3,215.4,266.3,213.1z M271.1,214.5c0-0.8-0.7-1.2-1.5-1.2c-0.6,0-1.2,0.3-1.6,0.8c0.1,0.8,0.5,1.6,1.6,1.6
					C270.6,215.7,271.1,215.1,271.1,214.5z"/>
			</g>
		</g>
		<g>
			<path fill="#414042" d="M35.2,255.5c0-2.7,2.1-4.5,4.6-4.5c1.8,0,2.9,0.9,3.6,1.9l-1.5,0.8c-0.4-0.6-1.1-1.1-2.1-1.1
				c-1.6,0-2.7,1.2-2.7,2.8s1.1,2.8,2.7,2.8c0.8,0,1.5-0.3,1.8-0.7v-1h-2.3V255h4.1v3.3c-0.9,1-2.1,1.6-3.7,1.6
				C37.2,260,35.2,258.2,35.2,255.5z"/>
			<path fill="#414042" d="M44.5,255.5c0-2.6,1.9-4.5,4.5-4.5c2.6,0,4.5,1.9,4.5,4.5S51.7,260,49,260
				C46.4,260,44.5,258.1,44.5,255.5z M51.7,255.5c0-1.6-1-2.8-2.6-2.8c-1.6,0-2.6,1.2-2.6,2.8c0,1.6,1,2.8,2.6,2.8
				C50.6,258.3,51.7,257.1,51.7,255.5z"/>
			<path fill="#414042" d="M54.5,255.5c0-2.6,1.9-4.5,4.5-4.5c2.6,0,4.5,1.9,4.5,4.5S61.6,260,59,260
				C56.4,260,54.5,258.1,54.5,255.5z M61.6,255.5c0-1.6-1-2.8-2.6-2.8c-1.6,0-2.6,1.2-2.6,2.8c0,1.6,1,2.8,2.6,2.8
				C60.6,258.3,61.6,257.1,61.6,255.5z"/>
			<path fill="#414042" d="M64.8,259.8v-8.7h3.4c2.7,0,4.6,1.7,4.6,4.3s-1.9,4.3-4.6,4.3H64.8z M71,255.5c0-1.5-0.9-2.7-2.7-2.7
				h-1.6v5.4h1.6C70,258.2,71,257,71,255.5z"/>
			<path fill="#414042" d="M77.1,255.5c0-2.7,2-4.5,4.6-4.5c1.9,0,3,1,3.6,2.1l-1.6,0.8c-0.4-0.7-1.1-1.3-2-1.3
				c-1.6,0-2.7,1.2-2.7,2.8s1.1,2.8,2.7,2.8c0.9,0,1.7-0.5,2-1.3l1.6,0.8c-0.6,1.1-1.7,2.1-3.6,2.1C79.1,260,77.1,258.2,77.1,255.5z
				"/>
			<path fill="#414042" d="M92.4,259.8v-3.6h-4.1v3.6h-1.8v-8.7h1.8v3.4h4.1v-3.4h1.9v8.7H92.4z"/>
			<path fill="#414042" d="M95.9,256.4v-5.2h1.9v5.1c0,1.2,0.7,2,2,2s2-0.8,2-2v-5.1h1.9v5.2c0,2.2-1.3,3.6-3.9,3.6
				C97.2,260,95.9,258.5,95.9,256.4z"/>
			<path fill="#414042" d="M111.4,259.8l-4.1-5.7v5.7h-1.8v-8.7h1.9l4,5.4v-5.4h1.8v8.7H111.4z"/>
			<path fill="#414042" d="M120.1,259.8l-2.6-3.5l-0.7,0.8v2.7h-1.8v-8.7h1.8v3.9l3.1-3.9h2.3l-3.4,4.1l3.7,4.6H120.1z"/>
			<path fill="#414042" d="M53.7,275.1c0-2.6,1.9-4.5,4.5-4.5c2.6,0,4.5,1.9,4.5,4.5s-1.9,4.5-4.5,4.5
				C55.6,279.6,53.7,277.7,53.7,275.1z M60.9,275.1c0-1.6-1-2.8-2.6-2.8c-1.6,0-2.6,1.2-2.6,2.8c0,1.6,1,2.8,2.6,2.8
				C59.8,277.9,60.9,276.7,60.9,275.1z"/>
			<path fill="#414042" d="M64.1,279.4v-8.7h6.1v1.6h-4.3v1.8h4.2v1.6h-4.2v3.6H64.1z"/>
			<path fill="#414042" d="M76.8,279.4v-7h-2.5v-1.6h6.9v1.6h-2.5v7H76.8z"/>
			<path fill="#414042" d="M82.4,279.4v-8.7h1.8v8.7H82.4z"/>
			<path fill="#414042" d="M93.5,279.4v-6.1l-2.4,6.1h-0.8l-2.4-6.1v6.1H86v-8.7h2.6l2.1,5.2l2.1-5.2h2.6v8.7H93.5z"/>
			<path fill="#414042" d="M97.1,279.4v-8.7h6.1v1.6h-4.3v1.8h4.2v1.6h-4.2v2h4.3v1.6H97.1z"/>
		</g>
		<g>
			<path fill="#414042" d="M243.3,259.8l-4.1-5.7v5.7h-1.8v-8.7h1.9l4,5.4v-5.4h1.8v8.7H243.3z"/>
			<path fill="#414042" d="M246.4,255.5c0-2.6,1.9-4.5,4.5-4.5c2.6,0,4.5,1.9,4.5,4.5s-1.9,4.5-4.5,4.5
				C248.3,260,246.4,258.1,246.4,255.5z M253.5,255.5c0-1.6-1-2.8-2.6-2.8c-1.6,0-2.6,1.2-2.6,2.8c0,1.6,1,2.8,2.6,2.8
				C252.5,258.3,253.5,257.1,253.5,255.5z"/>
			<path fill="#414042" d="M256.7,259.8v-8.7h4.6c1.7,0,2.5,1.1,2.5,2.2c0,1.1-0.7,1.8-1.5,2c0.9,0.1,1.7,1,1.7,2.1
				c0,1.3-0.9,2.3-2.5,2.3H256.7z M261.9,253.7c0-0.5-0.4-0.9-1-0.9h-2.3v1.9h2.3C261.5,254.6,261.9,254.2,261.9,253.7z
				 M262.1,257.2c0-0.5-0.4-1-1.1-1h-2.4v2h2.4C261.6,258.2,262.1,257.9,262.1,257.2z"/>
			<path fill="#414042" d="M264.9,255.5c0-2.6,1.9-4.5,4.5-4.5c2.6,0,4.5,1.9,4.5,4.5s-1.9,4.5-4.5,4.5
				C266.8,260,264.9,258.1,264.9,255.5z M272.1,255.5c0-1.6-1-2.8-2.6-2.8c-1.6,0-2.6,1.2-2.6,2.8c0,1.6,1,2.8,2.6,2.8
				C271,258.3,272.1,257.1,272.1,255.5z"/>
			<path fill="#414042" d="M275.3,259.8v-8.7h3.4c2.7,0,4.6,1.7,4.6,4.3s-1.9,4.3-4.6,4.3H275.3z M281.4,255.5
				c0-1.5-0.9-2.7-2.7-2.7h-1.6v5.4h1.6C280.4,258.2,281.4,257,281.4,255.5z"/>
			<path fill="#414042" d="M286.5,259.8v-3.5l-3.3-5.1h2.1l2.2,3.5l2.1-3.5h2.1l-3.3,5.1v3.5H286.5z"/>
			<path fill="#414042" d="M293.1,254.8l-0.7-0.6c0.4-0.2,0.9-0.8,1-1.2c0,0-0.2,0.1-0.2,0.1c-0.5,0-0.9-0.4-0.9-0.9
				c0-0.6,0.5-1,1-1c0.6,0,1.2,0.5,1.2,1.3C294.4,253.3,293.9,254.2,293.1,254.8z"/>
			<path fill="#414042" d="M295.2,258.6l1-1.4c0.6,0.6,1.6,1.2,2.8,1.2c1,0,1.5-0.5,1.5-1c0-1.5-5-0.5-5-3.7c0-1.4,1.2-2.6,3.3-2.6
				c1.4,0,2.5,0.4,3.4,1.2l-1,1.4c-0.7-0.7-1.6-0.9-2.5-0.9c-0.8,0-1.2,0.4-1.2,0.9c0,1.4,5,0.5,5,3.7c0,1.6-1.1,2.8-3.5,2.8
				C297.2,260,296,259.4,295.2,258.6z"/>
			<path fill="#414042" d="M240.2,275.1c0-2.7,2.1-4.5,4.6-4.5c1.8,0,2.9,0.9,3.6,1.9l-1.5,0.8c-0.4-0.6-1.1-1.1-2.1-1.1
				c-1.6,0-2.7,1.2-2.7,2.8s1.1,2.8,2.7,2.8c0.8,0,1.5-0.3,1.8-0.7v-1h-2.3v-1.6h4.1v3.3c-0.9,1-2.1,1.6-3.7,1.6
				C242.3,279.6,240.2,277.8,240.2,275.1z"/>
			<path fill="#414042" d="M249.5,275.1c0-2.6,1.9-4.5,4.5-4.5c2.6,0,4.5,1.9,4.5,4.5s-1.9,4.5-4.5,4.5
				C251.4,279.6,249.5,277.7,249.5,275.1z M256.7,275.1c0-1.6-1-2.8-2.6-2.8c-1.6,0-2.6,1.2-2.6,2.8c0,1.6,1,2.8,2.6,2.8
				C255.7,277.9,256.7,276.7,256.7,275.1z"/>
			<path fill="#414042" d="M261.6,279.4v-7H259v-1.6h6.9v1.6h-2.5v7H261.6z"/>
			<path fill="#414042" d="M272.5,279.4v-7h-2.5v-1.6h6.9v1.6h-2.5v7H272.5z"/>
			<path fill="#414042" d="M278,279.4v-8.7h1.8v8.7H278z"/>
			<path fill="#414042" d="M289.1,279.4v-6.1l-2.4,6.1h-0.8l-2.4-6.1v6.1h-1.8v-8.7h2.6l2.1,5.2l2.1-5.2h2.6v8.7H289.1z"/>
			<path fill="#414042" d="M292.7,279.4v-8.7h6.1v1.6h-4.3v1.8h4.2v1.6h-4.2v2h4.3v1.6H292.7z"/>
		</g>
		<g>
			<path fill="#414042" d="M55.6,14.2V2.9h-4.1V0.2h11.2v2.6h-4.1v11.4H55.6z"/>
			<path fill="#414042" d="M74.2,14.2V8.4h-6.6v5.9h-3v-14h3v5.5h6.6V0.2h3v14H74.2z"/>
			<path fill="#414042" d="M79.9,14.2v-14h9.9v2.6h-6.9v3h6.8v2.6h-6.8v3.2h6.9v2.6H79.9z"/>
			<path fill="#414042" d="M101.8,14.2l-6.7-9.1v9.1h-3v-14h3.1l6.5,8.8V0.2h3v14H101.8z"/>
		</g>
		<g>
			<path fill="#414042" d="M255.5,14.2l-6.7-9.1v9.1h-3v-14h3.1l6.5,8.8V0.2h3v14H255.5z"/>
			<path fill="#414042" d="M260.5,7.2c0-4.2,3.1-7.2,7.3-7.2c4.2,0,7.3,3,7.3,7.2c0,4.2-3.1,7.2-7.3,7.2
				C263.6,14.5,260.5,11.5,260.5,7.2z M272.1,7.2c0-2.6-1.7-4.6-4.3-4.6s-4.2,2-4.2,4.6c0,2.6,1.7,4.6,4.2,4.6S272.1,9.8,272.1,7.2z
				"/>
			<path fill="#414042" d="M287.5,14.2l-2.5-9.6l-2.4,9.6h-3.2l-4-14h3.3l2.5,10.1l2.7-10.1h2.3l2.6,10.1l2.4-10.1h3.4l-4,14H287.5z
				"/>
		</g>
	</g>
</g>
</svg>
