<?xml version="1.0" encoding="utf-8"?>
<!-- Generator: Adobe Illustrator 17.1.0, SVG Export Plug-In . SVG Version: 6.00 Build 0)  -->
<!DOCTYPE svg PUBLIC "-//W3C//DTD SVG 1.1//EN" "http://www.w3.org/Graphics/SVG/1.1/DTD/svg11.dtd">
<svg version="1.1" xmlns="http://www.w3.org/2000/svg" xmlns:xlink="http://www.w3.org/1999/xlink" x="0px" y="0px"
	 viewBox="0 0 173.2 279.6" enable-background="new 0 0 173.2 279.6" xml:space="preserve">
<g id="bg">
</g>
<g id="Layer_1">
	<g>
		<g>
			<circle fill="#939598" stroke="#58595B" stroke-miterlimit="10" cx="87.5" cy="147.6" r="78.2"/>
			<circle fill="#2C3E50" stroke="#939598" stroke-miterlimit="10" cx="87.5" cy="147.6" r="75.9"/>
			<circle fill="#D1D3D4" cx="22.4" cy="147.6" r="1"/>
			<circle fill="#D1D3D4" cx="152.7" cy="147.6" r="1"/>
			<path fill="#26B99A" d="M99.6,92c-3.9-0.8-7.9-1.3-12.1-1.3v52.2L99.6,92z"/>
			<g>
				<g>
					<circle fill="#D1D3D4" cx="54.4" cy="205" r="1"/>
					<circle fill="#D1D3D4" cx="120.7" cy="90.2" r="1"/>
				</g>
				<g>
					<circle fill="#D1D3D4" cx="30.1" cy="180.8" r="1"/>
					<circle fill="#D1D3D4" cx="145" cy="114.5" r="1"/>
				</g>
				<g>
					<circle fill="#D1D3D4" cx="30.1" cy="114.5" r="1"/>
					<circle fill="#D1D3D4" cx="145" cy="180.8" r="1"/>
				</g>
				<g>
					<circle fill="#D1D3D4" cx="54.4" cy="90.2" r="1"/>
					<circle fill="#D1D3D4" cx="120.7" cy="205" r="1"/>
				</g>
			</g>
			
				<line fill="none" stroke="#E6E7E8" stroke-width="2" stroke-linecap="round" stroke-miterlimit="10" x1="87.5" y1="147.6" x2="87.5" y2="112.7"/>
			<line fill="none" stroke="#E6E7E8" stroke-linecap="round" stroke-miterlimit="10" x1="99.6" y1="92" x2="87.5" y2="147.6"/>
			<g>
				<path fill="#FFFFFF" d="M83.9,86v-5.9l-1.3,1.4l-1-1l2.5-2.6h1.5V86H83.9z"/>
				<path fill="#FFFFFF" d="M87,86v-1.3c3.3-2.4,4.3-3.3,4.3-4.3c0-0.7-0.6-1.1-1.3-1.1c-0.9,0-1.6,0.4-2.2,0.9l-1-1.1
					c0.8-0.9,2-1.3,3.1-1.3c1.7,0,3.1,1,3.1,2.6c0,1.4-1.1,2.6-3.2,4.1H93V86H87z"/>
			</g>
			<g>
				<path fill="#FFFFFF" d="M84.3,213.1c0-2.4,1.4-4.2,3.8-4.2c1,0,1.8,0.3,2.4,0.8l-0.8,1.3c-0.4-0.4-0.9-0.6-1.6-0.6
					c-1.2,0-2,1-2,2.3c0,0.1,0,0.1,0,0.2c0.4-0.5,1.2-1,2.1-1c1.5,0,2.8,0.9,2.8,2.6c0,1.6-1.2,2.8-3.1,2.8
					C85.3,217.3,84.3,215.4,84.3,213.1z M89.1,214.5c0-0.8-0.7-1.2-1.5-1.2c-0.6,0-1.2,0.3-1.6,0.8c0.1,0.8,0.5,1.6,1.6,1.6
					C88.6,215.7,89.1,215.1,89.1,214.5z"/>
			</g>
		</g>
		<g>
			<path fill="#414042" d="M61.2,259.8l-4.1-5.7v5.7h-1.8v-8.7h1.9l4,5.4v-5.4H63v8.7H61.2z"/>
			<path fill="#414042" d="M64.3,255.5c0-2.6,1.9-4.5,4.5-4.5c2.6,0,4.5,1.9,4.5,4.5s-1.9,4.5-4.5,4.5
				C66.2,260,64.3,258.1,64.3,255.5z M71.5,255.5c0-1.6-1-2.8-2.6-2.8c-1.6,0-2.6,1.2-2.6,2.8c0,1.6,1,2.8,2.6,2.8
				C70.4,258.3,71.5,257.1,71.5,255.5z"/>
			<path fill="#414042" d="M74.7,259.8v-8.7h4.6c1.7,0,2.5,1.1,2.5,2.2c0,1.1-0.7,1.8-1.5,2c0.9,0.1,1.7,1,1.7,2.1
				c0,1.3-0.9,2.3-2.5,2.3H74.7z M79.8,253.7c0-0.5-0.4-0.9-1-0.9h-2.3v1.9h2.3C79.5,254.6,79.8,254.2,79.8,253.7z M80,257.2
				c0-0.5-0.4-1-1.1-1h-2.4v2h2.4C79.6,258.2,80,257.9,80,257.2z"/>
			<path fill="#414042" d="M82.9,255.5c0-2.6,1.9-4.5,4.5-4.5c2.6,0,4.5,1.9,4.5,4.5S90,260,87.4,260
				C84.8,260,82.9,258.1,82.9,255.5z M90,255.5c0-1.6-1-2.8-2.6-2.8c-1.6,0-2.6,1.2-2.6,2.8c0,1.6,1,2.8,2.6,2.8
				C89,258.3,90,257.1,90,255.5z"/>
			<path fill="#414042" d="M93.2,259.8v-8.7h3.4c2.7,0,4.6,1.7,4.6,4.3s-1.9,4.3-4.6,4.3H93.2z M99.4,255.5c0-1.5-0.9-2.7-2.7-2.7
				h-1.6v5.4h1.6C98.4,258.2,99.4,257,99.4,255.5z"/>
			<path fill="#414042" d="M104.5,259.8v-3.5l-3.3-5.1h2.1l2.2,3.5l2.1-3.5h2.1l-3.3,5.1v3.5H104.5z"/>
			<path fill="#414042" d="M111,254.8l-0.7-0.6c0.4-0.2,0.9-0.8,1-1.2c0,0-0.2,0.1-0.2,0.1c-0.5,0-0.9-0.4-0.9-0.9c0-0.6,0.5-1,1-1
				c0.6,0,1.2,0.5,1.2,1.3C112.4,253.3,111.8,254.2,111,254.8z"/>
			<path fill="#414042" d="M113.2,258.6l1-1.4c0.6,0.6,1.6,1.2,2.8,1.2c1,0,1.5-0.5,1.5-1c0-1.5-5-0.5-5-3.7c0-1.4,1.2-2.6,3.3-2.6
				c1.4,0,2.5,0.4,3.4,1.2l-1,1.4c-0.7-0.7-1.6-0.9-2.5-0.9c-0.8,0-1.2,0.4-1.2,0.9c0,1.4,5,0.5,5,3.7c0,1.6-1.1,2.8-3.5,2.8
				C115.2,260,114,259.4,113.2,258.6z"/>
			<path fill="#414042" d="M58.1,275.1c0-2.7,2.1-4.5,4.6-4.5c1.8,0,2.9,0.9,3.6,1.9l-1.5,0.8c-0.4-0.6-1.1-1.1-2.1-1.1
				c-1.6,0-2.7,1.2-2.7,2.8s1.1,2.8,2.7,2.8c0.8,0,1.5-0.3,1.8-0.7v-1h-2.3v-1.6h4.1v3.3c-0.9,1-2.1,1.6-3.7,1.6
				C60.2,279.6,58.1,277.8,58.1,275.1z"/>
			<path fill="#414042" d="M67.5,275.1c0-2.6,1.9-4.5,4.5-4.5c2.6,0,4.5,1.9,4.5,4.5s-1.9,4.5-4.5,4.5
				C69.4,279.6,67.5,277.7,67.5,275.1z M74.6,275.1c0-1.6-1-2.8-2.6-2.8c-1.6,0-2.6,1.2-2.6,2.8c0,1.6,1,2.8,2.6,2.8
				C73.6,277.9,74.6,276.7,74.6,275.1z"/>
			<path fill="#414042" d="M79.5,279.4v-7H77v-1.6h6.9v1.6h-2.5v7H79.5z"/>
			<path fill="#414042" d="M90.4,279.4v-7h-2.5v-1.6h6.9v1.6h-2.5v7H90.4z"/>
			<path fill="#414042" d="M96,279.4v-8.7h1.8v8.7H96z"/>
			<path fill="#414042" d="M107.1,279.4v-6.1l-2.4,6.1h-0.8l-2.4-6.1v6.1h-1.8v-8.7h2.6l2.1,5.2l2.1-5.2h2.6v8.7H107.1z"/>
			<path fill="#414042" d="M110.7,279.4v-8.7h6.1v1.6h-4.3v1.8h4.2v1.6h-4.2v2h4.3v1.6H110.7z"/>
		</g>
		<g>
			<path fill="#414042" d="M73.5,14.2l-6.7-9.1v9.1h-3v-14h3.1L73.4,9V0.2h3v14H73.5z"/>
			<path fill="#414042" d="M78.4,7.2C78.4,3,81.5,0,85.8,0c4.2,0,7.3,3,7.3,7.2c0,4.2-3.1,7.2-7.3,7.2C81.5,14.5,78.4,11.5,78.4,7.2
				z M90,7.2c0-2.6-1.7-4.6-4.3-4.6s-4.2,2-4.2,4.6c0,2.6,1.7,4.6,4.2,4.6S90,9.8,90,7.2z"/>
			<path fill="#414042" d="M105.5,14.2L103,4.6l-2.4,9.6h-3.2l-4-14h3.3l2.5,10.1l2.7-10.1h2.3l2.6,10.1l2.4-10.1h3.4l-4,14H105.5z"
				/>
		</g>
	</g>
</g>
</svg>
