<?xml version="1.0" encoding="utf-8"?>
<!-- Generator: Adobe Illustrator 17.1.0, SVG Export Plug-In . SVG Version: 6.00 Build 0)  -->
<!DOCTYPE svg PUBLIC "-//W3C//DTD SVG 1.1//EN" "http://www.w3.org/Graphics/SVG/1.1/DTD/svg11.dtd">
<svg version="1.1" xmlns="http://www.w3.org/2000/svg" xmlns:xlink="http://www.w3.org/1999/xlink" x="0px" y="0px"
	 viewBox="0 0 168.3 279.6" enable-background="new 0 0 168.3 279.6" xml:space="preserve">
<g id="bg">
</g>
<g id="Layer_1">
	<g>
		<g>
			<circle fill="#939598" stroke="#58595B" stroke-miterlimit="10" cx="84.4" cy="147.6" r="78"/>
			<circle fill="#2C3E50" stroke="#939598" stroke-miterlimit="10" cx="84.4" cy="147.6" r="75.9"/>
			<path fill="#26B99A" d="M84.4,90.7c31.4,0,56.9,25.5,56.9,56.9s-25.5,56.9-56.9,56.9V90.7z"/>
			<g>
				<circle fill="#D1D3D4" cx="51.2" cy="205" r="1"/>
				<circle fill="#D1D3D4" cx="117.5" cy="90.2" r="1"/>
			</g>
			<g>
				<circle fill="#D1D3D4" cx="27" cy="180.8" r="1"/>
				<circle fill="#D1D3D4" cx="141.8" cy="114.5" r="1"/>
			</g>
			<circle fill="#D1D3D4" cx="27" cy="114.5" r="1"/>
			<circle fill="#D1D3D4" cx="19.6" cy="147.6" r="1"/>
			<circle fill="#D1D3D4" cx="149.9" cy="147.6" r="1"/>
			<circle fill="#D1D3D4" cx="141.8" cy="180.8" r="1"/>
			<g>
				<circle fill="#D1D3D4" cx="51.2" cy="90.2" r="1"/>
				<circle fill="#D1D3D4" cx="117.5" cy="205" r="1"/>
			</g>
			
				<line fill="none" stroke="#E6E7E8" stroke-width="2" stroke-linecap="round" stroke-miterlimit="10" x1="84.4" y1="147.6" x2="84.4" y2="112.7"/>
			<line fill="none" stroke="#E6E7E8" stroke-linecap="round" stroke-miterlimit="10" x1="84.4" y1="147.6" x2="84.4" y2="204.5"/>
			<g>
				<path fill="#FFFFFF" d="M80.7,86v-5.9l-1.3,1.4l-1-1l2.5-2.6h1.5V86H80.7z"/>
				<path fill="#FFFFFF" d="M83.8,86v-1.3c3.3-2.4,4.3-3.3,4.3-4.3c0-0.7-0.6-1.1-1.3-1.1c-0.9,0-1.6,0.4-2.2,0.9l-1-1.1
					c0.8-0.9,2-1.3,3.1-1.3c1.7,0,3.1,1,3.1,2.6c0,1.4-1.1,2.6-3.2,4.1h3.3V86H83.8z"/>
			</g>
			<g>
				<path fill="#FFFFFF" d="M81.1,213.1c0-2.4,1.4-4.2,3.8-4.2c1,0,1.8,0.3,2.4,0.8l-0.8,1.3c-0.4-0.4-0.9-0.6-1.6-0.6
					c-1.2,0-2,1-2,2.3c0,0.1,0,0.1,0,0.2c0.4-0.5,1.2-1,2.1-1c1.5,0,2.8,0.9,2.8,2.6c0,1.6-1.2,2.8-3.1,2.8
					C82.1,217.3,81.1,215.4,81.1,213.1z M85.9,214.5c0-0.8-0.7-1.2-1.5-1.2c-0.6,0-1.2,0.3-1.6,0.8c0.1,0.8,0.5,1.6,1.6,1.6
					C85.4,215.7,85.9,215.1,85.9,214.5z"/>
			</g>
		</g>
		<g>
			<path fill="#414042" d="M41,255.5c0-2.7,2.1-4.5,4.6-4.5c1.8,0,2.9,0.9,3.6,1.9l-1.5,0.8c-0.4-0.6-1.1-1.1-2.1-1.1
				c-1.6,0-2.7,1.2-2.7,2.8s1.1,2.8,2.7,2.8c0.8,0,1.5-0.3,1.8-0.7v-1h-2.3V255h4.1v3.3c-0.9,1-2.1,1.6-3.7,1.6
				C43.1,260,41,258.2,41,255.5z"/>
			<path fill="#414042" d="M50.4,255.5c0-2.6,1.9-4.5,4.5-4.5c2.6,0,4.5,1.9,4.5,4.5s-1.9,4.5-4.5,4.5
				C52.3,260,50.4,258.1,50.4,255.5z M57.5,255.5c0-1.6-1-2.8-2.6-2.8c-1.6,0-2.6,1.2-2.6,2.8c0,1.6,1,2.8,2.6,2.8
				C56.5,258.3,57.5,257.1,57.5,255.5z"/>
			<path fill="#414042" d="M60.3,255.5c0-2.6,1.9-4.5,4.5-4.5c2.6,0,4.5,1.9,4.5,4.5s-1.9,4.5-4.5,4.5
				C62.2,260,60.3,258.1,60.3,255.5z M67.5,255.5c0-1.6-1-2.8-2.6-2.8c-1.6,0-2.6,1.2-2.6,2.8c0,1.6,1,2.8,2.6,2.8
				C66.4,258.3,67.5,257.1,67.5,255.5z"/>
			<path fill="#414042" d="M70.7,259.8v-8.7h3.4c2.7,0,4.6,1.7,4.6,4.3s-1.9,4.3-4.6,4.3H70.7z M76.8,255.5c0-1.5-0.9-2.7-2.7-2.7
				h-1.6v5.4h1.6C75.8,258.2,76.8,257,76.8,255.5z"/>
			<path fill="#414042" d="M82.9,255.5c0-2.7,2-4.5,4.6-4.5c1.9,0,3,1,3.6,2.1l-1.6,0.8c-0.4-0.7-1.1-1.3-2-1.3
				c-1.6,0-2.7,1.2-2.7,2.8s1.1,2.8,2.7,2.8c0.9,0,1.7-0.5,2-1.3l1.6,0.8c-0.6,1.1-1.7,2.1-3.6,2.1C84.9,260,82.9,258.2,82.9,255.5z
				"/>
			<path fill="#414042" d="M98.2,259.8v-3.6h-4.1v3.6h-1.8v-8.7h1.8v3.4h4.1v-3.4h1.9v8.7H98.2z"/>
			<path fill="#414042" d="M101.8,256.4v-5.2h1.9v5.1c0,1.2,0.7,2,2,2s2-0.8,2-2v-5.1h1.9v5.2c0,2.2-1.3,3.6-3.9,3.6
				C103,260,101.8,258.5,101.8,256.4z"/>
			<path fill="#414042" d="M117.3,259.8l-4.1-5.7v5.7h-1.8v-8.7h1.9l4,5.4v-5.4h1.8v8.7H117.3z"/>
			<path fill="#414042" d="M125.9,259.8l-2.6-3.5l-0.7,0.8v2.7h-1.8v-8.7h1.8v3.9l3.1-3.9h2.3l-3.4,4.1l3.7,4.6H125.9z"/>
			<path fill="#414042" d="M59.6,275.1c0-2.6,1.9-4.5,4.5-4.5c2.6,0,4.5,1.9,4.5,4.5s-1.9,4.5-4.5,4.5
				C61.5,279.6,59.6,277.7,59.6,275.1z M66.7,275.1c0-1.6-1-2.8-2.6-2.8c-1.6,0-2.6,1.2-2.6,2.8c0,1.6,1,2.8,2.6,2.8
				C65.7,277.9,66.7,276.7,66.7,275.1z"/>
			<path fill="#414042" d="M69.9,279.4v-8.7h6.1v1.6h-4.3v1.8H76v1.6h-4.2v3.6H69.9z"/>
			<path fill="#414042" d="M82.7,279.4v-7h-2.5v-1.6h6.9v1.6h-2.5v7H82.7z"/>
			<path fill="#414042" d="M88.2,279.4v-8.7h1.8v8.7H88.2z"/>
			<path fill="#414042" d="M99.3,279.4v-6.1l-2.4,6.1h-0.8l-2.4-6.1v6.1h-1.8v-8.7h2.6l2.1,5.2l2.1-5.2h2.6v8.7H99.3z"/>
			<path fill="#414042" d="M102.9,279.4v-8.7h6.1v1.6h-4.3v1.8h4.2v1.6h-4.2v2h4.3v1.6H102.9z"/>
		</g>
		<g>
			<path fill="#414042" d="M61.4,14.2V2.9h-4.1V0.2h11.2v2.6h-4.1v11.4H61.4z"/>
			<path fill="#414042" d="M80,14.2V8.4h-6.6v5.9h-3v-14h3v5.5H80V0.2h3v14H80z"/>
			<path fill="#414042" d="M85.8,14.2v-14h9.9v2.6h-6.9v3h6.8v2.6h-6.8v3.2h6.9v2.6H85.8z"/>
			<path fill="#414042" d="M107.7,14.2L101,5.1v9.1h-3v-14h3.1l6.5,8.8V0.2h3v14H107.7z"/>
		</g>
	</g>
</g>
</svg>
