<?xml version="1.0" encoding="utf-8"?>
<!-- Generator: Adobe Illustrator 17.1.0, SVG Export Plug-In . SVG Version: 6.00 Build 0)  -->
<!DOCTYPE svg PUBLIC "-//W3C//DTD SVG 1.1//EN" "http://www.w3.org/Graphics/SVG/1.1/DTD/svg11.dtd">
<svg version="1.1" xmlns="http://www.w3.org/2000/svg" xmlns:xlink="http://www.w3.org/1999/xlink" x="0px" y="0px"
	 viewBox="0 0 800 600" enable-background="new 0 0 800 600" xml:space="preserve">
<g id="bg">
	<rect x="1" y="0" fill="#E6E7E8" width="798" height="600"/>
	<g>
		<ellipse fill="#D2D3D4" cx="389.3" cy="509.4" rx="98.7" ry="21.3"/>
		<g>
			<g>
				<defs>
					<path id="SVGID_13_" d="M392.5,205.7c-18.4,0-33.3-14.9-33.3-33.3v-35.8c0-18.4,14.9-33.3,33.3-33.3
						c18.4,0,33.3,14.9,33.3,33.3v35.8C425.9,190.7,410.9,205.7,392.5,205.7z"/>
				</defs>
				<clipPath id="SVGID_45_">
					<use xlink:href="#SVGID_13_"  overflow="visible"/>
				</clipPath>
			</g>
			<path fill="#F6C6A7" d="M477.6,284.8c0,65.9,7.8,119.3-85.1,119.3c-85.1,0-85.1-53.4-85.1-119.3s38.1-119.3,85.1-119.3
				S477.6,218.9,477.6,284.8z"/>
			<g>
				<defs>
					<path id="SVGID_15_" d="M392.5,404.1c-85.1,0-85.1-53.4-85.1-119.3s38.1-119.3,85.1-119.3s85.1,53.4,85.1,119.3"/>
				</defs>
				<clipPath id="SVGID_46_">
					<use xlink:href="#SVGID_15_"  overflow="visible"/>
				</clipPath>
				<polygon clip-path="url(#SVGID_46_)" fill="#ECBD9F" points="334.3,410.5 322.3,161.6 462.8,161.6 450.7,410.5 				"/>
			</g>
			<g>
				<defs>
					<path id="SVGID_17_" d="M480.1,284.8c0,67.8-39.2,122.8-87.6,122.8s-87.6-55-87.6-122.8s39.8-118.2,88.2-118.2
						S480.1,217,480.1,284.8z"/>
				</defs>
				<clipPath id="SVGID_47_">
					<use xlink:href="#SVGID_17_"  overflow="visible"/>
				</clipPath>
				<polygon clip-path="url(#SVGID_47_)" fill="#FFFFFF" points="447.9,407.5 337.1,407.5 325.4,164.5 459.7,164.5 				"/>
			</g>
			<g>
				<g>
					<path fill="#F6C6A7" d="M392.5,205.7c-18.4,0-33.3-14.9-33.3-33.3v-35.8c0-18.4,14.9-33.3,33.3-33.3
						c18.4,0,33.3,14.9,33.3,33.3v35.8C425.9,190.7,410.9,205.7,392.5,205.7z"/>
				</g>
				<circle fill="#754E2C" cx="379" cy="128.2" r="1.6"/>
				<circle fill="#754E2C" cx="404.5" cy="128.2" r="1.6"/>
				<path fill="#A47B53" d="M398.2,140L398.2,140c-3.6,2-7.8,2-11.3,0l-0.1,0h-8.2c-4.4,0-7.9,3.5-7.9,7.9v13.5
					c0,6.3,5.1,11.3,11.3,11.3H403c6.3,0,11.3-5.1,11.3-11.3v-13.5c0-4.4-3.5-7.9-7.9-7.9H398.2z M401.9,163H401
					c-2.8,0-5.5-0.6-7.8-1.8l-0.7-0.4l-0.7,0.4c-2.2,1.2-5,1.8-7.8,1.8h-0.9c-4.8,0-8.7-2.7-8.7-6.1v-0.6c0-3.6,4.1-6.5,9.2-6.5
					h17.6c5.1,0,9.2,2.9,9.2,6.5v0.6C410.6,160.2,406.7,163,401.9,163z"/>
			</g>
			<g>
				<defs>
					<path id="SVGID_19_" d="M480.9,284.8c0,70.2-1.2,127-88.4,127c-90.6,0-90.6-56.9-90.6-127s40.6-127,90.6-127
						S480.9,214.6,480.9,284.8z"/>
				</defs>
				<clipPath id="SVGID_48_">
					<use xlink:href="#SVGID_19_"  overflow="visible"/>
				</clipPath>
				<rect x="451.9" y="337.7" clip-path="url(#SVGID_48_)" fill="#FFFFFF" width="33.7" height="10"/>
			</g>
			<g>
				<path fill="#424244" d="M458,427.9H327C327,291,344.1,225,344.1,225h96.8C440.9,225,458,284.8,458,427.9z"/>
			</g>
			<g>
				<polygon fill="#4D6660" points="384,491.5 350.6,491.5 344.9,427.9 384,427.9 				"/>
				<polygon fill="#394D48" points="364.5,496.5 350.6,491.5 344.9,427.9 				"/>
				<polygon fill="#4D6660" points="434.5,491.5 401,491.5 401,427.9 440.2,427.9 				"/>
				<polygon fill="#394D48" points="420.6,496.5 401,491.5 401,427.9 				"/>
			</g>
			<polygon fill="#424244" points="347.7,489.3 350.6,497.4 344.9,504 321.4,504 321.4,516.4 350.6,516.4 354.8,516.4 384,516.4 
				384,491.5 			"/>
			<polygon fill="#424244" points="437.3,489.3 434.5,497.4 440.2,504 463.6,504 463.6,516.4 434.5,516.4 430.2,516.4 401,516.4 
				401,491.5 			"/>
			<g>
				<path fill="none" stroke="#D7D6D6" stroke-width="0.5699" stroke-miterlimit="10" d="M428.6,185.7
					c-5.4,14.7-19.6,25.1-36.1,25.1c-16.1,0-30-10-35.7-24.1"/>
			</g>
			<g>
				<defs>
					<ellipse id="SVGID_21_" cx="392.5" cy="284.8" rx="92.9" ry="119.3"/>
				</defs>
				<clipPath id="SVGID_49_">
					<use xlink:href="#SVGID_21_"  overflow="visible"/>
				</clipPath>
				<g clip-path="url(#SVGID_49_)">
					<rect x="350.3" y="165.4" fill="#424244" width="8.9" height="62.5"/>
					<rect x="425.9" y="165.4" fill="#424244" width="8.9" height="62.5"/>
				</g>
			</g>
			<linearGradient id="SVGID_50_" gradientUnits="userSpaceOnUse" x1="393.1434" y1="408.6336" x2="393.1434" y2="315.1313">
				<stop  offset="0" style="stop-color:#424244"/>
				<stop  offset="1" style="stop-color:#3B3B3D"/>
			</linearGradient>
			<linearGradient id="SVGID_51_" gradientUnits="userSpaceOnUse" x1="338.6602" y1="361.8824" x2="447.6266" y2="361.8824">
				<stop  offset="0" style="stop-color:#424244"/>
				<stop  offset="1" style="stop-color:#414143"/>
			</linearGradient>
			
				<rect x="338.9" y="315.1" fill="url(#SVGID_50_)" stroke="url(#SVGID_51_)" stroke-width="0.5699" stroke-miterlimit="10" width="108.4" height="93.5"/>
			<line fill="none" stroke="#818181" stroke-width="2.8495" stroke-miterlimit="10" x1="338.9" y1="315.1" x2="447.3" y2="315.1"/>
		</g>
		<g>
			<polygon fill="#FEE581" points="348.9,210.7 348.9,216.1 351.2,216.1 354.3,210.7 			"/>
			<polygon fill="#FEE581" points="361.1,210.7 358.8,210.7 355.7,216.1 361.1,216.1 			"/>
			<polygon fill="#FEE896" points="354.3,210.7 351.2,216.1 355.7,216.1 358.8,210.7 			"/>
		</g>
		<g>
			<polygon fill="#FEE581" points="423.9,210.7 423.9,216.1 426.2,216.1 429.4,210.7 			"/>
			<polygon fill="#FEE581" points="436.2,210.7 433.9,210.7 430.7,216.1 436.2,216.1 			"/>
			<polygon fill="#FEE896" points="429.4,210.7 426.2,216.1 430.7,216.1 433.9,210.7 			"/>
		</g>
	</g>
	<path fill="#FFFFFF" d="M588.9,73.8c-61.5,0-111.3,27.9-111.3,62.2c0,6.1,1.6,12,4.5,17.5l-19.9,19.2h36.9
		c20.2,15.5,52.9,25.5,89.8,25.5c61.5,0,111.3-27.9,111.3-62.2C700.2,101.6,650.4,73.8,588.9,73.8z"/>
	<text transform="matrix(1 0 0 1 504.4198 142.9143)" font-family="'ProximaNova-Bold'" font-size="22.6772">you want a taco?</text>
</g>
<g id="Layer_1">
	<path fill="none" stroke="#754E2C" stroke-miterlimit="10" d="M379,157.7c7.5-7.5,19.7-7.4,27.1,0"/>
</g>
</svg>
