<?xml version="1.0" encoding="utf-8"?>
<!-- Generator: Adobe Illustrator 17.1.0, SVG Export Plug-In . SVG Version: 6.00 Build 0)  -->
<!DOCTYPE svg PUBLIC "-//W3C//DTD SVG 1.1//EN" "http://www.w3.org/Graphics/SVG/1.1/DTD/svg11.dtd">
<svg version="1.1" xmlns="http://www.w3.org/2000/svg" xmlns:xlink="http://www.w3.org/1999/xlink" x="0px" y="0px"
	 viewBox="0 0 800 600" enable-background="new 0 0 800 600" xml:space="preserve">
<g id="bg">
	<rect fill="#E6E7E8" width="800" height="600"/>
</g>
<g id="Layer_1">
	<polygon fill="#FEE973" points="799,598.2 1,598.2 1,0 400,0 	"/>
	<polygon fill="#FFFFFF" points="1,598.2 799,598.2 799,0 400,0 	"/>
	<g>
		<defs>
			<rect id="SVGID_52_" x="1" y="0" width="798" height="598.2"/>
		</defs>
		<clipPath id="SVGID_45_">
			<use xlink:href="#SVGID_52_"  overflow="visible"/>
		</clipPath>
	</g>
	<text transform="matrix(1 0 0 1 49.6577 113.7563)" font-family="'ProximaNova-Bold'" font-size="45.3543">Jacky</text>
	<text transform="matrix(1 0 0 1 48.7831 151.4276)" font-family="'ProximaNova-Regular'" font-size="29.862">Designer</text>
	<text transform="matrix(1 0 0 1 629.9557 113.7561)" font-family="'ProximaNova-Bold'" font-size="45.3543">Chris</text>
	<text transform="matrix(1 0 0 1 615.0518 151.4274)" font-family="'ProximaNova-Regular'" font-size="29.862">Developer</text>
	<text transform="matrix(1 0 0 1 339.3488 226.4522)" font-family="'ProximaNova-Regular'" font-size="31.5241">Beautiful</text>
	<g>
		<text transform="matrix(1 0 0 1 353.0454 334.1474)" font-family="'ProximaNova-Regular'" font-size="31.5241">Simple</text>
	</g>
	<g>
		<text transform="matrix(1 0 0 1 312.3965 441.8425)" font-family="'ProximaNova-Regular'" font-size="31.5241">User friendly</text>
	</g>
	<g>
		<text transform="matrix(1 0 0 1 257.9698 549.5374)" font-family="'ProximaNova-Bold'" font-size="31.5241">We also make apps.</text>
	</g>
	<line fill="#5D5E5E" x1="330.4" y1="271.4" x2="469.6" y2="271.4"/>
	<line fill="#5D5E5E" x1="330.4" y1="379.1" x2="469.6" y2="379.1"/>
	<line fill="#5D5E5E" x1="330.4" y1="486.8" x2="469.6" y2="486.8"/>
</g>
</svg>
