<?xml version="1.0" encoding="utf-8"?>
<!-- Generator: Adobe Illustrator 17.1.0, SVG Export Plug-In . SVG Version: 6.00 Build 0)  -->
<!DOCTYPE svg PUBLIC "-//W3C//DTD SVG 1.1//EN" "http://www.w3.org/Graphics/SVG/1.1/DTD/svg11.dtd">
<svg version="1.1" xmlns="http://www.w3.org/2000/svg" xmlns:xlink="http://www.w3.org/1999/xlink" x="0px" y="0px"
	 viewBox="0 0 1811.6 2368.8" enable-background="new 0 0 1811.6 2368.8" xml:space="preserve">
<g id="bg">
</g>
<g id="Layer_1">
	<g id="Land">
		<path id="path11" fill="#A9D278" d="M787.8,1244.6c-10.2,11.1-43.5,79.2-72.1,49.6c1.9,22.2-23.9,127.1-52.8,145.9l0.6-1.5
			c-7.7,11.9-92.8,78.9-92.8,76.5c-4.5-0.1-8-0.6-9.4,6.5c3.4,1.1,2.4,0.2,4.8,1.5c-7.9,5.1-32.2,0.3-31.1,19.9
			c1.8-0.8,8.7-11.8,13.4-9.5c-16.5,19-92.2,86.2-123.5,82.9c-25.7,10.7-55.7,32.9-74.8,50.8c-14.8,13.9-65.6-3-74.5,16.3
			c9,5.2-27.9,34.8-38.2,37.1c5.8,18.2-51.1,34-24.4,74c-22.4-38.3-54.9,9.8-35.9,11.7c-7.7-0.2-11.2-11.3-18.3-4.6
			c2.3,10.2,1.1,14.9,2.7,24.3c10.9,0.6-20.4-40.9-16.3-7.6c1,8.1,4.9,24.5,6.9,28.4c-5-3.8-7.5-30.5-16.5-25.9
			c-3.2,1.6-27.1,12.5-25.9,20.2c0.4,0.9,19.5,10.2,21.2,10.9c-29-11-28.4-8-10.4,9.5c-24.8,4.8-3.2-0.2-12.4,8.1
			c-4.1-2.4-1.2-15.9-9.4-17c-3.8,1.4-6.8,8-9.6,10.9c6.5,3.5,13.3,9.8,17.5,14c2.2-1.5-44.6-14.7-24.1,4
			c12.8,7.1,13.7,16.6,34.5,7.7c-8.3,12.6,3.9,4.3,8.5,12.5c-7.3,5.4-31.4-17-37.1,0.1c1.1,4.1,21.2,23.7,23.3,25.2
			c-3.9-3-10.6-13.2-17.4-15.4c-6.4,5,0.2,7.7-10.7,8.2c3.9-13.9,8.7-11.3-10.7-12.4c-0.7-1-15.5-26.8-19.9,0.1
			c6.3,2.4,14.9,2.5,17,3c-0.4,0.4,3.1,9.3,4.6,9.8c6.4-3-63.1,6.9-34.9,23.5c5.2,7.4,45-11.3,49.7-13.2c-0.8,9.3-10.3,3.8-14.6,9.5
			c0.6,3.1,3.3,3.8,8.1,2c-2.4,11.6-34.8-11.3-33.1,16.7c0.1,0.1,20.6-0.2,15.6-1.4c-2.9,1.5-14.2,11.8-15.4,12.4
			c11.1-2.8,23.1-2.5,34.2-4.4c-1.2,31.3-114.5-4.9-75.7,53.3c3.5-1.6,39.6-22.4,38-24.8c0.9,3.7-7.8,10.1-9.5,12.1
			c6.5,6,12.1-3.2,17.5-0.7c-4.5,10.8-19.2,4.7-23.7,20.1c3,5.3-2.9,6.6,13.8-3.4c1.3,1.8-1.1,7.2,0.9,7.2
			c3.5-3.9,16.8-26.3,28.5-22.3c-70.1,45.3-4.7,43.9,43,54.5c27.5,6.1,40.1-37.1,66.9-5.8c13.5,15.7,13.2,37.6,47.8,26.2
			c30-24.3,16.6,18.3,36.8,17.3c2.8-3,4.8-12.8,7-12.1c-7.7,22.5-0.6,10.5-14.3,19.3c-0.1,1.9,12.6,16.3,18,16.9
			c-1.2-2.5-6.9-10.8-5.9-13.7c4.1,0.7,28.5-1.8,30.2,6.6c-9,0-13.5-5.5-21.4,2.8c5.8,3.8,28.2,2,31.8,0c-0.5-2.5-3.9-6.5-3.8-8.7
			c3.3,1.1,9.6-0.6,13.5,1.8c-1.9,1.3-4.4,0.6-6.4,2.1c29.4-6.9,33.6,30.8,57.2,10.2c7.9,4.5,11.9,10.1,14.2-3.1
			c7,5.4,88.6-3.3,82.7-19.4c-1.5,0.3-14.1-1.9-13.5-1.6c24.2,3,61.3-43.3,83-62.4c18.2-16,9.7-32.8,47.1-35.6
			c19.5-1.4,32.2-3.9,28.4-22.8c-6,10.5-20.2,15.8-30.9,19.3c10.5-6.4,18-15.9,29.4-21.9c-8-1.8-12.2-5.2-20-6.2
			c2.5,5.3,13.5-24.7,8.2-17.8c38-11.9,18.4-63.2,55.4-94.1c22.6-18.9,11.8-34.5,14.8-50.8c-3.5,0.9,14.5-57.7,14.6-61.7
			c0.5-19.8,55.3-60.6,78.7-59.7c50.2,2.2,77.1-74.2,114.7-47.7c-8.4,7.2-26.7,2.3-33.3,11.7c13.7-1.5,35.9-10.6,50.4-9.8
			c-14.5,11.5,24.8,19.2,28.7,20.9c-0.6,1.5-12.6-33.1-1.1-26.8c3,6.6-0.6,17.4,5.2,22.7c25.6-4.3,16-55.2-9.6-33.3
			c3-7.2,1.4-11.5-4.8-12.7c-1.5,2.6-2.4,5.5-2.7,8.6c4.8-1.2-25.8-2.8-27.7-3.3c-2.3-6.3,19.5-7.2,21.1-7.6
			c2.7,3.5-10.7-4.1-12.2-5c0-5.9,5.9-0.3,5.6-1.1c2.4-61.2,0.7-65.7,54.9-98.2c27.1-16.3,45.8-99.1,78.6-94
			c-0.4-39.5,68.2-77,80-119.9c-19.1,4.8-11-32.5-26.5-38.9c-0.6,0.9,6,14.7-2.8,9.6c-4.2-8.2-7.3-37,10.6-43.8
			c2.4,7.3-2.1,0.5,5.4,0.4c1.6,2.5,0.5,4.8-3.4,6.9c10-6.5,15.3-8.6,22.3-21.3c-18.4,6.8-35.7,5-55.4,10.2
			c-1.7-13,34.9-1.2,31.8-27.8c2.2,2.2,3.7-3.5,4.1-3.8c3,1.4-0.6,11.8,5.4,9.1c1.3-2.7,14.4-18.4,13.6-25
			c-0.9,0.8-19.6,18.1-20.3,7.5c0.6-1.3,10.4-9.8-0.7-13.3c-11.9,9.5-22.9-1.4-32,7.5c1.2,13.9,9.5,1.3,11.3,1.3
			c3.2,2-3.1,9.1,2.2,13.1c-5.3,3.8-2.9,2-9.6,8.6c-5-6.5,0.3-5.3,0.9-10.7c-7.6,0.4-14.2,7.9-12.8,18.2c0.7,1.2,28.5-1.4,34-2.8
			c-14.8,6.3-17.7,6.7-35.4,8.8c-0.1,0,7.5-1.1,6.8,1.3c-8.1,7.5-18.9,5.3-24.3,6.3c19.6-14.7,7.9-5.7,8.3-20.9
			c8.3-8.2,8.4-11.4,18.9-15.2c-10-12.7-20.6,7.9-24.7,9.2c0.4-1.5,0-2.4-1.3-2.7c0,0.1,2.9-16.7,1.8-15.2c15.1-7,23.8-4.7,35-11.2
			c3-19.7-25.5,6.7-25.9,6.5c-1.1-0.4,3.2-8.6,0.6-9.4c-1.8,0.9-26.6,14.8-24.8,18.7c1.1,1.7,8.3-3.1,8.8-3
			c2.7,2.1-7.9,10.1-7.8,14.5c-1.4-1.4-3.4-1.1-4.7,0.8c-14.9-19.1-9.1,6.5-28.9,8.9c-0.9-8.5-29.4,26-39.4,26.3
			c-15.8,0.5-17.8-33.9-14.6-29.8c0.5-0.4-5.8-29.5-6.1-24.8c37.7-20.5-42.5-36.9-46.8-41.7c0,0-4.5-15.3-4.9-16.5
			c4.8-25.9,20.7-18.7,47.2-20.3c-20.9-7-45.3-11.1-61.1,6.3c2.1-0.5,8.1-2.6,10.3-1.8c0.8,3.5-14.4,12.8-15.9,12.1
			c0.8-13.5-39.4,26.9-49.9,36.2c-14.5,12.8-11.5,58.1-3.8,76.1C805.7,1223.6,798.6,1236,787.8,1244.6z"/>
		<path id="path13" fill="#A9D278" d="M1417.9,611.6c18.5,15.5,88.5,24.8,99.9,41c-22.5,9.8,13-3.7,19.1,5.4
			c7.6,3.3,41.1-13.4,47.6-24c6.8-29.9,50-35.6,54.9-55.6c22.9-2.7,59.5,5,74.2,19.6c14.7,14.4-25.2,48.2-19.6,70.1
			c8.6,33.4-16.6,119.3-63.7,107.8c-4.7,19,1.9,44.1-6.7,64.9c3-0.4,16.1,0.1,17.1,6.7c-7.4,7.2-10.1,22.3-18.6,27.7
			c-10.7-9.8,3-29.2-1-33.6c-19.7-17.4-72-0.9-95.2,9.7c-49,22.4-30.2,54.4-34.3,90.4c7.8-5.8,4.8-7.9,23.9-3.2
			c-11.3,19.8-18.7,37.2-28.6,59.8c-5.7,13-35.2,43.8-35.5,49.6c1.7,2.9,3.9-4.9,4.9-1.9c-2.9,31.5-45,62.7-61.7,94
			c-24,44.8-55.5,66.6-91.8,101.7c-6.5,6.3-33.5,29.7-41.4,28.8c-30-3.3-7-26.4-25.2-34.7c-8.3-3.8-43.4,3.3-39.1-1.1
			c15.7-15.9-16.8-49.4-5-17.5c-0.9,16.4-55.6,0.7-23.6-12.1c16.1-6.5,16-18.8,26-20c0.8-0.1,36.9-64.9,43.9-80.6
			c4-8.9,8.1-27.3,7.2-33.1c-3.9-26.3,17.4-19.7,20.6-40.8c-14.9,19.7-39.3-11.3-42.1-34.3c1,0.7,1.5,1.8,2.6,2.2
			c1.2-26.4-81.2-32.7-96.7-53.5c-21.8-29.3-96.9-19.3-91.3-73.2c4.3-41.5,90.2-48.2,112.6-67.7c23.6-20.6,22.1-97.8,21.5-129.2
			c3.6,1.4,23.7,5.4,23.2,6.3c-6.4-9.3,6.2-0.1,11.1-8.2c-5-1.9-18.8-0.9-20.7-1.8c-9.2-7.8,27.6-19.3,9.4-25.6
			c-3.8,2.2-3.4,11.9-8.1,10.5c-34.2-10.2,28.2-36.1,24.3-33.3c-6.1-6.9,1.2-2.9-0.1-11.1c-21.6-6.2-15.3,1.8-28.5-32.8
			c-7.2-18.9-6.9-31.3,9.5-43.6c-8.3-1.8-12.7,10-16.5,13.2c-4.2-2.2-25.5-50.6-23.5-52.1c4.8,1.2,9.7,1.4,14.6,0.5
			c2.5,3.9,0.9,27.4,10.5,31c-3.4-14.5,4.5-7.1,9.4-13.2c-3.5-1.3-9.4-2-12.1-2.7c5.3-4.1,35.5-11.8,32.6-6.9
			c5.9-10.9-22.2-15.1-22.7-15c-6.6-4.1,5.6-9.9,6.6-13c-30.1-3.6-46.8,35.5-55.2-9.3c-2-10.6-41.1-76.5-34.9-79.2
			c1.5,1.9-1.9,6.5,0.7,9c2.2-0.1,1.5-6,5.9-6.8c5,1.4,19.5,24.5,20.5,26.2c-0.5,2.2-4.7-1.1-5.7,1.1c1.8,3.1,2.8,0.8,1,4
			c2.6,2,8.1,7.3,6-1.4c3.9,1.2,2.3,6.8,4.5,8.7c5.2-10.6,7.6-14.1,5.7-27c-0.1,2.8-3.2-23.5-5.2-27c-2.8,0.7-25.1,18.9-23.5-1.4
			c4-1,33.5-5.6,35.9-15.5c-0.6,0.2-2.4-2.3-2.3-3.4c-0.5,0.2-33.8,15.6-29.1,6.1c-1.8,2.8,21-16.2,22.2-17.4
			c1.2-0.5-6.4-6.2-8.4-6.6c-1.4,5.3-1.5,15.5-8.6,18.2c-2.2-6.8-14.5-14.9-14.3-14.6c-4.9-8.4-2.2,7.3,11.1,16.5
			c-32.6,15.1-49.9-46.5-56.8-63.7c-25.4,21,35,54.7,37.8,70.2c8.6,47.9-30.5-9.5-41.1-27.7c-10.7-18.3-97.8-134.9-49.6-112.8
			c2.1-11.4-4.8-7.2,4.3-3.9c6.3-8,4.5-12.5,12-20.4c-4.4-2.3-0.8,0.4-7-3.1c-1.5,1.8-1.3,6.2-2.7,7.4c-1.5-2.3-1.4-9.6-3.2-10.3
			c0,1.6,1.1,12.7,0.4,15.6c-17-4.1-25.9,4.9-26.4,26.9c-22.4-11.4-7.7-29.4-9.4-38.1c-2.3,2.1-8.2,11-9.9,11.9
			c-14-8.8,3.1-8.9,0.9-16.6c-9.2-0.8-20.7,0.2-22.5-15.1c41.2-14.2-15.9-74.7-32.4-95c-9.2-11.4-30.3-24-23.7-35.5
			c-1.1,2,55.7,0.4,53.8-1.3c-0.8,2-5.5,21.3-9.6,19.6c-1.4-4-3.2-9.2-6.4-10.5c-3.5,7.2-5.1,7.9-7.6,13.4c4.7,8.9,4.9,1.4,8.1-0.4
			c3,8.8-1.8,4.1,4.6,4.2c-0.1-0.1,2.2,16.8,1,15c0.6-5.7,1.6-11.8,0.8-19.2c4,12.2,26.1,38.4,25.4,50.3c-4.8-1.3-6.5-8.1-11.3-9.2
			c-0.8-6.5,33.9,49.4,22.7,40.3c14.3-9.9,7.5-0.9,10.4-25.3c12.1-7.2,13.7-16.9,15.1-2.8c4.7-1.7,6-4,7.1,2.9
			c-13.6,13.6-12.7,20,12.2,24.7c-0.2-2.8-4.7-13-0.9-15.1c7,1.2,23.7,7.7,28.4,14.5c-9.4,18.9-1,3.8,1.6,14.2
			c2.6-38.7,51.7,14.3,51.5,15.6c-7.7-3-9.4-5.4-18.7-4c2.1,11.7,7.1,0.8-2,7.4c1.6-8.4,23.3,29.3,20.6,28.4c4.6-1.9,9.8-4,13.6-5.8
			c2.3-9.5-14.2-3.7-13.9-10.2c14.5-4.8,17.9,1.3,29.4-12.4c1,12.1-9.9,19,6.1,20.2c-7.1,1.7,4.4,5.6,1.6,10.5
			c-3.6-2.1-6.4-7.5-11.8-9.4c12.8,12.3,21.3,22,17.6,30.1c13.6,10.8,25.5,20.2,2.8,23.3c-0.7,5.7,12.1,2.8,5.4,5.6
			c4.9,7.8,8.8,12.7,12.9,28.1c2.7-3.9-23.5-11.6-31-7.3c5.5,4.6-4.7-16.1-3.8-14.2c-1,3.9-3.3,19.4,0.5,22.4
			c5.2-2.5,14.9-9.4,23.4-0.1c-1.4,31,29.4,71.2,49.9,86.3c-6.4,1.6-11.6,0.1-17.6-1.2c-4,6.6,7.5,15.4,3.1,23.4
			c-1.7-3.6-1.8-10-7.6-12.9c-3.1,15.7-5.6,36.4,19.4,34.2c-2.7,6.3-15,5.8-19.1,3.2c4,11,10,21.4,13.7,32.6
			c-2.9-1.2-29.3-17.6-28.4-2.3c-0.6-1.8,8.3-1.2,8.8-0.5c-2.7,6.7-7.6,6.2,1.5,18.4c11-15.8,28.5-16.1,27.5,8.3
			c0.7-6,5.1-14.9,6.4-21.3c3.8,6.2,2.3,10.8,4.4,16.1c0.6-0.9,9.3,0.1,8.5-0.8c-4.5-4.1-5-7.3-1.5-9.6
			c14.5,25.8,24.1,0.9,39.8,18.7c29.7,33.6-10.3,30.5,38.5,34.2c0-0.1,3.3,20,8.2,10.7c-9.2-2-14.6-52.7-26.5-64.5
			c2.5-0.6,10.9,1.5,11.4-3.4c-6.6-2.5-7.4-1.8-6.9-6.3c5.1-1.5,11.5,0.1,8.9-7.8c-0.5-1.5-23.2-48.6-21.3-48.3
			c23.8,3.4,31.7,22.7,26.7,32.8c0,0,6.8,10.3,7.8,16.5c-1.5-0.7,26.2-8.3,31.2-8.9c4.6,2.6-34.1,24.2-14.1,29.9
			c11.3-27,23.3,9.6,18.3,28.9c1.3-0.7,4-4.7,4.8-4.2c3.3,5.3,0.7,20.9,1.6,28.1c-13.4-16.6,14.8,37,12.4,44.2
			c-0.8-0.6-6-4.2-4.8,0.5c-0.2-0.7,26.5,25.6,27.7,26.9c-1.5-0.3-15.6-6.7-15.6-6.9c0.7-1,5.3-1.8,5.4-1.6
			c-6.7-10.2-13.4-6.2-21.9-8.2c7.6,13.9,35.1,25.8,35.5,33.4c2.5,0.3,4.9-0.1,7.2-1.2c0.7-3.7-4.6-13.6-5.4-16.4
			C1394.8,601.8,1409,602.6,1417.9,611.6C1419.3,612.8,1416.6,610.3,1417.9,611.6z"/>
		<path id="path15" fill="#A9D278" d="M302.2,2150.6c-1.5,5.8-4.5-0.2-8.3-0.6C298.9,2144.3,314.3,2141.2,302.2,2150.6
			C301.8,2151.8,303,2149.9,302.2,2150.6z"/>
		<path id="path17" fill="#A9D278" d="M264.5,2172.6C264.4,2167.7,266.1,2171.9,264.5,2172.6
			C264.5,2172.6,264.9,2172.4,264.5,2172.6z"/>
		<path id="path19" fill="#A9D278" d="M254.8,2177.9C255.3,2176.7,258.9,2172.7,254.8,2177.9
			C254.8,2177.9,255.2,2177.4,254.8,2177.9z"/>
		<path id="path21" fill="#A9D278" d="M191.1,2218.6l-0.5,1.2l0-0.1C190.8,2219.6,183.5,2217.1,191.1,2218.6z"/>
		<path id="path23" fill="#A9D278" d="M150.1,2224C131.5,2229.5,149.2,2221.7,150.1,2224C150.1,2224,150.1,2223.8,150.1,2224z"/>
		<path id="path25" fill="#A9D278" d="M180,2151.2c-4.4,2.8-8.1-4.7-1.4-5.5c4.3-0.5,6.2,2.7,0.7,5.7L180,2151.2z"/>
		<path id="path27" fill="#A9D278" d="M223.6,2139c11.1,9.2,21.6,24.2,26.9,31.2c-23,6.2-17.7-9.1-32.2,11.5
			c-8.6-6.3,38.1,7.6,23.7,3.9c9.4,1.2,9-1.1,18,1.2c-4.4,6.5-5.6,3.8-9.1,7.8c2.7,2.5,8.5,2.4,8.4,6.6c-5.7,2.7-14.6-1.4-13.9,4.5
			c-22.9-2.2-66.2,5.9-76.8,18.4c3.1,2.2,12.4-2.1,15.3-2.3c0,3.7-29.2,30.4-13.6-8.9c8-12.2,23.9-104.3,54.7-72.5L223.6,2139z"/>
		<path id="path29" fill="#A9D278" d="M28.2,2359.9c-0.9,7.7,0.2,8-8.4,3.2c7.1-8.8,7.9-9.5,8.4-2.8L28.2,2359.9z"/>
		<path id="polygon31" fill="#A9D278" d="M13.1,2368.3C9.9,2365.7,14,2369,13.1,2368.3L13.1,2368.3z"/>
		<path id="path33" fill="#A9D278" d="M1810.3,2309.3C1800.4,2310,1814.7,2305.9,1810.3,2309.3
			C1809.1,2309.4,1810.8,2308.9,1810.3,2309.3z"/>
		<path id="path35" fill="#A9D278" d="M1802.2,2308.9C1800.2,2309.8,1798.8,2306.7,1802.2,2308.9
			C1801.6,2309.2,1802.2,2308.9,1802.2,2308.9z"/>
		<path id="path37" fill="#A9D278" d="M1792.6,2308C1793.7,2306,1796,2307.6,1792.6,2308C1792.6,2308,1793.1,2308,1792.6,2308z"/>
		<path id="path39" fill="#A9D278" d="M1793.6,2301.9c-4.8,1.8-4.5-1.6-0.3,0.1L1793.6,2301.9z"/>
		<path id="path41" fill="#A9D278" d="M31.6,2037.3c4.8-2.5,3.3,3.6-2.5,4.1C29.6,2039.8,30.5,2038.5,31.6,2037.3
			C32.7,2036.7,31.3,2037.6,31.6,2037.3z"/>
		<path id="path43" fill="#A9D278" d="M17.4,2026.7C23.5,2019.7,15.1,2034.1,17.4,2026.7C17.9,2026.2,17.4,2027,17.4,2026.7z"/>
		<path id="path45" fill="#A9D278" d="M20.8,2020.2C22.2,2024.1,20.3,2023.3,20.8,2020.2C20.8,2020.2,20.7,2020.6,20.8,2020.2z"/>
		<path id="path47" fill="#A9D278" d="M23.6,2014.1c3.7-1.3,0,1.4,0.2,4C19.5,2017.2,23.1,2015.4,23.6,2014.1z"/>
		<path id="path49" fill="#A9D278" d="M69.6,1971C58.3,1973.1,56.8,1973.4,69.6,1971L69.6,1971z"/>
		<path id="path51" fill="#A9D278" d="M50.4,1976.1c-3.5,0.1-10.1,4.9-15.1,2.5c2.3-1.6,22.6-6.9,14.9-2.1L50.4,1976.1z"/>
		<path id="path53" fill="#A9D278" d="M24.4,1974.6c-2.7,1.2-5.6,1.5-8.7,0.7C17.6,1972.2,23.9,1971.7,24.4,1974.6z"/>
		<path id="path55" fill="#A9D278" d="M43.6,1953.4c16.2,24.7-8.3,12.7-14.8,5.6c-6.1-4.7-10.5,12.9-17.4,10.7
			c-1-12.9,27.3-24.5,32.8-15.1L43.6,1953.4z"/>
		<path id="path57" fill="#A9D278" d="M35.3,1945.2C27.2,1950.2,40.9,1938.5,35.3,1945.2C34.8,1945.5,35.7,1944.7,35.3,1945.2z"/>
		<path id="path59" fill="#A9D278" d="M77.5,1874.5c3.4,7.1,4.5,15.8,8.4,23.5C64.9,1892.7,64.4,1885.7,77.5,1874.5z"/>
		<path id="path61" fill="#A9D278" d="M954.8,1215.2c-18.2-3,17.1-0.3-3-0.3L954.8,1215.2z"/>
		<path id="path63" fill="#A9D278" d="M1045.1,1149.3c2.7-3.1-4.2-4.2-3.4-9.5c4.2-2.2,5.3,6.8,9.6,5.1c-0.6-2.9-9.5-16.1-1.8-20.2
			c7.2-2.2,4.2,0.9,7.7,8.1c1.9-1.5,6.2-0.8,7.7-4.1c-5.8,0.6-0.1-7.7,2.6-12.3c3.3,26.4-20.5,26.9-24.5,34.6l-0.5,0.9
			C1043,1150.8,1044.1,1149.9,1045.1,1149.3C1045.9,1148.4,1044.1,1149.9,1045.1,1149.3z"/>
		<path id="path65" fill="#A9D278" d="M1056.9,1170.5C1068,1171.3,1057,1172,1056.9,1170.5C1056.9,1170.5,1057,1171,1056.9,1170.5z"
			/>
		<path id="path67" fill="#A9D278" d="M1070.5,1128.7C1074.2,1125.3,1068.6,1130.4,1070.5,1128.7L1070.5,1128.7z"/>
		<path id="path69" fill="#A9D278" d="M1084.2,1149.6c3.5-2.4,7.9-5.5,0-0.2V1149.6z"/>
		<path id="path71" fill="#A9D278" d="M1082.3,1162.5C1088.6,1151,1083.4,1160.6,1082.3,1162.5L1082.3,1162.5z"/>
		<path id="path73" fill="#A9D278" d="M1108,1197.2c3.8-7.3,3-1.2,0.2,1.4c-0.5-1.1,0.2-2.1,0.1-2.5L1108,1197.2z"/>
		<path id="path75" fill="#A9D278" d="M1099.9,1206.2c5.8-1.8,26-11.1,26.5-15.1c-0.7,0.5-5.8-1.4-6.9-2.7c1.4-0.7,8.8-4.7,10.6-4.2
			c-4.6,23.8-23.4,13.4-27.6,20.3L1099.9,1206.2z"/>
		<path id="path77" fill="#A9D278" d="M1196.9,1142.9c0.6-1.3,8.3-14,10.2-6.5c-1.9,2.8-14.3,11.2-9.7,6.2L1196.9,1142.9z"/>
		<path id="polygon79" fill="#A9D278" d="M943.8,1521.1C947.2,1520.8,945.1,1521,943.8,1521.1L943.8,1521.1z"/>
		<path id="path81" fill="#A9D278" d="M1494.3,633.7C1497.4,632.3,1501.9,630.4,1494.3,633.7L1494.3,633.7z"/>
		<path id="path83" fill="#A9D278" d="M1528,572.6C1528.1,572.5,1530.3,569,1528,572.6L1528,572.6z"/>
		<path id="path85" fill="#A9D278" d="M1418.3,593.9C1422.7,581.9,1416.2,596.7,1418.3,593.9
			C1418.6,593.3,1418.3,593.9,1418.3,593.9z"/>
		<path id="path87" fill="#A9D278" d="M1396.2,536.4C1395.1,534.6,1400.3,527,1396.2,536.4C1395.8,535.7,1396.2,536.4,1396.2,536.4z
			"/>
		<path id="path89" fill="#A9D278" d="M1350.6,494.5c-1.1-3.2,3.3-4.7-0.2-1.3L1350.6,494.5z"/>
		<path id="path91" fill="#A9D278" d="M1348.7,426.6c2.4-0.3,2.9,1.9-0.2,0.9v0.1C1348.5,427.3,1348.6,426.8,1348.7,426.6
			C1349.4,426.5,1348.6,426.8,1348.7,426.6z"/>
		<path id="path93" fill="#A9D278" d="M1331,427.9c-0.4-2.3-9.8-6.2-2.7-8.5c1.8,1.3,11.4,11.7,2.2,8.7L1331,427.9z"/>
		<path id="path95" fill="#A9D278" d="M1331.5,394.6c-11.5-1.8,4.6,1.2-0.5-0.1L1331.5,394.6z"/>
		<path id="path97" fill="#A9D278" d="M1287.3,337.1C1291.4,338.9,1286.9,337.7,1287.3,337.1
			C1287.3,337.1,1287.2,337.3,1287.3,337.1z"/>
		<path id="path99" fill="#A9D278" d="M1290,375c-6.7-1.1-19.1-17.7-28.4-24.8c1,0.9,4.6,4,4.6,4.3c4.6-10,0.9-9.8-4.1-14.8
			c-0.6,1.2,7.7-13.4,6-12.2c3.1-2.1,17.4,14.8,22.3,18.4c-1.3,5.5,2.8,30.3-0.7,28.8L1290,375z"/>
		<path id="path101" fill="#A9D278" d="M1229.8,354.1c-7.7,0,0-8.3,3-9.6C1243.4,354.7,1232.4,349.9,1229.8,354.1z"/>
		<path id="path103" fill="#A9D278" d="M1244.1,467c-12.4-13.4,6.6,7.1-0.3-0.6L1244.1,467z"/>
		<path id="path105" fill="#A9D278" d="M1239.5,456.7c-8.4-0.6-16.8-3.5-22.7-4.2c-1.9-1.7-0.1-5,0.8-6.7c6.5-2,17.5-5.6,25.3-6.5
			C1244.2,444.7,1242.7,449.8,1239.5,456.7z"/>
		<path id="path107" fill="#A9D278" d="M1203.4,444.8C1201.4,437.6,1213.4,454.1,1203.4,444.8
			C1203.1,443.6,1203.4,444.8,1203.4,444.8z"/>
		<path id="path109" fill="#A9D278" d="M1196.9,449.8C1195.5,448.3,1203.5,443.1,1196.9,449.8
			C1196.4,449.2,1196.9,449.8,1196.9,449.8z"/>
		<path id="path111" fill="#A9D278" d="M1202.2,417.7C1203.9,422.1,1201,419.8,1202.2,417.7C1202.2,417.7,1201.6,418.7,1202.2,417.7
			z"/>
		<path id="path113" fill="#A9D278" d="M1195.9,389.4c1.2-10.8,6.7-7.3,6.4,2.8C1200,392.3,1187.8,396.8,1195.9,389.4
			C1195.9,388.7,1195,390.2,1195.9,389.4z"/>
		<path id="path115" fill="#A9D278" d="M1176.9,309.2C1178.1,309.5,1187.7,310.1,1176.9,309.2
			C1176.9,309.2,1177.5,309.3,1176.9,309.2z"/>
		<path id="path117" fill="#A9D278" d="M1110.1,185.1c-1.3-2.6,2-2.1-0.6-0.9L1110.1,185.1z"/>
		<path id="polygon119" fill="#A9D278" d="M1104.6,185.6c1-1.5,0.3-1.3-0.8-0.9L1104.6,185.6z"/>
		<path id="path121" fill="#A9D278" d="M1100.3,186.8c1.3-0.9-0.6,1.1-1.5,0C1099.8,187.3,1100.3,187.3,1100.3,186.8z"/>
		<path id="path123" fill="#A9D278" d="M1069.4,148c-2.8,0.3,0.6-7.5-1.8-0.5L1069.4,148z"/>
		<path id="path125" fill="#A9D278" d="M810.8,5.3C806.1-5,824.7,4.1,810.8,5.3C810.2,4,811,5.2,810.8,5.3z"/>
	</g>
	<g>
		<polygon fill="#414042" points="1277.9,528.5 1261.7,579 1245.5,528.5 		"/>
		<g>
			<g>
				<g>
					<g>
						<path fill="#F6C6A7" d="M1261.7,531.8c-23.2,0-42.1-18.8-42.1-42.1v-19.9c0-23.2,18.8-42.1,42.1-42.1s42.1,18.8,42.1,42.1
							v19.9C1303.8,513,1284.9,531.8,1261.7,531.8z"/>
					</g>
					<circle fill="#754E2C" cx="1244.6" cy="459.2" r="2"/>
					<circle fill="#754E2C" cx="1276.8" cy="459.2" r="2"/>
					<path fill="#A47B53" d="M1268.9,474.2L1268.9,474.2c-4.5,2.6-9.9,2.6-14.3,0l-0.1,0h-10.3c-5.5,0-10,4.5-10,10v17
						c0,7.9,6.4,14.3,14.3,14.3h26.3c7.9,0,14.3-6.4,14.3-14.3v-17c0-5.5-4.5-10-10-10H1268.9z M1273.5,503.2h-1.1
						c-3.5,0-7-0.8-9.8-2.3l-0.9-0.5l-0.9,0.5c-2.8,1.5-6.3,2.3-9.8,2.3h-1.1c-6.1,0-11-3.4-11-7.7v-0.7c0-4.5,5.2-8.2,11.7-8.2
						h22.2c6.4,0,11.7,3.7,11.7,8.2v0.7C1284.4,499.7,1279.5,503.2,1273.5,503.2z"/>
				</g>
			</g>
		</g>
	</g>
	<g>
		<polygon fill="#414042" points="1428.6,1055.3 1412.4,1105.8 1396.2,1055.3 		"/>
		<g>
			<g>
				<g>
					<g>
						<path fill="#F6C6A7" d="M1412.4,1058.6c-23.2,0-42.1-18.8-42.1-42.1v-19.9c0-23.2,18.8-42.1,42.1-42.1s42.1,18.8,42.1,42.1
							v19.9C1454.5,1039.8,1435.7,1058.6,1412.4,1058.6z"/>
					</g>
					<circle fill="#754E2C" cx="1395.3" cy="986" r="2"/>
					<circle fill="#754E2C" cx="1427.5" cy="986" r="2"/>
					<path fill="#A47B53" d="M1419.6,1001L1419.6,1001c-4.5,2.6-9.9,2.6-14.3,0l-0.1,0h-10.3c-5.5,0-10,4.5-10,10v17
						c0,7.9,6.4,14.3,14.3,14.3h26.3c7.9,0,14.3-6.4,14.3-14.3v-17c0-5.5-4.5-10-10-10H1419.6z M1424.2,1030h-1.1
						c-3.5,0-7-0.8-9.8-2.3l-0.9-0.5l-0.9,0.5c-2.8,1.5-6.3,2.3-9.8,2.3h-1.1c-6.1,0-11-3.4-11-7.7v-0.7c0-4.5,5.2-8.2,11.7-8.2
						h22.2c6.4,0,11.7,3.7,11.7,8.2v0.7C1435.2,1026.5,1430.3,1030,1424.2,1030z"/>
				</g>
			</g>
		</g>
	</g>
	<g>
		<polygon fill="#414042" points="931.8,1344.1 915.6,1394.6 899.3,1344.1 		"/>
		<g>
			<g>
				<g>
					<g>
						<path fill="#F6C6A7" d="M915.6,1347.4c-23.2,0-42.1-18.8-42.1-42.1v-19.9c0-23.2,18.8-42.1,42.1-42.1
							c23.2,0,42.1,18.8,42.1,42.1v19.9C957.6,1328.6,938.8,1347.4,915.6,1347.4z"/>
					</g>
					<circle fill="#754E2C" cx="898.4" cy="1274.8" r="2"/>
					<circle fill="#754E2C" cx="930.6" cy="1274.8" r="2"/>
					<path fill="#A47B53" d="M922.8,1289.8L922.8,1289.8c-4.5,2.6-9.9,2.6-14.3,0l-0.1,0H898c-5.5,0-10,4.5-10,10v17
						c0,7.9,6.4,14.3,14.3,14.3h26.3c7.9,0,14.3-6.4,14.3-14.3v-17c0-5.5-4.5-10-10-10H922.8z M927.4,1318.8h-1.1
						c-3.5,0-7-0.8-9.8-2.3l-0.9-0.5l-0.9,0.5c-2.8,1.5-6.3,2.3-9.8,2.3h-1.1c-6.1,0-11-3.4-11-7.7v-0.7c0-4.5,5.2-8.2,11.7-8.2
						h22.2c6.4,0,11.7,3.7,11.7,8.2v0.7C938.3,1315.3,933.4,1318.8,927.4,1318.8z"/>
				</g>
			</g>
		</g>
	</g>
	<g>
		<polygon fill="#414042" points="1456.1,614.3 1439.9,664.7 1423.7,614.3 		"/>
		<g>
			<g>
				<g>
					<g>
						<path fill="#F6C6A7" d="M1439.9,617.6c-23.2,0-42.1-18.8-42.1-42.1v-19.9c0-23.2,18.8-42.1,42.1-42.1s42.1,18.8,42.1,42.1
							v19.9C1482,598.8,1463.1,617.6,1439.9,617.6z"/>
					</g>
					<circle fill="#754E2C" cx="1422.8" cy="545" r="2"/>
					<circle fill="#754E2C" cx="1455" cy="545" r="2"/>
					<path fill="#A47B53" d="M1447.1,560L1447.1,560c-4.5,2.6-9.9,2.6-14.3,0l-0.1,0h-10.3c-5.5,0-10,4.5-10,10v17
						c0,7.9,6.4,14.3,14.3,14.3h26.3c7.9,0,14.3-6.4,14.3-14.3v-17c0-5.5-4.5-10-10-10H1447.1z M1451.7,589h-1.1
						c-3.5,0-7-0.8-9.8-2.3l-0.9-0.5l-0.9,0.5c-2.8,1.5-6.3,2.3-9.8,2.3h-1.1c-6.1,0-11-3.4-11-7.7v-0.7c0-4.5,5.2-8.2,11.7-8.2
						h22.2c6.4,0,11.7,3.7,11.7,8.2v0.7C1462.7,585.5,1457.8,589,1451.7,589z"/>
				</g>
			</g>
		</g>
	</g>
	<g>
		<polygon fill="#414042" points="1178,349.5 1161.8,399.9 1145.6,349.5 		"/>
		<g>
			<g>
				<g>
					<g>
						<g>
							<rect x="1122.5" y="304.8" fill="#A47B53" width="78.5" height="46.9"/>
							<path fill="#F6C6A7" d="M1191.3,344.7c-15.1,19-43.9,19-59,0c-5.6-7.1-9.8-14-9.8-19.2v-26.9c0-21.5,17.1-39.5,38.6-39.9
								c22-0.4,39.9,17.3,39.9,39.3v27.5C1201,330.7,1196.9,337.7,1191.3,344.7z"/>
							<g>
								<defs>
									<path id="SVGID_9_" d="M1161.8,362.8c-21.7,0-39.3-17.6-39.3-39.3V298c0-21.7,17.6-39.3,39.3-39.3s39.3,17.6,39.3,39.3"/>
								</defs>
								<clipPath id="SVGID_45_">
									<use xlink:href="#SVGID_9_"  overflow="visible"/>
								</clipPath>
								<g clip-path="url(#SVGID_45_)">
									<defs>
										<path id="SVGID_11_" d="M1122.5,288.6c15.4,0,61.4-28.2,61.4-56.6s-37.3-9-37.3-9l-35.2,40.5L1122.5,288.6z"/>
									</defs>
									<use xlink:href="#SVGID_11_"  overflow="visible" fill="#A47B53"/>
									<clipPath id="SVGID_46_">
										<use xlink:href="#SVGID_11_"  overflow="visible"/>
									</clipPath>
									<path clip-path="url(#SVGID_46_)" fill="#A47B53" d="M1161.8,357.1c-21.7,0-39.3-17.6-39.3-39.3v-25.6
										c0-21.7,17.6-39.3,39.3-39.3s39.3,17.6,39.3,39.3v25.6C1201,339.6,1183.5,357.1,1161.8,357.1z"/>
								</g>
								<g clip-path="url(#SVGID_45_)">
									<g opacity="0.1">
										<path fill="#010101" d="M1198.4,292.4c-24.5,0-63.3-16.6-63.3-71.9s63.3,14.8,63.3,14.8V292.4z"/>
									</g>
									<g>
										<path fill="#A47B53" d="M1201,292.4c-24.5,0-63.3-16.6-63.3-71.9s63.3,14.8,63.3,14.8V292.4z"/>
									</g>
								</g>
							</g>
							<g>
								<circle fill="#A47B53" cx="1146.1" cy="303.5" r="1.7"/>
								<circle fill="#A47B53" cx="1177.5" cy="303.5" r="1.7"/>
							</g>
							<circle fill="#F6C6A7" cx="1201" cy="302.9" r="6.4"/>
							<circle fill="#F6C6A7" cx="1122.5" cy="302.9" r="6.4"/>
						</g>
					</g>
				</g>
				<path fill="#424244" d="M1177.5,291.3c-6.3,0-11.5,4.8-12.1,11h-7.1c-0.6-6.2-5.8-11-12.1-11c-6.7,0-12.2,5.5-12.2,12.2
					s5.5,12.2,12.2,12.2c6.3,0,11.5-4.8,12.1-11h7.1c0.6,6.2,5.8,11,12.1,11c6.7,0,12.2-5.5,12.2-12.2S1184.2,291.3,1177.5,291.3z
					 M1146.1,313.2c-5.3,0-9.7-4.3-9.7-9.7s4.3-9.7,9.7-9.7c5.3,0,9.7,4.3,9.7,9.7S1151.4,313.2,1146.1,313.2z M1177.5,313.2
					c-5.3,0-9.7-4.3-9.7-9.7s4.3-9.7,9.7-9.7c5.3,0,9.7,4.3,9.7,9.7S1182.8,313.2,1177.5,313.2z"/>
			</g>
		</g>
	</g>
	<g>
		<polygon fill="#414042" points="1308.9,1120.9 1292.7,1171.4 1276.5,1120.9 		"/>
		<g>
			<g>
				<g>
					<g>
						<g>
							<rect x="1253.4" y="1076.2" fill="#A47B53" width="78.5" height="46.9"/>
							<path fill="#F6C6A7" d="M1322.2,1116.2c-15.1,19-43.9,19-59,0c-5.6-7.1-9.8-14-9.8-19.2v-26.9c0-21.5,17.1-39.5,38.6-39.9
								c22-0.4,39.9,17.3,39.9,39.3v27.5C1332,1102.1,1327.8,1109.1,1322.2,1116.2z"/>
							<g>
								<defs>
									<path id="SVGID_10_" d="M1292.7,1134.2c-21.7,0-39.3-17.6-39.3-39.3v-25.6c0-21.7,17.6-39.3,39.3-39.3s39.3,17.6,39.3,39.3
										"/>
								</defs>
								<clipPath id="SVGID_47_">
									<use xlink:href="#SVGID_10_"  overflow="visible"/>
								</clipPath>
								<g clip-path="url(#SVGID_47_)">
									<defs>
										<path id="SVGID_12_" d="M1253.4,1060.1c15.4,0,61.4-28.2,61.4-56.6s-37.3-9-37.3-9l-35.2,40.5L1253.4,1060.1z"/>
									</defs>
									<use xlink:href="#SVGID_12_"  overflow="visible" fill="#A47B53"/>
									<clipPath id="SVGID_48_">
										<use xlink:href="#SVGID_12_"  overflow="visible"/>
									</clipPath>
									<path clip-path="url(#SVGID_48_)" fill="#A47B53" d="M1292.7,1128.6c-21.7,0-39.3-17.6-39.3-39.3v-25.6
										c0-21.7,17.6-39.3,39.3-39.3s39.3,17.6,39.3,39.3v25.6C1332,1111,1314.4,1128.6,1292.7,1128.6z"/>
								</g>
								<g clip-path="url(#SVGID_47_)">
									<g opacity="0.1">
										<path fill="#010101" d="M1329.3,1063.9c-24.5,0-63.3-16.6-63.3-71.9c0-55.3,63.3,14.8,63.3,14.8V1063.9z"/>
									</g>
									<g>
										<path fill="#A47B53" d="M1332,1063.9c-24.5,0-63.3-16.6-63.3-71.9c0-55.3,63.3,14.8,63.3,14.8V1063.9z"/>
									</g>
								</g>
							</g>
							<g>
								<circle fill="#A47B53" cx="1277" cy="1075" r="1.7"/>
								<circle fill="#A47B53" cx="1308.4" cy="1075" r="1.7"/>
							</g>
							<circle fill="#F6C6A7" cx="1332" cy="1074.3" r="6.4"/>
							<circle fill="#F6C6A7" cx="1253.4" cy="1074.3" r="6.4"/>
						</g>
					</g>
				</g>
				<path fill="#424244" d="M1308.4,1062.8c-6.3,0-11.5,4.8-12.1,11h-7.1c-0.6-6.2-5.8-11-12.1-11c-6.7,0-12.2,5.5-12.2,12.2
					s5.5,12.2,12.2,12.2c6.3,0,11.5-4.8,12.1-11h7.1c0.6,6.2,5.8,11,12.1,11c6.7,0,12.2-5.5,12.2-12.2S1315.1,1062.8,1308.4,1062.8z
					 M1277,1084.7c-5.3,0-9.7-4.3-9.7-9.7c0-5.3,4.3-9.7,9.7-9.7c5.3,0,9.7,4.3,9.7,9.7C1286.7,1080.3,1282.3,1084.7,1277,1084.7z
					 M1308.4,1084.7c-5.3,0-9.7-4.3-9.7-9.7c0-5.3,4.3-9.7,9.7-9.7c5.3,0,9.7,4.3,9.7,9.7
					C1318.1,1080.3,1313.7,1084.7,1308.4,1084.7z"/>
			</g>
		</g>
	</g>
	<g>
		<polygon fill="#414042" points="1212.9,739.7 1196.6,790.2 1180.4,739.7 		"/>
		<g>
			<g>
				<g>
					<g>
						<g>
							<rect x="1157.4" y="695" fill="#A47B53" width="78.5" height="46.9"/>
							<path fill="#F6C6A7" d="M1226.1,735c-15.1,19-43.9,19-59,0c-5.6-7.1-9.8-14-9.8-19.2v-26.9c0-21.5,17.1-39.5,38.6-39.9
								c22-0.4,39.9,17.3,39.9,39.3v27.5C1235.9,720.9,1231.8,727.9,1226.1,735z"/>
							<g>
								<defs>
									<path id="SVGID_1_" d="M1196.6,753c-21.7,0-39.3-17.6-39.3-39.3v-25.6c0-21.7,17.6-39.3,39.3-39.3s39.3,17.6,39.3,39.3"/>
								</defs>
								<clipPath id="SVGID_49_">
									<use xlink:href="#SVGID_1_"  overflow="visible"/>
								</clipPath>
								<g clip-path="url(#SVGID_49_)">
									<defs>
										<path id="SVGID_2_" d="M1157.4,678.9c15.4,0,61.4-28.2,61.4-56.6s-37.3-9-37.3-9l-35.2,40.5L1157.4,678.9z"/>
									</defs>
									<use xlink:href="#SVGID_2_"  overflow="visible" fill="#A47B53"/>
									<clipPath id="SVGID_50_">
										<use xlink:href="#SVGID_2_"  overflow="visible"/>
									</clipPath>
									<path clip-path="url(#SVGID_50_)" fill="#A47B53" d="M1196.6,747.4c-21.7,0-39.3-17.6-39.3-39.3v-25.6
										c0-21.7,17.6-39.3,39.3-39.3s39.3,17.6,39.3,39.3v25.6C1235.9,729.8,1218.3,747.4,1196.6,747.4z"/>
								</g>
								<g clip-path="url(#SVGID_49_)">
									<g opacity="0.1">
										<path fill="#010101" d="M1233.3,682.7c-24.5,0-63.3-16.6-63.3-71.9c0-55.3,63.3,14.8,63.3,14.8V682.7z"/>
									</g>
									<g>
										<path fill="#A47B53" d="M1235.9,682.7c-24.5,0-63.3-16.6-63.3-71.9c0-55.3,63.3,14.8,63.3,14.8V682.7z"/>
									</g>
								</g>
							</g>
							<g>
								<circle fill="#A47B53" cx="1180.9" cy="693.8" r="1.7"/>
								<circle fill="#A47B53" cx="1212.3" cy="693.8" r="1.7"/>
							</g>
							<circle fill="#F6C6A7" cx="1235.9" cy="693.1" r="6.4"/>
							<circle fill="#F6C6A7" cx="1157.4" cy="693.1" r="6.4"/>
						</g>
					</g>
				</g>
				<path fill="#424244" d="M1212.3,681.6c-6.3,0-11.5,4.8-12.1,11h-7.1c-0.6-6.2-5.8-11-12.1-11c-6.7,0-12.2,5.5-12.2,12.2
					c0,6.7,5.5,12.2,12.2,12.2c6.3,0,11.5-4.8,12.1-11h7.1c0.6,6.2,5.8,11,12.1,11c6.7,0,12.2-5.5,12.2-12.2
					C1224.6,687.1,1219.1,681.6,1212.3,681.6z M1180.9,703.5c-5.3,0-9.7-4.3-9.7-9.7s4.3-9.7,9.7-9.7c5.3,0,9.7,4.3,9.7,9.7
					S1186.3,703.5,1180.9,703.5z M1212.3,703.5c-5.3,0-9.7-4.3-9.7-9.7s4.3-9.7,9.7-9.7c5.3,0,9.7,4.3,9.7,9.7
					S1217.7,703.5,1212.3,703.5z"/>
			</g>
		</g>
	</g>
	<g>
		<polygon fill="#414042" points="1498.2,755.7 1482,806.2 1465.8,755.7 		"/>
		<g>
			<g>
				<g>
					<g>
						<g>
							<rect x="1442.7" y="711" fill="#A47B53" width="78.5" height="46.9"/>
							<path fill="#F6C6A7" d="M1511.5,751c-15.1,19-43.9,19-59,0c-5.6-7.1-9.8-14-9.8-19.2v-26.9c0-21.5,17.1-39.5,38.6-39.9
								c22-0.4,39.9,17.3,39.9,39.3v27.5C1521.2,737,1517.1,743.9,1511.5,751z"/>
							<g>
								<defs>
									<path id="SVGID_37_" d="M1482,769.1c-21.7,0-39.3-17.6-39.3-39.3v-25.6c0-21.7,17.6-39.3,39.3-39.3s39.3,17.6,39.3,39.3"/>
								</defs>
								<clipPath id="SVGID_51_">
									<use xlink:href="#SVGID_37_"  overflow="visible"/>
								</clipPath>
								<g clip-path="url(#SVGID_51_)">
									<defs>
										<path id="SVGID_38_" d="M1442.7,694.9c15.4,0,61.4-28.2,61.4-56.6c0-28.4-37.3-9-37.3-9l-35.2,40.5L1442.7,694.9z"/>
									</defs>
									<use xlink:href="#SVGID_38_"  overflow="visible" fill="#A47B53"/>
									<clipPath id="SVGID_53_">
										<use xlink:href="#SVGID_38_"  overflow="visible"/>
									</clipPath>
									<path clip-path="url(#SVGID_53_)" fill="#A47B53" d="M1482,763.4c-21.7,0-39.3-17.6-39.3-39.3v-25.6
										c0-21.7,17.6-39.3,39.3-39.3s39.3,17.6,39.3,39.3v25.6C1521.2,745.8,1503.7,763.4,1482,763.4z"/>
								</g>
								<g clip-path="url(#SVGID_51_)">
									<g opacity="0.1">
										<path fill="#010101" d="M1518.6,698.7c-24.5,0-63.3-16.6-63.3-71.9c0-55.3,63.3,14.8,63.3,14.8V698.7z"/>
									</g>
									<g>
										<path fill="#A47B53" d="M1521.2,698.7c-24.5,0-63.3-16.6-63.3-71.9c0-55.3,63.3,14.8,63.3,14.8V698.7z"/>
									</g>
								</g>
							</g>
							<g>
								<circle fill="#A47B53" cx="1466.3" cy="709.8" r="1.7"/>
								<circle fill="#A47B53" cx="1497.7" cy="709.8" r="1.7"/>
							</g>
							<circle fill="#F6C6A7" cx="1521.2" cy="709.2" r="6.4"/>
							<circle fill="#F6C6A7" cx="1442.7" cy="709.2" r="6.4"/>
						</g>
					</g>
				</g>
				<path fill="#424244" d="M1497.7,697.6c-6.3,0-11.5,4.8-12.1,11h-7.1c-0.6-6.2-5.8-11-12.1-11c-6.7,0-12.2,5.5-12.2,12.2
					c0,6.7,5.5,12.2,12.2,12.2c6.3,0,11.5-4.8,12.1-11h7.1c0.6,6.2,5.8,11,12.1,11c6.7,0,12.2-5.5,12.2-12.2
					C1509.9,703.1,1504.4,697.6,1497.7,697.6z M1466.3,719.5c-5.3,0-9.7-4.3-9.7-9.7s4.3-9.7,9.7-9.7c5.3,0,9.7,4.3,9.7,9.7
					S1471.6,719.5,1466.3,719.5z M1497.7,719.5c-5.3,0-9.7-4.3-9.7-9.7s4.3-9.7,9.7-9.7c5.3,0,9.7,4.3,9.7,9.7
					S1503,719.5,1497.7,719.5z"/>
			</g>
		</g>
	</g>
	<g>
		<polygon fill="#414042" points="1178,895.6 1161.8,946.1 1145.6,895.6 		"/>
		<g>
			<g>
				<g>
					<g>
						<g>
							<rect x="1122.5" y="850.9" fill="#A47B53" width="78.5" height="46.9"/>
							<path fill="#F6C6A7" d="M1191.3,890.9c-15.1,19-43.9,19-59,0c-5.6-7.1-9.8-14-9.8-19.2v-26.9c0-21.5,17.1-39.5,38.6-39.9
								c22-0.4,39.9,17.3,39.9,39.3v27.5C1201,876.8,1196.9,883.8,1191.3,890.9z"/>
							<g>
								<defs>
									<path id="SVGID_14_" d="M1161.8,908.9c-21.7,0-39.3-17.6-39.3-39.3v-25.6c0-21.7,17.6-39.3,39.3-39.3s39.3,17.6,39.3,39.3"
										/>
								</defs>
								<clipPath id="SVGID_54_">
									<use xlink:href="#SVGID_14_"  overflow="visible"/>
								</clipPath>
								<g clip-path="url(#SVGID_54_)">
									<defs>
										<path id="SVGID_16_" d="M1122.5,834.8c15.4,0,61.4-28.2,61.4-56.6c0-28.4-37.3-9-37.3-9l-35.2,40.5L1122.5,834.8z"/>
									</defs>
									<use xlink:href="#SVGID_16_"  overflow="visible" fill="#A47B53"/>
									<clipPath id="SVGID_55_">
										<use xlink:href="#SVGID_16_"  overflow="visible"/>
									</clipPath>
									<path clip-path="url(#SVGID_55_)" fill="#A47B53" d="M1161.8,903.3c-21.7,0-39.3-17.6-39.3-39.3v-25.6
										c0-21.7,17.6-39.3,39.3-39.3s39.3,17.6,39.3,39.3V864C1201,885.7,1183.5,903.3,1161.8,903.3z"/>
								</g>
								<g clip-path="url(#SVGID_54_)">
									<g opacity="0.1">
										<path fill="#010101" d="M1198.4,838.6c-24.5,0-63.3-16.6-63.3-71.9s63.3,14.8,63.3,14.8V838.6z"/>
									</g>
									<g>
										<path fill="#A47B53" d="M1201,838.6c-24.5,0-63.3-16.6-63.3-71.9s63.3,14.8,63.3,14.8V838.6z"/>
									</g>
								</g>
							</g>
							<g>
								<circle fill="#A47B53" cx="1146.1" cy="849.7" r="1.7"/>
								<circle fill="#A47B53" cx="1177.5" cy="849.7" r="1.7"/>
							</g>
							<circle fill="#F6C6A7" cx="1201" cy="849" r="6.4"/>
							<circle fill="#F6C6A7" cx="1122.5" cy="849" r="6.4"/>
						</g>
					</g>
				</g>
				<path fill="#424244" d="M1177.5,837.5c-6.3,0-11.5,4.8-12.1,11h-7.1c-0.6-6.2-5.8-11-12.1-11c-6.7,0-12.2,5.5-12.2,12.2
					c0,6.7,5.5,12.2,12.2,12.2c6.3,0,11.5-4.8,12.1-11h7.1c0.6,6.2,5.8,11,12.1,11c6.7,0,12.2-5.5,12.2-12.2
					C1189.7,843,1184.2,837.5,1177.5,837.5z M1146.1,859.4c-5.3,0-9.7-4.3-9.7-9.7s4.3-9.7,9.7-9.7c5.3,0,9.7,4.3,9.7,9.7
					S1151.4,859.4,1146.1,859.4z M1177.5,859.4c-5.3,0-9.7-4.3-9.7-9.7s4.3-9.7,9.7-9.7c5.3,0,9.7,4.3,9.7,9.7
					S1182.8,859.4,1177.5,859.4z"/>
			</g>
		</g>
	</g>
	<g>
		<polygon fill="#414042" points="903.9,1182.6 887.7,1233.1 871.4,1182.6 		"/>
		<g>
			<g>
				<g>
					<g>
						<g>
							<rect x="848.4" y="1137.9" fill="#A47B53" width="78.5" height="46.9"/>
							<path fill="#F6C6A7" d="M917.2,1177.9c-15.1,19-43.9,19-59,0c-5.6-7.1-9.8-14-9.8-19.2v-26.9c0-21.5,17.1-39.5,38.6-39.9
								c22-0.4,39.9,17.3,39.9,39.3v27.5C926.9,1163.9,922.8,1170.8,917.2,1177.9z"/>
							<g>
								<defs>
									<path id="SVGID_18_" d="M887.7,1196c-21.7,0-39.3-17.6-39.3-39.3v-25.6c0-21.7,17.6-39.3,39.3-39.3s39.3,17.6,39.3,39.3"/>
								</defs>
								<clipPath id="SVGID_56_">
									<use xlink:href="#SVGID_18_"  overflow="visible"/>
								</clipPath>
								<g clip-path="url(#SVGID_56_)">
									<defs>
										<path id="SVGID_20_" d="M848.4,1121.8c15.4,0,61.4-28.2,61.4-56.6c0-28.4-37.3-9-37.3-9l-35.2,40.5L848.4,1121.8z"/>
									</defs>
									<use xlink:href="#SVGID_20_"  overflow="visible" fill="#A47B53"/>
									<clipPath id="SVGID_57_">
										<use xlink:href="#SVGID_20_"  overflow="visible"/>
									</clipPath>
									<path clip-path="url(#SVGID_57_)" fill="#A47B53" d="M887.7,1190.3c-21.7,0-39.3-17.6-39.3-39.3v-25.6
										c0-21.7,17.6-39.3,39.3-39.3s39.3,17.6,39.3,39.3v25.6C926.9,1172.7,909.3,1190.3,887.7,1190.3z"/>
								</g>
								<g clip-path="url(#SVGID_56_)">
									<g opacity="0.1">
										<path fill="#010101" d="M924.3,1125.6c-24.5,0-63.3-16.6-63.3-71.9s63.3,14.8,63.3,14.8V1125.6z"/>
									</g>
									<g>
										<path fill="#A47B53" d="M926.9,1125.6c-24.5,0-63.3-16.6-63.3-71.9s63.3,14.8,63.3,14.8V1125.6z"/>
									</g>
								</g>
							</g>
							<g>
								<circle fill="#A47B53" cx="872" cy="1136.7" r="1.7"/>
								<circle fill="#A47B53" cx="903.4" cy="1136.7" r="1.7"/>
							</g>
							<circle fill="#F6C6A7" cx="926.9" cy="1136" r="6.4"/>
							<circle fill="#F6C6A7" cx="848.4" cy="1136" r="6.4"/>
						</g>
					</g>
				</g>
				<path fill="#424244" d="M903.4,1124.5c-6.3,0-11.5,4.8-12.1,11h-7.1c-0.6-6.2-5.8-11-12.1-11c-6.7,0-12.2,5.5-12.2,12.2
					c0,6.7,5.5,12.2,12.2,12.2c6.3,0,11.5-4.8,12.1-11h7.1c0.6,6.2,5.8,11,12.1,11c6.7,0,12.2-5.5,12.2-12.2
					C915.6,1130,910.1,1124.5,903.4,1124.5z M872,1146.4c-5.3,0-9.7-4.3-9.7-9.7c0-5.3,4.3-9.7,9.7-9.7s9.7,4.3,9.7,9.7
					C881.6,1142,877.3,1146.4,872,1146.4z M903.4,1146.4c-5.3,0-9.7-4.3-9.7-9.7c0-5.3,4.3-9.7,9.7-9.7s9.7,4.3,9.7,9.7
					C913.1,1142,908.7,1146.4,903.4,1146.4z"/>
			</g>
		</g>
	</g>
	<g>
		<polygon fill="#414042" points="839,1310 822.8,1360.4 806.6,1310 		"/>
		<g>
			<g>
				<g>
					<g>
						<g>
							<rect x="783.5" y="1265.3" fill="#A47B53" width="78.5" height="46.9"/>
							<path fill="#F6C6A7" d="M852.3,1305.2c-15.1,19-43.9,19-59,0c-5.6-7.1-9.8-14-9.8-19.2v-26.9c0-21.5,17.1-39.5,38.6-39.9
								c22-0.4,39.9,17.3,39.9,39.3v27.5C862.1,1291.2,857.9,1298.2,852.3,1305.2z"/>
							<g>
								<defs>
									<path id="SVGID_35_" d="M822.8,1323.3c-21.7,0-39.3-17.6-39.3-39.3v-25.6c0-21.7,17.6-39.3,39.3-39.3s39.3,17.6,39.3,39.3"
										/>
								</defs>
								<clipPath id="SVGID_58_">
									<use xlink:href="#SVGID_35_"  overflow="visible"/>
								</clipPath>
								<g clip-path="url(#SVGID_58_)">
									<defs>
										<path id="SVGID_36_" d="M783.5,1249.2c15.4,0,61.4-28.2,61.4-56.6s-37.3-9-37.3-9l-35.2,40.5L783.5,1249.2z"/>
									</defs>
									<use xlink:href="#SVGID_36_"  overflow="visible" fill="#A47B53"/>
									<clipPath id="SVGID_59_">
										<use xlink:href="#SVGID_36_"  overflow="visible"/>
									</clipPath>
									<path clip-path="url(#SVGID_59_)" fill="#A47B53" d="M822.8,1317.6c-21.7,0-39.3-17.6-39.3-39.3v-25.6
										c0-21.7,17.6-39.3,39.3-39.3s39.3,17.6,39.3,39.3v25.6C862.1,1300.1,844.5,1317.6,822.8,1317.6z"/>
								</g>
								<g clip-path="url(#SVGID_58_)">
									<g opacity="0.1">
										<path fill="#010101" d="M859.4,1253c-24.5,0-63.3-16.6-63.3-71.9s63.3,14.8,63.3,14.8V1253z"/>
									</g>
									<g>
										<path fill="#A47B53" d="M862.1,1253c-24.5,0-63.3-16.6-63.3-71.9s63.3,14.8,63.3,14.8V1253z"/>
									</g>
								</g>
							</g>
							<g>
								<circle fill="#A47B53" cx="807.1" cy="1264.1" r="1.7"/>
								<circle fill="#A47B53" cx="838.5" cy="1264.1" r="1.7"/>
							</g>
							<circle fill="#F6C6A7" cx="862.1" cy="1263.4" r="6.4"/>
							<circle fill="#F6C6A7" cx="783.5" cy="1263.4" r="6.4"/>
						</g>
					</g>
				</g>
				<path fill="#424244" d="M838.5,1251.8c-6.3,0-11.5,4.8-12.1,11h-7.1c-0.6-6.2-5.8-11-12.1-11c-6.7,0-12.2,5.5-12.2,12.2
					s5.5,12.2,12.2,12.2c6.3,0,11.5-4.8,12.1-11h7.1c0.6,6.2,5.8,11,12.1,11c6.7,0,12.2-5.5,12.2-12.2S845.2,1251.8,838.5,1251.8z
					 M807.1,1273.7c-5.3,0-9.7-4.3-9.7-9.7c0-5.3,4.3-9.7,9.7-9.7s9.7,4.3,9.7,9.7C816.8,1269.4,812.4,1273.7,807.1,1273.7z
					 M838.5,1273.7c-5.3,0-9.7-4.3-9.7-9.7c0-5.3,4.3-9.7,9.7-9.7s9.7,4.3,9.7,9.7C848.2,1269.4,843.8,1273.7,838.5,1273.7z"/>
			</g>
		</g>
	</g>
	<g>
		<polygon fill="#414042" points="1617.7,713.9 1601.4,764.4 1585.2,713.9 		"/>
		<g>
			<g>
				<g>
					<g>
						<g>
							<rect x="1562.2" y="669.2" fill="#A47B53" width="78.5" height="46.9"/>
							<path fill="#F6C6A7" d="M1630.9,709.2c-15.1,19-43.9,19-59,0c-5.6-7.1-9.8-14-9.8-19.2v-26.9c0-21.5,17.1-39.5,38.6-39.9
								c22-0.4,39.9,17.3,39.9,39.3V690C1640.7,695.2,1636.5,702.1,1630.9,709.2z"/>
							<g>
								<defs>
									<path id="SVGID_5_" d="M1601.4,727.3c-21.7,0-39.3-17.6-39.3-39.3v-25.6c0-21.7,17.6-39.3,39.3-39.3s39.3,17.6,39.3,39.3"
										/>
								</defs>
								<clipPath id="SVGID_60_">
									<use xlink:href="#SVGID_5_"  overflow="visible"/>
								</clipPath>
								<g clip-path="url(#SVGID_60_)">
									<defs>
										<path id="SVGID_6_" d="M1562.2,653.1c15.4,0,61.4-28.2,61.4-56.6s-37.3-9-37.3-9l-35.2,40.5L1562.2,653.1z"/>
									</defs>
									<use xlink:href="#SVGID_6_"  overflow="visible" fill="#A47B53"/>
									<clipPath id="SVGID_61_">
										<use xlink:href="#SVGID_6_"  overflow="visible"/>
									</clipPath>
									<path clip-path="url(#SVGID_61_)" fill="#A47B53" d="M1601.4,721.6c-21.7,0-39.3-17.6-39.3-39.3v-25.6
										c0-21.7,17.6-39.3,39.3-39.3s39.3,17.6,39.3,39.3v25.6C1640.7,704,1623.1,721.6,1601.4,721.6z"/>
								</g>
								<g clip-path="url(#SVGID_60_)">
									<g opacity="0.1">
										<path fill="#010101" d="M1638.1,656.9c-24.5,0-63.3-16.6-63.3-71.9c0-55.3,63.3,14.8,63.3,14.8V656.9z"/>
									</g>
									<g>
										<path fill="#A47B53" d="M1640.7,656.9c-24.5,0-63.3-16.6-63.3-71.9c0-55.3,63.3,14.8,63.3,14.8V656.9z"/>
									</g>
								</g>
							</g>
							<g>
								<circle fill="#A47B53" cx="1585.7" cy="668" r="1.7"/>
								<circle fill="#A47B53" cx="1617.1" cy="668" r="1.7"/>
							</g>
							<circle fill="#F6C6A7" cx="1640.7" cy="667.3" r="6.4"/>
							<circle fill="#F6C6A7" cx="1562.2" cy="667.3" r="6.4"/>
						</g>
					</g>
				</g>
				<path fill="#424244" d="M1617.1,655.8c-6.3,0-11.5,4.8-12.1,11h-7.1c-0.6-6.2-5.8-11-12.1-11c-6.7,0-12.2,5.5-12.2,12.2
					c0,6.7,5.5,12.2,12.2,12.2c6.3,0,11.5-4.8,12.1-11h7.1c0.6,6.2,5.8,11,12.1,11c6.7,0,12.2-5.5,12.2-12.2
					C1629.3,661.3,1623.9,655.8,1617.1,655.8z M1585.7,677.7c-5.3,0-9.7-4.3-9.7-9.7s4.3-9.7,9.7-9.7c5.3,0,9.7,4.3,9.7,9.7
					S1591.1,677.7,1585.7,677.7z M1617.1,677.7c-5.3,0-9.7-4.3-9.7-9.7s4.3-9.7,9.7-9.7c5.3,0,9.7,4.3,9.7,9.7
					S1622.5,677.7,1617.1,677.7z"/>
			</g>
		</g>
	</g>
	<g>
		<polygon fill="#414042" points="1071.8,186.5 1055.6,237 1039.4,186.5 		"/>
		<g>
			<g>
				<g>
					<g>
						<defs>
							<path id="SVGID_7_" d="M1005.9,93l34.8-40c0,0,36.8-19.1,36.8,8.9s-45.4,55.9-60.6,55.9L1005.9,93z"/>
						</defs>
						<use xlink:href="#SVGID_7_"  overflow="visible" fill="#71553A"/>
						<clipPath id="SVGID_62_">
							<use xlink:href="#SVGID_7_"  overflow="visible"/>
						</clipPath>
						<g clip-path="url(#SVGID_62_)">
							<path fill="#71553A" d="M1055.6,185.4c-21.4,0-38.8-17.4-38.8-38.8v-25.3c0-21.4,17.4-38.8,38.8-38.8
								c21.4,0,38.8,17.4,38.8,38.8v25.3C1094.4,168,1077,185.4,1055.6,185.4z"/>
						</g>
					</g>
					<g>
						<g opacity="0.1">
							<path fill="#010101" d="M1091.8,121.5c-24.2,0-62.6-16.4-62.6-71s62.6,14.6,62.6,14.6V121.5z"/>
						</g>
						<g>
							<path fill="#71553A" d="M1094.4,121.5c-24.2,0-62.6-16.4-62.6-71s62.6,14.6,62.6,14.6V121.5z"/>
						</g>
					</g>
				</g>
				<g>
					<path fill="#F6C6A7" d="M1055.6,191c-21.4,0-38.8-17.4-38.8-38.8V127c0-21.4,17.4-38.8,38.8-38.8c21.4,0,38.8,17.4,38.8,38.8
						v25.3C1094.4,173.6,1077,191,1055.6,191z"/>
				</g>
				<g>
					<circle fill="#A47B53" cx="1040.1" cy="132.5" r="1.7"/>
					<circle fill="#A47B53" cx="1071.1" cy="132.5" r="1.7"/>
				</g>
				<circle fill="#F6C6A7" cx="1094.4" cy="131.8" r="6.3"/>
				<circle fill="#F6C6A7" cx="1016.8" cy="131.8" r="6.3"/>
				<g>
					<path fill="#71553A" d="M1059,159.7c-0.3,4.3-4.1,7.5-8.3,7.2c-4.3-0.3-18.8-1.3-18.8-1.3c5.3,0.4,10.6-15,19.9-14.2
						C1056.1,151.7,1059.3,155.4,1059,159.7z"/>
					<g>
						<g opacity="0.2">
							<path fill="#010101" d="M1051.2,160.6c0.6,4.3,4.6,7.2,8.8,6.6s18.6-2.6,18.6-2.6c-5.3,0.8-11.5-14.2-20.9-12.8
								C1053.5,152.4,1050.6,156.4,1051.2,160.6z"/>
						</g>
						<g>
							<path fill="#71553A" d="M1052.3,160.6c0.6,4.3,4.6,7.2,8.8,6.6c4.3-0.6,18.6-2.6,18.6-2.6c-5.3,0.8-11.5-14.2-20.9-12.8
								C1054.7,152.4,1051.7,156.4,1052.3,160.6z"/>
						</g>
					</g>
				</g>
			</g>
		</g>
	</g>
	<g>
		<polygon fill="#414042" points="1344.2,704 1328,754.5 1311.8,704 		"/>
		<g>
			<g>
				<g>
					<g>
						<defs>
							<path id="SVGID_3_" d="M1278.3,610.5l34.8-40c0,0,36.8-19.1,36.8,8.9c0,28-45.4,55.9-60.6,55.9L1278.3,610.5z"/>
						</defs>
						<use xlink:href="#SVGID_3_"  overflow="visible" fill="#71553A"/>
						<clipPath id="SVGID_63_">
							<use xlink:href="#SVGID_3_"  overflow="visible"/>
						</clipPath>
						<g clip-path="url(#SVGID_63_)">
							<path fill="#71553A" d="M1328,702.9c-21.4,0-38.8-17.4-38.8-38.8v-25.3c0-21.4,17.4-38.8,38.8-38.8
								c21.4,0,38.8,17.4,38.8,38.8v25.3C1366.8,685.6,1349.4,702.9,1328,702.9z"/>
						</g>
					</g>
					<g>
						<g opacity="0.1">
							<path fill="#010101" d="M1364.2,639c-24.2,0-62.6-16.4-62.6-71c0-54.6,62.6,14.6,62.6,14.6V639z"/>
						</g>
						<g>
							<path fill="#71553A" d="M1366.8,639c-24.2,0-62.6-16.4-62.6-71c0-54.6,62.6,14.6,62.6,14.6V639z"/>
						</g>
					</g>
				</g>
				<g>
					<path fill="#F6C6A7" d="M1328,708.5c-21.4,0-38.8-17.4-38.8-38.8v-25.3c0-21.4,17.4-38.8,38.8-38.8c21.4,0,38.8,17.4,38.8,38.8
						v25.3C1366.8,691.2,1349.4,708.5,1328,708.5z"/>
				</g>
				<g>
					<circle fill="#A47B53" cx="1312.5" cy="650" r="1.7"/>
					<circle fill="#A47B53" cx="1343.5" cy="650" r="1.7"/>
				</g>
				<circle fill="#F6C6A7" cx="1366.8" cy="649.3" r="6.3"/>
				<circle fill="#F6C6A7" cx="1289.2" cy="649.3" r="6.3"/>
				<g>
					<path fill="#71553A" d="M1331.4,677.2c-0.3,4.3-4.1,7.5-8.3,7.2c-4.3-0.3-18.8-1.3-18.8-1.3c5.3,0.4,10.6-15,19.9-14.2
						C1328.5,669.2,1331.7,673,1331.4,677.2z"/>
					<g>
						<g opacity="0.2">
							<path fill="#010101" d="M1323.6,678.1c0.6,4.3,4.6,7.2,8.8,6.6s18.6-2.6,18.6-2.6c-5.3,0.8-11.5-14.2-20.9-12.8
								C1325.9,669.9,1323,673.9,1323.6,678.1z"/>
						</g>
						<g>
							<path fill="#71553A" d="M1324.7,678.1c0.6,4.3,4.6,7.2,8.8,6.6c4.3-0.6,18.6-2.6,18.6-2.6c-5.3,0.8-11.5-14.2-20.9-12.8
								C1327.1,669.9,1324.1,673.9,1324.7,678.1z"/>
						</g>
					</g>
				</g>
			</g>
		</g>
	</g>
	<g>
		<polygon fill="#414042" points="1301.4,909.5 1285.2,960 1269,909.5 		"/>
		<g>
			<g>
				<g>
					<g>
						<defs>
							<path id="SVGID_8_" d="M1235.5,816l34.8-40c0,0,36.8-19.1,36.8,8.9s-45.4,55.9-60.6,55.9L1235.5,816z"/>
						</defs>
						<use xlink:href="#SVGID_8_"  overflow="visible" fill="#71553A"/>
						<clipPath id="SVGID_64_">
							<use xlink:href="#SVGID_8_"  overflow="visible"/>
						</clipPath>
						<g clip-path="url(#SVGID_64_)">
							<path fill="#71553A" d="M1285.2,908.4c-21.4,0-38.8-17.4-38.8-38.8v-25.3c0-21.4,17.4-38.8,38.8-38.8s38.8,17.4,38.8,38.8
								v25.3C1324,891.1,1306.6,908.4,1285.2,908.4z"/>
						</g>
					</g>
					<g>
						<g opacity="0.1">
							<path fill="#010101" d="M1321.4,844.5c-24.2,0-62.6-16.4-62.6-71s62.6,14.6,62.6,14.6V844.5z"/>
						</g>
						<g>
							<path fill="#71553A" d="M1324,844.5c-24.2,0-62.6-16.4-62.6-71s62.6,14.6,62.6,14.6V844.5z"/>
						</g>
					</g>
				</g>
				<g>
					<path fill="#F6C6A7" d="M1285.2,914c-21.4,0-38.8-17.4-38.8-38.8V850c0-21.4,17.4-38.8,38.8-38.8s38.8,17.4,38.8,38.8v25.3
						C1324,896.7,1306.6,914,1285.2,914z"/>
				</g>
				<g>
					<circle fill="#A47B53" cx="1269.7" cy="855.5" r="1.7"/>
					<circle fill="#A47B53" cx="1300.7" cy="855.5" r="1.7"/>
				</g>
				<circle fill="#F6C6A7" cx="1324" cy="854.9" r="6.3"/>
				<circle fill="#F6C6A7" cx="1246.4" cy="854.9" r="6.3"/>
				<g>
					<path fill="#71553A" d="M1288.6,882.8c-0.3,4.3-4.1,7.5-8.3,7.2c-4.3-0.3-18.8-1.3-18.8-1.3c5.3,0.4,10.6-15,19.9-14.2
						C1285.7,874.7,1288.9,878.5,1288.6,882.8z"/>
					<g>
						<g opacity="0.2">
							<path fill="#010101" d="M1280.8,883.7c0.6,4.3,4.6,7.2,8.8,6.6c4.3-0.6,18.6-2.6,18.6-2.6c-5.3,0.8-11.5-14.2-20.9-12.8
								C1283.1,875.5,1280.2,879.4,1280.8,883.7z"/>
						</g>
						<g>
							<path fill="#71553A" d="M1281.9,883.7c0.6,4.3,4.6,7.2,8.8,6.6c4.3-0.6,18.6-2.6,18.6-2.6c-5.3,0.8-11.5-14.2-20.9-12.8
								C1284.3,875.5,1281.3,879.4,1281.9,883.7z"/>
						</g>
					</g>
				</g>
			</g>
		</g>
	</g>
	<g>
		<polygon fill="#414042" points="1416.3,875.5 1400.1,925.9 1383.9,875.5 		"/>
		<g>
			<g>
				<g>
					<g>
						<defs>
							<path id="SVGID_4_" d="M1350.4,782l34.8-40c0,0,36.8-19.1,36.8,8.9c0,28-45.4,55.9-60.6,55.9L1350.4,782z"/>
						</defs>
						<use xlink:href="#SVGID_4_"  overflow="visible" fill="#71553A"/>
						<clipPath id="SVGID_65_">
							<use xlink:href="#SVGID_4_"  overflow="visible"/>
						</clipPath>
						<g clip-path="url(#SVGID_65_)">
							<path fill="#71553A" d="M1400.1,874.4c-21.4,0-38.8-17.4-38.8-38.8v-25.3c0-21.4,17.4-38.8,38.8-38.8s38.8,17.4,38.8,38.8
								v25.3C1438.9,857,1421.5,874.4,1400.1,874.4z"/>
						</g>
					</g>
					<g>
						<g opacity="0.1">
							<path fill="#010101" d="M1436.3,810.5c-24.2,0-62.6-16.4-62.6-71s62.6,14.6,62.6,14.6V810.5z"/>
						</g>
						<g>
							<path fill="#71553A" d="M1438.9,810.5c-24.2,0-62.6-16.4-62.6-71s62.6,14.6,62.6,14.6V810.5z"/>
						</g>
					</g>
				</g>
				<g>
					<path fill="#F6C6A7" d="M1400.1,880c-21.4,0-38.8-17.4-38.8-38.8v-25.3c0-21.4,17.4-38.8,38.8-38.8s38.8,17.4,38.8,38.8v25.3
						C1438.9,862.6,1421.5,880,1400.1,880z"/>
				</g>
				<g>
					<circle fill="#A47B53" cx="1384.6" cy="821.4" r="1.7"/>
					<circle fill="#A47B53" cx="1415.6" cy="821.4" r="1.7"/>
				</g>
				<circle fill="#F6C6A7" cx="1438.9" cy="820.8" r="6.3"/>
				<circle fill="#F6C6A7" cx="1361.4" cy="820.8" r="6.3"/>
				<g>
					<path fill="#71553A" d="M1403.5,848.7c-0.3,4.3-4.1,7.5-8.3,7.2c-4.3-0.3-18.8-1.3-18.8-1.3c5.3,0.4,10.6-15,19.9-14.2
						C1400.6,840.7,1403.8,844.4,1403.5,848.7z"/>
					<g>
						<g opacity="0.2">
							<path fill="#010101" d="M1395.7,849.6c0.6,4.3,4.6,7.2,8.8,6.6c4.3-0.6,18.6-2.6,18.6-2.6c-5.3,0.8-11.5-14.2-20.9-12.8
								C1398,841.4,1395.1,845.3,1395.7,849.6z"/>
						</g>
						<g>
							<path fill="#71553A" d="M1396.9,849.6c0.6,4.3,4.6,7.2,8.8,6.6s18.6-2.6,18.6-2.6c-5.3,0.8-11.5-14.2-20.9-12.8
								C1399.2,841.4,1396.3,845.3,1396.9,849.6z"/>
						</g>
					</g>
				</g>
			</g>
		</g>
	</g>
	<g>
		<polygon fill="#414042" points="1060.2,1268.5 1043.9,1319 1027.7,1268.5 		"/>
		<g>
			<g>
				<g>
					<g>
						<defs>
							<path id="SVGID_22_" d="M994.2,1175l34.8-40c0,0,36.8-19.1,36.8,8.9c0,28-45.4,55.9-60.6,55.9L994.2,1175z"/>
						</defs>
						<use xlink:href="#SVGID_22_"  overflow="visible" fill="#71553A"/>
						<clipPath id="SVGID_66_">
							<use xlink:href="#SVGID_22_"  overflow="visible"/>
						</clipPath>
						<g clip-path="url(#SVGID_66_)">
							<path fill="#71553A" d="M1043.9,1267.4c-21.4,0-38.8-17.4-38.8-38.8v-25.3c0-21.4,17.4-38.8,38.8-38.8
								c21.4,0,38.8,17.4,38.8,38.8v25.3C1082.7,1250,1065.4,1267.4,1043.9,1267.4z"/>
						</g>
					</g>
					<g>
						<g opacity="0.1">
							<path fill="#010101" d="M1080.1,1203.5c-24.2,0-62.6-16.4-62.6-71c0-54.6,62.6,14.6,62.6,14.6V1203.5z"/>
						</g>
						<g>
							<path fill="#71553A" d="M1082.7,1203.5c-24.2,0-62.6-16.4-62.6-71c0-54.6,62.6,14.6,62.6,14.6V1203.5z"/>
						</g>
					</g>
				</g>
				<g>
					<path fill="#F6C6A7" d="M1043.9,1273c-21.4,0-38.8-17.4-38.8-38.8v-25.3c0-21.4,17.4-38.8,38.8-38.8
						c21.4,0,38.8,17.4,38.8,38.8v25.3C1082.7,1255.6,1065.4,1273,1043.9,1273z"/>
				</g>
				<g>
					<circle fill="#A47B53" cx="1028.4" cy="1214.4" r="1.7"/>
					<circle fill="#A47B53" cx="1059.5" cy="1214.4" r="1.7"/>
				</g>
				<circle fill="#F6C6A7" cx="1082.7" cy="1213.8" r="6.3"/>
				<circle fill="#F6C6A7" cx="1005.2" cy="1213.8" r="6.3"/>
				<g>
					<path fill="#71553A" d="M1047.3,1241.7c-0.3,4.3-4.1,7.5-8.3,7.2c-4.3-0.3-18.8-1.3-18.8-1.3c5.3,0.4,10.6-15,19.9-14.2
						C1044.4,1233.7,1047.6,1237.4,1047.3,1241.7z"/>
					<g>
						<g opacity="0.2">
							<path fill="#010101" d="M1039.5,1242.6c0.6,4.3,4.6,7.2,8.8,6.6c4.3-0.6,18.6-2.6,18.6-2.6c-5.3,0.8-11.5-14.2-20.9-12.8
								C1041.9,1234.4,1038.9,1238.4,1039.5,1242.6z"/>
						</g>
						<g>
							<path fill="#71553A" d="M1040.7,1242.6c0.6,4.3,4.6,7.2,8.8,6.6c4.3-0.6,18.6-2.6,18.6-2.6c-5.3,0.8-11.5-14.2-20.9-12.8
								C1043,1234.4,1040.1,1238.4,1040.7,1242.6z"/>
						</g>
					</g>
				</g>
			</g>
		</g>
	</g>
	<g>
		<polygon fill="#414042" points="617.5,1735.6 601.3,1786 585.1,1735.6 		"/>
		<g>
			<g>
				<g>
					<g>
						<path fill="#F6C6A7" d="M601.3,1738.9c-23.2,0-42.1-18.8-42.1-42.1v-19.9c0-23.2,18.8-42.1,42.1-42.1
							c23.2,0,42.1,18.8,42.1,42.1v19.9C643.4,1720.1,624.5,1738.9,601.3,1738.9z"/>
					</g>
					<circle fill="#754E2C" cx="584.2" cy="1666.3" r="2"/>
					<circle fill="#754E2C" cx="616.4" cy="1666.3" r="2"/>
					<path fill="#A47B53" d="M608.5,1681.3L608.5,1681.3c-4.5,2.6-9.9,2.6-14.3,0l-0.1,0h-10.3c-5.5,0-10,4.5-10,10v17
						c0,7.9,6.4,14.3,14.3,14.3h26.3c7.9,0,14.3-6.4,14.3-14.3v-17c0-5.5-4.5-10-10-10H608.5z M613.1,1710.3H612
						c-3.5,0-7-0.8-9.8-2.3l-0.9-0.5l-0.9,0.5c-2.8,1.5-6.3,2.3-9.8,2.3h-1.1c-6.1,0-11-3.4-11-7.7v-0.7c0-4.5,5.2-8.2,11.7-8.2
						h22.2c6.4,0,11.7,3.7,11.7,8.2v0.7C624,1706.8,619.1,1710.3,613.1,1710.3z"/>
				</g>
			</g>
		</g>
	</g>
	<g>
		<polygon fill="#414042" points="589.6,1574.1 573.4,1624.6 557.2,1574.1 		"/>
		<g>
			<g>
				<g>
					<g>
						<g>
							<rect x="534.1" y="1529.4" fill="#A47B53" width="78.5" height="46.9"/>
							<path fill="#F6C6A7" d="M602.9,1569.4c-15.1,19-43.9,19-59,0c-5.6-7.1-9.8-14-9.8-19.2v-26.9c0-21.5,17.1-39.5,38.6-39.9
								c22-0.4,39.9,17.3,39.9,39.3v27.5C612.6,1555.3,608.5,1562.3,602.9,1569.4z"/>
							<g>
								<defs>
									<path id="SVGID_24_" d="M573.4,1587.4c-21.7,0-39.3-17.6-39.3-39.3v-25.6c0-21.7,17.6-39.3,39.3-39.3s39.3,17.6,39.3,39.3"
										/>
								</defs>
								<clipPath id="SVGID_67_">
									<use xlink:href="#SVGID_24_"  overflow="visible"/>
								</clipPath>
								<g clip-path="url(#SVGID_67_)">
									<defs>
										<path id="SVGID_25_" d="M534.1,1513.3c15.4,0,61.4-28.2,61.4-56.6s-37.3-9-37.3-9l-35.2,40.5L534.1,1513.3z"/>
									</defs>
									<use xlink:href="#SVGID_25_"  overflow="visible" fill="#A47B53"/>
									<clipPath id="SVGID_68_">
										<use xlink:href="#SVGID_25_"  overflow="visible"/>
									</clipPath>
									<path clip-path="url(#SVGID_68_)" fill="#A47B53" d="M573.4,1581.8c-21.7,0-39.3-17.6-39.3-39.3v-25.6
										c0-21.7,17.6-39.3,39.3-39.3s39.3,17.6,39.3,39.3v25.6C612.6,1564.2,595.1,1581.8,573.4,1581.8z"/>
								</g>
								<g clip-path="url(#SVGID_67_)">
									<g opacity="0.1">
										<path fill="#010101" d="M610,1517.1c-24.5,0-63.3-16.6-63.3-71.9c0-55.3,63.3,14.8,63.3,14.8V1517.1z"/>
									</g>
									<g>
										<path fill="#A47B53" d="M612.6,1517.1c-24.5,0-63.3-16.6-63.3-71.9c0-55.3,63.3,14.8,63.3,14.8V1517.1z"/>
									</g>
								</g>
							</g>
							<g>
								<circle fill="#A47B53" cx="557.7" cy="1528.2" r="1.7"/>
								<circle fill="#A47B53" cx="589.1" cy="1528.2" r="1.7"/>
							</g>
							<circle fill="#F6C6A7" cx="612.6" cy="1527.5" r="6.4"/>
							<circle fill="#F6C6A7" cx="534.1" cy="1527.5" r="6.4"/>
						</g>
					</g>
				</g>
				<path fill="#424244" d="M589.1,1516c-6.3,0-11.5,4.8-12.1,11h-7.1c-0.6-6.2-5.8-11-12.1-11c-6.7,0-12.2,5.5-12.2,12.2
					s5.5,12.2,12.2,12.2c6.3,0,11.5-4.8,12.1-11h7.1c0.6,6.2,5.8,11,12.1,11c6.7,0,12.2-5.5,12.2-12.2S595.8,1516,589.1,1516z
					 M557.7,1537.9c-5.3,0-9.7-4.3-9.7-9.7c0-5.3,4.3-9.7,9.7-9.7s9.7,4.3,9.7,9.7C567.4,1533.5,563,1537.9,557.7,1537.9z
					 M589.1,1537.9c-5.3,0-9.7-4.3-9.7-9.7c0-5.3,4.3-9.7,9.7-9.7s9.7,4.3,9.7,9.7C598.8,1533.5,594.4,1537.9,589.1,1537.9z"/>
			</g>
		</g>
	</g>
	<g>
		<polygon fill="#414042" points="753.4,1460.1 737.2,1510.5 720.9,1460.1 		"/>
		<g>
			<g>
				<g>
					<g>
						<g>
							<rect x="697.9" y="1415.4" fill="#A47B53" width="78.5" height="46.9"/>
							<path fill="#F6C6A7" d="M766.7,1455.3c-15.1,19-43.9,19-59,0c-5.6-7.1-9.8-14-9.8-19.2v-26.9c0-21.5,17.1-39.5,38.6-39.9
								c22-0.4,39.9,17.3,39.9,39.3v27.5C776.4,1441.3,772.3,1448.3,766.7,1455.3z"/>
							<g>
								<defs>
									<path id="SVGID_32_" d="M737.2,1473.4c-21.7,0-39.3-17.6-39.3-39.3v-25.6c0-21.7,17.6-39.3,39.3-39.3s39.3,17.6,39.3,39.3"
										/>
								</defs>
								<clipPath id="SVGID_69_">
									<use xlink:href="#SVGID_32_"  overflow="visible"/>
								</clipPath>
								<g clip-path="url(#SVGID_69_)">
									<defs>
										<path id="SVGID_33_" d="M697.9,1399.3c15.4,0,61.4-28.2,61.4-56.6c0-28.4-37.3-9-37.3-9l-35.2,40.5L697.9,1399.3z"/>
									</defs>
									<use xlink:href="#SVGID_33_"  overflow="visible" fill="#A47B53"/>
									<clipPath id="SVGID_70_">
										<use xlink:href="#SVGID_33_"  overflow="visible"/>
									</clipPath>
									<path clip-path="url(#SVGID_70_)" fill="#A47B53" d="M737.2,1467.7c-21.7,0-39.3-17.6-39.3-39.3v-25.6
										c0-21.7,17.6-39.3,39.3-39.3s39.3,17.6,39.3,39.3v25.6C776.4,1450.2,758.8,1467.7,737.2,1467.7z"/>
								</g>
								<g clip-path="url(#SVGID_69_)">
									<g opacity="0.1">
										<path fill="#010101" d="M773.8,1403.1c-24.5,0-63.3-16.6-63.3-71.9s63.3,14.8,63.3,14.8V1403.1z"/>
									</g>
									<g>
										<path fill="#A47B53" d="M776.4,1403.1c-24.5,0-63.3-16.6-63.3-71.9s63.3,14.8,63.3,14.8V1403.1z"/>
									</g>
								</g>
							</g>
							<g>
								<circle fill="#A47B53" cx="721.5" cy="1414.2" r="1.7"/>
								<circle fill="#A47B53" cx="752.9" cy="1414.2" r="1.7"/>
							</g>
							<circle fill="#F6C6A7" cx="776.4" cy="1413.5" r="6.4"/>
							<circle fill="#F6C6A7" cx="697.9" cy="1413.5" r="6.4"/>
						</g>
					</g>
				</g>
				<path fill="#424244" d="M752.9,1401.9c-6.3,0-11.5,4.8-12.1,11h-7.1c-0.6-6.2-5.8-11-12.1-11c-6.7,0-12.2,5.5-12.2,12.2
					c0,6.7,5.5,12.2,12.2,12.2c6.3,0,11.5-4.8,12.1-11h7.1c0.6,6.2,5.8,11,12.1,11c6.7,0,12.2-5.5,12.2-12.2
					C765.1,1407.4,759.6,1401.9,752.9,1401.9z M721.5,1423.8c-5.3,0-9.7-4.3-9.7-9.7c0-5.3,4.3-9.7,9.7-9.7s9.7,4.3,9.7,9.7
					C731.2,1419.5,726.8,1423.8,721.5,1423.8z M752.9,1423.8c-5.3,0-9.7-4.3-9.7-9.7c0-5.3,4.3-9.7,9.7-9.7s9.7,4.3,9.7,9.7
					C762.6,1419.5,758.2,1423.8,752.9,1423.8z"/>
			</g>
		</g>
	</g>
	<g>
		<polygon fill="#414042" points="745.9,1660 729.7,1710.4 713.5,1660 		"/>
		<g>
			<g>
				<g>
					<g>
						<defs>
							<path id="SVGID_23_" d="M679.9,1566.5l34.8-40c0,0,36.8-19.1,36.8,8.9s-45.4,55.9-60.6,55.9L679.9,1566.5z"/>
						</defs>
						<use xlink:href="#SVGID_23_"  overflow="visible" fill="#71553A"/>
						<clipPath id="SVGID_71_">
							<use xlink:href="#SVGID_23_"  overflow="visible"/>
						</clipPath>
						<g clip-path="url(#SVGID_71_)">
							<path fill="#71553A" d="M729.7,1658.9c-21.4,0-38.8-17.4-38.8-38.8v-25.3c0-21.4,17.4-38.8,38.8-38.8s38.8,17.4,38.8,38.8
								v25.3C768.4,1641.5,751.1,1658.9,729.7,1658.9z"/>
						</g>
					</g>
					<g>
						<g opacity="0.1">
							<path fill="#010101" d="M765.9,1595c-24.2,0-62.6-16.4-62.6-71c0-54.6,62.6,14.6,62.6,14.6V1595z"/>
						</g>
						<g>
							<path fill="#71553A" d="M768.4,1595c-24.2,0-62.6-16.4-62.6-71c0-54.6,62.6,14.6,62.6,14.6V1595z"/>
						</g>
					</g>
				</g>
				<g>
					<path fill="#F6C6A7" d="M729.7,1664.5c-21.4,0-38.8-17.4-38.8-38.8v-25.3c0-21.4,17.4-38.8,38.8-38.8s38.8,17.4,38.8,38.8v25.3
						C768.4,1647.1,751.1,1664.5,729.7,1664.5z"/>
				</g>
				<g>
					<circle fill="#A47B53" cx="714.2" cy="1605.9" r="1.7"/>
					<circle fill="#A47B53" cx="745.2" cy="1605.9" r="1.7"/>
				</g>
				<circle fill="#F6C6A7" cx="768.4" cy="1605.3" r="6.3"/>
				<circle fill="#F6C6A7" cx="690.9" cy="1605.3" r="6.3"/>
				<g>
					<path fill="#71553A" d="M733,1633.2c-0.3,4.3-4.1,7.5-8.3,7.2c-4.3-0.3-18.8-1.3-18.8-1.3c5.3,0.4,10.6-15,19.9-14.2
						C730.1,1625.2,733.4,1628.9,733,1633.2z"/>
					<g>
						<g opacity="0.2">
							<path fill="#010101" d="M725.2,1634.1c0.6,4.3,4.6,7.2,8.8,6.6c4.3-0.6,18.6-2.6,18.6-2.6c-5.3,0.8-11.5-14.2-20.9-12.8
								C727.6,1625.9,724.6,1629.8,725.2,1634.1z"/>
						</g>
						<g>
							<path fill="#71553A" d="M726.4,1634.1c0.6,4.3,4.6,7.2,8.8,6.6c4.3-0.6,18.6-2.6,18.6-2.6c-5.3,0.8-11.5-14.2-20.9-12.8
								C728.7,1625.9,725.8,1629.8,726.4,1634.1z"/>
						</g>
					</g>
				</g>
			</g>
		</g>
	</g>
	<g>
		<polygon fill="#414042" points="888.7,1492.1 872.5,1542.6 856.3,1492.1 		"/>
		<g>
			<g>
				<g>
					<g>
						<defs>
							<path id="SVGID_34_" d="M822.8,1398.6l34.8-40c0,0,36.8-19.1,36.8,8.9s-45.4,55.9-60.6,55.9L822.8,1398.6z"/>
						</defs>
						<use xlink:href="#SVGID_34_"  overflow="visible" fill="#71553A"/>
						<clipPath id="SVGID_72_">
							<use xlink:href="#SVGID_34_"  overflow="visible"/>
						</clipPath>
						<g clip-path="url(#SVGID_72_)">
							<path fill="#71553A" d="M872.5,1491c-21.4,0-38.8-17.4-38.8-38.8V1427c0-21.4,17.4-38.8,38.8-38.8s38.8,17.4,38.8,38.8v25.3
								C911.3,1473.6,893.9,1491,872.5,1491z"/>
						</g>
					</g>
					<g>
						<g opacity="0.1">
							<path fill="#010101" d="M908.7,1427.1c-24.2,0-62.6-16.4-62.6-71c0-54.6,62.6,14.6,62.6,14.6V1427.1z"/>
						</g>
						<g>
							<path fill="#71553A" d="M911.3,1427.1c-24.2,0-62.6-16.4-62.6-71c0-54.6,62.6,14.6,62.6,14.6V1427.1z"/>
						</g>
					</g>
				</g>
				<g>
					<path fill="#F6C6A7" d="M872.5,1496.6c-21.4,0-38.8-17.4-38.8-38.8v-25.3c0-21.4,17.4-38.8,38.8-38.8s38.8,17.4,38.8,38.8v25.3
						C911.3,1479.2,893.9,1496.6,872.5,1496.6z"/>
				</g>
				<g>
					<circle fill="#A47B53" cx="857" cy="1438.1" r="1.7"/>
					<circle fill="#A47B53" cx="888" cy="1438.1" r="1.7"/>
				</g>
				<circle fill="#F6C6A7" cx="911.3" cy="1437.4" r="6.3"/>
				<circle fill="#F6C6A7" cx="833.7" cy="1437.4" r="6.3"/>
				<g>
					<path fill="#71553A" d="M875.9,1465.3c-0.3,4.3-4.1,7.5-8.3,7.2c-4.3-0.3-18.8-1.3-18.8-1.3c5.3,0.4,10.6-15,19.9-14.2
						C873,1457.3,876.2,1461,875.9,1465.3z"/>
					<g>
						<g opacity="0.2">
							<path fill="#010101" d="M868.1,1466.2c0.6,4.3,4.6,7.2,8.8,6.6s18.6-2.6,18.6-2.6c-5.3,0.8-11.5-14.2-20.9-12.8
								C870.4,1458,867.5,1462,868.1,1466.2z"/>
						</g>
						<g>
							<path fill="#71553A" d="M869.3,1466.2c0.6,4.3,4.6,7.2,8.8,6.6c4.3-0.6,18.6-2.6,18.6-2.6c-5.3,0.8-11.5-14.2-20.9-12.8
								C871.6,1458,868.6,1462,869.3,1466.2z"/>
						</g>
					</g>
				</g>
			</g>
		</g>
	</g>
	<g>
		<polygon fill="#414042" points="280.9,1998.9 264.7,2049.4 248.4,1998.9 		"/>
		<g>
			<g>
				<g>
					<g>
						<path fill="#F6C6A7" d="M264.7,2002.2c-23.2,0-42.1-18.8-42.1-42.1v-19.9c0-23.2,18.8-42.1,42.1-42.1s42.1,18.8,42.1,42.1
							v19.9C306.7,1983.4,287.9,2002.2,264.7,2002.2z"/>
					</g>
					<circle fill="#754E2C" cx="247.5" cy="1929.6" r="2"/>
					<circle fill="#754E2C" cx="279.7" cy="1929.6" r="2"/>
					<path fill="#A47B53" d="M271.9,1944.6L271.9,1944.6c-4.5,2.6-9.9,2.6-14.3,0l-0.1,0h-10.3c-5.5,0-10,4.5-10,10v17
						c0,7.9,6.4,14.3,14.3,14.3h26.3c7.9,0,14.3-6.4,14.3-14.3v-17c0-5.5-4.5-10-10-10H271.9z M276.5,1973.6h-1.1
						c-3.5,0-7-0.8-9.8-2.3l-0.9-0.5l-0.9,0.5c-2.8,1.5-6.3,2.3-9.8,2.3h-1.1c-6.1,0-11-3.4-11-7.7v-0.7c0-4.5,5.2-8.2,11.7-8.2
						h22.2c6.4,0,11.7,3.7,11.7,8.2v0.7C287.4,1970.1,282.5,1973.6,276.5,1973.6z"/>
				</g>
			</g>
		</g>
	</g>
	<g>
		<polygon fill="#414042" points="253,1837.4 236.8,1887.9 220.5,1837.4 		"/>
		<g>
			<g>
				<g>
					<g>
						<g>
							<rect x="197.5" y="1792.7" fill="#A47B53" width="78.5" height="46.9"/>
							<path fill="#F6C6A7" d="M266.3,1832.7c-15.1,19-43.9,19-59,0c-5.6-7.1-9.8-14-9.8-19.2v-26.9c0-21.5,17.1-39.5,38.6-39.9
								c22-0.4,39.9,17.3,39.9,39.3v27.5C276,1818.6,271.9,1825.6,266.3,1832.7z"/>
							<g>
								<defs>
									<path id="SVGID_27_" d="M236.8,1850.7c-21.7,0-39.3-17.6-39.3-39.3v-25.6c0-21.7,17.6-39.3,39.3-39.3s39.3,17.6,39.3,39.3"
										/>
								</defs>
								<clipPath id="SVGID_73_">
									<use xlink:href="#SVGID_27_"  overflow="visible"/>
								</clipPath>
								<g clip-path="url(#SVGID_73_)">
									<defs>
										<path id="SVGID_28_" d="M197.5,1776.6c15.4,0,61.4-28.2,61.4-56.6c0-28.4-37.3-9-37.3-9l-35.2,40.5L197.5,1776.6z"/>
									</defs>
									<use xlink:href="#SVGID_28_"  overflow="visible" fill="#A47B53"/>
									<clipPath id="SVGID_74_">
										<use xlink:href="#SVGID_28_"  overflow="visible"/>
									</clipPath>
									<path clip-path="url(#SVGID_74_)" fill="#A47B53" d="M236.8,1845.1c-21.7,0-39.3-17.6-39.3-39.3v-25.6
										c0-21.7,17.6-39.3,39.3-39.3s39.3,17.6,39.3,39.3v25.6C276,1827.5,258.4,1845.1,236.8,1845.1z"/>
								</g>
								<g clip-path="url(#SVGID_73_)">
									<g opacity="0.1">
										<path fill="#010101" d="M273.4,1780.4c-24.5,0-63.3-16.6-63.3-71.9s63.3,14.8,63.3,14.8V1780.4z"/>
									</g>
									<g>
										<path fill="#A47B53" d="M276,1780.4c-24.5,0-63.3-16.6-63.3-71.9s63.3,14.8,63.3,14.8V1780.4z"/>
									</g>
								</g>
							</g>
							<g>
								<circle fill="#A47B53" cx="221.1" cy="1791.5" r="1.7"/>
								<circle fill="#A47B53" cx="252.5" cy="1791.5" r="1.7"/>
							</g>
							<circle fill="#F6C6A7" cx="276" cy="1790.8" r="6.4"/>
							<circle fill="#F6C6A7" cx="197.5" cy="1790.8" r="6.4"/>
						</g>
					</g>
				</g>
				<path fill="#424244" d="M252.5,1779.3c-6.3,0-11.5,4.8-12.1,11h-7.1c-0.6-6.2-5.8-11-12.1-11c-6.7,0-12.2,5.5-12.2,12.2
					c0,6.7,5.5,12.2,12.2,12.2c6.3,0,11.5-4.8,12.1-11h7.1c0.6,6.2,5.8,11,12.1,11c6.7,0,12.2-5.5,12.2-12.2
					C264.7,1784.8,259.2,1779.3,252.5,1779.3z M221.1,1801.2c-5.3,0-9.7-4.3-9.7-9.7c0-5.3,4.3-9.7,9.7-9.7s9.7,4.3,9.7,9.7
					C230.8,1796.8,226.4,1801.2,221.1,1801.2z M252.5,1801.2c-5.3,0-9.7-4.3-9.7-9.7c0-5.3,4.3-9.7,9.7-9.7s9.7,4.3,9.7,9.7
					C262.2,1796.8,257.8,1801.2,252.5,1801.2z"/>
			</g>
		</g>
	</g>
	<g>
		<polygon fill="#414042" points="576.5,1836.3 560.2,1886.8 544,1836.3 		"/>
		<g>
			<g>
				<g>
					<g>
						<g>
							<rect x="521" y="1791.6" fill="#A47B53" width="78.5" height="46.9"/>
							<path fill="#F6C6A7" d="M589.7,1831.6c-15.1,19-43.9,19-59,0c-5.6-7.1-9.8-14-9.8-19.2v-26.9c0-21.5,17.1-39.5,38.6-39.9
								c22-0.4,39.9,17.3,39.9,39.3v27.5C599.5,1817.5,595.4,1824.5,589.7,1831.6z"/>
							<g>
								<defs>
									<path id="SVGID_30_" d="M560.2,1849.7c-21.7,0-39.3-17.6-39.3-39.3v-25.6c0-21.7,17.6-39.3,39.3-39.3s39.3,17.6,39.3,39.3"
										/>
								</defs>
								<clipPath id="SVGID_75_">
									<use xlink:href="#SVGID_30_"  overflow="visible"/>
								</clipPath>
								<g clip-path="url(#SVGID_75_)">
									<defs>
										<path id="SVGID_31_" d="M521,1775.5c15.4,0,61.4-28.2,61.4-56.6s-37.3-9-37.3-9l-35.2,40.5L521,1775.5z"/>
									</defs>
									<use xlink:href="#SVGID_31_"  overflow="visible" fill="#A47B53"/>
									<clipPath id="SVGID_76_">
										<use xlink:href="#SVGID_31_"  overflow="visible"/>
									</clipPath>
									<path clip-path="url(#SVGID_76_)" fill="#A47B53" d="M560.2,1844c-21.7,0-39.3-17.6-39.3-39.3v-25.6
										c0-21.7,17.6-39.3,39.3-39.3s39.3,17.6,39.3,39.3v25.6C599.5,1826.4,581.9,1844,560.2,1844z"/>
								</g>
								<g clip-path="url(#SVGID_75_)">
									<g opacity="0.1">
										<path fill="#010101" d="M596.9,1779.3c-24.5,0-63.3-16.6-63.3-71.9s63.3,14.8,63.3,14.8V1779.3z"/>
									</g>
									<g>
										<path fill="#A47B53" d="M599.5,1779.3c-24.5,0-63.3-16.6-63.3-71.9s63.3,14.8,63.3,14.8V1779.3z"/>
									</g>
								</g>
							</g>
							<g>
								<circle fill="#A47B53" cx="544.5" cy="1790.4" r="1.7"/>
								<circle fill="#A47B53" cx="576" cy="1790.4" r="1.7"/>
							</g>
							<circle fill="#F6C6A7" cx="599.5" cy="1789.7" r="6.4"/>
							<circle fill="#F6C6A7" cx="521" cy="1789.7" r="6.4"/>
						</g>
					</g>
				</g>
				<path fill="#424244" d="M575.9,1778.2c-6.3,0-11.5,4.8-12.1,11h-7.1c-0.6-6.2-5.8-11-12.1-11c-6.7,0-12.2,5.5-12.2,12.2
					s5.5,12.2,12.2,12.2c6.3,0,11.5-4.8,12.1-11h7.1c0.6,6.2,5.8,11,12.1,11c6.7,0,12.2-5.5,12.2-12.2S582.7,1778.2,575.9,1778.2z
					 M544.5,1800.1c-5.3,0-9.7-4.3-9.7-9.7c0-5.3,4.3-9.7,9.7-9.7s9.7,4.3,9.7,9.7C554.2,1795.7,549.9,1800.1,544.5,1800.1z
					 M575.9,1800.1c-5.3,0-9.7-4.3-9.7-9.7c0-5.3,4.3-9.7,9.7-9.7s9.7,4.3,9.7,9.7C585.6,1795.7,581.3,1800.1,575.9,1800.1z"/>
			</g>
		</g>
	</g>
	<g>
		<polygon fill="#414042" points="409.3,1923.3 393,1973.7 376.8,1923.3 		"/>
		<g>
			<g>
				<g>
					<g>
						<defs>
							<path id="SVGID_26_" d="M343.3,1829.8l34.8-40c0,0,36.8-19.1,36.8,8.9c0,28-45.4,55.9-60.6,55.9L343.3,1829.8z"/>
						</defs>
						<use xlink:href="#SVGID_26_"  overflow="visible" fill="#71553A"/>
						<clipPath id="SVGID_77_">
							<use xlink:href="#SVGID_26_"  overflow="visible"/>
						</clipPath>
						<g clip-path="url(#SVGID_77_)">
							<path fill="#71553A" d="M393,1922.2c-21.4,0-38.8-17.4-38.8-38.8v-25.3c0-21.4,17.4-38.8,38.8-38.8
								c21.4,0,38.8,17.4,38.8,38.8v25.3C431.8,1904.8,414.5,1922.2,393,1922.2z"/>
						</g>
					</g>
					<g>
						<g opacity="0.1">
							<path fill="#010101" d="M429.2,1858.3c-24.2,0-62.6-16.4-62.6-71c0-54.6,62.6,14.6,62.6,14.6V1858.3z"/>
						</g>
						<g>
							<path fill="#71553A" d="M431.8,1858.3c-24.2,0-62.6-16.4-62.6-71c0-54.6,62.6,14.6,62.6,14.6V1858.3z"/>
						</g>
					</g>
				</g>
				<g>
					<path fill="#F6C6A7" d="M393,1927.8c-21.4,0-38.8-17.4-38.8-38.8v-25.3c0-21.4,17.4-38.8,38.8-38.8c21.4,0,38.8,17.4,38.8,38.8
						v25.3C431.8,1910.4,414.5,1927.8,393,1927.8z"/>
				</g>
				<g>
					<circle fill="#A47B53" cx="377.5" cy="1869.2" r="1.7"/>
					<circle fill="#A47B53" cx="408.6" cy="1869.2" r="1.7"/>
				</g>
				<circle fill="#F6C6A7" cx="431.8" cy="1868.6" r="6.3"/>
				<circle fill="#F6C6A7" cx="354.3" cy="1868.6" r="6.3"/>
				<g>
					<path fill="#71553A" d="M396.4,1896.5c-0.3,4.3-4.1,7.5-8.3,7.2c-4.3-0.3-18.8-1.3-18.8-1.3c5.3,0.4,10.6-15,19.9-14.2
						C393.5,1888.5,396.7,1892.2,396.4,1896.5z"/>
					<g>
						<g opacity="0.2">
							<path fill="#010101" d="M388.6,1897.4c0.6,4.3,4.6,7.2,8.8,6.6s18.6-2.6,18.6-2.6c-5.3,0.8-11.5-14.2-20.9-12.8
								C391,1889.2,388,1893.1,388.6,1897.4z"/>
						</g>
						<g>
							<path fill="#71553A" d="M389.8,1897.4c0.6,4.3,4.6,7.2,8.8,6.6c4.3-0.6,18.6-2.6,18.6-2.6c-5.3,0.8-11.5-14.2-20.9-12.8
								C392.1,1889.2,389.2,1893.1,389.8,1897.4z"/>
						</g>
					</g>
				</g>
			</g>
		</g>
	</g>
	<g>
		<polygon fill="#414042" points="456.7,1755.2 440.5,1805.7 424.2,1755.2 		"/>
		<g>
			<g>
				<g>
					<g>
						<defs>
							<path id="SVGID_29_" d="M390.7,1661.7l34.8-40c0,0,36.8-19.1,36.8,8.9s-45.4,55.9-60.6,55.9L390.7,1661.7z"/>
						</defs>
						<use xlink:href="#SVGID_29_"  overflow="visible" fill="#71553A"/>
						<clipPath id="SVGID_78_">
							<use xlink:href="#SVGID_29_"  overflow="visible"/>
						</clipPath>
						<g clip-path="url(#SVGID_78_)">
							<path fill="#71553A" d="M440.5,1754.1c-21.4,0-38.8-17.4-38.8-38.8v-25.3c0-21.4,17.4-38.8,38.8-38.8
								c21.4,0,38.8,17.4,38.8,38.8v25.3C479.2,1736.7,461.9,1754.1,440.5,1754.1z"/>
						</g>
					</g>
					<g>
						<g opacity="0.1">
							<path fill="#010101" d="M476.7,1690.2c-24.2,0-62.6-16.4-62.6-71c0-54.6,62.6,14.6,62.6,14.6V1690.2z"/>
						</g>
						<g>
							<path fill="#71553A" d="M479.2,1690.2c-24.2,0-62.6-16.4-62.6-71c0-54.6,62.6,14.6,62.6,14.6V1690.2z"/>
						</g>
					</g>
				</g>
				<g>
					<path fill="#F6C6A7" d="M440.5,1759.7c-21.4,0-38.8-17.4-38.8-38.8v-25.3c0-21.4,17.4-38.8,38.8-38.8
						c21.4,0,38.8,17.4,38.8,38.8v25.3C479.2,1742.3,461.9,1759.7,440.5,1759.7z"/>
				</g>
				<g>
					<circle fill="#A47B53" cx="425" cy="1701.2" r="1.7"/>
					<circle fill="#A47B53" cx="456" cy="1701.2" r="1.7"/>
				</g>
				<circle fill="#F6C6A7" cx="479.2" cy="1700.5" r="6.3"/>
				<circle fill="#F6C6A7" cx="401.7" cy="1700.5" r="6.3"/>
				<g>
					<path fill="#71553A" d="M443.8,1728.4c-0.3,4.3-4.1,7.5-8.3,7.2c-4.3-0.3-18.8-1.3-18.8-1.3c5.3,0.4,10.6-15,19.9-14.2
						C440.9,1720.4,444.1,1724.1,443.8,1728.4z"/>
					<g>
						<g opacity="0.2">
							<path fill="#010101" d="M436,1729.3c0.6,4.3,4.6,7.2,8.8,6.6c4.3-0.6,18.6-2.6,18.6-2.6c-5.3,0.8-11.5-14.2-20.9-12.8
								C438.4,1721.1,435.4,1725.1,436,1729.3z"/>
						</g>
						<g>
							<path fill="#71553A" d="M437.2,1729.3c0.6,4.3,4.6,7.2,8.8,6.6c4.3-0.6,18.6-2.6,18.6-2.6c-5.3,0.8-11.5-14.2-20.9-12.8
								C439.5,1721.1,436.6,1725.1,437.2,1729.3z"/>
						</g>
					</g>
				</g>
			</g>
		</g>
	</g>
</g>
</svg>
