<?xml version="1.0" encoding="utf-8"?>
<!-- Generator: Adobe Illustrator 17.1.0, SVG Export Plug-In . SVG Version: 6.00 Build 0)  -->
<!DOCTYPE svg PUBLIC "-//W3C//DTD SVG 1.1//EN" "http://www.w3.org/Graphics/SVG/1.1/DTD/svg11.dtd">
<svg version="1.1" xmlns="http://www.w3.org/2000/svg" xmlns:xlink="http://www.w3.org/1999/xlink" x="0px" y="0px"
	 viewBox="0 0 800 600" enable-background="new 0 0 800 600" xml:space="preserve">
<g id="bg">
	<rect x="1" y="0" fill="#E6E7E8" width="798" height="600"/>
</g>
<g id="Layer_1">
	<text transform="matrix(1 0 0 1 293.894 92.9993)" font-family="'ProximaNova-Bold'" font-size="45.3543">Research</text>
	<g>
		<g>
			<circle fill="#89CEDD" cx="156.3" cy="250.1" r="100.4"/>
			<circle fill="#949689" cx="256.6" cy="250.1" r="100.4"/>
			<circle fill="#DC5227" cx="206.1" cy="335.6" r="100.4"/>
		</g>
		<text transform="matrix(1 0 0 1 179.8995 278.3667)" fill="#FFFFFF" font-family="'OpenSans'" font-size="22.6772">chair</text>
		<text transform="matrix(1 0 0 1 72.0325 242.8855)" fill="#FFFFFF" font-family="'OpenSans'" font-size="22.6772">chrome</text>
		<text transform="matrix(1 0 0 1 274.8996 242.8855)" fill="#FFFFFF" font-family="'OpenSans'" font-size="22.6772">nike</text>
		<text transform="matrix(1 0 0 1 230.2076 314.8636)" fill="#FFFFFF" font-family="'OpenSans'" font-size="22.6772">facade</text>
		<text transform="matrix(1 0 0 1 129.9568 314.8636)" fill="#FFFFFF" font-family="'OpenSans'" font-size="22.6772">css</text>
		<text transform="matrix(1 0 0 1 174.1252 217.5492)" fill="#FFFFFF" font-family="'OpenSans'" font-size="22.6772">middle</text>
		<text transform="matrix(1 0 0 1 169.2251 377.0532)" fill="#FFFFFF" font-family="'OpenSans'" font-size="22.6772">noodle</text>
	</g>
</g>
</svg>
