<?xml version="1.0" encoding="utf-8"?>
<!-- Generator: Adobe Illustrator 17.1.0, SVG Export Plug-In . SVG Version: 6.00 Build 0)  -->
<!DOCTYPE svg PUBLIC "-//W3C//DTD SVG 1.1//EN" "http://www.w3.org/Graphics/SVG/1.1/DTD/svg11.dtd">
<svg version="1.1" xmlns="http://www.w3.org/2000/svg" xmlns:xlink="http://www.w3.org/1999/xlink" x="0px" y="0px"
	 viewBox="0 0 87.2 87.2" enable-background="new 0 0 87.2 87.2" xml:space="preserve">
<g id="bg">
</g>
<g id="Layer_1">
	<g>
		<g>
			<g>
				<circle fill="#FFFFFF" cx="43.6" cy="43.6" r="42.6"/>
				<path fill="#939598" d="M43.6,1c23.5,0,42.6,19.1,42.6,42.6c0,23.5-19.1,42.6-42.6,42.6C20.1,86.2,1,67.1,1,43.6
					C1,20.1,20.1,1,43.6,1 M43.6,0C19.6,0,0,19.6,0,43.6s19.6,43.6,43.6,43.6s43.6-19.6,43.6-43.6S67.7,0,43.6,0L43.6,0z"/>
			</g>
		</g>
		<g>
			<g>
				<radialGradient id="SVGID_46_" cx="43.6081" cy="43.6081" r="20.2141" gradientUnits="userSpaceOnUse">
					<stop  offset="0.453" style="stop-color:#E9E9EA"/>
					<stop  offset="0.6363" style="stop-color:#E6E7E8"/>
					<stop  offset="0.7706" style="stop-color:#DEDFE1"/>
					<stop  offset="0.8889" style="stop-color:#D1D3D4"/>
					<stop  offset="0.998" style="stop-color:#BEC0C2"/>
					<stop  offset="1" style="stop-color:#BEC0C2"/>
				</radialGradient>
				<circle fill="url(#SVGID_46_)" cx="43.6" cy="43.6" r="20.2"/>
				<path fill="#FFFFFF" d="M43.6,23.4c11.2,0,20.2,9.1,20.2,20.2c0,11.2-9.1,20.2-20.2,20.2c-11.2,0-20.2-9.1-20.2-20.2
					C23.4,32.4,32.4,23.4,43.6,23.4 M43.6,22.9c-11.4,0-20.7,9.3-20.7,20.7s9.3,20.7,20.7,20.7S64.3,55,64.3,43.6S55,22.9,43.6,22.9
					L43.6,22.9z"/>
			</g>
		</g>
	</g>
</g>
</svg>
