<?xml version="1.0" encoding="utf-8"?>
<!-- Generator: Adobe Illustrator 17.1.0, SVG Export Plug-In . SVG Version: 6.00 Build 0)  -->
<!DOCTYPE svg PUBLIC "-//W3C//DTD SVG 1.1//EN" "http://www.w3.org/Graphics/SVG/1.1/DTD/svg11.dtd">
<svg version="1.1" id="Layer_1" xmlns:sketch="http://www.bohemiancoding.com/sketch/ns"
	 xmlns="http://www.w3.org/2000/svg" xmlns:xlink="http://www.w3.org/1999/xlink" x="0px" y="0px" viewBox="20.3 139.2 378.9 128"
	 enable-background="new 20.3 139.2 378.9 128" xml:space="preserve">
<title>two-factor</title>
<description>Created with Sketch.</description>
<g>
	<path id="_x2B_" sketch:type="MSShapeGroup" fill="#4A4A4A" d="M218.7,198.1v-3.2h-7.2V187H208v7.9h-7.3v3.2h7.3v8.2h3.5v-8.2
		H218.7z"/>
	<g>
		<path id="BG" sketch:type="MSShapeGroup" fill="#1ABC9C" d="M25.3,139.2h125.1c2.8,0,5,2.2,5,5v118c0,2.8-2.2,5-5,5H25.3
			c-2.8,0-5-2.2-5-5v-118C20.3,141.5,22.5,139.2,25.3,139.2z"/>
		<g>
			<g>
				
					<path id="Rectangle-20" sketch:type="MSShapeGroup" fill="none" stroke="#FFFFFF" stroke-width="0.4553" stroke-linecap="square" d="
					M49.1,202.6h14.5c1.3,0,2.3,1.1,2.3,2.3v19.6c0,1.3-1.1,2.3-2.3,2.3H49.1c-1.3,0-2.3-1.1-2.3-2.3V205
					C46.7,203.7,47.8,202.6,49.1,202.6z"/>
				<circle id="Oval-7" sketch:type="MSShapeGroup" fill="#FFFFFF" cx="56.5" cy="214.8" r="3.2">
				</circle>
				
					<path id="Rectangle-20_1_" sketch:type="MSShapeGroup" fill="none" stroke="#FFFFFF" stroke-width="0.4553" stroke-linecap="square" d="
					M70.1,202.6h14.5c1.3,0,2.3,1.1,2.3,2.3v19.6c0,1.3-1.1,2.3-2.3,2.3H70.1c-1.3,0-2.3-1.1-2.3-2.3V205
					C67.7,203.7,68.8,202.6,70.1,202.6z"/>
				<path id="Oval-7_1_" sketch:type="MSShapeGroup" fill="#FFFFFF" d="M77.1,217.9c1.8,0,3.2-1.4,3.2-3.2c0-1.8-1.4-3.2-3.2-3.2
					c-1.8,0-3.2,1.4-3.2,3.2C73.9,216.5,75.3,217.9,77.1,217.9z"/>
				
					<path id="Rectangle-20_2_" sketch:type="MSShapeGroup" fill="none" stroke="#FFFFFF" stroke-width="0.4553" stroke-linecap="square" d="
					M91.1,202.6h14.5c1.3,0,2.3,1.1,2.3,2.3v19.6c0,1.3-1.1,2.3-2.3,2.3H91.1c-1.3,0-2.3-1.1-2.3-2.3V205
					C88.7,203.7,89.8,202.6,91.1,202.6z"/>
				<path id="Oval-7_2_" sketch:type="MSShapeGroup" fill="#FFFFFF" d="M97.6,217.9c1.8,0,3.2-1.4,3.2-3.2c0-1.8-1.4-3.2-3.2-3.2
					c-1.8,0-3.2,1.4-3.2,3.2C94.5,216.5,95.9,217.9,97.6,217.9z"/>
				
					<path id="Rectangle-20_3_" sketch:type="MSShapeGroup" fill="none" stroke="#FFFFFF" stroke-width="0.4553" stroke-linecap="square" d="
					M112.1,202.6h14.5c1.3,0,2.3,1.1,2.3,2.3v19.6c0,1.3-1.1,2.3-2.3,2.3h-14.5c-1.3,0-2.3-1.1-2.3-2.3V205
					C109.7,203.7,110.8,202.6,112.1,202.6z"/>
				<circle id="Oval-7_3_" sketch:type="MSShapeGroup" fill="#FFFFFF" cx="119.6" cy="214.8" r="3.2">
				</circle>
			</g>
		</g>
		<line fill="none" stroke="#FFFFFF" x1="30.6" y1="186.1" x2="145" y2="186.1"/>
		<g>
			<path fill="#FFFFFF" d="M53,158.8l0.9-1.3c0.6,0.6,1.4,1.1,2.5,1.1c0.9,0,1.4-0.4,1.4-0.9c0-1.4-4.6-0.4-4.6-3.5
				c0-1.3,1.2-2.4,3-2.4c1.3,0,2.3,0.4,3.1,1.1l-0.9,1.2c-0.6-0.6-1.5-0.9-2.3-0.9c-0.7,0-1.1,0.3-1.1,0.8c0,1.3,4.6,0.4,4.6,3.4
				c0,1.5-1,2.6-3.2,2.6C54.9,160.1,53.8,159.6,53,158.8z"/>
			<path fill="#FFFFFF" d="M60.4,155.9c0-2.4,1.8-4.1,4.2-4.1c2.4,0,4.2,1.7,4.2,4.1c0,2.4-1.8,4.1-4.2,4.1
				C62.1,160.1,60.4,158.4,60.4,155.9z M67,155.9c0-1.5-1-2.6-2.4-2.6s-2.4,1.1-2.4,2.6c0,1.5,0.9,2.6,2.4,2.6S67,157.4,67,155.9z"
				/>
			<path fill="#FFFFFF" d="M76.9,159.9v-5.6l-2.3,5.6h-0.7l-2.3-5.6v5.6h-1.7v-8h2.4l1.9,4.8l1.9-4.8h2.4v8H76.9z"/>
			<path fill="#FFFFFF" d="M80.2,159.9v-8h5.7v1.5h-4v1.7h3.9v1.5h-3.9v1.8h4v1.5H80.2z"/>
			<path fill="#FFFFFF" d="M89.1,159.9v-6.5h-2.3v-1.5h6.4v1.5h-2.3v6.5H89.1z"/>
			<path fill="#FFFFFF" d="M99.7,159.9v-3.4h-3.8v3.4h-1.7v-8h1.7v3.1h3.8v-3.1h1.7v8H99.7z"/>
			<path fill="#FFFFFF" d="M103,159.9v-8h1.7v8H103z"/>
			<path fill="#FFFFFF" d="M111.8,159.9l-3.8-5.2v5.2h-1.7v-8h1.8l3.7,5v-5h1.7v8H111.8z"/>
			<path fill="#FFFFFF" d="M114.6,155.9c0-2.5,1.9-4.1,4.3-4.1c1.7,0,2.7,0.8,3.3,1.8l-1.4,0.8c-0.4-0.6-1-1-1.9-1
				c-1.5,0-2.5,1.1-2.5,2.6c0,1.5,1.1,2.6,2.5,2.6c0.7,0,1.4-0.3,1.7-0.6v-1h-2.1v-1.5h3.8v3.1c-0.8,0.9-2,1.5-3.4,1.5
				C116.5,160.1,114.6,158.5,114.6,155.9z"/>
			<path fill="#FFFFFF" d="M58.5,174.3v-3.3l-3.1-4.7h1.9l2,3.2l2-3.2h1.9l-3.1,4.7v3.3H58.5z"/>
			<path fill="#FFFFFF" d="M63.2,170.3c0-2.4,1.8-4.1,4.2-4.1c2.4,0,4.2,1.7,4.2,4.1c0,2.4-1.8,4.1-4.2,4.1
				C64.9,174.5,63.2,172.8,63.2,170.3z M69.8,170.3c0-1.5-1-2.6-2.4-2.6s-2.4,1.1-2.4,2.6c0,1.5,0.9,2.6,2.4,2.6
				S69.8,171.8,69.8,170.3z"/>
			<path fill="#FFFFFF" d="M72.7,171.2v-4.8h1.7v4.8c0,1.1,0.6,1.9,1.9,1.9c1.2,0,1.9-0.8,1.9-1.9v-4.8h1.7v4.8c0,2-1.2,3.3-3.6,3.3
				C73.9,174.5,72.7,173.1,72.7,171.2z"/>
			<path fill="#FFFFFF" d="M89.3,174.3l-2.4-3.2l-0.6,0.7v2.5h-1.7v-8h1.7v3.6l2.8-3.6h2.1l-3.2,3.8l3.4,4.2H89.3z"/>
			<path fill="#FFFFFF" d="M97.7,174.3l-3.8-5.2v5.2h-1.7v-8H94l3.7,5v-5h1.7v8H97.7z"/>
			<path fill="#FFFFFF" d="M100.6,170.3c0-2.4,1.8-4.1,4.2-4.1c2.4,0,4.2,1.7,4.2,4.1c0,2.4-1.8,4.1-4.2,4.1
				C102.3,174.5,100.6,172.8,100.6,170.3z M107.2,170.3c0-1.5-1-2.6-2.4-2.6s-2.4,1.1-2.4,2.6c0,1.5,0.9,2.6,2.4,2.6
				S107.2,171.8,107.2,170.3z"/>
			<path fill="#FFFFFF" d="M116,174.3l-1.4-5.5l-1.4,5.5h-1.8l-2.3-8h1.9l1.4,5.8l1.5-5.8h1.3l1.5,5.8l1.4-5.8h1.9l-2.3,8H116z"/>
		</g>
		<g>
			<g>
				<path fill="#FFFFFF" d="M60.8,247.5v-8h3.7c1.7,0,2.7,1.2,2.7,2.6c0,1.4-1,2.6-2.7,2.6h-2v2.8H60.8z M65.5,242
					c0-0.7-0.5-1.1-1.2-1.1h-1.8v2.2h1.8C65,243.1,65.5,242.7,65.5,242z"/>
				<path fill="#FFFFFF" d="M68.3,247.5v-8H70v8H68.3z"/>
				<path fill="#FFFFFF" d="M77.1,247.5l-3.8-5.2v5.2h-1.7v-8h1.8l3.7,5v-5h1.7v8H77.1z"/>
				<path fill="#FFFFFF" d="M83,243.5c0-2.5,1.9-4.1,4.3-4.1c1.8,0,2.8,1,3.3,2l-1.5,0.7c-0.3-0.6-1.1-1.2-1.9-1.2
					c-1.5,0-2.5,1.1-2.5,2.6c0,1.5,1.1,2.6,2.5,2.6c0.8,0,1.5-0.5,1.9-1.2l1.5,0.7c-0.6,1-1.6,2-3.3,2C84.9,247.6,83,245.9,83,243.5
					z"/>
				<path fill="#FFFFFF" d="M91.2,243.5c0-2.4,1.8-4.1,4.2-4.1c2.4,0,4.2,1.7,4.2,4.1c0,2.4-1.8,4.1-4.2,4.1
					C93,247.6,91.2,245.9,91.2,243.5z M97.9,243.5c0-1.5-1-2.6-2.4-2.6S93,242,93,243.5c0,1.5,0.9,2.6,2.4,2.6S97.9,245,97.9,243.5z
					"/>
				<path fill="#FFFFFF" d="M100.8,247.5v-8h3.2c2.5,0,4.2,1.6,4.2,4c0,2.4-1.7,4-4.2,4H100.8z M106.5,243.5c0-1.4-0.9-2.5-2.5-2.5
					h-1.5v5h1.5C105.5,246,106.5,244.8,106.5,243.5z"/>
				<path fill="#FFFFFF" d="M109.4,247.5v-8h5.7v1.5h-4v1.7h3.9v1.5h-3.9v1.8h4v1.5H109.4z"/>
			</g>
		</g>
	</g>
	<g>
		<path id="BG_1_" sketch:type="MSShapeGroup" fill="#1ABC9C" d="M269.1,139.2h125.1c2.8,0,5,2.2,5,5v118c0,2.8-2.2,5-5,5H269.1
			c-2.8,0-5-2.2-5-5v-118C264.1,141.5,266.3,139.2,269.1,139.2z"/>
		<line fill="none" stroke="#FFFFFF" x1="274.4" y1="186.1" x2="388.8" y2="186.1"/>
		<g>
			<path fill="#FFFFFF" d="M296.8,158.8l0.9-1.3c0.6,0.6,1.4,1.1,2.5,1.1c0.9,0,1.4-0.4,1.4-0.9c0-1.4-4.6-0.4-4.6-3.5
				c0-1.3,1.2-2.4,3-2.4c1.3,0,2.3,0.4,3.1,1.1l-0.9,1.2c-0.6-0.6-1.5-0.9-2.3-0.9c-0.7,0-1.1,0.3-1.1,0.8c0,1.3,4.6,0.4,4.6,3.4
				c0,1.5-1,2.6-3.2,2.6C298.7,160.1,297.6,159.6,296.8,158.8z"/>
			<path fill="#FFFFFF" d="M304.2,155.9c0-2.4,1.8-4.1,4.2-4.1c2.4,0,4.2,1.7,4.2,4.1c0,2.4-1.8,4.1-4.2,4.1
				C306,160.1,304.2,158.4,304.2,155.9z M310.8,155.9c0-1.5-1-2.6-2.4-2.6c-1.5,0-2.4,1.1-2.4,2.6c0,1.5,0.9,2.6,2.4,2.6
				C309.8,158.6,310.8,157.4,310.8,155.9z"/>
			<path fill="#FFFFFF" d="M320.7,159.9v-5.6l-2.3,5.6h-0.7l-2.3-5.6v5.6h-1.7v-8h2.4l1.9,4.8l1.9-4.8h2.4v8H320.7z"/>
			<path fill="#FFFFFF" d="M324,159.9v-8h5.7v1.5h-4v1.7h3.9v1.5h-3.9v1.8h4v1.5H324z"/>
			<path fill="#FFFFFF" d="M332.9,159.9v-6.5h-2.3v-1.5h6.4v1.5h-2.3v6.5H332.9z"/>
			<path fill="#FFFFFF" d="M343.5,159.9v-3.4h-3.8v3.4H338v-8h1.7v3.1h3.8v-3.1h1.7v8H343.5z"/>
			<path fill="#FFFFFF" d="M346.8,159.9v-8h1.7v8H346.8z"/>
			<path fill="#FFFFFF" d="M355.6,159.9l-3.8-5.2v5.2h-1.7v-8h1.8l3.7,5v-5h1.7v8H355.6z"/>
			<path fill="#FFFFFF" d="M358.4,155.9c0-2.5,1.9-4.1,4.3-4.1c1.7,0,2.7,0.8,3.3,1.8l-1.4,0.8c-0.4-0.6-1-1-1.9-1
				c-1.5,0-2.5,1.1-2.5,2.6c0,1.5,1.1,2.6,2.5,2.6c0.7,0,1.4-0.3,1.7-0.6v-1h-2.1v-1.5h3.8v3.1c-0.8,0.9-2,1.5-3.4,1.5
				C360.3,160.1,358.4,158.5,358.4,155.9z"/>
			<path fill="#FFFFFF" d="M306.1,174.3v-3.3l-3.1-4.7h1.9l2,3.2l2-3.2h1.9l-3.1,4.7v3.3H306.1z"/>
			<path fill="#FFFFFF" d="M310.8,170.3c0-2.4,1.8-4.1,4.2-4.1c2.4,0,4.2,1.7,4.2,4.1c0,2.4-1.8,4.1-4.2,4.1
				C312.5,174.5,310.8,172.8,310.8,170.3z M317.4,170.3c0-1.5-1-2.6-2.4-2.6c-1.5,0-2.4,1.1-2.4,2.6c0,1.5,0.9,2.6,2.4,2.6
				C316.4,173,317.4,171.8,317.4,170.3z"/>
			<path fill="#FFFFFF" d="M320.3,171.2v-4.8h1.7v4.8c0,1.1,0.6,1.9,1.9,1.9s1.9-0.8,1.9-1.9v-4.8h1.7v4.8c0,2-1.2,3.3-3.6,3.3
				C321.5,174.5,320.3,173.1,320.3,171.2z"/>
			<path fill="#FFFFFF" d="M331.8,170.3c0-2.4,1.8-4.1,4.2-4.1c2.4,0,4.2,1.7,4.2,4.1c0,2.4-1.8,4.1-4.2,4.1
				C333.6,174.5,331.8,172.8,331.8,170.3z M338.4,170.3c0-1.5-1-2.6-2.4-2.6c-1.5,0-2.4,1.1-2.4,2.6c0,1.5,0.9,2.6,2.4,2.6
				C337.5,173,338.4,171.8,338.4,170.3z"/>
			<path fill="#FFFFFF" d="M347.3,174.3l-1.4-5.5l-1.4,5.5h-1.8l-2.3-8h1.9l1.4,5.8l1.5-5.8h1.3l1.5,5.8l1.4-5.8h1.9l-2.3,8H347.3z"
				/>
			<path fill="#FFFFFF" d="M357.7,174.3l-3.8-5.2v5.2h-1.7v-8h1.8l3.7,5v-5h1.7v8H357.7z"/>
		</g>
		<g>
			
				<path id="Rectangle-26" sketch:type="MSShapeGroup" fill="none" stroke="#FFFFFF" stroke-width="0.525" stroke-miterlimit="10" d="
				M324.7,196.7h13.8c1.2,0,2.2,1,2.2,2.2v29.6c0,1.2-1,2.2-2.2,2.2h-13.8c-1.2,0-2.2-1-2.2-2.2v-29.6
				C322.5,197.7,323.5,196.7,324.7,196.7z"/>
			<rect id="Rectangle-27" x="323.7" y="203" sketch:type="MSShapeGroup" fill="#FFFFFF" width="15.8" height="21.5">
			</rect>
		</g>
		<g>
			<g>
				<path fill="#FFFFFF" d="M295.3,247.5v-5.6l-2.3,5.6h-0.7l-2.3-5.6v5.6h-1.7v-8h2.4l1.9,4.8l1.9-4.8h2.4v8H295.3z"/>
				<path fill="#FFFFFF" d="M298.2,243.5c0-2.4,1.8-4.1,4.2-4.1c2.4,0,4.2,1.7,4.2,4.1c0,2.4-1.8,4.1-4.2,4.1
					C299.9,247.6,298.2,245.9,298.2,243.5z M304.8,243.5c0-1.5-1-2.6-2.4-2.6c-1.5,0-2.4,1.1-2.4,2.6c0,1.5,0.9,2.6,2.4,2.6
					C303.8,246.1,304.8,245,304.8,243.5z"/>
				<path fill="#FFFFFF" d="M307.7,247.5v-8h4.2c1.5,0,2.3,1,2.3,2c0,1-0.6,1.7-1.4,1.8c0.9,0.1,1.5,1,1.5,2c0,1.2-0.8,2.2-2.3,2.2
					H307.7z M312.5,241.8c0-0.5-0.4-0.9-0.9-0.9h-2.1v1.7h2.1C312.2,242.7,312.5,242.3,312.5,241.8z M312.7,245.1
					c0-0.5-0.4-0.9-1-0.9h-2.2v1.9h2.2C312.3,246,312.7,245.6,312.7,245.1z"/>
				<path fill="#FFFFFF" d="M315.7,247.5v-8h1.7v8H315.7z"/>
				<path fill="#FFFFFF" d="M319,247.5v-8h1.7v6.5h3.4v1.5H319z"/>
				<path fill="#FFFFFF" d="M325.3,247.5v-8h5.7v1.5h-4v1.7h3.9v1.5H327v1.8h4v1.5H325.3z"/>
				<path fill="#FFFFFF" d="M335.3,247.5v-8h3.7c1.7,0,2.7,1.2,2.7,2.6c0,1.4-1,2.6-2.7,2.6h-2v2.8H335.3z M340,242
					c0-0.7-0.5-1.1-1.2-1.1H337v2.2h1.8C339.5,243.1,340,242.7,340,242z"/>
				<path fill="#FFFFFF" d="M348.3,247.5v-3.4h-3.8v3.4h-1.7v-8h1.7v3.1h3.8v-3.1h1.7v8H348.3z"/>
				<path fill="#FFFFFF" d="M351.2,243.5c0-2.4,1.8-4.1,4.2-4.1c2.4,0,4.2,1.7,4.2,4.1c0,2.4-1.8,4.1-4.2,4.1
					C353,247.6,351.2,245.9,351.2,243.5z M357.8,243.5c0-1.5-1-2.6-2.4-2.6c-1.5,0-2.4,1.1-2.4,2.6c0,1.5,0.9,2.6,2.4,2.6
					C356.9,246.1,357.8,245,357.8,243.5z"/>
				<path fill="#FFFFFF" d="M366.3,247.5l-3.8-5.2v5.2h-1.7v-8h1.8l3.7,5v-5h1.7v8H366.3z"/>
				<path fill="#FFFFFF" d="M369.5,247.5v-8h5.7v1.5h-4v1.7h3.9v1.5h-3.9v1.8h4v1.5H369.5z"/>
			</g>
		</g>
	</g>
</g>
</svg>
